M48
METRIC,000.000             
%
T01C0.600000
X57201Y29401
X63210Y29561
X57201Y37021
X63210Y37181
X91153Y81956
X98773Y81956
X101567Y81956
X109187Y81956
T02C0.700000
X100101Y57400
T03C0.800000
X22662Y11199
X27742Y11199
X7691Y11999
X15311Y11999
X19002Y14460
X5131Y17100
X7671Y17100
X19002Y19540
X7691Y21999
X15311Y21999
X22192Y21999
X29812Y21999
X17731Y27230
X20271Y27230
X17731Y29770
X22192Y33000
X29812Y33000
X5692Y33498
X13312Y33498
X5502Y37689
X22201Y37830
X15501Y37958
X22201Y40370
X15501Y43038
X22192Y44999
X29812Y44999
X5502Y45309
X57170Y16569
X63170Y16569
X57170Y20069
X63170Y20069
X51120Y20099
X57170Y23569
X63170Y23569
X51120Y25179
X15091Y61600
X22711Y61600
X3690Y62500
X11310Y62500
X26962Y63500
X32042Y63500
X17231Y66630
X19771Y66630
X17231Y69170
X25692Y69500
X33312Y69500
X3690Y73500
X11310Y73500
X25692Y76000
X33312Y76000
X17131Y76130
X19671Y76130
X3690Y78499
X11310Y78499
X17131Y78670
X28401Y82430
X6671Y83830
X14191Y84501
X21811Y84501
X28401Y84970
X4131Y86370
X6671Y86370
X14231Y90000
X16771Y90000
X29002Y90960
X20031Y94600
X22571Y94600
X4191Y95499
X11811Y95499
X29002Y96040
X107732Y5230
X110272Y5230
X107732Y7770
X97000Y12500
X103000Y12500
X97000Y16000
X103000Y16000
X97000Y19500
X103000Y19500
X94000Y21461
X99192Y23000
X106812Y23000
X94000Y26541
X85730Y26731
X88270Y26731
X104732Y28730
X107272Y28730
X88270Y29271
X93002Y30501
X99002Y30501
X104732Y31270
X93002Y34001
X99002Y34001
X93002Y37501
X99002Y37501
X107500Y13231
X107500Y15771
X134460Y3000
X139540Y3000
X143190Y3000
X150810Y3000
X157000Y6459
X125311Y6889
X149441Y8588
X151981Y8588
X123312Y8890
X149441Y11128
X157000Y11539
X130312Y11890
X123312Y14890
X148001Y15189
X125311Y16891
X151001Y19500
X158001Y21501
X125311Y22129
X148001Y22809
X123312Y24130
X130312Y27130
X150000Y29690
X123312Y30130
X147000Y31961
X125311Y32131
X131460Y32500
X136540Y32500
X140043Y33734
X128105Y34750
X137503Y36274
X140043Y36274
X147000Y37041
X125565Y37290
X128105Y37290
X150000Y37310
X149002Y40191
X152001Y40191
X146002Y41961
X124491Y42100
X132111Y42100
X122962Y44999
X128042Y44999
X146002Y47041
X149002Y47811
X152001Y47811
X121691Y48001
X129312Y48001
X156002Y32459
X156002Y37539
X50500Y60960
X60500Y65959
X50500Y66040
X60500Y71039
X44461Y76000
X49541Y76000
X60501Y78960
X50501Y80860
X60501Y84040
X50501Y85940
X55501Y65959
X65501Y65959
X73002Y65959
X44501Y65960
X55501Y71039
X65501Y71039
X73002Y71039
X44501Y71040
X55501Y78960
X66001Y78960
X73001Y78960
X44501Y80960
X55501Y84040
X66001Y84040
X73001Y84040
X44501Y86040
X83002Y58189
X90301Y59930
X90301Y62470
X97191Y63000
X104811Y63000
X108191Y63000
X115811Y63000
X83002Y65809
X86190Y66000
X93810Y66000
X100805Y69002
X103345Y69002
X83190Y71001
X90810Y71001
X108191Y71001
X115811Y71001
X100805Y71542
X93731Y75200
X96271Y75200
X111931Y77000
X114471Y77000
X108425Y86528
X110965Y86528
X86327Y86782
X88867Y86782
X110965Y89068
X86327Y89322
X89121Y90338
X96741Y90338
X99281Y90338
X106901Y90338
X96601Y93530
X96601Y96070
X136002Y58390
X141001Y58390
X144790Y62601
X152410Y62601
X129901Y63830
X136002Y66010
X141001Y66010
X129901Y66370
X148731Y68700
X151271Y68700
X136060Y70000
X141140Y70000
X124191Y73399
X131811Y73399
X144788Y75200
X152408Y75200
X139371Y75330
X124191Y77801
X131811Y77801
X136831Y77870
X139371Y77870
X127391Y83401
X135011Y83401
X144790Y83401
X152410Y83401
X139601Y83462
X139601Y88542
X152400Y89660
X127391Y89800
X135011Y89800
X139598Y91661
X152400Y94740
X127391Y95400
X135011Y95400
X139598Y96741
X183190Y3000
X190810Y3000
X167730Y4730
X170270Y4730
X175730Y4730
X178270Y4730
X183190Y7000
X190810Y7000
X170270Y7270
X178270Y7270
X162460Y11000
X167540Y11000
X168000Y15460
X168000Y20540
T04C0.900000
X133922Y7001
X144082Y7001
X163000Y14920
X163000Y25080
T05C1.000000
X9841Y3100
X12381Y3100
X14921Y3100
X17461Y3100
X20001Y3100
X22541Y3100
X25081Y3100
X27621Y3100
X30161Y3100
X45032Y21689
X45032Y24229
X57481Y3701
X62482Y3701
X59980Y6201
X57481Y8700
X62482Y8700
X57520Y41200
X62521Y41200
X60022Y43699
X57520Y46199
X62521Y46199
X9941Y52900
X12481Y52900
X15021Y52900
X17561Y52900
X20101Y52900
X22641Y52900
X25181Y52900
X27721Y52900
X30261Y52900
X116101Y4030
X116101Y6570
X116001Y11560
X116001Y14100
X116001Y16640
X97180Y3602
X102182Y3602
X99680Y6101
X97180Y8601
X102182Y8601
X111402Y22180
X116401Y22180
X113901Y24679
X111402Y27181
X116401Y27181
X97820Y41400
X102822Y41400
X100322Y43899
X97820Y46398
X102822Y46398
X154112Y2810
X156652Y2810
X128730Y3000
X131270Y3000
X137620Y41400
X142621Y41400
X140122Y43899
X137620Y46399
X142621Y46399
X136190Y10856
X143810Y10856
X136190Y18476
X143810Y18476
X136190Y23556
X143810Y23556
X136190Y28636
X143810Y28636
X57481Y53601
X62482Y53601
X59980Y56101
X57481Y58600
X62482Y58600
X49520Y91200
X54521Y91200
X65520Y91200
X70521Y91200
X52022Y93699
X68022Y93699
X49520Y96199
X54521Y96199
X65520Y96199
X70521Y96199
X89841Y52800
X92381Y52800
X94921Y52800
X97461Y52800
X100001Y52800
X102541Y52800
X105081Y52800
X107621Y52800
X110161Y52800
X86501Y75660
X86501Y80740
X87731Y95100
X90271Y95100
X129941Y53000
X132481Y53000
X135021Y53000
X137561Y53000
X140101Y53000
X142641Y53000
X145181Y53000
X147721Y53000
X150261Y53000
X196100Y8030
X196100Y10570
X196000Y15030
X196000Y17570
X196000Y22190
X196000Y24730
X196000Y27270
X196000Y29810
X169840Y35000
X172380Y35000
X174920Y35000
X177460Y35000
X180000Y35000
X182540Y35000
X185080Y35000
X187620Y35000
X190160Y35000
X196000Y41730
X196000Y44270
X169840Y55000
X172380Y55000
X174920Y55000
X177460Y55000
X180000Y55000
X182540Y55000
X185080Y55000
X187620Y55000
X190160Y55000
X196000Y59730
X196000Y62270
X196000Y66730
X196000Y69270
X169840Y75000
X172380Y75000
X174920Y75000
X177460Y75000
X180000Y75000
X182540Y75000
X185080Y75000
X187620Y75000
X190160Y75000
X196000Y78160
X196000Y80700
X196000Y83240
X196000Y88230
X196000Y90770
X169840Y95000
X172380Y95000
X174920Y95000
X177460Y95000
X180000Y95000
X182540Y95000
X185080Y95000
X187620Y95000
X190160Y95000
X171856Y13190
X179476Y13190
X184556Y13190
X189636Y13190
X171856Y20810
X179476Y20810
X184556Y20810
X189636Y20810
T06C3.200000
X3000Y3000
X37003Y47000
X43000Y3000
X77003Y47000
X3000Y53000
X37003Y97000
X83000Y3000
X117003Y47000
X123000Y3000
X157003Y47000
X43000Y53000
X77003Y97000
X83000Y53000
X117003Y97000
X123000Y53000
X157003Y97000
X163000Y3000
X196900Y3100
X163200Y96900
X197000Y97000
M30
