G75*
G71*
%MOMM*%
%OFA0B0*%
%FSLAX53Y53*%
%IPPOS*%
%LPD*%
%ADD10R,2.23520X2.54000*%
%ADD11R,1.93040X1.93040*%
%ADD13R,2.23520X2.23520*%
%ADD14C,2.50698*%
%ADD16O,2.23520X2.54000*%
%ADD19O,2.23520X2.23520*%
%ADD20R,2.50698X6.60400*%
%ADD22R,2.54000X2.30800*%
%ADD32R,6.60400X2.50698*%
%ADD33C,2.28600*%
%ADD36R,2.54000X2.23520*%
%ADD37R,2.03200X9.50722*%
%ADD39C,1.90500*%
%ADD45R,2.30800X2.54000*%
%ADD51R,2.03200X2.03200*%
%ADD54C,1.93040*%
%ADD56C,0.15000*%
%ADD57O,2.54000X2.23520*%
%ADD59C,2.10820*%
%ADD60R,9.50722X2.03200*%
%ADD62C,2.03200*%
%ADD63C,2.30632*%
%ADD64C,5.50926*%
%ADD67R,2.28600X2.28600*%
%ADD72R,2.50698X2.50698*%
%ADD74O,2.54000X2.54000*%
%ADD81R,1.90500X1.90500*%
%ADD82O,4.50850X2.50698*%
%ADD83O,2.50698X7.50824*%
X0000000Y0000000D02*
G01*
D56*
D22*
X0036101Y0004030D03*
D74*
X0036101Y0006570D03*
D64*
X0037003Y0047000D03*
X0003000Y0003000D03*
D62*
X0019002Y0037501D03*
X0013002Y0037501D03*
D39*
X0019002Y0034001D03*
X0013002Y0034001D03*
X0019002Y0030501D03*
X0013002Y0030501D03*
D62*
X0017000Y0012500D03*
X0023000Y0012500D03*
D39*
X0017000Y0016000D03*
X0023000Y0016000D03*
X0017000Y0019500D03*
X0023000Y0019500D03*
X0024732Y0031270D03*
D81*
X0024732Y0028730D03*
D39*
X0027272Y0028730D03*
X0026812Y0023000D03*
X0019192Y0023000D03*
D72*
X0027500Y0013231D03*
D14*
X0027500Y0015771D03*
D39*
X0014000Y0021461D03*
X0014000Y0026541D03*
D81*
X0030272Y0005230D03*
D39*
X0027732Y0005230D03*
X0027732Y0007770D03*
X0005730Y0026731D03*
D81*
X0008270Y0026731D03*
D39*
X0008270Y0029271D03*
D60*
X0035001Y0027895D03*
D56*
G36*
X0038640Y0023476D02*
X0038640Y0025983D01*
X0039648Y0025384D01*
X0039648Y0024076D01*
X0038640Y0023476D01*
X0038640Y0023476D01*
G37*
D60*
X0035001Y0021570D03*
D32*
X0035842Y0024730D03*
D14*
X0033901Y0024679D03*
D59*
X0036401Y0022180D03*
X0036401Y0027181D03*
D14*
X0031402Y0027181D03*
X0031402Y0022180D03*
D37*
X0017107Y0044999D03*
D56*
G36*
X0021525Y0048637D02*
X0019018Y0048637D01*
X0019618Y0049646D01*
X0020926Y0049646D01*
X0021525Y0048637D01*
X0021525Y0048637D01*
G37*
D37*
X0023431Y0044999D03*
D20*
X0020272Y0045840D03*
D14*
X0020322Y0043899D03*
D59*
X0022822Y0046398D03*
X0017821Y0046398D03*
D14*
X0017821Y0041400D03*
X0022822Y0041400D03*
D37*
X0022895Y0005002D03*
D56*
G36*
X0018477Y0001363D02*
X0020984Y0001363D01*
X0020385Y0000355D01*
X0019077Y0000355D01*
X0018477Y0001363D01*
X0018477Y0001363D01*
G37*
D37*
X0016571Y0005002D03*
D20*
X0019731Y0004161D03*
D14*
X0019680Y0006101D03*
D59*
X0017180Y0003602D03*
X0022182Y0003602D03*
D14*
X0022182Y0008601D03*
X0017180Y0008601D03*
D36*
X0036001Y0011560D03*
D57*
X0036001Y0014100D03*
X0036001Y0016640D03*
X0000000Y0050000D02*
G01*
D56*
D64*
X0037003Y0097000D03*
X0003000Y0053000D03*
D39*
X0015011Y0083401D03*
X0007391Y0083401D03*
X0011811Y0077801D03*
X0004191Y0077801D03*
X0024790Y0062601D03*
X0032410Y0062601D03*
X0032408Y0075200D03*
X0024788Y0075200D03*
X0015011Y0095400D03*
X0007391Y0095400D03*
X0015011Y0089800D03*
X0007391Y0089800D03*
X0011811Y0073399D03*
X0004191Y0073399D03*
X0032410Y0083401D03*
X0024790Y0083401D03*
X0016002Y0066010D03*
X0016002Y0058390D03*
X0021001Y0066010D03*
X0021001Y0058390D03*
X0019599Y0096741D03*
X0019599Y0091661D03*
X0019601Y0088542D03*
X0019601Y0083462D03*
X0032400Y0094740D03*
X0032400Y0089660D03*
X0016060Y0070000D03*
X0021140Y0070000D03*
D10*
X0030261Y0053000D03*
D16*
X0027721Y0053000D03*
X0025181Y0053000D03*
X0022641Y0053000D03*
X0020101Y0053000D03*
X0017561Y0053000D03*
X0015021Y0053000D03*
X0012481Y0053000D03*
X0009941Y0053000D03*
D81*
X0028731Y0068700D03*
D39*
X0031271Y0068700D03*
D81*
X0009901Y0066370D03*
D39*
X0009901Y0063830D03*
D81*
X0016831Y0077870D03*
D39*
X0019371Y0077870D03*
X0019371Y0075330D03*
X0040000Y0000000D02*
G01*
D56*
D22*
X0076000Y0088230D03*
D74*
X0076000Y0090770D03*
D22*
X0076000Y0066730D03*
D74*
X0076000Y0069270D03*
D22*
X0076000Y0059730D03*
D74*
X0076000Y0062270D03*
D22*
X0076000Y0041730D03*
D74*
X0076000Y0044270D03*
D22*
X0076000Y0015030D03*
D74*
X0076000Y0017570D03*
D22*
X0076100Y0008030D03*
D74*
X0076100Y0010570D03*
D64*
X0043200Y0096900D03*
X0076900Y0003100D03*
X0077000Y0097000D03*
X0043000Y0003000D03*
D39*
X0048000Y0020540D03*
X0048000Y0015460D03*
X0042460Y0011000D03*
X0047540Y0011000D03*
D51*
X0043000Y0025080D03*
D62*
X0043000Y0014920D03*
D10*
X0070160Y0035000D03*
D16*
X0067620Y0035000D03*
X0065080Y0035000D03*
X0062540Y0035000D03*
X0060000Y0035000D03*
X0057460Y0035000D03*
X0054920Y0035000D03*
X0052380Y0035000D03*
X0049840Y0035000D03*
D10*
X0070160Y0055000D03*
D16*
X0067620Y0055000D03*
X0065080Y0055000D03*
X0062540Y0055000D03*
X0060000Y0055000D03*
X0057460Y0055000D03*
X0054920Y0055000D03*
X0052380Y0055000D03*
X0049840Y0055000D03*
D36*
X0076000Y0022190D03*
D57*
X0076000Y0024730D03*
X0076000Y0027270D03*
X0076000Y0029810D03*
D10*
X0070160Y0075000D03*
D16*
X0067620Y0075000D03*
X0065080Y0075000D03*
X0062540Y0075000D03*
X0060000Y0075000D03*
X0057460Y0075000D03*
X0054920Y0075000D03*
X0052380Y0075000D03*
X0049840Y0075000D03*
D10*
X0070160Y0095000D03*
D16*
X0067620Y0095000D03*
X0065080Y0095000D03*
X0062540Y0095000D03*
X0060000Y0095000D03*
X0057460Y0095000D03*
X0054920Y0095000D03*
X0052380Y0095000D03*
X0049840Y0095000D03*
D81*
X0058270Y0007270D03*
D39*
X0058270Y0004730D03*
X0055730Y0004730D03*
D81*
X0050270Y0007270D03*
D39*
X0050270Y0004730D03*
X0047730Y0004730D03*
X0063190Y0003000D03*
X0070810Y0003000D03*
X0063190Y0007000D03*
X0070810Y0007000D03*
D63*
X0069636Y0020810D03*
X0064556Y0020810D03*
X0059476Y0020810D03*
X0069636Y0013190D03*
X0064556Y0013190D03*
X0059476Y0013190D03*
X0051856Y0020810D03*
X0051856Y0013190D03*
D36*
X0076000Y0078160D03*
D57*
X0076000Y0080700D03*
X0076000Y0083240D03*
X0080000Y0000000D02*
G01*
D56*
D64*
X0117003Y0047000D03*
X0083000Y0003000D03*
D39*
X0086190Y0016000D03*
X0093810Y0016000D03*
X0089121Y0040338D03*
X0096741Y0040338D03*
X0099281Y0040338D03*
X0106901Y0040338D03*
X0097191Y0013000D03*
X0104811Y0013000D03*
X0083190Y0021001D03*
X0090810Y0021001D03*
X0083002Y0008189D03*
X0083002Y0015809D03*
X0108191Y0013000D03*
X0115811Y0013000D03*
X0115811Y0021001D03*
X0108191Y0021001D03*
D11*
X0109187Y0031956D03*
D54*
X0101567Y0031956D03*
D11*
X0098773Y0031956D03*
D54*
X0091153Y0031956D03*
D10*
X0110161Y0002800D03*
D16*
X0107621Y0002800D03*
X0105081Y0002800D03*
X0102541Y0002800D03*
X0100001Y0002800D03*
X0097461Y0002800D03*
X0094921Y0002800D03*
X0092381Y0002800D03*
X0089841Y0002800D03*
D13*
X0090271Y0045100D03*
D19*
X0087731Y0045100D03*
D81*
X0090301Y0012470D03*
D39*
X0090301Y0009930D03*
D81*
X0093731Y0025200D03*
D39*
X0096271Y0025200D03*
D81*
X0114471Y0027000D03*
D39*
X0111931Y0027000D03*
D67*
X0086501Y0025660D03*
D33*
X0086501Y0030740D03*
D81*
X0096601Y0043530D03*
D39*
X0096601Y0046070D03*
D81*
X0110965Y0039068D03*
D39*
X0110965Y0036528D03*
X0108425Y0036528D03*
D81*
X0088867Y0036782D03*
D39*
X0086327Y0036782D03*
X0086327Y0039322D03*
D81*
X0103345Y0019002D03*
D39*
X0100805Y0019002D03*
X0100805Y0021542D03*
X0120000Y0000000D02*
G01*
D56*
D64*
X0157003Y0047000D03*
X0123000Y0003000D03*
D39*
X0142192Y0021999D03*
X0149812Y0021999D03*
X0142192Y0044999D03*
X0149812Y0044999D03*
X0125502Y0037689D03*
X0125502Y0045309D03*
X0125692Y0033498D03*
X0133312Y0033498D03*
X0127691Y0021999D03*
X0135311Y0021999D03*
X0127691Y0011999D03*
X0135311Y0011999D03*
X0142192Y0033000D03*
X0149812Y0033000D03*
X0135501Y0037958D03*
X0135501Y0043038D03*
X0139002Y0014460D03*
X0139002Y0019540D03*
X0142662Y0011199D03*
X0147742Y0011199D03*
D10*
X0150161Y0003100D03*
D16*
X0147621Y0003100D03*
X0145081Y0003100D03*
X0142541Y0003100D03*
X0140001Y0003100D03*
X0137461Y0003100D03*
X0134921Y0003100D03*
X0132381Y0003100D03*
X0129841Y0003100D03*
D81*
X0127671Y0017100D03*
D39*
X0125131Y0017100D03*
D81*
X0142201Y0037830D03*
D39*
X0142201Y0040370D03*
D81*
X0140271Y0027230D03*
D39*
X0137731Y0027230D03*
X0137731Y0029770D03*
X0080000Y0050000D02*
G01*
D56*
D64*
X0117003Y0097000D03*
X0083000Y0053000D03*
D51*
X0085032Y0071689D03*
D62*
X0085032Y0074229D03*
D11*
X0103210Y0079561D03*
D54*
X0103210Y0087181D03*
D11*
X0097201Y0087021D03*
D54*
X0097201Y0079401D03*
D39*
X0091120Y0070099D03*
X0091120Y0075179D03*
D62*
X0097170Y0066569D03*
X0103170Y0066569D03*
D39*
X0097170Y0070069D03*
X0103170Y0070069D03*
X0097170Y0073569D03*
X0103170Y0073569D03*
D37*
X0103196Y0055101D03*
D56*
G36*
X0098778Y0051462D02*
X0101284Y0051462D01*
X0100685Y0050454D01*
X0099377Y0050454D01*
X0098778Y0051462D01*
X0098778Y0051462D01*
G37*
D37*
X0096871Y0055101D03*
D20*
X0100031Y0054260D03*
D14*
X0099980Y0056201D03*
D59*
X0097481Y0053701D03*
X0102482Y0053701D03*
D14*
X0102482Y0058700D03*
X0097481Y0058700D03*
D37*
X0096806Y0094799D03*
D56*
G36*
X0101224Y0098438D02*
X0098718Y0098438D01*
X0099317Y0099446D01*
X0100625Y0099446D01*
X0101224Y0098438D01*
X0101224Y0098438D01*
G37*
D37*
X0103131Y0094799D03*
D20*
X0099971Y0095640D03*
D14*
X0100022Y0093699D03*
D59*
X0102521Y0096199D03*
X0097520Y0096199D03*
D14*
X0097520Y0091200D03*
X0102521Y0091200D03*
X0120000Y0050000D02*
G01*
D56*
D64*
X0157003Y0097000D03*
X0123000Y0053000D03*
D39*
X0123690Y0078499D03*
X0131310Y0078499D03*
X0123690Y0062500D03*
X0131310Y0062500D03*
X0135091Y0061600D03*
X0142711Y0061600D03*
X0145692Y0076000D03*
X0153312Y0076000D03*
X0145692Y0069500D03*
X0153312Y0069500D03*
X0123690Y0073500D03*
X0131310Y0073500D03*
X0134191Y0084501D03*
X0141811Y0084501D03*
X0124191Y0095499D03*
X0131811Y0095499D03*
X0149002Y0096040D03*
X0149002Y0090960D03*
X0146962Y0063500D03*
X0152042Y0063500D03*
D81*
X0148401Y0082430D03*
D39*
X0148401Y0084970D03*
D81*
X0134231Y0090000D03*
D39*
X0136771Y0090000D03*
D81*
X0140031Y0094600D03*
D39*
X0142571Y0094600D03*
D10*
X0150261Y0052900D03*
D16*
X0147721Y0052900D03*
X0145181Y0052900D03*
X0142641Y0052900D03*
X0140101Y0052900D03*
X0137561Y0052900D03*
X0135021Y0052900D03*
X0132481Y0052900D03*
X0129941Y0052900D03*
D81*
X0139771Y0066630D03*
D39*
X0137231Y0066630D03*
X0137231Y0069170D03*
D81*
X0139671Y0076130D03*
D39*
X0137131Y0076130D03*
X0137131Y0078670D03*
D81*
X0124131Y0086370D03*
D39*
X0126671Y0086370D03*
X0126671Y0083830D03*
X0160000Y0000000D02*
G01*
D56*
D64*
X0197003Y0047000D03*
X0163000Y0003000D03*
D54*
X0193001Y0028960D03*
X0193001Y0034040D03*
X0186001Y0028960D03*
X0186001Y0034040D03*
X0175501Y0034040D03*
X0175501Y0028960D03*
X0164501Y0030960D03*
X0164501Y0036040D03*
X0164501Y0015960D03*
X0164501Y0021040D03*
X0175501Y0021039D03*
X0175501Y0015959D03*
X0185501Y0015959D03*
X0185501Y0021039D03*
X0193002Y0015959D03*
X0193002Y0021039D03*
D39*
X0180501Y0028960D03*
X0180501Y0034040D03*
X0170501Y0035940D03*
X0170501Y0030860D03*
X0170500Y0016040D03*
X0170500Y0010960D03*
X0164461Y0026000D03*
X0169541Y0026000D03*
X0180500Y0021039D03*
X0180500Y0015959D03*
D37*
X0183196Y0005001D03*
D56*
G36*
X0178778Y0001362D02*
X0181284Y0001362D01*
X0180685Y0000354D01*
X0179377Y0000354D01*
X0178778Y0001362D01*
X0178778Y0001362D01*
G37*
D37*
X0176871Y0005001D03*
D20*
X0180031Y0004160D03*
D14*
X0179980Y0006101D03*
D59*
X0177481Y0003601D03*
X0182482Y0003601D03*
D14*
X0182482Y0008600D03*
X0177481Y0008600D03*
D37*
X0168806Y0044799D03*
D56*
G36*
X0173224Y0048438D02*
X0170718Y0048438D01*
X0171317Y0049446D01*
X0172625Y0049446D01*
X0173224Y0048438D01*
X0173224Y0048438D01*
G37*
D37*
X0175131Y0044799D03*
D20*
X0171971Y0045640D03*
D14*
X0172022Y0043699D03*
D59*
X0174521Y0046199D03*
X0169520Y0046199D03*
D14*
X0169520Y0041200D03*
X0174521Y0041200D03*
D37*
X0184806Y0044799D03*
D56*
G36*
X0189224Y0048438D02*
X0186718Y0048438D01*
X0187317Y0049446D01*
X0188625Y0049446D01*
X0189224Y0048438D01*
X0189224Y0048438D01*
G37*
D37*
X0191131Y0044799D03*
D20*
X0187971Y0045640D03*
D14*
X0188022Y0043699D03*
D59*
X0190521Y0046199D03*
X0185520Y0046199D03*
D14*
X0185520Y0041200D03*
X0190521Y0041200D03*
X0160000Y0050000D02*
G01*
D56*
D45*
X0171270Y0053000D03*
D74*
X0168730Y0053000D03*
D45*
X0194112Y0052810D03*
D74*
X0196652Y0052810D03*
D64*
X0197003Y0097000D03*
X0163000Y0053000D03*
D62*
X0198001Y0071501D03*
X0191001Y0069500D03*
D39*
X0190000Y0079690D03*
X0190000Y0087310D03*
X0188001Y0072809D03*
X0188001Y0065189D03*
X0172111Y0092100D03*
X0164491Y0092100D03*
X0189002Y0090191D03*
X0189002Y0097811D03*
X0192001Y0090191D03*
X0192001Y0097811D03*
X0161692Y0098001D03*
X0169312Y0098001D03*
X0190810Y0053000D03*
X0183190Y0053000D03*
D54*
X0196002Y0082459D03*
X0196002Y0087539D03*
D63*
X0176190Y0078636D03*
X0176190Y0073556D03*
X0176190Y0068476D03*
X0183810Y0078636D03*
X0183810Y0073556D03*
X0183810Y0068476D03*
X0176190Y0060856D03*
X0183810Y0060856D03*
D51*
X0173922Y0057001D03*
D62*
X0184082Y0057001D03*
D39*
X0187000Y0081961D03*
X0187000Y0087041D03*
X0176540Y0082500D03*
X0171460Y0082500D03*
X0186002Y0091961D03*
X0186002Y0097041D03*
X0162962Y0094999D03*
X0168042Y0094999D03*
X0179540Y0053000D03*
X0174460Y0053000D03*
X0197000Y0061539D03*
X0197000Y0056459D03*
D83*
X0165311Y0080132D03*
X0165311Y0074128D03*
D82*
X0169812Y0077130D03*
X0163812Y0074130D03*
X0163812Y0080130D03*
D83*
X0165311Y0064892D03*
X0165311Y0058888D03*
D82*
X0169812Y0061890D03*
X0163812Y0058890D03*
X0163812Y0064890D03*
D37*
X0176906Y0094999D03*
D56*
G36*
X0181324Y0098638D02*
X0178818Y0098638D01*
X0179417Y0099646D01*
X0180725Y0099646D01*
X0181324Y0098638D01*
X0181324Y0098638D01*
G37*
D37*
X0183231Y0094999D03*
D20*
X0180071Y0095840D03*
D14*
X0180122Y0093899D03*
D59*
X0182621Y0096399D03*
X0177620Y0096399D03*
D14*
X0177620Y0091400D03*
X0182621Y0091400D03*
D81*
X0191981Y0058588D03*
D39*
X0189441Y0058588D03*
X0189441Y0061128D03*
D81*
X0177503Y0086274D03*
D39*
X0180043Y0086274D03*
X0180043Y0083734D03*
D81*
X0165565Y0087290D03*
D39*
X0168105Y0087290D03*
X0168105Y0084750D03*
%ADD10C,0.00100*%
D10*
X0000000Y0000000D02*
X0000000Y0100000D01*
X0200000Y0100000D01*
X0200000Y0000000D01*
X0000000Y0000000D01*
M02*
