G75*
G71*
%MOMM*%
%OFA0B0*%
%FSLAX53Y53*%
%IPPOS*%
%LPD*%
%ADD56C,0.15000*%
%ADD77C,0.25000*%
X0000000Y0000000D02*
G01*
D56*
D77*
X0000000Y0000000D02*
G01*
D77*
D77*
X0040000Y0050000D02*
X0040000Y0049500D01*
X0000000Y0050000D02*
X0040000Y0050000D01*
X0000000Y0000000D02*
X0000000Y0050000D01*
X0040000Y0000000D02*
X0040000Y0050000D01*
X0000000Y0000000D02*
X0040000Y0000000D01*
X0000000Y0050000D02*
G01*
D56*
D77*
X0000000Y0050000D02*
G01*
D77*
D77*
X0040000Y0100000D02*
X0000000Y0100000D01*
X0040000Y0050000D02*
X0040000Y0100000D01*
X0000000Y0050000D02*
X0040000Y0050000D01*
X0000000Y0100000D02*
X0000000Y0050000D01*
X0040000Y0000000D02*
G01*
D56*
D77*
X0040000Y0000000D02*
G01*
D77*
D77*
X0080000Y0000000D02*
X0080000Y0100000D01*
X0080000Y0100000D02*
X0040000Y0100000D01*
X0080000Y0100000D02*
X0040000Y0100000D01*
X0080000Y0000000D02*
X0080000Y0100000D01*
X0080000Y0000000D02*
X0080000Y0100000D01*
X0080000Y0100000D02*
X0040000Y0100000D01*
X0040000Y0000000D02*
X0080000Y0000000D01*
X0040000Y0100000D02*
X0040000Y0000000D01*
X0080000Y0100000D02*
X0040000Y0100000D01*
X0080000Y0000000D02*
X0080000Y0100000D01*
X0080000Y0000000D02*
G01*
D56*
D77*
X0080000Y0000000D02*
G01*
D77*
D77*
X0120000Y0050000D02*
X0080000Y0050000D01*
X0120000Y0000000D02*
X0120000Y0050000D01*
X0080000Y0000000D02*
X0120000Y0000000D01*
X0080000Y0050000D02*
X0080000Y0000000D01*
X0120000Y0000000D02*
G01*
D56*
D77*
X0120000Y0000000D02*
G01*
D77*
D77*
X0160000Y0050000D02*
X0160000Y0049500D01*
X0120000Y0050000D02*
X0160000Y0050000D01*
X0120000Y0000000D02*
X0120000Y0050000D01*
X0160000Y0000000D02*
X0160000Y0050000D01*
X0120000Y0000000D02*
X0160000Y0000000D01*
X0080000Y0050000D02*
G01*
D56*
D77*
X0080000Y0050000D02*
G01*
D77*
D77*
X0120000Y0100000D02*
X0120000Y0099500D01*
X0080000Y0100000D02*
X0120000Y0100000D01*
X0080000Y0050000D02*
X0080000Y0100000D01*
X0120000Y0050000D02*
X0120000Y0100000D01*
X0080000Y0050000D02*
X0120000Y0050000D01*
X0120000Y0050000D02*
G01*
D56*
D77*
X0120000Y0050000D02*
G01*
D77*
D77*
X0160000Y0100000D02*
X0120000Y0100000D01*
X0160000Y0050000D02*
X0160000Y0100000D01*
X0120000Y0050000D02*
X0160000Y0050000D01*
X0120000Y0100000D02*
X0120000Y0050000D01*
X0160000Y0000000D02*
G01*
D56*
D77*
X0160000Y0000000D02*
G01*
D77*
D77*
X0200000Y0050000D02*
X0160000Y0050000D01*
X0200000Y0000000D02*
X0200000Y0050000D01*
X0160000Y0000000D02*
X0200000Y0000000D01*
X0160000Y0050000D02*
X0160000Y0000000D01*
X0160000Y0050000D02*
G01*
D56*
D77*
X0160000Y0050000D02*
G01*
D77*
D77*
X0160000Y0100000D02*
X0200000Y0100000D01*
X0160000Y0050000D02*
X0160000Y0100000D01*
D77*
X0200000Y0100000D02*
X0200000Y0099500D01*
D77*
X0200000Y0050000D02*
X0200000Y0100000D01*
X0160000Y0050000D02*
X0200000Y0050000D01*
D77*
X0003125Y0000125D02*
X0000125Y0000125D01*
X0000125Y0003125D01*
X0199875Y0003125D02*
X0199875Y0000125D01*
X0196875Y0000125D01*
X0196875Y0099875D02*
X0199875Y0099875D01*
X0199875Y0096875D01*
X0000125Y0096875D02*
X0000125Y0099875D01*
X0003125Y0099875D01*
%ADD10C,0.00100*%
D10*
X0000000Y0000000D02*
X0000000Y0100000D01*
X0200000Y0100000D01*
X0200000Y0000000D01*
X0000000Y0000000D01*
M02*
