M48
METRIC,000.000             
%
T01C0.600000
X91153Y31956
X98773Y31956
X101567Y31956
X109187Y31956
X97201Y79401
X103210Y79561
X97201Y87021
X103210Y87181
T02C0.700000
X100101Y7400
T03C0.800000
X27732Y5230
X30272Y5230
X27732Y7770
X17000Y12500
X23000Y12500
X17000Y16000
X23000Y16000
X17000Y19500
X23000Y19500
X14000Y21461
X19192Y23000
X26812Y23000
X14000Y26541
X5730Y26731
X8270Y26731
X24732Y28730
X27272Y28730
X8270Y29271
X13002Y30501
X19002Y30501
X24732Y31270
X13002Y34001
X19002Y34001
X13002Y37501
X19002Y37501
X27500Y13231
X27500Y15771
X16002Y58390
X21001Y58390
X24790Y62601
X32410Y62601
X9901Y63830
X16002Y66010
X21001Y66010
X9901Y66370
X28731Y68700
X31271Y68700
X16060Y70000
X21140Y70000
X4191Y73399
X11811Y73399
X24788Y75200
X32408Y75200
X19371Y75330
X4191Y77801
X11811Y77801
X16831Y77870
X19371Y77870
X7391Y83401
X15011Y83401
X24790Y83401
X32410Y83401
X19601Y83462
X19601Y88542
X32400Y89660
X7391Y89800
X15011Y89800
X19598Y91661
X32400Y94740
X7391Y95400
X15011Y95400
X19598Y96741
X63190Y3000
X70810Y3000
X47730Y4730
X50270Y4730
X55730Y4730
X58270Y4730
X63190Y7000
X70810Y7000
X50270Y7270
X58270Y7270
X42460Y11000
X47540Y11000
X48000Y15460
X48000Y20540
X83002Y8189
X90301Y9930
X90301Y12470
X97191Y13000
X104811Y13000
X108191Y13000
X115811Y13000
X83002Y15809
X86190Y16000
X93810Y16000
X100805Y19002
X103345Y19002
X83190Y21001
X90810Y21001
X108191Y21001
X115811Y21001
X100805Y21542
X93731Y25200
X96271Y25200
X111931Y27000
X114471Y27000
X108425Y36528
X110965Y36528
X86327Y36782
X88867Y36782
X110965Y39068
X86327Y39322
X89121Y40338
X96741Y40338
X99281Y40338
X106901Y40338
X96601Y43530
X96601Y46070
X142662Y11199
X147742Y11199
X127691Y11999
X135311Y11999
X139002Y14460
X125131Y17100
X127671Y17100
X139002Y19540
X127691Y21999
X135311Y21999
X142192Y21999
X149812Y21999
X137731Y27230
X140271Y27230
X137731Y29770
X142192Y33000
X149812Y33000
X125692Y33498
X133312Y33498
X125502Y37689
X142201Y37830
X135501Y37958
X142201Y40370
X135501Y43038
X142192Y44999
X149812Y44999
X125502Y45309
X97170Y66569
X103170Y66569
X97170Y70069
X103170Y70069
X91120Y70099
X97170Y73569
X103170Y73569
X91120Y75179
X135091Y61600
X142711Y61600
X123690Y62500
X131310Y62500
X146962Y63500
X152042Y63500
X137231Y66630
X139771Y66630
X137231Y69170
X145692Y69500
X153312Y69500
X123690Y73500
X131310Y73500
X145692Y76000
X153312Y76000
X137131Y76130
X139671Y76130
X123690Y78499
X131310Y78499
X137131Y78670
X148401Y82430
X126671Y83830
X134191Y84501
X141811Y84501
X148401Y84970
X124131Y86370
X126671Y86370
X134231Y90000
X136771Y90000
X149002Y90960
X140031Y94600
X142571Y94600
X124191Y95499
X131811Y95499
X149002Y96040
X170500Y10960
X180500Y15959
X170500Y16040
X180500Y21039
X164461Y26000
X169541Y26000
X180501Y28960
X170501Y30860
X180501Y34040
X170501Y35940
X175501Y15959
X185501Y15959
X193002Y15959
X164501Y15960
X175501Y21039
X185501Y21039
X193002Y21039
X164501Y21040
X175501Y28960
X186001Y28960
X193001Y28960
X164501Y30960
X175501Y34040
X186001Y34040
X193001Y34040
X164501Y36040
X174460Y53000
X179540Y53000
X183190Y53000
X190810Y53000
X197000Y56459
X165311Y56889
X189441Y58588
X191981Y58588
X163312Y58890
X189441Y61128
X197000Y61539
X170312Y61890
X163312Y64890
X188001Y65189
X165311Y66891
X191001Y69500
X198001Y71501
X165311Y72129
X188001Y72809
X163312Y74130
X170312Y77130
X190000Y79690
X163312Y80130
X187000Y81961
X165311Y82131
X171460Y82500
X176540Y82500
X180043Y83734
X168105Y84750
X177503Y86274
X180043Y86274
X187000Y87041
X165565Y87290
X168105Y87290
X190000Y87310
X189002Y90191
X192001Y90191
X186002Y91961
X164491Y92100
X172111Y92100
X162962Y94999
X168042Y94999
X186002Y97041
X189002Y97811
X192001Y97811
X161691Y98001
X169312Y98001
X196002Y82459
X196002Y87539
T04C0.900000
X43000Y14920
X43000Y25080
X173922Y57001
X184082Y57001
T05C1.000000
X36101Y4030
X36101Y6570
X36001Y11560
X36001Y14100
X36001Y16640
X17180Y3602
X22182Y3602
X19680Y6101
X17180Y8601
X22182Y8601
X31402Y22180
X36401Y22180
X33901Y24679
X31402Y27181
X36401Y27181
X17820Y41400
X22822Y41400
X20322Y43899
X17820Y46398
X22822Y46398
X9941Y53000
X12481Y53000
X15021Y53000
X17561Y53000
X20101Y53000
X22641Y53000
X25181Y53000
X27721Y53000
X30261Y53000
X76100Y8030
X76100Y10570
X76000Y15030
X76000Y17570
X76000Y22190
X76000Y24730
X76000Y27270
X76000Y29810
X49840Y35000
X52380Y35000
X54920Y35000
X57460Y35000
X60000Y35000
X62540Y35000
X65080Y35000
X67620Y35000
X70160Y35000
X76000Y41730
X76000Y44270
X49840Y55000
X52380Y55000
X54920Y55000
X57460Y55000
X60000Y55000
X62540Y55000
X65080Y55000
X67620Y55000
X70160Y55000
X76000Y59730
X76000Y62270
X76000Y66730
X76000Y69270
X49840Y75000
X52380Y75000
X54920Y75000
X57460Y75000
X60000Y75000
X62540Y75000
X65080Y75000
X67620Y75000
X70160Y75000
X76000Y78160
X76000Y80700
X76000Y83240
X76000Y88230
X76000Y90770
X49840Y95000
X52380Y95000
X54920Y95000
X57460Y95000
X60000Y95000
X62540Y95000
X65080Y95000
X67620Y95000
X70160Y95000
X51856Y13190
X59476Y13190
X64556Y13190
X69636Y13190
X51856Y20810
X59476Y20810
X64556Y20810
X69636Y20810
X89841Y2800
X92381Y2800
X94921Y2800
X97461Y2800
X100001Y2800
X102541Y2800
X105081Y2800
X107621Y2800
X110161Y2800
X86501Y25660
X86501Y30740
X87731Y45100
X90271Y45100
X129841Y3100
X132381Y3100
X134921Y3100
X137461Y3100
X140001Y3100
X142541Y3100
X145081Y3100
X147621Y3100
X150161Y3100
X85032Y71689
X85032Y74229
X97481Y53701
X102482Y53701
X99980Y56201
X97481Y58700
X102482Y58700
X97520Y91200
X102521Y91200
X100022Y93699
X97520Y96199
X102521Y96199
X129941Y52900
X132481Y52900
X135021Y52900
X137561Y52900
X140101Y52900
X142641Y52900
X145181Y52900
X147721Y52900
X150261Y52900
X177481Y3601
X182482Y3601
X179980Y6101
X177481Y8600
X182482Y8600
X169520Y41200
X174521Y41200
X185520Y41200
X190521Y41200
X172022Y43699
X188022Y43699
X169520Y46199
X174521Y46199
X185520Y46199
X190521Y46199
X194112Y52810
X196652Y52810
X168730Y53000
X171270Y53000
X177620Y91400
X182621Y91400
X180122Y93899
X177620Y96399
X182621Y96399
X176190Y60856
X183810Y60856
X176190Y68476
X183810Y68476
X176190Y73556
X183810Y73556
X176190Y78636
X183810Y78636
T06C3.200000
X3000Y3000
X37003Y47000
X3000Y53000
X37003Y97000
X43000Y3000
X76900Y3100
X43200Y96900
X77000Y97000
X83000Y3000
X117003Y47000
X123000Y3000
X157003Y47000
X83000Y53000
X117003Y97000
X123000Y53000
X157003Y97000
X163000Y3000
X197003Y47000
X163000Y53000
X197003Y97000
M30
