G04 #@! TF.FileFunction,Soldermask,Top*
%FSLAX45Y45*%
G04 Gerber Fmt 4.5, Leading zero omitted, Abs format (unit mm)*
G04 Created by KiCad (PCBNEW (2015-01-25 BZR 5388)-product) date Mo 03 Aug 2015 14:18:17 CEST*
%MOMM*%
G01*
G04 APERTURE LIST*
%ADD10C,0.150000*%
%ADD11C,5.509260*%
%ADD12C,1.905000*%
%ADD13R,1.930400X1.930400*%
%ADD14C,1.930400*%
%ADD15R,2.540000X2.235200*%
%ADD16O,2.540000X2.235200*%
%ADD17R,2.235200X2.235200*%
%ADD18O,2.235200X2.235200*%
%ADD19R,1.905000X1.905000*%
%ADD20R,2.286000X2.286000*%
%ADD21C,2.286000*%
G04 APERTURE END LIST*
D10*
D11*
X17100042Y-9900158D03*
X12700000Y-6499860D03*
D12*
X13999972Y-6818884D03*
X13999972Y-7580884D03*
X16433800Y-7112000D03*
X16433800Y-7874000D03*
X16433800Y-8128000D03*
X16433800Y-8890000D03*
X13699998Y-7918958D03*
X13699998Y-8680958D03*
X14500098Y-6518910D03*
X14500098Y-7280910D03*
X13218922Y-6500114D03*
X13980922Y-6500114D03*
X13699998Y-9019032D03*
X13699998Y-9781032D03*
X14500098Y-9781032D03*
X14500098Y-9019032D03*
D13*
X15595600Y-9118600D03*
D14*
X15595600Y-8356600D03*
D13*
X15595600Y-8077200D03*
D14*
X15595600Y-7315200D03*
D15*
X12680000Y-9216000D03*
D16*
X12680000Y-8962000D03*
X12680000Y-8708000D03*
X12680000Y-8454000D03*
X12680000Y-8200000D03*
X12680000Y-7946000D03*
X12680000Y-7692000D03*
X12680000Y-7438000D03*
X12680000Y-7184000D03*
D17*
X16910000Y-7227000D03*
D18*
X16910000Y-6973000D03*
D19*
X13647000Y-7230000D03*
D12*
X13393000Y-7230000D03*
D19*
X14920000Y-7573000D03*
D12*
X14920000Y-7827000D03*
D19*
X15100000Y-9647000D03*
D12*
X15100000Y-9393000D03*
D20*
X14966000Y-6850000D03*
D21*
X15474000Y-6850000D03*
D19*
X16753000Y-7860000D03*
D12*
X17007000Y-7860000D03*
D19*
X16306800Y-9296400D03*
D12*
X16052800Y-9296400D03*
X16052800Y-9042400D03*
D19*
X16078200Y-7086600D03*
D12*
X16078200Y-6832600D03*
X16332200Y-6832600D03*
D19*
X14300200Y-8534400D03*
D12*
X14300200Y-8280400D03*
X14554200Y-8280400D03*
M02*
