G04 #@! TF.FileFunction,Legend,Top*
%FSLAX45Y45*%
G04 Gerber Fmt 4.5, Leading zero omitted, Abs format (unit mm)*
G04 Created by KiCad (PCBNEW (2015-01-25 BZR 5388)-product) date Mo 03 Aug 2015 14:18:17 CEST*
%MOMM*%
G01*
G04 APERTURE LIST*
%ADD10C,0.150000*%
%ADD11C,0.149860*%
%ADD12C,0.200660*%
%ADD13C,0.381000*%
%ADD14C,0.203200*%
%ADD15C,0.317500*%
G04 APERTURE END LIST*
D10*
D11*
X12919040Y-8919995D02*
X12911420Y-8916185D01*
X12899990Y-8916185D01*
X12888560Y-8919995D01*
X12880940Y-8927615D01*
X12877130Y-8935235D01*
X12873320Y-8950475D01*
X12873320Y-8961905D01*
X12877130Y-8977145D01*
X12880940Y-8984765D01*
X12888560Y-8992385D01*
X12899990Y-8996195D01*
X12907610Y-8996195D01*
X12919040Y-8992385D01*
X12922850Y-8988575D01*
X12922850Y-8961905D01*
X12907610Y-8961905D01*
X12957140Y-8996195D02*
X12957140Y-8916185D01*
X13002860Y-8996195D01*
X13002860Y-8916185D01*
X13040960Y-8996195D02*
X13040960Y-8916185D01*
X13060010Y-8916185D01*
X13071440Y-8919995D01*
X13079060Y-8927615D01*
X13082870Y-8935235D01*
X13086680Y-8950475D01*
X13086680Y-8961905D01*
X13082870Y-8977145D01*
X13079060Y-8984765D01*
X13071440Y-8992385D01*
X13060010Y-8996195D01*
X13040960Y-8996195D01*
X12919040Y-8409995D02*
X12911420Y-8406185D01*
X12899990Y-8406185D01*
X12888560Y-8409995D01*
X12880940Y-8417615D01*
X12877130Y-8425235D01*
X12873320Y-8440475D01*
X12873320Y-8451905D01*
X12877130Y-8467145D01*
X12880940Y-8474765D01*
X12888560Y-8482385D01*
X12899990Y-8486195D01*
X12907610Y-8486195D01*
X12919040Y-8482385D01*
X12922850Y-8478575D01*
X12922850Y-8451905D01*
X12907610Y-8451905D01*
X12957140Y-8486195D02*
X12957140Y-8406185D01*
X13002860Y-8486195D01*
X13002860Y-8406185D01*
X13040960Y-8486195D02*
X13040960Y-8406185D01*
X13060010Y-8406185D01*
X13071440Y-8409995D01*
X13079060Y-8417615D01*
X13082870Y-8425235D01*
X13086680Y-8440475D01*
X13086680Y-8451905D01*
X13082870Y-8467145D01*
X13079060Y-8474765D01*
X13071440Y-8482385D01*
X13060010Y-8486195D01*
X13040960Y-8486195D01*
X12899040Y-7929995D02*
X12891420Y-7926185D01*
X12879990Y-7926185D01*
X12868560Y-7929995D01*
X12860940Y-7937615D01*
X12857130Y-7945235D01*
X12853320Y-7960475D01*
X12853320Y-7971905D01*
X12857130Y-7987145D01*
X12860940Y-7994765D01*
X12868560Y-8002385D01*
X12879990Y-8006195D01*
X12887610Y-8006195D01*
X12899040Y-8002385D01*
X12902850Y-7998575D01*
X12902850Y-7971905D01*
X12887610Y-7971905D01*
X12937140Y-8006195D02*
X12937140Y-7926185D01*
X12982860Y-8006195D01*
X12982860Y-7926185D01*
X13020960Y-8006195D02*
X13020960Y-7926185D01*
X13040010Y-7926185D01*
X13051440Y-7929995D01*
X13059060Y-7937615D01*
X13062870Y-7945235D01*
X13066680Y-7960475D01*
X13066680Y-7971905D01*
X13062870Y-7987145D01*
X13059060Y-7994765D01*
X13051440Y-8002385D01*
X13040010Y-8006195D01*
X13020960Y-8006195D01*
X12883261Y-8156067D02*
X12898501Y-8156067D01*
X12906121Y-8159877D01*
X12913741Y-8167497D01*
X12917551Y-8182737D01*
X12917551Y-8209407D01*
X12913741Y-8224647D01*
X12906121Y-8232267D01*
X12898501Y-8236077D01*
X12883261Y-8236077D01*
X12875641Y-8232267D01*
X12868021Y-8224647D01*
X12864211Y-8209407D01*
X12864211Y-8182737D01*
X12868021Y-8167497D01*
X12875641Y-8159877D01*
X12883261Y-8156067D01*
X12986131Y-8182737D02*
X12986131Y-8236077D01*
X12951841Y-8182737D02*
X12951841Y-8224647D01*
X12955651Y-8232267D01*
X12963271Y-8236077D01*
X12974701Y-8236077D01*
X12982321Y-8232267D01*
X12986131Y-8228457D01*
X13012801Y-8182737D02*
X13043281Y-8182737D01*
X13024231Y-8156067D02*
X13024231Y-8224647D01*
X13028041Y-8232267D01*
X13035661Y-8236077D01*
X13043281Y-8236077D01*
D12*
X16665178Y-8852505D02*
X16665178Y-8833443D01*
X16669944Y-8823912D01*
X16679475Y-8814381D01*
X16698537Y-8809615D01*
X16731896Y-8809615D01*
X16750958Y-8814381D01*
X16760489Y-8823912D01*
X16765254Y-8833443D01*
X16765254Y-8852505D01*
X16760489Y-8862036D01*
X16750958Y-8871567D01*
X16731896Y-8876332D01*
X16698537Y-8876332D01*
X16679475Y-8871567D01*
X16669944Y-8862036D01*
X16665178Y-8852505D01*
X16698537Y-8723836D02*
X16765254Y-8723836D01*
X16698537Y-8766725D02*
X16750958Y-8766725D01*
X16760489Y-8761960D01*
X16765254Y-8752429D01*
X16765254Y-8738132D01*
X16760489Y-8728601D01*
X16755723Y-8723836D01*
X16698537Y-8690477D02*
X16698537Y-8652353D01*
X16665178Y-8676180D02*
X16750958Y-8676180D01*
X16760489Y-8671415D01*
X16765254Y-8661884D01*
X16765254Y-8652353D01*
X16698537Y-8618994D02*
X16798613Y-8618994D01*
X16703302Y-8618994D02*
X16698537Y-8609463D01*
X16698537Y-8590401D01*
X16703302Y-8580870D01*
X16708068Y-8576104D01*
X16717599Y-8571339D01*
X16746192Y-8571339D01*
X16755723Y-8576104D01*
X16760489Y-8580870D01*
X16765254Y-8590401D01*
X16765254Y-8609463D01*
X16760489Y-8618994D01*
X16698537Y-8485559D02*
X16765254Y-8485559D01*
X16698537Y-8528449D02*
X16750958Y-8528449D01*
X16760489Y-8523684D01*
X16765254Y-8514153D01*
X16765254Y-8499856D01*
X16760489Y-8490325D01*
X16755723Y-8485559D01*
X16698537Y-8452201D02*
X16698537Y-8414077D01*
X16665178Y-8437904D02*
X16750958Y-8437904D01*
X16760489Y-8433139D01*
X16765254Y-8423608D01*
X16765254Y-8414077D01*
X16925427Y-9016915D02*
X16825351Y-9016915D01*
X16825351Y-8978791D01*
X16830116Y-8969260D01*
X16834882Y-8964495D01*
X16844413Y-8959729D01*
X16858709Y-8959729D01*
X16868240Y-8964495D01*
X16873006Y-8969260D01*
X16877771Y-8978791D01*
X16877771Y-9016915D01*
X16925427Y-8916839D02*
X16858709Y-8916839D01*
X16825351Y-8916839D02*
X16830116Y-8921605D01*
X16834882Y-8916839D01*
X16830116Y-8912074D01*
X16825351Y-8916839D01*
X16834882Y-8916839D01*
X16858709Y-8869184D02*
X16925427Y-8869184D01*
X16868240Y-8869184D02*
X16863475Y-8864419D01*
X16858709Y-8854888D01*
X16858709Y-8840591D01*
X16863475Y-8831060D01*
X16873006Y-8826295D01*
X16925427Y-8826295D01*
X16825351Y-8654736D02*
X16825351Y-8702391D01*
X16873006Y-8707156D01*
X16868240Y-8702391D01*
X16863475Y-8692860D01*
X16863475Y-8669032D01*
X16868240Y-8659501D01*
X16873006Y-8654736D01*
X16882537Y-8649970D01*
X16906365Y-8649970D01*
X16915896Y-8654736D01*
X16920661Y-8659501D01*
X16925427Y-8669032D01*
X16925427Y-8692860D01*
X16920661Y-8702391D01*
X16915896Y-8707156D01*
X16887303Y-8530832D02*
X16887303Y-8454584D01*
X16925427Y-8492708D02*
X16849178Y-8492708D01*
X16825351Y-8287790D02*
X16825351Y-8306852D01*
X16830116Y-8316383D01*
X16834882Y-8321149D01*
X16849178Y-8330680D01*
X16868240Y-8335445D01*
X16906365Y-8335445D01*
X16915896Y-8330680D01*
X16920661Y-8325914D01*
X16925427Y-8316383D01*
X16925427Y-8297321D01*
X16920661Y-8287790D01*
X16915896Y-8283025D01*
X16906365Y-8278259D01*
X16882537Y-8278259D01*
X16873006Y-8283025D01*
X16868240Y-8287790D01*
X16863475Y-8297321D01*
X16863475Y-8316383D01*
X16868240Y-8325914D01*
X16873006Y-8330680D01*
X16882537Y-8335445D01*
X12995208Y-7690733D02*
X13095284Y-7657374D01*
X12995208Y-7624016D01*
X13095284Y-7576360D02*
X13090519Y-7585891D01*
X13085753Y-7590657D01*
X13076222Y-7595422D01*
X13047629Y-7595422D01*
X13038098Y-7590657D01*
X13033333Y-7585891D01*
X13028567Y-7576360D01*
X13028567Y-7562064D01*
X13033333Y-7552533D01*
X13038098Y-7547767D01*
X13047629Y-7543002D01*
X13076222Y-7543002D01*
X13085753Y-7547767D01*
X13090519Y-7552533D01*
X13095284Y-7562064D01*
X13095284Y-7576360D01*
X13095284Y-7485815D02*
X13090519Y-7495346D01*
X13080988Y-7500112D01*
X12995208Y-7500112D01*
X13057160Y-7447691D02*
X13057160Y-7371443D01*
X13095284Y-7323788D02*
X12995208Y-7323788D01*
X12995208Y-7285663D01*
X12999974Y-7276132D01*
X13004739Y-7271367D01*
X13014271Y-7266601D01*
X13028567Y-7266601D01*
X13038098Y-7271367D01*
X13042864Y-7276132D01*
X13047629Y-7285663D01*
X13047629Y-7323788D01*
X13095284Y-7209415D02*
X13090519Y-7218946D01*
X13085753Y-7223712D01*
X13076222Y-7228477D01*
X13047629Y-7228477D01*
X13038098Y-7223712D01*
X13033333Y-7218946D01*
X13028567Y-7209415D01*
X13028567Y-7195118D01*
X13033333Y-7185587D01*
X13038098Y-7180822D01*
X13047629Y-7176056D01*
X13076222Y-7176056D01*
X13085753Y-7180822D01*
X13090519Y-7185587D01*
X13095284Y-7195118D01*
X13095284Y-7209415D01*
X13028567Y-7147463D02*
X13028567Y-7109339D01*
X12995208Y-7133167D02*
X13080988Y-7133167D01*
X13090519Y-7128401D01*
X13095284Y-7118870D01*
X13095284Y-7109339D01*
D13*
X12899898Y-7850124D02*
X12750038Y-7850124D01*
X12899898Y-6949948D02*
X12899898Y-7850124D01*
X12800076Y-6949948D02*
X12899898Y-6949948D01*
D10*
X12888571Y-8746191D02*
X12888571Y-8666191D01*
X12926667Y-8692857D02*
X12926667Y-8746191D01*
X12926667Y-8700476D02*
X12930476Y-8696667D01*
X12938095Y-8692857D01*
X12949524Y-8692857D01*
X12957143Y-8696667D01*
X12960952Y-8704286D01*
X12960952Y-8746191D01*
X12999048Y-8692857D02*
X12999048Y-8772857D01*
X12999048Y-8696667D02*
X13006667Y-8692857D01*
X13021905Y-8692857D01*
X13029524Y-8696667D01*
X13033333Y-8700476D01*
X13037143Y-8708095D01*
X13037143Y-8730952D01*
X13033333Y-8738571D01*
X13029524Y-8742381D01*
X13021905Y-8746191D01*
X13006667Y-8746191D01*
X12999048Y-8742381D01*
X13105714Y-8692857D02*
X13105714Y-8746191D01*
X13071429Y-8692857D02*
X13071429Y-8734762D01*
X13075238Y-8742381D01*
X13082857Y-8746191D01*
X13094286Y-8746191D01*
X13101905Y-8742381D01*
X13105714Y-8738571D01*
X13132381Y-8692857D02*
X13162857Y-8692857D01*
X13143810Y-8666191D02*
X13143810Y-8734762D01*
X13147619Y-8742381D01*
X13155238Y-8746191D01*
X13162857Y-8746191D01*
D12*
X12923726Y-9207028D02*
X12999974Y-9207028D01*
X12961850Y-9245153D02*
X12961850Y-9168904D01*
X13100050Y-9245153D02*
X13042864Y-9245153D01*
X13071457Y-9245153D02*
X13071457Y-9145077D01*
X13061926Y-9159373D01*
X13052395Y-9168904D01*
X13042864Y-9173670D01*
X13138174Y-9154608D02*
X13142940Y-9149842D01*
X13152471Y-9145077D01*
X13176298Y-9145077D01*
X13185829Y-9149842D01*
X13190595Y-9154608D01*
X13195360Y-9164139D01*
X13195360Y-9173670D01*
X13190595Y-9187966D01*
X13133409Y-9245153D01*
X13195360Y-9245153D01*
X13223954Y-9145077D02*
X13257312Y-9245153D01*
X13290671Y-9145077D01*
X12680938Y-6995220D02*
X12700000Y-6995220D01*
X12709531Y-6990455D01*
X12714297Y-6985689D01*
X12723828Y-6971393D01*
X12728593Y-6952331D01*
X12728593Y-6914207D01*
X12723828Y-6904675D01*
X12719062Y-6899910D01*
X12709531Y-6895144D01*
X12690469Y-6895144D01*
X12680938Y-6899910D01*
X12676172Y-6904675D01*
X12671407Y-6914207D01*
X12671407Y-6938034D01*
X12676172Y-6947565D01*
X12680938Y-6952331D01*
X12690469Y-6957096D01*
X12709531Y-6957096D01*
X12719062Y-6952331D01*
X12723828Y-6947565D01*
X12728593Y-6938034D01*
X12728593Y-9495343D02*
X12671407Y-9495343D01*
X12700000Y-9495343D02*
X12700000Y-9395267D01*
X12690469Y-9409563D01*
X12680938Y-9419094D01*
X12671407Y-9423860D01*
X12687591Y-10054215D02*
X12687591Y-9934327D01*
X12727553Y-10019961D01*
X12767516Y-9934327D01*
X12767516Y-10054215D01*
X12824605Y-10054215D02*
X12824605Y-9974290D01*
X12824605Y-9934327D02*
X12818896Y-9940036D01*
X12824605Y-9945745D01*
X12830314Y-9940036D01*
X12824605Y-9934327D01*
X12824605Y-9945745D01*
X12881695Y-9974290D02*
X12881695Y-10054215D01*
X12881695Y-9985708D02*
X12887404Y-9979999D01*
X12898822Y-9974290D01*
X12915949Y-9974290D01*
X12927367Y-9979999D01*
X12933075Y-9991417D01*
X12933075Y-10054215D01*
X12990165Y-10054215D02*
X12990165Y-9974290D01*
X12990165Y-9934327D02*
X12984456Y-9940036D01*
X12990165Y-9945745D01*
X12995874Y-9940036D01*
X12990165Y-9934327D01*
X12990165Y-9945745D01*
X13047255Y-10054215D02*
X13047255Y-9974290D01*
X13047255Y-9985708D02*
X13052963Y-9979999D01*
X13064381Y-9974290D01*
X13081508Y-9974290D01*
X13092926Y-9979999D01*
X13098635Y-9991417D01*
X13098635Y-10054215D01*
X13098635Y-9991417D02*
X13104344Y-9979999D01*
X13115762Y-9974290D01*
X13132889Y-9974290D01*
X13144307Y-9979999D01*
X13150016Y-9991417D01*
X13150016Y-10054215D01*
X13258486Y-10054215D02*
X13258486Y-9991417D01*
X13252777Y-9979999D01*
X13241359Y-9974290D01*
X13218523Y-9974290D01*
X13207105Y-9979999D01*
X13258486Y-10048506D02*
X13247068Y-10054215D01*
X13218523Y-10054215D01*
X13207105Y-10048506D01*
X13201396Y-10037088D01*
X13201396Y-10025670D01*
X13207105Y-10014252D01*
X13218523Y-10008543D01*
X13247068Y-10008543D01*
X13258486Y-10002835D01*
X13406919Y-9974290D02*
X13498262Y-10008543D01*
X13406919Y-10042797D01*
X13669530Y-9934327D02*
X13692366Y-9934327D01*
X13703784Y-9940036D01*
X13715202Y-9951454D01*
X13720911Y-9974290D01*
X13720911Y-10014252D01*
X13715202Y-10037088D01*
X13703784Y-10048506D01*
X13692366Y-10054215D01*
X13669530Y-10054215D01*
X13658112Y-10048506D01*
X13646695Y-10037088D01*
X13640986Y-10014252D01*
X13640986Y-9974290D01*
X13646695Y-9951454D01*
X13658112Y-9940036D01*
X13669530Y-9934327D01*
X13823672Y-9974290D02*
X13823672Y-10054215D01*
X13772292Y-9974290D02*
X13772292Y-10037088D01*
X13778000Y-10048506D01*
X13789418Y-10054215D01*
X13806545Y-10054215D01*
X13817963Y-10048506D01*
X13823672Y-10042797D01*
X13863635Y-9974290D02*
X13909306Y-9974290D01*
X13880762Y-9934327D02*
X13880762Y-10037088D01*
X13886471Y-10048506D01*
X13897888Y-10054215D01*
X13909306Y-10054215D01*
X13949269Y-9974290D02*
X13949269Y-10094178D01*
X13949269Y-9979999D02*
X13960687Y-9974290D01*
X13983523Y-9974290D01*
X13994941Y-9979999D01*
X14000650Y-9985708D01*
X14006359Y-9997126D01*
X14006359Y-10031379D01*
X14000650Y-10042797D01*
X13994941Y-10048506D01*
X13983523Y-10054215D01*
X13960687Y-10054215D01*
X13949269Y-10048506D01*
X14109120Y-9974290D02*
X14109120Y-10054215D01*
X14057739Y-9974290D02*
X14057739Y-10037088D01*
X14063448Y-10048506D01*
X14074866Y-10054215D01*
X14091993Y-10054215D01*
X14103411Y-10048506D01*
X14109120Y-10042797D01*
X14149082Y-9974290D02*
X14194754Y-9974290D01*
X14166209Y-9934327D02*
X14166209Y-10037088D01*
X14171918Y-10048506D01*
X14183336Y-10054215D01*
X14194754Y-10054215D01*
X14320351Y-10019961D02*
X14377440Y-10019961D01*
X14308933Y-10054215D02*
X14348896Y-9934327D01*
X14388858Y-10054215D01*
X14480201Y-9974290D02*
X14480201Y-10054215D01*
X14428821Y-9974290D02*
X14428821Y-10037088D01*
X14434530Y-10048506D01*
X14445948Y-10054215D01*
X14463075Y-10054215D01*
X14474493Y-10048506D01*
X14480201Y-10042797D01*
X14588672Y-10054215D02*
X14588672Y-9934327D01*
X14588672Y-10048506D02*
X14577254Y-10054215D01*
X14554418Y-10054215D01*
X14543000Y-10048506D01*
X14537291Y-10042797D01*
X14531582Y-10031379D01*
X14531582Y-9997126D01*
X14537291Y-9985708D01*
X14543000Y-9979999D01*
X14554418Y-9974290D01*
X14577254Y-9974290D01*
X14588672Y-9979999D01*
X14645761Y-10054215D02*
X14645761Y-9974290D01*
X14645761Y-9934327D02*
X14640052Y-9940036D01*
X14645761Y-9945745D01*
X14651470Y-9940036D01*
X14645761Y-9934327D01*
X14645761Y-9945745D01*
X14719977Y-10054215D02*
X14708560Y-10048506D01*
X14702851Y-10042797D01*
X14697142Y-10031379D01*
X14697142Y-9997126D01*
X14702851Y-9985708D01*
X14708560Y-9979999D01*
X14719977Y-9974290D01*
X14737104Y-9974290D01*
X14748522Y-9979999D01*
X14754231Y-9985708D01*
X14759940Y-9997126D01*
X14759940Y-10031379D01*
X14754231Y-10042797D01*
X14748522Y-10048506D01*
X14737104Y-10054215D01*
X14719977Y-10054215D01*
X14896955Y-10019961D02*
X14954044Y-10019961D01*
X14885537Y-10054215D02*
X14925500Y-9934327D01*
X14965462Y-10054215D01*
X15005425Y-10054215D02*
X15005425Y-9974290D01*
X15005425Y-9985708D02*
X15011134Y-9979999D01*
X15022552Y-9974290D01*
X15039679Y-9974290D01*
X15051097Y-9979999D01*
X15056806Y-9991417D01*
X15056806Y-10054215D01*
X15056806Y-9991417D02*
X15062515Y-9979999D01*
X15073932Y-9974290D01*
X15091059Y-9974290D01*
X15102477Y-9979999D01*
X15108186Y-9991417D01*
X15108186Y-10054215D01*
X15165276Y-9974290D02*
X15165276Y-10094178D01*
X15165276Y-9979999D02*
X15176694Y-9974290D01*
X15199529Y-9974290D01*
X15210947Y-9979999D01*
X15216656Y-9985708D01*
X15222365Y-9997126D01*
X15222365Y-10031379D01*
X15216656Y-10042797D01*
X15210947Y-10048506D01*
X15199529Y-10054215D01*
X15176694Y-10054215D01*
X15165276Y-10048506D01*
X15399343Y-10099887D02*
X15393634Y-10094178D01*
X15382216Y-10077051D01*
X15376507Y-10065633D01*
X15370798Y-10048506D01*
X15365089Y-10019961D01*
X15365089Y-9997126D01*
X15370798Y-9968581D01*
X15376507Y-9951454D01*
X15382216Y-9940036D01*
X15393634Y-9922909D01*
X15399343Y-9917200D01*
X15445014Y-10054215D02*
X15445014Y-9934327D01*
X15473559Y-9934327D01*
X15490686Y-9940036D01*
X15502104Y-9951454D01*
X15507813Y-9962872D01*
X15513522Y-9985708D01*
X15513522Y-10002835D01*
X15507813Y-10025670D01*
X15502104Y-10037088D01*
X15490686Y-10048506D01*
X15473559Y-10054215D01*
X15445014Y-10054215D01*
X15604865Y-9991417D02*
X15564902Y-9991417D01*
X15564902Y-10054215D02*
X15564902Y-9934327D01*
X15621992Y-9934327D01*
X15673372Y-10054215D02*
X15696208Y-10054215D01*
X15707626Y-10048506D01*
X15713335Y-10042797D01*
X15724753Y-10025670D01*
X15730462Y-10002835D01*
X15730462Y-9957163D01*
X15724753Y-9945745D01*
X15719044Y-9940036D01*
X15707626Y-9934327D01*
X15684790Y-9934327D01*
X15673372Y-9940036D01*
X15667663Y-9945745D01*
X15661954Y-9957163D01*
X15661954Y-9985708D01*
X15667663Y-9997126D01*
X15673372Y-10002835D01*
X15684790Y-10008543D01*
X15707626Y-10008543D01*
X15719044Y-10002835D01*
X15724753Y-9997126D01*
X15730462Y-9985708D01*
X15850350Y-10054215D02*
X15810387Y-9997126D01*
X15781842Y-10054215D02*
X15781842Y-9934327D01*
X15827514Y-9934327D01*
X15838932Y-9940036D01*
X15844641Y-9945745D01*
X15850350Y-9957163D01*
X15850350Y-9974290D01*
X15844641Y-9985708D01*
X15838932Y-9991417D01*
X15827514Y-9997126D01*
X15781842Y-9997126D01*
X15901730Y-9934327D02*
X15901730Y-10031379D01*
X15907439Y-10042797D01*
X15913148Y-10048506D01*
X15924566Y-10054215D01*
X15947402Y-10054215D01*
X15958820Y-10048506D01*
X15964529Y-10042797D01*
X15970238Y-10031379D01*
X15970238Y-9934327D01*
X16015910Y-10099887D02*
X16021618Y-10094178D01*
X16033036Y-10077051D01*
X16038745Y-10065633D01*
X16044454Y-10048506D01*
X16050163Y-10019961D01*
X16050163Y-9997126D01*
X16044454Y-9968581D01*
X16038745Y-9951454D01*
X16033036Y-9940036D01*
X16021618Y-9922909D01*
X16015910Y-9917200D01*
X16181469Y-9934327D02*
X16221432Y-10054215D01*
X16261394Y-9934327D01*
X16415536Y-9934327D02*
X16426954Y-9934327D01*
X16438372Y-9940036D01*
X16444081Y-9945745D01*
X16449790Y-9957163D01*
X16455499Y-9979999D01*
X16455499Y-10008543D01*
X16449790Y-10031379D01*
X16444081Y-10042797D01*
X16438372Y-10048506D01*
X16426954Y-10054215D01*
X16415536Y-10054215D01*
X16404118Y-10048506D01*
X16398409Y-10042797D01*
X16392700Y-10031379D01*
X16386991Y-10008543D01*
X16386991Y-9979999D01*
X16392700Y-9957163D01*
X16398409Y-9945745D01*
X16404118Y-9940036D01*
X16415536Y-9934327D01*
X16506879Y-10042797D02*
X16512588Y-10048506D01*
X16506879Y-10054215D01*
X16501170Y-10048506D01*
X16506879Y-10042797D01*
X16506879Y-10054215D01*
X16626767Y-10054215D02*
X16558260Y-10054215D01*
X16592513Y-10054215D02*
X16592513Y-9934327D01*
X16581096Y-9951454D01*
X16569678Y-9962872D01*
X16558260Y-9968581D01*
D13*
X17328642Y-9900158D02*
G75*
G03X17328642Y-9900158I-228600J0D01*
G01*
X12928600Y-6499860D02*
G75*
G03X12928600Y-6499860I-228600J0D01*
G01*
D14*
X13999972Y-6818884D02*
X13999972Y-6869684D01*
X13999972Y-7580884D02*
X13999972Y-7530084D01*
X13999972Y-7530084D02*
X14101572Y-7530084D01*
X14101572Y-7530084D02*
X14101572Y-6869684D01*
X14101572Y-6869684D02*
X13898372Y-6869684D01*
X13898372Y-6869684D02*
X13898372Y-7530084D01*
X13898372Y-7530084D02*
X13999972Y-7530084D01*
X14050772Y-6869684D02*
X14101572Y-6920484D01*
X16433800Y-7112000D02*
X16433800Y-7162800D01*
X16433800Y-7874000D02*
X16433800Y-7823200D01*
X16433800Y-7823200D02*
X16535400Y-7823200D01*
X16535400Y-7823200D02*
X16535400Y-7162800D01*
X16535400Y-7162800D02*
X16332200Y-7162800D01*
X16332200Y-7162800D02*
X16332200Y-7823200D01*
X16332200Y-7823200D02*
X16433800Y-7823200D01*
X16484600Y-7162800D02*
X16535400Y-7213600D01*
X16433800Y-8128000D02*
X16433800Y-8178800D01*
X16433800Y-8890000D02*
X16433800Y-8839200D01*
X16433800Y-8839200D02*
X16535400Y-8839200D01*
X16535400Y-8839200D02*
X16535400Y-8178800D01*
X16535400Y-8178800D02*
X16332200Y-8178800D01*
X16332200Y-8178800D02*
X16332200Y-8839200D01*
X16332200Y-8839200D02*
X16433800Y-8839200D01*
X16484600Y-8178800D02*
X16535400Y-8229600D01*
X13699998Y-7918958D02*
X13699998Y-7969758D01*
X13699998Y-8680958D02*
X13699998Y-8630158D01*
X13699998Y-8630158D02*
X13801598Y-8630158D01*
X13801598Y-8630158D02*
X13801598Y-7969758D01*
X13801598Y-7969758D02*
X13598398Y-7969758D01*
X13598398Y-7969758D02*
X13598398Y-8630158D01*
X13598398Y-8630158D02*
X13699998Y-8630158D01*
X13750798Y-7969758D02*
X13801598Y-8020558D01*
X14500098Y-6518910D02*
X14500098Y-6569710D01*
X14500098Y-7280910D02*
X14500098Y-7230110D01*
X14500098Y-7230110D02*
X14601698Y-7230110D01*
X14601698Y-7230110D02*
X14601698Y-6569710D01*
X14601698Y-6569710D02*
X14398498Y-6569710D01*
X14398498Y-6569710D02*
X14398498Y-7230110D01*
X14398498Y-7230110D02*
X14500098Y-7230110D01*
X14550898Y-6569710D02*
X14601698Y-6620510D01*
X13218922Y-6500114D02*
X13269722Y-6500114D01*
X13980922Y-6500114D02*
X13930122Y-6500114D01*
X13930122Y-6500114D02*
X13930122Y-6398514D01*
X13930122Y-6398514D02*
X13269722Y-6398514D01*
X13269722Y-6398514D02*
X13269722Y-6601714D01*
X13269722Y-6601714D02*
X13930122Y-6601714D01*
X13930122Y-6601714D02*
X13930122Y-6500114D01*
X13269722Y-6449314D02*
X13320522Y-6398514D01*
X13699998Y-9019032D02*
X13699998Y-9069832D01*
X13699998Y-9781032D02*
X13699998Y-9730232D01*
X13699998Y-9730232D02*
X13801598Y-9730232D01*
X13801598Y-9730232D02*
X13801598Y-9069832D01*
X13801598Y-9069832D02*
X13598398Y-9069832D01*
X13598398Y-9069832D02*
X13598398Y-9730232D01*
X13598398Y-9730232D02*
X13699998Y-9730232D01*
X13750798Y-9069832D02*
X13801598Y-9120632D01*
X14500098Y-9781032D02*
X14500098Y-9730232D01*
X14500098Y-9019032D02*
X14500098Y-9069832D01*
X14500098Y-9069832D02*
X14398498Y-9069832D01*
X14398498Y-9069832D02*
X14398498Y-9730232D01*
X14398498Y-9730232D02*
X14601698Y-9730232D01*
X14601698Y-9730232D02*
X14601698Y-9069832D01*
X14601698Y-9069832D02*
X14500098Y-9069832D01*
X14449298Y-9730232D02*
X14398498Y-9679432D01*
D15*
X15595600Y-8940800D02*
X15595600Y-9118600D01*
X15595600Y-8534400D02*
X15595600Y-8356600D01*
X15697200Y-8890000D02*
X15494000Y-8890000D01*
X15697200Y-8534400D02*
X15494000Y-8534400D01*
X15494000Y-8534400D02*
X15494000Y-8940800D01*
X15494000Y-8940800D02*
X15697200Y-8940800D01*
X15697200Y-8940800D02*
X15697200Y-8534400D01*
X15595600Y-7899400D02*
X15595600Y-8077200D01*
X15595600Y-7493000D02*
X15595600Y-7315200D01*
X15697200Y-7848600D02*
X15494000Y-7848600D01*
X15697200Y-7493000D02*
X15494000Y-7493000D01*
X15494000Y-7493000D02*
X15494000Y-7899400D01*
X15494000Y-7899400D02*
X15697200Y-7899400D01*
X15697200Y-7899400D02*
X15697200Y-7493000D01*
D10*
X12553000Y-9089000D02*
X12553000Y-7057000D01*
X12553000Y-7057000D02*
X12807000Y-7057000D01*
X12807000Y-7057000D02*
X12807000Y-9089000D01*
X12553000Y-9343000D02*
X12553000Y-9089000D01*
X12553000Y-9089000D02*
X12807000Y-9089000D01*
X12553000Y-9343000D02*
X12807000Y-9343000D01*
X12807000Y-9343000D02*
X12807000Y-9089000D01*
X16783000Y-7100000D02*
X16783000Y-7354000D01*
X16783000Y-7354000D02*
X17037000Y-7354000D01*
X17037000Y-7354000D02*
X17037000Y-7100000D01*
X16783000Y-6846000D02*
X16783000Y-7100000D01*
X16783000Y-7100000D02*
X17037000Y-7100000D01*
X17037000Y-7100000D02*
X17037000Y-6846000D01*
X17037000Y-6846000D02*
X16783000Y-6846000D01*
X13774317Y-7230000D02*
G75*
G03X13774317Y-7230000I-254317J0D01*
G01*
X15174317Y-7700000D02*
G75*
G03X15174317Y-7700000I-254317J0D01*
G01*
X15354317Y-9520000D02*
G75*
G03X15354317Y-9520000I-254317J0D01*
G01*
X15664500Y-6850000D02*
G75*
G03X15664500Y-6850000I-444500J0D01*
G01*
X17134317Y-7860000D02*
G75*
G03X17134317Y-7860000I-254317J0D01*
G01*
X16433800Y-9296400D02*
X16052800Y-8915400D01*
X16052800Y-8915400D02*
X15925800Y-8915400D01*
X15925800Y-8915400D02*
X15798800Y-9042400D01*
X15798800Y-9042400D02*
X15798800Y-9296400D01*
X15798800Y-9296400D02*
X16052800Y-9550400D01*
X16052800Y-9550400D02*
X16306800Y-9550400D01*
X16306800Y-9550400D02*
X16433800Y-9423400D01*
X16433800Y-9423400D02*
X16433800Y-9296400D01*
X16078200Y-7213600D02*
X16459200Y-6832600D01*
X16459200Y-6832600D02*
X16459200Y-6705600D01*
X16459200Y-6705600D02*
X16332200Y-6578600D01*
X16332200Y-6578600D02*
X16078200Y-6578600D01*
X16078200Y-6578600D02*
X15824200Y-6832600D01*
X15824200Y-6832600D02*
X15824200Y-7086600D01*
X15824200Y-7086600D02*
X15951200Y-7213600D01*
X15951200Y-7213600D02*
X16078200Y-7213600D01*
X14300200Y-8661400D02*
X14681200Y-8280400D01*
X14681200Y-8280400D02*
X14681200Y-8153400D01*
X14681200Y-8153400D02*
X14554200Y-8026400D01*
X14554200Y-8026400D02*
X14300200Y-8026400D01*
X14300200Y-8026400D02*
X14046200Y-8280400D01*
X14046200Y-8280400D02*
X14046200Y-8534400D01*
X14046200Y-8534400D02*
X14173200Y-8661400D01*
X14173200Y-8661400D02*
X14300200Y-8661400D01*
D14*
X14233229Y-7545384D02*
X14199870Y-7497729D01*
X14176042Y-7545384D02*
X14176042Y-7445308D01*
X14214167Y-7445308D01*
X14223698Y-7450074D01*
X14228463Y-7454839D01*
X14233229Y-7464371D01*
X14233229Y-7478667D01*
X14228463Y-7488198D01*
X14223698Y-7492964D01*
X14214167Y-7497729D01*
X14176042Y-7497729D01*
X14271353Y-7454839D02*
X14276118Y-7450074D01*
X14285649Y-7445308D01*
X14309477Y-7445308D01*
X14319008Y-7450074D01*
X14323774Y-7454839D01*
X14328539Y-7464371D01*
X14328539Y-7473902D01*
X14323774Y-7488198D01*
X14266587Y-7545384D01*
X14328539Y-7545384D01*
X13978273Y-7302343D02*
X14044990Y-7302343D01*
X13940149Y-7326170D02*
X14011632Y-7349998D01*
X14011632Y-7288046D01*
X14040225Y-7245156D02*
X14044990Y-7245156D01*
X14054521Y-7249922D01*
X14059287Y-7254687D01*
X13944914Y-7211798D02*
X13944914Y-7145080D01*
X14044990Y-7187970D01*
X14044990Y-7106956D02*
X13944914Y-7106956D01*
X14044990Y-7049770D02*
X13987804Y-7092660D01*
X13944914Y-7049770D02*
X14002101Y-7106956D01*
X16163121Y-7589072D02*
X16129762Y-7541417D01*
X16105934Y-7589072D02*
X16105934Y-7488996D01*
X16144059Y-7488996D01*
X16153590Y-7493762D01*
X16158355Y-7498527D01*
X16163121Y-7508059D01*
X16163121Y-7522355D01*
X16158355Y-7531886D01*
X16153590Y-7536652D01*
X16144059Y-7541417D01*
X16105934Y-7541417D01*
X16196479Y-7488996D02*
X16263197Y-7488996D01*
X16220307Y-7589072D01*
X16388781Y-7569248D02*
X16384016Y-7564483D01*
X16379250Y-7554952D01*
X16379250Y-7531124D01*
X16384016Y-7521593D01*
X16388781Y-7516828D01*
X16398313Y-7512062D01*
X16407844Y-7512062D01*
X16422140Y-7516828D01*
X16479326Y-7574014D01*
X16479326Y-7512062D01*
X16388781Y-7473938D02*
X16384016Y-7469172D01*
X16379250Y-7459641D01*
X16379250Y-7435814D01*
X16384016Y-7426283D01*
X16388781Y-7421517D01*
X16398313Y-7416752D01*
X16407844Y-7416752D01*
X16422140Y-7421517D01*
X16479326Y-7478703D01*
X16479326Y-7416752D01*
X16188521Y-8579673D02*
X16155162Y-8532017D01*
X16131334Y-8579673D02*
X16131334Y-8479597D01*
X16169459Y-8479597D01*
X16178990Y-8484362D01*
X16183755Y-8489128D01*
X16188521Y-8498659D01*
X16188521Y-8512955D01*
X16183755Y-8522486D01*
X16178990Y-8527252D01*
X16169459Y-8532017D01*
X16131334Y-8532017D01*
X16245707Y-8522486D02*
X16236176Y-8517721D01*
X16231410Y-8512955D01*
X16226645Y-8503424D01*
X16226645Y-8498659D01*
X16231410Y-8489128D01*
X16236176Y-8484362D01*
X16245707Y-8479597D01*
X16264769Y-8479597D01*
X16274300Y-8484362D01*
X16279066Y-8489128D01*
X16283831Y-8498659D01*
X16283831Y-8503424D01*
X16279066Y-8512955D01*
X16274300Y-8517721D01*
X16264769Y-8522486D01*
X16245707Y-8522486D01*
X16236176Y-8527252D01*
X16231410Y-8532017D01*
X16226645Y-8541548D01*
X16226645Y-8560610D01*
X16231410Y-8570141D01*
X16236176Y-8574907D01*
X16245707Y-8579673D01*
X16264769Y-8579673D01*
X16274300Y-8574907D01*
X16279066Y-8570141D01*
X16283831Y-8560610D01*
X16283831Y-8541548D01*
X16279066Y-8532017D01*
X16274300Y-8527252D01*
X16264769Y-8522486D01*
X16388527Y-8585502D02*
X16383762Y-8580737D01*
X16378996Y-8571206D01*
X16378996Y-8547378D01*
X16383762Y-8537847D01*
X16388527Y-8533082D01*
X16398059Y-8528316D01*
X16407590Y-8528316D01*
X16421886Y-8533082D01*
X16479072Y-8590268D01*
X16479072Y-8528316D01*
X16388527Y-8490192D02*
X16383762Y-8485426D01*
X16378996Y-8475895D01*
X16378996Y-8452068D01*
X16383762Y-8442537D01*
X16388527Y-8437771D01*
X16398059Y-8433006D01*
X16407590Y-8433006D01*
X16421886Y-8437771D01*
X16479072Y-8494957D01*
X16479072Y-8433006D01*
X13945168Y-8316637D02*
X13897513Y-8349996D01*
X13945168Y-8373824D02*
X13845092Y-8373824D01*
X13845092Y-8335699D01*
X13849858Y-8326168D01*
X13854623Y-8321403D01*
X13864155Y-8316637D01*
X13878451Y-8316637D01*
X13887982Y-8321403D01*
X13892748Y-8326168D01*
X13897513Y-8335699D01*
X13897513Y-8373824D01*
X13845092Y-8283279D02*
X13845092Y-8221327D01*
X13883217Y-8254685D01*
X13883217Y-8240389D01*
X13887982Y-8230858D01*
X13892748Y-8226092D01*
X13902279Y-8221327D01*
X13926106Y-8221327D01*
X13935637Y-8226092D01*
X13940403Y-8230858D01*
X13945168Y-8240389D01*
X13945168Y-8268982D01*
X13940403Y-8278513D01*
X13935637Y-8283279D01*
D12*
X13745270Y-8369058D02*
X13745270Y-8426244D01*
X13745270Y-8397651D02*
X13645194Y-8397651D01*
X13659491Y-8407182D01*
X13669022Y-8416713D01*
X13673788Y-8426244D01*
X13645194Y-8307106D02*
X13645194Y-8297575D01*
X13649960Y-8288044D01*
X13654725Y-8283279D01*
X13664257Y-8278513D01*
X13683319Y-8273748D01*
X13707146Y-8273748D01*
X13726208Y-8278513D01*
X13735739Y-8283279D01*
X13740505Y-8288044D01*
X13745270Y-8297575D01*
X13745270Y-8307106D01*
X13740505Y-8316637D01*
X13735739Y-8321403D01*
X13726208Y-8326168D01*
X13707146Y-8330934D01*
X13683319Y-8330934D01*
X13664257Y-8326168D01*
X13654725Y-8321403D01*
X13649960Y-8316637D01*
X13645194Y-8307106D01*
X13745270Y-8230858D02*
X13645194Y-8230858D01*
X13745270Y-8173672D02*
X13688084Y-8216561D01*
X13645194Y-8173672D02*
X13702381Y-8230858D01*
D14*
X14683317Y-6995220D02*
X14649958Y-6947565D01*
X14626130Y-6995220D02*
X14626130Y-6895144D01*
X14664255Y-6895144D01*
X14673786Y-6899910D01*
X14678551Y-6904675D01*
X14683317Y-6914207D01*
X14683317Y-6928503D01*
X14678551Y-6938034D01*
X14673786Y-6942800D01*
X14664255Y-6947565D01*
X14626130Y-6947565D01*
X14769096Y-6895144D02*
X14750034Y-6895144D01*
X14740503Y-6899910D01*
X14735737Y-6904675D01*
X14726206Y-6918972D01*
X14721441Y-6938034D01*
X14721441Y-6976158D01*
X14726206Y-6985689D01*
X14730972Y-6990455D01*
X14740503Y-6995220D01*
X14759565Y-6995220D01*
X14769096Y-6990455D01*
X14773862Y-6985689D01*
X14778627Y-6976158D01*
X14778627Y-6952331D01*
X14773862Y-6942800D01*
X14769096Y-6938034D01*
X14759565Y-6933269D01*
X14740503Y-6933269D01*
X14730972Y-6938034D01*
X14726206Y-6942800D01*
X14721441Y-6952331D01*
X14454825Y-7050024D02*
X14450060Y-7045258D01*
X14445294Y-7035727D01*
X14445294Y-7011900D01*
X14450060Y-7002369D01*
X14454825Y-6997603D01*
X14464357Y-6992838D01*
X14473888Y-6992838D01*
X14488184Y-6997603D01*
X14545370Y-7054789D01*
X14545370Y-6992838D01*
X14540605Y-6945182D02*
X14545370Y-6945182D01*
X14554901Y-6949948D01*
X14559667Y-6954713D01*
X14454825Y-6907058D02*
X14450060Y-6902293D01*
X14445294Y-6892762D01*
X14445294Y-6868934D01*
X14450060Y-6859403D01*
X14454825Y-6854637D01*
X14464357Y-6849872D01*
X14473888Y-6849872D01*
X14488184Y-6854637D01*
X14545370Y-6911824D01*
X14545370Y-6849872D01*
X14545370Y-6806982D02*
X14445294Y-6806982D01*
X14545370Y-6749796D02*
X14488184Y-6792686D01*
X14445294Y-6749796D02*
X14502481Y-6806982D01*
X13483421Y-6745284D02*
X13450062Y-6697629D01*
X13426234Y-6745284D02*
X13426234Y-6645208D01*
X13464359Y-6645208D01*
X13473890Y-6649974D01*
X13478655Y-6654739D01*
X13483421Y-6664271D01*
X13483421Y-6678567D01*
X13478655Y-6688098D01*
X13473890Y-6692864D01*
X13464359Y-6697629D01*
X13426234Y-6697629D01*
X13578731Y-6745284D02*
X13521545Y-6745284D01*
X13550138Y-6745284D02*
X13550138Y-6645208D01*
X13540607Y-6659505D01*
X13531076Y-6669036D01*
X13521545Y-6673802D01*
X13523674Y-6454587D02*
X13528439Y-6449822D01*
X13537970Y-6445056D01*
X13561798Y-6445056D01*
X13571329Y-6449822D01*
X13576094Y-6454587D01*
X13580860Y-6464119D01*
X13580860Y-6473650D01*
X13576094Y-6487946D01*
X13518908Y-6545132D01*
X13580860Y-6545132D01*
X13618984Y-6454587D02*
X13623750Y-6449822D01*
X13633281Y-6445056D01*
X13657108Y-6445056D01*
X13666639Y-6449822D01*
X13671405Y-6454587D01*
X13676170Y-6464119D01*
X13676170Y-6473650D01*
X13671405Y-6487946D01*
X13614219Y-6545132D01*
X13676170Y-6545132D01*
X13545118Y-9616609D02*
X13497463Y-9649968D01*
X13545118Y-9673796D02*
X13445042Y-9673796D01*
X13445042Y-9635671D01*
X13449808Y-9626140D01*
X13454573Y-9621375D01*
X13464105Y-9616609D01*
X13478401Y-9616609D01*
X13487932Y-9621375D01*
X13492698Y-9626140D01*
X13497463Y-9635671D01*
X13497463Y-9673796D01*
X13478401Y-9530830D02*
X13545118Y-9530830D01*
X13440277Y-9554658D02*
X13511760Y-9578485D01*
X13511760Y-9516533D01*
X13745270Y-9466749D02*
X13745270Y-9523936D01*
X13745270Y-9495343D02*
X13645194Y-9495343D01*
X13659491Y-9504874D01*
X13669022Y-9514405D01*
X13673788Y-9523936D01*
X13645194Y-9404798D02*
X13645194Y-9395266D01*
X13649960Y-9385735D01*
X13654725Y-9380970D01*
X13664257Y-9376204D01*
X13683319Y-9371439D01*
X13707146Y-9371439D01*
X13726208Y-9376204D01*
X13735739Y-9380970D01*
X13740505Y-9385735D01*
X13745270Y-9395266D01*
X13745270Y-9404798D01*
X13740505Y-9414329D01*
X13735739Y-9419094D01*
X13726208Y-9423860D01*
X13707146Y-9428625D01*
X13683319Y-9428625D01*
X13664257Y-9423860D01*
X13654725Y-9419094D01*
X13649960Y-9414329D01*
X13645194Y-9404798D01*
X13645194Y-9309487D02*
X13645194Y-9299956D01*
X13649960Y-9290425D01*
X13654725Y-9285659D01*
X13664257Y-9280894D01*
X13683319Y-9276128D01*
X13707146Y-9276128D01*
X13726208Y-9280894D01*
X13735739Y-9285659D01*
X13740505Y-9290425D01*
X13745270Y-9299956D01*
X13745270Y-9309487D01*
X13740505Y-9319018D01*
X13735739Y-9323784D01*
X13726208Y-9328549D01*
X13707146Y-9333315D01*
X13683319Y-9333315D01*
X13664257Y-9328549D01*
X13654725Y-9323784D01*
X13649960Y-9319018D01*
X13645194Y-9309487D01*
X14733355Y-9045255D02*
X14699996Y-8997599D01*
X14676168Y-9045255D02*
X14676168Y-8945179D01*
X14714293Y-8945179D01*
X14723824Y-8949944D01*
X14728589Y-8954710D01*
X14733355Y-8964241D01*
X14733355Y-8978537D01*
X14728589Y-8988068D01*
X14723824Y-8992834D01*
X14714293Y-8997599D01*
X14676168Y-8997599D01*
X14823900Y-8945179D02*
X14776244Y-8945179D01*
X14771479Y-8992834D01*
X14776244Y-8988068D01*
X14785775Y-8983303D01*
X14809603Y-8983303D01*
X14819134Y-8988068D01*
X14823900Y-8992834D01*
X14828665Y-9002365D01*
X14828665Y-9026192D01*
X14823900Y-9035723D01*
X14819134Y-9040489D01*
X14809603Y-9045255D01*
X14785775Y-9045255D01*
X14776244Y-9040489D01*
X14771479Y-9035723D01*
X14478653Y-9476280D02*
X14545370Y-9476280D01*
X14440529Y-9500108D02*
X14512012Y-9523936D01*
X14512012Y-9461984D01*
X14445294Y-9433391D02*
X14445294Y-9366673D01*
X14545370Y-9409563D01*
X14445294Y-9309487D02*
X14445294Y-9299956D01*
X14450060Y-9290425D01*
X14454825Y-9285659D01*
X14464357Y-9280894D01*
X14483419Y-9276128D01*
X14507246Y-9276128D01*
X14526308Y-9280894D01*
X14535839Y-9285659D01*
X14540605Y-9290425D01*
X14545370Y-9299956D01*
X14545370Y-9309487D01*
X14540605Y-9319018D01*
X14535839Y-9323784D01*
X14526308Y-9328549D01*
X14507246Y-9333315D01*
X14483419Y-9333315D01*
X14464357Y-9328549D01*
X14454825Y-9323784D01*
X14450060Y-9319018D01*
X14445294Y-9309487D01*
X15749210Y-8758162D02*
X15749210Y-8656562D01*
X15773400Y-8656562D01*
X15787914Y-8661400D01*
X15797590Y-8671076D01*
X15802429Y-8680752D01*
X15807267Y-8700105D01*
X15807267Y-8714619D01*
X15802429Y-8733971D01*
X15797590Y-8743648D01*
X15787914Y-8753324D01*
X15773400Y-8758162D01*
X15749210Y-8758162D01*
X15845971Y-8666238D02*
X15850810Y-8661400D01*
X15860486Y-8656562D01*
X15884676Y-8656562D01*
X15894352Y-8661400D01*
X15899190Y-8666238D01*
X15904029Y-8675914D01*
X15904029Y-8685591D01*
X15899190Y-8700105D01*
X15841133Y-8758162D01*
X15904029Y-8758162D01*
X15441410Y-8955314D02*
X15441410Y-9013371D01*
X15441410Y-8984343D02*
X15339810Y-8984343D01*
X15354324Y-8994019D01*
X15364000Y-9003695D01*
X15368838Y-9013371D01*
X15441410Y-8911771D02*
X15339810Y-8911771D01*
X15441410Y-8853714D01*
X15339810Y-8853714D01*
X15373677Y-8761791D02*
X15441410Y-8761791D01*
X15334972Y-8785981D02*
X15407543Y-8810171D01*
X15407543Y-8747276D01*
X15441410Y-8655352D02*
X15441410Y-8713410D01*
X15441410Y-8684381D02*
X15339810Y-8684381D01*
X15354324Y-8694057D01*
X15364000Y-8703733D01*
X15368838Y-8713410D01*
X15373677Y-8568267D02*
X15441410Y-8568267D01*
X15334972Y-8592457D02*
X15407543Y-8616648D01*
X15407543Y-8553752D01*
X15383353Y-8500533D02*
X15378515Y-8510210D01*
X15373677Y-8515048D01*
X15364000Y-8519886D01*
X15359162Y-8519886D01*
X15349486Y-8515048D01*
X15344648Y-8510210D01*
X15339810Y-8500533D01*
X15339810Y-8481181D01*
X15344648Y-8471505D01*
X15349486Y-8466667D01*
X15359162Y-8461829D01*
X15364000Y-8461829D01*
X15373677Y-8466667D01*
X15378515Y-8471505D01*
X15383353Y-8481181D01*
X15383353Y-8500533D01*
X15388191Y-8510210D01*
X15393029Y-8515048D01*
X15402705Y-8519886D01*
X15422057Y-8519886D01*
X15431734Y-8515048D01*
X15436572Y-8510210D01*
X15441410Y-8500533D01*
X15441410Y-8481181D01*
X15436572Y-8471505D01*
X15431734Y-8466667D01*
X15422057Y-8461829D01*
X15402705Y-8461829D01*
X15393029Y-8466667D01*
X15388191Y-8471505D01*
X15383353Y-8481181D01*
X15266610Y-7767562D02*
X15266610Y-7665962D01*
X15290800Y-7665962D01*
X15305314Y-7670800D01*
X15314990Y-7680476D01*
X15319829Y-7690152D01*
X15324667Y-7709505D01*
X15324667Y-7724019D01*
X15319829Y-7743371D01*
X15314990Y-7753048D01*
X15305314Y-7762724D01*
X15290800Y-7767562D01*
X15266610Y-7767562D01*
X15421429Y-7767562D02*
X15363371Y-7767562D01*
X15392400Y-7767562D02*
X15392400Y-7665962D01*
X15382724Y-7680476D01*
X15373048Y-7690152D01*
X15363371Y-7694990D01*
X15841714Y-7913914D02*
X15841714Y-7971971D01*
X15841714Y-7942943D02*
X15740114Y-7942943D01*
X15754628Y-7952619D01*
X15764304Y-7962295D01*
X15769142Y-7971971D01*
X15841714Y-7870371D02*
X15740114Y-7870371D01*
X15841714Y-7812314D01*
X15740114Y-7812314D01*
X15773981Y-7720390D02*
X15841714Y-7720390D01*
X15735276Y-7744581D02*
X15807847Y-7768771D01*
X15807847Y-7705876D01*
X15841714Y-7613952D02*
X15841714Y-7672009D01*
X15841714Y-7642981D02*
X15740114Y-7642981D01*
X15754628Y-7652657D01*
X15764304Y-7662333D01*
X15769142Y-7672009D01*
X15773981Y-7526867D02*
X15841714Y-7526867D01*
X15735276Y-7551057D02*
X15807847Y-7575248D01*
X15807847Y-7512352D01*
X15783657Y-7459133D02*
X15778819Y-7468809D01*
X15773981Y-7473648D01*
X15764304Y-7478486D01*
X15759466Y-7478486D01*
X15749790Y-7473648D01*
X15744952Y-7468809D01*
X15740114Y-7459133D01*
X15740114Y-7439781D01*
X15744952Y-7430105D01*
X15749790Y-7425267D01*
X15759466Y-7420429D01*
X15764304Y-7420429D01*
X15773981Y-7425267D01*
X15778819Y-7430105D01*
X15783657Y-7439781D01*
X15783657Y-7459133D01*
X15788495Y-7468809D01*
X15793333Y-7473648D01*
X15803009Y-7478486D01*
X15822361Y-7478486D01*
X15832038Y-7473648D01*
X15836876Y-7468809D01*
X15841714Y-7459133D01*
X15841714Y-7439781D01*
X15836876Y-7430105D01*
X15832038Y-7425267D01*
X15822361Y-7420429D01*
X15803009Y-7420429D01*
X15793333Y-7425267D01*
X15788495Y-7430105D01*
X15783657Y-7439781D01*
D10*
X12755238Y-9743810D02*
X12655238Y-9743810D01*
X12655238Y-9705714D01*
X12660000Y-9696190D01*
X12664762Y-9691429D01*
X12674286Y-9686667D01*
X12688571Y-9686667D01*
X12698095Y-9691429D01*
X12702857Y-9696190D01*
X12707619Y-9705714D01*
X12707619Y-9743810D01*
X12755238Y-9591429D02*
X12755238Y-9648571D01*
X12755238Y-9620000D02*
X12655238Y-9620000D01*
X12669524Y-9629524D01*
X12679048Y-9639048D01*
X12683809Y-9648571D01*
X16836191Y-6764238D02*
X16836191Y-6664238D01*
X16874286Y-6664238D01*
X16883810Y-6669000D01*
X16888572Y-6673762D01*
X16893333Y-6683286D01*
X16893333Y-6697571D01*
X16888572Y-6707095D01*
X16883810Y-6711857D01*
X16874286Y-6716619D01*
X16836191Y-6716619D01*
X16931429Y-6673762D02*
X16936191Y-6669000D01*
X16945714Y-6664238D01*
X16969524Y-6664238D01*
X16979048Y-6669000D01*
X16983810Y-6673762D01*
X16988572Y-6683286D01*
X16988572Y-6692809D01*
X16983810Y-6707095D01*
X16926667Y-6764238D01*
X16988572Y-6764238D01*
X13483333Y-7625714D02*
X13478571Y-7630476D01*
X13464286Y-7635238D01*
X13454762Y-7635238D01*
X13440476Y-7630476D01*
X13430952Y-7620952D01*
X13426190Y-7611429D01*
X13421429Y-7592381D01*
X13421429Y-7578095D01*
X13426190Y-7559048D01*
X13430952Y-7549524D01*
X13440476Y-7540000D01*
X13454762Y-7535238D01*
X13464286Y-7535238D01*
X13478571Y-7540000D01*
X13483333Y-7544762D01*
X13578571Y-7635238D02*
X13521429Y-7635238D01*
X13550000Y-7635238D02*
X13550000Y-7535238D01*
X13540476Y-7549524D01*
X13530952Y-7559048D01*
X13521429Y-7563809D01*
X13405714Y-7148238D02*
X13348571Y-7148238D01*
X13377143Y-7148238D02*
X13377143Y-7048238D01*
X13367619Y-7062524D01*
X13358095Y-7072048D01*
X13348571Y-7076809D01*
X13467619Y-7048238D02*
X13477143Y-7048238D01*
X13486667Y-7053000D01*
X13491429Y-7057762D01*
X13496190Y-7067286D01*
X13500952Y-7086333D01*
X13500952Y-7110143D01*
X13496190Y-7129190D01*
X13491429Y-7138714D01*
X13486667Y-7143476D01*
X13477143Y-7148238D01*
X13467619Y-7148238D01*
X13458095Y-7143476D01*
X13453333Y-7138714D01*
X13448571Y-7129190D01*
X13443809Y-7110143D01*
X13443809Y-7086333D01*
X13448571Y-7067286D01*
X13453333Y-7057762D01*
X13458095Y-7053000D01*
X13467619Y-7048238D01*
X13543809Y-7048238D02*
X13543809Y-7129190D01*
X13548571Y-7138714D01*
X13553333Y-7143476D01*
X13562857Y-7148238D01*
X13581905Y-7148238D01*
X13591429Y-7143476D01*
X13596190Y-7138714D01*
X13600952Y-7129190D01*
X13600952Y-7048238D01*
X13681905Y-7095857D02*
X13648571Y-7095857D01*
X13648571Y-7148238D02*
X13648571Y-7048238D01*
X13696190Y-7048238D01*
X13710505Y-7237143D02*
X13786695Y-7237143D01*
X13748600Y-7275238D02*
X13748600Y-7199048D01*
X14893333Y-8135714D02*
X14888571Y-8140476D01*
X14874286Y-8145238D01*
X14864762Y-8145238D01*
X14850476Y-8140476D01*
X14840952Y-8130952D01*
X14836190Y-8121429D01*
X14831429Y-8102381D01*
X14831429Y-8088095D01*
X14836190Y-8069048D01*
X14840952Y-8059524D01*
X14850476Y-8050000D01*
X14864762Y-8045238D01*
X14874286Y-8045238D01*
X14888571Y-8050000D01*
X14893333Y-8054762D01*
X14931429Y-8054762D02*
X14936190Y-8050000D01*
X14945714Y-8045238D01*
X14969524Y-8045238D01*
X14979048Y-8050000D01*
X14983810Y-8054762D01*
X14988571Y-8064286D01*
X14988571Y-8073809D01*
X14983810Y-8088095D01*
X14926667Y-8145238D01*
X14988571Y-8145238D01*
X14771571Y-7823809D02*
X14838238Y-7823809D01*
X14733476Y-7847619D02*
X14804905Y-7871429D01*
X14804905Y-7809524D01*
X14738238Y-7780952D02*
X14738238Y-7714286D01*
X14838238Y-7757143D01*
X14738238Y-7676190D02*
X14819190Y-7676190D01*
X14828714Y-7671429D01*
X14833476Y-7666667D01*
X14838238Y-7657143D01*
X14838238Y-7638095D01*
X14833476Y-7628571D01*
X14828714Y-7623809D01*
X14819190Y-7619048D01*
X14738238Y-7619048D01*
X14785857Y-7538095D02*
X14785857Y-7571429D01*
X14838238Y-7571429D02*
X14738238Y-7571429D01*
X14738238Y-7523809D01*
X14927143Y-7509495D02*
X14927143Y-7433305D01*
X14965238Y-7471400D02*
X14889048Y-7471400D01*
X15453333Y-9735714D02*
X15448571Y-9740476D01*
X15434286Y-9745238D01*
X15424762Y-9745238D01*
X15410476Y-9740476D01*
X15400952Y-9730952D01*
X15396190Y-9721429D01*
X15391429Y-9702381D01*
X15391429Y-9688095D01*
X15396190Y-9669048D01*
X15400952Y-9659524D01*
X15410476Y-9650000D01*
X15424762Y-9645238D01*
X15434286Y-9645238D01*
X15448571Y-9650000D01*
X15453333Y-9654762D01*
X15486667Y-9645238D02*
X15548571Y-9645238D01*
X15515238Y-9683333D01*
X15529524Y-9683333D01*
X15539048Y-9688095D01*
X15543810Y-9692857D01*
X15548571Y-9702381D01*
X15548571Y-9726191D01*
X15543810Y-9735714D01*
X15539048Y-9740476D01*
X15529524Y-9745238D01*
X15500952Y-9745238D01*
X15491429Y-9740476D01*
X15486667Y-9735714D01*
X14996190Y-9148571D02*
X14996190Y-9215238D01*
X14972381Y-9110476D02*
X14948571Y-9181905D01*
X15010476Y-9181905D01*
X15039048Y-9115238D02*
X15105714Y-9115238D01*
X15062857Y-9215238D01*
X15143809Y-9115238D02*
X15143809Y-9196191D01*
X15148571Y-9205714D01*
X15153333Y-9210476D01*
X15162857Y-9215238D01*
X15181905Y-9215238D01*
X15191429Y-9210476D01*
X15196190Y-9205714D01*
X15200952Y-9196191D01*
X15200952Y-9115238D01*
X15281905Y-9162857D02*
X15248571Y-9162857D01*
X15248571Y-9215238D02*
X15248571Y-9115238D01*
X15296190Y-9115238D01*
X15107143Y-9786695D02*
X15107143Y-9710505D01*
X15145238Y-9748600D02*
X15069048Y-9748600D01*
X15703333Y-6655714D02*
X15698571Y-6660476D01*
X15684286Y-6665238D01*
X15674762Y-6665238D01*
X15660476Y-6660476D01*
X15650952Y-6650952D01*
X15646190Y-6641429D01*
X15641429Y-6622381D01*
X15641429Y-6608095D01*
X15646190Y-6589048D01*
X15650952Y-6579524D01*
X15660476Y-6570000D01*
X15674762Y-6565238D01*
X15684286Y-6565238D01*
X15698571Y-6570000D01*
X15703333Y-6574762D01*
X15789048Y-6598571D02*
X15789048Y-6665238D01*
X15765238Y-6560476D02*
X15741429Y-6631905D01*
X15803333Y-6631905D01*
X15048571Y-6574571D02*
X15048571Y-6641238D01*
X15024762Y-6536476D02*
X15000952Y-6607905D01*
X15062857Y-6607905D01*
X15091429Y-6541238D02*
X15158095Y-6541238D01*
X15115238Y-6641238D01*
X15215238Y-6541238D02*
X15224762Y-6541238D01*
X15234286Y-6546000D01*
X15239048Y-6550762D01*
X15243810Y-6560286D01*
X15248571Y-6579333D01*
X15248571Y-6603143D01*
X15243810Y-6622190D01*
X15239048Y-6631714D01*
X15234286Y-6636476D01*
X15224762Y-6641238D01*
X15215238Y-6641238D01*
X15205714Y-6636476D01*
X15200952Y-6631714D01*
X15196190Y-6622190D01*
X15191429Y-6603143D01*
X15191429Y-6579333D01*
X15196190Y-6560286D01*
X15200952Y-6550762D01*
X15205714Y-6546000D01*
X15215238Y-6541238D01*
X15291429Y-6541238D02*
X15291429Y-6622190D01*
X15296190Y-6631714D01*
X15300952Y-6636476D01*
X15310476Y-6641238D01*
X15329524Y-6641238D01*
X15339048Y-6636476D01*
X15343810Y-6631714D01*
X15348571Y-6622190D01*
X15348571Y-6541238D01*
X15429524Y-6588857D02*
X15396190Y-6588857D01*
X15396190Y-6641238D02*
X15396190Y-6541238D01*
X15443810Y-6541238D01*
X16696533Y-7579514D02*
X16691771Y-7584276D01*
X16677486Y-7589038D01*
X16667962Y-7589038D01*
X16653676Y-7584276D01*
X16644152Y-7574752D01*
X16639390Y-7565229D01*
X16634629Y-7546181D01*
X16634629Y-7531895D01*
X16639390Y-7512848D01*
X16644152Y-7503324D01*
X16653676Y-7493800D01*
X16667962Y-7489038D01*
X16677486Y-7489038D01*
X16691771Y-7493800D01*
X16696533Y-7498562D01*
X16787010Y-7489038D02*
X16739390Y-7489038D01*
X16734629Y-7536657D01*
X16739390Y-7531895D01*
X16748914Y-7527133D01*
X16772724Y-7527133D01*
X16782248Y-7531895D01*
X16787010Y-7536657D01*
X16791772Y-7546181D01*
X16791772Y-7569990D01*
X16787010Y-7579514D01*
X16782248Y-7584276D01*
X16772724Y-7589038D01*
X16748914Y-7589038D01*
X16739390Y-7584276D01*
X16734629Y-7579514D01*
X16756190Y-7965571D02*
X16756190Y-8032238D01*
X16732381Y-7927476D02*
X16708571Y-7998905D01*
X16770476Y-7998905D01*
X16799048Y-7932238D02*
X16865714Y-7932238D01*
X16822857Y-8032238D01*
X16903810Y-7932238D02*
X16903810Y-8013190D01*
X16908571Y-8022714D01*
X16913333Y-8027476D01*
X16922857Y-8032238D01*
X16941905Y-8032238D01*
X16951429Y-8027476D01*
X16956191Y-8022714D01*
X16960952Y-8013190D01*
X16960952Y-7932238D01*
X17041905Y-7979857D02*
X17008571Y-7979857D01*
X17008571Y-8032238D02*
X17008571Y-7932238D01*
X17056191Y-7932238D01*
X16613305Y-7867143D02*
X16689495Y-7867143D01*
X16651400Y-7905238D02*
X16651400Y-7829048D01*
X15789276Y-9528962D02*
X15779752Y-9524200D01*
X15770229Y-9514676D01*
X15755943Y-9500391D01*
X15746419Y-9495629D01*
X15736895Y-9495629D01*
X15741657Y-9519438D02*
X15732133Y-9514676D01*
X15722609Y-9505152D01*
X15717848Y-9486105D01*
X15717848Y-9452771D01*
X15722609Y-9433724D01*
X15732133Y-9424200D01*
X15741657Y-9419438D01*
X15760705Y-9419438D01*
X15770229Y-9424200D01*
X15779752Y-9433724D01*
X15784514Y-9452771D01*
X15784514Y-9486105D01*
X15779752Y-9505152D01*
X15770229Y-9514676D01*
X15760705Y-9519438D01*
X15741657Y-9519438D01*
X15817848Y-9419438D02*
X15879752Y-9419438D01*
X15846419Y-9457533D01*
X15860705Y-9457533D01*
X15870229Y-9462295D01*
X15874990Y-9467057D01*
X15879752Y-9476581D01*
X15879752Y-9500391D01*
X15874990Y-9509914D01*
X15870229Y-9514676D01*
X15860705Y-9519438D01*
X15832133Y-9519438D01*
X15822609Y-9514676D01*
X15817848Y-9509914D01*
X15882971Y-9657562D02*
X15887733Y-9652800D01*
X15897257Y-9648038D01*
X15921067Y-9648038D01*
X15930590Y-9652800D01*
X15935352Y-9657562D01*
X15940114Y-9667086D01*
X15940114Y-9676610D01*
X15935352Y-9690895D01*
X15878209Y-9748038D01*
X15940114Y-9748038D01*
X15982971Y-9748038D02*
X15982971Y-9648038D01*
X16040114Y-9748038D01*
X16040114Y-9648038D01*
X16078209Y-9648038D02*
X16140114Y-9648038D01*
X16106781Y-9686133D01*
X16121067Y-9686133D01*
X16130590Y-9690895D01*
X16135352Y-9695657D01*
X16140114Y-9705181D01*
X16140114Y-9728991D01*
X16135352Y-9738514D01*
X16130590Y-9743276D01*
X16121067Y-9748038D01*
X16092495Y-9748038D01*
X16082971Y-9743276D01*
X16078209Y-9738514D01*
X16187733Y-9748038D02*
X16206781Y-9748038D01*
X16216305Y-9743276D01*
X16221067Y-9738514D01*
X16230590Y-9724229D01*
X16235352Y-9705181D01*
X16235352Y-9667086D01*
X16230590Y-9657562D01*
X16225829Y-9652800D01*
X16216305Y-9648038D01*
X16197257Y-9648038D01*
X16187733Y-9652800D01*
X16182971Y-9657562D01*
X16178209Y-9667086D01*
X16178209Y-9690895D01*
X16182971Y-9700419D01*
X16187733Y-9705181D01*
X16197257Y-9709943D01*
X16216305Y-9709943D01*
X16225829Y-9705181D01*
X16230590Y-9700419D01*
X16235352Y-9690895D01*
X16297257Y-9648038D02*
X16306781Y-9648038D01*
X16316305Y-9652800D01*
X16321067Y-9657562D01*
X16325829Y-9667086D01*
X16330590Y-9686133D01*
X16330590Y-9709943D01*
X16325829Y-9728991D01*
X16321067Y-9738514D01*
X16316305Y-9743276D01*
X16306781Y-9748038D01*
X16297257Y-9748038D01*
X16287733Y-9743276D01*
X16282971Y-9738514D01*
X16278209Y-9728991D01*
X16273448Y-9709943D01*
X16273448Y-9686133D01*
X16278209Y-9667086D01*
X16282971Y-9657562D01*
X16287733Y-9652800D01*
X16297257Y-9648038D01*
X16416305Y-9648038D02*
X16397257Y-9648038D01*
X16387733Y-9652800D01*
X16382971Y-9657562D01*
X16373448Y-9671848D01*
X16368686Y-9690895D01*
X16368686Y-9728991D01*
X16373448Y-9738514D01*
X16378209Y-9743276D01*
X16387733Y-9748038D01*
X16406781Y-9748038D01*
X16416305Y-9743276D01*
X16421067Y-9738514D01*
X16425829Y-9728991D01*
X16425829Y-9705181D01*
X16421067Y-9695657D01*
X16416305Y-9690895D01*
X16406781Y-9686133D01*
X16387733Y-9686133D01*
X16378209Y-9690895D01*
X16373448Y-9695657D01*
X16368686Y-9705181D01*
X16068676Y-7395362D02*
X16059152Y-7390600D01*
X16049629Y-7381076D01*
X16035343Y-7366790D01*
X16025819Y-7362029D01*
X16016295Y-7362029D01*
X16021057Y-7385838D02*
X16011533Y-7381076D01*
X16002009Y-7371552D01*
X15997248Y-7352505D01*
X15997248Y-7319171D01*
X16002009Y-7300124D01*
X16011533Y-7290600D01*
X16021057Y-7285838D01*
X16040105Y-7285838D01*
X16049629Y-7290600D01*
X16059152Y-7300124D01*
X16063914Y-7319171D01*
X16063914Y-7352505D01*
X16059152Y-7371552D01*
X16049629Y-7381076D01*
X16040105Y-7385838D01*
X16021057Y-7385838D01*
X16102009Y-7295362D02*
X16106771Y-7290600D01*
X16116295Y-7285838D01*
X16140105Y-7285838D01*
X16149629Y-7290600D01*
X16154390Y-7295362D01*
X16159152Y-7304886D01*
X16159152Y-7314409D01*
X16154390Y-7328695D01*
X16097248Y-7385838D01*
X16159152Y-7385838D01*
X15806771Y-6406362D02*
X15811533Y-6401600D01*
X15821057Y-6396838D01*
X15844867Y-6396838D01*
X15854390Y-6401600D01*
X15859152Y-6406362D01*
X15863914Y-6415886D01*
X15863914Y-6425409D01*
X15859152Y-6439695D01*
X15802009Y-6496838D01*
X15863914Y-6496838D01*
X15906771Y-6496838D02*
X15906771Y-6396838D01*
X15963914Y-6496838D01*
X15963914Y-6396838D01*
X16002009Y-6396838D02*
X16063914Y-6396838D01*
X16030581Y-6434933D01*
X16044867Y-6434933D01*
X16054390Y-6439695D01*
X16059152Y-6444457D01*
X16063914Y-6453981D01*
X16063914Y-6477790D01*
X16059152Y-6487314D01*
X16054390Y-6492076D01*
X16044867Y-6496838D01*
X16016295Y-6496838D01*
X16006771Y-6492076D01*
X16002009Y-6487314D01*
X16111533Y-6496838D02*
X16130581Y-6496838D01*
X16140105Y-6492076D01*
X16144867Y-6487314D01*
X16154390Y-6473029D01*
X16159152Y-6453981D01*
X16159152Y-6415886D01*
X16154390Y-6406362D01*
X16149629Y-6401600D01*
X16140105Y-6396838D01*
X16121057Y-6396838D01*
X16111533Y-6401600D01*
X16106771Y-6406362D01*
X16102009Y-6415886D01*
X16102009Y-6439695D01*
X16106771Y-6449219D01*
X16111533Y-6453981D01*
X16121057Y-6458743D01*
X16140105Y-6458743D01*
X16149629Y-6453981D01*
X16154390Y-6449219D01*
X16159152Y-6439695D01*
X16221057Y-6396838D02*
X16230581Y-6396838D01*
X16240105Y-6401600D01*
X16244867Y-6406362D01*
X16249629Y-6415886D01*
X16254390Y-6434933D01*
X16254390Y-6458743D01*
X16249629Y-6477790D01*
X16244867Y-6487314D01*
X16240105Y-6492076D01*
X16230581Y-6496838D01*
X16221057Y-6496838D01*
X16211533Y-6492076D01*
X16206771Y-6487314D01*
X16202009Y-6477790D01*
X16197248Y-6458743D01*
X16197248Y-6434933D01*
X16202009Y-6415886D01*
X16206771Y-6406362D01*
X16211533Y-6401600D01*
X16221057Y-6396838D01*
X16340105Y-6430171D02*
X16340105Y-6496838D01*
X16316295Y-6392076D02*
X16292486Y-6463505D01*
X16354390Y-6463505D01*
X14290676Y-8843162D02*
X14281152Y-8838400D01*
X14271629Y-8828876D01*
X14257343Y-8814591D01*
X14247819Y-8809829D01*
X14238295Y-8809829D01*
X14243057Y-8833638D02*
X14233533Y-8828876D01*
X14224009Y-8819352D01*
X14219248Y-8800305D01*
X14219248Y-8766971D01*
X14224009Y-8747924D01*
X14233533Y-8738400D01*
X14243057Y-8733638D01*
X14262105Y-8733638D01*
X14271629Y-8738400D01*
X14281152Y-8747924D01*
X14285914Y-8766971D01*
X14285914Y-8800305D01*
X14281152Y-8819352D01*
X14271629Y-8828876D01*
X14262105Y-8833638D01*
X14243057Y-8833638D01*
X14381152Y-8833638D02*
X14324009Y-8833638D01*
X14352581Y-8833638D02*
X14352581Y-8733638D01*
X14343057Y-8747924D01*
X14333533Y-8757448D01*
X14324009Y-8762210D01*
X14028771Y-7854162D02*
X14033533Y-7849400D01*
X14043057Y-7844638D01*
X14066867Y-7844638D01*
X14076390Y-7849400D01*
X14081152Y-7854162D01*
X14085914Y-7863686D01*
X14085914Y-7873209D01*
X14081152Y-7887495D01*
X14024009Y-7944638D01*
X14085914Y-7944638D01*
X14128771Y-7944638D02*
X14128771Y-7844638D01*
X14185914Y-7944638D01*
X14185914Y-7844638D01*
X14224009Y-7844638D02*
X14285914Y-7844638D01*
X14252581Y-7882733D01*
X14266867Y-7882733D01*
X14276390Y-7887495D01*
X14281152Y-7892257D01*
X14285914Y-7901781D01*
X14285914Y-7925590D01*
X14281152Y-7935114D01*
X14276390Y-7939876D01*
X14266867Y-7944638D01*
X14238295Y-7944638D01*
X14228771Y-7939876D01*
X14224009Y-7935114D01*
X14333533Y-7944638D02*
X14352581Y-7944638D01*
X14362105Y-7939876D01*
X14366867Y-7935114D01*
X14376390Y-7920829D01*
X14381152Y-7901781D01*
X14381152Y-7863686D01*
X14376390Y-7854162D01*
X14371629Y-7849400D01*
X14362105Y-7844638D01*
X14343057Y-7844638D01*
X14333533Y-7849400D01*
X14328771Y-7854162D01*
X14324009Y-7863686D01*
X14324009Y-7887495D01*
X14328771Y-7897019D01*
X14333533Y-7901781D01*
X14343057Y-7906543D01*
X14362105Y-7906543D01*
X14371629Y-7901781D01*
X14376390Y-7897019D01*
X14381152Y-7887495D01*
X14443057Y-7844638D02*
X14452581Y-7844638D01*
X14462105Y-7849400D01*
X14466867Y-7854162D01*
X14471629Y-7863686D01*
X14476390Y-7882733D01*
X14476390Y-7906543D01*
X14471629Y-7925590D01*
X14466867Y-7935114D01*
X14462105Y-7939876D01*
X14452581Y-7944638D01*
X14443057Y-7944638D01*
X14433533Y-7939876D01*
X14428771Y-7935114D01*
X14424009Y-7925590D01*
X14419248Y-7906543D01*
X14419248Y-7882733D01*
X14424009Y-7863686D01*
X14428771Y-7854162D01*
X14433533Y-7849400D01*
X14443057Y-7844638D01*
X14562105Y-7877971D02*
X14562105Y-7944638D01*
X14538295Y-7839876D02*
X14514486Y-7911305D01*
X14576390Y-7911305D01*
M02*
