G04 #@! TF.FileFunction,Copper,L2,Bot,Signal*
%FSLAX45Y45*%
G04 Gerber Fmt 4.5, Leading zero omitted, Abs format (unit mm)*
G04 Created by KiCad (PCBNEW (2015-01-25 BZR 5388)-product) date Mo 03 Aug 2015 14:18:17 CEST*
%MOMM*%
G01*
G04 APERTURE LIST*
%ADD10C,0.150000*%
%ADD11C,5.001260*%
%ADD12C,1.397000*%
%ADD13R,1.422400X1.422400*%
%ADD14C,1.422400*%
%ADD15R,2.032000X1.727200*%
%ADD16O,2.032000X1.727200*%
%ADD17R,1.727200X1.727200*%
%ADD18O,1.727200X1.727200*%
%ADD19R,1.397000X1.397000*%
%ADD20R,1.778000X1.778000*%
%ADD21C,1.778000*%
%ADD22C,1.089660*%
%ADD23C,0.508000*%
%ADD24C,0.254000*%
G04 APERTURE END LIST*
D10*
D11*
X17100042Y-9900158D03*
X12700000Y-6499860D03*
D12*
X13999972Y-6818884D03*
X13999972Y-7580884D03*
X16433800Y-7112000D03*
X16433800Y-7874000D03*
X16433800Y-8128000D03*
X16433800Y-8890000D03*
X13699998Y-7918958D03*
X13699998Y-8680958D03*
X14500098Y-6518910D03*
X14500098Y-7280910D03*
X13218922Y-6500114D03*
X13980922Y-6500114D03*
X13699998Y-9019032D03*
X13699998Y-9781032D03*
X14500098Y-9781032D03*
X14500098Y-9019032D03*
D13*
X15595600Y-9118600D03*
D14*
X15595600Y-8356600D03*
D13*
X15595600Y-8077200D03*
D14*
X15595600Y-7315200D03*
D15*
X12680000Y-9216000D03*
D16*
X12680000Y-8962000D03*
X12680000Y-8708000D03*
X12680000Y-8454000D03*
X12680000Y-8200000D03*
X12680000Y-7946000D03*
X12680000Y-7692000D03*
X12680000Y-7438000D03*
X12680000Y-7184000D03*
D17*
X16910000Y-7227000D03*
D18*
X16910000Y-6973000D03*
D19*
X13647000Y-7230000D03*
D12*
X13393000Y-7230000D03*
D19*
X14920000Y-7573000D03*
D12*
X14920000Y-7827000D03*
D19*
X15100000Y-9647000D03*
D12*
X15100000Y-9393000D03*
D20*
X14966000Y-6850000D03*
D21*
X15474000Y-6850000D03*
D19*
X16753000Y-7860000D03*
D12*
X17007000Y-7860000D03*
D19*
X16306800Y-9296400D03*
D12*
X16052800Y-9296400D03*
X16052800Y-9042400D03*
D19*
X16078200Y-7086600D03*
D12*
X16078200Y-6832600D03*
X16332200Y-6832600D03*
D19*
X14300200Y-8534400D03*
D12*
X14300200Y-8280400D03*
X14554200Y-8280400D03*
D22*
X13140000Y-8210000D03*
D23*
X13999972Y-7999984D02*
X14273022Y-8273034D01*
X13999972Y-7580884D02*
X13999972Y-7999984D01*
X13647000Y-7230000D02*
X13649088Y-7230000D01*
X13649088Y-7230000D02*
X13999972Y-7580884D01*
X13647000Y-7230000D02*
X13647000Y-7865960D01*
X13647000Y-7865960D02*
X13699998Y-7918958D01*
X13278000Y-7438000D02*
X13393000Y-7323000D01*
X13393000Y-7323000D02*
X13393000Y-7230000D01*
X12680000Y-7438000D02*
X13278000Y-7438000D01*
X15595600Y-7315200D02*
X16078200Y-6832600D01*
X14920000Y-7573000D02*
X15337800Y-7573000D01*
X15337800Y-7573000D02*
X15595600Y-7315200D01*
X14627910Y-7280910D02*
X14920000Y-7573000D01*
X14500098Y-7280910D02*
X14627910Y-7280910D01*
X15595600Y-9118600D02*
X15875000Y-9118600D01*
X15875000Y-9118600D02*
X16052800Y-9296400D01*
X14527022Y-8273034D02*
X14546834Y-8273034D01*
X14546834Y-8273034D02*
X15392400Y-9118600D01*
X15392400Y-9118600D02*
X15595600Y-9118600D01*
X14920000Y-7827000D02*
X14804400Y-7827000D01*
X14527022Y-8104378D02*
X14527022Y-8273034D01*
X14804400Y-7827000D02*
X14527022Y-8104378D01*
X13699998Y-9781032D02*
X14500098Y-9781032D01*
X14965968Y-9781032D02*
X15100000Y-9647000D01*
X14500098Y-9781032D02*
X14965968Y-9781032D01*
X14966000Y-6850000D02*
X14966000Y-6751000D01*
X16052800Y-6553200D02*
X16332200Y-6832600D01*
X15163800Y-6553200D02*
X16052800Y-6553200D01*
X14966000Y-6751000D02*
X15163800Y-6553200D01*
X14966000Y-6850000D02*
X15019400Y-6850000D01*
X13999972Y-6519164D02*
X13980922Y-6500114D01*
X13980922Y-6500114D02*
X14481302Y-6500114D01*
X13999972Y-6818884D02*
X13999972Y-6519164D01*
X14634910Y-6518910D02*
X14966000Y-6850000D01*
X14500098Y-6518910D02*
X14634910Y-6518910D01*
X14966000Y-6850000D02*
X15020000Y-6850000D01*
X16433800Y-7874000D02*
X16433800Y-8128000D01*
X16753000Y-7860000D02*
X16447800Y-7860000D01*
X16447800Y-7860000D02*
X16433800Y-7874000D01*
X17007000Y-7463000D02*
X16910000Y-7366000D01*
X16910000Y-7366000D02*
X16910000Y-7227000D01*
X17007000Y-7860000D02*
X17007000Y-7463000D01*
X17007000Y-8903000D02*
X16180000Y-9730000D01*
X16180000Y-9730000D02*
X15780000Y-9730000D01*
X15780000Y-9730000D02*
X15200000Y-9150000D01*
X15200000Y-9150000D02*
X14980000Y-9150000D01*
X14980000Y-9150000D02*
X14690000Y-9440000D01*
X14690000Y-9440000D02*
X13730000Y-9440000D01*
X13730000Y-9440000D02*
X13140000Y-8850000D01*
X13140000Y-8850000D02*
X13140000Y-8210000D01*
X17007000Y-7860000D02*
X17007000Y-8903000D01*
X15595600Y-8077200D02*
X15595600Y-8356600D01*
X12680000Y-7692000D02*
X12802000Y-7692000D01*
X12822000Y-8708000D02*
X12680000Y-8708000D01*
X12940000Y-8590000D02*
X12822000Y-8708000D01*
X12940000Y-7830000D02*
X12940000Y-8590000D01*
X12802000Y-7692000D02*
X12940000Y-7830000D01*
X13781024Y-9019032D02*
X14273022Y-8527034D01*
X13699998Y-9019032D02*
X13781024Y-9019032D01*
X16078200Y-7086600D02*
X16408400Y-7086600D01*
X16408400Y-7086600D02*
X16433800Y-7112000D01*
X16433800Y-8890000D02*
X16433800Y-9169400D01*
X16433800Y-9169400D02*
X16306800Y-9296400D01*
D24*
G36*
X15211455Y-9063379D02*
X15200000Y-9061100D01*
X14980000Y-9061100D01*
X14945979Y-9067867D01*
X14917138Y-9087138D01*
X14653176Y-9351100D01*
X14634691Y-9351100D01*
X14634691Y-9038284D01*
X14631813Y-8985312D01*
X14617078Y-8949739D01*
X14593517Y-8943574D01*
X14575556Y-8961534D01*
X14575556Y-8925613D01*
X14569391Y-8902052D01*
X14519350Y-8884439D01*
X14466378Y-8887317D01*
X14430805Y-8902052D01*
X14424640Y-8925613D01*
X14500098Y-9001072D01*
X14575556Y-8925613D01*
X14575556Y-8961534D01*
X14518058Y-9019032D01*
X14593517Y-9094490D01*
X14617078Y-9088325D01*
X14634691Y-9038284D01*
X14634691Y-9351100D01*
X14575556Y-9351100D01*
X14575556Y-9112451D01*
X14500098Y-9036993D01*
X14482137Y-9054953D01*
X14482137Y-9019032D01*
X14406679Y-8943574D01*
X14383118Y-8949739D01*
X14365505Y-8999780D01*
X14368383Y-9052752D01*
X14383118Y-9088325D01*
X14406679Y-9094490D01*
X14482137Y-9019032D01*
X14482137Y-9054953D01*
X14424640Y-9112451D01*
X14430805Y-9136012D01*
X14480846Y-9153625D01*
X14533818Y-9150747D01*
X14569391Y-9136012D01*
X14575556Y-9112451D01*
X14575556Y-9351100D01*
X13766824Y-9351100D01*
X13228900Y-8813176D01*
X13228900Y-8287963D01*
X13239963Y-8276919D01*
X13257962Y-8233571D01*
X13258003Y-8186635D01*
X13240079Y-8143255D01*
X13206919Y-8110037D01*
X13163571Y-8092037D01*
X13116635Y-8091997D01*
X13073255Y-8109921D01*
X13040037Y-8143081D01*
X13028900Y-8169902D01*
X13028900Y-7830000D01*
X13022133Y-7795979D01*
X13022133Y-7795979D01*
X13002862Y-7767138D01*
X12864862Y-7629138D01*
X12836021Y-7609867D01*
X12817967Y-7606276D01*
X12804441Y-7586033D01*
X12772963Y-7565000D01*
X12804441Y-7543967D01*
X12815845Y-7526900D01*
X13278000Y-7526900D01*
X13312020Y-7520133D01*
X13312021Y-7520133D01*
X13340862Y-7500862D01*
X13455862Y-7385862D01*
X13475133Y-7357021D01*
X13475133Y-7357020D01*
X13480243Y-7331330D01*
X13480243Y-7331330D01*
X13505983Y-7305635D01*
X13512406Y-7290166D01*
X13512406Y-7299850D01*
X13517104Y-7324062D01*
X13531083Y-7345343D01*
X13552186Y-7359588D01*
X13558100Y-7360774D01*
X13558100Y-7865960D01*
X13564867Y-7899981D01*
X13566662Y-7902667D01*
X13566662Y-7902667D01*
X13566625Y-7945367D01*
X13586883Y-7994396D01*
X13624363Y-8031941D01*
X13673357Y-8052285D01*
X13726407Y-8052331D01*
X13775436Y-8032073D01*
X13812981Y-7994593D01*
X13833325Y-7945599D01*
X13833371Y-7892549D01*
X13813113Y-7843520D01*
X13775633Y-7805975D01*
X13735900Y-7789476D01*
X13735900Y-7442536D01*
X13866628Y-7573264D01*
X13866599Y-7607293D01*
X13886857Y-7656322D01*
X13911072Y-7680579D01*
X13911072Y-7999984D01*
X13917839Y-8034005D01*
X13937110Y-8062846D01*
X14166839Y-8292575D01*
X14166827Y-8306809D01*
X14187085Y-8355838D01*
X14224565Y-8393383D01*
X14240034Y-8399806D01*
X14230350Y-8399806D01*
X14206138Y-8404504D01*
X14184857Y-8418483D01*
X14170612Y-8439586D01*
X14165606Y-8464550D01*
X14165606Y-8508726D01*
X13834591Y-8839742D01*
X13834591Y-8700210D01*
X13831713Y-8647238D01*
X13816978Y-8611665D01*
X13793417Y-8605500D01*
X13775456Y-8623460D01*
X13775456Y-8587539D01*
X13769291Y-8563978D01*
X13719250Y-8546365D01*
X13666278Y-8549243D01*
X13630705Y-8563978D01*
X13624540Y-8587539D01*
X13699998Y-8662998D01*
X13775456Y-8587539D01*
X13775456Y-8623460D01*
X13717958Y-8680958D01*
X13793417Y-8756416D01*
X13816978Y-8750251D01*
X13834591Y-8700210D01*
X13834591Y-8839742D01*
X13775456Y-8898876D01*
X13775456Y-8774377D01*
X13699998Y-8698919D01*
X13682037Y-8716879D01*
X13682037Y-8680958D01*
X13606579Y-8605500D01*
X13583018Y-8611665D01*
X13565405Y-8661706D01*
X13568283Y-8714678D01*
X13583018Y-8750251D01*
X13606579Y-8756416D01*
X13682037Y-8680958D01*
X13682037Y-8716879D01*
X13624540Y-8774377D01*
X13630705Y-8797938D01*
X13680746Y-8815551D01*
X13733718Y-8812673D01*
X13769291Y-8797938D01*
X13775456Y-8774377D01*
X13775456Y-8898876D01*
X13770440Y-8903893D01*
X13726639Y-8885705D01*
X13673589Y-8885659D01*
X13624560Y-8905917D01*
X13587015Y-8943397D01*
X13566671Y-8992391D01*
X13566625Y-9045441D01*
X13586883Y-9094470D01*
X13624363Y-9132015D01*
X13673357Y-9152359D01*
X13726407Y-9152405D01*
X13775436Y-9132147D01*
X13804338Y-9103294D01*
X13815044Y-9101165D01*
X13815045Y-9101165D01*
X13843886Y-9081894D01*
X14256786Y-8668994D01*
X14370050Y-8668994D01*
X14394262Y-8664296D01*
X14415543Y-8650317D01*
X14429788Y-8629214D01*
X14434794Y-8604250D01*
X14434794Y-8464550D01*
X14430096Y-8440338D01*
X14416117Y-8419057D01*
X14395014Y-8404812D01*
X14370050Y-8399806D01*
X14360412Y-8399806D01*
X14375638Y-8393515D01*
X14413183Y-8356035D01*
X14427209Y-8322255D01*
X14441085Y-8355838D01*
X14478565Y-8393383D01*
X14527559Y-8413727D01*
X14561833Y-8413757D01*
X15211455Y-9063379D01*
X15211455Y-9063379D01*
G37*
X15211455Y-9063379D02*
X15200000Y-9061100D01*
X14980000Y-9061100D01*
X14945979Y-9067867D01*
X14917138Y-9087138D01*
X14653176Y-9351100D01*
X14634691Y-9351100D01*
X14634691Y-9038284D01*
X14631813Y-8985312D01*
X14617078Y-8949739D01*
X14593517Y-8943574D01*
X14575556Y-8961534D01*
X14575556Y-8925613D01*
X14569391Y-8902052D01*
X14519350Y-8884439D01*
X14466378Y-8887317D01*
X14430805Y-8902052D01*
X14424640Y-8925613D01*
X14500098Y-9001072D01*
X14575556Y-8925613D01*
X14575556Y-8961534D01*
X14518058Y-9019032D01*
X14593517Y-9094490D01*
X14617078Y-9088325D01*
X14634691Y-9038284D01*
X14634691Y-9351100D01*
X14575556Y-9351100D01*
X14575556Y-9112451D01*
X14500098Y-9036993D01*
X14482137Y-9054953D01*
X14482137Y-9019032D01*
X14406679Y-8943574D01*
X14383118Y-8949739D01*
X14365505Y-8999780D01*
X14368383Y-9052752D01*
X14383118Y-9088325D01*
X14406679Y-9094490D01*
X14482137Y-9019032D01*
X14482137Y-9054953D01*
X14424640Y-9112451D01*
X14430805Y-9136012D01*
X14480846Y-9153625D01*
X14533818Y-9150747D01*
X14569391Y-9136012D01*
X14575556Y-9112451D01*
X14575556Y-9351100D01*
X13766824Y-9351100D01*
X13228900Y-8813176D01*
X13228900Y-8287963D01*
X13239963Y-8276919D01*
X13257962Y-8233571D01*
X13258003Y-8186635D01*
X13240079Y-8143255D01*
X13206919Y-8110037D01*
X13163571Y-8092037D01*
X13116635Y-8091997D01*
X13073255Y-8109921D01*
X13040037Y-8143081D01*
X13028900Y-8169902D01*
X13028900Y-7830000D01*
X13022133Y-7795979D01*
X13022133Y-7795979D01*
X13002862Y-7767138D01*
X12864862Y-7629138D01*
X12836021Y-7609867D01*
X12817967Y-7606276D01*
X12804441Y-7586033D01*
X12772963Y-7565000D01*
X12804441Y-7543967D01*
X12815845Y-7526900D01*
X13278000Y-7526900D01*
X13312020Y-7520133D01*
X13312021Y-7520133D01*
X13340862Y-7500862D01*
X13455862Y-7385862D01*
X13475133Y-7357021D01*
X13475133Y-7357020D01*
X13480243Y-7331330D01*
X13480243Y-7331330D01*
X13505983Y-7305635D01*
X13512406Y-7290166D01*
X13512406Y-7299850D01*
X13517104Y-7324062D01*
X13531083Y-7345343D01*
X13552186Y-7359588D01*
X13558100Y-7360774D01*
X13558100Y-7865960D01*
X13564867Y-7899981D01*
X13566662Y-7902667D01*
X13566662Y-7902667D01*
X13566625Y-7945367D01*
X13586883Y-7994396D01*
X13624363Y-8031941D01*
X13673357Y-8052285D01*
X13726407Y-8052331D01*
X13775436Y-8032073D01*
X13812981Y-7994593D01*
X13833325Y-7945599D01*
X13833371Y-7892549D01*
X13813113Y-7843520D01*
X13775633Y-7805975D01*
X13735900Y-7789476D01*
X13735900Y-7442536D01*
X13866628Y-7573264D01*
X13866599Y-7607293D01*
X13886857Y-7656322D01*
X13911072Y-7680579D01*
X13911072Y-7999984D01*
X13917839Y-8034005D01*
X13937110Y-8062846D01*
X14166839Y-8292575D01*
X14166827Y-8306809D01*
X14187085Y-8355838D01*
X14224565Y-8393383D01*
X14240034Y-8399806D01*
X14230350Y-8399806D01*
X14206138Y-8404504D01*
X14184857Y-8418483D01*
X14170612Y-8439586D01*
X14165606Y-8464550D01*
X14165606Y-8508726D01*
X13834591Y-8839742D01*
X13834591Y-8700210D01*
X13831713Y-8647238D01*
X13816978Y-8611665D01*
X13793417Y-8605500D01*
X13775456Y-8623460D01*
X13775456Y-8587539D01*
X13769291Y-8563978D01*
X13719250Y-8546365D01*
X13666278Y-8549243D01*
X13630705Y-8563978D01*
X13624540Y-8587539D01*
X13699998Y-8662998D01*
X13775456Y-8587539D01*
X13775456Y-8623460D01*
X13717958Y-8680958D01*
X13793417Y-8756416D01*
X13816978Y-8750251D01*
X13834591Y-8700210D01*
X13834591Y-8839742D01*
X13775456Y-8898876D01*
X13775456Y-8774377D01*
X13699998Y-8698919D01*
X13682037Y-8716879D01*
X13682037Y-8680958D01*
X13606579Y-8605500D01*
X13583018Y-8611665D01*
X13565405Y-8661706D01*
X13568283Y-8714678D01*
X13583018Y-8750251D01*
X13606579Y-8756416D01*
X13682037Y-8680958D01*
X13682037Y-8716879D01*
X13624540Y-8774377D01*
X13630705Y-8797938D01*
X13680746Y-8815551D01*
X13733718Y-8812673D01*
X13769291Y-8797938D01*
X13775456Y-8774377D01*
X13775456Y-8898876D01*
X13770440Y-8903893D01*
X13726639Y-8885705D01*
X13673589Y-8885659D01*
X13624560Y-8905917D01*
X13587015Y-8943397D01*
X13566671Y-8992391D01*
X13566625Y-9045441D01*
X13586883Y-9094470D01*
X13624363Y-9132015D01*
X13673357Y-9152359D01*
X13726407Y-9152405D01*
X13775436Y-9132147D01*
X13804338Y-9103294D01*
X13815044Y-9101165D01*
X13815045Y-9101165D01*
X13843886Y-9081894D01*
X14256786Y-8668994D01*
X14370050Y-8668994D01*
X14394262Y-8664296D01*
X14415543Y-8650317D01*
X14429788Y-8629214D01*
X14434794Y-8604250D01*
X14434794Y-8464550D01*
X14430096Y-8440338D01*
X14416117Y-8419057D01*
X14395014Y-8404812D01*
X14370050Y-8399806D01*
X14360412Y-8399806D01*
X14375638Y-8393515D01*
X14413183Y-8356035D01*
X14427209Y-8322255D01*
X14441085Y-8355838D01*
X14478565Y-8393383D01*
X14527559Y-8413727D01*
X14561833Y-8413757D01*
X15211455Y-9063379D01*
G36*
X17317466Y-9674129D02*
X17277893Y-9634487D01*
X17162687Y-9586650D01*
X17140373Y-9586630D01*
X17140373Y-7833591D01*
X17120115Y-7784562D01*
X17095900Y-7760305D01*
X17095900Y-7463000D01*
X17089133Y-7428979D01*
X17089133Y-7428979D01*
X17069862Y-7400138D01*
X17034187Y-7364463D01*
X17041853Y-7359427D01*
X17056098Y-7338324D01*
X17061104Y-7313360D01*
X17061104Y-7140640D01*
X17056406Y-7116428D01*
X17042427Y-7095147D01*
X17021324Y-7080902D01*
X17012186Y-7079070D01*
X17038269Y-7050495D01*
X17055496Y-7008903D01*
X17055496Y-6937097D01*
X17038269Y-6895505D01*
X16998849Y-6852318D01*
X16945903Y-6827503D01*
X16922700Y-6839553D01*
X16922700Y-6960300D01*
X17043382Y-6960300D01*
X17055496Y-6937097D01*
X17055496Y-7008903D01*
X17043382Y-6985700D01*
X16922700Y-6985700D01*
X16922700Y-6987700D01*
X16897300Y-6987700D01*
X16897300Y-6985700D01*
X16897300Y-6960300D01*
X16897300Y-6839553D01*
X16874097Y-6827503D01*
X16821151Y-6852318D01*
X16781731Y-6895505D01*
X16764504Y-6937097D01*
X16776618Y-6960300D01*
X16897300Y-6960300D01*
X16897300Y-6985700D01*
X16776618Y-6985700D01*
X16764504Y-7008903D01*
X16781731Y-7050495D01*
X16807733Y-7078982D01*
X16799428Y-7080594D01*
X16778147Y-7094573D01*
X16763902Y-7115676D01*
X16758896Y-7140640D01*
X16758896Y-7313360D01*
X16763594Y-7337572D01*
X16777573Y-7358853D01*
X16798676Y-7373098D01*
X16823502Y-7378076D01*
X16827867Y-7400021D01*
X16847138Y-7428862D01*
X16918100Y-7499824D01*
X16918100Y-7760324D01*
X16894017Y-7784365D01*
X16887594Y-7799834D01*
X16887594Y-7790150D01*
X16882896Y-7765938D01*
X16868917Y-7744657D01*
X16847814Y-7730412D01*
X16822850Y-7725406D01*
X16683150Y-7725406D01*
X16658938Y-7730104D01*
X16637657Y-7744083D01*
X16623412Y-7765186D01*
X16622226Y-7771100D01*
X16519500Y-7771100D01*
X16509435Y-7761017D01*
X16460441Y-7740673D01*
X16407391Y-7740627D01*
X16358362Y-7760885D01*
X16320817Y-7798365D01*
X16300473Y-7847359D01*
X16300427Y-7900409D01*
X16320685Y-7949438D01*
X16344900Y-7973695D01*
X16344900Y-8028324D01*
X16320817Y-8052365D01*
X16300473Y-8101359D01*
X16300427Y-8154409D01*
X16320685Y-8203438D01*
X16358165Y-8240983D01*
X16407159Y-8261327D01*
X16460209Y-8261373D01*
X16509238Y-8241115D01*
X16546783Y-8203635D01*
X16567127Y-8154641D01*
X16567173Y-8101591D01*
X16546915Y-8052562D01*
X16522700Y-8028305D01*
X16522700Y-7973676D01*
X16546783Y-7949635D01*
X16547088Y-7948900D01*
X16622102Y-7948900D01*
X16623104Y-7954062D01*
X16637083Y-7975343D01*
X16658186Y-7989588D01*
X16683150Y-7994594D01*
X16822850Y-7994594D01*
X16847062Y-7989896D01*
X16868343Y-7975917D01*
X16882588Y-7954814D01*
X16887594Y-7929850D01*
X16887594Y-7920212D01*
X16893885Y-7935438D01*
X16918100Y-7959695D01*
X16918100Y-8866176D01*
X16441394Y-9342882D01*
X16441394Y-9287530D01*
X16496662Y-9232262D01*
X16515933Y-9203421D01*
X16515933Y-9203421D01*
X16522700Y-9169400D01*
X16522700Y-8989676D01*
X16546783Y-8965635D01*
X16567127Y-8916641D01*
X16567173Y-8863591D01*
X16546915Y-8814562D01*
X16509435Y-8777017D01*
X16460441Y-8756673D01*
X16407391Y-8756627D01*
X16358362Y-8776885D01*
X16320817Y-8814365D01*
X16300473Y-8863359D01*
X16300427Y-8916409D01*
X16320685Y-8965438D01*
X16344900Y-8989695D01*
X16344900Y-9132576D01*
X16315670Y-9161806D01*
X16236950Y-9161806D01*
X16212738Y-9166504D01*
X16191457Y-9180483D01*
X16187393Y-9186504D01*
X16187393Y-9061652D01*
X16184515Y-9008680D01*
X16169780Y-8973107D01*
X16146219Y-8966942D01*
X16128258Y-8984902D01*
X16128258Y-8948981D01*
X16122093Y-8925420D01*
X16072052Y-8907807D01*
X16019080Y-8910685D01*
X15983507Y-8925420D01*
X15977342Y-8948981D01*
X16052800Y-9024440D01*
X16128258Y-8948981D01*
X16128258Y-8984902D01*
X16070760Y-9042400D01*
X16146219Y-9117858D01*
X16169780Y-9111693D01*
X16187393Y-9061652D01*
X16187393Y-9186504D01*
X16177212Y-9201586D01*
X16172206Y-9226550D01*
X16172206Y-9236188D01*
X16165915Y-9220962D01*
X16128435Y-9183417D01*
X16096288Y-9170069D01*
X16122093Y-9159380D01*
X16128258Y-9135819D01*
X16052800Y-9060361D01*
X16051386Y-9061775D01*
X16033425Y-9043814D01*
X16034839Y-9042400D01*
X15959381Y-8966942D01*
X15935820Y-8973107D01*
X15918207Y-9023148D01*
X15919304Y-9043338D01*
X15909021Y-9036467D01*
X15875000Y-9029700D01*
X15731464Y-9029700D01*
X15731464Y-8148320D01*
X15731464Y-8006080D01*
X15726766Y-7981868D01*
X15712787Y-7960587D01*
X15691684Y-7946342D01*
X15666720Y-7941336D01*
X15524480Y-7941336D01*
X15500268Y-7946034D01*
X15478987Y-7960013D01*
X15464742Y-7981116D01*
X15459736Y-8006080D01*
X15459736Y-8148320D01*
X15464434Y-8172532D01*
X15478413Y-8193813D01*
X15499516Y-8208058D01*
X15506700Y-8209498D01*
X15506700Y-8255129D01*
X15481541Y-8280244D01*
X15461003Y-8329705D01*
X15460957Y-8383260D01*
X15481408Y-8432757D01*
X15519244Y-8470659D01*
X15568705Y-8491197D01*
X15622260Y-8491243D01*
X15671756Y-8470792D01*
X15709659Y-8432956D01*
X15730197Y-8383495D01*
X15730243Y-8329940D01*
X15709792Y-8280443D01*
X15684500Y-8255107D01*
X15684500Y-8209614D01*
X15690932Y-8208366D01*
X15712213Y-8194387D01*
X15726458Y-8173284D01*
X15731464Y-8148320D01*
X15731464Y-9029700D01*
X15728014Y-9029700D01*
X15726766Y-9023268D01*
X15712787Y-9001987D01*
X15691684Y-8987742D01*
X15666720Y-8982736D01*
X15524480Y-8982736D01*
X15500268Y-8987434D01*
X15478987Y-9001413D01*
X15464742Y-9022516D01*
X15463302Y-9029700D01*
X15429224Y-9029700D01*
X14687543Y-8288020D01*
X14687573Y-8253991D01*
X14667315Y-8204962D01*
X14629835Y-8167417D01*
X14615922Y-8161640D01*
X14615922Y-8141202D01*
X14830765Y-7926359D01*
X14844365Y-7939983D01*
X14893359Y-7960327D01*
X14946409Y-7960373D01*
X14995438Y-7940115D01*
X15032983Y-7902635D01*
X15053327Y-7853641D01*
X15053373Y-7800591D01*
X15033115Y-7751562D01*
X14995635Y-7714017D01*
X14980166Y-7707594D01*
X14989850Y-7707594D01*
X15014062Y-7702896D01*
X15035343Y-7688917D01*
X15049588Y-7667814D01*
X15050774Y-7661900D01*
X15337800Y-7661900D01*
X15371820Y-7655133D01*
X15371821Y-7655133D01*
X15400662Y-7635862D01*
X15586711Y-7449812D01*
X15622260Y-7449843D01*
X15671756Y-7429392D01*
X15709659Y-7391556D01*
X15730197Y-7342095D01*
X15730228Y-7306296D01*
X15943606Y-7092918D01*
X15943606Y-7156450D01*
X15948304Y-7180662D01*
X15962283Y-7201943D01*
X15983386Y-7216188D01*
X16008350Y-7221194D01*
X16148050Y-7221194D01*
X16172262Y-7216496D01*
X16193543Y-7202517D01*
X16207788Y-7181414D01*
X16208974Y-7175500D01*
X16315753Y-7175500D01*
X16320685Y-7187438D01*
X16358165Y-7224983D01*
X16407159Y-7245327D01*
X16460209Y-7245373D01*
X16509238Y-7225115D01*
X16546783Y-7187635D01*
X16567127Y-7138641D01*
X16567173Y-7085591D01*
X16546915Y-7036562D01*
X16509435Y-6999017D01*
X16460441Y-6978673D01*
X16407391Y-6978627D01*
X16361231Y-6997700D01*
X16209098Y-6997700D01*
X16208096Y-6992538D01*
X16194117Y-6971257D01*
X16173014Y-6957012D01*
X16148050Y-6952006D01*
X16138412Y-6952006D01*
X16153638Y-6945715D01*
X16191183Y-6908235D01*
X16205209Y-6874455D01*
X16219085Y-6908038D01*
X16256565Y-6945583D01*
X16305559Y-6965927D01*
X16358609Y-6965973D01*
X16407638Y-6945715D01*
X16445183Y-6908235D01*
X16465527Y-6859241D01*
X16465573Y-6806191D01*
X16445315Y-6757162D01*
X16407835Y-6719617D01*
X16358841Y-6699273D01*
X16324567Y-6699243D01*
X16115662Y-6490338D01*
X16086821Y-6471067D01*
X16052800Y-6464300D01*
X15163800Y-6464300D01*
X15129779Y-6471067D01*
X15100938Y-6490338D01*
X14916500Y-6674776D01*
X14697772Y-6456048D01*
X14668931Y-6436777D01*
X14634910Y-6430010D01*
X14599774Y-6430010D01*
X14575733Y-6405927D01*
X14526739Y-6385583D01*
X14473689Y-6385537D01*
X14424660Y-6405795D01*
X14419232Y-6411214D01*
X14080598Y-6411214D01*
X14056557Y-6387131D01*
X14007563Y-6366787D01*
X13954513Y-6366741D01*
X13905484Y-6386999D01*
X13867939Y-6424479D01*
X13847595Y-6473473D01*
X13847549Y-6526523D01*
X13867807Y-6575552D01*
X13905287Y-6613097D01*
X13911072Y-6615499D01*
X13911072Y-6719208D01*
X13886989Y-6743249D01*
X13866645Y-6792243D01*
X13866599Y-6845293D01*
X13886857Y-6894322D01*
X13924337Y-6931867D01*
X13973331Y-6952211D01*
X14026381Y-6952257D01*
X14075410Y-6931999D01*
X14112955Y-6894519D01*
X14133299Y-6845525D01*
X14133345Y-6792475D01*
X14113087Y-6743446D01*
X14088872Y-6719189D01*
X14088872Y-6589014D01*
X14384779Y-6589014D01*
X14386983Y-6594348D01*
X14424463Y-6631893D01*
X14473457Y-6652237D01*
X14526507Y-6652283D01*
X14575536Y-6632025D01*
X14598939Y-6608662D01*
X14812356Y-6822080D01*
X14812356Y-6938900D01*
X14817054Y-6963112D01*
X14831033Y-6984393D01*
X14852136Y-6998638D01*
X14877100Y-7003644D01*
X15054900Y-7003644D01*
X15079112Y-6998946D01*
X15100393Y-6984967D01*
X15114638Y-6963864D01*
X15119644Y-6938900D01*
X15119644Y-6761100D01*
X15114946Y-6736888D01*
X15111334Y-6731389D01*
X15200624Y-6642100D01*
X16015976Y-6642100D01*
X16073122Y-6699245D01*
X16051791Y-6699227D01*
X16002762Y-6719485D01*
X15965217Y-6756965D01*
X15944873Y-6805959D01*
X15944843Y-6840233D01*
X15627552Y-7157525D01*
X15627552Y-6873803D01*
X15624972Y-6813230D01*
X15606754Y-6769247D01*
X15581220Y-6760741D01*
X15563259Y-6778701D01*
X15563259Y-6742780D01*
X15554753Y-6717246D01*
X15497803Y-6696448D01*
X15437230Y-6699028D01*
X15393247Y-6717246D01*
X15384741Y-6742780D01*
X15474000Y-6832039D01*
X15563259Y-6742780D01*
X15563259Y-6778701D01*
X15491960Y-6850000D01*
X15581220Y-6939259D01*
X15606754Y-6930753D01*
X15627552Y-6873803D01*
X15627552Y-7157525D01*
X15604489Y-7180588D01*
X15568940Y-7180557D01*
X15563259Y-7182904D01*
X15563259Y-6957220D01*
X15474000Y-6867960D01*
X15456039Y-6885921D01*
X15456039Y-6850000D01*
X15366780Y-6760741D01*
X15341246Y-6769247D01*
X15320448Y-6826196D01*
X15323028Y-6886770D01*
X15341246Y-6930753D01*
X15366780Y-6939259D01*
X15456039Y-6850000D01*
X15456039Y-6885921D01*
X15384741Y-6957220D01*
X15393247Y-6982754D01*
X15450196Y-7003552D01*
X15510770Y-7000972D01*
X15554753Y-6982754D01*
X15563259Y-6957220D01*
X15563259Y-7182904D01*
X15519443Y-7201008D01*
X15481541Y-7238844D01*
X15461003Y-7288305D01*
X15460972Y-7324104D01*
X15300976Y-7484100D01*
X15050898Y-7484100D01*
X15049896Y-7478938D01*
X15035917Y-7457657D01*
X15014814Y-7443412D01*
X14989850Y-7438406D01*
X14911130Y-7438406D01*
X14690772Y-7218048D01*
X14661931Y-7198777D01*
X14627910Y-7192010D01*
X14599774Y-7192010D01*
X14575733Y-7167927D01*
X14526739Y-7147583D01*
X14473689Y-7147537D01*
X14424660Y-7167795D01*
X14387115Y-7205275D01*
X14366771Y-7254269D01*
X14366725Y-7307319D01*
X14386983Y-7356348D01*
X14424463Y-7393893D01*
X14473457Y-7414237D01*
X14526507Y-7414283D01*
X14575536Y-7394025D01*
X14595436Y-7374159D01*
X14785406Y-7564130D01*
X14785406Y-7642850D01*
X14790104Y-7667062D01*
X14804083Y-7688343D01*
X14825186Y-7702588D01*
X14850150Y-7707594D01*
X14859788Y-7707594D01*
X14844562Y-7713885D01*
X14820305Y-7738100D01*
X14804400Y-7738100D01*
X14770379Y-7744867D01*
X14741538Y-7764138D01*
X14464160Y-8041516D01*
X14444889Y-8070357D01*
X14438122Y-8104378D01*
X14438122Y-8212219D01*
X14427191Y-8238545D01*
X14413315Y-8204962D01*
X14375835Y-8167417D01*
X14326841Y-8147073D01*
X14273791Y-8147027D01*
X14273046Y-8147335D01*
X14088872Y-7963160D01*
X14088872Y-7680560D01*
X14112955Y-7656519D01*
X14133299Y-7607525D01*
X14133345Y-7554475D01*
X14113087Y-7505446D01*
X14075607Y-7467901D01*
X14026613Y-7447557D01*
X13992339Y-7447527D01*
X13781594Y-7236782D01*
X13781594Y-7160150D01*
X13776896Y-7135938D01*
X13762917Y-7114657D01*
X13741814Y-7100412D01*
X13716850Y-7095406D01*
X13577150Y-7095406D01*
X13552938Y-7100104D01*
X13531657Y-7114083D01*
X13517412Y-7135186D01*
X13512406Y-7160150D01*
X13512406Y-7169788D01*
X13506115Y-7154562D01*
X13468635Y-7117017D01*
X13419641Y-7096673D01*
X13366591Y-7096627D01*
X13352295Y-7102534D01*
X13352295Y-6473705D01*
X13332037Y-6424676D01*
X13294557Y-6387131D01*
X13245563Y-6366787D01*
X13192513Y-6366741D01*
X13143484Y-6386999D01*
X13105939Y-6424479D01*
X13085595Y-6473473D01*
X13085549Y-6526523D01*
X13105807Y-6575552D01*
X13143287Y-6613097D01*
X13192281Y-6633441D01*
X13245331Y-6633487D01*
X13294360Y-6613229D01*
X13331905Y-6575749D01*
X13352249Y-6526755D01*
X13352295Y-6473705D01*
X13352295Y-7102534D01*
X13317562Y-7116885D01*
X13280017Y-7154365D01*
X13259673Y-7203359D01*
X13259627Y-7256409D01*
X13279885Y-7305438D01*
X13282360Y-7307917D01*
X13241176Y-7349100D01*
X12815845Y-7349100D01*
X12804441Y-7332033D01*
X12773493Y-7311354D01*
X12815073Y-7274204D01*
X12840471Y-7221479D01*
X12840736Y-7219903D01*
X12840736Y-7148097D01*
X12840471Y-7146521D01*
X12815073Y-7093796D01*
X12771432Y-7054805D01*
X12716191Y-7035482D01*
X12692700Y-7049908D01*
X12692700Y-7171300D01*
X12828622Y-7171300D01*
X12840736Y-7148097D01*
X12840736Y-7219903D01*
X12828622Y-7196700D01*
X12692700Y-7196700D01*
X12692700Y-7198700D01*
X12667300Y-7198700D01*
X12667300Y-7196700D01*
X12667300Y-7171300D01*
X12667300Y-7049908D01*
X12643809Y-7035482D01*
X12588568Y-7054805D01*
X12544927Y-7093796D01*
X12519529Y-7146521D01*
X12519264Y-7148097D01*
X12531378Y-7171300D01*
X12667300Y-7171300D01*
X12667300Y-7196700D01*
X12531378Y-7196700D01*
X12519264Y-7219903D01*
X12519529Y-7221479D01*
X12544927Y-7274204D01*
X12586507Y-7311354D01*
X12555558Y-7332033D01*
X12523073Y-7380651D01*
X12511665Y-7438000D01*
X12523073Y-7495349D01*
X12555558Y-7543967D01*
X12587036Y-7565000D01*
X12555558Y-7586033D01*
X12523073Y-7634651D01*
X12511665Y-7692000D01*
X12523073Y-7749349D01*
X12555558Y-7797967D01*
X12586507Y-7818646D01*
X12544927Y-7855796D01*
X12519529Y-7908521D01*
X12519264Y-7910097D01*
X12531378Y-7933300D01*
X12667300Y-7933300D01*
X12667300Y-7931300D01*
X12692700Y-7931300D01*
X12692700Y-7933300D01*
X12828622Y-7933300D01*
X12840736Y-7910097D01*
X12840471Y-7908521D01*
X12815073Y-7855796D01*
X12773493Y-7818646D01*
X12791135Y-7806858D01*
X12851100Y-7866824D01*
X12851100Y-8553176D01*
X12848334Y-8555942D01*
X12848334Y-8200000D01*
X12836927Y-8142651D01*
X12804441Y-8094033D01*
X12773493Y-8073354D01*
X12815073Y-8036204D01*
X12840471Y-7983479D01*
X12840736Y-7981903D01*
X12828622Y-7958700D01*
X12692700Y-7958700D01*
X12692700Y-7960700D01*
X12667300Y-7960700D01*
X12667300Y-7958700D01*
X12531378Y-7958700D01*
X12519264Y-7981903D01*
X12519529Y-7983479D01*
X12544927Y-8036204D01*
X12586507Y-8073354D01*
X12555558Y-8094033D01*
X12523073Y-8142651D01*
X12511665Y-8200000D01*
X12523073Y-8257349D01*
X12555558Y-8305967D01*
X12586507Y-8326646D01*
X12544927Y-8363796D01*
X12519529Y-8416521D01*
X12519264Y-8418097D01*
X12531378Y-8441300D01*
X12667300Y-8441300D01*
X12667300Y-8439300D01*
X12692700Y-8439300D01*
X12692700Y-8441300D01*
X12828622Y-8441300D01*
X12840736Y-8418097D01*
X12840471Y-8416521D01*
X12815073Y-8363796D01*
X12773493Y-8326646D01*
X12804441Y-8305967D01*
X12836927Y-8257349D01*
X12848334Y-8200000D01*
X12848334Y-8555942D01*
X12803124Y-8601153D01*
X12773493Y-8581354D01*
X12815073Y-8544204D01*
X12840471Y-8491479D01*
X12840736Y-8489903D01*
X12828622Y-8466700D01*
X12692700Y-8466700D01*
X12692700Y-8468700D01*
X12667300Y-8468700D01*
X12667300Y-8466700D01*
X12531378Y-8466700D01*
X12519264Y-8489903D01*
X12519529Y-8491479D01*
X12544927Y-8544204D01*
X12586507Y-8581354D01*
X12555558Y-8602033D01*
X12523073Y-8650651D01*
X12511665Y-8708000D01*
X12523073Y-8765349D01*
X12555558Y-8813967D01*
X12586507Y-8834646D01*
X12544927Y-8871796D01*
X12519529Y-8924521D01*
X12519264Y-8926097D01*
X12531378Y-8949300D01*
X12667300Y-8949300D01*
X12667300Y-8947300D01*
X12692700Y-8947300D01*
X12692700Y-8949300D01*
X12828622Y-8949300D01*
X12840736Y-8926097D01*
X12840471Y-8924521D01*
X12815073Y-8871796D01*
X12773493Y-8834646D01*
X12804441Y-8813967D01*
X12815845Y-8796900D01*
X12822000Y-8796900D01*
X12856020Y-8790133D01*
X12856021Y-8790133D01*
X12884862Y-8770862D01*
X13002862Y-8652862D01*
X13022133Y-8624021D01*
X13022133Y-8624021D01*
X13028900Y-8590000D01*
X13028900Y-8250073D01*
X13039921Y-8276745D01*
X13051100Y-8287944D01*
X13051100Y-8850000D01*
X13057867Y-8884021D01*
X13077138Y-8912862D01*
X13667138Y-9502862D01*
X13695979Y-9522133D01*
X13695979Y-9522133D01*
X13730000Y-9528900D01*
X14690000Y-9528900D01*
X14724020Y-9522133D01*
X14724021Y-9522133D01*
X14752862Y-9502862D01*
X15016824Y-9238900D01*
X15163176Y-9238900D01*
X15717138Y-9792862D01*
X15745979Y-9812133D01*
X15745979Y-9812133D01*
X15780000Y-9818900D01*
X16180000Y-9818900D01*
X16214020Y-9812133D01*
X16214021Y-9812133D01*
X16242862Y-9792862D01*
X17069862Y-8965862D01*
X17089133Y-8937021D01*
X17089133Y-8937021D01*
X17095900Y-8903000D01*
X17095900Y-7959676D01*
X17119983Y-7935635D01*
X17140327Y-7886641D01*
X17140373Y-7833591D01*
X17140373Y-9586630D01*
X17037944Y-9586541D01*
X16922655Y-9634177D01*
X16834371Y-9722307D01*
X16786534Y-9837513D01*
X16786425Y-9962256D01*
X16834061Y-10077545D01*
X16873775Y-10117328D01*
X15234594Y-10117328D01*
X15234594Y-9716850D01*
X15234594Y-9577150D01*
X15234593Y-9577143D01*
X15234593Y-9412252D01*
X15231715Y-9359280D01*
X15216980Y-9323707D01*
X15193419Y-9317542D01*
X15175458Y-9335502D01*
X15175458Y-9299581D01*
X15169293Y-9276020D01*
X15119252Y-9258407D01*
X15066280Y-9261285D01*
X15030707Y-9276020D01*
X15024542Y-9299581D01*
X15100000Y-9375040D01*
X15175458Y-9299581D01*
X15175458Y-9335502D01*
X15117960Y-9393000D01*
X15193419Y-9468458D01*
X15216980Y-9462293D01*
X15234593Y-9412252D01*
X15234593Y-9577143D01*
X15229896Y-9552938D01*
X15215917Y-9531657D01*
X15194814Y-9517412D01*
X15169850Y-9512406D01*
X15163436Y-9512406D01*
X15169293Y-9509980D01*
X15175458Y-9486419D01*
X15100000Y-9410961D01*
X15082039Y-9428921D01*
X15082039Y-9393000D01*
X15006581Y-9317542D01*
X14983020Y-9323707D01*
X14965407Y-9373748D01*
X14968285Y-9426720D01*
X14983020Y-9462293D01*
X15006581Y-9468458D01*
X15082039Y-9393000D01*
X15082039Y-9428921D01*
X15024542Y-9486419D01*
X15030707Y-9509980D01*
X15037600Y-9512406D01*
X15030150Y-9512406D01*
X15005938Y-9517104D01*
X14984657Y-9531083D01*
X14970412Y-9552186D01*
X14965406Y-9577150D01*
X14965406Y-9655870D01*
X14929144Y-9692132D01*
X14599774Y-9692132D01*
X14575733Y-9668049D01*
X14526739Y-9647705D01*
X14473689Y-9647659D01*
X14424660Y-9667917D01*
X14400403Y-9692132D01*
X13799674Y-9692132D01*
X13775633Y-9668049D01*
X13726639Y-9647705D01*
X13673589Y-9647659D01*
X13624560Y-9667917D01*
X13587015Y-9705397D01*
X13566671Y-9754391D01*
X13566625Y-9807441D01*
X13586883Y-9856470D01*
X13624363Y-9894015D01*
X13673357Y-9914359D01*
X13726407Y-9914405D01*
X13775436Y-9894147D01*
X13799693Y-9869932D01*
X14400422Y-9869932D01*
X14424463Y-9894015D01*
X14473457Y-9914359D01*
X14526507Y-9914405D01*
X14575536Y-9894147D01*
X14599793Y-9869932D01*
X14965968Y-9869932D01*
X14999988Y-9863165D01*
X14999989Y-9863165D01*
X15028830Y-9843894D01*
X15091130Y-9781594D01*
X15169850Y-9781594D01*
X15194062Y-9776896D01*
X15215343Y-9762917D01*
X15229588Y-9741814D01*
X15234594Y-9716850D01*
X15234594Y-10117328D01*
X12846344Y-10117328D01*
X12846344Y-9302360D01*
X12846344Y-9129640D01*
X12841646Y-9105428D01*
X12827667Y-9084147D01*
X12806564Y-9069902D01*
X12797335Y-9068052D01*
X12815073Y-9052204D01*
X12840471Y-8999479D01*
X12840736Y-8997903D01*
X12828622Y-8974700D01*
X12692700Y-8974700D01*
X12692700Y-8976700D01*
X12667300Y-8976700D01*
X12667300Y-8974700D01*
X12531378Y-8974700D01*
X12519264Y-8997903D01*
X12519529Y-8999479D01*
X12544927Y-9052204D01*
X12562570Y-9067967D01*
X12554188Y-9069594D01*
X12532907Y-9083573D01*
X12518662Y-9104676D01*
X12513656Y-9129640D01*
X12513656Y-9302360D01*
X12518354Y-9326572D01*
X12532333Y-9347853D01*
X12553436Y-9362098D01*
X12578400Y-9367104D01*
X12781600Y-9367104D01*
X12805812Y-9362406D01*
X12827093Y-9348427D01*
X12841338Y-9327324D01*
X12846344Y-9302360D01*
X12846344Y-10117328D01*
X12482576Y-10117328D01*
X12482576Y-6725889D01*
X12522149Y-6765531D01*
X12637355Y-6813368D01*
X12762098Y-6813477D01*
X12877387Y-6765841D01*
X12965671Y-6677711D01*
X13013508Y-6562505D01*
X13013617Y-6437762D01*
X12965981Y-6322473D01*
X12926014Y-6282436D01*
X17317466Y-6282436D01*
X17317466Y-9674129D01*
X17317466Y-9674129D01*
G37*
X17317466Y-9674129D02*
X17277893Y-9634487D01*
X17162687Y-9586650D01*
X17140373Y-9586630D01*
X17140373Y-7833591D01*
X17120115Y-7784562D01*
X17095900Y-7760305D01*
X17095900Y-7463000D01*
X17089133Y-7428979D01*
X17089133Y-7428979D01*
X17069862Y-7400138D01*
X17034187Y-7364463D01*
X17041853Y-7359427D01*
X17056098Y-7338324D01*
X17061104Y-7313360D01*
X17061104Y-7140640D01*
X17056406Y-7116428D01*
X17042427Y-7095147D01*
X17021324Y-7080902D01*
X17012186Y-7079070D01*
X17038269Y-7050495D01*
X17055496Y-7008903D01*
X17055496Y-6937097D01*
X17038269Y-6895505D01*
X16998849Y-6852318D01*
X16945903Y-6827503D01*
X16922700Y-6839553D01*
X16922700Y-6960300D01*
X17043382Y-6960300D01*
X17055496Y-6937097D01*
X17055496Y-7008903D01*
X17043382Y-6985700D01*
X16922700Y-6985700D01*
X16922700Y-6987700D01*
X16897300Y-6987700D01*
X16897300Y-6985700D01*
X16897300Y-6960300D01*
X16897300Y-6839553D01*
X16874097Y-6827503D01*
X16821151Y-6852318D01*
X16781731Y-6895505D01*
X16764504Y-6937097D01*
X16776618Y-6960300D01*
X16897300Y-6960300D01*
X16897300Y-6985700D01*
X16776618Y-6985700D01*
X16764504Y-7008903D01*
X16781731Y-7050495D01*
X16807733Y-7078982D01*
X16799428Y-7080594D01*
X16778147Y-7094573D01*
X16763902Y-7115676D01*
X16758896Y-7140640D01*
X16758896Y-7313360D01*
X16763594Y-7337572D01*
X16777573Y-7358853D01*
X16798676Y-7373098D01*
X16823502Y-7378076D01*
X16827867Y-7400021D01*
X16847138Y-7428862D01*
X16918100Y-7499824D01*
X16918100Y-7760324D01*
X16894017Y-7784365D01*
X16887594Y-7799834D01*
X16887594Y-7790150D01*
X16882896Y-7765938D01*
X16868917Y-7744657D01*
X16847814Y-7730412D01*
X16822850Y-7725406D01*
X16683150Y-7725406D01*
X16658938Y-7730104D01*
X16637657Y-7744083D01*
X16623412Y-7765186D01*
X16622226Y-7771100D01*
X16519500Y-7771100D01*
X16509435Y-7761017D01*
X16460441Y-7740673D01*
X16407391Y-7740627D01*
X16358362Y-7760885D01*
X16320817Y-7798365D01*
X16300473Y-7847359D01*
X16300427Y-7900409D01*
X16320685Y-7949438D01*
X16344900Y-7973695D01*
X16344900Y-8028324D01*
X16320817Y-8052365D01*
X16300473Y-8101359D01*
X16300427Y-8154409D01*
X16320685Y-8203438D01*
X16358165Y-8240983D01*
X16407159Y-8261327D01*
X16460209Y-8261373D01*
X16509238Y-8241115D01*
X16546783Y-8203635D01*
X16567127Y-8154641D01*
X16567173Y-8101591D01*
X16546915Y-8052562D01*
X16522700Y-8028305D01*
X16522700Y-7973676D01*
X16546783Y-7949635D01*
X16547088Y-7948900D01*
X16622102Y-7948900D01*
X16623104Y-7954062D01*
X16637083Y-7975343D01*
X16658186Y-7989588D01*
X16683150Y-7994594D01*
X16822850Y-7994594D01*
X16847062Y-7989896D01*
X16868343Y-7975917D01*
X16882588Y-7954814D01*
X16887594Y-7929850D01*
X16887594Y-7920212D01*
X16893885Y-7935438D01*
X16918100Y-7959695D01*
X16918100Y-8866176D01*
X16441394Y-9342882D01*
X16441394Y-9287530D01*
X16496662Y-9232262D01*
X16515933Y-9203421D01*
X16515933Y-9203421D01*
X16522700Y-9169400D01*
X16522700Y-8989676D01*
X16546783Y-8965635D01*
X16567127Y-8916641D01*
X16567173Y-8863591D01*
X16546915Y-8814562D01*
X16509435Y-8777017D01*
X16460441Y-8756673D01*
X16407391Y-8756627D01*
X16358362Y-8776885D01*
X16320817Y-8814365D01*
X16300473Y-8863359D01*
X16300427Y-8916409D01*
X16320685Y-8965438D01*
X16344900Y-8989695D01*
X16344900Y-9132576D01*
X16315670Y-9161806D01*
X16236950Y-9161806D01*
X16212738Y-9166504D01*
X16191457Y-9180483D01*
X16187393Y-9186504D01*
X16187393Y-9061652D01*
X16184515Y-9008680D01*
X16169780Y-8973107D01*
X16146219Y-8966942D01*
X16128258Y-8984902D01*
X16128258Y-8948981D01*
X16122093Y-8925420D01*
X16072052Y-8907807D01*
X16019080Y-8910685D01*
X15983507Y-8925420D01*
X15977342Y-8948981D01*
X16052800Y-9024440D01*
X16128258Y-8948981D01*
X16128258Y-8984902D01*
X16070760Y-9042400D01*
X16146219Y-9117858D01*
X16169780Y-9111693D01*
X16187393Y-9061652D01*
X16187393Y-9186504D01*
X16177212Y-9201586D01*
X16172206Y-9226550D01*
X16172206Y-9236188D01*
X16165915Y-9220962D01*
X16128435Y-9183417D01*
X16096288Y-9170069D01*
X16122093Y-9159380D01*
X16128258Y-9135819D01*
X16052800Y-9060361D01*
X16051386Y-9061775D01*
X16033425Y-9043814D01*
X16034839Y-9042400D01*
X15959381Y-8966942D01*
X15935820Y-8973107D01*
X15918207Y-9023148D01*
X15919304Y-9043338D01*
X15909021Y-9036467D01*
X15875000Y-9029700D01*
X15731464Y-9029700D01*
X15731464Y-8148320D01*
X15731464Y-8006080D01*
X15726766Y-7981868D01*
X15712787Y-7960587D01*
X15691684Y-7946342D01*
X15666720Y-7941336D01*
X15524480Y-7941336D01*
X15500268Y-7946034D01*
X15478987Y-7960013D01*
X15464742Y-7981116D01*
X15459736Y-8006080D01*
X15459736Y-8148320D01*
X15464434Y-8172532D01*
X15478413Y-8193813D01*
X15499516Y-8208058D01*
X15506700Y-8209498D01*
X15506700Y-8255129D01*
X15481541Y-8280244D01*
X15461003Y-8329705D01*
X15460957Y-8383260D01*
X15481408Y-8432757D01*
X15519244Y-8470659D01*
X15568705Y-8491197D01*
X15622260Y-8491243D01*
X15671756Y-8470792D01*
X15709659Y-8432956D01*
X15730197Y-8383495D01*
X15730243Y-8329940D01*
X15709792Y-8280443D01*
X15684500Y-8255107D01*
X15684500Y-8209614D01*
X15690932Y-8208366D01*
X15712213Y-8194387D01*
X15726458Y-8173284D01*
X15731464Y-8148320D01*
X15731464Y-9029700D01*
X15728014Y-9029700D01*
X15726766Y-9023268D01*
X15712787Y-9001987D01*
X15691684Y-8987742D01*
X15666720Y-8982736D01*
X15524480Y-8982736D01*
X15500268Y-8987434D01*
X15478987Y-9001413D01*
X15464742Y-9022516D01*
X15463302Y-9029700D01*
X15429224Y-9029700D01*
X14687543Y-8288020D01*
X14687573Y-8253991D01*
X14667315Y-8204962D01*
X14629835Y-8167417D01*
X14615922Y-8161640D01*
X14615922Y-8141202D01*
X14830765Y-7926359D01*
X14844365Y-7939983D01*
X14893359Y-7960327D01*
X14946409Y-7960373D01*
X14995438Y-7940115D01*
X15032983Y-7902635D01*
X15053327Y-7853641D01*
X15053373Y-7800591D01*
X15033115Y-7751562D01*
X14995635Y-7714017D01*
X14980166Y-7707594D01*
X14989850Y-7707594D01*
X15014062Y-7702896D01*
X15035343Y-7688917D01*
X15049588Y-7667814D01*
X15050774Y-7661900D01*
X15337800Y-7661900D01*
X15371820Y-7655133D01*
X15371821Y-7655133D01*
X15400662Y-7635862D01*
X15586711Y-7449812D01*
X15622260Y-7449843D01*
X15671756Y-7429392D01*
X15709659Y-7391556D01*
X15730197Y-7342095D01*
X15730228Y-7306296D01*
X15943606Y-7092918D01*
X15943606Y-7156450D01*
X15948304Y-7180662D01*
X15962283Y-7201943D01*
X15983386Y-7216188D01*
X16008350Y-7221194D01*
X16148050Y-7221194D01*
X16172262Y-7216496D01*
X16193543Y-7202517D01*
X16207788Y-7181414D01*
X16208974Y-7175500D01*
X16315753Y-7175500D01*
X16320685Y-7187438D01*
X16358165Y-7224983D01*
X16407159Y-7245327D01*
X16460209Y-7245373D01*
X16509238Y-7225115D01*
X16546783Y-7187635D01*
X16567127Y-7138641D01*
X16567173Y-7085591D01*
X16546915Y-7036562D01*
X16509435Y-6999017D01*
X16460441Y-6978673D01*
X16407391Y-6978627D01*
X16361231Y-6997700D01*
X16209098Y-6997700D01*
X16208096Y-6992538D01*
X16194117Y-6971257D01*
X16173014Y-6957012D01*
X16148050Y-6952006D01*
X16138412Y-6952006D01*
X16153638Y-6945715D01*
X16191183Y-6908235D01*
X16205209Y-6874455D01*
X16219085Y-6908038D01*
X16256565Y-6945583D01*
X16305559Y-6965927D01*
X16358609Y-6965973D01*
X16407638Y-6945715D01*
X16445183Y-6908235D01*
X16465527Y-6859241D01*
X16465573Y-6806191D01*
X16445315Y-6757162D01*
X16407835Y-6719617D01*
X16358841Y-6699273D01*
X16324567Y-6699243D01*
X16115662Y-6490338D01*
X16086821Y-6471067D01*
X16052800Y-6464300D01*
X15163800Y-6464300D01*
X15129779Y-6471067D01*
X15100938Y-6490338D01*
X14916500Y-6674776D01*
X14697772Y-6456048D01*
X14668931Y-6436777D01*
X14634910Y-6430010D01*
X14599774Y-6430010D01*
X14575733Y-6405927D01*
X14526739Y-6385583D01*
X14473689Y-6385537D01*
X14424660Y-6405795D01*
X14419232Y-6411214D01*
X14080598Y-6411214D01*
X14056557Y-6387131D01*
X14007563Y-6366787D01*
X13954513Y-6366741D01*
X13905484Y-6386999D01*
X13867939Y-6424479D01*
X13847595Y-6473473D01*
X13847549Y-6526523D01*
X13867807Y-6575552D01*
X13905287Y-6613097D01*
X13911072Y-6615499D01*
X13911072Y-6719208D01*
X13886989Y-6743249D01*
X13866645Y-6792243D01*
X13866599Y-6845293D01*
X13886857Y-6894322D01*
X13924337Y-6931867D01*
X13973331Y-6952211D01*
X14026381Y-6952257D01*
X14075410Y-6931999D01*
X14112955Y-6894519D01*
X14133299Y-6845525D01*
X14133345Y-6792475D01*
X14113087Y-6743446D01*
X14088872Y-6719189D01*
X14088872Y-6589014D01*
X14384779Y-6589014D01*
X14386983Y-6594348D01*
X14424463Y-6631893D01*
X14473457Y-6652237D01*
X14526507Y-6652283D01*
X14575536Y-6632025D01*
X14598939Y-6608662D01*
X14812356Y-6822080D01*
X14812356Y-6938900D01*
X14817054Y-6963112D01*
X14831033Y-6984393D01*
X14852136Y-6998638D01*
X14877100Y-7003644D01*
X15054900Y-7003644D01*
X15079112Y-6998946D01*
X15100393Y-6984967D01*
X15114638Y-6963864D01*
X15119644Y-6938900D01*
X15119644Y-6761100D01*
X15114946Y-6736888D01*
X15111334Y-6731389D01*
X15200624Y-6642100D01*
X16015976Y-6642100D01*
X16073122Y-6699245D01*
X16051791Y-6699227D01*
X16002762Y-6719485D01*
X15965217Y-6756965D01*
X15944873Y-6805959D01*
X15944843Y-6840233D01*
X15627552Y-7157525D01*
X15627552Y-6873803D01*
X15624972Y-6813230D01*
X15606754Y-6769247D01*
X15581220Y-6760741D01*
X15563259Y-6778701D01*
X15563259Y-6742780D01*
X15554753Y-6717246D01*
X15497803Y-6696448D01*
X15437230Y-6699028D01*
X15393247Y-6717246D01*
X15384741Y-6742780D01*
X15474000Y-6832039D01*
X15563259Y-6742780D01*
X15563259Y-6778701D01*
X15491960Y-6850000D01*
X15581220Y-6939259D01*
X15606754Y-6930753D01*
X15627552Y-6873803D01*
X15627552Y-7157525D01*
X15604489Y-7180588D01*
X15568940Y-7180557D01*
X15563259Y-7182904D01*
X15563259Y-6957220D01*
X15474000Y-6867960D01*
X15456039Y-6885921D01*
X15456039Y-6850000D01*
X15366780Y-6760741D01*
X15341246Y-6769247D01*
X15320448Y-6826196D01*
X15323028Y-6886770D01*
X15341246Y-6930753D01*
X15366780Y-6939259D01*
X15456039Y-6850000D01*
X15456039Y-6885921D01*
X15384741Y-6957220D01*
X15393247Y-6982754D01*
X15450196Y-7003552D01*
X15510770Y-7000972D01*
X15554753Y-6982754D01*
X15563259Y-6957220D01*
X15563259Y-7182904D01*
X15519443Y-7201008D01*
X15481541Y-7238844D01*
X15461003Y-7288305D01*
X15460972Y-7324104D01*
X15300976Y-7484100D01*
X15050898Y-7484100D01*
X15049896Y-7478938D01*
X15035917Y-7457657D01*
X15014814Y-7443412D01*
X14989850Y-7438406D01*
X14911130Y-7438406D01*
X14690772Y-7218048D01*
X14661931Y-7198777D01*
X14627910Y-7192010D01*
X14599774Y-7192010D01*
X14575733Y-7167927D01*
X14526739Y-7147583D01*
X14473689Y-7147537D01*
X14424660Y-7167795D01*
X14387115Y-7205275D01*
X14366771Y-7254269D01*
X14366725Y-7307319D01*
X14386983Y-7356348D01*
X14424463Y-7393893D01*
X14473457Y-7414237D01*
X14526507Y-7414283D01*
X14575536Y-7394025D01*
X14595436Y-7374159D01*
X14785406Y-7564130D01*
X14785406Y-7642850D01*
X14790104Y-7667062D01*
X14804083Y-7688343D01*
X14825186Y-7702588D01*
X14850150Y-7707594D01*
X14859788Y-7707594D01*
X14844562Y-7713885D01*
X14820305Y-7738100D01*
X14804400Y-7738100D01*
X14770379Y-7744867D01*
X14741538Y-7764138D01*
X14464160Y-8041516D01*
X14444889Y-8070357D01*
X14438122Y-8104378D01*
X14438122Y-8212219D01*
X14427191Y-8238545D01*
X14413315Y-8204962D01*
X14375835Y-8167417D01*
X14326841Y-8147073D01*
X14273791Y-8147027D01*
X14273046Y-8147335D01*
X14088872Y-7963160D01*
X14088872Y-7680560D01*
X14112955Y-7656519D01*
X14133299Y-7607525D01*
X14133345Y-7554475D01*
X14113087Y-7505446D01*
X14075607Y-7467901D01*
X14026613Y-7447557D01*
X13992339Y-7447527D01*
X13781594Y-7236782D01*
X13781594Y-7160150D01*
X13776896Y-7135938D01*
X13762917Y-7114657D01*
X13741814Y-7100412D01*
X13716850Y-7095406D01*
X13577150Y-7095406D01*
X13552938Y-7100104D01*
X13531657Y-7114083D01*
X13517412Y-7135186D01*
X13512406Y-7160150D01*
X13512406Y-7169788D01*
X13506115Y-7154562D01*
X13468635Y-7117017D01*
X13419641Y-7096673D01*
X13366591Y-7096627D01*
X13352295Y-7102534D01*
X13352295Y-6473705D01*
X13332037Y-6424676D01*
X13294557Y-6387131D01*
X13245563Y-6366787D01*
X13192513Y-6366741D01*
X13143484Y-6386999D01*
X13105939Y-6424479D01*
X13085595Y-6473473D01*
X13085549Y-6526523D01*
X13105807Y-6575552D01*
X13143287Y-6613097D01*
X13192281Y-6633441D01*
X13245331Y-6633487D01*
X13294360Y-6613229D01*
X13331905Y-6575749D01*
X13352249Y-6526755D01*
X13352295Y-6473705D01*
X13352295Y-7102534D01*
X13317562Y-7116885D01*
X13280017Y-7154365D01*
X13259673Y-7203359D01*
X13259627Y-7256409D01*
X13279885Y-7305438D01*
X13282360Y-7307917D01*
X13241176Y-7349100D01*
X12815845Y-7349100D01*
X12804441Y-7332033D01*
X12773493Y-7311354D01*
X12815073Y-7274204D01*
X12840471Y-7221479D01*
X12840736Y-7219903D01*
X12840736Y-7148097D01*
X12840471Y-7146521D01*
X12815073Y-7093796D01*
X12771432Y-7054805D01*
X12716191Y-7035482D01*
X12692700Y-7049908D01*
X12692700Y-7171300D01*
X12828622Y-7171300D01*
X12840736Y-7148097D01*
X12840736Y-7219903D01*
X12828622Y-7196700D01*
X12692700Y-7196700D01*
X12692700Y-7198700D01*
X12667300Y-7198700D01*
X12667300Y-7196700D01*
X12667300Y-7171300D01*
X12667300Y-7049908D01*
X12643809Y-7035482D01*
X12588568Y-7054805D01*
X12544927Y-7093796D01*
X12519529Y-7146521D01*
X12519264Y-7148097D01*
X12531378Y-7171300D01*
X12667300Y-7171300D01*
X12667300Y-7196700D01*
X12531378Y-7196700D01*
X12519264Y-7219903D01*
X12519529Y-7221479D01*
X12544927Y-7274204D01*
X12586507Y-7311354D01*
X12555558Y-7332033D01*
X12523073Y-7380651D01*
X12511665Y-7438000D01*
X12523073Y-7495349D01*
X12555558Y-7543967D01*
X12587036Y-7565000D01*
X12555558Y-7586033D01*
X12523073Y-7634651D01*
X12511665Y-7692000D01*
X12523073Y-7749349D01*
X12555558Y-7797967D01*
X12586507Y-7818646D01*
X12544927Y-7855796D01*
X12519529Y-7908521D01*
X12519264Y-7910097D01*
X12531378Y-7933300D01*
X12667300Y-7933300D01*
X12667300Y-7931300D01*
X12692700Y-7931300D01*
X12692700Y-7933300D01*
X12828622Y-7933300D01*
X12840736Y-7910097D01*
X12840471Y-7908521D01*
X12815073Y-7855796D01*
X12773493Y-7818646D01*
X12791135Y-7806858D01*
X12851100Y-7866824D01*
X12851100Y-8553176D01*
X12848334Y-8555942D01*
X12848334Y-8200000D01*
X12836927Y-8142651D01*
X12804441Y-8094033D01*
X12773493Y-8073354D01*
X12815073Y-8036204D01*
X12840471Y-7983479D01*
X12840736Y-7981903D01*
X12828622Y-7958700D01*
X12692700Y-7958700D01*
X12692700Y-7960700D01*
X12667300Y-7960700D01*
X12667300Y-7958700D01*
X12531378Y-7958700D01*
X12519264Y-7981903D01*
X12519529Y-7983479D01*
X12544927Y-8036204D01*
X12586507Y-8073354D01*
X12555558Y-8094033D01*
X12523073Y-8142651D01*
X12511665Y-8200000D01*
X12523073Y-8257349D01*
X12555558Y-8305967D01*
X12586507Y-8326646D01*
X12544927Y-8363796D01*
X12519529Y-8416521D01*
X12519264Y-8418097D01*
X12531378Y-8441300D01*
X12667300Y-8441300D01*
X12667300Y-8439300D01*
X12692700Y-8439300D01*
X12692700Y-8441300D01*
X12828622Y-8441300D01*
X12840736Y-8418097D01*
X12840471Y-8416521D01*
X12815073Y-8363796D01*
X12773493Y-8326646D01*
X12804441Y-8305967D01*
X12836927Y-8257349D01*
X12848334Y-8200000D01*
X12848334Y-8555942D01*
X12803124Y-8601153D01*
X12773493Y-8581354D01*
X12815073Y-8544204D01*
X12840471Y-8491479D01*
X12840736Y-8489903D01*
X12828622Y-8466700D01*
X12692700Y-8466700D01*
X12692700Y-8468700D01*
X12667300Y-8468700D01*
X12667300Y-8466700D01*
X12531378Y-8466700D01*
X12519264Y-8489903D01*
X12519529Y-8491479D01*
X12544927Y-8544204D01*
X12586507Y-8581354D01*
X12555558Y-8602033D01*
X12523073Y-8650651D01*
X12511665Y-8708000D01*
X12523073Y-8765349D01*
X12555558Y-8813967D01*
X12586507Y-8834646D01*
X12544927Y-8871796D01*
X12519529Y-8924521D01*
X12519264Y-8926097D01*
X12531378Y-8949300D01*
X12667300Y-8949300D01*
X12667300Y-8947300D01*
X12692700Y-8947300D01*
X12692700Y-8949300D01*
X12828622Y-8949300D01*
X12840736Y-8926097D01*
X12840471Y-8924521D01*
X12815073Y-8871796D01*
X12773493Y-8834646D01*
X12804441Y-8813967D01*
X12815845Y-8796900D01*
X12822000Y-8796900D01*
X12856020Y-8790133D01*
X12856021Y-8790133D01*
X12884862Y-8770862D01*
X13002862Y-8652862D01*
X13022133Y-8624021D01*
X13022133Y-8624021D01*
X13028900Y-8590000D01*
X13028900Y-8250073D01*
X13039921Y-8276745D01*
X13051100Y-8287944D01*
X13051100Y-8850000D01*
X13057867Y-8884021D01*
X13077138Y-8912862D01*
X13667138Y-9502862D01*
X13695979Y-9522133D01*
X13695979Y-9522133D01*
X13730000Y-9528900D01*
X14690000Y-9528900D01*
X14724020Y-9522133D01*
X14724021Y-9522133D01*
X14752862Y-9502862D01*
X15016824Y-9238900D01*
X15163176Y-9238900D01*
X15717138Y-9792862D01*
X15745979Y-9812133D01*
X15745979Y-9812133D01*
X15780000Y-9818900D01*
X16180000Y-9818900D01*
X16214020Y-9812133D01*
X16214021Y-9812133D01*
X16242862Y-9792862D01*
X17069862Y-8965862D01*
X17089133Y-8937021D01*
X17089133Y-8937021D01*
X17095900Y-8903000D01*
X17095900Y-7959676D01*
X17119983Y-7935635D01*
X17140327Y-7886641D01*
X17140373Y-7833591D01*
X17140373Y-9586630D01*
X17037944Y-9586541D01*
X16922655Y-9634177D01*
X16834371Y-9722307D01*
X16786534Y-9837513D01*
X16786425Y-9962256D01*
X16834061Y-10077545D01*
X16873775Y-10117328D01*
X15234594Y-10117328D01*
X15234594Y-9716850D01*
X15234594Y-9577150D01*
X15234593Y-9577143D01*
X15234593Y-9412252D01*
X15231715Y-9359280D01*
X15216980Y-9323707D01*
X15193419Y-9317542D01*
X15175458Y-9335502D01*
X15175458Y-9299581D01*
X15169293Y-9276020D01*
X15119252Y-9258407D01*
X15066280Y-9261285D01*
X15030707Y-9276020D01*
X15024542Y-9299581D01*
X15100000Y-9375040D01*
X15175458Y-9299581D01*
X15175458Y-9335502D01*
X15117960Y-9393000D01*
X15193419Y-9468458D01*
X15216980Y-9462293D01*
X15234593Y-9412252D01*
X15234593Y-9577143D01*
X15229896Y-9552938D01*
X15215917Y-9531657D01*
X15194814Y-9517412D01*
X15169850Y-9512406D01*
X15163436Y-9512406D01*
X15169293Y-9509980D01*
X15175458Y-9486419D01*
X15100000Y-9410961D01*
X15082039Y-9428921D01*
X15082039Y-9393000D01*
X15006581Y-9317542D01*
X14983020Y-9323707D01*
X14965407Y-9373748D01*
X14968285Y-9426720D01*
X14983020Y-9462293D01*
X15006581Y-9468458D01*
X15082039Y-9393000D01*
X15082039Y-9428921D01*
X15024542Y-9486419D01*
X15030707Y-9509980D01*
X15037600Y-9512406D01*
X15030150Y-9512406D01*
X15005938Y-9517104D01*
X14984657Y-9531083D01*
X14970412Y-9552186D01*
X14965406Y-9577150D01*
X14965406Y-9655870D01*
X14929144Y-9692132D01*
X14599774Y-9692132D01*
X14575733Y-9668049D01*
X14526739Y-9647705D01*
X14473689Y-9647659D01*
X14424660Y-9667917D01*
X14400403Y-9692132D01*
X13799674Y-9692132D01*
X13775633Y-9668049D01*
X13726639Y-9647705D01*
X13673589Y-9647659D01*
X13624560Y-9667917D01*
X13587015Y-9705397D01*
X13566671Y-9754391D01*
X13566625Y-9807441D01*
X13586883Y-9856470D01*
X13624363Y-9894015D01*
X13673357Y-9914359D01*
X13726407Y-9914405D01*
X13775436Y-9894147D01*
X13799693Y-9869932D01*
X14400422Y-9869932D01*
X14424463Y-9894015D01*
X14473457Y-9914359D01*
X14526507Y-9914405D01*
X14575536Y-9894147D01*
X14599793Y-9869932D01*
X14965968Y-9869932D01*
X14999988Y-9863165D01*
X14999989Y-9863165D01*
X15028830Y-9843894D01*
X15091130Y-9781594D01*
X15169850Y-9781594D01*
X15194062Y-9776896D01*
X15215343Y-9762917D01*
X15229588Y-9741814D01*
X15234594Y-9716850D01*
X15234594Y-10117328D01*
X12846344Y-10117328D01*
X12846344Y-9302360D01*
X12846344Y-9129640D01*
X12841646Y-9105428D01*
X12827667Y-9084147D01*
X12806564Y-9069902D01*
X12797335Y-9068052D01*
X12815073Y-9052204D01*
X12840471Y-8999479D01*
X12840736Y-8997903D01*
X12828622Y-8974700D01*
X12692700Y-8974700D01*
X12692700Y-8976700D01*
X12667300Y-8976700D01*
X12667300Y-8974700D01*
X12531378Y-8974700D01*
X12519264Y-8997903D01*
X12519529Y-8999479D01*
X12544927Y-9052204D01*
X12562570Y-9067967D01*
X12554188Y-9069594D01*
X12532907Y-9083573D01*
X12518662Y-9104676D01*
X12513656Y-9129640D01*
X12513656Y-9302360D01*
X12518354Y-9326572D01*
X12532333Y-9347853D01*
X12553436Y-9362098D01*
X12578400Y-9367104D01*
X12781600Y-9367104D01*
X12805812Y-9362406D01*
X12827093Y-9348427D01*
X12841338Y-9327324D01*
X12846344Y-9302360D01*
X12846344Y-10117328D01*
X12482576Y-10117328D01*
X12482576Y-6725889D01*
X12522149Y-6765531D01*
X12637355Y-6813368D01*
X12762098Y-6813477D01*
X12877387Y-6765841D01*
X12965671Y-6677711D01*
X13013508Y-6562505D01*
X13013617Y-6437762D01*
X12965981Y-6322473D01*
X12926014Y-6282436D01*
X17317466Y-6282436D01*
X17317466Y-9674129D01*
M02*
