M48
METRIC,TZ
T1C0.610
T2C0.701
T3C0.813
T4C1.016
T5C3.200
%
G90
G05
T1
X155956Y-73152
X155956Y-80772
X155956Y-83566
X155956Y-91186
T2
X131400Y-82100
T3
X132189Y-65001
X133930Y-72300
X136470Y-72300
X137000Y-79190
X137000Y-86810
X137000Y-90190
X137000Y-97810
X139809Y-65001
X140000Y-68189
X140000Y-75809
X143002Y-82804
X143002Y-85344
X145001Y-65189
X145001Y-72809
X145001Y-90190
X145001Y-97810
X145542Y-82804
X149200Y-75730
X149200Y-78270
X151000Y-93930
X151000Y-96470
X160528Y-90424
X160528Y-92964
X160782Y-68326
X160782Y-70866
X163068Y-92964
X163322Y-68326
X164338Y-71120
X164338Y-78740
X164338Y-81280
X164338Y-88900
X167530Y-78600
X170070Y-78600
T4
X126800Y-71840
X126800Y-74380
X126800Y-76920
X126800Y-79460
X126800Y-82000
X126800Y-84540
X126800Y-87080
X126800Y-89620
X126800Y-92160
X149660Y-68500
X154740Y-68500
X169100Y-69730
X169100Y-72270
T5
X127000Y-64999
X171000Y-99002
T0
M30
