M48
METRIC,TZ
T1C0.762
T2C0.813
T3C0.889
T4C0.996
T5C1.001
T6C1.016
T7C3.200
%
G90
G05
T1
X156459Y-98001
X161539Y-98001
T2
X127000Y-76459
X127000Y-81539
X127000Y-85189
X127000Y-92809
X130459Y-98999
X130889Y-67310
X132588Y-91440
X132588Y-93980
X132890Y-65311
X135128Y-91440
X135539Y-98999
X135890Y-72311
X138890Y-65311
X139189Y-90000
X140891Y-67310
X143500Y-93000
X145501Y-100000
X146129Y-67310
X146809Y-90000
X148130Y-65311
X151130Y-72311
X153690Y-91999
X154130Y-65311
X155961Y-88999
X156131Y-67310
X156500Y-73459
X156500Y-78539
X157734Y-82042
X158750Y-70104
X160274Y-79502
X160274Y-82042
X161041Y-88999
X161290Y-67564
X161290Y-70104
X161310Y-91999
X164191Y-91001
X164191Y-94000
X165961Y-88001
X166100Y-66490
X166100Y-74110
X168999Y-64961
X168999Y-70041
X171041Y-88001
X171811Y-91001
X171811Y-94000
X172001Y-63690
X172001Y-71311
T3
X131001Y-75921
X131001Y-86081
T4
X134856Y-78189
X134856Y-85809
X142476Y-78189
X142476Y-85809
X147556Y-78189
X147556Y-85809
X152636Y-78189
X152636Y-85809
T5
X165400Y-79619
X165400Y-84620
X167899Y-82121
X170399Y-79619
X170399Y-84620
T6
X126810Y-96111
X126810Y-98651
X127000Y-70729
X127000Y-73269
T7
X127000Y-64999
X171000Y-99002
T0
M30
