G04 #@! TF.FileFunction,Soldermask,Top*
%FSLAX45Y45*%
G04 Gerber Fmt 4.5, Leading zero omitted, Abs format (unit mm)*
G04 Created by KiCad (PCBNEW (2015-08-03 BZR 6047)-product) date Di 04 Aug 2015 09:04:52 CEST*
%MOMM*%
G01*
G04 APERTURE LIST*
%ADD10C,0.150000*%
%ADD11R,2.540000X2.308000*%
%ADD12O,2.540000X2.540000*%
%ADD13C,5.509260*%
%ADD14C,2.032000*%
%ADD15C,1.905000*%
%ADD16C,1.930400*%
%ADD17C,2.306320*%
%ADD18R,2.032000X2.032000*%
%ADD19O,7.508240X2.506980*%
%ADD20O,2.506980X4.508500*%
%ADD21R,9.507220X2.032000*%
%ADD22R,6.604000X2.506980*%
%ADD23C,2.506980*%
%ADD24C,2.108200*%
%ADD25R,1.905000X1.905000*%
G04 APERTURE END LIST*
D10*
D11*
X12700000Y-7326884D03*
D12*
X12700000Y-7072884D03*
D11*
X12680950Y-9611106D03*
D12*
X12680950Y-9865106D03*
D13*
X17100042Y-9900158D03*
X12700000Y-6499860D03*
D14*
X14550136Y-9999980D03*
X14349984Y-9299956D03*
D15*
X15369032Y-9199880D03*
X16131032Y-9199880D03*
X14680946Y-8999982D03*
X13918946Y-8999982D03*
X16610000Y-7411000D03*
X16610000Y-6649000D03*
X16419068Y-9100058D03*
X17181068Y-9100058D03*
X16419068Y-9400032D03*
X17181068Y-9400032D03*
X17200118Y-6369050D03*
X17200118Y-7131050D03*
X12700000Y-9280906D03*
X12700000Y-8518906D03*
D16*
X15645892Y-9800082D03*
X16153892Y-9800082D03*
D17*
X15263622Y-7818882D03*
X14755622Y-7818882D03*
X14247622Y-7818882D03*
X15263622Y-8580882D03*
X14755622Y-8580882D03*
X14247622Y-8580882D03*
X13485622Y-7818882D03*
X13485622Y-8580882D03*
D18*
X13100050Y-7592060D03*
D14*
X13100050Y-8608060D03*
D15*
X15596108Y-8899906D03*
X16104108Y-8899906D03*
X15649956Y-7853934D03*
X15649956Y-7345934D03*
X16596106Y-8800084D03*
X17104106Y-8800084D03*
X16899890Y-6496050D03*
X16899890Y-7004050D03*
X12700000Y-8153908D03*
X12700000Y-7645908D03*
X13553948Y-9899904D03*
X13045948Y-9899904D03*
D19*
X15413228Y-6731000D03*
X14812772Y-6731000D03*
D20*
X15113000Y-7181088D03*
X14813026Y-6581140D03*
X15412974Y-6581140D03*
D19*
X13889228Y-6731000D03*
X13288772Y-6731000D03*
D20*
X13589000Y-7181088D03*
X13289026Y-6581140D03*
X13888974Y-6581140D03*
D21*
X16899926Y-7890516D03*
D10*
G36*
X17263781Y-8332349D02*
X17263781Y-8081651D01*
X17364619Y-8141595D01*
X17364619Y-8272405D01*
X17263781Y-8332349D01*
X17263781Y-8332349D01*
G37*
D21*
X16899926Y-8522976D03*
D22*
X16984000Y-8207000D03*
D23*
X16789944Y-8212080D03*
D24*
X17039880Y-8462016D03*
X17039880Y-7961890D03*
D23*
X16540008Y-7961890D03*
X16540008Y-8462016D03*
D25*
X13258800Y-9398000D03*
D15*
X13258800Y-9144000D03*
X13512800Y-9144000D03*
D25*
X16027400Y-7950200D03*
D15*
X16027400Y-8204200D03*
X15773400Y-8204200D03*
D25*
X16129000Y-6756400D03*
D15*
X16129000Y-7010400D03*
X15875000Y-7010400D03*
M02*
