G04 #@! TF.FileFunction,Copper,L1,Top,Signal*
%FSLAX45Y45*%
G04 Gerber Fmt 4.5, Leading zero omitted, Abs format (unit mm)*
G04 Created by KiCad (PCBNEW (2015-08-03 BZR 6047)-product) date Di 04 Aug 2015 09:04:52 CEST*
%MOMM*%
G01*
G04 APERTURE LIST*
%ADD10C,0.150000*%
%ADD11R,2.032000X1.800000*%
%ADD12O,2.032000X2.032000*%
%ADD13C,5.001260*%
%ADD14C,1.524000*%
%ADD15C,1.397000*%
%ADD16C,1.422400*%
%ADD17C,1.798320*%
%ADD18R,1.524000X1.524000*%
%ADD19O,7.000240X1.998980*%
%ADD20O,1.998980X4.000500*%
%ADD21R,8.999220X1.524000*%
%ADD22R,6.096000X1.998980*%
%ADD23C,1.998980*%
%ADD24C,1.600200*%
%ADD25R,1.397000X1.397000*%
%ADD26C,0.508000*%
%ADD27C,0.254000*%
G04 APERTURE END LIST*
D10*
D11*
X12700000Y-7326884D03*
D12*
X12700000Y-7072884D03*
D11*
X12680950Y-9611106D03*
D12*
X12680950Y-9865106D03*
D13*
X17100042Y-9900158D03*
X12700000Y-6499860D03*
D14*
X14550136Y-9999980D03*
X14349984Y-9299956D03*
D15*
X15369032Y-9199880D03*
X16131032Y-9199880D03*
X14680946Y-8999982D03*
X13918946Y-8999982D03*
X16610000Y-7411000D03*
X16610000Y-6649000D03*
X16419068Y-9100058D03*
X17181068Y-9100058D03*
X16419068Y-9400032D03*
X17181068Y-9400032D03*
X17200118Y-6369050D03*
X17200118Y-7131050D03*
X12700000Y-9280906D03*
X12700000Y-8518906D03*
D16*
X15645892Y-9800082D03*
X16153892Y-9800082D03*
D17*
X15263622Y-7818882D03*
X14755622Y-7818882D03*
X14247622Y-7818882D03*
X15263622Y-8580882D03*
X14755622Y-8580882D03*
X14247622Y-8580882D03*
X13485622Y-7818882D03*
X13485622Y-8580882D03*
D18*
X13100050Y-7592060D03*
D14*
X13100050Y-8608060D03*
D15*
X15596108Y-8899906D03*
X16104108Y-8899906D03*
X15649956Y-7853934D03*
X15649956Y-7345934D03*
X16596106Y-8800084D03*
X17104106Y-8800084D03*
X16899890Y-6496050D03*
X16899890Y-7004050D03*
X12700000Y-8153908D03*
X12700000Y-7645908D03*
X13553948Y-9899904D03*
X13045948Y-9899904D03*
D19*
X15413228Y-6731000D03*
X14812772Y-6731000D03*
D20*
X15113000Y-7181088D03*
X14813026Y-6581140D03*
X15412974Y-6581140D03*
D19*
X13889228Y-6731000D03*
X13288772Y-6731000D03*
D20*
X13589000Y-7181088D03*
X13289026Y-6581140D03*
X13888974Y-6581140D03*
D21*
X16899926Y-7890516D03*
D10*
G36*
X17289181Y-8306949D02*
X17289181Y-8107051D01*
X17339219Y-8166995D01*
X17339219Y-8247005D01*
X17289181Y-8306949D01*
X17289181Y-8306949D01*
G37*
D21*
X16899926Y-8522976D03*
D22*
X16984000Y-8207000D03*
D23*
X16789944Y-8212080D03*
D24*
X17039880Y-8462016D03*
X17039880Y-7961890D03*
D23*
X16540008Y-7961890D03*
X16540008Y-8462016D03*
D25*
X13258800Y-9398000D03*
D15*
X13258800Y-9144000D03*
X13512800Y-9144000D03*
D25*
X16027400Y-7950200D03*
D15*
X16027400Y-8204200D03*
X15773400Y-8204200D03*
D25*
X16129000Y-6756400D03*
D15*
X16129000Y-7010400D03*
X15875000Y-7010400D03*
D26*
X16899890Y-7004050D02*
X16899890Y-7479890D01*
X16440000Y-8200000D02*
X16977000Y-8200000D01*
X16310000Y-8070000D02*
X16440000Y-8200000D01*
X16310000Y-7750000D02*
X16310000Y-8070000D01*
X16420220Y-7639780D02*
X16310000Y-7750000D01*
X16740000Y-7639780D02*
X16420220Y-7639780D01*
X16899890Y-7479890D02*
X16740000Y-7639780D01*
X16977000Y-8200000D02*
X16984000Y-8207000D01*
D27*
G36*
X17317466Y-9674129D02*
X17315661Y-9672321D01*
X17315661Y-9419284D01*
X17315661Y-9119310D01*
X17312783Y-9066338D01*
X17298048Y-9030765D01*
X17274487Y-9024600D01*
X17256526Y-9042560D01*
X17256526Y-9006639D01*
X17250361Y-8983078D01*
X17238699Y-8978973D01*
X17238699Y-8819336D01*
X17235821Y-8766364D01*
X17221086Y-8730791D01*
X17197525Y-8724626D01*
X17179564Y-8742586D01*
X17179564Y-8706665D01*
X17173399Y-8683104D01*
X17123358Y-8665491D01*
X17070386Y-8668369D01*
X17034813Y-8683104D01*
X17028648Y-8706665D01*
X17104106Y-8782124D01*
X17179564Y-8706665D01*
X17179564Y-8742586D01*
X17122067Y-8800084D01*
X17197525Y-8875542D01*
X17221086Y-8869377D01*
X17238699Y-8819336D01*
X17238699Y-8978973D01*
X17200320Y-8965465D01*
X17179564Y-8966593D01*
X17179564Y-8893503D01*
X17104106Y-8818045D01*
X17086146Y-8836005D01*
X17086146Y-8800084D01*
X17010687Y-8724626D01*
X16987126Y-8730791D01*
X16969513Y-8780832D01*
X16972391Y-8833804D01*
X16987126Y-8869377D01*
X17010687Y-8875542D01*
X17086146Y-8800084D01*
X17086146Y-8836005D01*
X17028648Y-8893503D01*
X17034813Y-8917064D01*
X17084854Y-8934677D01*
X17137826Y-8931799D01*
X17173399Y-8917064D01*
X17179564Y-8893503D01*
X17179564Y-8966593D01*
X17147348Y-8968343D01*
X17111775Y-8983078D01*
X17105610Y-9006639D01*
X17181068Y-9082098D01*
X17256526Y-9006639D01*
X17256526Y-9042560D01*
X17199029Y-9100058D01*
X17274487Y-9175516D01*
X17298048Y-9169351D01*
X17315661Y-9119310D01*
X17315661Y-9419284D01*
X17312783Y-9366312D01*
X17298048Y-9330739D01*
X17274487Y-9324574D01*
X17256526Y-9342534D01*
X17256526Y-9306613D01*
X17256526Y-9193477D01*
X17181068Y-9118019D01*
X17163108Y-9135979D01*
X17163108Y-9100058D01*
X17087649Y-9024600D01*
X17064088Y-9030765D01*
X17046475Y-9080806D01*
X17049353Y-9133778D01*
X17064088Y-9169351D01*
X17087649Y-9175516D01*
X17163108Y-9100058D01*
X17163108Y-9135979D01*
X17105610Y-9193477D01*
X17111775Y-9217038D01*
X17161816Y-9234651D01*
X17214788Y-9231773D01*
X17250361Y-9217038D01*
X17256526Y-9193477D01*
X17256526Y-9306613D01*
X17250361Y-9283052D01*
X17200320Y-9265439D01*
X17147348Y-9268317D01*
X17111775Y-9283052D01*
X17105610Y-9306613D01*
X17181068Y-9382072D01*
X17256526Y-9306613D01*
X17256526Y-9342534D01*
X17199029Y-9400032D01*
X17274487Y-9475490D01*
X17298048Y-9469325D01*
X17315661Y-9419284D01*
X17315661Y-9672321D01*
X17277893Y-9634487D01*
X17256526Y-9625615D01*
X17256526Y-9493451D01*
X17181068Y-9417993D01*
X17163108Y-9435953D01*
X17163108Y-9400032D01*
X17087649Y-9324574D01*
X17064088Y-9330739D01*
X17046475Y-9380780D01*
X17049353Y-9433752D01*
X17064088Y-9469325D01*
X17087649Y-9475490D01*
X17163108Y-9400032D01*
X17163108Y-9435953D01*
X17105610Y-9493451D01*
X17111775Y-9517012D01*
X17161816Y-9534625D01*
X17214788Y-9531747D01*
X17250361Y-9517012D01*
X17256526Y-9493451D01*
X17256526Y-9625615D01*
X17162687Y-9586650D01*
X17037944Y-9586541D01*
X16922655Y-9634177D01*
X16834371Y-9722307D01*
X16786534Y-9837513D01*
X16786425Y-9962256D01*
X16834061Y-10077545D01*
X16873775Y-10117328D01*
X16729479Y-10117328D01*
X16729479Y-8773675D01*
X16709221Y-8724646D01*
X16671741Y-8687101D01*
X16622747Y-8666757D01*
X16569697Y-8666711D01*
X16520668Y-8686969D01*
X16483123Y-8724449D01*
X16462779Y-8773443D01*
X16462733Y-8826493D01*
X16482991Y-8875522D01*
X16520471Y-8913067D01*
X16569465Y-8933411D01*
X16622515Y-8933457D01*
X16671544Y-8913199D01*
X16709089Y-8875719D01*
X16729433Y-8826725D01*
X16729479Y-8773675D01*
X16729479Y-10117328D01*
X16552441Y-10117328D01*
X16552441Y-9373623D01*
X16552441Y-9073649D01*
X16532183Y-9024620D01*
X16494703Y-8987075D01*
X16445709Y-8966731D01*
X16392659Y-8966685D01*
X16343630Y-8986943D01*
X16306085Y-9024423D01*
X16285741Y-9073417D01*
X16285695Y-9126467D01*
X16305953Y-9175496D01*
X16343433Y-9213041D01*
X16392427Y-9233385D01*
X16445477Y-9233431D01*
X16494506Y-9213173D01*
X16532051Y-9175693D01*
X16552395Y-9126699D01*
X16552441Y-9073649D01*
X16552441Y-9373623D01*
X16532183Y-9324594D01*
X16494703Y-9287049D01*
X16445709Y-9266705D01*
X16392659Y-9266659D01*
X16343630Y-9286917D01*
X16306085Y-9324397D01*
X16285741Y-9373391D01*
X16285695Y-9426441D01*
X16305953Y-9475470D01*
X16343433Y-9513015D01*
X16392427Y-9533359D01*
X16445477Y-9533405D01*
X16494506Y-9513147D01*
X16532051Y-9475667D01*
X16552395Y-9426673D01*
X16552441Y-9373623D01*
X16552441Y-10117328D01*
X16288535Y-10117328D01*
X16288535Y-9773422D01*
X16268084Y-9723926D01*
X16264405Y-9720240D01*
X16264405Y-9173471D01*
X16244147Y-9124442D01*
X16237481Y-9117765D01*
X16237481Y-8873497D01*
X16217223Y-8824468D01*
X16179743Y-8786923D01*
X16161994Y-8779553D01*
X16161994Y-8020050D01*
X16161994Y-7880350D01*
X16157296Y-7856138D01*
X16143317Y-7834857D01*
X16122214Y-7820612D01*
X16097250Y-7815606D01*
X15957550Y-7815606D01*
X15933338Y-7820304D01*
X15912057Y-7834283D01*
X15897812Y-7855386D01*
X15892806Y-7880350D01*
X15892806Y-8020050D01*
X15897504Y-8044262D01*
X15911483Y-8065543D01*
X15932586Y-8079788D01*
X15957550Y-8084794D01*
X15967188Y-8084794D01*
X15951962Y-8091085D01*
X15914417Y-8128565D01*
X15900391Y-8162345D01*
X15886515Y-8128762D01*
X15849035Y-8091217D01*
X15800041Y-8070873D01*
X15784549Y-8070860D01*
X15784549Y-7365186D01*
X15781671Y-7312214D01*
X15766936Y-7276641D01*
X15743375Y-7270476D01*
X15725414Y-7288436D01*
X15725414Y-7252515D01*
X15719249Y-7228954D01*
X15669208Y-7211341D01*
X15616236Y-7214219D01*
X15580663Y-7228954D01*
X15574498Y-7252515D01*
X15649956Y-7327973D01*
X15725414Y-7252515D01*
X15725414Y-7288436D01*
X15667916Y-7345934D01*
X15743375Y-7421392D01*
X15766936Y-7415227D01*
X15784549Y-7365186D01*
X15784549Y-8070860D01*
X15783329Y-8070859D01*
X15783329Y-7827525D01*
X15763071Y-7778496D01*
X15725591Y-7740951D01*
X15725414Y-7740878D01*
X15725414Y-7439353D01*
X15649956Y-7363894D01*
X15631995Y-7381855D01*
X15631995Y-7345934D01*
X15556537Y-7270476D01*
X15532976Y-7276641D01*
X15515363Y-7326682D01*
X15518241Y-7379654D01*
X15532976Y-7415227D01*
X15556537Y-7421392D01*
X15631995Y-7345934D01*
X15631995Y-7381855D01*
X15574498Y-7439353D01*
X15580663Y-7462914D01*
X15630704Y-7480527D01*
X15683676Y-7477649D01*
X15719249Y-7462914D01*
X15725414Y-7439353D01*
X15725414Y-7740878D01*
X15676597Y-7720607D01*
X15623547Y-7720561D01*
X15574518Y-7740819D01*
X15536973Y-7778299D01*
X15516629Y-7827293D01*
X15516583Y-7880343D01*
X15536841Y-7929372D01*
X15574321Y-7966917D01*
X15623315Y-7987261D01*
X15676365Y-7987307D01*
X15725394Y-7967049D01*
X15762939Y-7929569D01*
X15783283Y-7880575D01*
X15783329Y-7827525D01*
X15783329Y-8070859D01*
X15746991Y-8070827D01*
X15697962Y-8091085D01*
X15660417Y-8128565D01*
X15640073Y-8177559D01*
X15640027Y-8230609D01*
X15660285Y-8279638D01*
X15697765Y-8317183D01*
X15746759Y-8337527D01*
X15799809Y-8337573D01*
X15848838Y-8317315D01*
X15886383Y-8279835D01*
X15900409Y-8246055D01*
X15914285Y-8279638D01*
X15951765Y-8317183D01*
X16000759Y-8337527D01*
X16053809Y-8337573D01*
X16102838Y-8317315D01*
X16140383Y-8279835D01*
X16160727Y-8230841D01*
X16160773Y-8177791D01*
X16140515Y-8128762D01*
X16103035Y-8091217D01*
X16087566Y-8084794D01*
X16097250Y-8084794D01*
X16121462Y-8080096D01*
X16142743Y-8066117D01*
X16156988Y-8045014D01*
X16161994Y-8020050D01*
X16161994Y-8779553D01*
X16130749Y-8766579D01*
X16077699Y-8766533D01*
X16028670Y-8786791D01*
X15991125Y-8824271D01*
X15970781Y-8873265D01*
X15970735Y-8926315D01*
X15990993Y-8975344D01*
X16028473Y-9012889D01*
X16077467Y-9033233D01*
X16130517Y-9033279D01*
X16179546Y-9013021D01*
X16217091Y-8975541D01*
X16237435Y-8926547D01*
X16237481Y-8873497D01*
X16237481Y-9117765D01*
X16206667Y-9086897D01*
X16157673Y-9066553D01*
X16104623Y-9066507D01*
X16055594Y-9086765D01*
X16018049Y-9124245D01*
X15997705Y-9173239D01*
X15997659Y-9226289D01*
X16017917Y-9275318D01*
X16055397Y-9312863D01*
X16104391Y-9333207D01*
X16157441Y-9333253D01*
X16206470Y-9312995D01*
X16244015Y-9275515D01*
X16264359Y-9226521D01*
X16264405Y-9173471D01*
X16264405Y-9720240D01*
X16230248Y-9686023D01*
X16180787Y-9665485D01*
X16127232Y-9665439D01*
X16077735Y-9685890D01*
X16039833Y-9723726D01*
X16019295Y-9773187D01*
X16019249Y-9826742D01*
X16039700Y-9876239D01*
X16077536Y-9914141D01*
X16126997Y-9934679D01*
X16180552Y-9934725D01*
X16230048Y-9914274D01*
X16267951Y-9876438D01*
X16288489Y-9826977D01*
X16288535Y-9773422D01*
X16288535Y-10117328D01*
X15780535Y-10117328D01*
X15780535Y-9773422D01*
X15760084Y-9723926D01*
X15729481Y-9693269D01*
X15729481Y-8873497D01*
X15709223Y-8824468D01*
X15671743Y-8786923D01*
X15622749Y-8766579D01*
X15569699Y-8766533D01*
X15520670Y-8786791D01*
X15483125Y-8824271D01*
X15462781Y-8873265D01*
X15462735Y-8926315D01*
X15482993Y-8975344D01*
X15520473Y-9012889D01*
X15569467Y-9033233D01*
X15622517Y-9033279D01*
X15671546Y-9013021D01*
X15709091Y-8975541D01*
X15729435Y-8926547D01*
X15729481Y-8873497D01*
X15729481Y-9693269D01*
X15722248Y-9686023D01*
X15672787Y-9665485D01*
X15619232Y-9665439D01*
X15569735Y-9685890D01*
X15531833Y-9723726D01*
X15511295Y-9773187D01*
X15511249Y-9826742D01*
X15531700Y-9876239D01*
X15569536Y-9914141D01*
X15618997Y-9934679D01*
X15672552Y-9934725D01*
X15722048Y-9914274D01*
X15759951Y-9876438D01*
X15780489Y-9826977D01*
X15780535Y-9773422D01*
X15780535Y-10117328D01*
X15502405Y-10117328D01*
X15502405Y-9173471D01*
X15482147Y-9124442D01*
X15444667Y-9086897D01*
X15417065Y-9075436D01*
X15417065Y-8550500D01*
X15417065Y-7788500D01*
X15400528Y-7748478D01*
X15400528Y-6894449D01*
X15400528Y-6743700D01*
X15400274Y-6743700D01*
X15400274Y-6718300D01*
X15400528Y-6718300D01*
X15400528Y-6567551D01*
X15400274Y-6567551D01*
X15400274Y-6334037D01*
X15374939Y-6322102D01*
X15362158Y-6325197D01*
X15306378Y-6356508D01*
X15266827Y-6406781D01*
X15249525Y-6468364D01*
X15249525Y-6567551D01*
X15150465Y-6567551D01*
X15113000Y-6578077D01*
X15075535Y-6567551D01*
X14976475Y-6567551D01*
X14976475Y-6468364D01*
X14959173Y-6406781D01*
X14919622Y-6356508D01*
X14863842Y-6325197D01*
X14851061Y-6322102D01*
X14825726Y-6334037D01*
X14825726Y-6567551D01*
X14825472Y-6567551D01*
X14825472Y-6718300D01*
X14825726Y-6718300D01*
X14825726Y-6743700D01*
X14825472Y-6743700D01*
X14825472Y-6894449D01*
X15075535Y-6894449D01*
X15113000Y-6883923D01*
X15150465Y-6894449D01*
X15400528Y-6894449D01*
X15400528Y-7748478D01*
X15393758Y-7732092D01*
X15350639Y-7688898D01*
X15294272Y-7665493D01*
X15276449Y-7665477D01*
X15276449Y-7286327D01*
X15276449Y-7075849D01*
X15264007Y-7013300D01*
X15228576Y-6960273D01*
X15175549Y-6924842D01*
X15113000Y-6912400D01*
X15050451Y-6924842D01*
X14997424Y-6960273D01*
X14961993Y-7013300D01*
X14949551Y-7075849D01*
X14949551Y-7286327D01*
X14961993Y-7348876D01*
X14997424Y-7401903D01*
X15050451Y-7437334D01*
X15113000Y-7449776D01*
X15175549Y-7437334D01*
X15228576Y-7401903D01*
X15264007Y-7348876D01*
X15276449Y-7286327D01*
X15276449Y-7665477D01*
X15233240Y-7665439D01*
X15176832Y-7688746D01*
X15133638Y-7731865D01*
X15110233Y-7788232D01*
X15110179Y-7849264D01*
X15133486Y-7905672D01*
X15176605Y-7948866D01*
X15232972Y-7972271D01*
X15294004Y-7972325D01*
X15350412Y-7949018D01*
X15393606Y-7905899D01*
X15417011Y-7849532D01*
X15417065Y-7788500D01*
X15417065Y-8550500D01*
X15393758Y-8494092D01*
X15350639Y-8450898D01*
X15294272Y-8427493D01*
X15233240Y-8427439D01*
X15176832Y-8450746D01*
X15133638Y-8493865D01*
X15110233Y-8550232D01*
X15110179Y-8611264D01*
X15133486Y-8667672D01*
X15176605Y-8710866D01*
X15232972Y-8734271D01*
X15294004Y-8734325D01*
X15350412Y-8711018D01*
X15393606Y-8667899D01*
X15417011Y-8611532D01*
X15417065Y-8550500D01*
X15417065Y-9075436D01*
X15395673Y-9066553D01*
X15342623Y-9066507D01*
X15293594Y-9086765D01*
X15256049Y-9124245D01*
X15235705Y-9173239D01*
X15235659Y-9226289D01*
X15255917Y-9275318D01*
X15293397Y-9312863D01*
X15342391Y-9333207D01*
X15395441Y-9333253D01*
X15444470Y-9312995D01*
X15482015Y-9275515D01*
X15502359Y-9226521D01*
X15502405Y-9173471D01*
X15502405Y-10117328D01*
X14909065Y-10117328D01*
X14909065Y-8550500D01*
X14909065Y-7788500D01*
X14885758Y-7732092D01*
X14842639Y-7688898D01*
X14800326Y-7671328D01*
X14800326Y-6828242D01*
X14800326Y-6593840D01*
X14800072Y-6593840D01*
X14800072Y-6568440D01*
X14800326Y-6568440D01*
X14800326Y-6334037D01*
X14774991Y-6322102D01*
X14762210Y-6325197D01*
X14706430Y-6356508D01*
X14666879Y-6406781D01*
X14649577Y-6468364D01*
X14649577Y-6567551D01*
X14550009Y-6567551D01*
X14488426Y-6584853D01*
X14438153Y-6624404D01*
X14406842Y-6680184D01*
X14403747Y-6692965D01*
X14415682Y-6718300D01*
X14656428Y-6718300D01*
X14663564Y-6743700D01*
X14415682Y-6743700D01*
X14403747Y-6769035D01*
X14406842Y-6781816D01*
X14438153Y-6837596D01*
X14488426Y-6877147D01*
X14550009Y-6894449D01*
X14800072Y-6894449D01*
X14800072Y-6828362D01*
X14800326Y-6828242D01*
X14800326Y-7671328D01*
X14786272Y-7665493D01*
X14725240Y-7665439D01*
X14668832Y-7688746D01*
X14625638Y-7731865D01*
X14602233Y-7788232D01*
X14602179Y-7849264D01*
X14625486Y-7905672D01*
X14668605Y-7948866D01*
X14724972Y-7972271D01*
X14786004Y-7972325D01*
X14842412Y-7949018D01*
X14885606Y-7905899D01*
X14909011Y-7849532D01*
X14909065Y-7788500D01*
X14909065Y-8550500D01*
X14885758Y-8494092D01*
X14842639Y-8450898D01*
X14786272Y-8427493D01*
X14725240Y-8427439D01*
X14668832Y-8450746D01*
X14625638Y-8493865D01*
X14602233Y-8550232D01*
X14602179Y-8611264D01*
X14625486Y-8667672D01*
X14668605Y-8710866D01*
X14724972Y-8734271D01*
X14786004Y-8734325D01*
X14842412Y-8711018D01*
X14885606Y-8667899D01*
X14909011Y-8611532D01*
X14909065Y-8550500D01*
X14909065Y-10117328D01*
X14814319Y-10117328D01*
X14814319Y-8973573D01*
X14794061Y-8924544D01*
X14756581Y-8886999D01*
X14707587Y-8866655D01*
X14654537Y-8866609D01*
X14605508Y-8886867D01*
X14567963Y-8924347D01*
X14547619Y-8973341D01*
X14547573Y-9026391D01*
X14567831Y-9075420D01*
X14605311Y-9112965D01*
X14654305Y-9133309D01*
X14707355Y-9133355D01*
X14756384Y-9113097D01*
X14793929Y-9075617D01*
X14814273Y-9026623D01*
X14814319Y-8973573D01*
X14814319Y-10117328D01*
X14630321Y-10117328D01*
X14668499Y-10079217D01*
X14689812Y-10027890D01*
X14689860Y-9972314D01*
X14668637Y-9920950D01*
X14629373Y-9881617D01*
X14578046Y-9860304D01*
X14522470Y-9860256D01*
X14489708Y-9873793D01*
X14489708Y-9272290D01*
X14468485Y-9220926D01*
X14429221Y-9181593D01*
X14401065Y-9169902D01*
X14401065Y-8550500D01*
X14401065Y-7788500D01*
X14377758Y-7732092D01*
X14334639Y-7688898D01*
X14298253Y-7673789D01*
X14298253Y-6769035D01*
X14286317Y-6743700D01*
X14038436Y-6743700D01*
X14045572Y-6718300D01*
X14286317Y-6718300D01*
X14298253Y-6692965D01*
X14295158Y-6680184D01*
X14263847Y-6624404D01*
X14213573Y-6584853D01*
X14151991Y-6567551D01*
X14052423Y-6567551D01*
X14052423Y-6468364D01*
X14035121Y-6406781D01*
X13995570Y-6356508D01*
X13939790Y-6325197D01*
X13927009Y-6322102D01*
X13901674Y-6334037D01*
X13901674Y-6568440D01*
X13901928Y-6568440D01*
X13901928Y-6593840D01*
X13901674Y-6593840D01*
X13901674Y-6828242D01*
X13901928Y-6828362D01*
X13901928Y-6894449D01*
X14151991Y-6894449D01*
X14213573Y-6877147D01*
X14263847Y-6837596D01*
X14295158Y-6781816D01*
X14298253Y-6769035D01*
X14298253Y-7673789D01*
X14278272Y-7665493D01*
X14217240Y-7665439D01*
X14160832Y-7688746D01*
X14117638Y-7731865D01*
X14094233Y-7788232D01*
X14094179Y-7849264D01*
X14117486Y-7905672D01*
X14160605Y-7948866D01*
X14216972Y-7972271D01*
X14278004Y-7972325D01*
X14334412Y-7949018D01*
X14377606Y-7905899D01*
X14401011Y-7849532D01*
X14401065Y-7788500D01*
X14401065Y-8550500D01*
X14377758Y-8494092D01*
X14334639Y-8450898D01*
X14278272Y-8427493D01*
X14217240Y-8427439D01*
X14160832Y-8450746D01*
X14117638Y-8493865D01*
X14094233Y-8550232D01*
X14094179Y-8611264D01*
X14117486Y-8667672D01*
X14160605Y-8710866D01*
X14216972Y-8734271D01*
X14278004Y-8734325D01*
X14334412Y-8711018D01*
X14377606Y-8667899D01*
X14401011Y-8611532D01*
X14401065Y-8550500D01*
X14401065Y-9169902D01*
X14377894Y-9160280D01*
X14322318Y-9160232D01*
X14270954Y-9181455D01*
X14231621Y-9220719D01*
X14210308Y-9272046D01*
X14210260Y-9327622D01*
X14231483Y-9378986D01*
X14270747Y-9418319D01*
X14322074Y-9439632D01*
X14377650Y-9439680D01*
X14429014Y-9418457D01*
X14468347Y-9379193D01*
X14489660Y-9327866D01*
X14489708Y-9272290D01*
X14489708Y-9873793D01*
X14471106Y-9881479D01*
X14431773Y-9920743D01*
X14410460Y-9972070D01*
X14410412Y-10027646D01*
X14431635Y-10079010D01*
X14469886Y-10117328D01*
X14052319Y-10117328D01*
X14052319Y-8973573D01*
X14032061Y-8924544D01*
X13994581Y-8886999D01*
X13945587Y-8866655D01*
X13892537Y-8866609D01*
X13876528Y-8873224D01*
X13876528Y-6894449D01*
X13876528Y-6743700D01*
X13876274Y-6743700D01*
X13876274Y-6718300D01*
X13876528Y-6718300D01*
X13876528Y-6567551D01*
X13876274Y-6567551D01*
X13876274Y-6334037D01*
X13850939Y-6322102D01*
X13838158Y-6325197D01*
X13782378Y-6356508D01*
X13742827Y-6406781D01*
X13725525Y-6468364D01*
X13725525Y-6567551D01*
X13626465Y-6567551D01*
X13589000Y-6578077D01*
X13551535Y-6567551D01*
X13452475Y-6567551D01*
X13452475Y-6468364D01*
X13435173Y-6406781D01*
X13395622Y-6356508D01*
X13339842Y-6325197D01*
X13327061Y-6322102D01*
X13301726Y-6334037D01*
X13301726Y-6567551D01*
X13301472Y-6567551D01*
X13301472Y-6718300D01*
X13301726Y-6718300D01*
X13301726Y-6743700D01*
X13301472Y-6743700D01*
X13301472Y-6894449D01*
X13551535Y-6894449D01*
X13589000Y-6883923D01*
X13626465Y-6894449D01*
X13876528Y-6894449D01*
X13876528Y-8873224D01*
X13843508Y-8886867D01*
X13805963Y-8924347D01*
X13785619Y-8973341D01*
X13785573Y-9026391D01*
X13805831Y-9075420D01*
X13843311Y-9112965D01*
X13892305Y-9133309D01*
X13945355Y-9133355D01*
X13994384Y-9113097D01*
X14031929Y-9075617D01*
X14052273Y-9026623D01*
X14052319Y-8973573D01*
X14052319Y-10117328D01*
X13752449Y-10117328D01*
X13752449Y-7286327D01*
X13752449Y-7075849D01*
X13740007Y-7013300D01*
X13704576Y-6960273D01*
X13651549Y-6924842D01*
X13589000Y-6912400D01*
X13526451Y-6924842D01*
X13473424Y-6960273D01*
X13437993Y-7013300D01*
X13425551Y-7075849D01*
X13425551Y-7286327D01*
X13437993Y-7348876D01*
X13473424Y-7401903D01*
X13526451Y-7437334D01*
X13589000Y-7449776D01*
X13651549Y-7437334D01*
X13704576Y-7401903D01*
X13740007Y-7348876D01*
X13752449Y-7286327D01*
X13752449Y-10117328D01*
X13687321Y-10117328D01*
X13687321Y-9873495D01*
X13667063Y-9824466D01*
X13646173Y-9803540D01*
X13646173Y-9117591D01*
X13639065Y-9100387D01*
X13639065Y-8550500D01*
X13639065Y-7788500D01*
X13615758Y-7732092D01*
X13572639Y-7688898D01*
X13516272Y-7665493D01*
X13455240Y-7665439D01*
X13398832Y-7688746D01*
X13355638Y-7731865D01*
X13332233Y-7788232D01*
X13332179Y-7849264D01*
X13355486Y-7905672D01*
X13398605Y-7948866D01*
X13454972Y-7972271D01*
X13516004Y-7972325D01*
X13572412Y-7949018D01*
X13615606Y-7905899D01*
X13639011Y-7849532D01*
X13639065Y-7788500D01*
X13639065Y-8550500D01*
X13615758Y-8494092D01*
X13572639Y-8450898D01*
X13516272Y-8427493D01*
X13455240Y-8427439D01*
X13398832Y-8450746D01*
X13355638Y-8493865D01*
X13332233Y-8550232D01*
X13332179Y-8611264D01*
X13355486Y-8667672D01*
X13398605Y-8710866D01*
X13454972Y-8734271D01*
X13516004Y-8734325D01*
X13572412Y-8711018D01*
X13615606Y-8667899D01*
X13639011Y-8611532D01*
X13639065Y-8550500D01*
X13639065Y-9100387D01*
X13625915Y-9068562D01*
X13588435Y-9031017D01*
X13539441Y-9010673D01*
X13486391Y-9010627D01*
X13437362Y-9030885D01*
X13399817Y-9068365D01*
X13385791Y-9102145D01*
X13371915Y-9068562D01*
X13334435Y-9031017D01*
X13285441Y-9010673D01*
X13240994Y-9010634D01*
X13240994Y-7668260D01*
X13240994Y-7515860D01*
X13236296Y-7491648D01*
X13222317Y-7470367D01*
X13201214Y-7456122D01*
X13176250Y-7451116D01*
X13023850Y-7451116D01*
X12999638Y-7455814D01*
X12978357Y-7469793D01*
X12964112Y-7490896D01*
X12959106Y-7515860D01*
X12959106Y-7668260D01*
X12963804Y-7692472D01*
X12977783Y-7713753D01*
X12998886Y-7727998D01*
X13023850Y-7733004D01*
X13176250Y-7733004D01*
X13200462Y-7728306D01*
X13221743Y-7714327D01*
X13235988Y-7693224D01*
X13240994Y-7668260D01*
X13240994Y-9010634D01*
X13239774Y-9010633D01*
X13239774Y-8580394D01*
X13218551Y-8529030D01*
X13179287Y-8489697D01*
X13127960Y-8468384D01*
X13072384Y-8468336D01*
X13021020Y-8489559D01*
X12981687Y-8528823D01*
X12960374Y-8580150D01*
X12960326Y-8635726D01*
X12981549Y-8687090D01*
X13020813Y-8726423D01*
X13072140Y-8747736D01*
X13127716Y-8747784D01*
X13179080Y-8726561D01*
X13218413Y-8687297D01*
X13239726Y-8635970D01*
X13239774Y-8580394D01*
X13239774Y-9010633D01*
X13232391Y-9010627D01*
X13183362Y-9030885D01*
X13145817Y-9068365D01*
X13125473Y-9117359D01*
X13125427Y-9170409D01*
X13145685Y-9219438D01*
X13183165Y-9256983D01*
X13201629Y-9264650D01*
X13176319Y-9264650D01*
X13152980Y-9274317D01*
X13135117Y-9292180D01*
X13125450Y-9315519D01*
X13125450Y-9340781D01*
X13125450Y-9369425D01*
X13141325Y-9385300D01*
X13246100Y-9385300D01*
X13246100Y-9383300D01*
X13271500Y-9383300D01*
X13271500Y-9385300D01*
X13376275Y-9385300D01*
X13392150Y-9369425D01*
X13392150Y-9340781D01*
X13392150Y-9315519D01*
X13382483Y-9292180D01*
X13364620Y-9274317D01*
X13341281Y-9264650D01*
X13316001Y-9264650D01*
X13334238Y-9257115D01*
X13371783Y-9219635D01*
X13385809Y-9185855D01*
X13399685Y-9219438D01*
X13437165Y-9256983D01*
X13486159Y-9277327D01*
X13539209Y-9277373D01*
X13588238Y-9257115D01*
X13625783Y-9219635D01*
X13646127Y-9170641D01*
X13646173Y-9117591D01*
X13646173Y-9803540D01*
X13629583Y-9786921D01*
X13580589Y-9766577D01*
X13527539Y-9766531D01*
X13478510Y-9786789D01*
X13440965Y-9824269D01*
X13420621Y-9873263D01*
X13420575Y-9926313D01*
X13440833Y-9975342D01*
X13478313Y-10012887D01*
X13527307Y-10033231D01*
X13580357Y-10033277D01*
X13629386Y-10013019D01*
X13666931Y-9975539D01*
X13687275Y-9926545D01*
X13687321Y-9873495D01*
X13687321Y-10117328D01*
X13392150Y-10117328D01*
X13392150Y-9480481D01*
X13392150Y-9455219D01*
X13392150Y-9426575D01*
X13376275Y-9410700D01*
X13271500Y-9410700D01*
X13271500Y-9515475D01*
X13287375Y-9531350D01*
X13341281Y-9531350D01*
X13364620Y-9521683D01*
X13382483Y-9503820D01*
X13392150Y-9480481D01*
X13392150Y-10117328D01*
X13246100Y-10117328D01*
X13246100Y-9515475D01*
X13246100Y-9410700D01*
X13141325Y-9410700D01*
X13125450Y-9426575D01*
X13125450Y-9455219D01*
X13125450Y-9480481D01*
X13135117Y-9503820D01*
X13152980Y-9521683D01*
X13176319Y-9531350D01*
X13230225Y-9531350D01*
X13246100Y-9515475D01*
X13246100Y-10117328D01*
X13180541Y-10117328D01*
X13180541Y-9919156D01*
X13177663Y-9866184D01*
X13162928Y-9830611D01*
X13139367Y-9824446D01*
X13121406Y-9842406D01*
X13121406Y-9806485D01*
X13115241Y-9782924D01*
X13065200Y-9765311D01*
X13012228Y-9768189D01*
X12976655Y-9782924D01*
X12970490Y-9806485D01*
X13045948Y-9881944D01*
X13121406Y-9806485D01*
X13121406Y-9842406D01*
X13063908Y-9899904D01*
X13139367Y-9975362D01*
X13162928Y-9969197D01*
X13180541Y-9919156D01*
X13180541Y-10117328D01*
X13121406Y-10117328D01*
X13121406Y-9993323D01*
X13045948Y-9917865D01*
X13027987Y-9935825D01*
X13027987Y-9899904D01*
X12952529Y-9824446D01*
X12928968Y-9830611D01*
X12911355Y-9880652D01*
X12914233Y-9933624D01*
X12928968Y-9969197D01*
X12952529Y-9975362D01*
X13027987Y-9899904D01*
X13027987Y-9935825D01*
X12970490Y-9993323D01*
X12976655Y-10016884D01*
X13026696Y-10034497D01*
X13079668Y-10031619D01*
X13115241Y-10016884D01*
X13121406Y-9993323D01*
X13121406Y-10117328D01*
X12866344Y-10117328D01*
X12866344Y-7416884D01*
X12866344Y-7236884D01*
X12861646Y-7212672D01*
X12847667Y-7191391D01*
X12826564Y-7177146D01*
X12825863Y-7177006D01*
X12833719Y-7169722D01*
X12860598Y-7111179D01*
X12860598Y-7034589D01*
X12833719Y-6976046D01*
X12786482Y-6932245D01*
X12738294Y-6912286D01*
X12712700Y-6924200D01*
X12712700Y-7060184D01*
X12848737Y-7060184D01*
X12860598Y-7034589D01*
X12860598Y-7111179D01*
X12848737Y-7085584D01*
X12712700Y-7085584D01*
X12712700Y-7087584D01*
X12687300Y-7087584D01*
X12687300Y-7085584D01*
X12687300Y-7060184D01*
X12687300Y-6924200D01*
X12661706Y-6912286D01*
X12613518Y-6932245D01*
X12566281Y-6976046D01*
X12539402Y-7034589D01*
X12551263Y-7060184D01*
X12687300Y-7060184D01*
X12687300Y-7085584D01*
X12551263Y-7085584D01*
X12539402Y-7111179D01*
X12566281Y-7169722D01*
X12574052Y-7176927D01*
X12552907Y-7190817D01*
X12538662Y-7211920D01*
X12533656Y-7236884D01*
X12533656Y-7416884D01*
X12538354Y-7441096D01*
X12552333Y-7462377D01*
X12573436Y-7476622D01*
X12598400Y-7481628D01*
X12801600Y-7481628D01*
X12825812Y-7476930D01*
X12847093Y-7462951D01*
X12861338Y-7441848D01*
X12866344Y-7416884D01*
X12866344Y-10117328D01*
X12847294Y-10117328D01*
X12847294Y-9701106D01*
X12847294Y-9521106D01*
X12842596Y-9496894D01*
X12834593Y-9484710D01*
X12834593Y-8173160D01*
X12833373Y-8150711D01*
X12833373Y-7619499D01*
X12813115Y-7570470D01*
X12775635Y-7532925D01*
X12726641Y-7512581D01*
X12673591Y-7512535D01*
X12624562Y-7532793D01*
X12587017Y-7570273D01*
X12566673Y-7619267D01*
X12566627Y-7672317D01*
X12586885Y-7721346D01*
X12624365Y-7758891D01*
X12673359Y-7779235D01*
X12726409Y-7779281D01*
X12775438Y-7759023D01*
X12812983Y-7721543D01*
X12833327Y-7672549D01*
X12833373Y-7619499D01*
X12833373Y-8150711D01*
X12831715Y-8120188D01*
X12816980Y-8084615D01*
X12793419Y-8078450D01*
X12775458Y-8096410D01*
X12775458Y-8060489D01*
X12769293Y-8036928D01*
X12719252Y-8019315D01*
X12666280Y-8022193D01*
X12630707Y-8036928D01*
X12624542Y-8060489D01*
X12700000Y-8135947D01*
X12775458Y-8060489D01*
X12775458Y-8096410D01*
X12717960Y-8153908D01*
X12793419Y-8229366D01*
X12816980Y-8223201D01*
X12834593Y-8173160D01*
X12834593Y-9484710D01*
X12833373Y-9482853D01*
X12833373Y-9254497D01*
X12833373Y-8492497D01*
X12813115Y-8443468D01*
X12775635Y-8405923D01*
X12775458Y-8405850D01*
X12775458Y-8247327D01*
X12700000Y-8171868D01*
X12682039Y-8189829D01*
X12682039Y-8153908D01*
X12606581Y-8078450D01*
X12583020Y-8084615D01*
X12565407Y-8134656D01*
X12568285Y-8187628D01*
X12583020Y-8223201D01*
X12606581Y-8229366D01*
X12682039Y-8153908D01*
X12682039Y-8189829D01*
X12624542Y-8247327D01*
X12630707Y-8270888D01*
X12680748Y-8288501D01*
X12733720Y-8285623D01*
X12769293Y-8270888D01*
X12775458Y-8247327D01*
X12775458Y-8405850D01*
X12726641Y-8385579D01*
X12673591Y-8385533D01*
X12624562Y-8405791D01*
X12587017Y-8443271D01*
X12566673Y-8492265D01*
X12566627Y-8545315D01*
X12586885Y-8594344D01*
X12624365Y-8631889D01*
X12673359Y-8652233D01*
X12726409Y-8652279D01*
X12775438Y-8632021D01*
X12812983Y-8594541D01*
X12833327Y-8545547D01*
X12833373Y-8492497D01*
X12833373Y-9254497D01*
X12813115Y-9205468D01*
X12775635Y-9167923D01*
X12726641Y-9147579D01*
X12673591Y-9147533D01*
X12624562Y-9167791D01*
X12587017Y-9205271D01*
X12566673Y-9254265D01*
X12566627Y-9307315D01*
X12586885Y-9356344D01*
X12624365Y-9393889D01*
X12673359Y-9414233D01*
X12726409Y-9414279D01*
X12775438Y-9394021D01*
X12812983Y-9356541D01*
X12833327Y-9307547D01*
X12833373Y-9254497D01*
X12833373Y-9482853D01*
X12828617Y-9475613D01*
X12807514Y-9461368D01*
X12782550Y-9456362D01*
X12579350Y-9456362D01*
X12555138Y-9461060D01*
X12533857Y-9475039D01*
X12519612Y-9496142D01*
X12514606Y-9521106D01*
X12514606Y-9701106D01*
X12519304Y-9725318D01*
X12533283Y-9746599D01*
X12554386Y-9760844D01*
X12555086Y-9760984D01*
X12547231Y-9768268D01*
X12520352Y-9826811D01*
X12532213Y-9852406D01*
X12668250Y-9852406D01*
X12668250Y-9850406D01*
X12693650Y-9850406D01*
X12693650Y-9852406D01*
X12829687Y-9852406D01*
X12841548Y-9826811D01*
X12814669Y-9768268D01*
X12806898Y-9761063D01*
X12828043Y-9747173D01*
X12842288Y-9726070D01*
X12847294Y-9701106D01*
X12847294Y-10117328D01*
X12841548Y-10117328D01*
X12841548Y-9903401D01*
X12829687Y-9877806D01*
X12693650Y-9877806D01*
X12693650Y-10013790D01*
X12719244Y-10025704D01*
X12767432Y-10005745D01*
X12814669Y-9961944D01*
X12841548Y-9903401D01*
X12841548Y-10117328D01*
X12668250Y-10117328D01*
X12668250Y-10013790D01*
X12668250Y-9877806D01*
X12532213Y-9877806D01*
X12520352Y-9903401D01*
X12547231Y-9961944D01*
X12594468Y-10005745D01*
X12642656Y-10025704D01*
X12668250Y-10013790D01*
X12668250Y-10117328D01*
X12482576Y-10117328D01*
X12482576Y-6725889D01*
X12522149Y-6765531D01*
X12637355Y-6813368D01*
X12762098Y-6813477D01*
X12877387Y-6765841D01*
X12884683Y-6758557D01*
X12879747Y-6769035D01*
X12882842Y-6781816D01*
X12914153Y-6837596D01*
X12964426Y-6877147D01*
X13026009Y-6894449D01*
X13276072Y-6894449D01*
X13276072Y-6828362D01*
X13276326Y-6828242D01*
X13276326Y-6593840D01*
X13276072Y-6593840D01*
X13276072Y-6568440D01*
X13276326Y-6568440D01*
X13276326Y-6334037D01*
X13250991Y-6322102D01*
X13238210Y-6325197D01*
X13182430Y-6356508D01*
X13142879Y-6406781D01*
X13125577Y-6468364D01*
X13125577Y-6567551D01*
X13026009Y-6567551D01*
X13009486Y-6572193D01*
X13013508Y-6562505D01*
X13013617Y-6437762D01*
X12965981Y-6322473D01*
X12926014Y-6282436D01*
X17098133Y-6282436D01*
X17087135Y-6293415D01*
X17066791Y-6342409D01*
X17066745Y-6395459D01*
X17087003Y-6444488D01*
X17124483Y-6482033D01*
X17173477Y-6502377D01*
X17226527Y-6502423D01*
X17275556Y-6482165D01*
X17313101Y-6444685D01*
X17317466Y-6434172D01*
X17317466Y-7062645D01*
X17317098Y-7061757D01*
X17293537Y-7055592D01*
X17275576Y-7073552D01*
X17275576Y-7037631D01*
X17269411Y-7014070D01*
X17219370Y-6996457D01*
X17166398Y-6999335D01*
X17130825Y-7014070D01*
X17124660Y-7037631D01*
X17200118Y-7113089D01*
X17275576Y-7037631D01*
X17275576Y-7073552D01*
X17218079Y-7131050D01*
X17293537Y-7206508D01*
X17317098Y-7200343D01*
X17317466Y-7199297D01*
X17317466Y-7750816D01*
X17275576Y-7750816D01*
X17275576Y-7224469D01*
X17200118Y-7149010D01*
X17182158Y-7166971D01*
X17182158Y-7131050D01*
X17106699Y-7055592D01*
X17083138Y-7061757D01*
X17065525Y-7111798D01*
X17068403Y-7164770D01*
X17083138Y-7200343D01*
X17106699Y-7206508D01*
X17182158Y-7131050D01*
X17182158Y-7166971D01*
X17124660Y-7224469D01*
X17130825Y-7248030D01*
X17180866Y-7265643D01*
X17233838Y-7262765D01*
X17269411Y-7248030D01*
X17275576Y-7224469D01*
X17275576Y-7750816D01*
X16928501Y-7750816D01*
X16912626Y-7766691D01*
X16912626Y-7877816D01*
X16914626Y-7877816D01*
X16914626Y-7886441D01*
X16914485Y-7886483D01*
X16907752Y-7905216D01*
X16887226Y-7905216D01*
X16887226Y-7903216D01*
X16885226Y-7903216D01*
X16885226Y-7877816D01*
X16887226Y-7877816D01*
X16887226Y-7766691D01*
X16871351Y-7750816D01*
X16437334Y-7750816D01*
X16433192Y-7752532D01*
X16457044Y-7728680D01*
X16740000Y-7728680D01*
X16774020Y-7721913D01*
X16774021Y-7721913D01*
X16802862Y-7702642D01*
X16962752Y-7542752D01*
X16982023Y-7513911D01*
X16982023Y-7513910D01*
X16988790Y-7479890D01*
X16988790Y-7103726D01*
X17012873Y-7079685D01*
X17033217Y-7030691D01*
X17033263Y-6977641D01*
X17033263Y-6469641D01*
X17013005Y-6420612D01*
X16975525Y-6383067D01*
X16926531Y-6362723D01*
X16873481Y-6362677D01*
X16824452Y-6382935D01*
X16786907Y-6420415D01*
X16766563Y-6469409D01*
X16766517Y-6522459D01*
X16786775Y-6571488D01*
X16824255Y-6609033D01*
X16873249Y-6629377D01*
X16926299Y-6629423D01*
X16975328Y-6609165D01*
X17012873Y-6571685D01*
X17033217Y-6522691D01*
X17033263Y-6469641D01*
X17033263Y-6977641D01*
X17013005Y-6928612D01*
X16975525Y-6891067D01*
X16926531Y-6870723D01*
X16873481Y-6870677D01*
X16824452Y-6890935D01*
X16786907Y-6928415D01*
X16766563Y-6977409D01*
X16766517Y-7030459D01*
X16786775Y-7079488D01*
X16810990Y-7103745D01*
X16810990Y-7443066D01*
X16743373Y-7510683D01*
X16743373Y-7384591D01*
X16743373Y-6622591D01*
X16723115Y-6573562D01*
X16685635Y-6536017D01*
X16636641Y-6515673D01*
X16583591Y-6515627D01*
X16534562Y-6535885D01*
X16497017Y-6573365D01*
X16476673Y-6622359D01*
X16476627Y-6675409D01*
X16496885Y-6724438D01*
X16534365Y-6761983D01*
X16583359Y-6782327D01*
X16636409Y-6782373D01*
X16685438Y-6762115D01*
X16722983Y-6724635D01*
X16743327Y-6675641D01*
X16743373Y-6622591D01*
X16743373Y-7384591D01*
X16723115Y-7335562D01*
X16685635Y-7298017D01*
X16636641Y-7277673D01*
X16583591Y-7277627D01*
X16534562Y-7297885D01*
X16497017Y-7335365D01*
X16476673Y-7384359D01*
X16476627Y-7437409D01*
X16496885Y-7486438D01*
X16534365Y-7523983D01*
X16583359Y-7544327D01*
X16636409Y-7544373D01*
X16685438Y-7524115D01*
X16722983Y-7486635D01*
X16743327Y-7437641D01*
X16743373Y-7384591D01*
X16743373Y-7510683D01*
X16703176Y-7550880D01*
X16420220Y-7550880D01*
X16386199Y-7557647D01*
X16357358Y-7576918D01*
X16263594Y-7670682D01*
X16263594Y-6826250D01*
X16263594Y-6686550D01*
X16258896Y-6662338D01*
X16244917Y-6641057D01*
X16223814Y-6626812D01*
X16198850Y-6621806D01*
X16059150Y-6621806D01*
X16034938Y-6626504D01*
X16013657Y-6640483D01*
X15999412Y-6661586D01*
X15994406Y-6686550D01*
X15994406Y-6826250D01*
X15999104Y-6850462D01*
X16013083Y-6871743D01*
X16034186Y-6885988D01*
X16059150Y-6890994D01*
X16068788Y-6890994D01*
X16053562Y-6897285D01*
X16016017Y-6934765D01*
X16001991Y-6968545D01*
X15988115Y-6934962D01*
X15950635Y-6897417D01*
X15901641Y-6877073D01*
X15848591Y-6877027D01*
X15822253Y-6887910D01*
X15822253Y-6769035D01*
X15810317Y-6743700D01*
X15562436Y-6743700D01*
X15569572Y-6718300D01*
X15810317Y-6718300D01*
X15822253Y-6692965D01*
X15819158Y-6680184D01*
X15787847Y-6624404D01*
X15737573Y-6584853D01*
X15675991Y-6567551D01*
X15576423Y-6567551D01*
X15576423Y-6468364D01*
X15559121Y-6406781D01*
X15519570Y-6356508D01*
X15463790Y-6325197D01*
X15451009Y-6322102D01*
X15425674Y-6334037D01*
X15425674Y-6568440D01*
X15425928Y-6568440D01*
X15425928Y-6593840D01*
X15425674Y-6593840D01*
X15425674Y-6828242D01*
X15425928Y-6828362D01*
X15425928Y-6894449D01*
X15675991Y-6894449D01*
X15737573Y-6877147D01*
X15787847Y-6837596D01*
X15819158Y-6781816D01*
X15822253Y-6769035D01*
X15822253Y-6887910D01*
X15799562Y-6897285D01*
X15762017Y-6934765D01*
X15741673Y-6983759D01*
X15741627Y-7036809D01*
X15761885Y-7085838D01*
X15799365Y-7123383D01*
X15848359Y-7143727D01*
X15901409Y-7143773D01*
X15950438Y-7123515D01*
X15987983Y-7086035D01*
X16002009Y-7052255D01*
X16015885Y-7085838D01*
X16053365Y-7123383D01*
X16102359Y-7143727D01*
X16155409Y-7143773D01*
X16204438Y-7123515D01*
X16241983Y-7086035D01*
X16262327Y-7037041D01*
X16262373Y-6983991D01*
X16242115Y-6934962D01*
X16204635Y-6897417D01*
X16189166Y-6890994D01*
X16198850Y-6890994D01*
X16223062Y-6886296D01*
X16244343Y-6872317D01*
X16258588Y-6851214D01*
X16263594Y-6826250D01*
X16263594Y-7670682D01*
X16247138Y-7687138D01*
X16227867Y-7715979D01*
X16221100Y-7750000D01*
X16221100Y-8070000D01*
X16227867Y-8104021D01*
X16247138Y-8132862D01*
X16377138Y-8262862D01*
X16405979Y-8282133D01*
X16405979Y-8282133D01*
X16440000Y-8288900D01*
X16584009Y-8288900D01*
X16584320Y-8304114D01*
X16566450Y-8297476D01*
X16501470Y-8299882D01*
X16452612Y-8320119D01*
X16442752Y-8346800D01*
X16479228Y-8383276D01*
X16443307Y-8383276D01*
X16424792Y-8364760D01*
X16398111Y-8374620D01*
X16375468Y-8435574D01*
X16377874Y-8500554D01*
X16395327Y-8542689D01*
X16386465Y-8551551D01*
X16386465Y-8586545D01*
X16386465Y-8611807D01*
X16396132Y-8635146D01*
X16413995Y-8653009D01*
X16437334Y-8662676D01*
X16871351Y-8662676D01*
X16887226Y-8646801D01*
X16887226Y-8535676D01*
X16687007Y-8535676D01*
X16696443Y-8510276D01*
X16887226Y-8510276D01*
X16887226Y-8508276D01*
X16902412Y-8508276D01*
X16913762Y-8535676D01*
X16912626Y-8535676D01*
X16912626Y-8646801D01*
X16928501Y-8662676D01*
X17317466Y-8662676D01*
X17317466Y-9674129D01*
X17317466Y-9674129D01*
G37*
X17317466Y-9674129D02*
X17315661Y-9672321D01*
X17315661Y-9419284D01*
X17315661Y-9119310D01*
X17312783Y-9066338D01*
X17298048Y-9030765D01*
X17274487Y-9024600D01*
X17256526Y-9042560D01*
X17256526Y-9006639D01*
X17250361Y-8983078D01*
X17238699Y-8978973D01*
X17238699Y-8819336D01*
X17235821Y-8766364D01*
X17221086Y-8730791D01*
X17197525Y-8724626D01*
X17179564Y-8742586D01*
X17179564Y-8706665D01*
X17173399Y-8683104D01*
X17123358Y-8665491D01*
X17070386Y-8668369D01*
X17034813Y-8683104D01*
X17028648Y-8706665D01*
X17104106Y-8782124D01*
X17179564Y-8706665D01*
X17179564Y-8742586D01*
X17122067Y-8800084D01*
X17197525Y-8875542D01*
X17221086Y-8869377D01*
X17238699Y-8819336D01*
X17238699Y-8978973D01*
X17200320Y-8965465D01*
X17179564Y-8966593D01*
X17179564Y-8893503D01*
X17104106Y-8818045D01*
X17086146Y-8836005D01*
X17086146Y-8800084D01*
X17010687Y-8724626D01*
X16987126Y-8730791D01*
X16969513Y-8780832D01*
X16972391Y-8833804D01*
X16987126Y-8869377D01*
X17010687Y-8875542D01*
X17086146Y-8800084D01*
X17086146Y-8836005D01*
X17028648Y-8893503D01*
X17034813Y-8917064D01*
X17084854Y-8934677D01*
X17137826Y-8931799D01*
X17173399Y-8917064D01*
X17179564Y-8893503D01*
X17179564Y-8966593D01*
X17147348Y-8968343D01*
X17111775Y-8983078D01*
X17105610Y-9006639D01*
X17181068Y-9082098D01*
X17256526Y-9006639D01*
X17256526Y-9042560D01*
X17199029Y-9100058D01*
X17274487Y-9175516D01*
X17298048Y-9169351D01*
X17315661Y-9119310D01*
X17315661Y-9419284D01*
X17312783Y-9366312D01*
X17298048Y-9330739D01*
X17274487Y-9324574D01*
X17256526Y-9342534D01*
X17256526Y-9306613D01*
X17256526Y-9193477D01*
X17181068Y-9118019D01*
X17163108Y-9135979D01*
X17163108Y-9100058D01*
X17087649Y-9024600D01*
X17064088Y-9030765D01*
X17046475Y-9080806D01*
X17049353Y-9133778D01*
X17064088Y-9169351D01*
X17087649Y-9175516D01*
X17163108Y-9100058D01*
X17163108Y-9135979D01*
X17105610Y-9193477D01*
X17111775Y-9217038D01*
X17161816Y-9234651D01*
X17214788Y-9231773D01*
X17250361Y-9217038D01*
X17256526Y-9193477D01*
X17256526Y-9306613D01*
X17250361Y-9283052D01*
X17200320Y-9265439D01*
X17147348Y-9268317D01*
X17111775Y-9283052D01*
X17105610Y-9306613D01*
X17181068Y-9382072D01*
X17256526Y-9306613D01*
X17256526Y-9342534D01*
X17199029Y-9400032D01*
X17274487Y-9475490D01*
X17298048Y-9469325D01*
X17315661Y-9419284D01*
X17315661Y-9672321D01*
X17277893Y-9634487D01*
X17256526Y-9625615D01*
X17256526Y-9493451D01*
X17181068Y-9417993D01*
X17163108Y-9435953D01*
X17163108Y-9400032D01*
X17087649Y-9324574D01*
X17064088Y-9330739D01*
X17046475Y-9380780D01*
X17049353Y-9433752D01*
X17064088Y-9469325D01*
X17087649Y-9475490D01*
X17163108Y-9400032D01*
X17163108Y-9435953D01*
X17105610Y-9493451D01*
X17111775Y-9517012D01*
X17161816Y-9534625D01*
X17214788Y-9531747D01*
X17250361Y-9517012D01*
X17256526Y-9493451D01*
X17256526Y-9625615D01*
X17162687Y-9586650D01*
X17037944Y-9586541D01*
X16922655Y-9634177D01*
X16834371Y-9722307D01*
X16786534Y-9837513D01*
X16786425Y-9962256D01*
X16834061Y-10077545D01*
X16873775Y-10117328D01*
X16729479Y-10117328D01*
X16729479Y-8773675D01*
X16709221Y-8724646D01*
X16671741Y-8687101D01*
X16622747Y-8666757D01*
X16569697Y-8666711D01*
X16520668Y-8686969D01*
X16483123Y-8724449D01*
X16462779Y-8773443D01*
X16462733Y-8826493D01*
X16482991Y-8875522D01*
X16520471Y-8913067D01*
X16569465Y-8933411D01*
X16622515Y-8933457D01*
X16671544Y-8913199D01*
X16709089Y-8875719D01*
X16729433Y-8826725D01*
X16729479Y-8773675D01*
X16729479Y-10117328D01*
X16552441Y-10117328D01*
X16552441Y-9373623D01*
X16552441Y-9073649D01*
X16532183Y-9024620D01*
X16494703Y-8987075D01*
X16445709Y-8966731D01*
X16392659Y-8966685D01*
X16343630Y-8986943D01*
X16306085Y-9024423D01*
X16285741Y-9073417D01*
X16285695Y-9126467D01*
X16305953Y-9175496D01*
X16343433Y-9213041D01*
X16392427Y-9233385D01*
X16445477Y-9233431D01*
X16494506Y-9213173D01*
X16532051Y-9175693D01*
X16552395Y-9126699D01*
X16552441Y-9073649D01*
X16552441Y-9373623D01*
X16532183Y-9324594D01*
X16494703Y-9287049D01*
X16445709Y-9266705D01*
X16392659Y-9266659D01*
X16343630Y-9286917D01*
X16306085Y-9324397D01*
X16285741Y-9373391D01*
X16285695Y-9426441D01*
X16305953Y-9475470D01*
X16343433Y-9513015D01*
X16392427Y-9533359D01*
X16445477Y-9533405D01*
X16494506Y-9513147D01*
X16532051Y-9475667D01*
X16552395Y-9426673D01*
X16552441Y-9373623D01*
X16552441Y-10117328D01*
X16288535Y-10117328D01*
X16288535Y-9773422D01*
X16268084Y-9723926D01*
X16264405Y-9720240D01*
X16264405Y-9173471D01*
X16244147Y-9124442D01*
X16237481Y-9117765D01*
X16237481Y-8873497D01*
X16217223Y-8824468D01*
X16179743Y-8786923D01*
X16161994Y-8779553D01*
X16161994Y-8020050D01*
X16161994Y-7880350D01*
X16157296Y-7856138D01*
X16143317Y-7834857D01*
X16122214Y-7820612D01*
X16097250Y-7815606D01*
X15957550Y-7815606D01*
X15933338Y-7820304D01*
X15912057Y-7834283D01*
X15897812Y-7855386D01*
X15892806Y-7880350D01*
X15892806Y-8020050D01*
X15897504Y-8044262D01*
X15911483Y-8065543D01*
X15932586Y-8079788D01*
X15957550Y-8084794D01*
X15967188Y-8084794D01*
X15951962Y-8091085D01*
X15914417Y-8128565D01*
X15900391Y-8162345D01*
X15886515Y-8128762D01*
X15849035Y-8091217D01*
X15800041Y-8070873D01*
X15784549Y-8070860D01*
X15784549Y-7365186D01*
X15781671Y-7312214D01*
X15766936Y-7276641D01*
X15743375Y-7270476D01*
X15725414Y-7288436D01*
X15725414Y-7252515D01*
X15719249Y-7228954D01*
X15669208Y-7211341D01*
X15616236Y-7214219D01*
X15580663Y-7228954D01*
X15574498Y-7252515D01*
X15649956Y-7327973D01*
X15725414Y-7252515D01*
X15725414Y-7288436D01*
X15667916Y-7345934D01*
X15743375Y-7421392D01*
X15766936Y-7415227D01*
X15784549Y-7365186D01*
X15784549Y-8070860D01*
X15783329Y-8070859D01*
X15783329Y-7827525D01*
X15763071Y-7778496D01*
X15725591Y-7740951D01*
X15725414Y-7740878D01*
X15725414Y-7439353D01*
X15649956Y-7363894D01*
X15631995Y-7381855D01*
X15631995Y-7345934D01*
X15556537Y-7270476D01*
X15532976Y-7276641D01*
X15515363Y-7326682D01*
X15518241Y-7379654D01*
X15532976Y-7415227D01*
X15556537Y-7421392D01*
X15631995Y-7345934D01*
X15631995Y-7381855D01*
X15574498Y-7439353D01*
X15580663Y-7462914D01*
X15630704Y-7480527D01*
X15683676Y-7477649D01*
X15719249Y-7462914D01*
X15725414Y-7439353D01*
X15725414Y-7740878D01*
X15676597Y-7720607D01*
X15623547Y-7720561D01*
X15574518Y-7740819D01*
X15536973Y-7778299D01*
X15516629Y-7827293D01*
X15516583Y-7880343D01*
X15536841Y-7929372D01*
X15574321Y-7966917D01*
X15623315Y-7987261D01*
X15676365Y-7987307D01*
X15725394Y-7967049D01*
X15762939Y-7929569D01*
X15783283Y-7880575D01*
X15783329Y-7827525D01*
X15783329Y-8070859D01*
X15746991Y-8070827D01*
X15697962Y-8091085D01*
X15660417Y-8128565D01*
X15640073Y-8177559D01*
X15640027Y-8230609D01*
X15660285Y-8279638D01*
X15697765Y-8317183D01*
X15746759Y-8337527D01*
X15799809Y-8337573D01*
X15848838Y-8317315D01*
X15886383Y-8279835D01*
X15900409Y-8246055D01*
X15914285Y-8279638D01*
X15951765Y-8317183D01*
X16000759Y-8337527D01*
X16053809Y-8337573D01*
X16102838Y-8317315D01*
X16140383Y-8279835D01*
X16160727Y-8230841D01*
X16160773Y-8177791D01*
X16140515Y-8128762D01*
X16103035Y-8091217D01*
X16087566Y-8084794D01*
X16097250Y-8084794D01*
X16121462Y-8080096D01*
X16142743Y-8066117D01*
X16156988Y-8045014D01*
X16161994Y-8020050D01*
X16161994Y-8779553D01*
X16130749Y-8766579D01*
X16077699Y-8766533D01*
X16028670Y-8786791D01*
X15991125Y-8824271D01*
X15970781Y-8873265D01*
X15970735Y-8926315D01*
X15990993Y-8975344D01*
X16028473Y-9012889D01*
X16077467Y-9033233D01*
X16130517Y-9033279D01*
X16179546Y-9013021D01*
X16217091Y-8975541D01*
X16237435Y-8926547D01*
X16237481Y-8873497D01*
X16237481Y-9117765D01*
X16206667Y-9086897D01*
X16157673Y-9066553D01*
X16104623Y-9066507D01*
X16055594Y-9086765D01*
X16018049Y-9124245D01*
X15997705Y-9173239D01*
X15997659Y-9226289D01*
X16017917Y-9275318D01*
X16055397Y-9312863D01*
X16104391Y-9333207D01*
X16157441Y-9333253D01*
X16206470Y-9312995D01*
X16244015Y-9275515D01*
X16264359Y-9226521D01*
X16264405Y-9173471D01*
X16264405Y-9720240D01*
X16230248Y-9686023D01*
X16180787Y-9665485D01*
X16127232Y-9665439D01*
X16077735Y-9685890D01*
X16039833Y-9723726D01*
X16019295Y-9773187D01*
X16019249Y-9826742D01*
X16039700Y-9876239D01*
X16077536Y-9914141D01*
X16126997Y-9934679D01*
X16180552Y-9934725D01*
X16230048Y-9914274D01*
X16267951Y-9876438D01*
X16288489Y-9826977D01*
X16288535Y-9773422D01*
X16288535Y-10117328D01*
X15780535Y-10117328D01*
X15780535Y-9773422D01*
X15760084Y-9723926D01*
X15729481Y-9693269D01*
X15729481Y-8873497D01*
X15709223Y-8824468D01*
X15671743Y-8786923D01*
X15622749Y-8766579D01*
X15569699Y-8766533D01*
X15520670Y-8786791D01*
X15483125Y-8824271D01*
X15462781Y-8873265D01*
X15462735Y-8926315D01*
X15482993Y-8975344D01*
X15520473Y-9012889D01*
X15569467Y-9033233D01*
X15622517Y-9033279D01*
X15671546Y-9013021D01*
X15709091Y-8975541D01*
X15729435Y-8926547D01*
X15729481Y-8873497D01*
X15729481Y-9693269D01*
X15722248Y-9686023D01*
X15672787Y-9665485D01*
X15619232Y-9665439D01*
X15569735Y-9685890D01*
X15531833Y-9723726D01*
X15511295Y-9773187D01*
X15511249Y-9826742D01*
X15531700Y-9876239D01*
X15569536Y-9914141D01*
X15618997Y-9934679D01*
X15672552Y-9934725D01*
X15722048Y-9914274D01*
X15759951Y-9876438D01*
X15780489Y-9826977D01*
X15780535Y-9773422D01*
X15780535Y-10117328D01*
X15502405Y-10117328D01*
X15502405Y-9173471D01*
X15482147Y-9124442D01*
X15444667Y-9086897D01*
X15417065Y-9075436D01*
X15417065Y-8550500D01*
X15417065Y-7788500D01*
X15400528Y-7748478D01*
X15400528Y-6894449D01*
X15400528Y-6743700D01*
X15400274Y-6743700D01*
X15400274Y-6718300D01*
X15400528Y-6718300D01*
X15400528Y-6567551D01*
X15400274Y-6567551D01*
X15400274Y-6334037D01*
X15374939Y-6322102D01*
X15362158Y-6325197D01*
X15306378Y-6356508D01*
X15266827Y-6406781D01*
X15249525Y-6468364D01*
X15249525Y-6567551D01*
X15150465Y-6567551D01*
X15113000Y-6578077D01*
X15075535Y-6567551D01*
X14976475Y-6567551D01*
X14976475Y-6468364D01*
X14959173Y-6406781D01*
X14919622Y-6356508D01*
X14863842Y-6325197D01*
X14851061Y-6322102D01*
X14825726Y-6334037D01*
X14825726Y-6567551D01*
X14825472Y-6567551D01*
X14825472Y-6718300D01*
X14825726Y-6718300D01*
X14825726Y-6743700D01*
X14825472Y-6743700D01*
X14825472Y-6894449D01*
X15075535Y-6894449D01*
X15113000Y-6883923D01*
X15150465Y-6894449D01*
X15400528Y-6894449D01*
X15400528Y-7748478D01*
X15393758Y-7732092D01*
X15350639Y-7688898D01*
X15294272Y-7665493D01*
X15276449Y-7665477D01*
X15276449Y-7286327D01*
X15276449Y-7075849D01*
X15264007Y-7013300D01*
X15228576Y-6960273D01*
X15175549Y-6924842D01*
X15113000Y-6912400D01*
X15050451Y-6924842D01*
X14997424Y-6960273D01*
X14961993Y-7013300D01*
X14949551Y-7075849D01*
X14949551Y-7286327D01*
X14961993Y-7348876D01*
X14997424Y-7401903D01*
X15050451Y-7437334D01*
X15113000Y-7449776D01*
X15175549Y-7437334D01*
X15228576Y-7401903D01*
X15264007Y-7348876D01*
X15276449Y-7286327D01*
X15276449Y-7665477D01*
X15233240Y-7665439D01*
X15176832Y-7688746D01*
X15133638Y-7731865D01*
X15110233Y-7788232D01*
X15110179Y-7849264D01*
X15133486Y-7905672D01*
X15176605Y-7948866D01*
X15232972Y-7972271D01*
X15294004Y-7972325D01*
X15350412Y-7949018D01*
X15393606Y-7905899D01*
X15417011Y-7849532D01*
X15417065Y-7788500D01*
X15417065Y-8550500D01*
X15393758Y-8494092D01*
X15350639Y-8450898D01*
X15294272Y-8427493D01*
X15233240Y-8427439D01*
X15176832Y-8450746D01*
X15133638Y-8493865D01*
X15110233Y-8550232D01*
X15110179Y-8611264D01*
X15133486Y-8667672D01*
X15176605Y-8710866D01*
X15232972Y-8734271D01*
X15294004Y-8734325D01*
X15350412Y-8711018D01*
X15393606Y-8667899D01*
X15417011Y-8611532D01*
X15417065Y-8550500D01*
X15417065Y-9075436D01*
X15395673Y-9066553D01*
X15342623Y-9066507D01*
X15293594Y-9086765D01*
X15256049Y-9124245D01*
X15235705Y-9173239D01*
X15235659Y-9226289D01*
X15255917Y-9275318D01*
X15293397Y-9312863D01*
X15342391Y-9333207D01*
X15395441Y-9333253D01*
X15444470Y-9312995D01*
X15482015Y-9275515D01*
X15502359Y-9226521D01*
X15502405Y-9173471D01*
X15502405Y-10117328D01*
X14909065Y-10117328D01*
X14909065Y-8550500D01*
X14909065Y-7788500D01*
X14885758Y-7732092D01*
X14842639Y-7688898D01*
X14800326Y-7671328D01*
X14800326Y-6828242D01*
X14800326Y-6593840D01*
X14800072Y-6593840D01*
X14800072Y-6568440D01*
X14800326Y-6568440D01*
X14800326Y-6334037D01*
X14774991Y-6322102D01*
X14762210Y-6325197D01*
X14706430Y-6356508D01*
X14666879Y-6406781D01*
X14649577Y-6468364D01*
X14649577Y-6567551D01*
X14550009Y-6567551D01*
X14488426Y-6584853D01*
X14438153Y-6624404D01*
X14406842Y-6680184D01*
X14403747Y-6692965D01*
X14415682Y-6718300D01*
X14656428Y-6718300D01*
X14663564Y-6743700D01*
X14415682Y-6743700D01*
X14403747Y-6769035D01*
X14406842Y-6781816D01*
X14438153Y-6837596D01*
X14488426Y-6877147D01*
X14550009Y-6894449D01*
X14800072Y-6894449D01*
X14800072Y-6828362D01*
X14800326Y-6828242D01*
X14800326Y-7671328D01*
X14786272Y-7665493D01*
X14725240Y-7665439D01*
X14668832Y-7688746D01*
X14625638Y-7731865D01*
X14602233Y-7788232D01*
X14602179Y-7849264D01*
X14625486Y-7905672D01*
X14668605Y-7948866D01*
X14724972Y-7972271D01*
X14786004Y-7972325D01*
X14842412Y-7949018D01*
X14885606Y-7905899D01*
X14909011Y-7849532D01*
X14909065Y-7788500D01*
X14909065Y-8550500D01*
X14885758Y-8494092D01*
X14842639Y-8450898D01*
X14786272Y-8427493D01*
X14725240Y-8427439D01*
X14668832Y-8450746D01*
X14625638Y-8493865D01*
X14602233Y-8550232D01*
X14602179Y-8611264D01*
X14625486Y-8667672D01*
X14668605Y-8710866D01*
X14724972Y-8734271D01*
X14786004Y-8734325D01*
X14842412Y-8711018D01*
X14885606Y-8667899D01*
X14909011Y-8611532D01*
X14909065Y-8550500D01*
X14909065Y-10117328D01*
X14814319Y-10117328D01*
X14814319Y-8973573D01*
X14794061Y-8924544D01*
X14756581Y-8886999D01*
X14707587Y-8866655D01*
X14654537Y-8866609D01*
X14605508Y-8886867D01*
X14567963Y-8924347D01*
X14547619Y-8973341D01*
X14547573Y-9026391D01*
X14567831Y-9075420D01*
X14605311Y-9112965D01*
X14654305Y-9133309D01*
X14707355Y-9133355D01*
X14756384Y-9113097D01*
X14793929Y-9075617D01*
X14814273Y-9026623D01*
X14814319Y-8973573D01*
X14814319Y-10117328D01*
X14630321Y-10117328D01*
X14668499Y-10079217D01*
X14689812Y-10027890D01*
X14689860Y-9972314D01*
X14668637Y-9920950D01*
X14629373Y-9881617D01*
X14578046Y-9860304D01*
X14522470Y-9860256D01*
X14489708Y-9873793D01*
X14489708Y-9272290D01*
X14468485Y-9220926D01*
X14429221Y-9181593D01*
X14401065Y-9169902D01*
X14401065Y-8550500D01*
X14401065Y-7788500D01*
X14377758Y-7732092D01*
X14334639Y-7688898D01*
X14298253Y-7673789D01*
X14298253Y-6769035D01*
X14286317Y-6743700D01*
X14038436Y-6743700D01*
X14045572Y-6718300D01*
X14286317Y-6718300D01*
X14298253Y-6692965D01*
X14295158Y-6680184D01*
X14263847Y-6624404D01*
X14213573Y-6584853D01*
X14151991Y-6567551D01*
X14052423Y-6567551D01*
X14052423Y-6468364D01*
X14035121Y-6406781D01*
X13995570Y-6356508D01*
X13939790Y-6325197D01*
X13927009Y-6322102D01*
X13901674Y-6334037D01*
X13901674Y-6568440D01*
X13901928Y-6568440D01*
X13901928Y-6593840D01*
X13901674Y-6593840D01*
X13901674Y-6828242D01*
X13901928Y-6828362D01*
X13901928Y-6894449D01*
X14151991Y-6894449D01*
X14213573Y-6877147D01*
X14263847Y-6837596D01*
X14295158Y-6781816D01*
X14298253Y-6769035D01*
X14298253Y-7673789D01*
X14278272Y-7665493D01*
X14217240Y-7665439D01*
X14160832Y-7688746D01*
X14117638Y-7731865D01*
X14094233Y-7788232D01*
X14094179Y-7849264D01*
X14117486Y-7905672D01*
X14160605Y-7948866D01*
X14216972Y-7972271D01*
X14278004Y-7972325D01*
X14334412Y-7949018D01*
X14377606Y-7905899D01*
X14401011Y-7849532D01*
X14401065Y-7788500D01*
X14401065Y-8550500D01*
X14377758Y-8494092D01*
X14334639Y-8450898D01*
X14278272Y-8427493D01*
X14217240Y-8427439D01*
X14160832Y-8450746D01*
X14117638Y-8493865D01*
X14094233Y-8550232D01*
X14094179Y-8611264D01*
X14117486Y-8667672D01*
X14160605Y-8710866D01*
X14216972Y-8734271D01*
X14278004Y-8734325D01*
X14334412Y-8711018D01*
X14377606Y-8667899D01*
X14401011Y-8611532D01*
X14401065Y-8550500D01*
X14401065Y-9169902D01*
X14377894Y-9160280D01*
X14322318Y-9160232D01*
X14270954Y-9181455D01*
X14231621Y-9220719D01*
X14210308Y-9272046D01*
X14210260Y-9327622D01*
X14231483Y-9378986D01*
X14270747Y-9418319D01*
X14322074Y-9439632D01*
X14377650Y-9439680D01*
X14429014Y-9418457D01*
X14468347Y-9379193D01*
X14489660Y-9327866D01*
X14489708Y-9272290D01*
X14489708Y-9873793D01*
X14471106Y-9881479D01*
X14431773Y-9920743D01*
X14410460Y-9972070D01*
X14410412Y-10027646D01*
X14431635Y-10079010D01*
X14469886Y-10117328D01*
X14052319Y-10117328D01*
X14052319Y-8973573D01*
X14032061Y-8924544D01*
X13994581Y-8886999D01*
X13945587Y-8866655D01*
X13892537Y-8866609D01*
X13876528Y-8873224D01*
X13876528Y-6894449D01*
X13876528Y-6743700D01*
X13876274Y-6743700D01*
X13876274Y-6718300D01*
X13876528Y-6718300D01*
X13876528Y-6567551D01*
X13876274Y-6567551D01*
X13876274Y-6334037D01*
X13850939Y-6322102D01*
X13838158Y-6325197D01*
X13782378Y-6356508D01*
X13742827Y-6406781D01*
X13725525Y-6468364D01*
X13725525Y-6567551D01*
X13626465Y-6567551D01*
X13589000Y-6578077D01*
X13551535Y-6567551D01*
X13452475Y-6567551D01*
X13452475Y-6468364D01*
X13435173Y-6406781D01*
X13395622Y-6356508D01*
X13339842Y-6325197D01*
X13327061Y-6322102D01*
X13301726Y-6334037D01*
X13301726Y-6567551D01*
X13301472Y-6567551D01*
X13301472Y-6718300D01*
X13301726Y-6718300D01*
X13301726Y-6743700D01*
X13301472Y-6743700D01*
X13301472Y-6894449D01*
X13551535Y-6894449D01*
X13589000Y-6883923D01*
X13626465Y-6894449D01*
X13876528Y-6894449D01*
X13876528Y-8873224D01*
X13843508Y-8886867D01*
X13805963Y-8924347D01*
X13785619Y-8973341D01*
X13785573Y-9026391D01*
X13805831Y-9075420D01*
X13843311Y-9112965D01*
X13892305Y-9133309D01*
X13945355Y-9133355D01*
X13994384Y-9113097D01*
X14031929Y-9075617D01*
X14052273Y-9026623D01*
X14052319Y-8973573D01*
X14052319Y-10117328D01*
X13752449Y-10117328D01*
X13752449Y-7286327D01*
X13752449Y-7075849D01*
X13740007Y-7013300D01*
X13704576Y-6960273D01*
X13651549Y-6924842D01*
X13589000Y-6912400D01*
X13526451Y-6924842D01*
X13473424Y-6960273D01*
X13437993Y-7013300D01*
X13425551Y-7075849D01*
X13425551Y-7286327D01*
X13437993Y-7348876D01*
X13473424Y-7401903D01*
X13526451Y-7437334D01*
X13589000Y-7449776D01*
X13651549Y-7437334D01*
X13704576Y-7401903D01*
X13740007Y-7348876D01*
X13752449Y-7286327D01*
X13752449Y-10117328D01*
X13687321Y-10117328D01*
X13687321Y-9873495D01*
X13667063Y-9824466D01*
X13646173Y-9803540D01*
X13646173Y-9117591D01*
X13639065Y-9100387D01*
X13639065Y-8550500D01*
X13639065Y-7788500D01*
X13615758Y-7732092D01*
X13572639Y-7688898D01*
X13516272Y-7665493D01*
X13455240Y-7665439D01*
X13398832Y-7688746D01*
X13355638Y-7731865D01*
X13332233Y-7788232D01*
X13332179Y-7849264D01*
X13355486Y-7905672D01*
X13398605Y-7948866D01*
X13454972Y-7972271D01*
X13516004Y-7972325D01*
X13572412Y-7949018D01*
X13615606Y-7905899D01*
X13639011Y-7849532D01*
X13639065Y-7788500D01*
X13639065Y-8550500D01*
X13615758Y-8494092D01*
X13572639Y-8450898D01*
X13516272Y-8427493D01*
X13455240Y-8427439D01*
X13398832Y-8450746D01*
X13355638Y-8493865D01*
X13332233Y-8550232D01*
X13332179Y-8611264D01*
X13355486Y-8667672D01*
X13398605Y-8710866D01*
X13454972Y-8734271D01*
X13516004Y-8734325D01*
X13572412Y-8711018D01*
X13615606Y-8667899D01*
X13639011Y-8611532D01*
X13639065Y-8550500D01*
X13639065Y-9100387D01*
X13625915Y-9068562D01*
X13588435Y-9031017D01*
X13539441Y-9010673D01*
X13486391Y-9010627D01*
X13437362Y-9030885D01*
X13399817Y-9068365D01*
X13385791Y-9102145D01*
X13371915Y-9068562D01*
X13334435Y-9031017D01*
X13285441Y-9010673D01*
X13240994Y-9010634D01*
X13240994Y-7668260D01*
X13240994Y-7515860D01*
X13236296Y-7491648D01*
X13222317Y-7470367D01*
X13201214Y-7456122D01*
X13176250Y-7451116D01*
X13023850Y-7451116D01*
X12999638Y-7455814D01*
X12978357Y-7469793D01*
X12964112Y-7490896D01*
X12959106Y-7515860D01*
X12959106Y-7668260D01*
X12963804Y-7692472D01*
X12977783Y-7713753D01*
X12998886Y-7727998D01*
X13023850Y-7733004D01*
X13176250Y-7733004D01*
X13200462Y-7728306D01*
X13221743Y-7714327D01*
X13235988Y-7693224D01*
X13240994Y-7668260D01*
X13240994Y-9010634D01*
X13239774Y-9010633D01*
X13239774Y-8580394D01*
X13218551Y-8529030D01*
X13179287Y-8489697D01*
X13127960Y-8468384D01*
X13072384Y-8468336D01*
X13021020Y-8489559D01*
X12981687Y-8528823D01*
X12960374Y-8580150D01*
X12960326Y-8635726D01*
X12981549Y-8687090D01*
X13020813Y-8726423D01*
X13072140Y-8747736D01*
X13127716Y-8747784D01*
X13179080Y-8726561D01*
X13218413Y-8687297D01*
X13239726Y-8635970D01*
X13239774Y-8580394D01*
X13239774Y-9010633D01*
X13232391Y-9010627D01*
X13183362Y-9030885D01*
X13145817Y-9068365D01*
X13125473Y-9117359D01*
X13125427Y-9170409D01*
X13145685Y-9219438D01*
X13183165Y-9256983D01*
X13201629Y-9264650D01*
X13176319Y-9264650D01*
X13152980Y-9274317D01*
X13135117Y-9292180D01*
X13125450Y-9315519D01*
X13125450Y-9340781D01*
X13125450Y-9369425D01*
X13141325Y-9385300D01*
X13246100Y-9385300D01*
X13246100Y-9383300D01*
X13271500Y-9383300D01*
X13271500Y-9385300D01*
X13376275Y-9385300D01*
X13392150Y-9369425D01*
X13392150Y-9340781D01*
X13392150Y-9315519D01*
X13382483Y-9292180D01*
X13364620Y-9274317D01*
X13341281Y-9264650D01*
X13316001Y-9264650D01*
X13334238Y-9257115D01*
X13371783Y-9219635D01*
X13385809Y-9185855D01*
X13399685Y-9219438D01*
X13437165Y-9256983D01*
X13486159Y-9277327D01*
X13539209Y-9277373D01*
X13588238Y-9257115D01*
X13625783Y-9219635D01*
X13646127Y-9170641D01*
X13646173Y-9117591D01*
X13646173Y-9803540D01*
X13629583Y-9786921D01*
X13580589Y-9766577D01*
X13527539Y-9766531D01*
X13478510Y-9786789D01*
X13440965Y-9824269D01*
X13420621Y-9873263D01*
X13420575Y-9926313D01*
X13440833Y-9975342D01*
X13478313Y-10012887D01*
X13527307Y-10033231D01*
X13580357Y-10033277D01*
X13629386Y-10013019D01*
X13666931Y-9975539D01*
X13687275Y-9926545D01*
X13687321Y-9873495D01*
X13687321Y-10117328D01*
X13392150Y-10117328D01*
X13392150Y-9480481D01*
X13392150Y-9455219D01*
X13392150Y-9426575D01*
X13376275Y-9410700D01*
X13271500Y-9410700D01*
X13271500Y-9515475D01*
X13287375Y-9531350D01*
X13341281Y-9531350D01*
X13364620Y-9521683D01*
X13382483Y-9503820D01*
X13392150Y-9480481D01*
X13392150Y-10117328D01*
X13246100Y-10117328D01*
X13246100Y-9515475D01*
X13246100Y-9410700D01*
X13141325Y-9410700D01*
X13125450Y-9426575D01*
X13125450Y-9455219D01*
X13125450Y-9480481D01*
X13135117Y-9503820D01*
X13152980Y-9521683D01*
X13176319Y-9531350D01*
X13230225Y-9531350D01*
X13246100Y-9515475D01*
X13246100Y-10117328D01*
X13180541Y-10117328D01*
X13180541Y-9919156D01*
X13177663Y-9866184D01*
X13162928Y-9830611D01*
X13139367Y-9824446D01*
X13121406Y-9842406D01*
X13121406Y-9806485D01*
X13115241Y-9782924D01*
X13065200Y-9765311D01*
X13012228Y-9768189D01*
X12976655Y-9782924D01*
X12970490Y-9806485D01*
X13045948Y-9881944D01*
X13121406Y-9806485D01*
X13121406Y-9842406D01*
X13063908Y-9899904D01*
X13139367Y-9975362D01*
X13162928Y-9969197D01*
X13180541Y-9919156D01*
X13180541Y-10117328D01*
X13121406Y-10117328D01*
X13121406Y-9993323D01*
X13045948Y-9917865D01*
X13027987Y-9935825D01*
X13027987Y-9899904D01*
X12952529Y-9824446D01*
X12928968Y-9830611D01*
X12911355Y-9880652D01*
X12914233Y-9933624D01*
X12928968Y-9969197D01*
X12952529Y-9975362D01*
X13027987Y-9899904D01*
X13027987Y-9935825D01*
X12970490Y-9993323D01*
X12976655Y-10016884D01*
X13026696Y-10034497D01*
X13079668Y-10031619D01*
X13115241Y-10016884D01*
X13121406Y-9993323D01*
X13121406Y-10117328D01*
X12866344Y-10117328D01*
X12866344Y-7416884D01*
X12866344Y-7236884D01*
X12861646Y-7212672D01*
X12847667Y-7191391D01*
X12826564Y-7177146D01*
X12825863Y-7177006D01*
X12833719Y-7169722D01*
X12860598Y-7111179D01*
X12860598Y-7034589D01*
X12833719Y-6976046D01*
X12786482Y-6932245D01*
X12738294Y-6912286D01*
X12712700Y-6924200D01*
X12712700Y-7060184D01*
X12848737Y-7060184D01*
X12860598Y-7034589D01*
X12860598Y-7111179D01*
X12848737Y-7085584D01*
X12712700Y-7085584D01*
X12712700Y-7087584D01*
X12687300Y-7087584D01*
X12687300Y-7085584D01*
X12687300Y-7060184D01*
X12687300Y-6924200D01*
X12661706Y-6912286D01*
X12613518Y-6932245D01*
X12566281Y-6976046D01*
X12539402Y-7034589D01*
X12551263Y-7060184D01*
X12687300Y-7060184D01*
X12687300Y-7085584D01*
X12551263Y-7085584D01*
X12539402Y-7111179D01*
X12566281Y-7169722D01*
X12574052Y-7176927D01*
X12552907Y-7190817D01*
X12538662Y-7211920D01*
X12533656Y-7236884D01*
X12533656Y-7416884D01*
X12538354Y-7441096D01*
X12552333Y-7462377D01*
X12573436Y-7476622D01*
X12598400Y-7481628D01*
X12801600Y-7481628D01*
X12825812Y-7476930D01*
X12847093Y-7462951D01*
X12861338Y-7441848D01*
X12866344Y-7416884D01*
X12866344Y-10117328D01*
X12847294Y-10117328D01*
X12847294Y-9701106D01*
X12847294Y-9521106D01*
X12842596Y-9496894D01*
X12834593Y-9484710D01*
X12834593Y-8173160D01*
X12833373Y-8150711D01*
X12833373Y-7619499D01*
X12813115Y-7570470D01*
X12775635Y-7532925D01*
X12726641Y-7512581D01*
X12673591Y-7512535D01*
X12624562Y-7532793D01*
X12587017Y-7570273D01*
X12566673Y-7619267D01*
X12566627Y-7672317D01*
X12586885Y-7721346D01*
X12624365Y-7758891D01*
X12673359Y-7779235D01*
X12726409Y-7779281D01*
X12775438Y-7759023D01*
X12812983Y-7721543D01*
X12833327Y-7672549D01*
X12833373Y-7619499D01*
X12833373Y-8150711D01*
X12831715Y-8120188D01*
X12816980Y-8084615D01*
X12793419Y-8078450D01*
X12775458Y-8096410D01*
X12775458Y-8060489D01*
X12769293Y-8036928D01*
X12719252Y-8019315D01*
X12666280Y-8022193D01*
X12630707Y-8036928D01*
X12624542Y-8060489D01*
X12700000Y-8135947D01*
X12775458Y-8060489D01*
X12775458Y-8096410D01*
X12717960Y-8153908D01*
X12793419Y-8229366D01*
X12816980Y-8223201D01*
X12834593Y-8173160D01*
X12834593Y-9484710D01*
X12833373Y-9482853D01*
X12833373Y-9254497D01*
X12833373Y-8492497D01*
X12813115Y-8443468D01*
X12775635Y-8405923D01*
X12775458Y-8405850D01*
X12775458Y-8247327D01*
X12700000Y-8171868D01*
X12682039Y-8189829D01*
X12682039Y-8153908D01*
X12606581Y-8078450D01*
X12583020Y-8084615D01*
X12565407Y-8134656D01*
X12568285Y-8187628D01*
X12583020Y-8223201D01*
X12606581Y-8229366D01*
X12682039Y-8153908D01*
X12682039Y-8189829D01*
X12624542Y-8247327D01*
X12630707Y-8270888D01*
X12680748Y-8288501D01*
X12733720Y-8285623D01*
X12769293Y-8270888D01*
X12775458Y-8247327D01*
X12775458Y-8405850D01*
X12726641Y-8385579D01*
X12673591Y-8385533D01*
X12624562Y-8405791D01*
X12587017Y-8443271D01*
X12566673Y-8492265D01*
X12566627Y-8545315D01*
X12586885Y-8594344D01*
X12624365Y-8631889D01*
X12673359Y-8652233D01*
X12726409Y-8652279D01*
X12775438Y-8632021D01*
X12812983Y-8594541D01*
X12833327Y-8545547D01*
X12833373Y-8492497D01*
X12833373Y-9254497D01*
X12813115Y-9205468D01*
X12775635Y-9167923D01*
X12726641Y-9147579D01*
X12673591Y-9147533D01*
X12624562Y-9167791D01*
X12587017Y-9205271D01*
X12566673Y-9254265D01*
X12566627Y-9307315D01*
X12586885Y-9356344D01*
X12624365Y-9393889D01*
X12673359Y-9414233D01*
X12726409Y-9414279D01*
X12775438Y-9394021D01*
X12812983Y-9356541D01*
X12833327Y-9307547D01*
X12833373Y-9254497D01*
X12833373Y-9482853D01*
X12828617Y-9475613D01*
X12807514Y-9461368D01*
X12782550Y-9456362D01*
X12579350Y-9456362D01*
X12555138Y-9461060D01*
X12533857Y-9475039D01*
X12519612Y-9496142D01*
X12514606Y-9521106D01*
X12514606Y-9701106D01*
X12519304Y-9725318D01*
X12533283Y-9746599D01*
X12554386Y-9760844D01*
X12555086Y-9760984D01*
X12547231Y-9768268D01*
X12520352Y-9826811D01*
X12532213Y-9852406D01*
X12668250Y-9852406D01*
X12668250Y-9850406D01*
X12693650Y-9850406D01*
X12693650Y-9852406D01*
X12829687Y-9852406D01*
X12841548Y-9826811D01*
X12814669Y-9768268D01*
X12806898Y-9761063D01*
X12828043Y-9747173D01*
X12842288Y-9726070D01*
X12847294Y-9701106D01*
X12847294Y-10117328D01*
X12841548Y-10117328D01*
X12841548Y-9903401D01*
X12829687Y-9877806D01*
X12693650Y-9877806D01*
X12693650Y-10013790D01*
X12719244Y-10025704D01*
X12767432Y-10005745D01*
X12814669Y-9961944D01*
X12841548Y-9903401D01*
X12841548Y-10117328D01*
X12668250Y-10117328D01*
X12668250Y-10013790D01*
X12668250Y-9877806D01*
X12532213Y-9877806D01*
X12520352Y-9903401D01*
X12547231Y-9961944D01*
X12594468Y-10005745D01*
X12642656Y-10025704D01*
X12668250Y-10013790D01*
X12668250Y-10117328D01*
X12482576Y-10117328D01*
X12482576Y-6725889D01*
X12522149Y-6765531D01*
X12637355Y-6813368D01*
X12762098Y-6813477D01*
X12877387Y-6765841D01*
X12884683Y-6758557D01*
X12879747Y-6769035D01*
X12882842Y-6781816D01*
X12914153Y-6837596D01*
X12964426Y-6877147D01*
X13026009Y-6894449D01*
X13276072Y-6894449D01*
X13276072Y-6828362D01*
X13276326Y-6828242D01*
X13276326Y-6593840D01*
X13276072Y-6593840D01*
X13276072Y-6568440D01*
X13276326Y-6568440D01*
X13276326Y-6334037D01*
X13250991Y-6322102D01*
X13238210Y-6325197D01*
X13182430Y-6356508D01*
X13142879Y-6406781D01*
X13125577Y-6468364D01*
X13125577Y-6567551D01*
X13026009Y-6567551D01*
X13009486Y-6572193D01*
X13013508Y-6562505D01*
X13013617Y-6437762D01*
X12965981Y-6322473D01*
X12926014Y-6282436D01*
X17098133Y-6282436D01*
X17087135Y-6293415D01*
X17066791Y-6342409D01*
X17066745Y-6395459D01*
X17087003Y-6444488D01*
X17124483Y-6482033D01*
X17173477Y-6502377D01*
X17226527Y-6502423D01*
X17275556Y-6482165D01*
X17313101Y-6444685D01*
X17317466Y-6434172D01*
X17317466Y-7062645D01*
X17317098Y-7061757D01*
X17293537Y-7055592D01*
X17275576Y-7073552D01*
X17275576Y-7037631D01*
X17269411Y-7014070D01*
X17219370Y-6996457D01*
X17166398Y-6999335D01*
X17130825Y-7014070D01*
X17124660Y-7037631D01*
X17200118Y-7113089D01*
X17275576Y-7037631D01*
X17275576Y-7073552D01*
X17218079Y-7131050D01*
X17293537Y-7206508D01*
X17317098Y-7200343D01*
X17317466Y-7199297D01*
X17317466Y-7750816D01*
X17275576Y-7750816D01*
X17275576Y-7224469D01*
X17200118Y-7149010D01*
X17182158Y-7166971D01*
X17182158Y-7131050D01*
X17106699Y-7055592D01*
X17083138Y-7061757D01*
X17065525Y-7111798D01*
X17068403Y-7164770D01*
X17083138Y-7200343D01*
X17106699Y-7206508D01*
X17182158Y-7131050D01*
X17182158Y-7166971D01*
X17124660Y-7224469D01*
X17130825Y-7248030D01*
X17180866Y-7265643D01*
X17233838Y-7262765D01*
X17269411Y-7248030D01*
X17275576Y-7224469D01*
X17275576Y-7750816D01*
X16928501Y-7750816D01*
X16912626Y-7766691D01*
X16912626Y-7877816D01*
X16914626Y-7877816D01*
X16914626Y-7886441D01*
X16914485Y-7886483D01*
X16907752Y-7905216D01*
X16887226Y-7905216D01*
X16887226Y-7903216D01*
X16885226Y-7903216D01*
X16885226Y-7877816D01*
X16887226Y-7877816D01*
X16887226Y-7766691D01*
X16871351Y-7750816D01*
X16437334Y-7750816D01*
X16433192Y-7752532D01*
X16457044Y-7728680D01*
X16740000Y-7728680D01*
X16774020Y-7721913D01*
X16774021Y-7721913D01*
X16802862Y-7702642D01*
X16962752Y-7542752D01*
X16982023Y-7513911D01*
X16982023Y-7513910D01*
X16988790Y-7479890D01*
X16988790Y-7103726D01*
X17012873Y-7079685D01*
X17033217Y-7030691D01*
X17033263Y-6977641D01*
X17033263Y-6469641D01*
X17013005Y-6420612D01*
X16975525Y-6383067D01*
X16926531Y-6362723D01*
X16873481Y-6362677D01*
X16824452Y-6382935D01*
X16786907Y-6420415D01*
X16766563Y-6469409D01*
X16766517Y-6522459D01*
X16786775Y-6571488D01*
X16824255Y-6609033D01*
X16873249Y-6629377D01*
X16926299Y-6629423D01*
X16975328Y-6609165D01*
X17012873Y-6571685D01*
X17033217Y-6522691D01*
X17033263Y-6469641D01*
X17033263Y-6977641D01*
X17013005Y-6928612D01*
X16975525Y-6891067D01*
X16926531Y-6870723D01*
X16873481Y-6870677D01*
X16824452Y-6890935D01*
X16786907Y-6928415D01*
X16766563Y-6977409D01*
X16766517Y-7030459D01*
X16786775Y-7079488D01*
X16810990Y-7103745D01*
X16810990Y-7443066D01*
X16743373Y-7510683D01*
X16743373Y-7384591D01*
X16743373Y-6622591D01*
X16723115Y-6573562D01*
X16685635Y-6536017D01*
X16636641Y-6515673D01*
X16583591Y-6515627D01*
X16534562Y-6535885D01*
X16497017Y-6573365D01*
X16476673Y-6622359D01*
X16476627Y-6675409D01*
X16496885Y-6724438D01*
X16534365Y-6761983D01*
X16583359Y-6782327D01*
X16636409Y-6782373D01*
X16685438Y-6762115D01*
X16722983Y-6724635D01*
X16743327Y-6675641D01*
X16743373Y-6622591D01*
X16743373Y-7384591D01*
X16723115Y-7335562D01*
X16685635Y-7298017D01*
X16636641Y-7277673D01*
X16583591Y-7277627D01*
X16534562Y-7297885D01*
X16497017Y-7335365D01*
X16476673Y-7384359D01*
X16476627Y-7437409D01*
X16496885Y-7486438D01*
X16534365Y-7523983D01*
X16583359Y-7544327D01*
X16636409Y-7544373D01*
X16685438Y-7524115D01*
X16722983Y-7486635D01*
X16743327Y-7437641D01*
X16743373Y-7384591D01*
X16743373Y-7510683D01*
X16703176Y-7550880D01*
X16420220Y-7550880D01*
X16386199Y-7557647D01*
X16357358Y-7576918D01*
X16263594Y-7670682D01*
X16263594Y-6826250D01*
X16263594Y-6686550D01*
X16258896Y-6662338D01*
X16244917Y-6641057D01*
X16223814Y-6626812D01*
X16198850Y-6621806D01*
X16059150Y-6621806D01*
X16034938Y-6626504D01*
X16013657Y-6640483D01*
X15999412Y-6661586D01*
X15994406Y-6686550D01*
X15994406Y-6826250D01*
X15999104Y-6850462D01*
X16013083Y-6871743D01*
X16034186Y-6885988D01*
X16059150Y-6890994D01*
X16068788Y-6890994D01*
X16053562Y-6897285D01*
X16016017Y-6934765D01*
X16001991Y-6968545D01*
X15988115Y-6934962D01*
X15950635Y-6897417D01*
X15901641Y-6877073D01*
X15848591Y-6877027D01*
X15822253Y-6887910D01*
X15822253Y-6769035D01*
X15810317Y-6743700D01*
X15562436Y-6743700D01*
X15569572Y-6718300D01*
X15810317Y-6718300D01*
X15822253Y-6692965D01*
X15819158Y-6680184D01*
X15787847Y-6624404D01*
X15737573Y-6584853D01*
X15675991Y-6567551D01*
X15576423Y-6567551D01*
X15576423Y-6468364D01*
X15559121Y-6406781D01*
X15519570Y-6356508D01*
X15463790Y-6325197D01*
X15451009Y-6322102D01*
X15425674Y-6334037D01*
X15425674Y-6568440D01*
X15425928Y-6568440D01*
X15425928Y-6593840D01*
X15425674Y-6593840D01*
X15425674Y-6828242D01*
X15425928Y-6828362D01*
X15425928Y-6894449D01*
X15675991Y-6894449D01*
X15737573Y-6877147D01*
X15787847Y-6837596D01*
X15819158Y-6781816D01*
X15822253Y-6769035D01*
X15822253Y-6887910D01*
X15799562Y-6897285D01*
X15762017Y-6934765D01*
X15741673Y-6983759D01*
X15741627Y-7036809D01*
X15761885Y-7085838D01*
X15799365Y-7123383D01*
X15848359Y-7143727D01*
X15901409Y-7143773D01*
X15950438Y-7123515D01*
X15987983Y-7086035D01*
X16002009Y-7052255D01*
X16015885Y-7085838D01*
X16053365Y-7123383D01*
X16102359Y-7143727D01*
X16155409Y-7143773D01*
X16204438Y-7123515D01*
X16241983Y-7086035D01*
X16262327Y-7037041D01*
X16262373Y-6983991D01*
X16242115Y-6934962D01*
X16204635Y-6897417D01*
X16189166Y-6890994D01*
X16198850Y-6890994D01*
X16223062Y-6886296D01*
X16244343Y-6872317D01*
X16258588Y-6851214D01*
X16263594Y-6826250D01*
X16263594Y-7670682D01*
X16247138Y-7687138D01*
X16227867Y-7715979D01*
X16221100Y-7750000D01*
X16221100Y-8070000D01*
X16227867Y-8104021D01*
X16247138Y-8132862D01*
X16377138Y-8262862D01*
X16405979Y-8282133D01*
X16405979Y-8282133D01*
X16440000Y-8288900D01*
X16584009Y-8288900D01*
X16584320Y-8304114D01*
X16566450Y-8297476D01*
X16501470Y-8299882D01*
X16452612Y-8320119D01*
X16442752Y-8346800D01*
X16479228Y-8383276D01*
X16443307Y-8383276D01*
X16424792Y-8364760D01*
X16398111Y-8374620D01*
X16375468Y-8435574D01*
X16377874Y-8500554D01*
X16395327Y-8542689D01*
X16386465Y-8551551D01*
X16386465Y-8586545D01*
X16386465Y-8611807D01*
X16396132Y-8635146D01*
X16413995Y-8653009D01*
X16437334Y-8662676D01*
X16871351Y-8662676D01*
X16887226Y-8646801D01*
X16887226Y-8535676D01*
X16687007Y-8535676D01*
X16696443Y-8510276D01*
X16887226Y-8510276D01*
X16887226Y-8508276D01*
X16902412Y-8508276D01*
X16913762Y-8535676D01*
X16912626Y-8535676D01*
X16912626Y-8646801D01*
X16928501Y-8662676D01*
X17317466Y-8662676D01*
X17317466Y-9674129D01*
M02*
