G04 #@! TF.FileFunction,Soldermask,Bot*
%FSLAX45Y45*%
G04 Gerber Fmt 4.5, Leading zero omitted, Abs format (unit mm)*
G04 Created by KiCad (PCBNEW (2015-01-25 BZR 5388)-product) date Mo 03 Aug 2015 14:19:51 CEST*
%MOMM*%
G01*
G04 APERTURE LIST*
%ADD10C,0.150000*%
%ADD11C,5.509260*%
%ADD12C,1.905000*%
%ADD13R,1.905000X1.905000*%
%ADD14R,2.540000X2.235200*%
%ADD15O,2.540000X2.235200*%
G04 APERTURE END LIST*
D10*
D11*
X17100042Y-9900158D03*
X12700000Y-6499860D03*
D12*
X15249906Y-6568948D03*
X15249906Y-7330948D03*
X13649960Y-6568948D03*
X13649960Y-7330948D03*
X13560000Y-7709000D03*
X13560000Y-8471000D03*
X14999970Y-8769096D03*
X14999970Y-9531096D03*
X14349984Y-8769096D03*
X14349984Y-9531096D03*
X14750034Y-6568948D03*
X14750034Y-7330948D03*
X15850108Y-7618984D03*
X15850108Y-8380984D03*
X16949928Y-6618986D03*
X16949928Y-7380986D03*
X17004030Y-9100058D03*
X16496030Y-9100058D03*
X13750036Y-8896096D03*
X13750036Y-9404096D03*
D13*
X15643000Y-9040000D03*
D12*
X15897000Y-9040000D03*
D13*
X16400000Y-7623000D03*
D12*
X16400000Y-7877000D03*
D13*
X16860000Y-8203000D03*
D12*
X16860000Y-8457000D03*
D14*
X12690000Y-9226000D03*
D15*
X12690000Y-8972000D03*
X12690000Y-8718000D03*
X12690000Y-8464000D03*
X12690000Y-8210000D03*
X12690000Y-7956000D03*
X12690000Y-7702000D03*
X12690000Y-7448000D03*
X12690000Y-7194000D03*
D13*
X14063000Y-8177000D03*
D12*
X14063000Y-7923000D03*
X14317000Y-7923000D03*
D13*
X15013000Y-8167000D03*
D12*
X15013000Y-7913000D03*
X15267000Y-7913000D03*
D13*
X16037000Y-6613000D03*
D12*
X16037000Y-6867000D03*
X15783000Y-6867000D03*
M02*
