M48
METRIC,TZ
T1C0.813
T2C1.016
T3C3.200
%
G90
G05
T1
X135600Y-77090
X135600Y-84710
X136500Y-65689
X136500Y-73309
X137500Y-88961
X137500Y-94041
X140630Y-79230
X140630Y-81770
X143170Y-79230
X143500Y-87691
X143500Y-95311
X147500Y-65689
X147500Y-73309
X150000Y-87691
X150000Y-95311
X150130Y-79130
X150130Y-81670
X152499Y-65689
X152499Y-73309
X152670Y-79130
X156430Y-90400
X157830Y-68670
X158501Y-76190
X158501Y-83810
X158970Y-90400
X160370Y-66130
X160370Y-68670
X164000Y-76230
X164000Y-78770
X164960Y-91001
X168600Y-82030
X168600Y-84570
X169499Y-66190
X169499Y-73810
X170040Y-91001
T2
X126900Y-71940
X126900Y-74480
X126900Y-77020
X126900Y-79560
X126900Y-82100
X126900Y-84640
X126900Y-87180
X126900Y-89720
X126900Y-92260
T3
X127000Y-64999
X171000Y-99002
T0
M30
