G04 #@! TF.FileFunction,Copper,L1,Top,Signal*
%FSLAX45Y45*%
G04 Gerber Fmt 4.5, Leading zero omitted, Abs format (unit mm)*
G04 Created by KiCad (PCBNEW (2015-01-25 BZR 5388)-product) date Mo 03 Aug 2015 14:19:51 CEST*
%MOMM*%
G01*
G04 APERTURE LIST*
%ADD10C,0.150000*%
%ADD11C,5.001260*%
%ADD12C,1.397000*%
%ADD13R,1.397000X1.397000*%
%ADD14R,2.032000X1.727200*%
%ADD15O,2.032000X1.727200*%
%ADD16C,0.508000*%
%ADD17C,0.254000*%
G04 APERTURE END LIST*
D10*
D11*
X17100042Y-9900158D03*
X12700000Y-6499860D03*
D12*
X15249906Y-6568948D03*
X15249906Y-7330948D03*
X13649960Y-6568948D03*
X13649960Y-7330948D03*
X13560000Y-7709000D03*
X13560000Y-8471000D03*
X14999970Y-8769096D03*
X14999970Y-9531096D03*
X14349984Y-8769096D03*
X14349984Y-9531096D03*
X14750034Y-6568948D03*
X14750034Y-7330948D03*
X15850108Y-7618984D03*
X15850108Y-8380984D03*
X16949928Y-6618986D03*
X16949928Y-7380986D03*
X17004030Y-9100058D03*
X16496030Y-9100058D03*
X13750036Y-8896096D03*
X13750036Y-9404096D03*
D13*
X15643000Y-9040000D03*
D12*
X15897000Y-9040000D03*
D13*
X16400000Y-7623000D03*
D12*
X16400000Y-7877000D03*
D13*
X16860000Y-8203000D03*
D12*
X16860000Y-8457000D03*
D14*
X12690000Y-9226000D03*
D15*
X12690000Y-8972000D03*
X12690000Y-8718000D03*
X12690000Y-8464000D03*
X12690000Y-8210000D03*
X12690000Y-7956000D03*
X12690000Y-7702000D03*
X12690000Y-7448000D03*
X12690000Y-7194000D03*
D13*
X14063000Y-8177000D03*
D12*
X14063000Y-7923000D03*
X14317000Y-7923000D03*
D13*
X15013000Y-8167000D03*
D12*
X15013000Y-7913000D03*
X15267000Y-7913000D03*
D13*
X16037000Y-6613000D03*
D12*
X16037000Y-6867000D03*
X15783000Y-6867000D03*
D16*
X15773050Y-6623050D02*
X15530000Y-6380000D01*
X15530000Y-6380000D02*
X13530000Y-6380000D01*
X13530000Y-6380000D02*
X13340000Y-6570000D01*
X13340000Y-6570000D02*
X13340000Y-7360000D01*
X13340000Y-7360000D02*
X13060000Y-7640000D01*
X13060000Y-7640000D02*
X13060000Y-8856000D01*
X13060000Y-8856000D02*
X12690000Y-9226000D01*
X16026892Y-6623050D02*
X15773050Y-6623050D01*
X12818000Y-7448000D02*
X12900000Y-7530000D01*
X12900000Y-7530000D02*
X12900000Y-8508000D01*
X12900000Y-8508000D02*
X12690000Y-8718000D01*
X12690000Y-7448000D02*
X12818000Y-7448000D01*
D17*
G36*
X17317466Y-9674129D02*
X17277893Y-9634487D01*
X17162687Y-9586650D01*
X17137403Y-9586627D01*
X17137403Y-9073649D01*
X17117145Y-9024620D01*
X17083301Y-8990717D01*
X17083301Y-7354577D01*
X17083301Y-6592577D01*
X17063043Y-6543548D01*
X17025563Y-6506003D01*
X16976569Y-6485659D01*
X16923519Y-6485613D01*
X16874490Y-6505871D01*
X16836945Y-6543351D01*
X16816601Y-6592345D01*
X16816555Y-6645395D01*
X16836813Y-6694424D01*
X16874293Y-6731969D01*
X16923287Y-6752313D01*
X16976337Y-6752359D01*
X17025366Y-6732101D01*
X17062911Y-6694621D01*
X17083255Y-6645627D01*
X17083301Y-6592577D01*
X17083301Y-7354577D01*
X17063043Y-7305548D01*
X17025563Y-7268003D01*
X16976569Y-7247659D01*
X16923519Y-7247613D01*
X16874490Y-7267871D01*
X16836945Y-7305351D01*
X16816601Y-7354345D01*
X16816555Y-7407395D01*
X16836813Y-7456424D01*
X16874293Y-7493969D01*
X16923287Y-7514313D01*
X16976337Y-7514359D01*
X17025366Y-7494101D01*
X17062911Y-7456621D01*
X17083255Y-7407627D01*
X17083301Y-7354577D01*
X17083301Y-8990717D01*
X17079665Y-8987075D01*
X17030671Y-8966731D01*
X16994594Y-8966700D01*
X16994594Y-8272850D01*
X16994594Y-8133150D01*
X16989896Y-8108938D01*
X16975917Y-8087657D01*
X16954814Y-8073412D01*
X16929850Y-8068406D01*
X16790150Y-8068406D01*
X16765938Y-8073104D01*
X16744657Y-8087083D01*
X16730412Y-8108186D01*
X16725406Y-8133150D01*
X16725406Y-8272850D01*
X16730104Y-8297062D01*
X16744083Y-8318343D01*
X16765186Y-8332588D01*
X16790150Y-8337594D01*
X16796564Y-8337594D01*
X16790707Y-8340020D01*
X16784542Y-8363581D01*
X16860000Y-8439040D01*
X16935458Y-8363581D01*
X16929293Y-8340020D01*
X16922400Y-8337594D01*
X16929850Y-8337594D01*
X16954062Y-8332896D01*
X16975343Y-8318917D01*
X16989588Y-8297814D01*
X16994594Y-8272850D01*
X16994594Y-8966700D01*
X16994593Y-8966700D01*
X16994593Y-8476252D01*
X16991715Y-8423280D01*
X16976980Y-8387707D01*
X16953419Y-8381542D01*
X16877961Y-8457000D01*
X16953419Y-8532458D01*
X16976980Y-8526293D01*
X16994593Y-8476252D01*
X16994593Y-8966700D01*
X16977621Y-8966685D01*
X16935458Y-8984106D01*
X16935458Y-8550419D01*
X16860000Y-8474961D01*
X16842040Y-8492921D01*
X16842040Y-8457000D01*
X16766581Y-8381542D01*
X16743020Y-8387707D01*
X16725407Y-8437748D01*
X16728285Y-8490720D01*
X16743020Y-8526293D01*
X16766581Y-8532458D01*
X16842040Y-8457000D01*
X16842040Y-8492921D01*
X16784542Y-8550419D01*
X16790707Y-8573980D01*
X16840748Y-8591593D01*
X16893720Y-8588715D01*
X16929293Y-8573980D01*
X16935458Y-8550419D01*
X16935458Y-8984106D01*
X16928592Y-8986943D01*
X16891047Y-9024423D01*
X16870703Y-9073417D01*
X16870657Y-9126467D01*
X16890915Y-9175496D01*
X16928395Y-9213041D01*
X16977389Y-9233385D01*
X17030439Y-9233431D01*
X17079468Y-9213173D01*
X17117013Y-9175693D01*
X17137357Y-9126699D01*
X17137403Y-9073649D01*
X17137403Y-9586627D01*
X17037944Y-9586541D01*
X16922655Y-9634177D01*
X16834371Y-9722307D01*
X16786534Y-9837513D01*
X16786425Y-9962256D01*
X16834061Y-10077545D01*
X16873775Y-10117328D01*
X16629403Y-10117328D01*
X16629403Y-9073649D01*
X16609145Y-9024620D01*
X16571665Y-8987075D01*
X16534594Y-8971682D01*
X16534594Y-7692850D01*
X16534594Y-7553150D01*
X16529896Y-7528938D01*
X16515917Y-7507657D01*
X16494814Y-7493412D01*
X16469850Y-7488406D01*
X16330150Y-7488406D01*
X16305938Y-7493104D01*
X16284657Y-7507083D01*
X16270412Y-7528186D01*
X16265406Y-7553150D01*
X16265406Y-7692850D01*
X16270104Y-7717062D01*
X16284083Y-7738343D01*
X16305186Y-7752588D01*
X16330150Y-7757594D01*
X16336564Y-7757594D01*
X16330707Y-7760020D01*
X16324542Y-7783581D01*
X16400000Y-7859039D01*
X16475458Y-7783581D01*
X16469293Y-7760020D01*
X16462400Y-7757594D01*
X16469850Y-7757594D01*
X16494062Y-7752896D01*
X16515343Y-7738917D01*
X16529588Y-7717814D01*
X16534594Y-7692850D01*
X16534594Y-8971682D01*
X16534593Y-8971681D01*
X16534593Y-7896252D01*
X16531715Y-7843280D01*
X16516980Y-7807707D01*
X16493419Y-7801542D01*
X16417960Y-7877000D01*
X16493419Y-7952458D01*
X16516980Y-7946293D01*
X16534593Y-7896252D01*
X16534593Y-8971681D01*
X16522671Y-8966731D01*
X16475458Y-8966690D01*
X16475458Y-7970419D01*
X16400000Y-7894960D01*
X16382039Y-7912921D01*
X16382039Y-7877000D01*
X16306581Y-7801542D01*
X16283020Y-7807707D01*
X16265407Y-7857748D01*
X16268285Y-7910720D01*
X16283020Y-7946293D01*
X16306581Y-7952458D01*
X16382039Y-7877000D01*
X16382039Y-7912921D01*
X16324542Y-7970419D01*
X16330707Y-7993980D01*
X16380748Y-8011593D01*
X16433720Y-8008715D01*
X16469293Y-7993980D01*
X16475458Y-7970419D01*
X16475458Y-8966690D01*
X16469621Y-8966685D01*
X16420592Y-8986943D01*
X16383047Y-9024423D01*
X16362703Y-9073417D01*
X16362657Y-9126467D01*
X16382915Y-9175496D01*
X16420395Y-9213041D01*
X16469389Y-9233385D01*
X16522439Y-9233431D01*
X16571468Y-9213173D01*
X16609013Y-9175693D01*
X16629357Y-9126699D01*
X16629403Y-9073649D01*
X16629403Y-10117328D01*
X16171594Y-10117328D01*
X16171594Y-6682850D01*
X16171594Y-6543150D01*
X16166896Y-6518938D01*
X16152917Y-6497657D01*
X16131814Y-6483412D01*
X16106850Y-6478406D01*
X15967150Y-6478406D01*
X15942938Y-6483104D01*
X15921657Y-6497083D01*
X15907412Y-6518186D01*
X15904211Y-6534150D01*
X15809874Y-6534150D01*
X15592862Y-6317138D01*
X15564021Y-6297867D01*
X15530000Y-6291100D01*
X13530000Y-6291100D01*
X13495979Y-6297867D01*
X13467138Y-6317138D01*
X13277138Y-6507138D01*
X13257867Y-6535979D01*
X13251100Y-6570000D01*
X13251100Y-7323176D01*
X12997138Y-7577138D01*
X12988900Y-7589467D01*
X12988900Y-7530000D01*
X12982133Y-7495979D01*
X12982133Y-7495979D01*
X12962862Y-7467138D01*
X12880862Y-7385138D01*
X12852021Y-7365867D01*
X12827048Y-7360900D01*
X12814441Y-7342033D01*
X12783493Y-7321354D01*
X12825073Y-7284204D01*
X12850471Y-7231479D01*
X12850736Y-7229903D01*
X12850736Y-7158097D01*
X12850471Y-7156521D01*
X12825073Y-7103796D01*
X12781432Y-7064805D01*
X12726191Y-7045482D01*
X12702700Y-7059908D01*
X12702700Y-7181300D01*
X12838622Y-7181300D01*
X12850736Y-7158097D01*
X12850736Y-7229903D01*
X12838622Y-7206700D01*
X12702700Y-7206700D01*
X12702700Y-7208700D01*
X12677300Y-7208700D01*
X12677300Y-7206700D01*
X12677300Y-7181300D01*
X12677300Y-7059908D01*
X12653809Y-7045482D01*
X12598568Y-7064805D01*
X12554927Y-7103796D01*
X12529529Y-7156521D01*
X12529264Y-7158097D01*
X12541378Y-7181300D01*
X12677300Y-7181300D01*
X12677300Y-7206700D01*
X12541378Y-7206700D01*
X12529264Y-7229903D01*
X12529529Y-7231479D01*
X12554927Y-7284204D01*
X12596507Y-7321354D01*
X12565558Y-7342033D01*
X12533073Y-7390651D01*
X12521665Y-7448000D01*
X12533073Y-7505349D01*
X12565558Y-7553967D01*
X12597036Y-7575000D01*
X12565558Y-7596033D01*
X12533073Y-7644651D01*
X12521665Y-7702000D01*
X12533073Y-7759349D01*
X12565558Y-7807967D01*
X12596507Y-7828646D01*
X12554927Y-7865796D01*
X12529529Y-7918521D01*
X12529264Y-7920097D01*
X12541378Y-7943300D01*
X12677300Y-7943300D01*
X12677300Y-7941300D01*
X12702700Y-7941300D01*
X12702700Y-7943300D01*
X12704700Y-7943300D01*
X12704700Y-7968700D01*
X12702700Y-7968700D01*
X12702700Y-7970700D01*
X12677300Y-7970700D01*
X12677300Y-7968700D01*
X12541378Y-7968700D01*
X12529264Y-7991903D01*
X12529529Y-7993479D01*
X12554927Y-8046204D01*
X12596507Y-8083354D01*
X12565558Y-8104033D01*
X12533073Y-8152651D01*
X12521665Y-8210000D01*
X12533073Y-8267349D01*
X12565558Y-8315967D01*
X12596507Y-8336646D01*
X12554927Y-8373796D01*
X12529529Y-8426521D01*
X12529264Y-8428097D01*
X12541378Y-8451300D01*
X12677300Y-8451300D01*
X12677300Y-8449300D01*
X12702700Y-8449300D01*
X12702700Y-8451300D01*
X12704700Y-8451300D01*
X12704700Y-8476700D01*
X12702700Y-8476700D01*
X12702700Y-8478700D01*
X12677300Y-8478700D01*
X12677300Y-8476700D01*
X12541378Y-8476700D01*
X12529264Y-8499903D01*
X12529529Y-8501479D01*
X12554927Y-8554204D01*
X12596507Y-8591354D01*
X12565558Y-8612033D01*
X12533073Y-8660651D01*
X12521665Y-8718000D01*
X12533073Y-8775349D01*
X12565558Y-8823967D01*
X12596507Y-8844646D01*
X12554927Y-8881796D01*
X12529529Y-8934521D01*
X12529264Y-8936097D01*
X12541378Y-8959300D01*
X12677300Y-8959300D01*
X12677300Y-8957300D01*
X12702700Y-8957300D01*
X12702700Y-8959300D01*
X12704700Y-8959300D01*
X12704700Y-8984700D01*
X12702700Y-8984700D01*
X12702700Y-8986700D01*
X12677300Y-8986700D01*
X12677300Y-8984700D01*
X12541378Y-8984700D01*
X12529264Y-9007903D01*
X12529529Y-9009479D01*
X12554927Y-9062204D01*
X12572570Y-9077967D01*
X12564188Y-9079594D01*
X12542907Y-9093573D01*
X12528662Y-9114676D01*
X12523656Y-9139640D01*
X12523656Y-9312360D01*
X12528354Y-9336572D01*
X12542333Y-9357853D01*
X12563436Y-9372098D01*
X12588400Y-9377104D01*
X12791600Y-9377104D01*
X12815812Y-9372406D01*
X12837093Y-9358427D01*
X12851338Y-9337324D01*
X12856344Y-9312360D01*
X12856344Y-9185380D01*
X13122862Y-8918862D01*
X13142133Y-8890021D01*
X13142133Y-8890021D01*
X13148900Y-8856000D01*
X13148900Y-7676824D01*
X13402862Y-7422862D01*
X13422133Y-7394021D01*
X13422133Y-7394020D01*
X13428900Y-7360000D01*
X13428900Y-6606824D01*
X13533119Y-6502605D01*
X13516633Y-6542307D01*
X13516587Y-6595357D01*
X13536845Y-6644386D01*
X13574325Y-6681931D01*
X13623319Y-6702275D01*
X13676369Y-6702321D01*
X13725398Y-6682063D01*
X13762943Y-6644583D01*
X13783287Y-6595589D01*
X13783333Y-6542539D01*
X13763075Y-6493510D01*
X13738507Y-6468900D01*
X14661506Y-6468900D01*
X14637051Y-6493313D01*
X14616707Y-6542307D01*
X14616661Y-6595357D01*
X14636919Y-6644386D01*
X14674399Y-6681931D01*
X14723393Y-6702275D01*
X14776443Y-6702321D01*
X14825472Y-6682063D01*
X14863017Y-6644583D01*
X14883361Y-6595589D01*
X14883407Y-6542539D01*
X14863149Y-6493510D01*
X14838581Y-6468900D01*
X15161378Y-6468900D01*
X15136923Y-6493313D01*
X15116579Y-6542307D01*
X15116533Y-6595357D01*
X15136791Y-6644386D01*
X15174271Y-6681931D01*
X15223265Y-6702275D01*
X15276315Y-6702321D01*
X15325344Y-6682063D01*
X15362889Y-6644583D01*
X15383233Y-6595589D01*
X15383279Y-6542539D01*
X15363021Y-6493510D01*
X15338453Y-6468900D01*
X15493176Y-6468900D01*
X15710188Y-6685912D01*
X15739029Y-6705183D01*
X15739029Y-6705183D01*
X15773050Y-6711950D01*
X15910314Y-6711950D01*
X15921083Y-6728343D01*
X15942186Y-6742588D01*
X15967150Y-6747594D01*
X15976788Y-6747594D01*
X15961562Y-6753885D01*
X15924017Y-6791365D01*
X15909991Y-6825145D01*
X15896115Y-6791562D01*
X15858635Y-6754017D01*
X15809641Y-6733673D01*
X15756591Y-6733627D01*
X15707562Y-6753885D01*
X15670017Y-6791365D01*
X15649673Y-6840359D01*
X15649627Y-6893409D01*
X15669885Y-6942438D01*
X15707365Y-6979983D01*
X15756359Y-7000327D01*
X15809409Y-7000373D01*
X15858438Y-6980115D01*
X15895983Y-6942635D01*
X15910009Y-6908855D01*
X15923885Y-6942438D01*
X15961365Y-6979983D01*
X16010359Y-7000327D01*
X16063409Y-7000373D01*
X16112438Y-6980115D01*
X16149983Y-6942635D01*
X16170327Y-6893641D01*
X16170373Y-6840591D01*
X16150115Y-6791562D01*
X16112635Y-6754017D01*
X16097166Y-6747594D01*
X16106850Y-6747594D01*
X16131062Y-6742896D01*
X16152343Y-6728917D01*
X16166588Y-6707814D01*
X16171594Y-6682850D01*
X16171594Y-10117328D01*
X16031593Y-10117328D01*
X16031593Y-9059252D01*
X16028715Y-9006280D01*
X16013980Y-8970707D01*
X15990419Y-8964542D01*
X15983481Y-8971479D01*
X15983481Y-8354575D01*
X15983481Y-7592575D01*
X15963223Y-7543546D01*
X15925743Y-7506001D01*
X15876749Y-7485657D01*
X15823699Y-7485611D01*
X15774670Y-7505869D01*
X15737125Y-7543349D01*
X15716781Y-7592343D01*
X15716735Y-7645393D01*
X15736993Y-7694422D01*
X15774473Y-7731967D01*
X15823467Y-7752311D01*
X15876517Y-7752357D01*
X15925546Y-7732099D01*
X15963091Y-7694619D01*
X15983435Y-7645625D01*
X15983481Y-7592575D01*
X15983481Y-8354575D01*
X15963223Y-8305546D01*
X15925743Y-8268001D01*
X15876749Y-8247657D01*
X15823699Y-8247611D01*
X15774670Y-8267869D01*
X15737125Y-8305349D01*
X15716781Y-8354343D01*
X15716735Y-8407393D01*
X15736993Y-8456422D01*
X15774473Y-8493967D01*
X15823467Y-8514311D01*
X15876517Y-8514357D01*
X15925546Y-8494099D01*
X15963091Y-8456619D01*
X15983435Y-8407625D01*
X15983481Y-8354575D01*
X15983481Y-8971479D01*
X15972458Y-8982502D01*
X15972458Y-8946581D01*
X15966293Y-8923020D01*
X15916252Y-8905407D01*
X15863280Y-8908285D01*
X15827707Y-8923020D01*
X15821542Y-8946581D01*
X15897000Y-9022040D01*
X15972458Y-8946581D01*
X15972458Y-8982502D01*
X15914960Y-9040000D01*
X15990419Y-9115458D01*
X16013980Y-9109293D01*
X16031593Y-9059252D01*
X16031593Y-10117328D01*
X15972458Y-10117328D01*
X15972458Y-9133419D01*
X15897000Y-9057961D01*
X15879039Y-9075921D01*
X15879039Y-9040000D01*
X15803581Y-8964542D01*
X15780020Y-8970707D01*
X15777594Y-8977600D01*
X15777594Y-8970150D01*
X15772896Y-8945938D01*
X15758917Y-8924657D01*
X15737814Y-8910412D01*
X15712850Y-8905406D01*
X15573150Y-8905406D01*
X15548938Y-8910104D01*
X15527657Y-8924083D01*
X15513412Y-8945186D01*
X15508406Y-8970150D01*
X15508406Y-9109850D01*
X15513104Y-9134062D01*
X15527083Y-9155343D01*
X15548186Y-9169588D01*
X15573150Y-9174594D01*
X15712850Y-9174594D01*
X15737062Y-9169896D01*
X15758343Y-9155917D01*
X15772588Y-9134814D01*
X15777594Y-9109850D01*
X15777594Y-9103436D01*
X15780020Y-9109293D01*
X15803581Y-9115458D01*
X15879039Y-9040000D01*
X15879039Y-9075921D01*
X15821542Y-9133419D01*
X15827707Y-9156980D01*
X15877748Y-9174593D01*
X15930720Y-9171715D01*
X15966293Y-9156980D01*
X15972458Y-9133419D01*
X15972458Y-10117328D01*
X15400373Y-10117328D01*
X15400373Y-7886591D01*
X15383279Y-7845221D01*
X15383279Y-7304539D01*
X15363021Y-7255510D01*
X15325541Y-7217965D01*
X15276547Y-7197621D01*
X15223497Y-7197575D01*
X15174468Y-7217833D01*
X15136923Y-7255313D01*
X15116579Y-7304307D01*
X15116533Y-7357357D01*
X15136791Y-7406386D01*
X15174271Y-7443931D01*
X15223265Y-7464275D01*
X15276315Y-7464321D01*
X15325344Y-7444063D01*
X15362889Y-7406583D01*
X15383233Y-7357589D01*
X15383279Y-7304539D01*
X15383279Y-7845221D01*
X15380115Y-7837562D01*
X15342635Y-7800017D01*
X15293641Y-7779673D01*
X15240591Y-7779627D01*
X15191562Y-7799885D01*
X15154017Y-7837365D01*
X15139991Y-7871145D01*
X15126115Y-7837562D01*
X15088635Y-7800017D01*
X15039641Y-7779673D01*
X14986591Y-7779627D01*
X14937562Y-7799885D01*
X14900017Y-7837365D01*
X14883407Y-7877366D01*
X14883407Y-7304539D01*
X14863149Y-7255510D01*
X14825669Y-7217965D01*
X14776675Y-7197621D01*
X14723625Y-7197575D01*
X14674596Y-7217833D01*
X14637051Y-7255313D01*
X14616707Y-7304307D01*
X14616661Y-7357357D01*
X14636919Y-7406386D01*
X14674399Y-7443931D01*
X14723393Y-7464275D01*
X14776443Y-7464321D01*
X14825472Y-7444063D01*
X14863017Y-7406583D01*
X14883361Y-7357589D01*
X14883407Y-7304539D01*
X14883407Y-7877366D01*
X14879673Y-7886359D01*
X14879627Y-7939409D01*
X14899885Y-7988438D01*
X14937365Y-8025983D01*
X14952834Y-8032406D01*
X14943150Y-8032406D01*
X14918938Y-8037104D01*
X14897657Y-8051083D01*
X14883412Y-8072186D01*
X14878406Y-8097150D01*
X14878406Y-8236850D01*
X14883104Y-8261062D01*
X14897083Y-8282343D01*
X14918186Y-8296588D01*
X14943150Y-8301594D01*
X15082850Y-8301594D01*
X15107062Y-8296896D01*
X15128343Y-8282917D01*
X15142588Y-8261814D01*
X15147594Y-8236850D01*
X15147594Y-8097150D01*
X15142896Y-8072938D01*
X15128917Y-8051657D01*
X15107814Y-8037412D01*
X15082850Y-8032406D01*
X15073212Y-8032406D01*
X15088438Y-8026115D01*
X15125983Y-7988635D01*
X15140009Y-7954855D01*
X15153885Y-7988438D01*
X15191365Y-8025983D01*
X15240359Y-8046327D01*
X15293409Y-8046373D01*
X15342438Y-8026115D01*
X15379983Y-7988635D01*
X15400327Y-7939641D01*
X15400373Y-7886591D01*
X15400373Y-10117328D01*
X15134563Y-10117328D01*
X15134563Y-9550348D01*
X15133343Y-9527900D01*
X15133343Y-8742687D01*
X15113085Y-8693658D01*
X15075605Y-8656113D01*
X15026611Y-8635769D01*
X14973561Y-8635723D01*
X14924532Y-8655981D01*
X14886987Y-8693461D01*
X14866643Y-8742455D01*
X14866597Y-8795505D01*
X14886855Y-8844534D01*
X14924335Y-8882079D01*
X14973329Y-8902423D01*
X15026379Y-8902469D01*
X15075408Y-8882211D01*
X15112953Y-8844731D01*
X15133297Y-8795737D01*
X15133343Y-8742687D01*
X15133343Y-9527900D01*
X15131685Y-9497376D01*
X15116950Y-9461803D01*
X15093389Y-9455638D01*
X15075428Y-9473598D01*
X15075428Y-9437677D01*
X15069263Y-9414116D01*
X15019222Y-9396503D01*
X14966250Y-9399381D01*
X14930677Y-9414116D01*
X14924512Y-9437677D01*
X14999970Y-9513136D01*
X15075428Y-9437677D01*
X15075428Y-9473598D01*
X15017930Y-9531096D01*
X15093389Y-9606554D01*
X15116950Y-9600389D01*
X15134563Y-9550348D01*
X15134563Y-10117328D01*
X15075428Y-10117328D01*
X15075428Y-9624515D01*
X14999970Y-9549057D01*
X14982009Y-9567017D01*
X14982009Y-9531096D01*
X14906551Y-9455638D01*
X14882990Y-9461803D01*
X14865377Y-9511844D01*
X14868255Y-9564816D01*
X14882990Y-9600389D01*
X14906551Y-9606554D01*
X14982009Y-9531096D01*
X14982009Y-9567017D01*
X14924512Y-9624515D01*
X14930677Y-9648076D01*
X14980718Y-9665689D01*
X15033690Y-9662811D01*
X15069263Y-9648076D01*
X15075428Y-9624515D01*
X15075428Y-10117328D01*
X14484577Y-10117328D01*
X14484577Y-9550348D01*
X14483357Y-9527900D01*
X14483357Y-8742687D01*
X14463099Y-8693658D01*
X14450373Y-8680910D01*
X14450373Y-7896591D01*
X14430115Y-7847562D01*
X14392635Y-7810017D01*
X14343641Y-7789673D01*
X14290591Y-7789627D01*
X14241562Y-7809885D01*
X14204017Y-7847365D01*
X14189991Y-7881145D01*
X14176115Y-7847562D01*
X14138635Y-7810017D01*
X14089641Y-7789673D01*
X14036591Y-7789627D01*
X13987562Y-7809885D01*
X13950017Y-7847365D01*
X13929673Y-7896359D01*
X13929627Y-7949409D01*
X13949885Y-7998438D01*
X13987365Y-8035983D01*
X14002834Y-8042406D01*
X13993150Y-8042406D01*
X13968938Y-8047104D01*
X13947657Y-8061083D01*
X13933412Y-8082186D01*
X13928406Y-8107150D01*
X13928406Y-8246850D01*
X13933104Y-8271062D01*
X13947083Y-8292343D01*
X13968186Y-8306588D01*
X13993150Y-8311594D01*
X14132850Y-8311594D01*
X14157062Y-8306896D01*
X14178343Y-8292917D01*
X14192588Y-8271814D01*
X14197594Y-8246850D01*
X14197594Y-8107150D01*
X14192896Y-8082938D01*
X14178917Y-8061657D01*
X14157814Y-8047412D01*
X14132850Y-8042406D01*
X14123212Y-8042406D01*
X14138438Y-8036115D01*
X14175983Y-7998635D01*
X14190009Y-7964855D01*
X14203885Y-7998438D01*
X14241365Y-8035983D01*
X14290359Y-8056327D01*
X14343409Y-8056373D01*
X14392438Y-8036115D01*
X14429983Y-7998635D01*
X14450327Y-7949641D01*
X14450373Y-7896591D01*
X14450373Y-8680910D01*
X14425619Y-8656113D01*
X14376625Y-8635769D01*
X14323575Y-8635723D01*
X14274546Y-8655981D01*
X14237001Y-8693461D01*
X14216657Y-8742455D01*
X14216611Y-8795505D01*
X14236869Y-8844534D01*
X14274349Y-8882079D01*
X14323343Y-8902423D01*
X14376393Y-8902469D01*
X14425422Y-8882211D01*
X14462967Y-8844731D01*
X14483311Y-8795737D01*
X14483357Y-8742687D01*
X14483357Y-9527900D01*
X14481699Y-9497376D01*
X14466964Y-9461803D01*
X14443403Y-9455638D01*
X14425442Y-9473598D01*
X14425442Y-9437677D01*
X14419277Y-9414116D01*
X14369236Y-9396503D01*
X14316264Y-9399381D01*
X14280691Y-9414116D01*
X14274526Y-9437677D01*
X14349984Y-9513136D01*
X14425442Y-9437677D01*
X14425442Y-9473598D01*
X14367944Y-9531096D01*
X14443403Y-9606554D01*
X14466964Y-9600389D01*
X14484577Y-9550348D01*
X14484577Y-10117328D01*
X14425442Y-10117328D01*
X14425442Y-9624515D01*
X14349984Y-9549057D01*
X14332023Y-9567017D01*
X14332023Y-9531096D01*
X14256565Y-9455638D01*
X14233004Y-9461803D01*
X14215391Y-9511844D01*
X14218269Y-9564816D01*
X14233004Y-9600389D01*
X14256565Y-9606554D01*
X14332023Y-9531096D01*
X14332023Y-9567017D01*
X14274526Y-9624515D01*
X14280691Y-9648076D01*
X14330732Y-9665689D01*
X14383704Y-9662811D01*
X14419277Y-9648076D01*
X14425442Y-9624515D01*
X14425442Y-10117328D01*
X13883409Y-10117328D01*
X13883409Y-9377687D01*
X13883409Y-8869687D01*
X13863151Y-8820658D01*
X13825671Y-8783113D01*
X13783333Y-8765533D01*
X13783333Y-7304539D01*
X13763075Y-7255510D01*
X13725595Y-7217965D01*
X13676601Y-7197621D01*
X13623551Y-7197575D01*
X13574522Y-7217833D01*
X13536977Y-7255313D01*
X13516633Y-7304307D01*
X13516587Y-7357357D01*
X13536845Y-7406386D01*
X13574325Y-7443931D01*
X13623319Y-7464275D01*
X13676369Y-7464321D01*
X13725398Y-7444063D01*
X13762943Y-7406583D01*
X13783287Y-7357589D01*
X13783333Y-7304539D01*
X13783333Y-8765533D01*
X13776677Y-8762769D01*
X13723627Y-8762723D01*
X13694593Y-8774720D01*
X13694593Y-8490252D01*
X13693373Y-8467804D01*
X13693373Y-7682591D01*
X13673115Y-7633562D01*
X13635635Y-7596017D01*
X13586641Y-7575673D01*
X13533591Y-7575627D01*
X13484562Y-7595885D01*
X13447017Y-7633365D01*
X13426673Y-7682359D01*
X13426627Y-7735409D01*
X13446885Y-7784438D01*
X13484365Y-7821983D01*
X13533359Y-7842327D01*
X13586409Y-7842373D01*
X13635438Y-7822115D01*
X13672983Y-7784635D01*
X13693327Y-7735641D01*
X13693373Y-7682591D01*
X13693373Y-8467804D01*
X13691715Y-8437280D01*
X13676980Y-8401707D01*
X13653419Y-8395542D01*
X13635458Y-8413502D01*
X13635458Y-8377581D01*
X13629293Y-8354020D01*
X13579252Y-8336407D01*
X13526280Y-8339285D01*
X13490707Y-8354020D01*
X13484542Y-8377581D01*
X13560000Y-8453040D01*
X13635458Y-8377581D01*
X13635458Y-8413502D01*
X13577960Y-8471000D01*
X13653419Y-8546458D01*
X13676980Y-8540293D01*
X13694593Y-8490252D01*
X13694593Y-8774720D01*
X13674598Y-8782981D01*
X13637053Y-8820461D01*
X13635458Y-8824302D01*
X13635458Y-8564419D01*
X13560000Y-8488961D01*
X13542039Y-8506921D01*
X13542039Y-8471000D01*
X13466581Y-8395542D01*
X13443020Y-8401707D01*
X13425407Y-8451748D01*
X13428285Y-8504720D01*
X13443020Y-8540293D01*
X13466581Y-8546458D01*
X13542039Y-8471000D01*
X13542039Y-8506921D01*
X13484542Y-8564419D01*
X13490707Y-8587980D01*
X13540748Y-8605593D01*
X13593720Y-8602715D01*
X13629293Y-8587980D01*
X13635458Y-8564419D01*
X13635458Y-8824302D01*
X13616709Y-8869455D01*
X13616663Y-8922505D01*
X13636921Y-8971534D01*
X13674401Y-9009079D01*
X13723395Y-9029423D01*
X13776445Y-9029469D01*
X13825474Y-9009211D01*
X13863019Y-8971731D01*
X13883363Y-8922737D01*
X13883409Y-8869687D01*
X13883409Y-9377687D01*
X13863151Y-9328658D01*
X13825671Y-9291113D01*
X13776677Y-9270769D01*
X13723627Y-9270723D01*
X13674598Y-9290981D01*
X13637053Y-9328461D01*
X13616709Y-9377455D01*
X13616663Y-9430505D01*
X13636921Y-9479534D01*
X13674401Y-9517079D01*
X13723395Y-9537423D01*
X13776445Y-9537469D01*
X13825474Y-9517211D01*
X13863019Y-9479731D01*
X13883363Y-9430737D01*
X13883409Y-9377687D01*
X13883409Y-10117328D01*
X12482576Y-10117328D01*
X12482576Y-6725889D01*
X12522149Y-6765531D01*
X12637355Y-6813368D01*
X12762098Y-6813477D01*
X12877387Y-6765841D01*
X12965671Y-6677711D01*
X13013508Y-6562505D01*
X13013617Y-6437762D01*
X12965981Y-6322473D01*
X12926014Y-6282436D01*
X17317466Y-6282436D01*
X17317466Y-9674129D01*
X17317466Y-9674129D01*
G37*
X17317466Y-9674129D02*
X17277893Y-9634487D01*
X17162687Y-9586650D01*
X17137403Y-9586627D01*
X17137403Y-9073649D01*
X17117145Y-9024620D01*
X17083301Y-8990717D01*
X17083301Y-7354577D01*
X17083301Y-6592577D01*
X17063043Y-6543548D01*
X17025563Y-6506003D01*
X16976569Y-6485659D01*
X16923519Y-6485613D01*
X16874490Y-6505871D01*
X16836945Y-6543351D01*
X16816601Y-6592345D01*
X16816555Y-6645395D01*
X16836813Y-6694424D01*
X16874293Y-6731969D01*
X16923287Y-6752313D01*
X16976337Y-6752359D01*
X17025366Y-6732101D01*
X17062911Y-6694621D01*
X17083255Y-6645627D01*
X17083301Y-6592577D01*
X17083301Y-7354577D01*
X17063043Y-7305548D01*
X17025563Y-7268003D01*
X16976569Y-7247659D01*
X16923519Y-7247613D01*
X16874490Y-7267871D01*
X16836945Y-7305351D01*
X16816601Y-7354345D01*
X16816555Y-7407395D01*
X16836813Y-7456424D01*
X16874293Y-7493969D01*
X16923287Y-7514313D01*
X16976337Y-7514359D01*
X17025366Y-7494101D01*
X17062911Y-7456621D01*
X17083255Y-7407627D01*
X17083301Y-7354577D01*
X17083301Y-8990717D01*
X17079665Y-8987075D01*
X17030671Y-8966731D01*
X16994594Y-8966700D01*
X16994594Y-8272850D01*
X16994594Y-8133150D01*
X16989896Y-8108938D01*
X16975917Y-8087657D01*
X16954814Y-8073412D01*
X16929850Y-8068406D01*
X16790150Y-8068406D01*
X16765938Y-8073104D01*
X16744657Y-8087083D01*
X16730412Y-8108186D01*
X16725406Y-8133150D01*
X16725406Y-8272850D01*
X16730104Y-8297062D01*
X16744083Y-8318343D01*
X16765186Y-8332588D01*
X16790150Y-8337594D01*
X16796564Y-8337594D01*
X16790707Y-8340020D01*
X16784542Y-8363581D01*
X16860000Y-8439040D01*
X16935458Y-8363581D01*
X16929293Y-8340020D01*
X16922400Y-8337594D01*
X16929850Y-8337594D01*
X16954062Y-8332896D01*
X16975343Y-8318917D01*
X16989588Y-8297814D01*
X16994594Y-8272850D01*
X16994594Y-8966700D01*
X16994593Y-8966700D01*
X16994593Y-8476252D01*
X16991715Y-8423280D01*
X16976980Y-8387707D01*
X16953419Y-8381542D01*
X16877961Y-8457000D01*
X16953419Y-8532458D01*
X16976980Y-8526293D01*
X16994593Y-8476252D01*
X16994593Y-8966700D01*
X16977621Y-8966685D01*
X16935458Y-8984106D01*
X16935458Y-8550419D01*
X16860000Y-8474961D01*
X16842040Y-8492921D01*
X16842040Y-8457000D01*
X16766581Y-8381542D01*
X16743020Y-8387707D01*
X16725407Y-8437748D01*
X16728285Y-8490720D01*
X16743020Y-8526293D01*
X16766581Y-8532458D01*
X16842040Y-8457000D01*
X16842040Y-8492921D01*
X16784542Y-8550419D01*
X16790707Y-8573980D01*
X16840748Y-8591593D01*
X16893720Y-8588715D01*
X16929293Y-8573980D01*
X16935458Y-8550419D01*
X16935458Y-8984106D01*
X16928592Y-8986943D01*
X16891047Y-9024423D01*
X16870703Y-9073417D01*
X16870657Y-9126467D01*
X16890915Y-9175496D01*
X16928395Y-9213041D01*
X16977389Y-9233385D01*
X17030439Y-9233431D01*
X17079468Y-9213173D01*
X17117013Y-9175693D01*
X17137357Y-9126699D01*
X17137403Y-9073649D01*
X17137403Y-9586627D01*
X17037944Y-9586541D01*
X16922655Y-9634177D01*
X16834371Y-9722307D01*
X16786534Y-9837513D01*
X16786425Y-9962256D01*
X16834061Y-10077545D01*
X16873775Y-10117328D01*
X16629403Y-10117328D01*
X16629403Y-9073649D01*
X16609145Y-9024620D01*
X16571665Y-8987075D01*
X16534594Y-8971682D01*
X16534594Y-7692850D01*
X16534594Y-7553150D01*
X16529896Y-7528938D01*
X16515917Y-7507657D01*
X16494814Y-7493412D01*
X16469850Y-7488406D01*
X16330150Y-7488406D01*
X16305938Y-7493104D01*
X16284657Y-7507083D01*
X16270412Y-7528186D01*
X16265406Y-7553150D01*
X16265406Y-7692850D01*
X16270104Y-7717062D01*
X16284083Y-7738343D01*
X16305186Y-7752588D01*
X16330150Y-7757594D01*
X16336564Y-7757594D01*
X16330707Y-7760020D01*
X16324542Y-7783581D01*
X16400000Y-7859039D01*
X16475458Y-7783581D01*
X16469293Y-7760020D01*
X16462400Y-7757594D01*
X16469850Y-7757594D01*
X16494062Y-7752896D01*
X16515343Y-7738917D01*
X16529588Y-7717814D01*
X16534594Y-7692850D01*
X16534594Y-8971682D01*
X16534593Y-8971681D01*
X16534593Y-7896252D01*
X16531715Y-7843280D01*
X16516980Y-7807707D01*
X16493419Y-7801542D01*
X16417960Y-7877000D01*
X16493419Y-7952458D01*
X16516980Y-7946293D01*
X16534593Y-7896252D01*
X16534593Y-8971681D01*
X16522671Y-8966731D01*
X16475458Y-8966690D01*
X16475458Y-7970419D01*
X16400000Y-7894960D01*
X16382039Y-7912921D01*
X16382039Y-7877000D01*
X16306581Y-7801542D01*
X16283020Y-7807707D01*
X16265407Y-7857748D01*
X16268285Y-7910720D01*
X16283020Y-7946293D01*
X16306581Y-7952458D01*
X16382039Y-7877000D01*
X16382039Y-7912921D01*
X16324542Y-7970419D01*
X16330707Y-7993980D01*
X16380748Y-8011593D01*
X16433720Y-8008715D01*
X16469293Y-7993980D01*
X16475458Y-7970419D01*
X16475458Y-8966690D01*
X16469621Y-8966685D01*
X16420592Y-8986943D01*
X16383047Y-9024423D01*
X16362703Y-9073417D01*
X16362657Y-9126467D01*
X16382915Y-9175496D01*
X16420395Y-9213041D01*
X16469389Y-9233385D01*
X16522439Y-9233431D01*
X16571468Y-9213173D01*
X16609013Y-9175693D01*
X16629357Y-9126699D01*
X16629403Y-9073649D01*
X16629403Y-10117328D01*
X16171594Y-10117328D01*
X16171594Y-6682850D01*
X16171594Y-6543150D01*
X16166896Y-6518938D01*
X16152917Y-6497657D01*
X16131814Y-6483412D01*
X16106850Y-6478406D01*
X15967150Y-6478406D01*
X15942938Y-6483104D01*
X15921657Y-6497083D01*
X15907412Y-6518186D01*
X15904211Y-6534150D01*
X15809874Y-6534150D01*
X15592862Y-6317138D01*
X15564021Y-6297867D01*
X15530000Y-6291100D01*
X13530000Y-6291100D01*
X13495979Y-6297867D01*
X13467138Y-6317138D01*
X13277138Y-6507138D01*
X13257867Y-6535979D01*
X13251100Y-6570000D01*
X13251100Y-7323176D01*
X12997138Y-7577138D01*
X12988900Y-7589467D01*
X12988900Y-7530000D01*
X12982133Y-7495979D01*
X12982133Y-7495979D01*
X12962862Y-7467138D01*
X12880862Y-7385138D01*
X12852021Y-7365867D01*
X12827048Y-7360900D01*
X12814441Y-7342033D01*
X12783493Y-7321354D01*
X12825073Y-7284204D01*
X12850471Y-7231479D01*
X12850736Y-7229903D01*
X12850736Y-7158097D01*
X12850471Y-7156521D01*
X12825073Y-7103796D01*
X12781432Y-7064805D01*
X12726191Y-7045482D01*
X12702700Y-7059908D01*
X12702700Y-7181300D01*
X12838622Y-7181300D01*
X12850736Y-7158097D01*
X12850736Y-7229903D01*
X12838622Y-7206700D01*
X12702700Y-7206700D01*
X12702700Y-7208700D01*
X12677300Y-7208700D01*
X12677300Y-7206700D01*
X12677300Y-7181300D01*
X12677300Y-7059908D01*
X12653809Y-7045482D01*
X12598568Y-7064805D01*
X12554927Y-7103796D01*
X12529529Y-7156521D01*
X12529264Y-7158097D01*
X12541378Y-7181300D01*
X12677300Y-7181300D01*
X12677300Y-7206700D01*
X12541378Y-7206700D01*
X12529264Y-7229903D01*
X12529529Y-7231479D01*
X12554927Y-7284204D01*
X12596507Y-7321354D01*
X12565558Y-7342033D01*
X12533073Y-7390651D01*
X12521665Y-7448000D01*
X12533073Y-7505349D01*
X12565558Y-7553967D01*
X12597036Y-7575000D01*
X12565558Y-7596033D01*
X12533073Y-7644651D01*
X12521665Y-7702000D01*
X12533073Y-7759349D01*
X12565558Y-7807967D01*
X12596507Y-7828646D01*
X12554927Y-7865796D01*
X12529529Y-7918521D01*
X12529264Y-7920097D01*
X12541378Y-7943300D01*
X12677300Y-7943300D01*
X12677300Y-7941300D01*
X12702700Y-7941300D01*
X12702700Y-7943300D01*
X12704700Y-7943300D01*
X12704700Y-7968700D01*
X12702700Y-7968700D01*
X12702700Y-7970700D01*
X12677300Y-7970700D01*
X12677300Y-7968700D01*
X12541378Y-7968700D01*
X12529264Y-7991903D01*
X12529529Y-7993479D01*
X12554927Y-8046204D01*
X12596507Y-8083354D01*
X12565558Y-8104033D01*
X12533073Y-8152651D01*
X12521665Y-8210000D01*
X12533073Y-8267349D01*
X12565558Y-8315967D01*
X12596507Y-8336646D01*
X12554927Y-8373796D01*
X12529529Y-8426521D01*
X12529264Y-8428097D01*
X12541378Y-8451300D01*
X12677300Y-8451300D01*
X12677300Y-8449300D01*
X12702700Y-8449300D01*
X12702700Y-8451300D01*
X12704700Y-8451300D01*
X12704700Y-8476700D01*
X12702700Y-8476700D01*
X12702700Y-8478700D01*
X12677300Y-8478700D01*
X12677300Y-8476700D01*
X12541378Y-8476700D01*
X12529264Y-8499903D01*
X12529529Y-8501479D01*
X12554927Y-8554204D01*
X12596507Y-8591354D01*
X12565558Y-8612033D01*
X12533073Y-8660651D01*
X12521665Y-8718000D01*
X12533073Y-8775349D01*
X12565558Y-8823967D01*
X12596507Y-8844646D01*
X12554927Y-8881796D01*
X12529529Y-8934521D01*
X12529264Y-8936097D01*
X12541378Y-8959300D01*
X12677300Y-8959300D01*
X12677300Y-8957300D01*
X12702700Y-8957300D01*
X12702700Y-8959300D01*
X12704700Y-8959300D01*
X12704700Y-8984700D01*
X12702700Y-8984700D01*
X12702700Y-8986700D01*
X12677300Y-8986700D01*
X12677300Y-8984700D01*
X12541378Y-8984700D01*
X12529264Y-9007903D01*
X12529529Y-9009479D01*
X12554927Y-9062204D01*
X12572570Y-9077967D01*
X12564188Y-9079594D01*
X12542907Y-9093573D01*
X12528662Y-9114676D01*
X12523656Y-9139640D01*
X12523656Y-9312360D01*
X12528354Y-9336572D01*
X12542333Y-9357853D01*
X12563436Y-9372098D01*
X12588400Y-9377104D01*
X12791600Y-9377104D01*
X12815812Y-9372406D01*
X12837093Y-9358427D01*
X12851338Y-9337324D01*
X12856344Y-9312360D01*
X12856344Y-9185380D01*
X13122862Y-8918862D01*
X13142133Y-8890021D01*
X13142133Y-8890021D01*
X13148900Y-8856000D01*
X13148900Y-7676824D01*
X13402862Y-7422862D01*
X13422133Y-7394021D01*
X13422133Y-7394020D01*
X13428900Y-7360000D01*
X13428900Y-6606824D01*
X13533119Y-6502605D01*
X13516633Y-6542307D01*
X13516587Y-6595357D01*
X13536845Y-6644386D01*
X13574325Y-6681931D01*
X13623319Y-6702275D01*
X13676369Y-6702321D01*
X13725398Y-6682063D01*
X13762943Y-6644583D01*
X13783287Y-6595589D01*
X13783333Y-6542539D01*
X13763075Y-6493510D01*
X13738507Y-6468900D01*
X14661506Y-6468900D01*
X14637051Y-6493313D01*
X14616707Y-6542307D01*
X14616661Y-6595357D01*
X14636919Y-6644386D01*
X14674399Y-6681931D01*
X14723393Y-6702275D01*
X14776443Y-6702321D01*
X14825472Y-6682063D01*
X14863017Y-6644583D01*
X14883361Y-6595589D01*
X14883407Y-6542539D01*
X14863149Y-6493510D01*
X14838581Y-6468900D01*
X15161378Y-6468900D01*
X15136923Y-6493313D01*
X15116579Y-6542307D01*
X15116533Y-6595357D01*
X15136791Y-6644386D01*
X15174271Y-6681931D01*
X15223265Y-6702275D01*
X15276315Y-6702321D01*
X15325344Y-6682063D01*
X15362889Y-6644583D01*
X15383233Y-6595589D01*
X15383279Y-6542539D01*
X15363021Y-6493510D01*
X15338453Y-6468900D01*
X15493176Y-6468900D01*
X15710188Y-6685912D01*
X15739029Y-6705183D01*
X15739029Y-6705183D01*
X15773050Y-6711950D01*
X15910314Y-6711950D01*
X15921083Y-6728343D01*
X15942186Y-6742588D01*
X15967150Y-6747594D01*
X15976788Y-6747594D01*
X15961562Y-6753885D01*
X15924017Y-6791365D01*
X15909991Y-6825145D01*
X15896115Y-6791562D01*
X15858635Y-6754017D01*
X15809641Y-6733673D01*
X15756591Y-6733627D01*
X15707562Y-6753885D01*
X15670017Y-6791365D01*
X15649673Y-6840359D01*
X15649627Y-6893409D01*
X15669885Y-6942438D01*
X15707365Y-6979983D01*
X15756359Y-7000327D01*
X15809409Y-7000373D01*
X15858438Y-6980115D01*
X15895983Y-6942635D01*
X15910009Y-6908855D01*
X15923885Y-6942438D01*
X15961365Y-6979983D01*
X16010359Y-7000327D01*
X16063409Y-7000373D01*
X16112438Y-6980115D01*
X16149983Y-6942635D01*
X16170327Y-6893641D01*
X16170373Y-6840591D01*
X16150115Y-6791562D01*
X16112635Y-6754017D01*
X16097166Y-6747594D01*
X16106850Y-6747594D01*
X16131062Y-6742896D01*
X16152343Y-6728917D01*
X16166588Y-6707814D01*
X16171594Y-6682850D01*
X16171594Y-10117328D01*
X16031593Y-10117328D01*
X16031593Y-9059252D01*
X16028715Y-9006280D01*
X16013980Y-8970707D01*
X15990419Y-8964542D01*
X15983481Y-8971479D01*
X15983481Y-8354575D01*
X15983481Y-7592575D01*
X15963223Y-7543546D01*
X15925743Y-7506001D01*
X15876749Y-7485657D01*
X15823699Y-7485611D01*
X15774670Y-7505869D01*
X15737125Y-7543349D01*
X15716781Y-7592343D01*
X15716735Y-7645393D01*
X15736993Y-7694422D01*
X15774473Y-7731967D01*
X15823467Y-7752311D01*
X15876517Y-7752357D01*
X15925546Y-7732099D01*
X15963091Y-7694619D01*
X15983435Y-7645625D01*
X15983481Y-7592575D01*
X15983481Y-8354575D01*
X15963223Y-8305546D01*
X15925743Y-8268001D01*
X15876749Y-8247657D01*
X15823699Y-8247611D01*
X15774670Y-8267869D01*
X15737125Y-8305349D01*
X15716781Y-8354343D01*
X15716735Y-8407393D01*
X15736993Y-8456422D01*
X15774473Y-8493967D01*
X15823467Y-8514311D01*
X15876517Y-8514357D01*
X15925546Y-8494099D01*
X15963091Y-8456619D01*
X15983435Y-8407625D01*
X15983481Y-8354575D01*
X15983481Y-8971479D01*
X15972458Y-8982502D01*
X15972458Y-8946581D01*
X15966293Y-8923020D01*
X15916252Y-8905407D01*
X15863280Y-8908285D01*
X15827707Y-8923020D01*
X15821542Y-8946581D01*
X15897000Y-9022040D01*
X15972458Y-8946581D01*
X15972458Y-8982502D01*
X15914960Y-9040000D01*
X15990419Y-9115458D01*
X16013980Y-9109293D01*
X16031593Y-9059252D01*
X16031593Y-10117328D01*
X15972458Y-10117328D01*
X15972458Y-9133419D01*
X15897000Y-9057961D01*
X15879039Y-9075921D01*
X15879039Y-9040000D01*
X15803581Y-8964542D01*
X15780020Y-8970707D01*
X15777594Y-8977600D01*
X15777594Y-8970150D01*
X15772896Y-8945938D01*
X15758917Y-8924657D01*
X15737814Y-8910412D01*
X15712850Y-8905406D01*
X15573150Y-8905406D01*
X15548938Y-8910104D01*
X15527657Y-8924083D01*
X15513412Y-8945186D01*
X15508406Y-8970150D01*
X15508406Y-9109850D01*
X15513104Y-9134062D01*
X15527083Y-9155343D01*
X15548186Y-9169588D01*
X15573150Y-9174594D01*
X15712850Y-9174594D01*
X15737062Y-9169896D01*
X15758343Y-9155917D01*
X15772588Y-9134814D01*
X15777594Y-9109850D01*
X15777594Y-9103436D01*
X15780020Y-9109293D01*
X15803581Y-9115458D01*
X15879039Y-9040000D01*
X15879039Y-9075921D01*
X15821542Y-9133419D01*
X15827707Y-9156980D01*
X15877748Y-9174593D01*
X15930720Y-9171715D01*
X15966293Y-9156980D01*
X15972458Y-9133419D01*
X15972458Y-10117328D01*
X15400373Y-10117328D01*
X15400373Y-7886591D01*
X15383279Y-7845221D01*
X15383279Y-7304539D01*
X15363021Y-7255510D01*
X15325541Y-7217965D01*
X15276547Y-7197621D01*
X15223497Y-7197575D01*
X15174468Y-7217833D01*
X15136923Y-7255313D01*
X15116579Y-7304307D01*
X15116533Y-7357357D01*
X15136791Y-7406386D01*
X15174271Y-7443931D01*
X15223265Y-7464275D01*
X15276315Y-7464321D01*
X15325344Y-7444063D01*
X15362889Y-7406583D01*
X15383233Y-7357589D01*
X15383279Y-7304539D01*
X15383279Y-7845221D01*
X15380115Y-7837562D01*
X15342635Y-7800017D01*
X15293641Y-7779673D01*
X15240591Y-7779627D01*
X15191562Y-7799885D01*
X15154017Y-7837365D01*
X15139991Y-7871145D01*
X15126115Y-7837562D01*
X15088635Y-7800017D01*
X15039641Y-7779673D01*
X14986591Y-7779627D01*
X14937562Y-7799885D01*
X14900017Y-7837365D01*
X14883407Y-7877366D01*
X14883407Y-7304539D01*
X14863149Y-7255510D01*
X14825669Y-7217965D01*
X14776675Y-7197621D01*
X14723625Y-7197575D01*
X14674596Y-7217833D01*
X14637051Y-7255313D01*
X14616707Y-7304307D01*
X14616661Y-7357357D01*
X14636919Y-7406386D01*
X14674399Y-7443931D01*
X14723393Y-7464275D01*
X14776443Y-7464321D01*
X14825472Y-7444063D01*
X14863017Y-7406583D01*
X14883361Y-7357589D01*
X14883407Y-7304539D01*
X14883407Y-7877366D01*
X14879673Y-7886359D01*
X14879627Y-7939409D01*
X14899885Y-7988438D01*
X14937365Y-8025983D01*
X14952834Y-8032406D01*
X14943150Y-8032406D01*
X14918938Y-8037104D01*
X14897657Y-8051083D01*
X14883412Y-8072186D01*
X14878406Y-8097150D01*
X14878406Y-8236850D01*
X14883104Y-8261062D01*
X14897083Y-8282343D01*
X14918186Y-8296588D01*
X14943150Y-8301594D01*
X15082850Y-8301594D01*
X15107062Y-8296896D01*
X15128343Y-8282917D01*
X15142588Y-8261814D01*
X15147594Y-8236850D01*
X15147594Y-8097150D01*
X15142896Y-8072938D01*
X15128917Y-8051657D01*
X15107814Y-8037412D01*
X15082850Y-8032406D01*
X15073212Y-8032406D01*
X15088438Y-8026115D01*
X15125983Y-7988635D01*
X15140009Y-7954855D01*
X15153885Y-7988438D01*
X15191365Y-8025983D01*
X15240359Y-8046327D01*
X15293409Y-8046373D01*
X15342438Y-8026115D01*
X15379983Y-7988635D01*
X15400327Y-7939641D01*
X15400373Y-7886591D01*
X15400373Y-10117328D01*
X15134563Y-10117328D01*
X15134563Y-9550348D01*
X15133343Y-9527900D01*
X15133343Y-8742687D01*
X15113085Y-8693658D01*
X15075605Y-8656113D01*
X15026611Y-8635769D01*
X14973561Y-8635723D01*
X14924532Y-8655981D01*
X14886987Y-8693461D01*
X14866643Y-8742455D01*
X14866597Y-8795505D01*
X14886855Y-8844534D01*
X14924335Y-8882079D01*
X14973329Y-8902423D01*
X15026379Y-8902469D01*
X15075408Y-8882211D01*
X15112953Y-8844731D01*
X15133297Y-8795737D01*
X15133343Y-8742687D01*
X15133343Y-9527900D01*
X15131685Y-9497376D01*
X15116950Y-9461803D01*
X15093389Y-9455638D01*
X15075428Y-9473598D01*
X15075428Y-9437677D01*
X15069263Y-9414116D01*
X15019222Y-9396503D01*
X14966250Y-9399381D01*
X14930677Y-9414116D01*
X14924512Y-9437677D01*
X14999970Y-9513136D01*
X15075428Y-9437677D01*
X15075428Y-9473598D01*
X15017930Y-9531096D01*
X15093389Y-9606554D01*
X15116950Y-9600389D01*
X15134563Y-9550348D01*
X15134563Y-10117328D01*
X15075428Y-10117328D01*
X15075428Y-9624515D01*
X14999970Y-9549057D01*
X14982009Y-9567017D01*
X14982009Y-9531096D01*
X14906551Y-9455638D01*
X14882990Y-9461803D01*
X14865377Y-9511844D01*
X14868255Y-9564816D01*
X14882990Y-9600389D01*
X14906551Y-9606554D01*
X14982009Y-9531096D01*
X14982009Y-9567017D01*
X14924512Y-9624515D01*
X14930677Y-9648076D01*
X14980718Y-9665689D01*
X15033690Y-9662811D01*
X15069263Y-9648076D01*
X15075428Y-9624515D01*
X15075428Y-10117328D01*
X14484577Y-10117328D01*
X14484577Y-9550348D01*
X14483357Y-9527900D01*
X14483357Y-8742687D01*
X14463099Y-8693658D01*
X14450373Y-8680910D01*
X14450373Y-7896591D01*
X14430115Y-7847562D01*
X14392635Y-7810017D01*
X14343641Y-7789673D01*
X14290591Y-7789627D01*
X14241562Y-7809885D01*
X14204017Y-7847365D01*
X14189991Y-7881145D01*
X14176115Y-7847562D01*
X14138635Y-7810017D01*
X14089641Y-7789673D01*
X14036591Y-7789627D01*
X13987562Y-7809885D01*
X13950017Y-7847365D01*
X13929673Y-7896359D01*
X13929627Y-7949409D01*
X13949885Y-7998438D01*
X13987365Y-8035983D01*
X14002834Y-8042406D01*
X13993150Y-8042406D01*
X13968938Y-8047104D01*
X13947657Y-8061083D01*
X13933412Y-8082186D01*
X13928406Y-8107150D01*
X13928406Y-8246850D01*
X13933104Y-8271062D01*
X13947083Y-8292343D01*
X13968186Y-8306588D01*
X13993150Y-8311594D01*
X14132850Y-8311594D01*
X14157062Y-8306896D01*
X14178343Y-8292917D01*
X14192588Y-8271814D01*
X14197594Y-8246850D01*
X14197594Y-8107150D01*
X14192896Y-8082938D01*
X14178917Y-8061657D01*
X14157814Y-8047412D01*
X14132850Y-8042406D01*
X14123212Y-8042406D01*
X14138438Y-8036115D01*
X14175983Y-7998635D01*
X14190009Y-7964855D01*
X14203885Y-7998438D01*
X14241365Y-8035983D01*
X14290359Y-8056327D01*
X14343409Y-8056373D01*
X14392438Y-8036115D01*
X14429983Y-7998635D01*
X14450327Y-7949641D01*
X14450373Y-7896591D01*
X14450373Y-8680910D01*
X14425619Y-8656113D01*
X14376625Y-8635769D01*
X14323575Y-8635723D01*
X14274546Y-8655981D01*
X14237001Y-8693461D01*
X14216657Y-8742455D01*
X14216611Y-8795505D01*
X14236869Y-8844534D01*
X14274349Y-8882079D01*
X14323343Y-8902423D01*
X14376393Y-8902469D01*
X14425422Y-8882211D01*
X14462967Y-8844731D01*
X14483311Y-8795737D01*
X14483357Y-8742687D01*
X14483357Y-9527900D01*
X14481699Y-9497376D01*
X14466964Y-9461803D01*
X14443403Y-9455638D01*
X14425442Y-9473598D01*
X14425442Y-9437677D01*
X14419277Y-9414116D01*
X14369236Y-9396503D01*
X14316264Y-9399381D01*
X14280691Y-9414116D01*
X14274526Y-9437677D01*
X14349984Y-9513136D01*
X14425442Y-9437677D01*
X14425442Y-9473598D01*
X14367944Y-9531096D01*
X14443403Y-9606554D01*
X14466964Y-9600389D01*
X14484577Y-9550348D01*
X14484577Y-10117328D01*
X14425442Y-10117328D01*
X14425442Y-9624515D01*
X14349984Y-9549057D01*
X14332023Y-9567017D01*
X14332023Y-9531096D01*
X14256565Y-9455638D01*
X14233004Y-9461803D01*
X14215391Y-9511844D01*
X14218269Y-9564816D01*
X14233004Y-9600389D01*
X14256565Y-9606554D01*
X14332023Y-9531096D01*
X14332023Y-9567017D01*
X14274526Y-9624515D01*
X14280691Y-9648076D01*
X14330732Y-9665689D01*
X14383704Y-9662811D01*
X14419277Y-9648076D01*
X14425442Y-9624515D01*
X14425442Y-10117328D01*
X13883409Y-10117328D01*
X13883409Y-9377687D01*
X13883409Y-8869687D01*
X13863151Y-8820658D01*
X13825671Y-8783113D01*
X13783333Y-8765533D01*
X13783333Y-7304539D01*
X13763075Y-7255510D01*
X13725595Y-7217965D01*
X13676601Y-7197621D01*
X13623551Y-7197575D01*
X13574522Y-7217833D01*
X13536977Y-7255313D01*
X13516633Y-7304307D01*
X13516587Y-7357357D01*
X13536845Y-7406386D01*
X13574325Y-7443931D01*
X13623319Y-7464275D01*
X13676369Y-7464321D01*
X13725398Y-7444063D01*
X13762943Y-7406583D01*
X13783287Y-7357589D01*
X13783333Y-7304539D01*
X13783333Y-8765533D01*
X13776677Y-8762769D01*
X13723627Y-8762723D01*
X13694593Y-8774720D01*
X13694593Y-8490252D01*
X13693373Y-8467804D01*
X13693373Y-7682591D01*
X13673115Y-7633562D01*
X13635635Y-7596017D01*
X13586641Y-7575673D01*
X13533591Y-7575627D01*
X13484562Y-7595885D01*
X13447017Y-7633365D01*
X13426673Y-7682359D01*
X13426627Y-7735409D01*
X13446885Y-7784438D01*
X13484365Y-7821983D01*
X13533359Y-7842327D01*
X13586409Y-7842373D01*
X13635438Y-7822115D01*
X13672983Y-7784635D01*
X13693327Y-7735641D01*
X13693373Y-7682591D01*
X13693373Y-8467804D01*
X13691715Y-8437280D01*
X13676980Y-8401707D01*
X13653419Y-8395542D01*
X13635458Y-8413502D01*
X13635458Y-8377581D01*
X13629293Y-8354020D01*
X13579252Y-8336407D01*
X13526280Y-8339285D01*
X13490707Y-8354020D01*
X13484542Y-8377581D01*
X13560000Y-8453040D01*
X13635458Y-8377581D01*
X13635458Y-8413502D01*
X13577960Y-8471000D01*
X13653419Y-8546458D01*
X13676980Y-8540293D01*
X13694593Y-8490252D01*
X13694593Y-8774720D01*
X13674598Y-8782981D01*
X13637053Y-8820461D01*
X13635458Y-8824302D01*
X13635458Y-8564419D01*
X13560000Y-8488961D01*
X13542039Y-8506921D01*
X13542039Y-8471000D01*
X13466581Y-8395542D01*
X13443020Y-8401707D01*
X13425407Y-8451748D01*
X13428285Y-8504720D01*
X13443020Y-8540293D01*
X13466581Y-8546458D01*
X13542039Y-8471000D01*
X13542039Y-8506921D01*
X13484542Y-8564419D01*
X13490707Y-8587980D01*
X13540748Y-8605593D01*
X13593720Y-8602715D01*
X13629293Y-8587980D01*
X13635458Y-8564419D01*
X13635458Y-8824302D01*
X13616709Y-8869455D01*
X13616663Y-8922505D01*
X13636921Y-8971534D01*
X13674401Y-9009079D01*
X13723395Y-9029423D01*
X13776445Y-9029469D01*
X13825474Y-9009211D01*
X13863019Y-8971731D01*
X13883363Y-8922737D01*
X13883409Y-8869687D01*
X13883409Y-9377687D01*
X13863151Y-9328658D01*
X13825671Y-9291113D01*
X13776677Y-9270769D01*
X13723627Y-9270723D01*
X13674598Y-9290981D01*
X13637053Y-9328461D01*
X13616709Y-9377455D01*
X13616663Y-9430505D01*
X13636921Y-9479534D01*
X13674401Y-9517079D01*
X13723395Y-9537423D01*
X13776445Y-9537469D01*
X13825474Y-9517211D01*
X13863019Y-9479731D01*
X13883363Y-9430737D01*
X13883409Y-9377687D01*
X13883409Y-10117328D01*
X12482576Y-10117328D01*
X12482576Y-6725889D01*
X12522149Y-6765531D01*
X12637355Y-6813368D01*
X12762098Y-6813477D01*
X12877387Y-6765841D01*
X12965671Y-6677711D01*
X13013508Y-6562505D01*
X13013617Y-6437762D01*
X12965981Y-6322473D01*
X12926014Y-6282436D01*
X17317466Y-6282436D01*
X17317466Y-9674129D01*
M02*
