G04 #@! TF.FileFunction,Copper,L2,Bot,Signal*
%FSLAX45Y45*%
G04 Gerber Fmt 4.5, Leading zero omitted, Abs format (unit mm)*
G04 Created by KiCad (PCBNEW (2015-01-25 BZR 5388)-product) date Mo 03 Aug 2015 14:14:46 CEST*
%MOMM*%
G01*
G04 APERTURE LIST*
%ADD10C,0.150000*%
%ADD11C,5.001260*%
%ADD12C,1.422400*%
%ADD13C,1.397000*%
%ADD14R,8.999220X1.524000*%
%ADD15R,6.096000X1.998980*%
%ADD16C,1.998980*%
%ADD17C,1.600200*%
%ADD18C,0.508000*%
%ADD19C,0.254000*%
G04 APERTURE END LIST*
D10*
D11*
X17100042Y-9900158D03*
X12700000Y-6499860D03*
D12*
X15296000Y-9500000D03*
X15804000Y-9500000D03*
X15296000Y-8800000D03*
X15804000Y-8800000D03*
X15804000Y-7750000D03*
X15296000Y-7750000D03*
X15496000Y-6650000D03*
X16004000Y-6650000D03*
X13996000Y-6650000D03*
X14504000Y-6650000D03*
X14503908Y-7750048D03*
X13995908Y-7750048D03*
X13995908Y-8750046D03*
X14503908Y-8750046D03*
X13995908Y-9500108D03*
X14503908Y-9500108D03*
D13*
X15296000Y-8250000D03*
X15804000Y-8250000D03*
X15994000Y-7250000D03*
X15486000Y-7250000D03*
X14004036Y-7249922D03*
X13496036Y-7249922D03*
X15000000Y-6646000D03*
X15000000Y-7154000D03*
X14503908Y-8249920D03*
X13995908Y-8249920D03*
D14*
X12900074Y-8519484D03*
D10*
G36*
X12510819Y-8103051D02*
X12510819Y-8302949D01*
X12460781Y-8243005D01*
X12460781Y-8162995D01*
X12510819Y-8103051D01*
X12510819Y-8103051D01*
G37*
D14*
X12900074Y-7887024D03*
D15*
X12816000Y-8203000D03*
D16*
X13010056Y-8197920D03*
D17*
X12760120Y-7947984D03*
X12760120Y-8448110D03*
D16*
X13259992Y-8448110D03*
X13259992Y-7947984D03*
D14*
X16879926Y-7080516D03*
D10*
G36*
X17269181Y-7496949D02*
X17269181Y-7297051D01*
X17319219Y-7356995D01*
X17319219Y-7437005D01*
X17269181Y-7496949D01*
X17269181Y-7496949D01*
G37*
D14*
X16879926Y-7712976D03*
D15*
X16964000Y-7397000D03*
D16*
X16769944Y-7402080D03*
D17*
X17019880Y-7652016D03*
X17019880Y-7151890D03*
D16*
X16520008Y-7151890D03*
X16520008Y-7652016D03*
D14*
X16879926Y-8680516D03*
D10*
G36*
X17269181Y-9096949D02*
X17269181Y-8897051D01*
X17319219Y-8956995D01*
X17319219Y-9037005D01*
X17269181Y-9096949D01*
X17269181Y-9096949D01*
G37*
D14*
X16879926Y-9312976D03*
D15*
X16964000Y-8997000D03*
D16*
X16769944Y-9002080D03*
D17*
X17019880Y-9252016D03*
X17019880Y-8751890D03*
D16*
X16520008Y-8751890D03*
X16520008Y-9252016D03*
D18*
X16879926Y-8479926D02*
X16800000Y-8400000D01*
X16879926Y-8680516D02*
X16879926Y-8479926D01*
X14503908Y-8249920D02*
X14503908Y-7750048D01*
X14503908Y-8753856D02*
X14500098Y-8750046D01*
X14503908Y-8246110D02*
X14500098Y-8249920D01*
X14500098Y-8249920D02*
X14503908Y-8246110D01*
X14503908Y-8750046D02*
X14503908Y-8246110D01*
X14503908Y-9500108D02*
X14503908Y-8753856D01*
X14500098Y-8249920D02*
X14503908Y-8249920D01*
X13995908Y-7750048D02*
X13995908Y-7258050D01*
X13995908Y-7258050D02*
X14004036Y-7249922D01*
X13996000Y-7241886D02*
X14004036Y-7249922D01*
X13996000Y-6650000D02*
X13996000Y-7241886D01*
X15004000Y-6650000D02*
X15000000Y-6646000D01*
X15496000Y-6650000D02*
X15004000Y-6650000D01*
X14508000Y-6646000D02*
X14504000Y-6650000D01*
X15000000Y-6646000D02*
X14508000Y-6646000D01*
X16004032Y-7241794D02*
X15995904Y-7249922D01*
X15804000Y-7440000D02*
X15994000Y-7250000D01*
X15804000Y-7750000D02*
X15804000Y-7440000D01*
X15994000Y-6660000D02*
X16004000Y-6650000D01*
X15994000Y-7250000D02*
X15994000Y-6660000D01*
X15296000Y-8800000D02*
X15296000Y-8250000D01*
X15296000Y-9500000D02*
X15296000Y-8800000D01*
X15296000Y-8250000D02*
X15296000Y-7750000D01*
X13995908Y-9500108D02*
X13995908Y-8750046D01*
X13995908Y-8750046D02*
X13995908Y-8695690D01*
X13493000Y-8203000D02*
X12816000Y-8203000D01*
X13995908Y-8705908D02*
X13493000Y-8203000D01*
X15804000Y-9500000D02*
X15804000Y-8800000D01*
X15950000Y-8800000D02*
X16147000Y-8997000D01*
X16147000Y-8997000D02*
X16964000Y-8997000D01*
X16961000Y-7400000D02*
X16964000Y-7397000D01*
X16200000Y-8550000D02*
X16200000Y-7550000D01*
X16200000Y-7550000D02*
X16350000Y-7400000D01*
X16350000Y-7400000D02*
X16961000Y-7400000D01*
X15950000Y-8800000D02*
X16200000Y-8550000D01*
X15804000Y-8800000D02*
X15950000Y-8800000D01*
X17300000Y-7400000D02*
X17294200Y-7397000D01*
X17297000Y-7397000D02*
X17300000Y-7400000D01*
X16964000Y-7397000D02*
X17297000Y-7397000D01*
D19*
G36*
X17317466Y-8540816D02*
X16908501Y-8540816D01*
X16892626Y-8556691D01*
X16892626Y-8667816D01*
X16894626Y-8667816D01*
X16894626Y-8676441D01*
X16894485Y-8676484D01*
X16887752Y-8695216D01*
X16867226Y-8695216D01*
X16867226Y-8693216D01*
X16673801Y-8693216D01*
X16663280Y-8667816D01*
X16867226Y-8667816D01*
X16867226Y-8556691D01*
X16851351Y-8540816D01*
X16417334Y-8540816D01*
X16393995Y-8550483D01*
X16376132Y-8568346D01*
X16366465Y-8591685D01*
X16366465Y-8616947D01*
X16366465Y-8651941D01*
X16378773Y-8664250D01*
X16378111Y-8664494D01*
X16355468Y-8725448D01*
X16357874Y-8790428D01*
X16378111Y-8839286D01*
X16404792Y-8849146D01*
X16433721Y-8820216D01*
X16469642Y-8820216D01*
X16422752Y-8867106D01*
X16432612Y-8893787D01*
X16471142Y-8908100D01*
X16183824Y-8908100D01*
X16075724Y-8800000D01*
X16262862Y-8612862D01*
X16282133Y-8584021D01*
X16282133Y-8584021D01*
X16288900Y-8550000D01*
X16288900Y-7586824D01*
X16386824Y-7488900D01*
X16437300Y-7488900D01*
X16437300Y-7508178D01*
X16432612Y-7510119D01*
X16422752Y-7536800D01*
X16437300Y-7551347D01*
X16437300Y-7573276D01*
X16423307Y-7573276D01*
X16404792Y-7554760D01*
X16378111Y-7564620D01*
X16355468Y-7625574D01*
X16357874Y-7690554D01*
X16375327Y-7732689D01*
X16366465Y-7741551D01*
X16366465Y-7776545D01*
X16366465Y-7801807D01*
X16376132Y-7825146D01*
X16393995Y-7843009D01*
X16417334Y-7852676D01*
X16851351Y-7852676D01*
X16867226Y-7836801D01*
X16867226Y-7725676D01*
X16667007Y-7725676D01*
X16671827Y-7712700D01*
X16888387Y-7712700D01*
X16893762Y-7725676D01*
X16892626Y-7725676D01*
X16892626Y-7836801D01*
X16908501Y-7852676D01*
X17317466Y-7852676D01*
X17317466Y-8540816D01*
X17317466Y-8540816D01*
G37*
X17317466Y-8540816D02*
X16908501Y-8540816D01*
X16892626Y-8556691D01*
X16892626Y-8667816D01*
X16894626Y-8667816D01*
X16894626Y-8676441D01*
X16894485Y-8676484D01*
X16887752Y-8695216D01*
X16867226Y-8695216D01*
X16867226Y-8693216D01*
X16673801Y-8693216D01*
X16663280Y-8667816D01*
X16867226Y-8667816D01*
X16867226Y-8556691D01*
X16851351Y-8540816D01*
X16417334Y-8540816D01*
X16393995Y-8550483D01*
X16376132Y-8568346D01*
X16366465Y-8591685D01*
X16366465Y-8616947D01*
X16366465Y-8651941D01*
X16378773Y-8664250D01*
X16378111Y-8664494D01*
X16355468Y-8725448D01*
X16357874Y-8790428D01*
X16378111Y-8839286D01*
X16404792Y-8849146D01*
X16433721Y-8820216D01*
X16469642Y-8820216D01*
X16422752Y-8867106D01*
X16432612Y-8893787D01*
X16471142Y-8908100D01*
X16183824Y-8908100D01*
X16075724Y-8800000D01*
X16262862Y-8612862D01*
X16282133Y-8584021D01*
X16282133Y-8584021D01*
X16288900Y-8550000D01*
X16288900Y-7586824D01*
X16386824Y-7488900D01*
X16437300Y-7488900D01*
X16437300Y-7508178D01*
X16432612Y-7510119D01*
X16422752Y-7536800D01*
X16437300Y-7551347D01*
X16437300Y-7573276D01*
X16423307Y-7573276D01*
X16404792Y-7554760D01*
X16378111Y-7564620D01*
X16355468Y-7625574D01*
X16357874Y-7690554D01*
X16375327Y-7732689D01*
X16366465Y-7741551D01*
X16366465Y-7776545D01*
X16366465Y-7801807D01*
X16376132Y-7825146D01*
X16393995Y-7843009D01*
X16417334Y-7852676D01*
X16851351Y-7852676D01*
X16867226Y-7836801D01*
X16867226Y-7725676D01*
X16667007Y-7725676D01*
X16671827Y-7712700D01*
X16888387Y-7712700D01*
X16893762Y-7725676D01*
X16892626Y-7725676D01*
X16892626Y-7836801D01*
X16908501Y-7852676D01*
X17317466Y-7852676D01*
X17317466Y-8540816D01*
G36*
X17317466Y-9674129D02*
X17277893Y-9634487D01*
X17162687Y-9586650D01*
X17037944Y-9586541D01*
X16922655Y-9634177D01*
X16834371Y-9722307D01*
X16786534Y-9837513D01*
X16786425Y-9962256D01*
X16834061Y-10077545D01*
X16873775Y-10117328D01*
X15630643Y-10117328D01*
X15630643Y-6623340D01*
X15610192Y-6573843D01*
X15572356Y-6535941D01*
X15522895Y-6515403D01*
X15469340Y-6515357D01*
X15419843Y-6535808D01*
X15394507Y-6561100D01*
X15103669Y-6561100D01*
X15075635Y-6533017D01*
X15026641Y-6512673D01*
X14973591Y-6512627D01*
X14924562Y-6532885D01*
X14900305Y-6557100D01*
X14601477Y-6557100D01*
X14580356Y-6535941D01*
X14530895Y-6515403D01*
X14477340Y-6515357D01*
X14427843Y-6535808D01*
X14389941Y-6573644D01*
X14369403Y-6623105D01*
X14369357Y-6676660D01*
X14389808Y-6726156D01*
X14427644Y-6764059D01*
X14477105Y-6784597D01*
X14530660Y-6784643D01*
X14580156Y-6764192D01*
X14609499Y-6734900D01*
X14900324Y-6734900D01*
X14924365Y-6758983D01*
X14973359Y-6779327D01*
X15026409Y-6779373D01*
X15075438Y-6759115D01*
X15095688Y-6738900D01*
X15394529Y-6738900D01*
X15419644Y-6764059D01*
X15469105Y-6784597D01*
X15522660Y-6784643D01*
X15572156Y-6764192D01*
X15610059Y-6726356D01*
X15630597Y-6676895D01*
X15630643Y-6623340D01*
X15630643Y-10117328D01*
X15620593Y-10117328D01*
X15620593Y-7269252D01*
X15617715Y-7216280D01*
X15602980Y-7180707D01*
X15579419Y-7174542D01*
X15561458Y-7192502D01*
X15561458Y-7156581D01*
X15555293Y-7133020D01*
X15505252Y-7115407D01*
X15452280Y-7118285D01*
X15416707Y-7133020D01*
X15410542Y-7156581D01*
X15486000Y-7232039D01*
X15561458Y-7156581D01*
X15561458Y-7192502D01*
X15503960Y-7250000D01*
X15579419Y-7325458D01*
X15602980Y-7319293D01*
X15620593Y-7269252D01*
X15620593Y-10117328D01*
X15561458Y-10117328D01*
X15561458Y-7343419D01*
X15486000Y-7267960D01*
X15468039Y-7285921D01*
X15468039Y-7250000D01*
X15392581Y-7174542D01*
X15369020Y-7180707D01*
X15351407Y-7230748D01*
X15354285Y-7283720D01*
X15369020Y-7319293D01*
X15392581Y-7325458D01*
X15468039Y-7250000D01*
X15468039Y-7285921D01*
X15410542Y-7343419D01*
X15416707Y-7366980D01*
X15466748Y-7384593D01*
X15519720Y-7381715D01*
X15555293Y-7366980D01*
X15561458Y-7343419D01*
X15561458Y-10117328D01*
X15430643Y-10117328D01*
X15430643Y-9473340D01*
X15410192Y-9423844D01*
X15384900Y-9398507D01*
X15384900Y-8901471D01*
X15410059Y-8876356D01*
X15430597Y-8826895D01*
X15430643Y-8773340D01*
X15410192Y-8723844D01*
X15384900Y-8698507D01*
X15384900Y-8349676D01*
X15408983Y-8325635D01*
X15429327Y-8276641D01*
X15429373Y-8223591D01*
X15409115Y-8174562D01*
X15384900Y-8150305D01*
X15384900Y-7851471D01*
X15410059Y-7826356D01*
X15430597Y-7776895D01*
X15430643Y-7723340D01*
X15410192Y-7673843D01*
X15372356Y-7635941D01*
X15322895Y-7615403D01*
X15269340Y-7615357D01*
X15219843Y-7635808D01*
X15181941Y-7673644D01*
X15161403Y-7723105D01*
X15161357Y-7776660D01*
X15181808Y-7826156D01*
X15207100Y-7851492D01*
X15207100Y-8150324D01*
X15183017Y-8174365D01*
X15162673Y-8223359D01*
X15162627Y-8276409D01*
X15182885Y-8325438D01*
X15207100Y-8349695D01*
X15207100Y-8698529D01*
X15181941Y-8723644D01*
X15161403Y-8773105D01*
X15161357Y-8826660D01*
X15181808Y-8876157D01*
X15207100Y-8901493D01*
X15207100Y-9398529D01*
X15181941Y-9423644D01*
X15161403Y-9473105D01*
X15161357Y-9526660D01*
X15181808Y-9576157D01*
X15219644Y-9614059D01*
X15269105Y-9634597D01*
X15322660Y-9634643D01*
X15372156Y-9614192D01*
X15410059Y-9576356D01*
X15430597Y-9526895D01*
X15430643Y-9473340D01*
X15430643Y-10117328D01*
X15134593Y-10117328D01*
X15134593Y-7173252D01*
X15131715Y-7120280D01*
X15116980Y-7084707D01*
X15093419Y-7078542D01*
X15075458Y-7096502D01*
X15075458Y-7060581D01*
X15069293Y-7037020D01*
X15019252Y-7019407D01*
X14966280Y-7022285D01*
X14930707Y-7037020D01*
X14924542Y-7060581D01*
X15000000Y-7136039D01*
X15075458Y-7060581D01*
X15075458Y-7096502D01*
X15017960Y-7154000D01*
X15093419Y-7229458D01*
X15116980Y-7223293D01*
X15134593Y-7173252D01*
X15134593Y-10117328D01*
X15075458Y-10117328D01*
X15075458Y-7247419D01*
X15000000Y-7171960D01*
X14982039Y-7189921D01*
X14982039Y-7154000D01*
X14906581Y-7078542D01*
X14883020Y-7084707D01*
X14865407Y-7134748D01*
X14868285Y-7187720D01*
X14883020Y-7223293D01*
X14906581Y-7229458D01*
X14982039Y-7154000D01*
X14982039Y-7189921D01*
X14924542Y-7247419D01*
X14930707Y-7270980D01*
X14980748Y-7288593D01*
X15033720Y-7285715D01*
X15069293Y-7270980D01*
X15075458Y-7247419D01*
X15075458Y-10117328D01*
X14638551Y-10117328D01*
X14638551Y-9473448D01*
X14618100Y-9423952D01*
X14592808Y-9398615D01*
X14592808Y-8851517D01*
X14617967Y-8826402D01*
X14638505Y-8776941D01*
X14638551Y-8723386D01*
X14618100Y-8673890D01*
X14592808Y-8648553D01*
X14592808Y-8349596D01*
X14616891Y-8325555D01*
X14637235Y-8276561D01*
X14637281Y-8223511D01*
X14617023Y-8174482D01*
X14592808Y-8150225D01*
X14592808Y-7851519D01*
X14617967Y-7826404D01*
X14638505Y-7776943D01*
X14638551Y-7723388D01*
X14618100Y-7673891D01*
X14580264Y-7635989D01*
X14530803Y-7615451D01*
X14477248Y-7615405D01*
X14427751Y-7635856D01*
X14389849Y-7673692D01*
X14369311Y-7723153D01*
X14369265Y-7776708D01*
X14389716Y-7826204D01*
X14415008Y-7851540D01*
X14415008Y-8150244D01*
X14390925Y-8174285D01*
X14370581Y-8223279D01*
X14370535Y-8276329D01*
X14390793Y-8325358D01*
X14415008Y-8349615D01*
X14415008Y-8648575D01*
X14389849Y-8673690D01*
X14369311Y-8723151D01*
X14369265Y-8776706D01*
X14389716Y-8826203D01*
X14415008Y-8851539D01*
X14415008Y-9398637D01*
X14389849Y-9423752D01*
X14369311Y-9473213D01*
X14369265Y-9526768D01*
X14389716Y-9576265D01*
X14427552Y-9614167D01*
X14477013Y-9634705D01*
X14530568Y-9634751D01*
X14580064Y-9614300D01*
X14617967Y-9576464D01*
X14638505Y-9527003D01*
X14638551Y-9473448D01*
X14638551Y-10117328D01*
X14137409Y-10117328D01*
X14137409Y-7223513D01*
X14117151Y-7174484D01*
X14084900Y-7142177D01*
X14084900Y-6751471D01*
X14110059Y-6726356D01*
X14130597Y-6676895D01*
X14130643Y-6623340D01*
X14110192Y-6573843D01*
X14072356Y-6535941D01*
X14022895Y-6515403D01*
X13969340Y-6515357D01*
X13919843Y-6535808D01*
X13881941Y-6573644D01*
X13861403Y-6623105D01*
X13861357Y-6676660D01*
X13881808Y-6726156D01*
X13907100Y-6751492D01*
X13907100Y-7158268D01*
X13891053Y-7174287D01*
X13870709Y-7223281D01*
X13870663Y-7276331D01*
X13890921Y-7325360D01*
X13907008Y-7341475D01*
X13907008Y-7648577D01*
X13881849Y-7673692D01*
X13861311Y-7723153D01*
X13861265Y-7776708D01*
X13881716Y-7826204D01*
X13919552Y-7864107D01*
X13969013Y-7884645D01*
X14022568Y-7884691D01*
X14072064Y-7864240D01*
X14109967Y-7826404D01*
X14130505Y-7776943D01*
X14130551Y-7723388D01*
X14110100Y-7673891D01*
X14084808Y-7648555D01*
X14084808Y-7357712D01*
X14117019Y-7325557D01*
X14137363Y-7276563D01*
X14137409Y-7223513D01*
X14137409Y-10117328D01*
X12482576Y-10117328D01*
X12482576Y-8659184D01*
X12871499Y-8659184D01*
X12887374Y-8643309D01*
X12887374Y-8532184D01*
X12885374Y-8532184D01*
X12885374Y-8523559D01*
X12885515Y-8523517D01*
X12892248Y-8504784D01*
X12912774Y-8504784D01*
X12912774Y-8506784D01*
X13106198Y-8506784D01*
X13116719Y-8532184D01*
X12912774Y-8532184D01*
X12912774Y-8643309D01*
X12928649Y-8659184D01*
X13362666Y-8659184D01*
X13386005Y-8649517D01*
X13403868Y-8631654D01*
X13413535Y-8608315D01*
X13413535Y-8583053D01*
X13413535Y-8548059D01*
X13401226Y-8535750D01*
X13401888Y-8535506D01*
X13424532Y-8474552D01*
X13422126Y-8409572D01*
X13401888Y-8360714D01*
X13375208Y-8350854D01*
X13346278Y-8379784D01*
X13312700Y-8379784D01*
X13312700Y-8377441D01*
X13357248Y-8332894D01*
X13347388Y-8306213D01*
X13312700Y-8293327D01*
X13312700Y-8291900D01*
X13456176Y-8291900D01*
X13868974Y-8704698D01*
X13861311Y-8723151D01*
X13861265Y-8776706D01*
X13881716Y-8826203D01*
X13907008Y-8851539D01*
X13907008Y-9398637D01*
X13881849Y-9423752D01*
X13861311Y-9473213D01*
X13861265Y-9526768D01*
X13881716Y-9576265D01*
X13919552Y-9614167D01*
X13969013Y-9634705D01*
X14022568Y-9634751D01*
X14072064Y-9614300D01*
X14109967Y-9576464D01*
X14130505Y-9527003D01*
X14130551Y-9473448D01*
X14110100Y-9423952D01*
X14084808Y-9398615D01*
X14084808Y-8851517D01*
X14109967Y-8826402D01*
X14130505Y-8776941D01*
X14130551Y-8723386D01*
X14130501Y-8723263D01*
X14130501Y-8269172D01*
X14127623Y-8216200D01*
X14112888Y-8180627D01*
X14089327Y-8174462D01*
X14071366Y-8192422D01*
X14071366Y-8156501D01*
X14065201Y-8132940D01*
X14015160Y-8115327D01*
X13962188Y-8118205D01*
X13926615Y-8132940D01*
X13920450Y-8156501D01*
X13995908Y-8231959D01*
X14071366Y-8156501D01*
X14071366Y-8192422D01*
X14013868Y-8249920D01*
X14089327Y-8325378D01*
X14112888Y-8319213D01*
X14130501Y-8269172D01*
X14130501Y-8723263D01*
X14110100Y-8673890D01*
X14072264Y-8635987D01*
X14071366Y-8635615D01*
X14071366Y-8343339D01*
X13995908Y-8267880D01*
X13977947Y-8285841D01*
X13977947Y-8249920D01*
X13902489Y-8174462D01*
X13878928Y-8180627D01*
X13861315Y-8230668D01*
X13864193Y-8283640D01*
X13878928Y-8319213D01*
X13902489Y-8325378D01*
X13977947Y-8249920D01*
X13977947Y-8285841D01*
X13920450Y-8343339D01*
X13926615Y-8366900D01*
X13976656Y-8384513D01*
X14029628Y-8381635D01*
X14065201Y-8366900D01*
X14071366Y-8343339D01*
X14071366Y-8635615D01*
X14049107Y-8626372D01*
X14029929Y-8613557D01*
X14029120Y-8613396D01*
X13630629Y-8214905D01*
X13630629Y-7269174D01*
X13627751Y-7216202D01*
X13613016Y-7180629D01*
X13589455Y-7174464D01*
X13571494Y-7192424D01*
X13571494Y-7156503D01*
X13565329Y-7132942D01*
X13515288Y-7115329D01*
X13462316Y-7118207D01*
X13426743Y-7132942D01*
X13420578Y-7156503D01*
X13496036Y-7231961D01*
X13571494Y-7156503D01*
X13571494Y-7192424D01*
X13513996Y-7249922D01*
X13589455Y-7325380D01*
X13613016Y-7319215D01*
X13630629Y-7269174D01*
X13630629Y-8214905D01*
X13571494Y-8155771D01*
X13571494Y-7343341D01*
X13496036Y-7267882D01*
X13478075Y-7285843D01*
X13478075Y-7249922D01*
X13402617Y-7174464D01*
X13379056Y-7180629D01*
X13361443Y-7230670D01*
X13364321Y-7283642D01*
X13379056Y-7319215D01*
X13402617Y-7325380D01*
X13478075Y-7249922D01*
X13478075Y-7285843D01*
X13420578Y-7343341D01*
X13426743Y-7366902D01*
X13476784Y-7384515D01*
X13529756Y-7381637D01*
X13565329Y-7366902D01*
X13571494Y-7343341D01*
X13571494Y-8155771D01*
X13555862Y-8140138D01*
X13527021Y-8120867D01*
X13493000Y-8114100D01*
X13312700Y-8114100D01*
X13312700Y-8104248D01*
X13347388Y-8089880D01*
X13357248Y-8063200D01*
X13320771Y-8026724D01*
X13356692Y-8026724D01*
X13375208Y-8045240D01*
X13401888Y-8035380D01*
X13424532Y-7974426D01*
X13422126Y-7909446D01*
X13404673Y-7867311D01*
X13413535Y-7858449D01*
X13413535Y-7823455D01*
X13413535Y-7798193D01*
X13403868Y-7774854D01*
X13386005Y-7756991D01*
X13362666Y-7747324D01*
X12928649Y-7747324D01*
X12912774Y-7763199D01*
X12912774Y-7874324D01*
X13112993Y-7874324D01*
X13103557Y-7899724D01*
X12912774Y-7899724D01*
X12912774Y-7901724D01*
X12897587Y-7901724D01*
X12886238Y-7874324D01*
X12887374Y-7874324D01*
X12887374Y-7763199D01*
X12871499Y-7747324D01*
X12482576Y-7747324D01*
X12482576Y-6725889D01*
X12522149Y-6765531D01*
X12637355Y-6813368D01*
X12762098Y-6813477D01*
X12877387Y-6765841D01*
X12965671Y-6677711D01*
X13013508Y-6562505D01*
X13013617Y-6437762D01*
X12965981Y-6322473D01*
X12926014Y-6282436D01*
X17317466Y-6282436D01*
X17317466Y-6940816D01*
X16908501Y-6940816D01*
X16892626Y-6956691D01*
X16892626Y-7067816D01*
X16894626Y-7067816D01*
X16894626Y-7076441D01*
X16894485Y-7076483D01*
X16887752Y-7095216D01*
X16867226Y-7095216D01*
X16867226Y-7093216D01*
X16673801Y-7093216D01*
X16663280Y-7067816D01*
X16867226Y-7067816D01*
X16867226Y-6956691D01*
X16851351Y-6940816D01*
X16417334Y-6940816D01*
X16393995Y-6950483D01*
X16376132Y-6968346D01*
X16366465Y-6991685D01*
X16366465Y-7016947D01*
X16366465Y-7051941D01*
X16378773Y-7064249D01*
X16378111Y-7064494D01*
X16355468Y-7125448D01*
X16357874Y-7190428D01*
X16378111Y-7239286D01*
X16404792Y-7249146D01*
X16433721Y-7220216D01*
X16437300Y-7220216D01*
X16437300Y-7252558D01*
X16422752Y-7267106D01*
X16432612Y-7293786D01*
X16437300Y-7295528D01*
X16437300Y-7311100D01*
X16350000Y-7311100D01*
X16315979Y-7317867D01*
X16287138Y-7337138D01*
X16138643Y-7485633D01*
X16138643Y-6623340D01*
X16118192Y-6573843D01*
X16080356Y-6535941D01*
X16030895Y-6515403D01*
X15977340Y-6515357D01*
X15927843Y-6535808D01*
X15889941Y-6573644D01*
X15869403Y-6623105D01*
X15869357Y-6676660D01*
X15889808Y-6726156D01*
X15905100Y-6741475D01*
X15905100Y-7150324D01*
X15881017Y-7174365D01*
X15860673Y-7223359D01*
X15860643Y-7257633D01*
X15741138Y-7377138D01*
X15721867Y-7405979D01*
X15715100Y-7440000D01*
X15715100Y-7648529D01*
X15689941Y-7673644D01*
X15669403Y-7723105D01*
X15669357Y-7776660D01*
X15689808Y-7826156D01*
X15727644Y-7864059D01*
X15777105Y-7884597D01*
X15830660Y-7884643D01*
X15880156Y-7864192D01*
X15918059Y-7826356D01*
X15938597Y-7776895D01*
X15938643Y-7723340D01*
X15918192Y-7673843D01*
X15892900Y-7648507D01*
X15892900Y-7476824D01*
X15986380Y-7383343D01*
X16020409Y-7383373D01*
X16069438Y-7363115D01*
X16106983Y-7325635D01*
X16127327Y-7276641D01*
X16127373Y-7223591D01*
X16107115Y-7174562D01*
X16082900Y-7150305D01*
X16082900Y-6761453D01*
X16118059Y-6726356D01*
X16138597Y-6676895D01*
X16138643Y-6623340D01*
X16138643Y-7485633D01*
X16137138Y-7487138D01*
X16117867Y-7515979D01*
X16111100Y-7550000D01*
X16111100Y-8513176D01*
X15938593Y-8685684D01*
X15938593Y-8269252D01*
X15935715Y-8216280D01*
X15920980Y-8180707D01*
X15897419Y-8174542D01*
X15879458Y-8192502D01*
X15879458Y-8156581D01*
X15873293Y-8133020D01*
X15823252Y-8115407D01*
X15770280Y-8118285D01*
X15734707Y-8133020D01*
X15728542Y-8156581D01*
X15804000Y-8232039D01*
X15879458Y-8156581D01*
X15879458Y-8192502D01*
X15821960Y-8250000D01*
X15897419Y-8325458D01*
X15920980Y-8319293D01*
X15938593Y-8269252D01*
X15938593Y-8685684D01*
X15913176Y-8711100D01*
X15905471Y-8711100D01*
X15880356Y-8685941D01*
X15879458Y-8685569D01*
X15879458Y-8343419D01*
X15804000Y-8267960D01*
X15786039Y-8285921D01*
X15786039Y-8250000D01*
X15710581Y-8174542D01*
X15687020Y-8180707D01*
X15669407Y-8230748D01*
X15672285Y-8283720D01*
X15687020Y-8319293D01*
X15710581Y-8325458D01*
X15786039Y-8250000D01*
X15786039Y-8285921D01*
X15728542Y-8343419D01*
X15734707Y-8366980D01*
X15784748Y-8384593D01*
X15837720Y-8381715D01*
X15873293Y-8366980D01*
X15879458Y-8343419D01*
X15879458Y-8685569D01*
X15830895Y-8665403D01*
X15777340Y-8665357D01*
X15727843Y-8685808D01*
X15689941Y-8723644D01*
X15669403Y-8773105D01*
X15669357Y-8826660D01*
X15689808Y-8876157D01*
X15715100Y-8901493D01*
X15715100Y-9398529D01*
X15689941Y-9423644D01*
X15669403Y-9473105D01*
X15669357Y-9526660D01*
X15689808Y-9576157D01*
X15727644Y-9614059D01*
X15777105Y-9634597D01*
X15830660Y-9634643D01*
X15880156Y-9614192D01*
X15918059Y-9576356D01*
X15938597Y-9526895D01*
X15938643Y-9473340D01*
X15918192Y-9423844D01*
X15892900Y-9398507D01*
X15892900Y-8901471D01*
X15905492Y-8888900D01*
X15913176Y-8888900D01*
X16084138Y-9059862D01*
X16112979Y-9079133D01*
X16112979Y-9079133D01*
X16147000Y-9085900D01*
X16537300Y-9085900D01*
X16537300Y-9087815D01*
X16481470Y-9089882D01*
X16432612Y-9110120D01*
X16422752Y-9136800D01*
X16459228Y-9173276D01*
X16423307Y-9173276D01*
X16404792Y-9154760D01*
X16378111Y-9164620D01*
X16355468Y-9225574D01*
X16357874Y-9290554D01*
X16375327Y-9332689D01*
X16366465Y-9341551D01*
X16366465Y-9376545D01*
X16366465Y-9401807D01*
X16376132Y-9425146D01*
X16393995Y-9443009D01*
X16417334Y-9452676D01*
X16851351Y-9452676D01*
X16867226Y-9436801D01*
X16867226Y-9325676D01*
X16667007Y-9325676D01*
X16676443Y-9300276D01*
X16867226Y-9300276D01*
X16867226Y-9298276D01*
X16882412Y-9298276D01*
X16893762Y-9325676D01*
X16892626Y-9325676D01*
X16892626Y-9436801D01*
X16908501Y-9452676D01*
X17317466Y-9452676D01*
X17317466Y-9674129D01*
X17317466Y-9674129D01*
G37*
X17317466Y-9674129D02*
X17277893Y-9634487D01*
X17162687Y-9586650D01*
X17037944Y-9586541D01*
X16922655Y-9634177D01*
X16834371Y-9722307D01*
X16786534Y-9837513D01*
X16786425Y-9962256D01*
X16834061Y-10077545D01*
X16873775Y-10117328D01*
X15630643Y-10117328D01*
X15630643Y-6623340D01*
X15610192Y-6573843D01*
X15572356Y-6535941D01*
X15522895Y-6515403D01*
X15469340Y-6515357D01*
X15419843Y-6535808D01*
X15394507Y-6561100D01*
X15103669Y-6561100D01*
X15075635Y-6533017D01*
X15026641Y-6512673D01*
X14973591Y-6512627D01*
X14924562Y-6532885D01*
X14900305Y-6557100D01*
X14601477Y-6557100D01*
X14580356Y-6535941D01*
X14530895Y-6515403D01*
X14477340Y-6515357D01*
X14427843Y-6535808D01*
X14389941Y-6573644D01*
X14369403Y-6623105D01*
X14369357Y-6676660D01*
X14389808Y-6726156D01*
X14427644Y-6764059D01*
X14477105Y-6784597D01*
X14530660Y-6784643D01*
X14580156Y-6764192D01*
X14609499Y-6734900D01*
X14900324Y-6734900D01*
X14924365Y-6758983D01*
X14973359Y-6779327D01*
X15026409Y-6779373D01*
X15075438Y-6759115D01*
X15095688Y-6738900D01*
X15394529Y-6738900D01*
X15419644Y-6764059D01*
X15469105Y-6784597D01*
X15522660Y-6784643D01*
X15572156Y-6764192D01*
X15610059Y-6726356D01*
X15630597Y-6676895D01*
X15630643Y-6623340D01*
X15630643Y-10117328D01*
X15620593Y-10117328D01*
X15620593Y-7269252D01*
X15617715Y-7216280D01*
X15602980Y-7180707D01*
X15579419Y-7174542D01*
X15561458Y-7192502D01*
X15561458Y-7156581D01*
X15555293Y-7133020D01*
X15505252Y-7115407D01*
X15452280Y-7118285D01*
X15416707Y-7133020D01*
X15410542Y-7156581D01*
X15486000Y-7232039D01*
X15561458Y-7156581D01*
X15561458Y-7192502D01*
X15503960Y-7250000D01*
X15579419Y-7325458D01*
X15602980Y-7319293D01*
X15620593Y-7269252D01*
X15620593Y-10117328D01*
X15561458Y-10117328D01*
X15561458Y-7343419D01*
X15486000Y-7267960D01*
X15468039Y-7285921D01*
X15468039Y-7250000D01*
X15392581Y-7174542D01*
X15369020Y-7180707D01*
X15351407Y-7230748D01*
X15354285Y-7283720D01*
X15369020Y-7319293D01*
X15392581Y-7325458D01*
X15468039Y-7250000D01*
X15468039Y-7285921D01*
X15410542Y-7343419D01*
X15416707Y-7366980D01*
X15466748Y-7384593D01*
X15519720Y-7381715D01*
X15555293Y-7366980D01*
X15561458Y-7343419D01*
X15561458Y-10117328D01*
X15430643Y-10117328D01*
X15430643Y-9473340D01*
X15410192Y-9423844D01*
X15384900Y-9398507D01*
X15384900Y-8901471D01*
X15410059Y-8876356D01*
X15430597Y-8826895D01*
X15430643Y-8773340D01*
X15410192Y-8723844D01*
X15384900Y-8698507D01*
X15384900Y-8349676D01*
X15408983Y-8325635D01*
X15429327Y-8276641D01*
X15429373Y-8223591D01*
X15409115Y-8174562D01*
X15384900Y-8150305D01*
X15384900Y-7851471D01*
X15410059Y-7826356D01*
X15430597Y-7776895D01*
X15430643Y-7723340D01*
X15410192Y-7673843D01*
X15372356Y-7635941D01*
X15322895Y-7615403D01*
X15269340Y-7615357D01*
X15219843Y-7635808D01*
X15181941Y-7673644D01*
X15161403Y-7723105D01*
X15161357Y-7776660D01*
X15181808Y-7826156D01*
X15207100Y-7851492D01*
X15207100Y-8150324D01*
X15183017Y-8174365D01*
X15162673Y-8223359D01*
X15162627Y-8276409D01*
X15182885Y-8325438D01*
X15207100Y-8349695D01*
X15207100Y-8698529D01*
X15181941Y-8723644D01*
X15161403Y-8773105D01*
X15161357Y-8826660D01*
X15181808Y-8876157D01*
X15207100Y-8901493D01*
X15207100Y-9398529D01*
X15181941Y-9423644D01*
X15161403Y-9473105D01*
X15161357Y-9526660D01*
X15181808Y-9576157D01*
X15219644Y-9614059D01*
X15269105Y-9634597D01*
X15322660Y-9634643D01*
X15372156Y-9614192D01*
X15410059Y-9576356D01*
X15430597Y-9526895D01*
X15430643Y-9473340D01*
X15430643Y-10117328D01*
X15134593Y-10117328D01*
X15134593Y-7173252D01*
X15131715Y-7120280D01*
X15116980Y-7084707D01*
X15093419Y-7078542D01*
X15075458Y-7096502D01*
X15075458Y-7060581D01*
X15069293Y-7037020D01*
X15019252Y-7019407D01*
X14966280Y-7022285D01*
X14930707Y-7037020D01*
X14924542Y-7060581D01*
X15000000Y-7136039D01*
X15075458Y-7060581D01*
X15075458Y-7096502D01*
X15017960Y-7154000D01*
X15093419Y-7229458D01*
X15116980Y-7223293D01*
X15134593Y-7173252D01*
X15134593Y-10117328D01*
X15075458Y-10117328D01*
X15075458Y-7247419D01*
X15000000Y-7171960D01*
X14982039Y-7189921D01*
X14982039Y-7154000D01*
X14906581Y-7078542D01*
X14883020Y-7084707D01*
X14865407Y-7134748D01*
X14868285Y-7187720D01*
X14883020Y-7223293D01*
X14906581Y-7229458D01*
X14982039Y-7154000D01*
X14982039Y-7189921D01*
X14924542Y-7247419D01*
X14930707Y-7270980D01*
X14980748Y-7288593D01*
X15033720Y-7285715D01*
X15069293Y-7270980D01*
X15075458Y-7247419D01*
X15075458Y-10117328D01*
X14638551Y-10117328D01*
X14638551Y-9473448D01*
X14618100Y-9423952D01*
X14592808Y-9398615D01*
X14592808Y-8851517D01*
X14617967Y-8826402D01*
X14638505Y-8776941D01*
X14638551Y-8723386D01*
X14618100Y-8673890D01*
X14592808Y-8648553D01*
X14592808Y-8349596D01*
X14616891Y-8325555D01*
X14637235Y-8276561D01*
X14637281Y-8223511D01*
X14617023Y-8174482D01*
X14592808Y-8150225D01*
X14592808Y-7851519D01*
X14617967Y-7826404D01*
X14638505Y-7776943D01*
X14638551Y-7723388D01*
X14618100Y-7673891D01*
X14580264Y-7635989D01*
X14530803Y-7615451D01*
X14477248Y-7615405D01*
X14427751Y-7635856D01*
X14389849Y-7673692D01*
X14369311Y-7723153D01*
X14369265Y-7776708D01*
X14389716Y-7826204D01*
X14415008Y-7851540D01*
X14415008Y-8150244D01*
X14390925Y-8174285D01*
X14370581Y-8223279D01*
X14370535Y-8276329D01*
X14390793Y-8325358D01*
X14415008Y-8349615D01*
X14415008Y-8648575D01*
X14389849Y-8673690D01*
X14369311Y-8723151D01*
X14369265Y-8776706D01*
X14389716Y-8826203D01*
X14415008Y-8851539D01*
X14415008Y-9398637D01*
X14389849Y-9423752D01*
X14369311Y-9473213D01*
X14369265Y-9526768D01*
X14389716Y-9576265D01*
X14427552Y-9614167D01*
X14477013Y-9634705D01*
X14530568Y-9634751D01*
X14580064Y-9614300D01*
X14617967Y-9576464D01*
X14638505Y-9527003D01*
X14638551Y-9473448D01*
X14638551Y-10117328D01*
X14137409Y-10117328D01*
X14137409Y-7223513D01*
X14117151Y-7174484D01*
X14084900Y-7142177D01*
X14084900Y-6751471D01*
X14110059Y-6726356D01*
X14130597Y-6676895D01*
X14130643Y-6623340D01*
X14110192Y-6573843D01*
X14072356Y-6535941D01*
X14022895Y-6515403D01*
X13969340Y-6515357D01*
X13919843Y-6535808D01*
X13881941Y-6573644D01*
X13861403Y-6623105D01*
X13861357Y-6676660D01*
X13881808Y-6726156D01*
X13907100Y-6751492D01*
X13907100Y-7158268D01*
X13891053Y-7174287D01*
X13870709Y-7223281D01*
X13870663Y-7276331D01*
X13890921Y-7325360D01*
X13907008Y-7341475D01*
X13907008Y-7648577D01*
X13881849Y-7673692D01*
X13861311Y-7723153D01*
X13861265Y-7776708D01*
X13881716Y-7826204D01*
X13919552Y-7864107D01*
X13969013Y-7884645D01*
X14022568Y-7884691D01*
X14072064Y-7864240D01*
X14109967Y-7826404D01*
X14130505Y-7776943D01*
X14130551Y-7723388D01*
X14110100Y-7673891D01*
X14084808Y-7648555D01*
X14084808Y-7357712D01*
X14117019Y-7325557D01*
X14137363Y-7276563D01*
X14137409Y-7223513D01*
X14137409Y-10117328D01*
X12482576Y-10117328D01*
X12482576Y-8659184D01*
X12871499Y-8659184D01*
X12887374Y-8643309D01*
X12887374Y-8532184D01*
X12885374Y-8532184D01*
X12885374Y-8523559D01*
X12885515Y-8523517D01*
X12892248Y-8504784D01*
X12912774Y-8504784D01*
X12912774Y-8506784D01*
X13106198Y-8506784D01*
X13116719Y-8532184D01*
X12912774Y-8532184D01*
X12912774Y-8643309D01*
X12928649Y-8659184D01*
X13362666Y-8659184D01*
X13386005Y-8649517D01*
X13403868Y-8631654D01*
X13413535Y-8608315D01*
X13413535Y-8583053D01*
X13413535Y-8548059D01*
X13401226Y-8535750D01*
X13401888Y-8535506D01*
X13424532Y-8474552D01*
X13422126Y-8409572D01*
X13401888Y-8360714D01*
X13375208Y-8350854D01*
X13346278Y-8379784D01*
X13312700Y-8379784D01*
X13312700Y-8377441D01*
X13357248Y-8332894D01*
X13347388Y-8306213D01*
X13312700Y-8293327D01*
X13312700Y-8291900D01*
X13456176Y-8291900D01*
X13868974Y-8704698D01*
X13861311Y-8723151D01*
X13861265Y-8776706D01*
X13881716Y-8826203D01*
X13907008Y-8851539D01*
X13907008Y-9398637D01*
X13881849Y-9423752D01*
X13861311Y-9473213D01*
X13861265Y-9526768D01*
X13881716Y-9576265D01*
X13919552Y-9614167D01*
X13969013Y-9634705D01*
X14022568Y-9634751D01*
X14072064Y-9614300D01*
X14109967Y-9576464D01*
X14130505Y-9527003D01*
X14130551Y-9473448D01*
X14110100Y-9423952D01*
X14084808Y-9398615D01*
X14084808Y-8851517D01*
X14109967Y-8826402D01*
X14130505Y-8776941D01*
X14130551Y-8723386D01*
X14130501Y-8723263D01*
X14130501Y-8269172D01*
X14127623Y-8216200D01*
X14112888Y-8180627D01*
X14089327Y-8174462D01*
X14071366Y-8192422D01*
X14071366Y-8156501D01*
X14065201Y-8132940D01*
X14015160Y-8115327D01*
X13962188Y-8118205D01*
X13926615Y-8132940D01*
X13920450Y-8156501D01*
X13995908Y-8231959D01*
X14071366Y-8156501D01*
X14071366Y-8192422D01*
X14013868Y-8249920D01*
X14089327Y-8325378D01*
X14112888Y-8319213D01*
X14130501Y-8269172D01*
X14130501Y-8723263D01*
X14110100Y-8673890D01*
X14072264Y-8635987D01*
X14071366Y-8635615D01*
X14071366Y-8343339D01*
X13995908Y-8267880D01*
X13977947Y-8285841D01*
X13977947Y-8249920D01*
X13902489Y-8174462D01*
X13878928Y-8180627D01*
X13861315Y-8230668D01*
X13864193Y-8283640D01*
X13878928Y-8319213D01*
X13902489Y-8325378D01*
X13977947Y-8249920D01*
X13977947Y-8285841D01*
X13920450Y-8343339D01*
X13926615Y-8366900D01*
X13976656Y-8384513D01*
X14029628Y-8381635D01*
X14065201Y-8366900D01*
X14071366Y-8343339D01*
X14071366Y-8635615D01*
X14049107Y-8626372D01*
X14029929Y-8613557D01*
X14029120Y-8613396D01*
X13630629Y-8214905D01*
X13630629Y-7269174D01*
X13627751Y-7216202D01*
X13613016Y-7180629D01*
X13589455Y-7174464D01*
X13571494Y-7192424D01*
X13571494Y-7156503D01*
X13565329Y-7132942D01*
X13515288Y-7115329D01*
X13462316Y-7118207D01*
X13426743Y-7132942D01*
X13420578Y-7156503D01*
X13496036Y-7231961D01*
X13571494Y-7156503D01*
X13571494Y-7192424D01*
X13513996Y-7249922D01*
X13589455Y-7325380D01*
X13613016Y-7319215D01*
X13630629Y-7269174D01*
X13630629Y-8214905D01*
X13571494Y-8155771D01*
X13571494Y-7343341D01*
X13496036Y-7267882D01*
X13478075Y-7285843D01*
X13478075Y-7249922D01*
X13402617Y-7174464D01*
X13379056Y-7180629D01*
X13361443Y-7230670D01*
X13364321Y-7283642D01*
X13379056Y-7319215D01*
X13402617Y-7325380D01*
X13478075Y-7249922D01*
X13478075Y-7285843D01*
X13420578Y-7343341D01*
X13426743Y-7366902D01*
X13476784Y-7384515D01*
X13529756Y-7381637D01*
X13565329Y-7366902D01*
X13571494Y-7343341D01*
X13571494Y-8155771D01*
X13555862Y-8140138D01*
X13527021Y-8120867D01*
X13493000Y-8114100D01*
X13312700Y-8114100D01*
X13312700Y-8104248D01*
X13347388Y-8089880D01*
X13357248Y-8063200D01*
X13320771Y-8026724D01*
X13356692Y-8026724D01*
X13375208Y-8045240D01*
X13401888Y-8035380D01*
X13424532Y-7974426D01*
X13422126Y-7909446D01*
X13404673Y-7867311D01*
X13413535Y-7858449D01*
X13413535Y-7823455D01*
X13413535Y-7798193D01*
X13403868Y-7774854D01*
X13386005Y-7756991D01*
X13362666Y-7747324D01*
X12928649Y-7747324D01*
X12912774Y-7763199D01*
X12912774Y-7874324D01*
X13112993Y-7874324D01*
X13103557Y-7899724D01*
X12912774Y-7899724D01*
X12912774Y-7901724D01*
X12897587Y-7901724D01*
X12886238Y-7874324D01*
X12887374Y-7874324D01*
X12887374Y-7763199D01*
X12871499Y-7747324D01*
X12482576Y-7747324D01*
X12482576Y-6725889D01*
X12522149Y-6765531D01*
X12637355Y-6813368D01*
X12762098Y-6813477D01*
X12877387Y-6765841D01*
X12965671Y-6677711D01*
X13013508Y-6562505D01*
X13013617Y-6437762D01*
X12965981Y-6322473D01*
X12926014Y-6282436D01*
X17317466Y-6282436D01*
X17317466Y-6940816D01*
X16908501Y-6940816D01*
X16892626Y-6956691D01*
X16892626Y-7067816D01*
X16894626Y-7067816D01*
X16894626Y-7076441D01*
X16894485Y-7076483D01*
X16887752Y-7095216D01*
X16867226Y-7095216D01*
X16867226Y-7093216D01*
X16673801Y-7093216D01*
X16663280Y-7067816D01*
X16867226Y-7067816D01*
X16867226Y-6956691D01*
X16851351Y-6940816D01*
X16417334Y-6940816D01*
X16393995Y-6950483D01*
X16376132Y-6968346D01*
X16366465Y-6991685D01*
X16366465Y-7016947D01*
X16366465Y-7051941D01*
X16378773Y-7064249D01*
X16378111Y-7064494D01*
X16355468Y-7125448D01*
X16357874Y-7190428D01*
X16378111Y-7239286D01*
X16404792Y-7249146D01*
X16433721Y-7220216D01*
X16437300Y-7220216D01*
X16437300Y-7252558D01*
X16422752Y-7267106D01*
X16432612Y-7293786D01*
X16437300Y-7295528D01*
X16437300Y-7311100D01*
X16350000Y-7311100D01*
X16315979Y-7317867D01*
X16287138Y-7337138D01*
X16138643Y-7485633D01*
X16138643Y-6623340D01*
X16118192Y-6573843D01*
X16080356Y-6535941D01*
X16030895Y-6515403D01*
X15977340Y-6515357D01*
X15927843Y-6535808D01*
X15889941Y-6573644D01*
X15869403Y-6623105D01*
X15869357Y-6676660D01*
X15889808Y-6726156D01*
X15905100Y-6741475D01*
X15905100Y-7150324D01*
X15881017Y-7174365D01*
X15860673Y-7223359D01*
X15860643Y-7257633D01*
X15741138Y-7377138D01*
X15721867Y-7405979D01*
X15715100Y-7440000D01*
X15715100Y-7648529D01*
X15689941Y-7673644D01*
X15669403Y-7723105D01*
X15669357Y-7776660D01*
X15689808Y-7826156D01*
X15727644Y-7864059D01*
X15777105Y-7884597D01*
X15830660Y-7884643D01*
X15880156Y-7864192D01*
X15918059Y-7826356D01*
X15938597Y-7776895D01*
X15938643Y-7723340D01*
X15918192Y-7673843D01*
X15892900Y-7648507D01*
X15892900Y-7476824D01*
X15986380Y-7383343D01*
X16020409Y-7383373D01*
X16069438Y-7363115D01*
X16106983Y-7325635D01*
X16127327Y-7276641D01*
X16127373Y-7223591D01*
X16107115Y-7174562D01*
X16082900Y-7150305D01*
X16082900Y-6761453D01*
X16118059Y-6726356D01*
X16138597Y-6676895D01*
X16138643Y-6623340D01*
X16138643Y-7485633D01*
X16137138Y-7487138D01*
X16117867Y-7515979D01*
X16111100Y-7550000D01*
X16111100Y-8513176D01*
X15938593Y-8685684D01*
X15938593Y-8269252D01*
X15935715Y-8216280D01*
X15920980Y-8180707D01*
X15897419Y-8174542D01*
X15879458Y-8192502D01*
X15879458Y-8156581D01*
X15873293Y-8133020D01*
X15823252Y-8115407D01*
X15770280Y-8118285D01*
X15734707Y-8133020D01*
X15728542Y-8156581D01*
X15804000Y-8232039D01*
X15879458Y-8156581D01*
X15879458Y-8192502D01*
X15821960Y-8250000D01*
X15897419Y-8325458D01*
X15920980Y-8319293D01*
X15938593Y-8269252D01*
X15938593Y-8685684D01*
X15913176Y-8711100D01*
X15905471Y-8711100D01*
X15880356Y-8685941D01*
X15879458Y-8685569D01*
X15879458Y-8343419D01*
X15804000Y-8267960D01*
X15786039Y-8285921D01*
X15786039Y-8250000D01*
X15710581Y-8174542D01*
X15687020Y-8180707D01*
X15669407Y-8230748D01*
X15672285Y-8283720D01*
X15687020Y-8319293D01*
X15710581Y-8325458D01*
X15786039Y-8250000D01*
X15786039Y-8285921D01*
X15728542Y-8343419D01*
X15734707Y-8366980D01*
X15784748Y-8384593D01*
X15837720Y-8381715D01*
X15873293Y-8366980D01*
X15879458Y-8343419D01*
X15879458Y-8685569D01*
X15830895Y-8665403D01*
X15777340Y-8665357D01*
X15727843Y-8685808D01*
X15689941Y-8723644D01*
X15669403Y-8773105D01*
X15669357Y-8826660D01*
X15689808Y-8876157D01*
X15715100Y-8901493D01*
X15715100Y-9398529D01*
X15689941Y-9423644D01*
X15669403Y-9473105D01*
X15669357Y-9526660D01*
X15689808Y-9576157D01*
X15727644Y-9614059D01*
X15777105Y-9634597D01*
X15830660Y-9634643D01*
X15880156Y-9614192D01*
X15918059Y-9576356D01*
X15938597Y-9526895D01*
X15938643Y-9473340D01*
X15918192Y-9423844D01*
X15892900Y-9398507D01*
X15892900Y-8901471D01*
X15905492Y-8888900D01*
X15913176Y-8888900D01*
X16084138Y-9059862D01*
X16112979Y-9079133D01*
X16112979Y-9079133D01*
X16147000Y-9085900D01*
X16537300Y-9085900D01*
X16537300Y-9087815D01*
X16481470Y-9089882D01*
X16432612Y-9110120D01*
X16422752Y-9136800D01*
X16459228Y-9173276D01*
X16423307Y-9173276D01*
X16404792Y-9154760D01*
X16378111Y-9164620D01*
X16355468Y-9225574D01*
X16357874Y-9290554D01*
X16375327Y-9332689D01*
X16366465Y-9341551D01*
X16366465Y-9376545D01*
X16366465Y-9401807D01*
X16376132Y-9425146D01*
X16393995Y-9443009D01*
X16417334Y-9452676D01*
X16851351Y-9452676D01*
X16867226Y-9436801D01*
X16867226Y-9325676D01*
X16667007Y-9325676D01*
X16676443Y-9300276D01*
X16867226Y-9300276D01*
X16867226Y-9298276D01*
X16882412Y-9298276D01*
X16893762Y-9325676D01*
X16892626Y-9325676D01*
X16892626Y-9436801D01*
X16908501Y-9452676D01*
X17317466Y-9452676D01*
X17317466Y-9674129D01*
M02*
