M48
METRIC,TZ
T1C0.762
T2C0.813
T3C1.001
T4C3.200
%
G90
G05
T1
X139959Y-77500
X139959Y-87500
X139959Y-95001
X139960Y-66500
X145039Y-77500
X145039Y-87500
X145039Y-95001
X145040Y-66500
X152960Y-77500
X152960Y-88000
X152960Y-95000
X154960Y-66500
X158040Y-77500
X158040Y-88000
X158040Y-95000
X160040Y-66500
T2
X134960Y-72499
X139959Y-82499
X140040Y-72499
X145039Y-82499
X150000Y-66460
X150000Y-71540
X152960Y-82500
X154860Y-72500
X158040Y-82500
X159940Y-72500
T3
X127601Y-79480
X127601Y-84481
X130101Y-81979
X132600Y-79480
X132600Y-84481
X165200Y-71519
X165200Y-76520
X165200Y-87519
X165200Y-92520
X167699Y-74021
X167699Y-90021
X170199Y-71519
X170199Y-76520
X170199Y-87519
X170199Y-92520
T4
X127000Y-64999
X171000Y-99002
T0
M30
