G04 #@! TF.FileFunction,Copper,L1,Top,Signal*
%FSLAX45Y45*%
G04 Gerber Fmt 4.5, Leading zero omitted, Abs format (unit mm)*
G04 Created by KiCad (PCBNEW (2015-01-25 BZR 5388)-product) date Mo 03 Aug 2015 14:21:19 CEST*
%MOMM*%
G01*
G04 APERTURE LIST*
%ADD10C,0.150000*%
%ADD11C,5.001260*%
%ADD12C,1.397000*%
%ADD13R,2.032000X1.727200*%
%ADD14O,2.032000X1.727200*%
%ADD15R,1.397000X1.397000*%
%ADD16C,0.254000*%
G04 APERTURE END LIST*
D10*
D11*
X17100042Y-9900158D03*
X12700000Y-6499860D03*
D12*
X15740126Y-7701026D03*
X15740126Y-6939026D03*
X15180056Y-7380986D03*
X15180056Y-6618986D03*
X13660120Y-8678926D03*
X13660120Y-9440926D03*
X14919960Y-9440672D03*
X14919960Y-8678672D03*
X16940022Y-7701026D03*
X16940022Y-6939026D03*
X16379952Y-7701026D03*
X16379952Y-6939026D03*
X14739874Y-7380986D03*
X14739874Y-6618986D03*
X15740126Y-9440926D03*
X15740126Y-8678926D03*
X14000988Y-7800086D03*
X13238988Y-7800086D03*
X14000988Y-8299958D03*
X13238988Y-8299958D03*
X17074134Y-8159750D03*
X16566134Y-8159750D03*
X16254222Y-8160004D03*
X15746222Y-8160004D03*
X16873982Y-9439910D03*
X16365982Y-9439910D03*
X14400022Y-7805928D03*
X14400022Y-8313928D03*
D13*
X12700000Y-9226000D03*
D14*
X12700000Y-8972000D03*
X12700000Y-8718000D03*
X12700000Y-8464000D03*
X12700000Y-8210000D03*
X12700000Y-7956000D03*
X12700000Y-7702000D03*
X12700000Y-7448000D03*
X12700000Y-7194000D03*
D15*
X14270000Y-9073000D03*
D12*
X14270000Y-9327000D03*
D15*
X14037000Y-7190000D03*
D12*
X13783000Y-7190000D03*
D15*
X15187000Y-7883000D03*
D12*
X15187000Y-8137000D03*
X14933000Y-8137000D03*
D16*
G36*
X17317466Y-9674129D02*
X17277893Y-9634487D01*
X17207507Y-9605260D01*
X17207507Y-8133341D01*
X17187249Y-8084312D01*
X17149769Y-8046767D01*
X17100775Y-8026423D01*
X17074615Y-8026400D01*
X17074615Y-6958278D01*
X17071737Y-6905306D01*
X17057002Y-6869733D01*
X17033441Y-6863568D01*
X17015480Y-6881528D01*
X17015480Y-6845607D01*
X17009315Y-6822046D01*
X16959274Y-6804433D01*
X16906302Y-6807311D01*
X16870729Y-6822046D01*
X16864564Y-6845607D01*
X16940022Y-6921065D01*
X17015480Y-6845607D01*
X17015480Y-6881528D01*
X16957983Y-6939026D01*
X17033441Y-7014484D01*
X17057002Y-7008319D01*
X17074615Y-6958278D01*
X17074615Y-8026400D01*
X17073395Y-8026399D01*
X17073395Y-7674617D01*
X17053137Y-7625588D01*
X17015657Y-7588043D01*
X17015480Y-7587970D01*
X17015480Y-7032445D01*
X16940022Y-6956986D01*
X16922062Y-6974947D01*
X16922062Y-6939026D01*
X16846603Y-6863568D01*
X16823042Y-6869733D01*
X16805429Y-6919774D01*
X16808307Y-6972746D01*
X16823042Y-7008319D01*
X16846603Y-7014484D01*
X16922062Y-6939026D01*
X16922062Y-6974947D01*
X16864564Y-7032445D01*
X16870729Y-7056006D01*
X16920770Y-7073619D01*
X16973742Y-7070741D01*
X17009315Y-7056006D01*
X17015480Y-7032445D01*
X17015480Y-7587970D01*
X16966663Y-7567699D01*
X16913613Y-7567653D01*
X16864584Y-7587911D01*
X16827039Y-7625391D01*
X16806695Y-7674385D01*
X16806649Y-7727435D01*
X16826907Y-7776464D01*
X16864387Y-7814009D01*
X16913381Y-7834353D01*
X16966431Y-7834399D01*
X17015460Y-7814141D01*
X17053005Y-7776661D01*
X17073349Y-7727667D01*
X17073395Y-7674617D01*
X17073395Y-8026399D01*
X17047725Y-8026377D01*
X16998696Y-8046635D01*
X16961151Y-8084115D01*
X16940807Y-8133109D01*
X16940761Y-8186159D01*
X16961019Y-8235188D01*
X16998499Y-8272733D01*
X17047493Y-8293077D01*
X17100543Y-8293123D01*
X17149572Y-8272865D01*
X17187117Y-8235385D01*
X17207461Y-8186391D01*
X17207507Y-8133341D01*
X17207507Y-9605260D01*
X17162687Y-9586650D01*
X17037944Y-9586541D01*
X17007355Y-9599180D01*
X17007355Y-9413501D01*
X16987097Y-9364472D01*
X16949617Y-9326927D01*
X16900623Y-9306583D01*
X16847573Y-9306537D01*
X16798544Y-9326795D01*
X16760999Y-9364275D01*
X16740655Y-9413269D01*
X16740609Y-9466319D01*
X16760867Y-9515348D01*
X16798347Y-9552893D01*
X16847341Y-9573237D01*
X16900391Y-9573283D01*
X16949420Y-9553025D01*
X16986965Y-9515545D01*
X17007309Y-9466551D01*
X17007355Y-9413501D01*
X17007355Y-9599180D01*
X16922655Y-9634177D01*
X16834371Y-9722307D01*
X16786534Y-9837513D01*
X16786425Y-9962256D01*
X16834061Y-10077545D01*
X16873775Y-10117328D01*
X16699507Y-10117328D01*
X16699507Y-8133341D01*
X16679249Y-8084312D01*
X16641769Y-8046767D01*
X16592775Y-8026423D01*
X16539725Y-8026377D01*
X16514545Y-8036781D01*
X16514545Y-6958278D01*
X16511667Y-6905306D01*
X16496932Y-6869733D01*
X16473371Y-6863568D01*
X16455410Y-6881528D01*
X16455410Y-6845607D01*
X16449245Y-6822046D01*
X16399204Y-6804433D01*
X16346232Y-6807311D01*
X16310659Y-6822046D01*
X16304494Y-6845607D01*
X16379952Y-6921065D01*
X16455410Y-6845607D01*
X16455410Y-6881528D01*
X16397912Y-6939026D01*
X16473371Y-7014484D01*
X16496932Y-7008319D01*
X16514545Y-6958278D01*
X16514545Y-8036781D01*
X16513325Y-8037285D01*
X16513325Y-7674617D01*
X16493067Y-7625588D01*
X16455587Y-7588043D01*
X16455410Y-7587970D01*
X16455410Y-7032445D01*
X16379952Y-6956986D01*
X16361991Y-6974947D01*
X16361991Y-6939026D01*
X16286533Y-6863568D01*
X16262972Y-6869733D01*
X16245359Y-6919774D01*
X16248237Y-6972746D01*
X16262972Y-7008319D01*
X16286533Y-7014484D01*
X16361991Y-6939026D01*
X16361991Y-6974947D01*
X16304494Y-7032445D01*
X16310659Y-7056006D01*
X16360700Y-7073619D01*
X16413672Y-7070741D01*
X16449245Y-7056006D01*
X16455410Y-7032445D01*
X16455410Y-7587970D01*
X16406593Y-7567699D01*
X16353543Y-7567653D01*
X16304514Y-7587911D01*
X16266969Y-7625391D01*
X16246625Y-7674385D01*
X16246579Y-7727435D01*
X16266837Y-7776464D01*
X16304317Y-7814009D01*
X16353311Y-7834353D01*
X16406361Y-7834399D01*
X16455390Y-7814141D01*
X16492935Y-7776661D01*
X16513279Y-7727667D01*
X16513325Y-7674617D01*
X16513325Y-8037285D01*
X16490696Y-8046635D01*
X16453151Y-8084115D01*
X16432807Y-8133109D01*
X16432761Y-8186159D01*
X16453019Y-8235188D01*
X16490499Y-8272733D01*
X16539493Y-8293077D01*
X16592543Y-8293123D01*
X16641572Y-8272865D01*
X16679117Y-8235385D01*
X16699461Y-8186391D01*
X16699507Y-8133341D01*
X16699507Y-10117328D01*
X16499355Y-10117328D01*
X16499355Y-9413501D01*
X16479097Y-9364472D01*
X16441617Y-9326927D01*
X16392623Y-9306583D01*
X16387595Y-9306579D01*
X16387595Y-8133595D01*
X16367337Y-8084566D01*
X16329857Y-8047021D01*
X16280863Y-8026677D01*
X16227813Y-8026631D01*
X16178784Y-8046889D01*
X16141239Y-8084369D01*
X16120895Y-8133363D01*
X16120849Y-8186413D01*
X16141107Y-8235442D01*
X16178587Y-8272987D01*
X16227581Y-8293331D01*
X16280631Y-8293377D01*
X16329660Y-8273119D01*
X16367205Y-8235639D01*
X16387549Y-8186645D01*
X16387595Y-8133595D01*
X16387595Y-9306579D01*
X16339573Y-9306537D01*
X16290544Y-9326795D01*
X16252999Y-9364275D01*
X16232655Y-9413269D01*
X16232609Y-9466319D01*
X16252867Y-9515348D01*
X16290347Y-9552893D01*
X16339341Y-9573237D01*
X16392391Y-9573283D01*
X16441420Y-9553025D01*
X16478965Y-9515545D01*
X16499309Y-9466551D01*
X16499355Y-9413501D01*
X16499355Y-10117328D01*
X15879595Y-10117328D01*
X15879595Y-8133595D01*
X15874719Y-8121793D01*
X15874719Y-6958278D01*
X15871841Y-6905306D01*
X15857106Y-6869733D01*
X15833545Y-6863568D01*
X15815584Y-6881528D01*
X15815584Y-6845607D01*
X15809419Y-6822046D01*
X15759378Y-6804433D01*
X15706406Y-6807311D01*
X15670833Y-6822046D01*
X15664668Y-6845607D01*
X15740126Y-6921065D01*
X15815584Y-6845607D01*
X15815584Y-6881528D01*
X15758086Y-6939026D01*
X15833545Y-7014484D01*
X15857106Y-7008319D01*
X15874719Y-6958278D01*
X15874719Y-8121793D01*
X15873499Y-8118842D01*
X15873499Y-7674617D01*
X15853241Y-7625588D01*
X15815761Y-7588043D01*
X15815584Y-7587970D01*
X15815584Y-7032445D01*
X15740126Y-6956986D01*
X15722165Y-6974947D01*
X15722165Y-6939026D01*
X15646707Y-6863568D01*
X15623146Y-6869733D01*
X15605533Y-6919774D01*
X15608411Y-6972746D01*
X15623146Y-7008319D01*
X15646707Y-7014484D01*
X15722165Y-6939026D01*
X15722165Y-6974947D01*
X15664668Y-7032445D01*
X15670833Y-7056006D01*
X15720874Y-7073619D01*
X15773846Y-7070741D01*
X15809419Y-7056006D01*
X15815584Y-7032445D01*
X15815584Y-7587970D01*
X15766767Y-7567699D01*
X15713717Y-7567653D01*
X15664688Y-7587911D01*
X15627143Y-7625391D01*
X15606799Y-7674385D01*
X15606753Y-7727435D01*
X15627011Y-7776464D01*
X15664491Y-7814009D01*
X15713485Y-7834353D01*
X15766535Y-7834399D01*
X15815564Y-7814141D01*
X15853109Y-7776661D01*
X15873453Y-7727667D01*
X15873499Y-7674617D01*
X15873499Y-8118842D01*
X15859337Y-8084566D01*
X15821857Y-8047021D01*
X15772863Y-8026677D01*
X15719813Y-8026631D01*
X15670784Y-8046889D01*
X15633239Y-8084369D01*
X15612895Y-8133363D01*
X15612849Y-8186413D01*
X15633107Y-8235442D01*
X15670587Y-8272987D01*
X15719581Y-8293331D01*
X15772631Y-8293377D01*
X15821660Y-8273119D01*
X15859205Y-8235639D01*
X15879549Y-8186645D01*
X15879595Y-8133595D01*
X15879595Y-10117328D01*
X15873499Y-10117328D01*
X15873499Y-9414517D01*
X15873499Y-8652517D01*
X15853241Y-8603488D01*
X15815761Y-8565943D01*
X15766767Y-8545599D01*
X15713717Y-8545553D01*
X15664688Y-8565811D01*
X15627143Y-8603291D01*
X15606799Y-8652285D01*
X15606753Y-8705335D01*
X15627011Y-8754364D01*
X15664491Y-8791909D01*
X15713485Y-8812253D01*
X15766535Y-8812299D01*
X15815564Y-8792041D01*
X15853109Y-8754561D01*
X15873453Y-8705567D01*
X15873499Y-8652517D01*
X15873499Y-9414517D01*
X15853241Y-9365488D01*
X15815761Y-9327943D01*
X15766767Y-9307599D01*
X15713717Y-9307553D01*
X15664688Y-9327811D01*
X15627143Y-9365291D01*
X15606799Y-9414285D01*
X15606753Y-9467335D01*
X15627011Y-9516364D01*
X15664491Y-9553909D01*
X15713485Y-9574253D01*
X15766535Y-9574299D01*
X15815564Y-9554041D01*
X15853109Y-9516561D01*
X15873453Y-9467567D01*
X15873499Y-9414517D01*
X15873499Y-10117328D01*
X15321594Y-10117328D01*
X15321594Y-7952850D01*
X15321594Y-7813150D01*
X15316896Y-7788938D01*
X15313429Y-7783659D01*
X15313429Y-7354577D01*
X15313429Y-6592577D01*
X15293171Y-6543548D01*
X15255691Y-6506003D01*
X15206697Y-6485659D01*
X15153647Y-6485613D01*
X15104618Y-6505871D01*
X15067073Y-6543351D01*
X15046729Y-6592345D01*
X15046683Y-6645395D01*
X15066941Y-6694424D01*
X15104421Y-6731969D01*
X15153415Y-6752313D01*
X15206465Y-6752359D01*
X15255494Y-6732101D01*
X15293039Y-6694621D01*
X15313383Y-6645627D01*
X15313429Y-6592577D01*
X15313429Y-7354577D01*
X15293171Y-7305548D01*
X15255691Y-7268003D01*
X15206697Y-7247659D01*
X15153647Y-7247613D01*
X15104618Y-7267871D01*
X15067073Y-7305351D01*
X15046729Y-7354345D01*
X15046683Y-7407395D01*
X15066941Y-7456424D01*
X15104421Y-7493969D01*
X15153415Y-7514313D01*
X15206465Y-7514359D01*
X15255494Y-7494101D01*
X15293039Y-7456621D01*
X15313383Y-7407627D01*
X15313429Y-7354577D01*
X15313429Y-7783659D01*
X15302917Y-7767657D01*
X15281814Y-7753412D01*
X15256850Y-7748406D01*
X15117150Y-7748406D01*
X15092938Y-7753104D01*
X15071657Y-7767083D01*
X15057412Y-7788186D01*
X15052406Y-7813150D01*
X15052406Y-7952850D01*
X15057104Y-7977062D01*
X15071083Y-7998343D01*
X15092186Y-8012588D01*
X15117150Y-8017594D01*
X15126788Y-8017594D01*
X15111562Y-8023885D01*
X15074017Y-8061365D01*
X15059991Y-8095145D01*
X15046115Y-8061562D01*
X15008635Y-8024017D01*
X14959641Y-8003673D01*
X14906591Y-8003627D01*
X14874467Y-8016900D01*
X14874467Y-6638238D01*
X14871589Y-6585266D01*
X14856854Y-6549693D01*
X14833293Y-6543528D01*
X14815332Y-6561488D01*
X14815332Y-6525567D01*
X14809167Y-6502006D01*
X14759126Y-6484393D01*
X14706154Y-6487271D01*
X14670581Y-6502006D01*
X14664416Y-6525567D01*
X14739874Y-6601025D01*
X14815332Y-6525567D01*
X14815332Y-6561488D01*
X14757834Y-6618986D01*
X14833293Y-6694444D01*
X14856854Y-6688279D01*
X14874467Y-6638238D01*
X14874467Y-8016900D01*
X14873247Y-8017404D01*
X14873247Y-7354577D01*
X14852989Y-7305548D01*
X14815509Y-7268003D01*
X14815332Y-7267930D01*
X14815332Y-6712405D01*
X14739874Y-6636946D01*
X14721913Y-6654907D01*
X14721913Y-6618986D01*
X14646455Y-6543528D01*
X14622894Y-6549693D01*
X14605281Y-6599734D01*
X14608159Y-6652706D01*
X14622894Y-6688279D01*
X14646455Y-6694444D01*
X14721913Y-6618986D01*
X14721913Y-6654907D01*
X14664416Y-6712405D01*
X14670581Y-6735966D01*
X14720622Y-6753579D01*
X14773594Y-6750701D01*
X14809167Y-6735966D01*
X14815332Y-6712405D01*
X14815332Y-7267930D01*
X14766515Y-7247659D01*
X14713465Y-7247613D01*
X14664436Y-7267871D01*
X14626891Y-7305351D01*
X14606547Y-7354345D01*
X14606501Y-7407395D01*
X14626759Y-7456424D01*
X14664239Y-7493969D01*
X14713233Y-7514313D01*
X14766283Y-7514359D01*
X14815312Y-7494101D01*
X14852857Y-7456621D01*
X14873201Y-7407627D01*
X14873247Y-7354577D01*
X14873247Y-8017404D01*
X14857562Y-8023885D01*
X14820017Y-8061365D01*
X14799673Y-8110359D01*
X14799627Y-8163409D01*
X14819885Y-8212438D01*
X14857365Y-8249983D01*
X14906359Y-8270327D01*
X14959409Y-8270373D01*
X15008438Y-8250115D01*
X15045983Y-8212635D01*
X15060009Y-8178855D01*
X15073885Y-8212438D01*
X15111365Y-8249983D01*
X15160359Y-8270327D01*
X15213409Y-8270373D01*
X15262438Y-8250115D01*
X15299983Y-8212635D01*
X15320327Y-8163641D01*
X15320373Y-8110591D01*
X15300115Y-8061562D01*
X15262635Y-8024017D01*
X15247166Y-8017594D01*
X15256850Y-8017594D01*
X15281062Y-8012896D01*
X15302343Y-7998917D01*
X15316588Y-7977814D01*
X15321594Y-7952850D01*
X15321594Y-10117328D01*
X15053333Y-10117328D01*
X15053333Y-9414263D01*
X15053333Y-8652263D01*
X15033075Y-8603234D01*
X14995595Y-8565689D01*
X14946601Y-8545345D01*
X14893551Y-8545299D01*
X14844522Y-8565557D01*
X14806977Y-8603037D01*
X14786633Y-8652031D01*
X14786587Y-8705081D01*
X14806845Y-8754110D01*
X14844325Y-8791655D01*
X14893319Y-8811999D01*
X14946369Y-8812045D01*
X14995398Y-8791787D01*
X15032943Y-8754307D01*
X15053287Y-8705313D01*
X15053333Y-8652263D01*
X15053333Y-9414263D01*
X15033075Y-9365234D01*
X14995595Y-9327689D01*
X14946601Y-9307345D01*
X14893551Y-9307299D01*
X14844522Y-9327557D01*
X14806977Y-9365037D01*
X14786633Y-9414031D01*
X14786587Y-9467081D01*
X14806845Y-9516110D01*
X14844325Y-9553655D01*
X14893319Y-9573999D01*
X14946369Y-9574045D01*
X14995398Y-9553787D01*
X15032943Y-9516307D01*
X15053287Y-9467313D01*
X15053333Y-9414263D01*
X15053333Y-10117328D01*
X14533395Y-10117328D01*
X14533395Y-8287519D01*
X14533395Y-7779519D01*
X14513137Y-7730490D01*
X14475657Y-7692945D01*
X14426663Y-7672601D01*
X14373613Y-7672555D01*
X14324584Y-7692813D01*
X14287039Y-7730293D01*
X14266695Y-7779287D01*
X14266649Y-7832337D01*
X14286907Y-7881366D01*
X14324387Y-7918911D01*
X14373381Y-7939255D01*
X14426431Y-7939301D01*
X14475460Y-7919043D01*
X14513005Y-7881563D01*
X14533349Y-7832569D01*
X14533395Y-7779519D01*
X14533395Y-8287519D01*
X14513137Y-8238490D01*
X14475657Y-8200945D01*
X14426663Y-8180601D01*
X14373613Y-8180555D01*
X14324584Y-8200813D01*
X14287039Y-8238293D01*
X14266695Y-8287287D01*
X14266649Y-8340337D01*
X14286907Y-8389366D01*
X14324387Y-8426911D01*
X14373381Y-8447255D01*
X14426431Y-8447301D01*
X14475460Y-8427043D01*
X14513005Y-8389563D01*
X14533349Y-8340569D01*
X14533395Y-8287519D01*
X14533395Y-10117328D01*
X14404594Y-10117328D01*
X14404594Y-9142850D01*
X14404594Y-9003150D01*
X14399896Y-8978938D01*
X14385917Y-8957657D01*
X14364814Y-8943412D01*
X14339850Y-8938406D01*
X14200150Y-8938406D01*
X14175938Y-8943104D01*
X14171594Y-8945957D01*
X14171594Y-7259850D01*
X14171594Y-7120150D01*
X14166896Y-7095938D01*
X14152917Y-7074657D01*
X14131814Y-7060412D01*
X14106850Y-7055406D01*
X13967150Y-7055406D01*
X13942938Y-7060104D01*
X13921657Y-7074083D01*
X13907412Y-7095186D01*
X13902406Y-7120150D01*
X13902406Y-7126564D01*
X13899980Y-7120707D01*
X13876419Y-7114542D01*
X13858458Y-7132502D01*
X13858458Y-7096581D01*
X13852293Y-7073020D01*
X13802252Y-7055407D01*
X13749280Y-7058285D01*
X13713707Y-7073020D01*
X13707542Y-7096581D01*
X13783000Y-7172039D01*
X13858458Y-7096581D01*
X13858458Y-7132502D01*
X13800960Y-7190000D01*
X13876419Y-7265458D01*
X13899980Y-7259293D01*
X13902406Y-7252400D01*
X13902406Y-7259850D01*
X13907104Y-7284062D01*
X13921083Y-7305343D01*
X13942186Y-7319588D01*
X13967150Y-7324594D01*
X14106850Y-7324594D01*
X14131062Y-7319896D01*
X14152343Y-7305917D01*
X14166588Y-7284814D01*
X14171594Y-7259850D01*
X14171594Y-8945957D01*
X14154657Y-8957083D01*
X14140412Y-8978186D01*
X14135406Y-9003150D01*
X14135406Y-9142850D01*
X14140104Y-9167062D01*
X14154083Y-9188343D01*
X14175186Y-9202588D01*
X14200150Y-9207594D01*
X14206564Y-9207594D01*
X14200707Y-9210020D01*
X14194542Y-9233581D01*
X14270000Y-9309040D01*
X14345458Y-9233581D01*
X14339293Y-9210020D01*
X14332400Y-9207594D01*
X14339850Y-9207594D01*
X14364062Y-9202896D01*
X14385343Y-9188917D01*
X14399588Y-9167814D01*
X14404594Y-9142850D01*
X14404594Y-10117328D01*
X14404593Y-10117328D01*
X14404593Y-9346252D01*
X14401715Y-9293280D01*
X14386980Y-9257707D01*
X14363419Y-9251542D01*
X14287960Y-9327000D01*
X14363419Y-9402458D01*
X14386980Y-9396293D01*
X14404593Y-9346252D01*
X14404593Y-10117328D01*
X14345458Y-10117328D01*
X14345458Y-9420419D01*
X14270000Y-9344961D01*
X14252039Y-9362921D01*
X14252039Y-9327000D01*
X14176581Y-9251542D01*
X14153020Y-9257707D01*
X14135407Y-9307748D01*
X14138285Y-9360720D01*
X14153020Y-9396293D01*
X14176581Y-9402458D01*
X14252039Y-9327000D01*
X14252039Y-9362921D01*
X14194542Y-9420419D01*
X14200707Y-9443980D01*
X14250748Y-9461593D01*
X14303720Y-9458715D01*
X14339293Y-9443980D01*
X14345458Y-9420419D01*
X14345458Y-10117328D01*
X14134361Y-10117328D01*
X14134361Y-8273549D01*
X14134361Y-7773677D01*
X14114103Y-7724648D01*
X14076623Y-7687103D01*
X14027629Y-7666759D01*
X13974579Y-7666713D01*
X13925550Y-7686971D01*
X13888005Y-7724451D01*
X13867661Y-7773445D01*
X13867615Y-7826495D01*
X13887873Y-7875524D01*
X13925353Y-7913069D01*
X13974347Y-7933413D01*
X14027397Y-7933459D01*
X14076426Y-7913201D01*
X14113971Y-7875721D01*
X14134315Y-7826727D01*
X14134361Y-7773677D01*
X14134361Y-8273549D01*
X14114103Y-8224520D01*
X14076623Y-8186975D01*
X14027629Y-8166631D01*
X13974579Y-8166585D01*
X13925550Y-8186843D01*
X13888005Y-8224323D01*
X13867661Y-8273317D01*
X13867615Y-8326367D01*
X13887873Y-8375396D01*
X13925353Y-8412941D01*
X13974347Y-8433285D01*
X14027397Y-8433331D01*
X14076426Y-8413073D01*
X14113971Y-8375593D01*
X14134315Y-8326599D01*
X14134361Y-8273549D01*
X14134361Y-10117328D01*
X13858458Y-10117328D01*
X13858458Y-7283419D01*
X13783000Y-7207960D01*
X13765039Y-7225921D01*
X13765039Y-7190000D01*
X13689581Y-7114542D01*
X13666020Y-7120707D01*
X13648407Y-7170748D01*
X13651285Y-7223720D01*
X13666020Y-7259293D01*
X13689581Y-7265458D01*
X13765039Y-7190000D01*
X13765039Y-7225921D01*
X13707542Y-7283419D01*
X13713707Y-7306980D01*
X13763748Y-7324593D01*
X13816720Y-7321715D01*
X13852293Y-7306980D01*
X13858458Y-7283419D01*
X13858458Y-10117328D01*
X13793493Y-10117328D01*
X13793493Y-9414517D01*
X13793493Y-8652517D01*
X13773235Y-8603488D01*
X13735755Y-8565943D01*
X13686761Y-8545599D01*
X13633711Y-8545553D01*
X13584682Y-8565811D01*
X13547137Y-8603291D01*
X13526793Y-8652285D01*
X13526747Y-8705335D01*
X13547005Y-8754364D01*
X13584485Y-8791909D01*
X13633479Y-8812253D01*
X13686529Y-8812299D01*
X13735558Y-8792041D01*
X13773103Y-8754561D01*
X13793447Y-8705567D01*
X13793493Y-8652517D01*
X13793493Y-9414517D01*
X13773235Y-9365488D01*
X13735755Y-9327943D01*
X13686761Y-9307599D01*
X13633711Y-9307553D01*
X13584682Y-9327811D01*
X13547137Y-9365291D01*
X13526793Y-9414285D01*
X13526747Y-9467335D01*
X13547005Y-9516364D01*
X13584485Y-9553909D01*
X13633479Y-9574253D01*
X13686529Y-9574299D01*
X13735558Y-9554041D01*
X13773103Y-9516561D01*
X13793447Y-9467567D01*
X13793493Y-9414517D01*
X13793493Y-10117328D01*
X13372361Y-10117328D01*
X13372361Y-8273549D01*
X13372361Y-7773677D01*
X13352103Y-7724648D01*
X13314623Y-7687103D01*
X13265629Y-7666759D01*
X13212579Y-7666713D01*
X13163550Y-7686971D01*
X13126005Y-7724451D01*
X13105661Y-7773445D01*
X13105615Y-7826495D01*
X13125873Y-7875524D01*
X13163353Y-7913069D01*
X13212347Y-7933413D01*
X13265397Y-7933459D01*
X13314426Y-7913201D01*
X13351971Y-7875721D01*
X13372315Y-7826727D01*
X13372361Y-7773677D01*
X13372361Y-8273549D01*
X13352103Y-8224520D01*
X13314623Y-8186975D01*
X13265629Y-8166631D01*
X13212579Y-8166585D01*
X13163550Y-8186843D01*
X13126005Y-8224323D01*
X13105661Y-8273317D01*
X13105615Y-8326367D01*
X13125873Y-8375396D01*
X13163353Y-8412941D01*
X13212347Y-8433285D01*
X13265397Y-8433331D01*
X13314426Y-8413073D01*
X13351971Y-8375593D01*
X13372315Y-8326599D01*
X13372361Y-8273549D01*
X13372361Y-10117328D01*
X12868334Y-10117328D01*
X12868334Y-8718000D01*
X12868334Y-8210000D01*
X12868334Y-7702000D01*
X12856927Y-7644651D01*
X12824441Y-7596033D01*
X12792963Y-7575000D01*
X12824441Y-7553967D01*
X12856927Y-7505349D01*
X12868334Y-7448000D01*
X12856927Y-7390651D01*
X12824441Y-7342033D01*
X12793493Y-7321354D01*
X12835073Y-7284204D01*
X12860471Y-7231479D01*
X12860736Y-7229903D01*
X12860736Y-7158097D01*
X12860471Y-7156521D01*
X12835073Y-7103796D01*
X12791432Y-7064805D01*
X12736191Y-7045482D01*
X12712700Y-7059908D01*
X12712700Y-7181300D01*
X12848622Y-7181300D01*
X12860736Y-7158097D01*
X12860736Y-7229903D01*
X12848622Y-7206700D01*
X12712700Y-7206700D01*
X12712700Y-7208700D01*
X12687300Y-7208700D01*
X12687300Y-7206700D01*
X12687300Y-7181300D01*
X12687300Y-7059908D01*
X12663809Y-7045482D01*
X12608568Y-7064805D01*
X12564927Y-7103796D01*
X12539529Y-7156521D01*
X12539264Y-7158097D01*
X12551378Y-7181300D01*
X12687300Y-7181300D01*
X12687300Y-7206700D01*
X12551378Y-7206700D01*
X12539264Y-7229903D01*
X12539529Y-7231479D01*
X12564927Y-7284204D01*
X12606507Y-7321354D01*
X12575558Y-7342033D01*
X12543073Y-7390651D01*
X12531665Y-7448000D01*
X12543073Y-7505349D01*
X12575558Y-7553967D01*
X12607036Y-7575000D01*
X12575558Y-7596033D01*
X12543073Y-7644651D01*
X12531665Y-7702000D01*
X12543073Y-7759349D01*
X12575558Y-7807967D01*
X12606507Y-7828646D01*
X12564927Y-7865796D01*
X12539529Y-7918521D01*
X12539264Y-7920097D01*
X12551378Y-7943300D01*
X12687300Y-7943300D01*
X12687300Y-7941300D01*
X12712700Y-7941300D01*
X12712700Y-7943300D01*
X12848622Y-7943300D01*
X12860736Y-7920097D01*
X12860471Y-7918521D01*
X12835073Y-7865796D01*
X12793493Y-7828646D01*
X12824441Y-7807967D01*
X12856927Y-7759349D01*
X12868334Y-7702000D01*
X12868334Y-8210000D01*
X12856927Y-8152651D01*
X12824441Y-8104033D01*
X12793493Y-8083354D01*
X12835073Y-8046204D01*
X12860471Y-7993479D01*
X12860736Y-7991903D01*
X12848622Y-7968700D01*
X12712700Y-7968700D01*
X12712700Y-7970700D01*
X12687300Y-7970700D01*
X12687300Y-7968700D01*
X12551378Y-7968700D01*
X12539264Y-7991903D01*
X12539529Y-7993479D01*
X12564927Y-8046204D01*
X12606507Y-8083354D01*
X12575558Y-8104033D01*
X12543073Y-8152651D01*
X12531665Y-8210000D01*
X12543073Y-8267349D01*
X12575558Y-8315967D01*
X12606507Y-8336646D01*
X12564927Y-8373796D01*
X12539529Y-8426521D01*
X12539264Y-8428097D01*
X12551378Y-8451300D01*
X12687300Y-8451300D01*
X12687300Y-8449300D01*
X12712700Y-8449300D01*
X12712700Y-8451300D01*
X12848622Y-8451300D01*
X12860736Y-8428097D01*
X12860471Y-8426521D01*
X12835073Y-8373796D01*
X12793493Y-8336646D01*
X12824441Y-8315967D01*
X12856927Y-8267349D01*
X12868334Y-8210000D01*
X12868334Y-8718000D01*
X12856927Y-8660651D01*
X12824441Y-8612033D01*
X12793493Y-8591354D01*
X12835073Y-8554204D01*
X12860471Y-8501479D01*
X12860736Y-8499903D01*
X12848622Y-8476700D01*
X12712700Y-8476700D01*
X12712700Y-8478700D01*
X12687300Y-8478700D01*
X12687300Y-8476700D01*
X12551378Y-8476700D01*
X12539264Y-8499903D01*
X12539529Y-8501479D01*
X12564927Y-8554204D01*
X12606507Y-8591354D01*
X12575558Y-8612033D01*
X12543073Y-8660651D01*
X12531665Y-8718000D01*
X12543073Y-8775349D01*
X12575558Y-8823967D01*
X12606507Y-8844646D01*
X12564927Y-8881796D01*
X12539529Y-8934521D01*
X12539264Y-8936097D01*
X12551378Y-8959300D01*
X12687300Y-8959300D01*
X12687300Y-8957300D01*
X12712700Y-8957300D01*
X12712700Y-8959300D01*
X12848622Y-8959300D01*
X12860736Y-8936097D01*
X12860471Y-8934521D01*
X12835073Y-8881796D01*
X12793493Y-8844646D01*
X12824441Y-8823967D01*
X12856927Y-8775349D01*
X12868334Y-8718000D01*
X12868334Y-10117328D01*
X12866344Y-10117328D01*
X12866344Y-9312360D01*
X12866344Y-9139640D01*
X12861646Y-9115428D01*
X12847667Y-9094147D01*
X12826564Y-9079902D01*
X12817335Y-9078052D01*
X12835073Y-9062204D01*
X12860471Y-9009479D01*
X12860736Y-9007903D01*
X12848622Y-8984700D01*
X12712700Y-8984700D01*
X12712700Y-8986700D01*
X12687300Y-8986700D01*
X12687300Y-8984700D01*
X12551378Y-8984700D01*
X12539264Y-9007903D01*
X12539529Y-9009479D01*
X12564927Y-9062204D01*
X12582570Y-9077967D01*
X12574188Y-9079594D01*
X12552907Y-9093573D01*
X12538662Y-9114676D01*
X12533656Y-9139640D01*
X12533656Y-9312360D01*
X12538354Y-9336572D01*
X12552333Y-9357853D01*
X12573436Y-9372098D01*
X12598400Y-9377104D01*
X12801600Y-9377104D01*
X12825812Y-9372406D01*
X12847093Y-9358427D01*
X12861338Y-9337324D01*
X12866344Y-9312360D01*
X12866344Y-10117328D01*
X12482576Y-10117328D01*
X12482576Y-6725889D01*
X12522149Y-6765531D01*
X12637355Y-6813368D01*
X12762098Y-6813477D01*
X12877387Y-6765841D01*
X12965671Y-6677711D01*
X13013508Y-6562505D01*
X13013617Y-6437762D01*
X12965981Y-6322473D01*
X12926014Y-6282436D01*
X17317466Y-6282436D01*
X17317466Y-9674129D01*
X17317466Y-9674129D01*
G37*
X17317466Y-9674129D02*
X17277893Y-9634487D01*
X17207507Y-9605260D01*
X17207507Y-8133341D01*
X17187249Y-8084312D01*
X17149769Y-8046767D01*
X17100775Y-8026423D01*
X17074615Y-8026400D01*
X17074615Y-6958278D01*
X17071737Y-6905306D01*
X17057002Y-6869733D01*
X17033441Y-6863568D01*
X17015480Y-6881528D01*
X17015480Y-6845607D01*
X17009315Y-6822046D01*
X16959274Y-6804433D01*
X16906302Y-6807311D01*
X16870729Y-6822046D01*
X16864564Y-6845607D01*
X16940022Y-6921065D01*
X17015480Y-6845607D01*
X17015480Y-6881528D01*
X16957983Y-6939026D01*
X17033441Y-7014484D01*
X17057002Y-7008319D01*
X17074615Y-6958278D01*
X17074615Y-8026400D01*
X17073395Y-8026399D01*
X17073395Y-7674617D01*
X17053137Y-7625588D01*
X17015657Y-7588043D01*
X17015480Y-7587970D01*
X17015480Y-7032445D01*
X16940022Y-6956986D01*
X16922062Y-6974947D01*
X16922062Y-6939026D01*
X16846603Y-6863568D01*
X16823042Y-6869733D01*
X16805429Y-6919774D01*
X16808307Y-6972746D01*
X16823042Y-7008319D01*
X16846603Y-7014484D01*
X16922062Y-6939026D01*
X16922062Y-6974947D01*
X16864564Y-7032445D01*
X16870729Y-7056006D01*
X16920770Y-7073619D01*
X16973742Y-7070741D01*
X17009315Y-7056006D01*
X17015480Y-7032445D01*
X17015480Y-7587970D01*
X16966663Y-7567699D01*
X16913613Y-7567653D01*
X16864584Y-7587911D01*
X16827039Y-7625391D01*
X16806695Y-7674385D01*
X16806649Y-7727435D01*
X16826907Y-7776464D01*
X16864387Y-7814009D01*
X16913381Y-7834353D01*
X16966431Y-7834399D01*
X17015460Y-7814141D01*
X17053005Y-7776661D01*
X17073349Y-7727667D01*
X17073395Y-7674617D01*
X17073395Y-8026399D01*
X17047725Y-8026377D01*
X16998696Y-8046635D01*
X16961151Y-8084115D01*
X16940807Y-8133109D01*
X16940761Y-8186159D01*
X16961019Y-8235188D01*
X16998499Y-8272733D01*
X17047493Y-8293077D01*
X17100543Y-8293123D01*
X17149572Y-8272865D01*
X17187117Y-8235385D01*
X17207461Y-8186391D01*
X17207507Y-8133341D01*
X17207507Y-9605260D01*
X17162687Y-9586650D01*
X17037944Y-9586541D01*
X17007355Y-9599180D01*
X17007355Y-9413501D01*
X16987097Y-9364472D01*
X16949617Y-9326927D01*
X16900623Y-9306583D01*
X16847573Y-9306537D01*
X16798544Y-9326795D01*
X16760999Y-9364275D01*
X16740655Y-9413269D01*
X16740609Y-9466319D01*
X16760867Y-9515348D01*
X16798347Y-9552893D01*
X16847341Y-9573237D01*
X16900391Y-9573283D01*
X16949420Y-9553025D01*
X16986965Y-9515545D01*
X17007309Y-9466551D01*
X17007355Y-9413501D01*
X17007355Y-9599180D01*
X16922655Y-9634177D01*
X16834371Y-9722307D01*
X16786534Y-9837513D01*
X16786425Y-9962256D01*
X16834061Y-10077545D01*
X16873775Y-10117328D01*
X16699507Y-10117328D01*
X16699507Y-8133341D01*
X16679249Y-8084312D01*
X16641769Y-8046767D01*
X16592775Y-8026423D01*
X16539725Y-8026377D01*
X16514545Y-8036781D01*
X16514545Y-6958278D01*
X16511667Y-6905306D01*
X16496932Y-6869733D01*
X16473371Y-6863568D01*
X16455410Y-6881528D01*
X16455410Y-6845607D01*
X16449245Y-6822046D01*
X16399204Y-6804433D01*
X16346232Y-6807311D01*
X16310659Y-6822046D01*
X16304494Y-6845607D01*
X16379952Y-6921065D01*
X16455410Y-6845607D01*
X16455410Y-6881528D01*
X16397912Y-6939026D01*
X16473371Y-7014484D01*
X16496932Y-7008319D01*
X16514545Y-6958278D01*
X16514545Y-8036781D01*
X16513325Y-8037285D01*
X16513325Y-7674617D01*
X16493067Y-7625588D01*
X16455587Y-7588043D01*
X16455410Y-7587970D01*
X16455410Y-7032445D01*
X16379952Y-6956986D01*
X16361991Y-6974947D01*
X16361991Y-6939026D01*
X16286533Y-6863568D01*
X16262972Y-6869733D01*
X16245359Y-6919774D01*
X16248237Y-6972746D01*
X16262972Y-7008319D01*
X16286533Y-7014484D01*
X16361991Y-6939026D01*
X16361991Y-6974947D01*
X16304494Y-7032445D01*
X16310659Y-7056006D01*
X16360700Y-7073619D01*
X16413672Y-7070741D01*
X16449245Y-7056006D01*
X16455410Y-7032445D01*
X16455410Y-7587970D01*
X16406593Y-7567699D01*
X16353543Y-7567653D01*
X16304514Y-7587911D01*
X16266969Y-7625391D01*
X16246625Y-7674385D01*
X16246579Y-7727435D01*
X16266837Y-7776464D01*
X16304317Y-7814009D01*
X16353311Y-7834353D01*
X16406361Y-7834399D01*
X16455390Y-7814141D01*
X16492935Y-7776661D01*
X16513279Y-7727667D01*
X16513325Y-7674617D01*
X16513325Y-8037285D01*
X16490696Y-8046635D01*
X16453151Y-8084115D01*
X16432807Y-8133109D01*
X16432761Y-8186159D01*
X16453019Y-8235188D01*
X16490499Y-8272733D01*
X16539493Y-8293077D01*
X16592543Y-8293123D01*
X16641572Y-8272865D01*
X16679117Y-8235385D01*
X16699461Y-8186391D01*
X16699507Y-8133341D01*
X16699507Y-10117328D01*
X16499355Y-10117328D01*
X16499355Y-9413501D01*
X16479097Y-9364472D01*
X16441617Y-9326927D01*
X16392623Y-9306583D01*
X16387595Y-9306579D01*
X16387595Y-8133595D01*
X16367337Y-8084566D01*
X16329857Y-8047021D01*
X16280863Y-8026677D01*
X16227813Y-8026631D01*
X16178784Y-8046889D01*
X16141239Y-8084369D01*
X16120895Y-8133363D01*
X16120849Y-8186413D01*
X16141107Y-8235442D01*
X16178587Y-8272987D01*
X16227581Y-8293331D01*
X16280631Y-8293377D01*
X16329660Y-8273119D01*
X16367205Y-8235639D01*
X16387549Y-8186645D01*
X16387595Y-8133595D01*
X16387595Y-9306579D01*
X16339573Y-9306537D01*
X16290544Y-9326795D01*
X16252999Y-9364275D01*
X16232655Y-9413269D01*
X16232609Y-9466319D01*
X16252867Y-9515348D01*
X16290347Y-9552893D01*
X16339341Y-9573237D01*
X16392391Y-9573283D01*
X16441420Y-9553025D01*
X16478965Y-9515545D01*
X16499309Y-9466551D01*
X16499355Y-9413501D01*
X16499355Y-10117328D01*
X15879595Y-10117328D01*
X15879595Y-8133595D01*
X15874719Y-8121793D01*
X15874719Y-6958278D01*
X15871841Y-6905306D01*
X15857106Y-6869733D01*
X15833545Y-6863568D01*
X15815584Y-6881528D01*
X15815584Y-6845607D01*
X15809419Y-6822046D01*
X15759378Y-6804433D01*
X15706406Y-6807311D01*
X15670833Y-6822046D01*
X15664668Y-6845607D01*
X15740126Y-6921065D01*
X15815584Y-6845607D01*
X15815584Y-6881528D01*
X15758086Y-6939026D01*
X15833545Y-7014484D01*
X15857106Y-7008319D01*
X15874719Y-6958278D01*
X15874719Y-8121793D01*
X15873499Y-8118842D01*
X15873499Y-7674617D01*
X15853241Y-7625588D01*
X15815761Y-7588043D01*
X15815584Y-7587970D01*
X15815584Y-7032445D01*
X15740126Y-6956986D01*
X15722165Y-6974947D01*
X15722165Y-6939026D01*
X15646707Y-6863568D01*
X15623146Y-6869733D01*
X15605533Y-6919774D01*
X15608411Y-6972746D01*
X15623146Y-7008319D01*
X15646707Y-7014484D01*
X15722165Y-6939026D01*
X15722165Y-6974947D01*
X15664668Y-7032445D01*
X15670833Y-7056006D01*
X15720874Y-7073619D01*
X15773846Y-7070741D01*
X15809419Y-7056006D01*
X15815584Y-7032445D01*
X15815584Y-7587970D01*
X15766767Y-7567699D01*
X15713717Y-7567653D01*
X15664688Y-7587911D01*
X15627143Y-7625391D01*
X15606799Y-7674385D01*
X15606753Y-7727435D01*
X15627011Y-7776464D01*
X15664491Y-7814009D01*
X15713485Y-7834353D01*
X15766535Y-7834399D01*
X15815564Y-7814141D01*
X15853109Y-7776661D01*
X15873453Y-7727667D01*
X15873499Y-7674617D01*
X15873499Y-8118842D01*
X15859337Y-8084566D01*
X15821857Y-8047021D01*
X15772863Y-8026677D01*
X15719813Y-8026631D01*
X15670784Y-8046889D01*
X15633239Y-8084369D01*
X15612895Y-8133363D01*
X15612849Y-8186413D01*
X15633107Y-8235442D01*
X15670587Y-8272987D01*
X15719581Y-8293331D01*
X15772631Y-8293377D01*
X15821660Y-8273119D01*
X15859205Y-8235639D01*
X15879549Y-8186645D01*
X15879595Y-8133595D01*
X15879595Y-10117328D01*
X15873499Y-10117328D01*
X15873499Y-9414517D01*
X15873499Y-8652517D01*
X15853241Y-8603488D01*
X15815761Y-8565943D01*
X15766767Y-8545599D01*
X15713717Y-8545553D01*
X15664688Y-8565811D01*
X15627143Y-8603291D01*
X15606799Y-8652285D01*
X15606753Y-8705335D01*
X15627011Y-8754364D01*
X15664491Y-8791909D01*
X15713485Y-8812253D01*
X15766535Y-8812299D01*
X15815564Y-8792041D01*
X15853109Y-8754561D01*
X15873453Y-8705567D01*
X15873499Y-8652517D01*
X15873499Y-9414517D01*
X15853241Y-9365488D01*
X15815761Y-9327943D01*
X15766767Y-9307599D01*
X15713717Y-9307553D01*
X15664688Y-9327811D01*
X15627143Y-9365291D01*
X15606799Y-9414285D01*
X15606753Y-9467335D01*
X15627011Y-9516364D01*
X15664491Y-9553909D01*
X15713485Y-9574253D01*
X15766535Y-9574299D01*
X15815564Y-9554041D01*
X15853109Y-9516561D01*
X15873453Y-9467567D01*
X15873499Y-9414517D01*
X15873499Y-10117328D01*
X15321594Y-10117328D01*
X15321594Y-7952850D01*
X15321594Y-7813150D01*
X15316896Y-7788938D01*
X15313429Y-7783659D01*
X15313429Y-7354577D01*
X15313429Y-6592577D01*
X15293171Y-6543548D01*
X15255691Y-6506003D01*
X15206697Y-6485659D01*
X15153647Y-6485613D01*
X15104618Y-6505871D01*
X15067073Y-6543351D01*
X15046729Y-6592345D01*
X15046683Y-6645395D01*
X15066941Y-6694424D01*
X15104421Y-6731969D01*
X15153415Y-6752313D01*
X15206465Y-6752359D01*
X15255494Y-6732101D01*
X15293039Y-6694621D01*
X15313383Y-6645627D01*
X15313429Y-6592577D01*
X15313429Y-7354577D01*
X15293171Y-7305548D01*
X15255691Y-7268003D01*
X15206697Y-7247659D01*
X15153647Y-7247613D01*
X15104618Y-7267871D01*
X15067073Y-7305351D01*
X15046729Y-7354345D01*
X15046683Y-7407395D01*
X15066941Y-7456424D01*
X15104421Y-7493969D01*
X15153415Y-7514313D01*
X15206465Y-7514359D01*
X15255494Y-7494101D01*
X15293039Y-7456621D01*
X15313383Y-7407627D01*
X15313429Y-7354577D01*
X15313429Y-7783659D01*
X15302917Y-7767657D01*
X15281814Y-7753412D01*
X15256850Y-7748406D01*
X15117150Y-7748406D01*
X15092938Y-7753104D01*
X15071657Y-7767083D01*
X15057412Y-7788186D01*
X15052406Y-7813150D01*
X15052406Y-7952850D01*
X15057104Y-7977062D01*
X15071083Y-7998343D01*
X15092186Y-8012588D01*
X15117150Y-8017594D01*
X15126788Y-8017594D01*
X15111562Y-8023885D01*
X15074017Y-8061365D01*
X15059991Y-8095145D01*
X15046115Y-8061562D01*
X15008635Y-8024017D01*
X14959641Y-8003673D01*
X14906591Y-8003627D01*
X14874467Y-8016900D01*
X14874467Y-6638238D01*
X14871589Y-6585266D01*
X14856854Y-6549693D01*
X14833293Y-6543528D01*
X14815332Y-6561488D01*
X14815332Y-6525567D01*
X14809167Y-6502006D01*
X14759126Y-6484393D01*
X14706154Y-6487271D01*
X14670581Y-6502006D01*
X14664416Y-6525567D01*
X14739874Y-6601025D01*
X14815332Y-6525567D01*
X14815332Y-6561488D01*
X14757834Y-6618986D01*
X14833293Y-6694444D01*
X14856854Y-6688279D01*
X14874467Y-6638238D01*
X14874467Y-8016900D01*
X14873247Y-8017404D01*
X14873247Y-7354577D01*
X14852989Y-7305548D01*
X14815509Y-7268003D01*
X14815332Y-7267930D01*
X14815332Y-6712405D01*
X14739874Y-6636946D01*
X14721913Y-6654907D01*
X14721913Y-6618986D01*
X14646455Y-6543528D01*
X14622894Y-6549693D01*
X14605281Y-6599734D01*
X14608159Y-6652706D01*
X14622894Y-6688279D01*
X14646455Y-6694444D01*
X14721913Y-6618986D01*
X14721913Y-6654907D01*
X14664416Y-6712405D01*
X14670581Y-6735966D01*
X14720622Y-6753579D01*
X14773594Y-6750701D01*
X14809167Y-6735966D01*
X14815332Y-6712405D01*
X14815332Y-7267930D01*
X14766515Y-7247659D01*
X14713465Y-7247613D01*
X14664436Y-7267871D01*
X14626891Y-7305351D01*
X14606547Y-7354345D01*
X14606501Y-7407395D01*
X14626759Y-7456424D01*
X14664239Y-7493969D01*
X14713233Y-7514313D01*
X14766283Y-7514359D01*
X14815312Y-7494101D01*
X14852857Y-7456621D01*
X14873201Y-7407627D01*
X14873247Y-7354577D01*
X14873247Y-8017404D01*
X14857562Y-8023885D01*
X14820017Y-8061365D01*
X14799673Y-8110359D01*
X14799627Y-8163409D01*
X14819885Y-8212438D01*
X14857365Y-8249983D01*
X14906359Y-8270327D01*
X14959409Y-8270373D01*
X15008438Y-8250115D01*
X15045983Y-8212635D01*
X15060009Y-8178855D01*
X15073885Y-8212438D01*
X15111365Y-8249983D01*
X15160359Y-8270327D01*
X15213409Y-8270373D01*
X15262438Y-8250115D01*
X15299983Y-8212635D01*
X15320327Y-8163641D01*
X15320373Y-8110591D01*
X15300115Y-8061562D01*
X15262635Y-8024017D01*
X15247166Y-8017594D01*
X15256850Y-8017594D01*
X15281062Y-8012896D01*
X15302343Y-7998917D01*
X15316588Y-7977814D01*
X15321594Y-7952850D01*
X15321594Y-10117328D01*
X15053333Y-10117328D01*
X15053333Y-9414263D01*
X15053333Y-8652263D01*
X15033075Y-8603234D01*
X14995595Y-8565689D01*
X14946601Y-8545345D01*
X14893551Y-8545299D01*
X14844522Y-8565557D01*
X14806977Y-8603037D01*
X14786633Y-8652031D01*
X14786587Y-8705081D01*
X14806845Y-8754110D01*
X14844325Y-8791655D01*
X14893319Y-8811999D01*
X14946369Y-8812045D01*
X14995398Y-8791787D01*
X15032943Y-8754307D01*
X15053287Y-8705313D01*
X15053333Y-8652263D01*
X15053333Y-9414263D01*
X15033075Y-9365234D01*
X14995595Y-9327689D01*
X14946601Y-9307345D01*
X14893551Y-9307299D01*
X14844522Y-9327557D01*
X14806977Y-9365037D01*
X14786633Y-9414031D01*
X14786587Y-9467081D01*
X14806845Y-9516110D01*
X14844325Y-9553655D01*
X14893319Y-9573999D01*
X14946369Y-9574045D01*
X14995398Y-9553787D01*
X15032943Y-9516307D01*
X15053287Y-9467313D01*
X15053333Y-9414263D01*
X15053333Y-10117328D01*
X14533395Y-10117328D01*
X14533395Y-8287519D01*
X14533395Y-7779519D01*
X14513137Y-7730490D01*
X14475657Y-7692945D01*
X14426663Y-7672601D01*
X14373613Y-7672555D01*
X14324584Y-7692813D01*
X14287039Y-7730293D01*
X14266695Y-7779287D01*
X14266649Y-7832337D01*
X14286907Y-7881366D01*
X14324387Y-7918911D01*
X14373381Y-7939255D01*
X14426431Y-7939301D01*
X14475460Y-7919043D01*
X14513005Y-7881563D01*
X14533349Y-7832569D01*
X14533395Y-7779519D01*
X14533395Y-8287519D01*
X14513137Y-8238490D01*
X14475657Y-8200945D01*
X14426663Y-8180601D01*
X14373613Y-8180555D01*
X14324584Y-8200813D01*
X14287039Y-8238293D01*
X14266695Y-8287287D01*
X14266649Y-8340337D01*
X14286907Y-8389366D01*
X14324387Y-8426911D01*
X14373381Y-8447255D01*
X14426431Y-8447301D01*
X14475460Y-8427043D01*
X14513005Y-8389563D01*
X14533349Y-8340569D01*
X14533395Y-8287519D01*
X14533395Y-10117328D01*
X14404594Y-10117328D01*
X14404594Y-9142850D01*
X14404594Y-9003150D01*
X14399896Y-8978938D01*
X14385917Y-8957657D01*
X14364814Y-8943412D01*
X14339850Y-8938406D01*
X14200150Y-8938406D01*
X14175938Y-8943104D01*
X14171594Y-8945957D01*
X14171594Y-7259850D01*
X14171594Y-7120150D01*
X14166896Y-7095938D01*
X14152917Y-7074657D01*
X14131814Y-7060412D01*
X14106850Y-7055406D01*
X13967150Y-7055406D01*
X13942938Y-7060104D01*
X13921657Y-7074083D01*
X13907412Y-7095186D01*
X13902406Y-7120150D01*
X13902406Y-7126564D01*
X13899980Y-7120707D01*
X13876419Y-7114542D01*
X13858458Y-7132502D01*
X13858458Y-7096581D01*
X13852293Y-7073020D01*
X13802252Y-7055407D01*
X13749280Y-7058285D01*
X13713707Y-7073020D01*
X13707542Y-7096581D01*
X13783000Y-7172039D01*
X13858458Y-7096581D01*
X13858458Y-7132502D01*
X13800960Y-7190000D01*
X13876419Y-7265458D01*
X13899980Y-7259293D01*
X13902406Y-7252400D01*
X13902406Y-7259850D01*
X13907104Y-7284062D01*
X13921083Y-7305343D01*
X13942186Y-7319588D01*
X13967150Y-7324594D01*
X14106850Y-7324594D01*
X14131062Y-7319896D01*
X14152343Y-7305917D01*
X14166588Y-7284814D01*
X14171594Y-7259850D01*
X14171594Y-8945957D01*
X14154657Y-8957083D01*
X14140412Y-8978186D01*
X14135406Y-9003150D01*
X14135406Y-9142850D01*
X14140104Y-9167062D01*
X14154083Y-9188343D01*
X14175186Y-9202588D01*
X14200150Y-9207594D01*
X14206564Y-9207594D01*
X14200707Y-9210020D01*
X14194542Y-9233581D01*
X14270000Y-9309040D01*
X14345458Y-9233581D01*
X14339293Y-9210020D01*
X14332400Y-9207594D01*
X14339850Y-9207594D01*
X14364062Y-9202896D01*
X14385343Y-9188917D01*
X14399588Y-9167814D01*
X14404594Y-9142850D01*
X14404594Y-10117328D01*
X14404593Y-10117328D01*
X14404593Y-9346252D01*
X14401715Y-9293280D01*
X14386980Y-9257707D01*
X14363419Y-9251542D01*
X14287960Y-9327000D01*
X14363419Y-9402458D01*
X14386980Y-9396293D01*
X14404593Y-9346252D01*
X14404593Y-10117328D01*
X14345458Y-10117328D01*
X14345458Y-9420419D01*
X14270000Y-9344961D01*
X14252039Y-9362921D01*
X14252039Y-9327000D01*
X14176581Y-9251542D01*
X14153020Y-9257707D01*
X14135407Y-9307748D01*
X14138285Y-9360720D01*
X14153020Y-9396293D01*
X14176581Y-9402458D01*
X14252039Y-9327000D01*
X14252039Y-9362921D01*
X14194542Y-9420419D01*
X14200707Y-9443980D01*
X14250748Y-9461593D01*
X14303720Y-9458715D01*
X14339293Y-9443980D01*
X14345458Y-9420419D01*
X14345458Y-10117328D01*
X14134361Y-10117328D01*
X14134361Y-8273549D01*
X14134361Y-7773677D01*
X14114103Y-7724648D01*
X14076623Y-7687103D01*
X14027629Y-7666759D01*
X13974579Y-7666713D01*
X13925550Y-7686971D01*
X13888005Y-7724451D01*
X13867661Y-7773445D01*
X13867615Y-7826495D01*
X13887873Y-7875524D01*
X13925353Y-7913069D01*
X13974347Y-7933413D01*
X14027397Y-7933459D01*
X14076426Y-7913201D01*
X14113971Y-7875721D01*
X14134315Y-7826727D01*
X14134361Y-7773677D01*
X14134361Y-8273549D01*
X14114103Y-8224520D01*
X14076623Y-8186975D01*
X14027629Y-8166631D01*
X13974579Y-8166585D01*
X13925550Y-8186843D01*
X13888005Y-8224323D01*
X13867661Y-8273317D01*
X13867615Y-8326367D01*
X13887873Y-8375396D01*
X13925353Y-8412941D01*
X13974347Y-8433285D01*
X14027397Y-8433331D01*
X14076426Y-8413073D01*
X14113971Y-8375593D01*
X14134315Y-8326599D01*
X14134361Y-8273549D01*
X14134361Y-10117328D01*
X13858458Y-10117328D01*
X13858458Y-7283419D01*
X13783000Y-7207960D01*
X13765039Y-7225921D01*
X13765039Y-7190000D01*
X13689581Y-7114542D01*
X13666020Y-7120707D01*
X13648407Y-7170748D01*
X13651285Y-7223720D01*
X13666020Y-7259293D01*
X13689581Y-7265458D01*
X13765039Y-7190000D01*
X13765039Y-7225921D01*
X13707542Y-7283419D01*
X13713707Y-7306980D01*
X13763748Y-7324593D01*
X13816720Y-7321715D01*
X13852293Y-7306980D01*
X13858458Y-7283419D01*
X13858458Y-10117328D01*
X13793493Y-10117328D01*
X13793493Y-9414517D01*
X13793493Y-8652517D01*
X13773235Y-8603488D01*
X13735755Y-8565943D01*
X13686761Y-8545599D01*
X13633711Y-8545553D01*
X13584682Y-8565811D01*
X13547137Y-8603291D01*
X13526793Y-8652285D01*
X13526747Y-8705335D01*
X13547005Y-8754364D01*
X13584485Y-8791909D01*
X13633479Y-8812253D01*
X13686529Y-8812299D01*
X13735558Y-8792041D01*
X13773103Y-8754561D01*
X13793447Y-8705567D01*
X13793493Y-8652517D01*
X13793493Y-9414517D01*
X13773235Y-9365488D01*
X13735755Y-9327943D01*
X13686761Y-9307599D01*
X13633711Y-9307553D01*
X13584682Y-9327811D01*
X13547137Y-9365291D01*
X13526793Y-9414285D01*
X13526747Y-9467335D01*
X13547005Y-9516364D01*
X13584485Y-9553909D01*
X13633479Y-9574253D01*
X13686529Y-9574299D01*
X13735558Y-9554041D01*
X13773103Y-9516561D01*
X13793447Y-9467567D01*
X13793493Y-9414517D01*
X13793493Y-10117328D01*
X13372361Y-10117328D01*
X13372361Y-8273549D01*
X13372361Y-7773677D01*
X13352103Y-7724648D01*
X13314623Y-7687103D01*
X13265629Y-7666759D01*
X13212579Y-7666713D01*
X13163550Y-7686971D01*
X13126005Y-7724451D01*
X13105661Y-7773445D01*
X13105615Y-7826495D01*
X13125873Y-7875524D01*
X13163353Y-7913069D01*
X13212347Y-7933413D01*
X13265397Y-7933459D01*
X13314426Y-7913201D01*
X13351971Y-7875721D01*
X13372315Y-7826727D01*
X13372361Y-7773677D01*
X13372361Y-8273549D01*
X13352103Y-8224520D01*
X13314623Y-8186975D01*
X13265629Y-8166631D01*
X13212579Y-8166585D01*
X13163550Y-8186843D01*
X13126005Y-8224323D01*
X13105661Y-8273317D01*
X13105615Y-8326367D01*
X13125873Y-8375396D01*
X13163353Y-8412941D01*
X13212347Y-8433285D01*
X13265397Y-8433331D01*
X13314426Y-8413073D01*
X13351971Y-8375593D01*
X13372315Y-8326599D01*
X13372361Y-8273549D01*
X13372361Y-10117328D01*
X12868334Y-10117328D01*
X12868334Y-8718000D01*
X12868334Y-8210000D01*
X12868334Y-7702000D01*
X12856927Y-7644651D01*
X12824441Y-7596033D01*
X12792963Y-7575000D01*
X12824441Y-7553967D01*
X12856927Y-7505349D01*
X12868334Y-7448000D01*
X12856927Y-7390651D01*
X12824441Y-7342033D01*
X12793493Y-7321354D01*
X12835073Y-7284204D01*
X12860471Y-7231479D01*
X12860736Y-7229903D01*
X12860736Y-7158097D01*
X12860471Y-7156521D01*
X12835073Y-7103796D01*
X12791432Y-7064805D01*
X12736191Y-7045482D01*
X12712700Y-7059908D01*
X12712700Y-7181300D01*
X12848622Y-7181300D01*
X12860736Y-7158097D01*
X12860736Y-7229903D01*
X12848622Y-7206700D01*
X12712700Y-7206700D01*
X12712700Y-7208700D01*
X12687300Y-7208700D01*
X12687300Y-7206700D01*
X12687300Y-7181300D01*
X12687300Y-7059908D01*
X12663809Y-7045482D01*
X12608568Y-7064805D01*
X12564927Y-7103796D01*
X12539529Y-7156521D01*
X12539264Y-7158097D01*
X12551378Y-7181300D01*
X12687300Y-7181300D01*
X12687300Y-7206700D01*
X12551378Y-7206700D01*
X12539264Y-7229903D01*
X12539529Y-7231479D01*
X12564927Y-7284204D01*
X12606507Y-7321354D01*
X12575558Y-7342033D01*
X12543073Y-7390651D01*
X12531665Y-7448000D01*
X12543073Y-7505349D01*
X12575558Y-7553967D01*
X12607036Y-7575000D01*
X12575558Y-7596033D01*
X12543073Y-7644651D01*
X12531665Y-7702000D01*
X12543073Y-7759349D01*
X12575558Y-7807967D01*
X12606507Y-7828646D01*
X12564927Y-7865796D01*
X12539529Y-7918521D01*
X12539264Y-7920097D01*
X12551378Y-7943300D01*
X12687300Y-7943300D01*
X12687300Y-7941300D01*
X12712700Y-7941300D01*
X12712700Y-7943300D01*
X12848622Y-7943300D01*
X12860736Y-7920097D01*
X12860471Y-7918521D01*
X12835073Y-7865796D01*
X12793493Y-7828646D01*
X12824441Y-7807967D01*
X12856927Y-7759349D01*
X12868334Y-7702000D01*
X12868334Y-8210000D01*
X12856927Y-8152651D01*
X12824441Y-8104033D01*
X12793493Y-8083354D01*
X12835073Y-8046204D01*
X12860471Y-7993479D01*
X12860736Y-7991903D01*
X12848622Y-7968700D01*
X12712700Y-7968700D01*
X12712700Y-7970700D01*
X12687300Y-7970700D01*
X12687300Y-7968700D01*
X12551378Y-7968700D01*
X12539264Y-7991903D01*
X12539529Y-7993479D01*
X12564927Y-8046204D01*
X12606507Y-8083354D01*
X12575558Y-8104033D01*
X12543073Y-8152651D01*
X12531665Y-8210000D01*
X12543073Y-8267349D01*
X12575558Y-8315967D01*
X12606507Y-8336646D01*
X12564927Y-8373796D01*
X12539529Y-8426521D01*
X12539264Y-8428097D01*
X12551378Y-8451300D01*
X12687300Y-8451300D01*
X12687300Y-8449300D01*
X12712700Y-8449300D01*
X12712700Y-8451300D01*
X12848622Y-8451300D01*
X12860736Y-8428097D01*
X12860471Y-8426521D01*
X12835073Y-8373796D01*
X12793493Y-8336646D01*
X12824441Y-8315967D01*
X12856927Y-8267349D01*
X12868334Y-8210000D01*
X12868334Y-8718000D01*
X12856927Y-8660651D01*
X12824441Y-8612033D01*
X12793493Y-8591354D01*
X12835073Y-8554204D01*
X12860471Y-8501479D01*
X12860736Y-8499903D01*
X12848622Y-8476700D01*
X12712700Y-8476700D01*
X12712700Y-8478700D01*
X12687300Y-8478700D01*
X12687300Y-8476700D01*
X12551378Y-8476700D01*
X12539264Y-8499903D01*
X12539529Y-8501479D01*
X12564927Y-8554204D01*
X12606507Y-8591354D01*
X12575558Y-8612033D01*
X12543073Y-8660651D01*
X12531665Y-8718000D01*
X12543073Y-8775349D01*
X12575558Y-8823967D01*
X12606507Y-8844646D01*
X12564927Y-8881796D01*
X12539529Y-8934521D01*
X12539264Y-8936097D01*
X12551378Y-8959300D01*
X12687300Y-8959300D01*
X12687300Y-8957300D01*
X12712700Y-8957300D01*
X12712700Y-8959300D01*
X12848622Y-8959300D01*
X12860736Y-8936097D01*
X12860471Y-8934521D01*
X12835073Y-8881796D01*
X12793493Y-8844646D01*
X12824441Y-8823967D01*
X12856927Y-8775349D01*
X12868334Y-8718000D01*
X12868334Y-10117328D01*
X12866344Y-10117328D01*
X12866344Y-9312360D01*
X12866344Y-9139640D01*
X12861646Y-9115428D01*
X12847667Y-9094147D01*
X12826564Y-9079902D01*
X12817335Y-9078052D01*
X12835073Y-9062204D01*
X12860471Y-9009479D01*
X12860736Y-9007903D01*
X12848622Y-8984700D01*
X12712700Y-8984700D01*
X12712700Y-8986700D01*
X12687300Y-8986700D01*
X12687300Y-8984700D01*
X12551378Y-8984700D01*
X12539264Y-9007903D01*
X12539529Y-9009479D01*
X12564927Y-9062204D01*
X12582570Y-9077967D01*
X12574188Y-9079594D01*
X12552907Y-9093573D01*
X12538662Y-9114676D01*
X12533656Y-9139640D01*
X12533656Y-9312360D01*
X12538354Y-9336572D01*
X12552333Y-9357853D01*
X12573436Y-9372098D01*
X12598400Y-9377104D01*
X12801600Y-9377104D01*
X12825812Y-9372406D01*
X12847093Y-9358427D01*
X12861338Y-9337324D01*
X12866344Y-9312360D01*
X12866344Y-10117328D01*
X12482576Y-10117328D01*
X12482576Y-6725889D01*
X12522149Y-6765531D01*
X12637355Y-6813368D01*
X12762098Y-6813477D01*
X12877387Y-6765841D01*
X12965671Y-6677711D01*
X13013508Y-6562505D01*
X13013617Y-6437762D01*
X12965981Y-6322473D01*
X12926014Y-6282436D01*
X17317466Y-6282436D01*
X17317466Y-9674129D01*
M02*
