G04 #@! TF.FileFunction,Legend,Top*
%FSLAX45Y45*%
G04 Gerber Fmt 4.5, Leading zero omitted, Abs format (unit mm)*
G04 Created by KiCad (PCBNEW (2015-01-25 BZR 5388)-product) date Mo 03 Aug 2015 14:21:19 CEST*
%MOMM*%
G01*
G04 APERTURE LIST*
%ADD10C,0.150000*%
%ADD11C,0.200660*%
%ADD12C,0.381000*%
%ADD13C,0.203200*%
%ADD14C,0.304800*%
G04 APERTURE END LIST*
D10*
D11*
X12983752Y-7919962D02*
X12974221Y-7915196D01*
X12959924Y-7915196D01*
X12945627Y-7919962D01*
X12936096Y-7929493D01*
X12931331Y-7939024D01*
X12926565Y-7958086D01*
X12926565Y-7972383D01*
X12931331Y-7991445D01*
X12936096Y-8000976D01*
X12945627Y-8010507D01*
X12959924Y-8015272D01*
X12969455Y-8015272D01*
X12983752Y-8010507D01*
X12988517Y-8005741D01*
X12988517Y-7972383D01*
X12969455Y-7972383D01*
X13031407Y-8015272D02*
X13031407Y-7915196D01*
X13088593Y-8015272D01*
X13088593Y-7915196D01*
X13136248Y-8015272D02*
X13136248Y-7915196D01*
X13160076Y-7915196D01*
X13174373Y-7919962D01*
X13183904Y-7929493D01*
X13188669Y-7939024D01*
X13193435Y-7958086D01*
X13193435Y-7972383D01*
X13188669Y-7991445D01*
X13183904Y-8000976D01*
X13174373Y-8010507D01*
X13160076Y-8015272D01*
X13136248Y-8015272D01*
X12983752Y-8419962D02*
X12974221Y-8415197D01*
X12959924Y-8415197D01*
X12945627Y-8419962D01*
X12936096Y-8429493D01*
X12931331Y-8439024D01*
X12926565Y-8458086D01*
X12926565Y-8472383D01*
X12931331Y-8491445D01*
X12936096Y-8500976D01*
X12945627Y-8510507D01*
X12959924Y-8515273D01*
X12969455Y-8515273D01*
X12983752Y-8510507D01*
X12988517Y-8505741D01*
X12988517Y-8472383D01*
X12969455Y-8472383D01*
X13031407Y-8515273D02*
X13031407Y-8415197D01*
X13088593Y-8515273D01*
X13088593Y-8415197D01*
X13136248Y-8515273D02*
X13136248Y-8415197D01*
X13160076Y-8415197D01*
X13174373Y-8419962D01*
X13183904Y-8429493D01*
X13188669Y-8439024D01*
X13193435Y-8458086D01*
X13193435Y-8472383D01*
X13188669Y-8491445D01*
X13183904Y-8500976D01*
X13174373Y-8510507D01*
X13160076Y-8515273D01*
X13136248Y-8515273D01*
X13033752Y-8919962D02*
X13024221Y-8915197D01*
X13009924Y-8915197D01*
X12995627Y-8919962D01*
X12986096Y-8929493D01*
X12981331Y-8939024D01*
X12976565Y-8958086D01*
X12976565Y-8972383D01*
X12981331Y-8991445D01*
X12986096Y-9000976D01*
X12995627Y-9010507D01*
X13009924Y-9015273D01*
X13019455Y-9015273D01*
X13033752Y-9010507D01*
X13038517Y-9005741D01*
X13038517Y-8972383D01*
X13019455Y-8972383D01*
X13081407Y-9015273D02*
X13081407Y-8915197D01*
X13138593Y-9015273D01*
X13138593Y-8915197D01*
X13186248Y-9015273D02*
X13186248Y-8915197D01*
X13210076Y-8915197D01*
X13224373Y-8919962D01*
X13233904Y-8929493D01*
X13238669Y-8939024D01*
X13243435Y-8958086D01*
X13243435Y-8972383D01*
X13238669Y-8991445D01*
X13233904Y-9000976D01*
X13224373Y-9010507D01*
X13210076Y-9015273D01*
X13186248Y-9015273D01*
X12993752Y-7139962D02*
X12984221Y-7135196D01*
X12969924Y-7135196D01*
X12955627Y-7139962D01*
X12946096Y-7149493D01*
X12941331Y-7159024D01*
X12936565Y-7178086D01*
X12936565Y-7192383D01*
X12941331Y-7211445D01*
X12946096Y-7220976D01*
X12955627Y-7230507D01*
X12969924Y-7235272D01*
X12979455Y-7235272D01*
X12993752Y-7230507D01*
X12998517Y-7225741D01*
X12998517Y-7192383D01*
X12979455Y-7192383D01*
X13041407Y-7235272D02*
X13041407Y-7135196D01*
X13098593Y-7235272D01*
X13098593Y-7135196D01*
X13146248Y-7235272D02*
X13146248Y-7135196D01*
X13170076Y-7135196D01*
X13184373Y-7139962D01*
X13193904Y-7149493D01*
X13198669Y-7159024D01*
X13203435Y-7178086D01*
X13203435Y-7192383D01*
X13198669Y-7211445D01*
X13193904Y-7220976D01*
X13184373Y-7230507D01*
X13170076Y-7235272D01*
X13146248Y-7235272D01*
X12928948Y-7405196D02*
X12948010Y-7405196D01*
X12957541Y-7409962D01*
X12967072Y-7419493D01*
X12971838Y-7438555D01*
X12971838Y-7471914D01*
X12967072Y-7490976D01*
X12957541Y-7500507D01*
X12948010Y-7505272D01*
X12928948Y-7505272D01*
X12919417Y-7500507D01*
X12909886Y-7490976D01*
X12905120Y-7471914D01*
X12905120Y-7438555D01*
X12909886Y-7419493D01*
X12919417Y-7409962D01*
X12928948Y-7405196D01*
X13057617Y-7438555D02*
X13057617Y-7505272D01*
X13014727Y-7438555D02*
X13014727Y-7490976D01*
X13019493Y-7500507D01*
X13029024Y-7505272D01*
X13043321Y-7505272D01*
X13052852Y-7500507D01*
X13057617Y-7495741D01*
X13090976Y-7438555D02*
X13129100Y-7438555D01*
X13105272Y-7405196D02*
X13105272Y-7490976D01*
X13110038Y-7500507D01*
X13119569Y-7505272D01*
X13129100Y-7505272D01*
X13157693Y-7414727D02*
X13162459Y-7409962D01*
X13171990Y-7405196D01*
X13195817Y-7405196D01*
X13205348Y-7409962D01*
X13210114Y-7414727D01*
X13214880Y-7424259D01*
X13214880Y-7433790D01*
X13210114Y-7448086D01*
X13152928Y-7505272D01*
X13214880Y-7505272D01*
X12938948Y-8145196D02*
X12958010Y-8145196D01*
X12967541Y-8149962D01*
X12977072Y-8159493D01*
X12981838Y-8178555D01*
X12981838Y-8211914D01*
X12977072Y-8230976D01*
X12967541Y-8240507D01*
X12958010Y-8245272D01*
X12938948Y-8245272D01*
X12929417Y-8240507D01*
X12919886Y-8230976D01*
X12915120Y-8211914D01*
X12915120Y-8178555D01*
X12919886Y-8159493D01*
X12929417Y-8149962D01*
X12938948Y-8145196D01*
X13067617Y-8178555D02*
X13067617Y-8245272D01*
X13024727Y-8178555D02*
X13024727Y-8230976D01*
X13029493Y-8240507D01*
X13039024Y-8245272D01*
X13053321Y-8245272D01*
X13062852Y-8240507D01*
X13067617Y-8235741D01*
X13100976Y-8178555D02*
X13139100Y-8178555D01*
X13115272Y-8145196D02*
X13115272Y-8230976D01*
X13120038Y-8240507D01*
X13129569Y-8245272D01*
X13139100Y-8245272D01*
X13224880Y-8245272D02*
X13167693Y-8245272D01*
X13196286Y-8245272D02*
X13196286Y-8145196D01*
X13186755Y-8159493D01*
X13177224Y-8169024D01*
X13167693Y-8173790D01*
X12915589Y-8755273D02*
X12915589Y-8655197D01*
X12963245Y-8688555D02*
X12963245Y-8755273D01*
X12963245Y-8698086D02*
X12968010Y-8693321D01*
X12977541Y-8688555D01*
X12991838Y-8688555D01*
X13001369Y-8693321D01*
X13006134Y-8702852D01*
X13006134Y-8755273D01*
X13053790Y-8688555D02*
X13053790Y-8788631D01*
X13053790Y-8693321D02*
X13063321Y-8688555D01*
X13082383Y-8688555D01*
X13091914Y-8693321D01*
X13096679Y-8698086D01*
X13101445Y-8707617D01*
X13101445Y-8736210D01*
X13096679Y-8745741D01*
X13091914Y-8750507D01*
X13082383Y-8755273D01*
X13063321Y-8755273D01*
X13053790Y-8750507D01*
X13187224Y-8688555D02*
X13187224Y-8755273D01*
X13144335Y-8688555D02*
X13144335Y-8740976D01*
X13149100Y-8750507D01*
X13158631Y-8755273D01*
X13172928Y-8755273D01*
X13182459Y-8750507D01*
X13187224Y-8745741D01*
X13220583Y-8688555D02*
X13258707Y-8688555D01*
X13234880Y-8655197D02*
X13234880Y-8740976D01*
X13239645Y-8750507D01*
X13249176Y-8755273D01*
X13258707Y-8755273D01*
X12903676Y-9237148D02*
X12979924Y-9237148D01*
X12941800Y-9275273D02*
X12941800Y-9199024D01*
X13080000Y-9275273D02*
X13022814Y-9275273D01*
X13051407Y-9275273D02*
X13051407Y-9175197D01*
X13041876Y-9189493D01*
X13032345Y-9199024D01*
X13022814Y-9203790D01*
X13118124Y-9184728D02*
X13122890Y-9179962D01*
X13132421Y-9175197D01*
X13156248Y-9175197D01*
X13165779Y-9179962D01*
X13170545Y-9184728D01*
X13175310Y-9194259D01*
X13175310Y-9203790D01*
X13170545Y-9218086D01*
X13113359Y-9275273D01*
X13175310Y-9275273D01*
X13203904Y-9175197D02*
X13237262Y-9275273D01*
X13270621Y-9175197D01*
X12680938Y-6995220D02*
X12700000Y-6995220D01*
X12709531Y-6990455D01*
X12714297Y-6985689D01*
X12723828Y-6971393D01*
X12728593Y-6952331D01*
X12728593Y-6914207D01*
X12723828Y-6904675D01*
X12719062Y-6899910D01*
X12709531Y-6895144D01*
X12690469Y-6895144D01*
X12680938Y-6899910D01*
X12676172Y-6904675D01*
X12671407Y-6914207D01*
X12671407Y-6938034D01*
X12676172Y-6947565D01*
X12680938Y-6952331D01*
X12690469Y-6957096D01*
X12709531Y-6957096D01*
X12719062Y-6952331D01*
X12723828Y-6947565D01*
X12728593Y-6938034D01*
X12728593Y-9495343D02*
X12671407Y-9495343D01*
X12700000Y-9495343D02*
X12700000Y-9395267D01*
X12690469Y-9409563D01*
X12680938Y-9419094D01*
X12671407Y-9423860D01*
X12790400Y-10005375D02*
X12790400Y-9905299D01*
X12823758Y-9976781D01*
X12857117Y-9905299D01*
X12857117Y-10005375D01*
X12904772Y-10005375D02*
X12904772Y-9938657D01*
X12904772Y-9905299D02*
X12900007Y-9910064D01*
X12904772Y-9914830D01*
X12909538Y-9910064D01*
X12904772Y-9905299D01*
X12904772Y-9914830D01*
X12952427Y-9938657D02*
X12952427Y-10005375D01*
X12952427Y-9948188D02*
X12957193Y-9943423D01*
X12966724Y-9938657D01*
X12981021Y-9938657D01*
X12990552Y-9943423D01*
X12995317Y-9952954D01*
X12995317Y-10005375D01*
X13042972Y-10005375D02*
X13042972Y-9938657D01*
X13042972Y-9905299D02*
X13038207Y-9910064D01*
X13042972Y-9914830D01*
X13047738Y-9910064D01*
X13042972Y-9905299D01*
X13042972Y-9914830D01*
X13090628Y-10005375D02*
X13090628Y-9938657D01*
X13090628Y-9948188D02*
X13095393Y-9943423D01*
X13104924Y-9938657D01*
X13119221Y-9938657D01*
X13128752Y-9943423D01*
X13133517Y-9952954D01*
X13133517Y-10005375D01*
X13133517Y-9952954D02*
X13138283Y-9943423D01*
X13147814Y-9938657D01*
X13162111Y-9938657D01*
X13171642Y-9943423D01*
X13176407Y-9952954D01*
X13176407Y-10005375D01*
X13266952Y-10005375D02*
X13266952Y-9952954D01*
X13262187Y-9943423D01*
X13252656Y-9938657D01*
X13233593Y-9938657D01*
X13224062Y-9943423D01*
X13266952Y-10000609D02*
X13257421Y-10005375D01*
X13233593Y-10005375D01*
X13224062Y-10000609D01*
X13219297Y-9991078D01*
X13219297Y-9981547D01*
X13224062Y-9972016D01*
X13233593Y-9967250D01*
X13257421Y-9967250D01*
X13266952Y-9962485D01*
X13390856Y-9938657D02*
X13467104Y-9967250D01*
X13390856Y-9995843D01*
X13586242Y-10000609D02*
X13600539Y-10005375D01*
X13624366Y-10005375D01*
X13633897Y-10000609D01*
X13638663Y-9995843D01*
X13643429Y-9986312D01*
X13643429Y-9976781D01*
X13638663Y-9967250D01*
X13633897Y-9962485D01*
X13624366Y-9957719D01*
X13605304Y-9952954D01*
X13595773Y-9948188D01*
X13591008Y-9943423D01*
X13586242Y-9933892D01*
X13586242Y-9924361D01*
X13591008Y-9914830D01*
X13595773Y-9910064D01*
X13605304Y-9905299D01*
X13629132Y-9905299D01*
X13643429Y-9910064D01*
X13686318Y-10005375D02*
X13686318Y-9938657D01*
X13686318Y-9905299D02*
X13681553Y-9910064D01*
X13686318Y-9914830D01*
X13691084Y-9910064D01*
X13686318Y-9905299D01*
X13686318Y-9914830D01*
X13776863Y-10005375D02*
X13776863Y-9905299D01*
X13776863Y-10000609D02*
X13767332Y-10005375D01*
X13748270Y-10005375D01*
X13738739Y-10000609D01*
X13733973Y-9995843D01*
X13729208Y-9986312D01*
X13729208Y-9957719D01*
X13733973Y-9948188D01*
X13738739Y-9943423D01*
X13748270Y-9938657D01*
X13767332Y-9938657D01*
X13776863Y-9943423D01*
X13862643Y-10000609D02*
X13853112Y-10005375D01*
X13834050Y-10005375D01*
X13824518Y-10000609D01*
X13819753Y-9991078D01*
X13819753Y-9952954D01*
X13824518Y-9943423D01*
X13834050Y-9938657D01*
X13853112Y-9938657D01*
X13862643Y-9943423D01*
X13867408Y-9952954D01*
X13867408Y-9962485D01*
X13819753Y-9972016D01*
X13896001Y-9905299D02*
X13953188Y-9905299D01*
X13924594Y-10005375D02*
X13924594Y-9905299D01*
X14000843Y-10005375D02*
X13991312Y-10000609D01*
X13986546Y-9995843D01*
X13981781Y-9986312D01*
X13981781Y-9957719D01*
X13986546Y-9948188D01*
X13991312Y-9943423D01*
X14000843Y-9938657D01*
X14015139Y-9938657D01*
X14024670Y-9943423D01*
X14029436Y-9948188D01*
X14034202Y-9957719D01*
X14034202Y-9986312D01*
X14029436Y-9995843D01*
X14024670Y-10000609D01*
X14015139Y-10005375D01*
X14000843Y-10005375D01*
X14077091Y-9938657D02*
X14077091Y-10005375D01*
X14077091Y-9948188D02*
X14081857Y-9943423D01*
X14091388Y-9938657D01*
X14105684Y-9938657D01*
X14115215Y-9943423D01*
X14119981Y-9952954D01*
X14119981Y-10005375D01*
X14205760Y-10000609D02*
X14196229Y-10005375D01*
X14177167Y-10005375D01*
X14167636Y-10000609D01*
X14162871Y-9991078D01*
X14162871Y-9952954D01*
X14167636Y-9943423D01*
X14177167Y-9938657D01*
X14196229Y-9938657D01*
X14205760Y-9943423D01*
X14210526Y-9952954D01*
X14210526Y-9962485D01*
X14162871Y-9972016D01*
X14272478Y-9905299D02*
X14291540Y-9905299D01*
X14301071Y-9910064D01*
X14310602Y-9919595D01*
X14315367Y-9938657D01*
X14315367Y-9972016D01*
X14310602Y-9991078D01*
X14301071Y-10000609D01*
X14291540Y-10005375D01*
X14272478Y-10005375D01*
X14262947Y-10000609D01*
X14253416Y-9991078D01*
X14248650Y-9972016D01*
X14248650Y-9938657D01*
X14253416Y-9919595D01*
X14262947Y-9910064D01*
X14272478Y-9905299D01*
X14353492Y-10000609D02*
X14363023Y-10005375D01*
X14382085Y-10005375D01*
X14391616Y-10000609D01*
X14396381Y-9991078D01*
X14396381Y-9986312D01*
X14391616Y-9976781D01*
X14382085Y-9972016D01*
X14367788Y-9972016D01*
X14358257Y-9967250D01*
X14353492Y-9957719D01*
X14353492Y-9952954D01*
X14358257Y-9943423D01*
X14367788Y-9938657D01*
X14382085Y-9938657D01*
X14391616Y-9943423D01*
X14482161Y-10000609D02*
X14472630Y-10005375D01*
X14453568Y-10005375D01*
X14444037Y-10000609D01*
X14439271Y-9995843D01*
X14434506Y-9986312D01*
X14434506Y-9957719D01*
X14439271Y-9948188D01*
X14444037Y-9943423D01*
X14453568Y-9938657D01*
X14472630Y-9938657D01*
X14482161Y-9943423D01*
X14601299Y-9967250D02*
X14677547Y-9967250D01*
X14639423Y-10005375D02*
X14639423Y-9929126D01*
X14858637Y-9995843D02*
X14853872Y-10000609D01*
X14839575Y-10005375D01*
X14830044Y-10005375D01*
X14815747Y-10000609D01*
X14806216Y-9991078D01*
X14801451Y-9981547D01*
X14796685Y-9962485D01*
X14796685Y-9948188D01*
X14801451Y-9929126D01*
X14806216Y-9919595D01*
X14815747Y-9910064D01*
X14830044Y-9905299D01*
X14839575Y-9905299D01*
X14853872Y-9910064D01*
X14858637Y-9914830D01*
X14891996Y-9905299D02*
X14915823Y-10005375D01*
X14934886Y-9933892D01*
X14953948Y-10005375D01*
X14977775Y-9905299D01*
X15144569Y-9910064D02*
X15135038Y-9905299D01*
X15120741Y-9905299D01*
X15106444Y-9910064D01*
X15096913Y-9919595D01*
X15092148Y-9929126D01*
X15087382Y-9948188D01*
X15087382Y-9962485D01*
X15092148Y-9981547D01*
X15096913Y-9991078D01*
X15106444Y-10000609D01*
X15120741Y-10005375D01*
X15130272Y-10005375D01*
X15144569Y-10000609D01*
X15149334Y-9995843D01*
X15149334Y-9962485D01*
X15130272Y-9962485D01*
X15230348Y-10000609D02*
X15220817Y-10005375D01*
X15201755Y-10005375D01*
X15192224Y-10000609D01*
X15187458Y-9991078D01*
X15187458Y-9952954D01*
X15192224Y-9943423D01*
X15201755Y-9938657D01*
X15220817Y-9938657D01*
X15230348Y-9943423D01*
X15235114Y-9952954D01*
X15235114Y-9962485D01*
X15187458Y-9972016D01*
X15278003Y-9938657D02*
X15278003Y-10005375D01*
X15278003Y-9948188D02*
X15282769Y-9943423D01*
X15292300Y-9938657D01*
X15306596Y-9938657D01*
X15316127Y-9943423D01*
X15320893Y-9952954D01*
X15320893Y-10005375D01*
X15473390Y-10043499D02*
X15468624Y-10038733D01*
X15459093Y-10024437D01*
X15454328Y-10014906D01*
X15449562Y-10000609D01*
X15444797Y-9976781D01*
X15444797Y-9957719D01*
X15449562Y-9933892D01*
X15454328Y-9919595D01*
X15459093Y-9910064D01*
X15468624Y-9895767D01*
X15473390Y-9891002D01*
X15511514Y-10005375D02*
X15511514Y-9905299D01*
X15535342Y-9905299D01*
X15549638Y-9910064D01*
X15559169Y-9919595D01*
X15563935Y-9929126D01*
X15568700Y-9948188D01*
X15568700Y-9962485D01*
X15563935Y-9981547D01*
X15559169Y-9991078D01*
X15549638Y-10000609D01*
X15535342Y-10005375D01*
X15511514Y-10005375D01*
X15644949Y-9952954D02*
X15611590Y-9952954D01*
X15611590Y-10005375D02*
X15611590Y-9905299D01*
X15659245Y-9905299D01*
X15702135Y-10005375D02*
X15721197Y-10005375D01*
X15730728Y-10000609D01*
X15735494Y-9995843D01*
X15745025Y-9981547D01*
X15749790Y-9962485D01*
X15749790Y-9924361D01*
X15745025Y-9914830D01*
X15740259Y-9910064D01*
X15730728Y-9905299D01*
X15711666Y-9905299D01*
X15702135Y-9910064D01*
X15697369Y-9914830D01*
X15692604Y-9924361D01*
X15692604Y-9948188D01*
X15697369Y-9957719D01*
X15702135Y-9962485D01*
X15711666Y-9967250D01*
X15730728Y-9967250D01*
X15740259Y-9962485D01*
X15745025Y-9957719D01*
X15749790Y-9948188D01*
X15849866Y-10005375D02*
X15816507Y-9957719D01*
X15792680Y-10005375D02*
X15792680Y-9905299D01*
X15830804Y-9905299D01*
X15840335Y-9910064D01*
X15845101Y-9914830D01*
X15849866Y-9924361D01*
X15849866Y-9938657D01*
X15845101Y-9948188D01*
X15840335Y-9952954D01*
X15830804Y-9957719D01*
X15792680Y-9957719D01*
X15892756Y-9905299D02*
X15892756Y-9986312D01*
X15897521Y-9995843D01*
X15902287Y-10000609D01*
X15911818Y-10005375D01*
X15930880Y-10005375D01*
X15940411Y-10000609D01*
X15945177Y-9995843D01*
X15949942Y-9986312D01*
X15949942Y-9905299D01*
X15988066Y-10043499D02*
X15992832Y-10038733D01*
X16002363Y-10024437D01*
X16007128Y-10014906D01*
X16011894Y-10000609D01*
X16016659Y-9976781D01*
X16016659Y-9957719D01*
X16011894Y-9933892D01*
X16007128Y-9919595D01*
X16002363Y-9910064D01*
X15992832Y-9895767D01*
X15988066Y-9891002D01*
X16126266Y-9905299D02*
X16159625Y-10005375D01*
X16192984Y-9905299D01*
X16321653Y-9905299D02*
X16331184Y-9905299D01*
X16340715Y-9910064D01*
X16345481Y-9914830D01*
X16350246Y-9924361D01*
X16355012Y-9943423D01*
X16355012Y-9967250D01*
X16350246Y-9986312D01*
X16345481Y-9995843D01*
X16340715Y-10000609D01*
X16331184Y-10005375D01*
X16321653Y-10005375D01*
X16312122Y-10000609D01*
X16307356Y-9995843D01*
X16302591Y-9986312D01*
X16297825Y-9967250D01*
X16297825Y-9943423D01*
X16302591Y-9924361D01*
X16307356Y-9914830D01*
X16312122Y-9910064D01*
X16321653Y-9905299D01*
X16397901Y-9995843D02*
X16402667Y-10000609D01*
X16397901Y-10005375D01*
X16393136Y-10000609D01*
X16397901Y-9995843D01*
X16397901Y-10005375D01*
X16497977Y-10005375D02*
X16440791Y-10005375D01*
X16469384Y-10005375D02*
X16469384Y-9905299D01*
X16459853Y-9919595D01*
X16450322Y-9929126D01*
X16440791Y-9933892D01*
D12*
X17328642Y-9900158D02*
G75*
G03X17328642Y-9900158I-228600J0D01*
G01*
X12928600Y-6499860D02*
G75*
G03X12928600Y-6499860I-228600J0D01*
G01*
D13*
X15740126Y-7701026D02*
X15740126Y-7650226D01*
X15740126Y-6939026D02*
X15740126Y-6989826D01*
X15740126Y-6989826D02*
X15638526Y-6989826D01*
X15638526Y-6989826D02*
X15638526Y-7650226D01*
X15638526Y-7650226D02*
X15841726Y-7650226D01*
X15841726Y-7650226D02*
X15841726Y-6989826D01*
X15841726Y-6989826D02*
X15740126Y-6989826D01*
X15689326Y-7650226D02*
X15638526Y-7599426D01*
X15180056Y-7380986D02*
X15180056Y-7330186D01*
X15180056Y-6618986D02*
X15180056Y-6669786D01*
X15180056Y-6669786D02*
X15078456Y-6669786D01*
X15078456Y-6669786D02*
X15078456Y-7330186D01*
X15078456Y-7330186D02*
X15281656Y-7330186D01*
X15281656Y-7330186D02*
X15281656Y-6669786D01*
X15281656Y-6669786D02*
X15180056Y-6669786D01*
X15129256Y-7330186D02*
X15078456Y-7279386D01*
X13660120Y-8678926D02*
X13660120Y-8729726D01*
X13660120Y-9440926D02*
X13660120Y-9390126D01*
X13660120Y-9390126D02*
X13761720Y-9390126D01*
X13761720Y-9390126D02*
X13761720Y-8729726D01*
X13761720Y-8729726D02*
X13558520Y-8729726D01*
X13558520Y-8729726D02*
X13558520Y-9390126D01*
X13558520Y-9390126D02*
X13660120Y-9390126D01*
X13710920Y-8729726D02*
X13761720Y-8780526D01*
X14919960Y-9440672D02*
X14919960Y-9389872D01*
X14919960Y-8678672D02*
X14919960Y-8729472D01*
X14919960Y-8729472D02*
X14818360Y-8729472D01*
X14818360Y-8729472D02*
X14818360Y-9389872D01*
X14818360Y-9389872D02*
X15021560Y-9389872D01*
X15021560Y-9389872D02*
X15021560Y-8729472D01*
X15021560Y-8729472D02*
X14919960Y-8729472D01*
X14869160Y-9389872D02*
X14818360Y-9339072D01*
X16940022Y-7701026D02*
X16940022Y-7650226D01*
X16940022Y-6939026D02*
X16940022Y-6989826D01*
X16940022Y-6989826D02*
X16838422Y-6989826D01*
X16838422Y-6989826D02*
X16838422Y-7650226D01*
X16838422Y-7650226D02*
X17041622Y-7650226D01*
X17041622Y-7650226D02*
X17041622Y-6989826D01*
X17041622Y-6989826D02*
X16940022Y-6989826D01*
X16889222Y-7650226D02*
X16838422Y-7599426D01*
X16379952Y-7701026D02*
X16379952Y-7650226D01*
X16379952Y-6939026D02*
X16379952Y-6989826D01*
X16379952Y-6989826D02*
X16278352Y-6989826D01*
X16278352Y-6989826D02*
X16278352Y-7650226D01*
X16278352Y-7650226D02*
X16481552Y-7650226D01*
X16481552Y-7650226D02*
X16481552Y-6989826D01*
X16481552Y-6989826D02*
X16379952Y-6989826D01*
X16329152Y-7650226D02*
X16278352Y-7599426D01*
X14739874Y-7380986D02*
X14739874Y-7330186D01*
X14739874Y-6618986D02*
X14739874Y-6669786D01*
X14739874Y-6669786D02*
X14638274Y-6669786D01*
X14638274Y-6669786D02*
X14638274Y-7330186D01*
X14638274Y-7330186D02*
X14841474Y-7330186D01*
X14841474Y-7330186D02*
X14841474Y-6669786D01*
X14841474Y-6669786D02*
X14739874Y-6669786D01*
X14689074Y-7330186D02*
X14638274Y-7279386D01*
X15740126Y-9440926D02*
X15740126Y-9390126D01*
X15740126Y-8678926D02*
X15740126Y-8729726D01*
X15740126Y-8729726D02*
X15638526Y-8729726D01*
X15638526Y-8729726D02*
X15638526Y-9390126D01*
X15638526Y-9390126D02*
X15841726Y-9390126D01*
X15841726Y-9390126D02*
X15841726Y-8729726D01*
X15841726Y-8729726D02*
X15740126Y-8729726D01*
X15689326Y-9390126D02*
X15638526Y-9339326D01*
X14000988Y-7800086D02*
X13950188Y-7800086D01*
X13238988Y-7800086D02*
X13289788Y-7800086D01*
X13289788Y-7800086D02*
X13289788Y-7901686D01*
X13289788Y-7901686D02*
X13950188Y-7901686D01*
X13950188Y-7901686D02*
X13950188Y-7698486D01*
X13950188Y-7698486D02*
X13289788Y-7698486D01*
X13289788Y-7698486D02*
X13289788Y-7800086D01*
X13950188Y-7850886D02*
X13899388Y-7901686D01*
X14000988Y-8299958D02*
X13950188Y-8299958D01*
X13238988Y-8299958D02*
X13289788Y-8299958D01*
X13289788Y-8299958D02*
X13289788Y-8401558D01*
X13289788Y-8401558D02*
X13950188Y-8401558D01*
X13950188Y-8401558D02*
X13950188Y-8198358D01*
X13950188Y-8198358D02*
X13289788Y-8198358D01*
X13289788Y-8198358D02*
X13289788Y-8299958D01*
X13950188Y-8350758D02*
X13899388Y-8401558D01*
D14*
X17175734Y-8261350D02*
X16464534Y-8261350D01*
X16464534Y-8261350D02*
X16464534Y-8058150D01*
X16464534Y-8058150D02*
X17175734Y-8058150D01*
X17175734Y-8058150D02*
X17175734Y-8261350D01*
X17175734Y-8210550D02*
X17124934Y-8261350D01*
X16355822Y-8261604D02*
X15644622Y-8261604D01*
X15644622Y-8261604D02*
X15644622Y-8058404D01*
X15644622Y-8058404D02*
X16355822Y-8058404D01*
X16355822Y-8058404D02*
X16355822Y-8261604D01*
X16355822Y-8210804D02*
X16305022Y-8261604D01*
X16975582Y-9541510D02*
X16264382Y-9541510D01*
X16264382Y-9541510D02*
X16264382Y-9338310D01*
X16264382Y-9338310D02*
X16975582Y-9338310D01*
X16975582Y-9338310D02*
X16975582Y-9541510D01*
X16975582Y-9490710D02*
X16924782Y-9541510D01*
X14501622Y-7704328D02*
X14501622Y-8415528D01*
X14501622Y-8415528D02*
X14298422Y-8415528D01*
X14298422Y-8415528D02*
X14298422Y-7704328D01*
X14298422Y-7704328D02*
X14501622Y-7704328D01*
X14450822Y-7704328D02*
X14501622Y-7755128D01*
D10*
X12573000Y-9099000D02*
X12573000Y-7067000D01*
X12573000Y-7067000D02*
X12827000Y-7067000D01*
X12827000Y-7067000D02*
X12827000Y-9099000D01*
X12573000Y-9353000D02*
X12573000Y-9099000D01*
X12573000Y-9099000D02*
X12827000Y-9099000D01*
X12573000Y-9353000D02*
X12827000Y-9353000D01*
X12827000Y-9353000D02*
X12827000Y-9099000D01*
X14524317Y-9200000D02*
G75*
G03X14524317Y-9200000I-254317J0D01*
G01*
X14164317Y-7190000D02*
G75*
G03X14164317Y-7190000I-254317J0D01*
G01*
X15187000Y-7756000D02*
X14806000Y-8137000D01*
X14806000Y-8137000D02*
X14806000Y-8264000D01*
X14806000Y-8264000D02*
X14933000Y-8391000D01*
X14933000Y-8391000D02*
X15187000Y-8391000D01*
X15187000Y-8391000D02*
X15441000Y-8137000D01*
X15441000Y-8137000D02*
X15441000Y-7883000D01*
X15441000Y-7883000D02*
X15314000Y-7756000D01*
X15314000Y-7756000D02*
X15187000Y-7756000D01*
D13*
X15816024Y-7407716D02*
X15816024Y-7480288D01*
X15816024Y-7444002D02*
X15676324Y-7444002D01*
X15696281Y-7456097D01*
X15709585Y-7468193D01*
X15716238Y-7480288D01*
X15676324Y-7329097D02*
X15676324Y-7317002D01*
X15682976Y-7304907D01*
X15689628Y-7298859D01*
X15702933Y-7292812D01*
X15729543Y-7286764D01*
X15762805Y-7286764D01*
X15789414Y-7292812D01*
X15802719Y-7298859D01*
X15809371Y-7304907D01*
X15816024Y-7317002D01*
X15816024Y-7329097D01*
X15809371Y-7341193D01*
X15802719Y-7347240D01*
X15789414Y-7353288D01*
X15762805Y-7359335D01*
X15729543Y-7359335D01*
X15702933Y-7353288D01*
X15689628Y-7347240D01*
X15682976Y-7341193D01*
X15676324Y-7329097D01*
X15816024Y-7232335D02*
X15676324Y-7232335D01*
X15816024Y-7159764D02*
X15736195Y-7214193D01*
X15676324Y-7159764D02*
X15756152Y-7232335D01*
X15255954Y-7024176D02*
X15255954Y-7096748D01*
X15255954Y-7060462D02*
X15116254Y-7060462D01*
X15136211Y-7072557D01*
X15149515Y-7084653D01*
X15156168Y-7096748D01*
X15116254Y-6945557D02*
X15116254Y-6933462D01*
X15122906Y-6921367D01*
X15129558Y-6915319D01*
X15142863Y-6909272D01*
X15169473Y-6903224D01*
X15202735Y-6903224D01*
X15229344Y-6909272D01*
X15242649Y-6915319D01*
X15249301Y-6921367D01*
X15255954Y-6933462D01*
X15255954Y-6945557D01*
X15249301Y-6957653D01*
X15242649Y-6963700D01*
X15229344Y-6969748D01*
X15202735Y-6975795D01*
X15169473Y-6975795D01*
X15142863Y-6969748D01*
X15129558Y-6963700D01*
X15122906Y-6957653D01*
X15116254Y-6945557D01*
X13710618Y-9084117D02*
X13710618Y-9156688D01*
X13710618Y-9120402D02*
X13570918Y-9120402D01*
X13590875Y-9132497D01*
X13604179Y-9144593D01*
X13610832Y-9156688D01*
X13570918Y-9005497D02*
X13570918Y-8993402D01*
X13577570Y-8981307D01*
X13584222Y-8975259D01*
X13597527Y-8969212D01*
X13624137Y-8963164D01*
X13657399Y-8963164D01*
X13684008Y-8969212D01*
X13697313Y-8975259D01*
X13703965Y-8981307D01*
X13710618Y-8993402D01*
X13710618Y-9005497D01*
X13703965Y-9017593D01*
X13697313Y-9023640D01*
X13684008Y-9029688D01*
X13657399Y-9035736D01*
X13624137Y-9035736D01*
X13597527Y-9029688D01*
X13584222Y-9023640D01*
X13577570Y-9017593D01*
X13570918Y-9005497D01*
X14902724Y-9189696D02*
X14995858Y-9189696D01*
X14849505Y-9219934D02*
X14949291Y-9250172D01*
X14949291Y-9171553D01*
X14989205Y-9117124D02*
X14995858Y-9117124D01*
X15009162Y-9123172D01*
X15015815Y-9129220D01*
X14856158Y-9074791D02*
X14856158Y-8990124D01*
X14995858Y-9044553D01*
X14995858Y-8941743D02*
X14856158Y-8941743D01*
X14995858Y-8869172D02*
X14916029Y-8923601D01*
X14856158Y-8869172D02*
X14935986Y-8941743D01*
X16876220Y-7450050D02*
X16876220Y-7474240D01*
X16882872Y-7486335D01*
X16889524Y-7492383D01*
X16909482Y-7504478D01*
X16936091Y-7510526D01*
X16989310Y-7510526D01*
X17002615Y-7504478D01*
X17009267Y-7498431D01*
X17015920Y-7486335D01*
X17015920Y-7462145D01*
X17009267Y-7450050D01*
X17002615Y-7444002D01*
X16989310Y-7437955D01*
X16956048Y-7437955D01*
X16942743Y-7444002D01*
X16936091Y-7450050D01*
X16929439Y-7462145D01*
X16929439Y-7486335D01*
X16936091Y-7498431D01*
X16942743Y-7504478D01*
X16956048Y-7510526D01*
X17009267Y-7377478D02*
X17015920Y-7377478D01*
X17029224Y-7383526D01*
X17035877Y-7389574D01*
X16936091Y-7304907D02*
X16929439Y-7317002D01*
X16922786Y-7323050D01*
X16909482Y-7329097D01*
X16902829Y-7329097D01*
X16889524Y-7323050D01*
X16882872Y-7317002D01*
X16876220Y-7304907D01*
X16876220Y-7280716D01*
X16882872Y-7268621D01*
X16889524Y-7262574D01*
X16902829Y-7256526D01*
X16909482Y-7256526D01*
X16922786Y-7262574D01*
X16929439Y-7268621D01*
X16936091Y-7280716D01*
X16936091Y-7304907D01*
X16942743Y-7317002D01*
X16949396Y-7323050D01*
X16962701Y-7329097D01*
X16989310Y-7329097D01*
X17002615Y-7323050D01*
X17009267Y-7317002D01*
X17015920Y-7304907D01*
X17015920Y-7280716D01*
X17009267Y-7268621D01*
X17002615Y-7262574D01*
X16989310Y-7256526D01*
X16962701Y-7256526D01*
X16949396Y-7262574D01*
X16942743Y-7268621D01*
X16936091Y-7280716D01*
X17015920Y-7202097D02*
X16876220Y-7202097D01*
X17015920Y-7129526D02*
X16936091Y-7183954D01*
X16876220Y-7129526D02*
X16956048Y-7202097D01*
X16316150Y-7450050D02*
X16316150Y-7474240D01*
X16322802Y-7486335D01*
X16329454Y-7492383D01*
X16349411Y-7504478D01*
X16376021Y-7510526D01*
X16429240Y-7510526D01*
X16442545Y-7504478D01*
X16449197Y-7498431D01*
X16455850Y-7486335D01*
X16455850Y-7462145D01*
X16449197Y-7450050D01*
X16442545Y-7444002D01*
X16429240Y-7437955D01*
X16395978Y-7437955D01*
X16382673Y-7444002D01*
X16376021Y-7450050D01*
X16369369Y-7462145D01*
X16369369Y-7486335D01*
X16376021Y-7498431D01*
X16382673Y-7504478D01*
X16395978Y-7510526D01*
X16449197Y-7377478D02*
X16455850Y-7377478D01*
X16469154Y-7383526D01*
X16475807Y-7389574D01*
X16376021Y-7304907D02*
X16369369Y-7317002D01*
X16362716Y-7323050D01*
X16349411Y-7329097D01*
X16342759Y-7329097D01*
X16329454Y-7323050D01*
X16322802Y-7317002D01*
X16316150Y-7304907D01*
X16316150Y-7280716D01*
X16322802Y-7268621D01*
X16329454Y-7262574D01*
X16342759Y-7256526D01*
X16349411Y-7256526D01*
X16362716Y-7262574D01*
X16369369Y-7268621D01*
X16376021Y-7280716D01*
X16376021Y-7304907D01*
X16382673Y-7317002D01*
X16389326Y-7323050D01*
X16402631Y-7329097D01*
X16429240Y-7329097D01*
X16442545Y-7323050D01*
X16449197Y-7317002D01*
X16455850Y-7304907D01*
X16455850Y-7280716D01*
X16449197Y-7268621D01*
X16442545Y-7262574D01*
X16429240Y-7256526D01*
X16402631Y-7256526D01*
X16389326Y-7262574D01*
X16382673Y-7268621D01*
X16376021Y-7280716D01*
X16455850Y-7202097D02*
X16316150Y-7202097D01*
X16455850Y-7129526D02*
X16376021Y-7183954D01*
X16316150Y-7129526D02*
X16395978Y-7202097D01*
X14689376Y-7157224D02*
X14682724Y-7151176D01*
X14676072Y-7139081D01*
X14676072Y-7108843D01*
X14682724Y-7096748D01*
X14689376Y-7090700D01*
X14702681Y-7084653D01*
X14715986Y-7084653D01*
X14735943Y-7090700D01*
X14815772Y-7163272D01*
X14815772Y-7084653D01*
X14689376Y-7036272D02*
X14682724Y-7030224D01*
X14676072Y-7018129D01*
X14676072Y-6987891D01*
X14682724Y-6975795D01*
X14689376Y-6969748D01*
X14702681Y-6963700D01*
X14715986Y-6963700D01*
X14735943Y-6969748D01*
X14815772Y-7042319D01*
X14815772Y-6963700D01*
X14676072Y-6885081D02*
X14676072Y-6872986D01*
X14682724Y-6860891D01*
X14689376Y-6854843D01*
X14702681Y-6848795D01*
X14729291Y-6842748D01*
X14762553Y-6842748D01*
X14789162Y-6848795D01*
X14802467Y-6854843D01*
X14809119Y-6860891D01*
X14815772Y-6872986D01*
X14815772Y-6885081D01*
X14809119Y-6897176D01*
X14802467Y-6903224D01*
X14789162Y-6909272D01*
X14762553Y-6915319D01*
X14729291Y-6915319D01*
X14702681Y-6909272D01*
X14689376Y-6903224D01*
X14682724Y-6897176D01*
X14676072Y-6885081D01*
X15722890Y-9189950D02*
X15816024Y-9189950D01*
X15669671Y-9220188D02*
X15769457Y-9250426D01*
X15769457Y-9171807D01*
X15809371Y-9117378D02*
X15816024Y-9117378D01*
X15829328Y-9123426D01*
X15835981Y-9129474D01*
X15676324Y-9075045D02*
X15676324Y-8990378D01*
X15816024Y-9044807D01*
X15816024Y-8941997D02*
X15676324Y-8941997D01*
X15816024Y-8869426D02*
X15736195Y-8923855D01*
X15676324Y-8869426D02*
X15756152Y-8941997D01*
X13592774Y-7850584D02*
X13520202Y-7850584D01*
X13556488Y-7850584D02*
X13556488Y-7710884D01*
X13544393Y-7730841D01*
X13532297Y-7744145D01*
X13520202Y-7750798D01*
X13647202Y-7850584D02*
X13647202Y-7710884D01*
X13719774Y-7850584D02*
X13665345Y-7770755D01*
X13719774Y-7710884D02*
X13647202Y-7790712D01*
X13592774Y-8350456D02*
X13520202Y-8350456D01*
X13556488Y-8350456D02*
X13556488Y-8210756D01*
X13544393Y-8230713D01*
X13532297Y-8244017D01*
X13520202Y-8250670D01*
X13647202Y-8350456D02*
X13647202Y-8210756D01*
X13719774Y-8350456D02*
X13665345Y-8270627D01*
X13719774Y-8210756D02*
X13647202Y-8290584D01*
X16803201Y-8196036D02*
X16798363Y-8200874D01*
X16783848Y-8205712D01*
X16774172Y-8205712D01*
X16759658Y-8200874D01*
X16749982Y-8191198D01*
X16745144Y-8181521D01*
X16740305Y-8162169D01*
X16740305Y-8147655D01*
X16745144Y-8128302D01*
X16749982Y-8118626D01*
X16759658Y-8108950D01*
X16774172Y-8104112D01*
X16783848Y-8104112D01*
X16798363Y-8108950D01*
X16803201Y-8113788D01*
X16841906Y-8113788D02*
X16846744Y-8108950D01*
X16856420Y-8104112D01*
X16880610Y-8104112D01*
X16890286Y-8108950D01*
X16895125Y-8113788D01*
X16899963Y-8123464D01*
X16899963Y-8133140D01*
X16895125Y-8147655D01*
X16837067Y-8205712D01*
X16899963Y-8205712D01*
X15983289Y-8196290D02*
X15978451Y-8201128D01*
X15963936Y-8205966D01*
X15954260Y-8205966D01*
X15939746Y-8201128D01*
X15930070Y-8191452D01*
X15925232Y-8181775D01*
X15920393Y-8162423D01*
X15920393Y-8147909D01*
X15925232Y-8128556D01*
X15930070Y-8118880D01*
X15939746Y-8109204D01*
X15954260Y-8104366D01*
X15963936Y-8104366D01*
X15978451Y-8109204D01*
X15983289Y-8114042D01*
X16017155Y-8104366D02*
X16080051Y-8104366D01*
X16046184Y-8143071D01*
X16060698Y-8143071D01*
X16070374Y-8147909D01*
X16075212Y-8152747D01*
X16080051Y-8162423D01*
X16080051Y-8186613D01*
X16075212Y-8196290D01*
X16070374Y-8201128D01*
X16060698Y-8205966D01*
X16031670Y-8205966D01*
X16021993Y-8201128D01*
X16017155Y-8196290D01*
X16603049Y-9476196D02*
X16598211Y-9481034D01*
X16583696Y-9485872D01*
X16574020Y-9485872D01*
X16559506Y-9481034D01*
X16549830Y-9471358D01*
X16544992Y-9461681D01*
X16540153Y-9442329D01*
X16540153Y-9427815D01*
X16544992Y-9408462D01*
X16549830Y-9398786D01*
X16559506Y-9389110D01*
X16574020Y-9384272D01*
X16583696Y-9384272D01*
X16598211Y-9389110D01*
X16603049Y-9393948D01*
X16699811Y-9485872D02*
X16641753Y-9485872D01*
X16670782Y-9485872D02*
X16670782Y-9384272D01*
X16661106Y-9398786D01*
X16651430Y-9408462D01*
X16641753Y-9413301D01*
X14436308Y-8076861D02*
X14441146Y-8081699D01*
X14445984Y-8096214D01*
X14445984Y-8105890D01*
X14441146Y-8120404D01*
X14431470Y-8130080D01*
X14421793Y-8134918D01*
X14402441Y-8139756D01*
X14387927Y-8139756D01*
X14368574Y-8134918D01*
X14358898Y-8130080D01*
X14349222Y-8120404D01*
X14344384Y-8105890D01*
X14344384Y-8096214D01*
X14349222Y-8081699D01*
X14354060Y-8076861D01*
X14344384Y-7989776D02*
X14344384Y-8009128D01*
X14349222Y-8018804D01*
X14354060Y-8023642D01*
X14368574Y-8033318D01*
X14387927Y-8038156D01*
X14426631Y-8038156D01*
X14436308Y-8033318D01*
X14441146Y-8028480D01*
X14445984Y-8018804D01*
X14445984Y-7999452D01*
X14441146Y-7989776D01*
X14436308Y-7984937D01*
X14426631Y-7980099D01*
X14402441Y-7980099D01*
X14392765Y-7984937D01*
X14387927Y-7989776D01*
X14383089Y-7999452D01*
X14383089Y-8018804D01*
X14387927Y-8028480D01*
X14392765Y-8033318D01*
X14402441Y-8038156D01*
D10*
X12725238Y-9733810D02*
X12625238Y-9733810D01*
X12625238Y-9695714D01*
X12630000Y-9686190D01*
X12634762Y-9681429D01*
X12644286Y-9676667D01*
X12658571Y-9676667D01*
X12668095Y-9681429D01*
X12672857Y-9686190D01*
X12677619Y-9695714D01*
X12677619Y-9733810D01*
X12725238Y-9581429D02*
X12725238Y-9638571D01*
X12725238Y-9610000D02*
X12625238Y-9610000D01*
X12639524Y-9619524D01*
X12649048Y-9629048D01*
X12653809Y-9638571D01*
X14432460Y-9216667D02*
X14437222Y-9221429D01*
X14441984Y-9235714D01*
X14441984Y-9245238D01*
X14437222Y-9259524D01*
X14427698Y-9269048D01*
X14418175Y-9273810D01*
X14399127Y-9278571D01*
X14384841Y-9278571D01*
X14365794Y-9273810D01*
X14356270Y-9269048D01*
X14346746Y-9259524D01*
X14341984Y-9245238D01*
X14341984Y-9235714D01*
X14346746Y-9221429D01*
X14351508Y-9216667D01*
X14375317Y-9130952D02*
X14441984Y-9130952D01*
X14337222Y-9154762D02*
X14408651Y-9178571D01*
X14408651Y-9116667D01*
X14121571Y-9323810D02*
X14188238Y-9323810D01*
X14083476Y-9347619D02*
X14154905Y-9371429D01*
X14154905Y-9309524D01*
X14088238Y-9280952D02*
X14088238Y-9214286D01*
X14188238Y-9257143D01*
X14088238Y-9176191D02*
X14169190Y-9176191D01*
X14178714Y-9171429D01*
X14183476Y-9166667D01*
X14188238Y-9157143D01*
X14188238Y-9138095D01*
X14183476Y-9128571D01*
X14178714Y-9123810D01*
X14169190Y-9119048D01*
X14088238Y-9119048D01*
X14135857Y-9038095D02*
X14135857Y-9071429D01*
X14188238Y-9071429D02*
X14088238Y-9071429D01*
X14088238Y-9023810D01*
X14277143Y-9009495D02*
X14277143Y-8933305D01*
X14315238Y-8971400D02*
X14239048Y-8971400D01*
X13893333Y-7352460D02*
X13888571Y-7357222D01*
X13874286Y-7361984D01*
X13864762Y-7361984D01*
X13850476Y-7357222D01*
X13840952Y-7347698D01*
X13836190Y-7338175D01*
X13831429Y-7319127D01*
X13831429Y-7304841D01*
X13836190Y-7285794D01*
X13840952Y-7276270D01*
X13850476Y-7266746D01*
X13864762Y-7261984D01*
X13874286Y-7261984D01*
X13888571Y-7266746D01*
X13893333Y-7271508D01*
X13983810Y-7261984D02*
X13936190Y-7261984D01*
X13931429Y-7309603D01*
X13936190Y-7304841D01*
X13945714Y-7300079D01*
X13969524Y-7300079D01*
X13979048Y-7304841D01*
X13983810Y-7309603D01*
X13988571Y-7319127D01*
X13988571Y-7342936D01*
X13983810Y-7352460D01*
X13979048Y-7357222D01*
X13969524Y-7361984D01*
X13945714Y-7361984D01*
X13936190Y-7357222D01*
X13931429Y-7352460D01*
X13786190Y-7041571D02*
X13786190Y-7108238D01*
X13762381Y-7003476D02*
X13738571Y-7074905D01*
X13800476Y-7074905D01*
X13829048Y-7008238D02*
X13895714Y-7008238D01*
X13852857Y-7108238D01*
X13933809Y-7008238D02*
X13933809Y-7089190D01*
X13938571Y-7098714D01*
X13943333Y-7103476D01*
X13952857Y-7108238D01*
X13971905Y-7108238D01*
X13981429Y-7103476D01*
X13986190Y-7098714D01*
X13990952Y-7089190D01*
X13990952Y-7008238D01*
X14071905Y-7055857D02*
X14038571Y-7055857D01*
X14038571Y-7108238D02*
X14038571Y-7008238D01*
X14086190Y-7008238D01*
X14100505Y-7197143D02*
X14176695Y-7197143D01*
X14138600Y-7235238D02*
X14138600Y-7159048D01*
X15177476Y-7683762D02*
X15167952Y-7679000D01*
X15158429Y-7669476D01*
X15144143Y-7655190D01*
X15134619Y-7650429D01*
X15125095Y-7650429D01*
X15129857Y-7674238D02*
X15120333Y-7669476D01*
X15110809Y-7659952D01*
X15106048Y-7640905D01*
X15106048Y-7607571D01*
X15110809Y-7588524D01*
X15120333Y-7579000D01*
X15129857Y-7574238D01*
X15148905Y-7574238D01*
X15158429Y-7579000D01*
X15167952Y-7588524D01*
X15172714Y-7607571D01*
X15172714Y-7640905D01*
X15167952Y-7659952D01*
X15158429Y-7669476D01*
X15148905Y-7674238D01*
X15129857Y-7674238D01*
X15267952Y-7674238D02*
X15210809Y-7674238D01*
X15239381Y-7674238D02*
X15239381Y-7574238D01*
X15229857Y-7588524D01*
X15220333Y-7598048D01*
X15210809Y-7602809D01*
X14915571Y-8472762D02*
X14920333Y-8468000D01*
X14929857Y-8463238D01*
X14953667Y-8463238D01*
X14963190Y-8468000D01*
X14967952Y-8472762D01*
X14972714Y-8482286D01*
X14972714Y-8491810D01*
X14967952Y-8506095D01*
X14910809Y-8563238D01*
X14972714Y-8563238D01*
X15015571Y-8563238D02*
X15015571Y-8463238D01*
X15072714Y-8563238D01*
X15072714Y-8463238D01*
X15110809Y-8463238D02*
X15172714Y-8463238D01*
X15139381Y-8501333D01*
X15153667Y-8501333D01*
X15163190Y-8506095D01*
X15167952Y-8510857D01*
X15172714Y-8520381D01*
X15172714Y-8544191D01*
X15167952Y-8553714D01*
X15163190Y-8558476D01*
X15153667Y-8563238D01*
X15125095Y-8563238D01*
X15115571Y-8558476D01*
X15110809Y-8553714D01*
X15220333Y-8563238D02*
X15239381Y-8563238D01*
X15248905Y-8558476D01*
X15253667Y-8553714D01*
X15263190Y-8539429D01*
X15267952Y-8520381D01*
X15267952Y-8482286D01*
X15263190Y-8472762D01*
X15258429Y-8468000D01*
X15248905Y-8463238D01*
X15229857Y-8463238D01*
X15220333Y-8468000D01*
X15215571Y-8472762D01*
X15210809Y-8482286D01*
X15210809Y-8506095D01*
X15215571Y-8515619D01*
X15220333Y-8520381D01*
X15229857Y-8525143D01*
X15248905Y-8525143D01*
X15258429Y-8520381D01*
X15263190Y-8515619D01*
X15267952Y-8506095D01*
X15329857Y-8463238D02*
X15339381Y-8463238D01*
X15348905Y-8468000D01*
X15353667Y-8472762D01*
X15358429Y-8482286D01*
X15363190Y-8501333D01*
X15363190Y-8525143D01*
X15358429Y-8544191D01*
X15353667Y-8553714D01*
X15348905Y-8558476D01*
X15339381Y-8563238D01*
X15329857Y-8563238D01*
X15320333Y-8558476D01*
X15315571Y-8553714D01*
X15310809Y-8544191D01*
X15306048Y-8525143D01*
X15306048Y-8501333D01*
X15310809Y-8482286D01*
X15315571Y-8472762D01*
X15320333Y-8468000D01*
X15329857Y-8463238D01*
X15448905Y-8496571D02*
X15448905Y-8563238D01*
X15425095Y-8458476D02*
X15401286Y-8529905D01*
X15463190Y-8529905D01*
M02*
