G04 #@! TF.FileFunction,Soldermask,Bot*
%FSLAX45Y45*%
G04 Gerber Fmt 4.5, Leading zero omitted, Abs format (unit mm)*
G04 Created by KiCad (PCBNEW (2015-01-25 BZR 5388)-product) date Mo 03 Aug 2015 14:21:19 CEST*
%MOMM*%
G01*
G04 APERTURE LIST*
%ADD10C,0.150000*%
%ADD11C,5.509260*%
%ADD12C,1.905000*%
%ADD13R,2.540000X2.235200*%
%ADD14O,2.540000X2.235200*%
%ADD15R,1.905000X1.905000*%
G04 APERTURE END LIST*
D10*
D11*
X17100042Y-9900158D03*
X12700000Y-6499860D03*
D12*
X15740126Y-7701026D03*
X15740126Y-6939026D03*
X15180056Y-7380986D03*
X15180056Y-6618986D03*
X13660120Y-8678926D03*
X13660120Y-9440926D03*
X14919960Y-9440672D03*
X14919960Y-8678672D03*
X16940022Y-7701026D03*
X16940022Y-6939026D03*
X16379952Y-7701026D03*
X16379952Y-6939026D03*
X14739874Y-7380986D03*
X14739874Y-6618986D03*
X15740126Y-9440926D03*
X15740126Y-8678926D03*
X14000988Y-7800086D03*
X13238988Y-7800086D03*
X14000988Y-8299958D03*
X13238988Y-8299958D03*
X17074134Y-8159750D03*
X16566134Y-8159750D03*
X16254222Y-8160004D03*
X15746222Y-8160004D03*
X16873982Y-9439910D03*
X16365982Y-9439910D03*
X14400022Y-7805928D03*
X14400022Y-8313928D03*
D13*
X12700000Y-9226000D03*
D14*
X12700000Y-8972000D03*
X12700000Y-8718000D03*
X12700000Y-8464000D03*
X12700000Y-8210000D03*
X12700000Y-7956000D03*
X12700000Y-7702000D03*
X12700000Y-7448000D03*
X12700000Y-7194000D03*
D15*
X14270000Y-9073000D03*
D12*
X14270000Y-9327000D03*
D15*
X14037000Y-7190000D03*
D12*
X13783000Y-7190000D03*
D15*
X15187000Y-7883000D03*
D12*
X15187000Y-8137000D03*
X14933000Y-8137000D03*
M02*
