M48
METRIC,TZ
T1C0.813
T2C1.016
T3C3.200
%
G90
G05
T1
X132390Y-78001
X132390Y-83000
X136601Y-86789
X136601Y-94409
X137830Y-71900
X140010Y-78001
X140010Y-83000
X140370Y-71900
X142700Y-90730
X142700Y-93270
X144000Y-78059
X144000Y-83139
X147399Y-66190
X147399Y-73810
X149200Y-86787
X149200Y-94407
X149330Y-81370
X151801Y-66190
X151801Y-73810
X151870Y-78830
X151870Y-81370
X157401Y-69390
X157401Y-77010
X157401Y-86789
X157401Y-94409
X157462Y-81600
X162542Y-81600
X163660Y-94399
X163800Y-69390
X163800Y-77010
X165661Y-81597
X168740Y-94399
X169400Y-69390
X169400Y-77010
X170741Y-81597
T2
X127000Y-71940
X127000Y-74480
X127000Y-77020
X127000Y-79560
X127000Y-82100
X127000Y-84640
X127000Y-87180
X127000Y-89720
X127000Y-92260
T3
X127000Y-64999
X171000Y-99002
T0
M30
