G04 #@! TF.FileFunction,Copper,L1,Top,Signal*
%FSLAX45Y45*%
G04 Gerber Fmt 4.5, Leading zero omitted, Abs format (unit mm)*
G04 Created by KiCad (PCBNEW (2015-01-25 BZR 5388)-product) date Mo 03 Aug 2015 14:17:27 CEST*
%MOMM*%
G01*
G04 APERTURE LIST*
%ADD10C,0.150000*%
%ADD11C,5.001260*%
%ADD12C,1.397000*%
%ADD13R,2.032000X1.727200*%
%ADD14O,2.032000X1.727200*%
%ADD15R,1.397000X1.397000*%
%ADD16C,0.254000*%
G04 APERTURE END LIST*
D10*
D11*
X17100042Y-9900158D03*
X12700000Y-6499860D03*
D12*
X14599920Y-8419084D03*
X14599920Y-9181084D03*
X16899890Y-8419084D03*
X16899890Y-9181084D03*
X16168878Y-6750050D03*
X16930878Y-6750050D03*
X15749778Y-6769100D03*
X15749778Y-7531100D03*
X14599920Y-6968998D03*
X14599920Y-7730998D03*
X13599922Y-6968998D03*
X13599922Y-7730998D03*
X15699994Y-8419084D03*
X15699994Y-9181084D03*
X16195802Y-7750048D03*
X16703802Y-7750048D03*
X13846048Y-8100060D03*
X14354048Y-8100060D03*
X13519912Y-8466074D03*
X13519912Y-8974074D03*
D13*
X12710000Y-9216000D03*
D14*
X12710000Y-8962000D03*
X12710000Y-8708000D03*
X12710000Y-8454000D03*
X12710000Y-8200000D03*
X12710000Y-7946000D03*
X12710000Y-7692000D03*
X12710000Y-7438000D03*
X12710000Y-7184000D03*
D15*
X14110000Y-6967000D03*
D12*
X14110000Y-6713000D03*
D15*
X16183000Y-8420000D03*
D12*
X16437000Y-8420000D03*
D15*
X15123000Y-8227000D03*
D12*
X15123000Y-7973000D03*
X15377000Y-7973000D03*
D16*
G36*
X17317466Y-9674129D02*
X17277893Y-9634487D01*
X17162687Y-9586650D01*
X17064251Y-9586564D01*
X17064251Y-6723641D01*
X17043993Y-6674612D01*
X17006513Y-6637067D01*
X16957519Y-6616723D01*
X16904469Y-6616677D01*
X16855440Y-6636935D01*
X16817895Y-6674415D01*
X16797551Y-6723409D01*
X16797505Y-6776459D01*
X16817763Y-6825488D01*
X16855243Y-6863033D01*
X16904237Y-6883377D01*
X16957287Y-6883423D01*
X17006316Y-6863165D01*
X17043861Y-6825685D01*
X17064205Y-6776691D01*
X17064251Y-6723641D01*
X17064251Y-9586564D01*
X17037944Y-9586541D01*
X17034483Y-9587971D01*
X17034483Y-9200336D01*
X17033263Y-9177888D01*
X17033263Y-8392675D01*
X17013005Y-8343646D01*
X16975525Y-8306101D01*
X16926531Y-8285757D01*
X16873481Y-8285711D01*
X16837175Y-8300712D01*
X16837175Y-7723639D01*
X16816917Y-7674610D01*
X16779437Y-7637065D01*
X16730443Y-7616721D01*
X16677393Y-7616675D01*
X16628364Y-7636933D01*
X16590819Y-7674413D01*
X16570475Y-7723407D01*
X16570429Y-7776457D01*
X16590687Y-7825486D01*
X16628167Y-7863031D01*
X16677161Y-7883375D01*
X16730211Y-7883421D01*
X16779240Y-7863163D01*
X16816785Y-7825683D01*
X16837129Y-7776689D01*
X16837175Y-7723639D01*
X16837175Y-8300712D01*
X16824452Y-8305969D01*
X16786907Y-8343449D01*
X16766563Y-8392443D01*
X16766517Y-8445493D01*
X16786775Y-8494522D01*
X16824255Y-8532067D01*
X16873249Y-8552411D01*
X16926299Y-8552457D01*
X16975328Y-8532199D01*
X17012873Y-8494719D01*
X17033217Y-8445725D01*
X17033263Y-8392675D01*
X17033263Y-9177888D01*
X17031605Y-9147364D01*
X17016870Y-9111791D01*
X16993309Y-9105626D01*
X16975348Y-9123586D01*
X16975348Y-9087665D01*
X16969183Y-9064104D01*
X16919142Y-9046491D01*
X16866170Y-9049369D01*
X16830597Y-9064104D01*
X16824432Y-9087665D01*
X16899890Y-9163124D01*
X16975348Y-9087665D01*
X16975348Y-9123586D01*
X16917851Y-9181084D01*
X16993309Y-9256542D01*
X17016870Y-9250377D01*
X17034483Y-9200336D01*
X17034483Y-9587971D01*
X16975348Y-9612405D01*
X16975348Y-9274503D01*
X16899890Y-9199045D01*
X16881930Y-9217005D01*
X16881930Y-9181084D01*
X16806471Y-9105626D01*
X16782910Y-9111791D01*
X16765297Y-9161832D01*
X16768175Y-9214804D01*
X16782910Y-9250377D01*
X16806471Y-9256542D01*
X16881930Y-9181084D01*
X16881930Y-9217005D01*
X16824432Y-9274503D01*
X16830597Y-9298064D01*
X16880638Y-9315677D01*
X16933610Y-9312799D01*
X16969183Y-9298064D01*
X16975348Y-9274503D01*
X16975348Y-9612405D01*
X16922655Y-9634177D01*
X16834371Y-9722307D01*
X16786534Y-9837513D01*
X16786425Y-9962256D01*
X16834061Y-10077545D01*
X16873775Y-10117328D01*
X16570373Y-10117328D01*
X16570373Y-8393591D01*
X16550115Y-8344562D01*
X16512635Y-8307017D01*
X16463641Y-8286673D01*
X16410591Y-8286627D01*
X16361562Y-8306885D01*
X16329175Y-8339216D01*
X16329175Y-7723639D01*
X16308917Y-7674610D01*
X16302251Y-7667933D01*
X16302251Y-6723641D01*
X16281993Y-6674612D01*
X16244513Y-6637067D01*
X16195519Y-6616723D01*
X16142469Y-6616677D01*
X16093440Y-6636935D01*
X16055895Y-6674415D01*
X16035551Y-6723409D01*
X16035505Y-6776459D01*
X16055763Y-6825488D01*
X16093243Y-6863033D01*
X16142237Y-6883377D01*
X16195287Y-6883423D01*
X16244316Y-6863165D01*
X16281861Y-6825685D01*
X16302205Y-6776691D01*
X16302251Y-6723641D01*
X16302251Y-7667933D01*
X16271437Y-7637065D01*
X16222443Y-7616721D01*
X16169393Y-7616675D01*
X16120364Y-7636933D01*
X16082819Y-7674413D01*
X16062475Y-7723407D01*
X16062429Y-7776457D01*
X16082687Y-7825486D01*
X16120167Y-7863031D01*
X16169161Y-7883375D01*
X16222211Y-7883421D01*
X16271240Y-7863163D01*
X16308785Y-7825683D01*
X16329129Y-7776689D01*
X16329175Y-7723639D01*
X16329175Y-8339216D01*
X16324017Y-8344365D01*
X16317594Y-8359834D01*
X16317594Y-8350150D01*
X16312896Y-8325938D01*
X16298917Y-8304657D01*
X16277814Y-8290412D01*
X16252850Y-8285406D01*
X16113150Y-8285406D01*
X16088938Y-8290104D01*
X16067657Y-8304083D01*
X16053412Y-8325186D01*
X16048406Y-8350150D01*
X16048406Y-8489850D01*
X16053104Y-8514062D01*
X16067083Y-8535343D01*
X16088186Y-8549588D01*
X16113150Y-8554594D01*
X16252850Y-8554594D01*
X16277062Y-8549896D01*
X16298343Y-8535917D01*
X16312588Y-8514814D01*
X16317594Y-8489850D01*
X16317594Y-8480212D01*
X16323885Y-8495438D01*
X16361365Y-8532983D01*
X16410359Y-8553327D01*
X16463409Y-8553373D01*
X16512438Y-8533115D01*
X16549983Y-8495635D01*
X16570327Y-8446641D01*
X16570373Y-8393591D01*
X16570373Y-10117328D01*
X15883151Y-10117328D01*
X15883151Y-7504691D01*
X15883151Y-6742691D01*
X15862893Y-6693662D01*
X15825413Y-6656117D01*
X15776419Y-6635773D01*
X15723369Y-6635727D01*
X15674340Y-6655985D01*
X15636795Y-6693465D01*
X15616451Y-6742459D01*
X15616405Y-6795509D01*
X15636663Y-6844538D01*
X15674143Y-6882083D01*
X15723137Y-6902427D01*
X15776187Y-6902473D01*
X15825216Y-6882215D01*
X15862761Y-6844735D01*
X15883105Y-6795741D01*
X15883151Y-6742691D01*
X15883151Y-7504691D01*
X15862893Y-7455662D01*
X15825413Y-7418117D01*
X15776419Y-7397773D01*
X15723369Y-7397727D01*
X15674340Y-7417985D01*
X15636795Y-7455465D01*
X15616451Y-7504459D01*
X15616405Y-7557509D01*
X15636663Y-7606538D01*
X15674143Y-7644083D01*
X15723137Y-7664427D01*
X15776187Y-7664473D01*
X15825216Y-7644215D01*
X15862761Y-7606735D01*
X15883105Y-7557741D01*
X15883151Y-7504691D01*
X15883151Y-10117328D01*
X15834587Y-10117328D01*
X15834587Y-9200336D01*
X15833367Y-9177888D01*
X15833367Y-8392675D01*
X15813109Y-8343646D01*
X15775629Y-8306101D01*
X15726635Y-8285757D01*
X15673585Y-8285711D01*
X15624556Y-8305969D01*
X15587011Y-8343449D01*
X15566667Y-8392443D01*
X15566621Y-8445493D01*
X15586879Y-8494522D01*
X15624359Y-8532067D01*
X15673353Y-8552411D01*
X15726403Y-8552457D01*
X15775432Y-8532199D01*
X15812977Y-8494719D01*
X15833321Y-8445725D01*
X15833367Y-8392675D01*
X15833367Y-9177888D01*
X15831709Y-9147364D01*
X15816974Y-9111791D01*
X15793413Y-9105626D01*
X15775452Y-9123586D01*
X15775452Y-9087665D01*
X15769287Y-9064104D01*
X15719246Y-9046491D01*
X15666274Y-9049369D01*
X15630701Y-9064104D01*
X15624536Y-9087665D01*
X15699994Y-9163124D01*
X15775452Y-9087665D01*
X15775452Y-9123586D01*
X15717954Y-9181084D01*
X15793413Y-9256542D01*
X15816974Y-9250377D01*
X15834587Y-9200336D01*
X15834587Y-10117328D01*
X15775452Y-10117328D01*
X15775452Y-9274503D01*
X15699994Y-9199045D01*
X15682033Y-9217005D01*
X15682033Y-9181084D01*
X15606575Y-9105626D01*
X15583014Y-9111791D01*
X15565401Y-9161832D01*
X15568279Y-9214804D01*
X15583014Y-9250377D01*
X15606575Y-9256542D01*
X15682033Y-9181084D01*
X15682033Y-9217005D01*
X15624536Y-9274503D01*
X15630701Y-9298064D01*
X15680742Y-9315677D01*
X15733714Y-9312799D01*
X15769287Y-9298064D01*
X15775452Y-9274503D01*
X15775452Y-10117328D01*
X15510373Y-10117328D01*
X15510373Y-7946591D01*
X15490115Y-7897562D01*
X15452635Y-7860017D01*
X15403641Y-7839673D01*
X15350591Y-7839627D01*
X15301562Y-7859885D01*
X15264017Y-7897365D01*
X15249991Y-7931145D01*
X15236115Y-7897562D01*
X15198635Y-7860017D01*
X15149641Y-7839673D01*
X15096591Y-7839627D01*
X15047562Y-7859885D01*
X15010017Y-7897365D01*
X14989673Y-7946359D01*
X14989627Y-7999409D01*
X15009885Y-8048438D01*
X15047365Y-8085983D01*
X15062834Y-8092406D01*
X15053150Y-8092406D01*
X15028938Y-8097104D01*
X15007657Y-8111083D01*
X14993412Y-8132186D01*
X14988406Y-8157150D01*
X14988406Y-8296850D01*
X14993104Y-8321062D01*
X15007083Y-8342343D01*
X15028186Y-8356588D01*
X15053150Y-8361594D01*
X15192850Y-8361594D01*
X15217062Y-8356896D01*
X15238343Y-8342917D01*
X15252588Y-8321814D01*
X15257594Y-8296850D01*
X15257594Y-8157150D01*
X15252896Y-8132938D01*
X15238917Y-8111657D01*
X15217814Y-8097412D01*
X15192850Y-8092406D01*
X15183212Y-8092406D01*
X15198438Y-8086115D01*
X15235983Y-8048635D01*
X15250009Y-8014855D01*
X15263885Y-8048438D01*
X15301365Y-8085983D01*
X15350359Y-8106327D01*
X15403409Y-8106373D01*
X15452438Y-8086115D01*
X15489983Y-8048635D01*
X15510327Y-7999641D01*
X15510373Y-7946591D01*
X15510373Y-10117328D01*
X14734513Y-10117328D01*
X14734513Y-9200336D01*
X14733293Y-9177888D01*
X14733293Y-8392675D01*
X14733293Y-7704589D01*
X14733293Y-6942589D01*
X14713035Y-6893560D01*
X14675555Y-6856015D01*
X14626561Y-6835671D01*
X14573511Y-6835625D01*
X14524482Y-6855883D01*
X14486937Y-6893363D01*
X14466593Y-6942357D01*
X14466547Y-6995407D01*
X14486805Y-7044436D01*
X14524285Y-7081981D01*
X14573279Y-7102325D01*
X14626329Y-7102371D01*
X14675358Y-7082113D01*
X14712903Y-7044633D01*
X14733247Y-6995639D01*
X14733293Y-6942589D01*
X14733293Y-7704589D01*
X14713035Y-7655560D01*
X14675555Y-7618015D01*
X14626561Y-7597671D01*
X14573511Y-7597625D01*
X14524482Y-7617883D01*
X14486937Y-7655363D01*
X14466593Y-7704357D01*
X14466547Y-7757407D01*
X14486805Y-7806436D01*
X14524285Y-7843981D01*
X14573279Y-7864325D01*
X14626329Y-7864371D01*
X14675358Y-7844113D01*
X14712903Y-7806633D01*
X14733247Y-7757639D01*
X14733293Y-7704589D01*
X14733293Y-8392675D01*
X14713035Y-8343646D01*
X14675555Y-8306101D01*
X14626561Y-8285757D01*
X14573511Y-8285711D01*
X14524482Y-8305969D01*
X14487421Y-8342966D01*
X14487421Y-8073651D01*
X14467163Y-8024622D01*
X14429683Y-7987077D01*
X14380689Y-7966733D01*
X14327639Y-7966687D01*
X14278610Y-7986945D01*
X14244594Y-8020902D01*
X14244594Y-7036850D01*
X14244594Y-6897150D01*
X14244593Y-6897143D01*
X14244593Y-6732252D01*
X14241715Y-6679280D01*
X14226980Y-6643707D01*
X14203419Y-6637542D01*
X14185458Y-6655502D01*
X14185458Y-6619581D01*
X14179293Y-6596020D01*
X14129252Y-6578407D01*
X14076280Y-6581285D01*
X14040707Y-6596020D01*
X14034542Y-6619581D01*
X14110000Y-6695039D01*
X14185458Y-6619581D01*
X14185458Y-6655502D01*
X14127960Y-6713000D01*
X14203419Y-6788458D01*
X14226980Y-6782293D01*
X14244593Y-6732252D01*
X14244593Y-6897143D01*
X14239896Y-6872938D01*
X14225917Y-6851657D01*
X14204814Y-6837412D01*
X14179850Y-6832406D01*
X14173436Y-6832406D01*
X14179293Y-6829980D01*
X14185458Y-6806419D01*
X14110000Y-6730960D01*
X14092039Y-6748921D01*
X14092039Y-6713000D01*
X14016581Y-6637542D01*
X13993020Y-6643707D01*
X13975407Y-6693748D01*
X13978285Y-6746720D01*
X13993020Y-6782293D01*
X14016581Y-6788458D01*
X14092039Y-6713000D01*
X14092039Y-6748921D01*
X14034542Y-6806419D01*
X14040707Y-6829980D01*
X14047600Y-6832406D01*
X14040150Y-6832406D01*
X14015938Y-6837104D01*
X13994657Y-6851083D01*
X13980412Y-6872186D01*
X13975406Y-6897150D01*
X13975406Y-7036850D01*
X13980104Y-7061062D01*
X13994083Y-7082343D01*
X14015186Y-7096588D01*
X14040150Y-7101594D01*
X14179850Y-7101594D01*
X14204062Y-7096896D01*
X14225343Y-7082917D01*
X14239588Y-7061814D01*
X14244594Y-7036850D01*
X14244594Y-8020902D01*
X14241065Y-8024425D01*
X14220721Y-8073419D01*
X14220675Y-8126469D01*
X14240933Y-8175498D01*
X14278413Y-8213043D01*
X14327407Y-8233387D01*
X14380457Y-8233433D01*
X14429486Y-8213175D01*
X14467031Y-8175695D01*
X14487375Y-8126701D01*
X14487421Y-8073651D01*
X14487421Y-8342966D01*
X14486937Y-8343449D01*
X14466593Y-8392443D01*
X14466547Y-8445493D01*
X14486805Y-8494522D01*
X14524285Y-8532067D01*
X14573279Y-8552411D01*
X14626329Y-8552457D01*
X14675358Y-8532199D01*
X14712903Y-8494719D01*
X14733247Y-8445725D01*
X14733293Y-8392675D01*
X14733293Y-9177888D01*
X14731635Y-9147364D01*
X14716900Y-9111791D01*
X14693339Y-9105626D01*
X14675378Y-9123586D01*
X14675378Y-9087665D01*
X14669213Y-9064104D01*
X14619172Y-9046491D01*
X14566200Y-9049369D01*
X14530627Y-9064104D01*
X14524462Y-9087665D01*
X14599920Y-9163124D01*
X14675378Y-9087665D01*
X14675378Y-9123586D01*
X14617880Y-9181084D01*
X14693339Y-9256542D01*
X14716900Y-9250377D01*
X14734513Y-9200336D01*
X14734513Y-10117328D01*
X14675378Y-10117328D01*
X14675378Y-9274503D01*
X14599920Y-9199045D01*
X14581959Y-9217005D01*
X14581959Y-9181084D01*
X14506501Y-9105626D01*
X14482940Y-9111791D01*
X14465327Y-9161832D01*
X14468205Y-9214804D01*
X14482940Y-9250377D01*
X14506501Y-9256542D01*
X14581959Y-9181084D01*
X14581959Y-9217005D01*
X14524462Y-9274503D01*
X14530627Y-9298064D01*
X14580668Y-9315677D01*
X14633640Y-9312799D01*
X14669213Y-9298064D01*
X14675378Y-9274503D01*
X14675378Y-10117328D01*
X13979421Y-10117328D01*
X13979421Y-8073651D01*
X13959163Y-8024622D01*
X13921683Y-7987077D01*
X13872689Y-7966733D01*
X13819639Y-7966687D01*
X13770610Y-7986945D01*
X13733295Y-8024195D01*
X13733295Y-7704589D01*
X13733295Y-6942589D01*
X13713037Y-6893560D01*
X13675557Y-6856015D01*
X13626563Y-6835671D01*
X13573513Y-6835625D01*
X13524484Y-6855883D01*
X13486939Y-6893363D01*
X13466595Y-6942357D01*
X13466549Y-6995407D01*
X13486807Y-7044436D01*
X13524287Y-7081981D01*
X13573281Y-7102325D01*
X13626331Y-7102371D01*
X13675360Y-7082113D01*
X13712905Y-7044633D01*
X13733249Y-6995639D01*
X13733295Y-6942589D01*
X13733295Y-7704589D01*
X13713037Y-7655560D01*
X13675557Y-7618015D01*
X13626563Y-7597671D01*
X13573513Y-7597625D01*
X13524484Y-7617883D01*
X13486939Y-7655363D01*
X13466595Y-7704357D01*
X13466549Y-7757407D01*
X13486807Y-7806436D01*
X13524287Y-7843981D01*
X13573281Y-7864325D01*
X13626331Y-7864371D01*
X13675360Y-7844113D01*
X13712905Y-7806633D01*
X13733249Y-7757639D01*
X13733295Y-7704589D01*
X13733295Y-8024195D01*
X13733065Y-8024425D01*
X13712721Y-8073419D01*
X13712675Y-8126469D01*
X13732933Y-8175498D01*
X13770413Y-8213043D01*
X13819407Y-8233387D01*
X13872457Y-8233433D01*
X13921486Y-8213175D01*
X13959031Y-8175695D01*
X13979375Y-8126701D01*
X13979421Y-8073651D01*
X13979421Y-10117328D01*
X13654505Y-10117328D01*
X13654505Y-8993326D01*
X13653285Y-8970878D01*
X13653285Y-8439665D01*
X13633027Y-8390636D01*
X13595547Y-8353091D01*
X13546553Y-8332747D01*
X13493503Y-8332701D01*
X13444474Y-8352959D01*
X13406929Y-8390439D01*
X13386585Y-8439433D01*
X13386539Y-8492483D01*
X13406797Y-8541512D01*
X13444277Y-8579057D01*
X13493271Y-8599401D01*
X13546321Y-8599447D01*
X13595350Y-8579189D01*
X13632895Y-8541709D01*
X13653239Y-8492715D01*
X13653285Y-8439665D01*
X13653285Y-8970878D01*
X13651627Y-8940354D01*
X13636892Y-8904781D01*
X13613331Y-8898616D01*
X13595370Y-8916576D01*
X13595370Y-8880655D01*
X13589205Y-8857094D01*
X13539164Y-8839481D01*
X13486192Y-8842359D01*
X13450619Y-8857094D01*
X13444454Y-8880655D01*
X13519912Y-8956114D01*
X13595370Y-8880655D01*
X13595370Y-8916576D01*
X13537872Y-8974074D01*
X13613331Y-9049532D01*
X13636892Y-9043367D01*
X13654505Y-8993326D01*
X13654505Y-10117328D01*
X13595370Y-10117328D01*
X13595370Y-9067493D01*
X13519912Y-8992035D01*
X13501951Y-9009995D01*
X13501951Y-8974074D01*
X13426493Y-8898616D01*
X13402932Y-8904781D01*
X13385319Y-8954822D01*
X13388197Y-9007794D01*
X13402932Y-9043367D01*
X13426493Y-9049532D01*
X13501951Y-8974074D01*
X13501951Y-9009995D01*
X13444454Y-9067493D01*
X13450619Y-9091054D01*
X13500660Y-9108667D01*
X13553632Y-9105789D01*
X13589205Y-9091054D01*
X13595370Y-9067493D01*
X13595370Y-10117328D01*
X12878334Y-10117328D01*
X12878334Y-8708000D01*
X12878334Y-8200000D01*
X12878334Y-7692000D01*
X12866927Y-7634651D01*
X12834441Y-7586033D01*
X12802963Y-7565000D01*
X12834441Y-7543967D01*
X12866927Y-7495349D01*
X12878334Y-7438000D01*
X12866927Y-7380651D01*
X12834441Y-7332033D01*
X12802963Y-7311000D01*
X12834441Y-7289967D01*
X12866927Y-7241349D01*
X12878334Y-7184000D01*
X12866927Y-7126651D01*
X12834441Y-7078033D01*
X12785823Y-7045547D01*
X12728474Y-7034140D01*
X12691525Y-7034140D01*
X12634177Y-7045547D01*
X12585558Y-7078033D01*
X12553073Y-7126651D01*
X12541665Y-7184000D01*
X12553073Y-7241349D01*
X12585558Y-7289967D01*
X12617036Y-7311000D01*
X12585558Y-7332033D01*
X12553073Y-7380651D01*
X12541665Y-7438000D01*
X12553073Y-7495349D01*
X12585558Y-7543967D01*
X12617036Y-7565000D01*
X12585558Y-7586033D01*
X12553073Y-7634651D01*
X12541665Y-7692000D01*
X12553073Y-7749349D01*
X12585558Y-7797967D01*
X12616507Y-7818646D01*
X12574927Y-7855796D01*
X12549529Y-7908521D01*
X12549264Y-7910097D01*
X12561378Y-7933300D01*
X12697300Y-7933300D01*
X12697300Y-7931300D01*
X12722700Y-7931300D01*
X12722700Y-7933300D01*
X12858622Y-7933300D01*
X12870736Y-7910097D01*
X12870471Y-7908521D01*
X12845073Y-7855796D01*
X12803493Y-7818646D01*
X12834441Y-7797967D01*
X12866927Y-7749349D01*
X12878334Y-7692000D01*
X12878334Y-8200000D01*
X12866927Y-8142651D01*
X12834441Y-8094033D01*
X12803493Y-8073354D01*
X12845073Y-8036204D01*
X12870471Y-7983479D01*
X12870736Y-7981903D01*
X12858622Y-7958700D01*
X12722700Y-7958700D01*
X12722700Y-7960700D01*
X12697300Y-7960700D01*
X12697300Y-7958700D01*
X12561378Y-7958700D01*
X12549264Y-7981903D01*
X12549529Y-7983479D01*
X12574927Y-8036204D01*
X12616507Y-8073354D01*
X12585558Y-8094033D01*
X12553073Y-8142651D01*
X12541665Y-8200000D01*
X12553073Y-8257349D01*
X12585558Y-8305967D01*
X12616507Y-8326646D01*
X12574927Y-8363796D01*
X12549529Y-8416521D01*
X12549264Y-8418097D01*
X12561378Y-8441300D01*
X12697300Y-8441300D01*
X12697300Y-8439300D01*
X12722700Y-8439300D01*
X12722700Y-8441300D01*
X12858622Y-8441300D01*
X12870736Y-8418097D01*
X12870471Y-8416521D01*
X12845073Y-8363796D01*
X12803493Y-8326646D01*
X12834441Y-8305967D01*
X12866927Y-8257349D01*
X12878334Y-8200000D01*
X12878334Y-8708000D01*
X12866927Y-8650651D01*
X12834441Y-8602033D01*
X12803493Y-8581354D01*
X12845073Y-8544204D01*
X12870471Y-8491479D01*
X12870736Y-8489903D01*
X12858622Y-8466700D01*
X12722700Y-8466700D01*
X12722700Y-8468700D01*
X12697300Y-8468700D01*
X12697300Y-8466700D01*
X12561378Y-8466700D01*
X12549264Y-8489903D01*
X12549529Y-8491479D01*
X12574927Y-8544204D01*
X12616507Y-8581354D01*
X12585558Y-8602033D01*
X12553073Y-8650651D01*
X12541665Y-8708000D01*
X12553073Y-8765349D01*
X12585558Y-8813967D01*
X12616507Y-8834646D01*
X12574927Y-8871796D01*
X12549529Y-8924521D01*
X12549264Y-8926097D01*
X12561378Y-8949300D01*
X12697300Y-8949300D01*
X12697300Y-8947300D01*
X12722700Y-8947300D01*
X12722700Y-8949300D01*
X12858622Y-8949300D01*
X12870736Y-8926097D01*
X12870471Y-8924521D01*
X12845073Y-8871796D01*
X12803493Y-8834646D01*
X12834441Y-8813967D01*
X12866927Y-8765349D01*
X12878334Y-8708000D01*
X12878334Y-10117328D01*
X12876344Y-10117328D01*
X12876344Y-9302360D01*
X12876344Y-9129640D01*
X12871646Y-9105428D01*
X12857667Y-9084147D01*
X12836564Y-9069902D01*
X12827335Y-9068052D01*
X12845073Y-9052204D01*
X12870471Y-8999479D01*
X12870736Y-8997903D01*
X12858622Y-8974700D01*
X12722700Y-8974700D01*
X12722700Y-8976700D01*
X12697300Y-8976700D01*
X12697300Y-8974700D01*
X12561378Y-8974700D01*
X12549264Y-8997903D01*
X12549529Y-8999479D01*
X12574927Y-9052204D01*
X12592570Y-9067967D01*
X12584188Y-9069594D01*
X12562907Y-9083573D01*
X12548662Y-9104676D01*
X12543656Y-9129640D01*
X12543656Y-9302360D01*
X12548354Y-9326572D01*
X12562333Y-9347853D01*
X12583436Y-9362098D01*
X12608400Y-9367104D01*
X12811600Y-9367104D01*
X12835812Y-9362406D01*
X12857093Y-9348427D01*
X12871338Y-9327324D01*
X12876344Y-9302360D01*
X12876344Y-10117328D01*
X12482576Y-10117328D01*
X12482576Y-6725889D01*
X12522149Y-6765531D01*
X12637355Y-6813368D01*
X12762098Y-6813477D01*
X12877387Y-6765841D01*
X12965671Y-6677711D01*
X13013508Y-6562505D01*
X13013617Y-6437762D01*
X12965981Y-6322473D01*
X12926014Y-6282436D01*
X17317466Y-6282436D01*
X17317466Y-9674129D01*
X17317466Y-9674129D01*
G37*
X17317466Y-9674129D02*
X17277893Y-9634487D01*
X17162687Y-9586650D01*
X17064251Y-9586564D01*
X17064251Y-6723641D01*
X17043993Y-6674612D01*
X17006513Y-6637067D01*
X16957519Y-6616723D01*
X16904469Y-6616677D01*
X16855440Y-6636935D01*
X16817895Y-6674415D01*
X16797551Y-6723409D01*
X16797505Y-6776459D01*
X16817763Y-6825488D01*
X16855243Y-6863033D01*
X16904237Y-6883377D01*
X16957287Y-6883423D01*
X17006316Y-6863165D01*
X17043861Y-6825685D01*
X17064205Y-6776691D01*
X17064251Y-6723641D01*
X17064251Y-9586564D01*
X17037944Y-9586541D01*
X17034483Y-9587971D01*
X17034483Y-9200336D01*
X17033263Y-9177888D01*
X17033263Y-8392675D01*
X17013005Y-8343646D01*
X16975525Y-8306101D01*
X16926531Y-8285757D01*
X16873481Y-8285711D01*
X16837175Y-8300712D01*
X16837175Y-7723639D01*
X16816917Y-7674610D01*
X16779437Y-7637065D01*
X16730443Y-7616721D01*
X16677393Y-7616675D01*
X16628364Y-7636933D01*
X16590819Y-7674413D01*
X16570475Y-7723407D01*
X16570429Y-7776457D01*
X16590687Y-7825486D01*
X16628167Y-7863031D01*
X16677161Y-7883375D01*
X16730211Y-7883421D01*
X16779240Y-7863163D01*
X16816785Y-7825683D01*
X16837129Y-7776689D01*
X16837175Y-7723639D01*
X16837175Y-8300712D01*
X16824452Y-8305969D01*
X16786907Y-8343449D01*
X16766563Y-8392443D01*
X16766517Y-8445493D01*
X16786775Y-8494522D01*
X16824255Y-8532067D01*
X16873249Y-8552411D01*
X16926299Y-8552457D01*
X16975328Y-8532199D01*
X17012873Y-8494719D01*
X17033217Y-8445725D01*
X17033263Y-8392675D01*
X17033263Y-9177888D01*
X17031605Y-9147364D01*
X17016870Y-9111791D01*
X16993309Y-9105626D01*
X16975348Y-9123586D01*
X16975348Y-9087665D01*
X16969183Y-9064104D01*
X16919142Y-9046491D01*
X16866170Y-9049369D01*
X16830597Y-9064104D01*
X16824432Y-9087665D01*
X16899890Y-9163124D01*
X16975348Y-9087665D01*
X16975348Y-9123586D01*
X16917851Y-9181084D01*
X16993309Y-9256542D01*
X17016870Y-9250377D01*
X17034483Y-9200336D01*
X17034483Y-9587971D01*
X16975348Y-9612405D01*
X16975348Y-9274503D01*
X16899890Y-9199045D01*
X16881930Y-9217005D01*
X16881930Y-9181084D01*
X16806471Y-9105626D01*
X16782910Y-9111791D01*
X16765297Y-9161832D01*
X16768175Y-9214804D01*
X16782910Y-9250377D01*
X16806471Y-9256542D01*
X16881930Y-9181084D01*
X16881930Y-9217005D01*
X16824432Y-9274503D01*
X16830597Y-9298064D01*
X16880638Y-9315677D01*
X16933610Y-9312799D01*
X16969183Y-9298064D01*
X16975348Y-9274503D01*
X16975348Y-9612405D01*
X16922655Y-9634177D01*
X16834371Y-9722307D01*
X16786534Y-9837513D01*
X16786425Y-9962256D01*
X16834061Y-10077545D01*
X16873775Y-10117328D01*
X16570373Y-10117328D01*
X16570373Y-8393591D01*
X16550115Y-8344562D01*
X16512635Y-8307017D01*
X16463641Y-8286673D01*
X16410591Y-8286627D01*
X16361562Y-8306885D01*
X16329175Y-8339216D01*
X16329175Y-7723639D01*
X16308917Y-7674610D01*
X16302251Y-7667933D01*
X16302251Y-6723641D01*
X16281993Y-6674612D01*
X16244513Y-6637067D01*
X16195519Y-6616723D01*
X16142469Y-6616677D01*
X16093440Y-6636935D01*
X16055895Y-6674415D01*
X16035551Y-6723409D01*
X16035505Y-6776459D01*
X16055763Y-6825488D01*
X16093243Y-6863033D01*
X16142237Y-6883377D01*
X16195287Y-6883423D01*
X16244316Y-6863165D01*
X16281861Y-6825685D01*
X16302205Y-6776691D01*
X16302251Y-6723641D01*
X16302251Y-7667933D01*
X16271437Y-7637065D01*
X16222443Y-7616721D01*
X16169393Y-7616675D01*
X16120364Y-7636933D01*
X16082819Y-7674413D01*
X16062475Y-7723407D01*
X16062429Y-7776457D01*
X16082687Y-7825486D01*
X16120167Y-7863031D01*
X16169161Y-7883375D01*
X16222211Y-7883421D01*
X16271240Y-7863163D01*
X16308785Y-7825683D01*
X16329129Y-7776689D01*
X16329175Y-7723639D01*
X16329175Y-8339216D01*
X16324017Y-8344365D01*
X16317594Y-8359834D01*
X16317594Y-8350150D01*
X16312896Y-8325938D01*
X16298917Y-8304657D01*
X16277814Y-8290412D01*
X16252850Y-8285406D01*
X16113150Y-8285406D01*
X16088938Y-8290104D01*
X16067657Y-8304083D01*
X16053412Y-8325186D01*
X16048406Y-8350150D01*
X16048406Y-8489850D01*
X16053104Y-8514062D01*
X16067083Y-8535343D01*
X16088186Y-8549588D01*
X16113150Y-8554594D01*
X16252850Y-8554594D01*
X16277062Y-8549896D01*
X16298343Y-8535917D01*
X16312588Y-8514814D01*
X16317594Y-8489850D01*
X16317594Y-8480212D01*
X16323885Y-8495438D01*
X16361365Y-8532983D01*
X16410359Y-8553327D01*
X16463409Y-8553373D01*
X16512438Y-8533115D01*
X16549983Y-8495635D01*
X16570327Y-8446641D01*
X16570373Y-8393591D01*
X16570373Y-10117328D01*
X15883151Y-10117328D01*
X15883151Y-7504691D01*
X15883151Y-6742691D01*
X15862893Y-6693662D01*
X15825413Y-6656117D01*
X15776419Y-6635773D01*
X15723369Y-6635727D01*
X15674340Y-6655985D01*
X15636795Y-6693465D01*
X15616451Y-6742459D01*
X15616405Y-6795509D01*
X15636663Y-6844538D01*
X15674143Y-6882083D01*
X15723137Y-6902427D01*
X15776187Y-6902473D01*
X15825216Y-6882215D01*
X15862761Y-6844735D01*
X15883105Y-6795741D01*
X15883151Y-6742691D01*
X15883151Y-7504691D01*
X15862893Y-7455662D01*
X15825413Y-7418117D01*
X15776419Y-7397773D01*
X15723369Y-7397727D01*
X15674340Y-7417985D01*
X15636795Y-7455465D01*
X15616451Y-7504459D01*
X15616405Y-7557509D01*
X15636663Y-7606538D01*
X15674143Y-7644083D01*
X15723137Y-7664427D01*
X15776187Y-7664473D01*
X15825216Y-7644215D01*
X15862761Y-7606735D01*
X15883105Y-7557741D01*
X15883151Y-7504691D01*
X15883151Y-10117328D01*
X15834587Y-10117328D01*
X15834587Y-9200336D01*
X15833367Y-9177888D01*
X15833367Y-8392675D01*
X15813109Y-8343646D01*
X15775629Y-8306101D01*
X15726635Y-8285757D01*
X15673585Y-8285711D01*
X15624556Y-8305969D01*
X15587011Y-8343449D01*
X15566667Y-8392443D01*
X15566621Y-8445493D01*
X15586879Y-8494522D01*
X15624359Y-8532067D01*
X15673353Y-8552411D01*
X15726403Y-8552457D01*
X15775432Y-8532199D01*
X15812977Y-8494719D01*
X15833321Y-8445725D01*
X15833367Y-8392675D01*
X15833367Y-9177888D01*
X15831709Y-9147364D01*
X15816974Y-9111791D01*
X15793413Y-9105626D01*
X15775452Y-9123586D01*
X15775452Y-9087665D01*
X15769287Y-9064104D01*
X15719246Y-9046491D01*
X15666274Y-9049369D01*
X15630701Y-9064104D01*
X15624536Y-9087665D01*
X15699994Y-9163124D01*
X15775452Y-9087665D01*
X15775452Y-9123586D01*
X15717954Y-9181084D01*
X15793413Y-9256542D01*
X15816974Y-9250377D01*
X15834587Y-9200336D01*
X15834587Y-10117328D01*
X15775452Y-10117328D01*
X15775452Y-9274503D01*
X15699994Y-9199045D01*
X15682033Y-9217005D01*
X15682033Y-9181084D01*
X15606575Y-9105626D01*
X15583014Y-9111791D01*
X15565401Y-9161832D01*
X15568279Y-9214804D01*
X15583014Y-9250377D01*
X15606575Y-9256542D01*
X15682033Y-9181084D01*
X15682033Y-9217005D01*
X15624536Y-9274503D01*
X15630701Y-9298064D01*
X15680742Y-9315677D01*
X15733714Y-9312799D01*
X15769287Y-9298064D01*
X15775452Y-9274503D01*
X15775452Y-10117328D01*
X15510373Y-10117328D01*
X15510373Y-7946591D01*
X15490115Y-7897562D01*
X15452635Y-7860017D01*
X15403641Y-7839673D01*
X15350591Y-7839627D01*
X15301562Y-7859885D01*
X15264017Y-7897365D01*
X15249991Y-7931145D01*
X15236115Y-7897562D01*
X15198635Y-7860017D01*
X15149641Y-7839673D01*
X15096591Y-7839627D01*
X15047562Y-7859885D01*
X15010017Y-7897365D01*
X14989673Y-7946359D01*
X14989627Y-7999409D01*
X15009885Y-8048438D01*
X15047365Y-8085983D01*
X15062834Y-8092406D01*
X15053150Y-8092406D01*
X15028938Y-8097104D01*
X15007657Y-8111083D01*
X14993412Y-8132186D01*
X14988406Y-8157150D01*
X14988406Y-8296850D01*
X14993104Y-8321062D01*
X15007083Y-8342343D01*
X15028186Y-8356588D01*
X15053150Y-8361594D01*
X15192850Y-8361594D01*
X15217062Y-8356896D01*
X15238343Y-8342917D01*
X15252588Y-8321814D01*
X15257594Y-8296850D01*
X15257594Y-8157150D01*
X15252896Y-8132938D01*
X15238917Y-8111657D01*
X15217814Y-8097412D01*
X15192850Y-8092406D01*
X15183212Y-8092406D01*
X15198438Y-8086115D01*
X15235983Y-8048635D01*
X15250009Y-8014855D01*
X15263885Y-8048438D01*
X15301365Y-8085983D01*
X15350359Y-8106327D01*
X15403409Y-8106373D01*
X15452438Y-8086115D01*
X15489983Y-8048635D01*
X15510327Y-7999641D01*
X15510373Y-7946591D01*
X15510373Y-10117328D01*
X14734513Y-10117328D01*
X14734513Y-9200336D01*
X14733293Y-9177888D01*
X14733293Y-8392675D01*
X14733293Y-7704589D01*
X14733293Y-6942589D01*
X14713035Y-6893560D01*
X14675555Y-6856015D01*
X14626561Y-6835671D01*
X14573511Y-6835625D01*
X14524482Y-6855883D01*
X14486937Y-6893363D01*
X14466593Y-6942357D01*
X14466547Y-6995407D01*
X14486805Y-7044436D01*
X14524285Y-7081981D01*
X14573279Y-7102325D01*
X14626329Y-7102371D01*
X14675358Y-7082113D01*
X14712903Y-7044633D01*
X14733247Y-6995639D01*
X14733293Y-6942589D01*
X14733293Y-7704589D01*
X14713035Y-7655560D01*
X14675555Y-7618015D01*
X14626561Y-7597671D01*
X14573511Y-7597625D01*
X14524482Y-7617883D01*
X14486937Y-7655363D01*
X14466593Y-7704357D01*
X14466547Y-7757407D01*
X14486805Y-7806436D01*
X14524285Y-7843981D01*
X14573279Y-7864325D01*
X14626329Y-7864371D01*
X14675358Y-7844113D01*
X14712903Y-7806633D01*
X14733247Y-7757639D01*
X14733293Y-7704589D01*
X14733293Y-8392675D01*
X14713035Y-8343646D01*
X14675555Y-8306101D01*
X14626561Y-8285757D01*
X14573511Y-8285711D01*
X14524482Y-8305969D01*
X14487421Y-8342966D01*
X14487421Y-8073651D01*
X14467163Y-8024622D01*
X14429683Y-7987077D01*
X14380689Y-7966733D01*
X14327639Y-7966687D01*
X14278610Y-7986945D01*
X14244594Y-8020902D01*
X14244594Y-7036850D01*
X14244594Y-6897150D01*
X14244593Y-6897143D01*
X14244593Y-6732252D01*
X14241715Y-6679280D01*
X14226980Y-6643707D01*
X14203419Y-6637542D01*
X14185458Y-6655502D01*
X14185458Y-6619581D01*
X14179293Y-6596020D01*
X14129252Y-6578407D01*
X14076280Y-6581285D01*
X14040707Y-6596020D01*
X14034542Y-6619581D01*
X14110000Y-6695039D01*
X14185458Y-6619581D01*
X14185458Y-6655502D01*
X14127960Y-6713000D01*
X14203419Y-6788458D01*
X14226980Y-6782293D01*
X14244593Y-6732252D01*
X14244593Y-6897143D01*
X14239896Y-6872938D01*
X14225917Y-6851657D01*
X14204814Y-6837412D01*
X14179850Y-6832406D01*
X14173436Y-6832406D01*
X14179293Y-6829980D01*
X14185458Y-6806419D01*
X14110000Y-6730960D01*
X14092039Y-6748921D01*
X14092039Y-6713000D01*
X14016581Y-6637542D01*
X13993020Y-6643707D01*
X13975407Y-6693748D01*
X13978285Y-6746720D01*
X13993020Y-6782293D01*
X14016581Y-6788458D01*
X14092039Y-6713000D01*
X14092039Y-6748921D01*
X14034542Y-6806419D01*
X14040707Y-6829980D01*
X14047600Y-6832406D01*
X14040150Y-6832406D01*
X14015938Y-6837104D01*
X13994657Y-6851083D01*
X13980412Y-6872186D01*
X13975406Y-6897150D01*
X13975406Y-7036850D01*
X13980104Y-7061062D01*
X13994083Y-7082343D01*
X14015186Y-7096588D01*
X14040150Y-7101594D01*
X14179850Y-7101594D01*
X14204062Y-7096896D01*
X14225343Y-7082917D01*
X14239588Y-7061814D01*
X14244594Y-7036850D01*
X14244594Y-8020902D01*
X14241065Y-8024425D01*
X14220721Y-8073419D01*
X14220675Y-8126469D01*
X14240933Y-8175498D01*
X14278413Y-8213043D01*
X14327407Y-8233387D01*
X14380457Y-8233433D01*
X14429486Y-8213175D01*
X14467031Y-8175695D01*
X14487375Y-8126701D01*
X14487421Y-8073651D01*
X14487421Y-8342966D01*
X14486937Y-8343449D01*
X14466593Y-8392443D01*
X14466547Y-8445493D01*
X14486805Y-8494522D01*
X14524285Y-8532067D01*
X14573279Y-8552411D01*
X14626329Y-8552457D01*
X14675358Y-8532199D01*
X14712903Y-8494719D01*
X14733247Y-8445725D01*
X14733293Y-8392675D01*
X14733293Y-9177888D01*
X14731635Y-9147364D01*
X14716900Y-9111791D01*
X14693339Y-9105626D01*
X14675378Y-9123586D01*
X14675378Y-9087665D01*
X14669213Y-9064104D01*
X14619172Y-9046491D01*
X14566200Y-9049369D01*
X14530627Y-9064104D01*
X14524462Y-9087665D01*
X14599920Y-9163124D01*
X14675378Y-9087665D01*
X14675378Y-9123586D01*
X14617880Y-9181084D01*
X14693339Y-9256542D01*
X14716900Y-9250377D01*
X14734513Y-9200336D01*
X14734513Y-10117328D01*
X14675378Y-10117328D01*
X14675378Y-9274503D01*
X14599920Y-9199045D01*
X14581959Y-9217005D01*
X14581959Y-9181084D01*
X14506501Y-9105626D01*
X14482940Y-9111791D01*
X14465327Y-9161832D01*
X14468205Y-9214804D01*
X14482940Y-9250377D01*
X14506501Y-9256542D01*
X14581959Y-9181084D01*
X14581959Y-9217005D01*
X14524462Y-9274503D01*
X14530627Y-9298064D01*
X14580668Y-9315677D01*
X14633640Y-9312799D01*
X14669213Y-9298064D01*
X14675378Y-9274503D01*
X14675378Y-10117328D01*
X13979421Y-10117328D01*
X13979421Y-8073651D01*
X13959163Y-8024622D01*
X13921683Y-7987077D01*
X13872689Y-7966733D01*
X13819639Y-7966687D01*
X13770610Y-7986945D01*
X13733295Y-8024195D01*
X13733295Y-7704589D01*
X13733295Y-6942589D01*
X13713037Y-6893560D01*
X13675557Y-6856015D01*
X13626563Y-6835671D01*
X13573513Y-6835625D01*
X13524484Y-6855883D01*
X13486939Y-6893363D01*
X13466595Y-6942357D01*
X13466549Y-6995407D01*
X13486807Y-7044436D01*
X13524287Y-7081981D01*
X13573281Y-7102325D01*
X13626331Y-7102371D01*
X13675360Y-7082113D01*
X13712905Y-7044633D01*
X13733249Y-6995639D01*
X13733295Y-6942589D01*
X13733295Y-7704589D01*
X13713037Y-7655560D01*
X13675557Y-7618015D01*
X13626563Y-7597671D01*
X13573513Y-7597625D01*
X13524484Y-7617883D01*
X13486939Y-7655363D01*
X13466595Y-7704357D01*
X13466549Y-7757407D01*
X13486807Y-7806436D01*
X13524287Y-7843981D01*
X13573281Y-7864325D01*
X13626331Y-7864371D01*
X13675360Y-7844113D01*
X13712905Y-7806633D01*
X13733249Y-7757639D01*
X13733295Y-7704589D01*
X13733295Y-8024195D01*
X13733065Y-8024425D01*
X13712721Y-8073419D01*
X13712675Y-8126469D01*
X13732933Y-8175498D01*
X13770413Y-8213043D01*
X13819407Y-8233387D01*
X13872457Y-8233433D01*
X13921486Y-8213175D01*
X13959031Y-8175695D01*
X13979375Y-8126701D01*
X13979421Y-8073651D01*
X13979421Y-10117328D01*
X13654505Y-10117328D01*
X13654505Y-8993326D01*
X13653285Y-8970878D01*
X13653285Y-8439665D01*
X13633027Y-8390636D01*
X13595547Y-8353091D01*
X13546553Y-8332747D01*
X13493503Y-8332701D01*
X13444474Y-8352959D01*
X13406929Y-8390439D01*
X13386585Y-8439433D01*
X13386539Y-8492483D01*
X13406797Y-8541512D01*
X13444277Y-8579057D01*
X13493271Y-8599401D01*
X13546321Y-8599447D01*
X13595350Y-8579189D01*
X13632895Y-8541709D01*
X13653239Y-8492715D01*
X13653285Y-8439665D01*
X13653285Y-8970878D01*
X13651627Y-8940354D01*
X13636892Y-8904781D01*
X13613331Y-8898616D01*
X13595370Y-8916576D01*
X13595370Y-8880655D01*
X13589205Y-8857094D01*
X13539164Y-8839481D01*
X13486192Y-8842359D01*
X13450619Y-8857094D01*
X13444454Y-8880655D01*
X13519912Y-8956114D01*
X13595370Y-8880655D01*
X13595370Y-8916576D01*
X13537872Y-8974074D01*
X13613331Y-9049532D01*
X13636892Y-9043367D01*
X13654505Y-8993326D01*
X13654505Y-10117328D01*
X13595370Y-10117328D01*
X13595370Y-9067493D01*
X13519912Y-8992035D01*
X13501951Y-9009995D01*
X13501951Y-8974074D01*
X13426493Y-8898616D01*
X13402932Y-8904781D01*
X13385319Y-8954822D01*
X13388197Y-9007794D01*
X13402932Y-9043367D01*
X13426493Y-9049532D01*
X13501951Y-8974074D01*
X13501951Y-9009995D01*
X13444454Y-9067493D01*
X13450619Y-9091054D01*
X13500660Y-9108667D01*
X13553632Y-9105789D01*
X13589205Y-9091054D01*
X13595370Y-9067493D01*
X13595370Y-10117328D01*
X12878334Y-10117328D01*
X12878334Y-8708000D01*
X12878334Y-8200000D01*
X12878334Y-7692000D01*
X12866927Y-7634651D01*
X12834441Y-7586033D01*
X12802963Y-7565000D01*
X12834441Y-7543967D01*
X12866927Y-7495349D01*
X12878334Y-7438000D01*
X12866927Y-7380651D01*
X12834441Y-7332033D01*
X12802963Y-7311000D01*
X12834441Y-7289967D01*
X12866927Y-7241349D01*
X12878334Y-7184000D01*
X12866927Y-7126651D01*
X12834441Y-7078033D01*
X12785823Y-7045547D01*
X12728474Y-7034140D01*
X12691525Y-7034140D01*
X12634177Y-7045547D01*
X12585558Y-7078033D01*
X12553073Y-7126651D01*
X12541665Y-7184000D01*
X12553073Y-7241349D01*
X12585558Y-7289967D01*
X12617036Y-7311000D01*
X12585558Y-7332033D01*
X12553073Y-7380651D01*
X12541665Y-7438000D01*
X12553073Y-7495349D01*
X12585558Y-7543967D01*
X12617036Y-7565000D01*
X12585558Y-7586033D01*
X12553073Y-7634651D01*
X12541665Y-7692000D01*
X12553073Y-7749349D01*
X12585558Y-7797967D01*
X12616507Y-7818646D01*
X12574927Y-7855796D01*
X12549529Y-7908521D01*
X12549264Y-7910097D01*
X12561378Y-7933300D01*
X12697300Y-7933300D01*
X12697300Y-7931300D01*
X12722700Y-7931300D01*
X12722700Y-7933300D01*
X12858622Y-7933300D01*
X12870736Y-7910097D01*
X12870471Y-7908521D01*
X12845073Y-7855796D01*
X12803493Y-7818646D01*
X12834441Y-7797967D01*
X12866927Y-7749349D01*
X12878334Y-7692000D01*
X12878334Y-8200000D01*
X12866927Y-8142651D01*
X12834441Y-8094033D01*
X12803493Y-8073354D01*
X12845073Y-8036204D01*
X12870471Y-7983479D01*
X12870736Y-7981903D01*
X12858622Y-7958700D01*
X12722700Y-7958700D01*
X12722700Y-7960700D01*
X12697300Y-7960700D01*
X12697300Y-7958700D01*
X12561378Y-7958700D01*
X12549264Y-7981903D01*
X12549529Y-7983479D01*
X12574927Y-8036204D01*
X12616507Y-8073354D01*
X12585558Y-8094033D01*
X12553073Y-8142651D01*
X12541665Y-8200000D01*
X12553073Y-8257349D01*
X12585558Y-8305967D01*
X12616507Y-8326646D01*
X12574927Y-8363796D01*
X12549529Y-8416521D01*
X12549264Y-8418097D01*
X12561378Y-8441300D01*
X12697300Y-8441300D01*
X12697300Y-8439300D01*
X12722700Y-8439300D01*
X12722700Y-8441300D01*
X12858622Y-8441300D01*
X12870736Y-8418097D01*
X12870471Y-8416521D01*
X12845073Y-8363796D01*
X12803493Y-8326646D01*
X12834441Y-8305967D01*
X12866927Y-8257349D01*
X12878334Y-8200000D01*
X12878334Y-8708000D01*
X12866927Y-8650651D01*
X12834441Y-8602033D01*
X12803493Y-8581354D01*
X12845073Y-8544204D01*
X12870471Y-8491479D01*
X12870736Y-8489903D01*
X12858622Y-8466700D01*
X12722700Y-8466700D01*
X12722700Y-8468700D01*
X12697300Y-8468700D01*
X12697300Y-8466700D01*
X12561378Y-8466700D01*
X12549264Y-8489903D01*
X12549529Y-8491479D01*
X12574927Y-8544204D01*
X12616507Y-8581354D01*
X12585558Y-8602033D01*
X12553073Y-8650651D01*
X12541665Y-8708000D01*
X12553073Y-8765349D01*
X12585558Y-8813967D01*
X12616507Y-8834646D01*
X12574927Y-8871796D01*
X12549529Y-8924521D01*
X12549264Y-8926097D01*
X12561378Y-8949300D01*
X12697300Y-8949300D01*
X12697300Y-8947300D01*
X12722700Y-8947300D01*
X12722700Y-8949300D01*
X12858622Y-8949300D01*
X12870736Y-8926097D01*
X12870471Y-8924521D01*
X12845073Y-8871796D01*
X12803493Y-8834646D01*
X12834441Y-8813967D01*
X12866927Y-8765349D01*
X12878334Y-8708000D01*
X12878334Y-10117328D01*
X12876344Y-10117328D01*
X12876344Y-9302360D01*
X12876344Y-9129640D01*
X12871646Y-9105428D01*
X12857667Y-9084147D01*
X12836564Y-9069902D01*
X12827335Y-9068052D01*
X12845073Y-9052204D01*
X12870471Y-8999479D01*
X12870736Y-8997903D01*
X12858622Y-8974700D01*
X12722700Y-8974700D01*
X12722700Y-8976700D01*
X12697300Y-8976700D01*
X12697300Y-8974700D01*
X12561378Y-8974700D01*
X12549264Y-8997903D01*
X12549529Y-8999479D01*
X12574927Y-9052204D01*
X12592570Y-9067967D01*
X12584188Y-9069594D01*
X12562907Y-9083573D01*
X12548662Y-9104676D01*
X12543656Y-9129640D01*
X12543656Y-9302360D01*
X12548354Y-9326572D01*
X12562333Y-9347853D01*
X12583436Y-9362098D01*
X12608400Y-9367104D01*
X12811600Y-9367104D01*
X12835812Y-9362406D01*
X12857093Y-9348427D01*
X12871338Y-9327324D01*
X12876344Y-9302360D01*
X12876344Y-10117328D01*
X12482576Y-10117328D01*
X12482576Y-6725889D01*
X12522149Y-6765531D01*
X12637355Y-6813368D01*
X12762098Y-6813477D01*
X12877387Y-6765841D01*
X12965671Y-6677711D01*
X13013508Y-6562505D01*
X13013617Y-6437762D01*
X12965981Y-6322473D01*
X12926014Y-6282436D01*
X17317466Y-6282436D01*
X17317466Y-9674129D01*
M02*
