M48
METRIC,TZ
T1C0.813
T2C1.016
T3C3.200
%
G90
G05
T1
X135199Y-84661
X135199Y-89741
X135999Y-69690
X135999Y-77310
X138460Y-81001
X141100Y-67130
X141100Y-69670
X143540Y-81001
X145999Y-69690
X145999Y-77310
X145999Y-84191
X145999Y-91811
X151230Y-79730
X151230Y-82270
X153770Y-79730
X157000Y-84191
X157000Y-91811
X157498Y-67691
X157498Y-75311
X161689Y-67501
X161830Y-84200
X161958Y-77500
X164370Y-84200
X167038Y-77500
X168999Y-84191
X168999Y-91811
X169309Y-67501
T2
X127100Y-71840
X127100Y-74380
X127100Y-76920
X127100Y-79460
X127100Y-82000
X127100Y-84540
X127100Y-87080
X127100Y-89620
X127100Y-92160
T3
X127000Y-64999
X171000Y-99002
T0
M30
