G04 #@! TF.FileFunction,Legend,Top*
%FSLAX45Y45*%
G04 Gerber Fmt 4.5, Leading zero omitted, Abs format (unit mm)*
G04 Created by KiCad (PCBNEW (2015-01-25 BZR 5388)-product) date Mo 03 Aug 2015 14:20:38 CEST*
%MOMM*%
G01*
G04 APERTURE LIST*
%ADD10C,0.150000*%
%ADD11C,0.200000*%
%ADD12C,0.250000*%
%ADD13C,0.381000*%
%ADD14C,0.248920*%
%ADD15C,0.304800*%
G04 APERTURE END LIST*
D10*
D11*
X21805238Y-8079524D02*
X21805238Y-8060476D01*
X21810000Y-8050952D01*
X21819524Y-8041429D01*
X21838571Y-8036667D01*
X21871905Y-8036667D01*
X21890952Y-8041429D01*
X21900476Y-8050952D01*
X21905238Y-8060476D01*
X21905238Y-8079524D01*
X21900476Y-8089048D01*
X21890952Y-8098571D01*
X21871905Y-8103333D01*
X21838571Y-8103333D01*
X21819524Y-8098571D01*
X21810000Y-8089048D01*
X21805238Y-8079524D01*
X21838571Y-7950952D02*
X21905238Y-7950952D01*
X21838571Y-7993810D02*
X21890952Y-7993810D01*
X21900476Y-7989048D01*
X21905238Y-7979524D01*
X21905238Y-7965238D01*
X21900476Y-7955714D01*
X21895714Y-7950952D01*
X21838571Y-7917619D02*
X21838571Y-7879524D01*
X21805238Y-7903333D02*
X21890952Y-7903333D01*
X21900476Y-7898571D01*
X21905238Y-7889048D01*
X21905238Y-7879524D01*
X21838571Y-7846190D02*
X21938571Y-7846190D01*
X21843333Y-7846190D02*
X21838571Y-7836667D01*
X21838571Y-7817619D01*
X21843333Y-7808095D01*
X21848095Y-7803333D01*
X21857619Y-7798571D01*
X21886191Y-7798571D01*
X21895714Y-7803333D01*
X21900476Y-7808095D01*
X21905238Y-7817619D01*
X21905238Y-7836667D01*
X21900476Y-7846190D01*
X21838571Y-7712857D02*
X21905238Y-7712857D01*
X21838571Y-7755714D02*
X21890952Y-7755714D01*
X21900476Y-7750952D01*
X21905238Y-7741429D01*
X21905238Y-7727143D01*
X21900476Y-7717619D01*
X21895714Y-7712857D01*
X21838571Y-7679524D02*
X21838571Y-7641429D01*
X21805238Y-7665238D02*
X21890952Y-7665238D01*
X21900476Y-7660476D01*
X21905238Y-7650952D01*
X21905238Y-7641429D01*
X21876667Y-7612857D02*
X21876667Y-7565238D01*
X21905238Y-7622381D02*
X21805238Y-7589048D01*
X21905238Y-7555714D01*
X21838571Y-7479524D02*
X21905238Y-7479524D01*
X21838571Y-7522381D02*
X21890952Y-7522381D01*
X21900476Y-7517619D01*
X21905238Y-7508095D01*
X21905238Y-7493809D01*
X21900476Y-7484286D01*
X21895714Y-7479524D01*
X21905238Y-7389047D02*
X21805238Y-7389047D01*
X21900476Y-7389047D02*
X21905238Y-7398571D01*
X21905238Y-7417619D01*
X21900476Y-7427143D01*
X21895714Y-7431905D01*
X21886191Y-7436667D01*
X21857619Y-7436667D01*
X21848095Y-7431905D01*
X21843333Y-7427143D01*
X21838571Y-7417619D01*
X21838571Y-7398571D01*
X21843333Y-7389047D01*
X21905238Y-7341428D02*
X21838571Y-7341428D01*
X21805238Y-7341428D02*
X21810000Y-7346190D01*
X21814762Y-7341428D01*
X21810000Y-7336667D01*
X21805238Y-7341428D01*
X21814762Y-7341428D01*
X21905238Y-7279524D02*
X21900476Y-7289048D01*
X21895714Y-7293809D01*
X21886191Y-7298571D01*
X21857619Y-7298571D01*
X21848095Y-7293809D01*
X21843333Y-7289048D01*
X21838571Y-7279524D01*
X21838571Y-7265238D01*
X21843333Y-7255714D01*
X21848095Y-7250952D01*
X21857619Y-7246190D01*
X21886191Y-7246190D01*
X21895714Y-7250952D01*
X21900476Y-7255714D01*
X21905238Y-7265238D01*
X21905238Y-7279524D01*
X21876667Y-7208095D02*
X21876667Y-7160476D01*
X21905238Y-7217619D02*
X21805238Y-7184286D01*
X21905238Y-7150952D01*
X21905238Y-7117619D02*
X21838571Y-7117619D01*
X21848095Y-7117619D02*
X21843333Y-7112857D01*
X21838571Y-7103333D01*
X21838571Y-7089047D01*
X21843333Y-7079524D01*
X21852857Y-7074762D01*
X21905238Y-7074762D01*
X21852857Y-7074762D02*
X21843333Y-7070000D01*
X21838571Y-7060476D01*
X21838571Y-7046190D01*
X21843333Y-7036667D01*
X21852857Y-7031905D01*
X21905238Y-7031905D01*
X21838571Y-6984286D02*
X21938571Y-6984286D01*
X21843333Y-6984286D02*
X21838571Y-6974762D01*
X21838571Y-6955714D01*
X21843333Y-6946190D01*
X21848095Y-6941428D01*
X21857619Y-6936667D01*
X21886191Y-6936667D01*
X21895714Y-6941428D01*
X21900476Y-6946190D01*
X21905238Y-6955714D01*
X21905238Y-6974762D01*
X21900476Y-6984286D01*
X19935238Y-8050476D02*
X19887619Y-8083810D01*
X19935238Y-8107619D02*
X19835238Y-8107619D01*
X19835238Y-8069524D01*
X19840000Y-8060000D01*
X19844762Y-8055238D01*
X19854286Y-8050476D01*
X19868571Y-8050476D01*
X19878095Y-8055238D01*
X19882857Y-8060000D01*
X19887619Y-8069524D01*
X19887619Y-8107619D01*
X19935238Y-8017143D02*
X19868571Y-7964762D01*
X19868571Y-8017143D02*
X19935238Y-7964762D01*
X19906667Y-7931429D02*
X19906667Y-7883809D01*
X19935238Y-7940952D02*
X19835238Y-7907619D01*
X19935238Y-7874286D01*
X19868571Y-7798095D02*
X19935238Y-7798095D01*
X19868571Y-7840952D02*
X19920952Y-7840952D01*
X19930476Y-7836190D01*
X19935238Y-7826667D01*
X19935238Y-7812381D01*
X19930476Y-7802857D01*
X19925714Y-7798095D01*
X19935238Y-7707619D02*
X19835238Y-7707619D01*
X19930476Y-7707619D02*
X19935238Y-7717143D01*
X19935238Y-7736190D01*
X19930476Y-7745714D01*
X19925714Y-7750476D01*
X19916191Y-7755238D01*
X19887619Y-7755238D01*
X19878095Y-7750476D01*
X19873333Y-7745714D01*
X19868571Y-7736190D01*
X19868571Y-7717143D01*
X19873333Y-7707619D01*
X19935238Y-7660000D02*
X19868571Y-7660000D01*
X19835238Y-7660000D02*
X19840000Y-7664762D01*
X19844762Y-7660000D01*
X19840000Y-7655238D01*
X19835238Y-7660000D01*
X19844762Y-7660000D01*
X19935238Y-7598095D02*
X19930476Y-7607619D01*
X19925714Y-7612381D01*
X19916191Y-7617143D01*
X19887619Y-7617143D01*
X19878095Y-7612381D01*
X19873333Y-7607619D01*
X19868571Y-7598095D01*
X19868571Y-7583809D01*
X19873333Y-7574286D01*
X19878095Y-7569524D01*
X19887619Y-7564762D01*
X19916191Y-7564762D01*
X19925714Y-7569524D01*
X19930476Y-7574286D01*
X19935238Y-7583809D01*
X19935238Y-7598095D01*
X19935238Y-7521905D02*
X19835238Y-7521905D01*
X19835238Y-7483809D01*
X19840000Y-7474286D01*
X19844762Y-7469524D01*
X19854286Y-7464762D01*
X19868571Y-7464762D01*
X19878095Y-7469524D01*
X19882857Y-7474286D01*
X19887619Y-7483809D01*
X19887619Y-7521905D01*
X19935238Y-7421905D02*
X19868571Y-7421905D01*
X19887619Y-7421905D02*
X19878095Y-7417143D01*
X19873333Y-7412381D01*
X19868571Y-7402857D01*
X19868571Y-7393333D01*
X19930476Y-7321905D02*
X19935238Y-7331428D01*
X19935238Y-7350476D01*
X19930476Y-7360000D01*
X19920952Y-7364762D01*
X19882857Y-7364762D01*
X19873333Y-7360000D01*
X19868571Y-7350476D01*
X19868571Y-7331428D01*
X19873333Y-7321905D01*
X19882857Y-7317143D01*
X19892381Y-7317143D01*
X19901905Y-7364762D01*
X19906667Y-7279048D02*
X19906667Y-7231428D01*
X19935238Y-7288571D02*
X19835238Y-7255238D01*
X19935238Y-7221905D01*
X19935238Y-7188571D02*
X19868571Y-7188571D01*
X19878095Y-7188571D02*
X19873333Y-7183809D01*
X19868571Y-7174286D01*
X19868571Y-7160000D01*
X19873333Y-7150476D01*
X19882857Y-7145714D01*
X19935238Y-7145714D01*
X19882857Y-7145714D02*
X19873333Y-7140952D01*
X19868571Y-7131428D01*
X19868571Y-7117143D01*
X19873333Y-7107619D01*
X19882857Y-7102857D01*
X19935238Y-7102857D01*
X19868571Y-7055238D02*
X19968571Y-7055238D01*
X19873333Y-7055238D02*
X19868571Y-7045714D01*
X19868571Y-7026667D01*
X19873333Y-7017143D01*
X19878095Y-7012381D01*
X19887619Y-7007619D01*
X19916191Y-7007619D01*
X19925714Y-7012381D01*
X19930476Y-7017143D01*
X19935238Y-7026667D01*
X19935238Y-7045714D01*
X19930476Y-7055238D01*
X17955238Y-7784762D02*
X17855238Y-7784762D01*
X17926667Y-7751428D01*
X17855238Y-7718095D01*
X17955238Y-7718095D01*
X17955238Y-7670476D02*
X17888571Y-7670476D01*
X17855238Y-7670476D02*
X17860000Y-7675238D01*
X17864762Y-7670476D01*
X17860000Y-7665714D01*
X17855238Y-7670476D01*
X17864762Y-7670476D01*
X17950476Y-7580000D02*
X17955238Y-7589524D01*
X17955238Y-7608571D01*
X17950476Y-7618095D01*
X17945714Y-7622857D01*
X17936191Y-7627619D01*
X17907619Y-7627619D01*
X17898095Y-7622857D01*
X17893333Y-7618095D01*
X17888571Y-7608571D01*
X17888571Y-7589524D01*
X17893333Y-7580000D01*
X17926667Y-7541905D02*
X17926667Y-7494286D01*
X17955238Y-7551429D02*
X17855238Y-7518095D01*
X17955238Y-7484762D01*
X17955238Y-7451429D02*
X17888571Y-7451429D01*
X17898095Y-7451429D02*
X17893333Y-7446667D01*
X17888571Y-7437143D01*
X17888571Y-7422857D01*
X17893333Y-7413333D01*
X17902857Y-7408571D01*
X17955238Y-7408571D01*
X17902857Y-7408571D02*
X17893333Y-7403809D01*
X17888571Y-7394286D01*
X17888571Y-7380000D01*
X17893333Y-7370476D01*
X17902857Y-7365714D01*
X17955238Y-7365714D01*
X17888571Y-7318095D02*
X17988571Y-7318095D01*
X17893333Y-7318095D02*
X17888571Y-7308571D01*
X17888571Y-7289524D01*
X17893333Y-7280000D01*
X17898095Y-7275238D01*
X17907619Y-7270476D01*
X17936191Y-7270476D01*
X17945714Y-7275238D01*
X17950476Y-7280000D01*
X17955238Y-7289524D01*
X17955238Y-7308571D01*
X17950476Y-7318095D01*
X15940476Y-8230476D02*
X15945238Y-8216190D01*
X15945238Y-8192381D01*
X15940476Y-8182857D01*
X15935714Y-8178095D01*
X15926190Y-8173333D01*
X15916667Y-8173333D01*
X15907143Y-8178095D01*
X15902381Y-8182857D01*
X15897619Y-8192381D01*
X15892857Y-8211429D01*
X15888095Y-8220952D01*
X15883333Y-8225714D01*
X15873809Y-8230476D01*
X15864286Y-8230476D01*
X15854762Y-8225714D01*
X15850000Y-8220952D01*
X15845238Y-8211429D01*
X15845238Y-8187619D01*
X15850000Y-8173333D01*
X15945238Y-8130476D02*
X15878571Y-8130476D01*
X15845238Y-8130476D02*
X15850000Y-8135238D01*
X15854762Y-8130476D01*
X15850000Y-8125714D01*
X15845238Y-8130476D01*
X15854762Y-8130476D01*
X15945238Y-8040000D02*
X15845238Y-8040000D01*
X15940476Y-8040000D02*
X15945238Y-8049524D01*
X15945238Y-8068571D01*
X15940476Y-8078095D01*
X15935714Y-8082857D01*
X15926190Y-8087619D01*
X15897619Y-8087619D01*
X15888095Y-8082857D01*
X15883333Y-8078095D01*
X15878571Y-8068571D01*
X15878571Y-8049524D01*
X15883333Y-8040000D01*
X15940476Y-7954286D02*
X15945238Y-7963809D01*
X15945238Y-7982857D01*
X15940476Y-7992381D01*
X15930952Y-7997143D01*
X15892857Y-7997143D01*
X15883333Y-7992381D01*
X15878571Y-7982857D01*
X15878571Y-7963809D01*
X15883333Y-7954286D01*
X15892857Y-7949524D01*
X15902381Y-7949524D01*
X15911905Y-7997143D01*
X15845238Y-7920952D02*
X15845238Y-7863809D01*
X15945238Y-7892381D02*
X15845238Y-7892381D01*
X15945238Y-7816190D02*
X15940476Y-7825714D01*
X15935714Y-7830476D01*
X15926190Y-7835238D01*
X15897619Y-7835238D01*
X15888095Y-7830476D01*
X15883333Y-7825714D01*
X15878571Y-7816190D01*
X15878571Y-7801905D01*
X15883333Y-7792381D01*
X15888095Y-7787619D01*
X15897619Y-7782857D01*
X15926190Y-7782857D01*
X15935714Y-7787619D01*
X15940476Y-7792381D01*
X15945238Y-7801905D01*
X15945238Y-7816190D01*
X15878571Y-7740000D02*
X15945238Y-7740000D01*
X15888095Y-7740000D02*
X15883333Y-7735238D01*
X15878571Y-7725714D01*
X15878571Y-7711428D01*
X15883333Y-7701905D01*
X15892857Y-7697143D01*
X15945238Y-7697143D01*
X15940476Y-7611428D02*
X15945238Y-7620952D01*
X15945238Y-7640000D01*
X15940476Y-7649524D01*
X15930952Y-7654286D01*
X15892857Y-7654286D01*
X15883333Y-7649524D01*
X15878571Y-7640000D01*
X15878571Y-7620952D01*
X15883333Y-7611428D01*
X15892857Y-7606667D01*
X15902381Y-7606667D01*
X15911905Y-7654286D01*
X15916667Y-7568571D02*
X15916667Y-7520952D01*
X15945238Y-7578095D02*
X15845238Y-7544762D01*
X15945238Y-7511428D01*
X15878571Y-7478095D02*
X15945238Y-7478095D01*
X15888095Y-7478095D02*
X15883333Y-7473333D01*
X15878571Y-7463809D01*
X15878571Y-7449524D01*
X15883333Y-7440000D01*
X15892857Y-7435238D01*
X15945238Y-7435238D01*
X15945238Y-7344762D02*
X15845238Y-7344762D01*
X15940476Y-7344762D02*
X15945238Y-7354286D01*
X15945238Y-7373333D01*
X15940476Y-7382857D01*
X15935714Y-7387619D01*
X15926190Y-7392381D01*
X15897619Y-7392381D01*
X15888095Y-7387619D01*
X15883333Y-7382857D01*
X15878571Y-7373333D01*
X15878571Y-7354286D01*
X15883333Y-7344762D01*
X15935714Y-7240000D02*
X15940476Y-7244762D01*
X15945238Y-7259047D01*
X15945238Y-7268571D01*
X15940476Y-7282857D01*
X15930952Y-7292381D01*
X15921429Y-7297143D01*
X15902381Y-7301905D01*
X15888095Y-7301905D01*
X15869048Y-7297143D01*
X15859524Y-7292381D01*
X15850000Y-7282857D01*
X15845238Y-7268571D01*
X15845238Y-7259047D01*
X15850000Y-7244762D01*
X15854762Y-7240000D01*
X15845238Y-7206667D02*
X15945238Y-7182857D01*
X15873809Y-7163809D01*
X15945238Y-7144762D01*
X15845238Y-7120952D01*
X15850000Y-7030476D02*
X15845238Y-7040000D01*
X15845238Y-7054286D01*
X15850000Y-7068571D01*
X15859524Y-7078095D01*
X15869048Y-7082857D01*
X15888095Y-7087619D01*
X15902381Y-7087619D01*
X15921429Y-7082857D01*
X15930952Y-7078095D01*
X15940476Y-7068571D01*
X15945238Y-7054286D01*
X15945238Y-7044762D01*
X15940476Y-7030476D01*
X15935714Y-7025714D01*
X15902381Y-7025714D01*
X15902381Y-7044762D01*
X15940476Y-6944762D02*
X15945238Y-6954286D01*
X15945238Y-6973333D01*
X15940476Y-6982857D01*
X15930952Y-6987619D01*
X15892857Y-6987619D01*
X15883333Y-6982857D01*
X15878571Y-6973333D01*
X15878571Y-6954286D01*
X15883333Y-6944762D01*
X15892857Y-6940000D01*
X15902381Y-6940000D01*
X15911905Y-6987619D01*
X15878571Y-6897143D02*
X15945238Y-6897143D01*
X15888095Y-6897143D02*
X15883333Y-6892381D01*
X15878571Y-6882857D01*
X15878571Y-6868571D01*
X15883333Y-6859047D01*
X15892857Y-6854286D01*
X15945238Y-6854286D01*
D12*
X15684286Y-5964286D02*
X15684286Y-5844286D01*
X15724286Y-5930000D01*
X15764286Y-5844286D01*
X15764286Y-5964286D01*
X15821429Y-5964286D02*
X15821429Y-5884286D01*
X15821429Y-5844286D02*
X15815714Y-5850000D01*
X15821429Y-5855714D01*
X15827143Y-5850000D01*
X15821429Y-5844286D01*
X15821429Y-5855714D01*
X15878572Y-5884286D02*
X15878572Y-5964286D01*
X15878572Y-5895714D02*
X15884286Y-5890000D01*
X15895714Y-5884286D01*
X15912857Y-5884286D01*
X15924286Y-5890000D01*
X15930000Y-5901429D01*
X15930000Y-5964286D01*
X15987143Y-5964286D02*
X15987143Y-5884286D01*
X15987143Y-5844286D02*
X15981429Y-5850000D01*
X15987143Y-5855714D01*
X15992857Y-5850000D01*
X15987143Y-5844286D01*
X15987143Y-5855714D01*
X16044286Y-5964286D02*
X16044286Y-5884286D01*
X16044286Y-5895714D02*
X16050000Y-5890000D01*
X16061429Y-5884286D01*
X16078572Y-5884286D01*
X16090000Y-5890000D01*
X16095714Y-5901429D01*
X16095714Y-5964286D01*
X16095714Y-5901429D02*
X16101429Y-5890000D01*
X16112857Y-5884286D01*
X16130000Y-5884286D01*
X16141429Y-5890000D01*
X16147143Y-5901429D01*
X16147143Y-5964286D01*
X16255714Y-5964286D02*
X16255714Y-5901429D01*
X16250000Y-5890000D01*
X16238572Y-5884286D01*
X16215714Y-5884286D01*
X16204286Y-5890000D01*
X16255714Y-5958571D02*
X16244286Y-5964286D01*
X16215714Y-5964286D01*
X16204286Y-5958571D01*
X16198572Y-5947143D01*
X16198572Y-5935714D01*
X16204286Y-5924286D01*
X16215714Y-5918571D01*
X16244286Y-5918571D01*
X16255714Y-5912857D01*
X16404286Y-5884286D02*
X16495714Y-5918571D01*
X16404286Y-5952857D01*
X16712857Y-5964286D02*
X16672857Y-5907143D01*
X16644286Y-5964286D02*
X16644286Y-5844286D01*
X16690000Y-5844286D01*
X16701429Y-5850000D01*
X16707143Y-5855714D01*
X16712857Y-5867143D01*
X16712857Y-5884286D01*
X16707143Y-5895714D01*
X16701429Y-5901429D01*
X16690000Y-5907143D01*
X16644286Y-5907143D01*
X16752857Y-5844286D02*
X16832857Y-5964286D01*
X16832857Y-5844286D02*
X16752857Y-5964286D01*
X16861429Y-5844286D02*
X16930000Y-5844286D01*
X16895715Y-5964286D02*
X16895715Y-5844286D01*
X16958572Y-5844286D02*
X17038572Y-5964286D01*
X17038572Y-5844286D02*
X16958572Y-5964286D01*
X17084286Y-5918571D02*
X17175715Y-5918571D01*
X17227143Y-5958571D02*
X17244286Y-5964286D01*
X17272857Y-5964286D01*
X17284286Y-5958571D01*
X17290000Y-5952857D01*
X17295715Y-5941429D01*
X17295715Y-5930000D01*
X17290000Y-5918571D01*
X17284286Y-5912857D01*
X17272857Y-5907143D01*
X17250000Y-5901429D01*
X17238572Y-5895714D01*
X17232857Y-5890000D01*
X17227143Y-5878571D01*
X17227143Y-5867143D01*
X17232857Y-5855714D01*
X17238572Y-5850000D01*
X17250000Y-5844286D01*
X17278572Y-5844286D01*
X17295715Y-5850000D01*
X17335715Y-5884286D02*
X17358572Y-5964286D01*
X17381429Y-5907143D01*
X17404286Y-5964286D01*
X17427143Y-5884286D01*
X17472857Y-5964286D02*
X17472857Y-5884286D01*
X17472857Y-5844286D02*
X17467143Y-5850000D01*
X17472857Y-5855714D01*
X17478572Y-5850000D01*
X17472857Y-5844286D01*
X17472857Y-5855714D01*
X17512857Y-5884286D02*
X17558572Y-5884286D01*
X17530000Y-5844286D02*
X17530000Y-5947143D01*
X17535715Y-5958571D01*
X17547143Y-5964286D01*
X17558572Y-5964286D01*
X17650000Y-5958571D02*
X17638572Y-5964286D01*
X17615715Y-5964286D01*
X17604286Y-5958571D01*
X17598572Y-5952857D01*
X17592857Y-5941429D01*
X17592857Y-5907143D01*
X17598572Y-5895714D01*
X17604286Y-5890000D01*
X17615715Y-5884286D01*
X17638572Y-5884286D01*
X17650000Y-5890000D01*
X17701429Y-5964286D02*
X17701429Y-5844286D01*
X17752857Y-5964286D02*
X17752857Y-5901429D01*
X17747143Y-5890000D01*
X17735714Y-5884286D01*
X17718572Y-5884286D01*
X17707143Y-5890000D01*
X17701429Y-5895714D01*
X17901429Y-5918571D02*
X17992857Y-5918571D01*
X17947143Y-5964286D02*
X17947143Y-5872857D01*
X18135714Y-5930000D02*
X18192857Y-5930000D01*
X18124286Y-5964286D02*
X18164286Y-5844286D01*
X18204286Y-5964286D01*
X18295714Y-5884286D02*
X18295714Y-5964286D01*
X18244286Y-5884286D02*
X18244286Y-5947143D01*
X18250000Y-5958571D01*
X18261429Y-5964286D01*
X18278572Y-5964286D01*
X18290000Y-5958571D01*
X18295714Y-5952857D01*
X18404286Y-5964286D02*
X18404286Y-5844286D01*
X18404286Y-5958571D02*
X18392857Y-5964286D01*
X18370000Y-5964286D01*
X18358572Y-5958571D01*
X18352857Y-5952857D01*
X18347143Y-5941429D01*
X18347143Y-5907143D01*
X18352857Y-5895714D01*
X18358572Y-5890000D01*
X18370000Y-5884286D01*
X18392857Y-5884286D01*
X18404286Y-5890000D01*
X18461429Y-5964286D02*
X18461429Y-5884286D01*
X18461429Y-5844286D02*
X18455714Y-5850000D01*
X18461429Y-5855714D01*
X18467143Y-5850000D01*
X18461429Y-5844286D01*
X18461429Y-5855714D01*
X18535714Y-5964286D02*
X18524286Y-5958571D01*
X18518572Y-5952857D01*
X18512857Y-5941429D01*
X18512857Y-5907143D01*
X18518572Y-5895714D01*
X18524286Y-5890000D01*
X18535714Y-5884286D01*
X18552857Y-5884286D01*
X18564286Y-5890000D01*
X18570000Y-5895714D01*
X18575714Y-5907143D01*
X18575714Y-5941429D01*
X18570000Y-5952857D01*
X18564286Y-5958571D01*
X18552857Y-5964286D01*
X18535714Y-5964286D01*
X18718572Y-5964286D02*
X18718572Y-5844286D01*
X18758572Y-5930000D01*
X18798572Y-5844286D01*
X18798572Y-5964286D01*
X18872857Y-5964286D02*
X18861429Y-5958571D01*
X18855714Y-5952857D01*
X18850000Y-5941429D01*
X18850000Y-5907143D01*
X18855714Y-5895714D01*
X18861429Y-5890000D01*
X18872857Y-5884286D01*
X18890000Y-5884286D01*
X18901429Y-5890000D01*
X18907143Y-5895714D01*
X18912857Y-5907143D01*
X18912857Y-5941429D01*
X18907143Y-5952857D01*
X18901429Y-5958571D01*
X18890000Y-5964286D01*
X18872857Y-5964286D01*
X18947143Y-5884286D02*
X18992857Y-5884286D01*
X18964286Y-5844286D02*
X18964286Y-5947143D01*
X18970000Y-5958571D01*
X18981429Y-5964286D01*
X18992857Y-5964286D01*
X19032857Y-5964286D02*
X19032857Y-5844286D01*
X19084286Y-5964286D02*
X19084286Y-5901429D01*
X19078572Y-5890000D01*
X19067143Y-5884286D01*
X19050000Y-5884286D01*
X19038572Y-5890000D01*
X19032857Y-5895714D01*
X19187143Y-5958571D02*
X19175714Y-5964286D01*
X19152857Y-5964286D01*
X19141429Y-5958571D01*
X19135714Y-5947143D01*
X19135714Y-5901429D01*
X19141429Y-5890000D01*
X19152857Y-5884286D01*
X19175714Y-5884286D01*
X19187143Y-5890000D01*
X19192857Y-5901429D01*
X19192857Y-5912857D01*
X19135714Y-5924286D01*
X19244286Y-5964286D02*
X19244286Y-5884286D01*
X19244286Y-5907143D02*
X19250000Y-5895714D01*
X19255714Y-5890000D01*
X19267143Y-5884286D01*
X19278571Y-5884286D01*
X19318571Y-5964286D02*
X19318571Y-5844286D01*
X19318571Y-5890000D02*
X19330000Y-5884286D01*
X19352857Y-5884286D01*
X19364286Y-5890000D01*
X19370000Y-5895714D01*
X19375714Y-5907143D01*
X19375714Y-5941429D01*
X19370000Y-5952857D01*
X19364286Y-5958571D01*
X19352857Y-5964286D01*
X19330000Y-5964286D01*
X19318571Y-5958571D01*
X19444286Y-5964286D02*
X19432857Y-5958571D01*
X19427143Y-5952857D01*
X19421429Y-5941429D01*
X19421429Y-5907143D01*
X19427143Y-5895714D01*
X19432857Y-5890000D01*
X19444286Y-5884286D01*
X19461429Y-5884286D01*
X19472857Y-5890000D01*
X19478571Y-5895714D01*
X19484286Y-5907143D01*
X19484286Y-5941429D01*
X19478571Y-5952857D01*
X19472857Y-5958571D01*
X19461429Y-5964286D01*
X19444286Y-5964286D01*
X19587143Y-5964286D02*
X19587143Y-5901429D01*
X19581429Y-5890000D01*
X19570000Y-5884286D01*
X19547143Y-5884286D01*
X19535714Y-5890000D01*
X19587143Y-5958571D02*
X19575714Y-5964286D01*
X19547143Y-5964286D01*
X19535714Y-5958571D01*
X19530000Y-5947143D01*
X19530000Y-5935714D01*
X19535714Y-5924286D01*
X19547143Y-5918571D01*
X19575714Y-5918571D01*
X19587143Y-5912857D01*
X19644286Y-5964286D02*
X19644286Y-5884286D01*
X19644286Y-5907143D02*
X19650000Y-5895714D01*
X19655714Y-5890000D01*
X19667143Y-5884286D01*
X19678571Y-5884286D01*
X19770000Y-5964286D02*
X19770000Y-5844286D01*
X19770000Y-5958571D02*
X19758571Y-5964286D01*
X19735714Y-5964286D01*
X19724286Y-5958571D01*
X19718571Y-5952857D01*
X19712857Y-5941429D01*
X19712857Y-5907143D01*
X19718571Y-5895714D01*
X19724286Y-5890000D01*
X19735714Y-5884286D01*
X19758571Y-5884286D01*
X19770000Y-5890000D01*
X19952857Y-6010000D02*
X19947143Y-6004286D01*
X19935714Y-5987143D01*
X19930000Y-5975714D01*
X19924286Y-5958571D01*
X19918571Y-5930000D01*
X19918571Y-5907143D01*
X19924286Y-5878571D01*
X19930000Y-5861429D01*
X19935714Y-5850000D01*
X19947143Y-5832857D01*
X19952857Y-5827143D01*
X19998571Y-5964286D02*
X19998571Y-5844286D01*
X20027143Y-5844286D01*
X20044286Y-5850000D01*
X20055714Y-5861429D01*
X20061429Y-5872857D01*
X20067143Y-5895714D01*
X20067143Y-5912857D01*
X20061429Y-5935714D01*
X20055714Y-5947143D01*
X20044286Y-5958571D01*
X20027143Y-5964286D01*
X19998571Y-5964286D01*
X20158571Y-5901429D02*
X20118571Y-5901429D01*
X20118571Y-5964286D02*
X20118571Y-5844286D01*
X20175714Y-5844286D01*
X20227143Y-5964286D02*
X20250000Y-5964286D01*
X20261428Y-5958571D01*
X20267143Y-5952857D01*
X20278571Y-5935714D01*
X20284286Y-5912857D01*
X20284286Y-5867143D01*
X20278571Y-5855714D01*
X20272857Y-5850000D01*
X20261428Y-5844286D01*
X20238571Y-5844286D01*
X20227143Y-5850000D01*
X20221428Y-5855714D01*
X20215714Y-5867143D01*
X20215714Y-5895714D01*
X20221428Y-5907143D01*
X20227143Y-5912857D01*
X20238571Y-5918571D01*
X20261428Y-5918571D01*
X20272857Y-5912857D01*
X20278571Y-5907143D01*
X20284286Y-5895714D01*
X20404286Y-5964286D02*
X20364286Y-5907143D01*
X20335714Y-5964286D02*
X20335714Y-5844286D01*
X20381428Y-5844286D01*
X20392857Y-5850000D01*
X20398571Y-5855714D01*
X20404286Y-5867143D01*
X20404286Y-5884286D01*
X20398571Y-5895714D01*
X20392857Y-5901429D01*
X20381428Y-5907143D01*
X20335714Y-5907143D01*
X20455714Y-5844286D02*
X20455714Y-5941429D01*
X20461428Y-5952857D01*
X20467143Y-5958571D01*
X20478571Y-5964286D01*
X20501428Y-5964286D01*
X20512857Y-5958571D01*
X20518571Y-5952857D01*
X20524286Y-5941429D01*
X20524286Y-5844286D01*
X20570000Y-6010000D02*
X20575714Y-6004286D01*
X20587143Y-5987143D01*
X20592857Y-5975714D01*
X20598571Y-5958571D01*
X20604286Y-5930000D01*
X20604286Y-5907143D01*
X20598571Y-5878571D01*
X20592857Y-5861429D01*
X20587143Y-5850000D01*
X20575714Y-5832857D01*
X20570000Y-5827143D01*
X20735714Y-5844286D02*
X20775714Y-5964286D01*
X20815714Y-5844286D01*
X20970000Y-5844286D02*
X20981428Y-5844286D01*
X20992857Y-5850000D01*
X20998571Y-5855714D01*
X21004286Y-5867143D01*
X21010000Y-5890000D01*
X21010000Y-5918571D01*
X21004286Y-5941429D01*
X20998571Y-5952857D01*
X20992857Y-5958571D01*
X20981428Y-5964286D01*
X20970000Y-5964286D01*
X20958571Y-5958571D01*
X20952857Y-5952857D01*
X20947143Y-5941429D01*
X20941428Y-5918571D01*
X20941428Y-5890000D01*
X20947143Y-5867143D01*
X20952857Y-5855714D01*
X20958571Y-5850000D01*
X20970000Y-5844286D01*
X21061428Y-5952857D02*
X21067143Y-5958571D01*
X21061428Y-5964286D01*
X21055714Y-5958571D01*
X21061428Y-5952857D01*
X21061428Y-5964286D01*
X21181429Y-5964286D02*
X21112857Y-5964286D01*
X21147143Y-5964286D02*
X21147143Y-5844286D01*
X21135714Y-5861429D01*
X21124286Y-5872857D01*
X21112857Y-5878571D01*
D10*
X13679048Y-9390000D02*
X13671429Y-9386191D01*
X13660000Y-9386191D01*
X13648571Y-9390000D01*
X13640952Y-9397619D01*
X13637143Y-9405238D01*
X13633333Y-9420476D01*
X13633333Y-9431905D01*
X13637143Y-9447143D01*
X13640952Y-9454762D01*
X13648571Y-9462381D01*
X13660000Y-9466191D01*
X13667619Y-9466191D01*
X13679048Y-9462381D01*
X13682857Y-9458571D01*
X13682857Y-9431905D01*
X13667619Y-9431905D01*
X13717143Y-9466191D02*
X13717143Y-9386191D01*
X13762857Y-9466191D01*
X13762857Y-9386191D01*
X13800952Y-9466191D02*
X13800952Y-9386191D01*
X13820000Y-9386191D01*
X13831429Y-9390000D01*
X13839048Y-9397619D01*
X13842857Y-9405238D01*
X13846667Y-9420476D01*
X13846667Y-9431905D01*
X13842857Y-9447143D01*
X13839048Y-9454762D01*
X13831429Y-9462381D01*
X13820000Y-9466191D01*
X13800952Y-9466191D01*
X14529048Y-9390000D02*
X14521429Y-9386191D01*
X14510000Y-9386191D01*
X14498571Y-9390000D01*
X14490952Y-9397619D01*
X14487143Y-9405238D01*
X14483333Y-9420476D01*
X14483333Y-9431905D01*
X14487143Y-9447143D01*
X14490952Y-9454762D01*
X14498571Y-9462381D01*
X14510000Y-9466191D01*
X14517619Y-9466191D01*
X14529048Y-9462381D01*
X14532857Y-9458571D01*
X14532857Y-9431905D01*
X14517619Y-9431905D01*
X14567143Y-9466191D02*
X14567143Y-9386191D01*
X14612857Y-9466191D01*
X14612857Y-9386191D01*
X14650952Y-9466191D02*
X14650952Y-9386191D01*
X14670000Y-9386191D01*
X14681429Y-9390000D01*
X14689048Y-9397619D01*
X14692857Y-9405238D01*
X14696667Y-9420476D01*
X14696667Y-9431905D01*
X14692857Y-9447143D01*
X14689048Y-9454762D01*
X14681429Y-9462381D01*
X14670000Y-9466191D01*
X14650952Y-9466191D01*
X15029048Y-9400000D02*
X15021429Y-9396191D01*
X15010000Y-9396191D01*
X14998571Y-9400000D01*
X14990952Y-9407619D01*
X14987143Y-9415238D01*
X14983333Y-9430476D01*
X14983333Y-9441905D01*
X14987143Y-9457143D01*
X14990952Y-9464762D01*
X14998571Y-9472381D01*
X15010000Y-9476191D01*
X15017619Y-9476191D01*
X15029048Y-9472381D01*
X15032857Y-9468571D01*
X15032857Y-9441905D01*
X15017619Y-9441905D01*
X15067143Y-9476191D02*
X15067143Y-9396191D01*
X15112857Y-9476191D01*
X15112857Y-9396191D01*
X15150952Y-9476191D02*
X15150952Y-9396191D01*
X15170000Y-9396191D01*
X15181429Y-9400000D01*
X15189048Y-9407619D01*
X15192857Y-9415238D01*
X15196667Y-9430476D01*
X15196667Y-9441905D01*
X15192857Y-9457143D01*
X15189048Y-9464762D01*
X15181429Y-9472381D01*
X15170000Y-9476191D01*
X15150952Y-9476191D01*
X16489048Y-9390000D02*
X16481429Y-9386191D01*
X16470000Y-9386191D01*
X16458571Y-9390000D01*
X16450952Y-9397619D01*
X16447143Y-9405238D01*
X16443333Y-9420476D01*
X16443333Y-9431905D01*
X16447143Y-9447143D01*
X16450952Y-9454762D01*
X16458571Y-9462381D01*
X16470000Y-9466191D01*
X16477619Y-9466191D01*
X16489048Y-9462381D01*
X16492857Y-9458571D01*
X16492857Y-9431905D01*
X16477619Y-9431905D01*
X16527143Y-9466191D02*
X16527143Y-9386191D01*
X16572857Y-9466191D01*
X16572857Y-9386191D01*
X16610952Y-9466191D02*
X16610952Y-9386191D01*
X16630000Y-9386191D01*
X16641429Y-9390000D01*
X16649048Y-9397619D01*
X16652857Y-9405238D01*
X16656667Y-9420476D01*
X16656667Y-9431905D01*
X16652857Y-9447143D01*
X16649048Y-9454762D01*
X16641429Y-9462381D01*
X16630000Y-9466191D01*
X16610952Y-9466191D01*
X18269048Y-9380000D02*
X18261429Y-9376191D01*
X18250000Y-9376191D01*
X18238572Y-9380000D01*
X18230952Y-9387619D01*
X18227143Y-9395238D01*
X18223333Y-9410476D01*
X18223333Y-9421905D01*
X18227143Y-9437143D01*
X18230952Y-9444762D01*
X18238572Y-9452381D01*
X18250000Y-9456191D01*
X18257619Y-9456191D01*
X18269048Y-9452381D01*
X18272857Y-9448571D01*
X18272857Y-9421905D01*
X18257619Y-9421905D01*
X18307143Y-9456191D02*
X18307143Y-9376191D01*
X18352857Y-9456191D01*
X18352857Y-9376191D01*
X18390952Y-9456191D02*
X18390952Y-9376191D01*
X18410000Y-9376191D01*
X18421429Y-9380000D01*
X18429048Y-9387619D01*
X18432857Y-9395238D01*
X18436667Y-9410476D01*
X18436667Y-9421905D01*
X18432857Y-9437143D01*
X18429048Y-9444762D01*
X18421429Y-9452381D01*
X18410000Y-9456191D01*
X18390952Y-9456191D01*
X18999048Y-9380000D02*
X18991429Y-9376191D01*
X18980000Y-9376191D01*
X18968572Y-9380000D01*
X18960952Y-9387619D01*
X18957143Y-9395238D01*
X18953333Y-9410476D01*
X18953333Y-9421905D01*
X18957143Y-9437143D01*
X18960952Y-9444762D01*
X18968572Y-9452381D01*
X18980000Y-9456191D01*
X18987619Y-9456191D01*
X18999048Y-9452381D01*
X19002857Y-9448571D01*
X19002857Y-9421905D01*
X18987619Y-9421905D01*
X19037143Y-9456191D02*
X19037143Y-9376191D01*
X19082857Y-9456191D01*
X19082857Y-9376191D01*
X19120952Y-9456191D02*
X19120952Y-9376191D01*
X19140000Y-9376191D01*
X19151429Y-9380000D01*
X19159048Y-9387619D01*
X19162857Y-9395238D01*
X19166667Y-9410476D01*
X19166667Y-9421905D01*
X19162857Y-9437143D01*
X19159048Y-9444762D01*
X19151429Y-9452381D01*
X19140000Y-9456191D01*
X19120952Y-9456191D01*
X21139048Y-9380000D02*
X21131429Y-9376191D01*
X21120000Y-9376191D01*
X21108572Y-9380000D01*
X21100952Y-9387619D01*
X21097143Y-9395238D01*
X21093333Y-9410476D01*
X21093333Y-9421905D01*
X21097143Y-9437143D01*
X21100952Y-9444762D01*
X21108572Y-9452381D01*
X21120000Y-9456191D01*
X21127619Y-9456191D01*
X21139048Y-9452381D01*
X21142857Y-9448571D01*
X21142857Y-9421905D01*
X21127619Y-9421905D01*
X21177143Y-9456191D02*
X21177143Y-9376191D01*
X21222857Y-9456191D01*
X21222857Y-9376191D01*
X21260952Y-9456191D02*
X21260952Y-9376191D01*
X21280000Y-9376191D01*
X21291429Y-9380000D01*
X21299048Y-9387619D01*
X21302857Y-9395238D01*
X21306667Y-9410476D01*
X21306667Y-9421905D01*
X21302857Y-9437143D01*
X21299048Y-9444762D01*
X21291429Y-9452381D01*
X21280000Y-9456191D01*
X21260952Y-9456191D01*
X20449048Y-9380000D02*
X20441429Y-9376191D01*
X20430000Y-9376191D01*
X20418572Y-9380000D01*
X20410952Y-9387619D01*
X20407143Y-9395238D01*
X20403333Y-9410476D01*
X20403333Y-9421905D01*
X20407143Y-9437143D01*
X20410952Y-9444762D01*
X20418572Y-9452381D01*
X20430000Y-9456191D01*
X20437619Y-9456191D01*
X20449048Y-9452381D01*
X20452857Y-9448571D01*
X20452857Y-9421905D01*
X20437619Y-9421905D01*
X20487143Y-9456191D02*
X20487143Y-9376191D01*
X20532857Y-9456191D01*
X20532857Y-9376191D01*
X20570952Y-9456191D02*
X20570952Y-9376191D01*
X20590000Y-9376191D01*
X20601429Y-9380000D01*
X20609048Y-9387619D01*
X20612857Y-9395238D01*
X20616667Y-9410476D01*
X20616667Y-9421905D01*
X20612857Y-9437143D01*
X20609048Y-9444762D01*
X20601429Y-9452381D01*
X20590000Y-9456191D01*
X20570952Y-9456191D01*
D11*
X14827143Y-8988095D02*
X14827143Y-8911905D01*
X14865238Y-8950000D02*
X14789048Y-8950000D01*
X14865238Y-8807143D02*
X14817619Y-8840476D01*
X14865238Y-8864286D02*
X14765238Y-8864286D01*
X14765238Y-8826190D01*
X14770000Y-8816667D01*
X14774762Y-8811905D01*
X14784286Y-8807143D01*
X14798571Y-8807143D01*
X14808095Y-8811905D01*
X14812857Y-8816667D01*
X14817619Y-8826190D01*
X14817619Y-8864286D01*
X14317143Y-8976191D02*
X14317143Y-8900000D01*
X14355238Y-8938095D02*
X14279048Y-8938095D01*
X14255238Y-8866667D02*
X14255238Y-8809524D01*
X14355238Y-8838095D02*
X14255238Y-8838095D01*
X13283809Y-8937143D02*
X13360000Y-8937143D01*
X13321905Y-8975238D02*
X13321905Y-8899048D01*
X13460000Y-8975238D02*
X13402857Y-8975238D01*
X13431428Y-8975238D02*
X13431428Y-8875238D01*
X13421905Y-8889524D01*
X13412381Y-8899048D01*
X13402857Y-8903810D01*
X13498095Y-8884762D02*
X13502857Y-8880000D01*
X13512381Y-8875238D01*
X13536190Y-8875238D01*
X13545714Y-8880000D01*
X13550476Y-8884762D01*
X13555238Y-8894286D01*
X13555238Y-8903810D01*
X13550476Y-8918095D01*
X13493333Y-8975238D01*
X13555238Y-8975238D01*
X13583809Y-8875238D02*
X13617143Y-8975238D01*
X13650476Y-8875238D01*
X12317143Y-8995238D02*
X12317143Y-8895238D01*
X12355238Y-8895238D01*
X12364762Y-8900000D01*
X12369524Y-8904762D01*
X12374286Y-8914286D01*
X12374286Y-8928571D01*
X12369524Y-8938095D01*
X12364762Y-8942857D01*
X12355238Y-8947619D01*
X12317143Y-8947619D01*
X12417143Y-8995238D02*
X12417143Y-8895238D01*
X12440952Y-8895238D01*
X12455238Y-8900000D01*
X12464762Y-8909524D01*
X12469524Y-8919048D01*
X12474286Y-8938095D01*
X12474286Y-8952381D01*
X12469524Y-8971429D01*
X12464762Y-8980952D01*
X12455238Y-8990476D01*
X12440952Y-8995238D01*
X12417143Y-8995238D01*
X12507619Y-8895238D02*
X12569524Y-8895238D01*
X12536190Y-8933333D01*
X12550476Y-8933333D01*
X12560000Y-8938095D01*
X12564762Y-8942857D01*
X12569524Y-8952381D01*
X12569524Y-8976191D01*
X12564762Y-8985714D01*
X12560000Y-8990476D01*
X12550476Y-8995238D01*
X12521905Y-8995238D01*
X12512381Y-8990476D01*
X12507619Y-8985714D01*
X12612381Y-8957143D02*
X12688571Y-8957143D01*
X12793333Y-8985714D02*
X12788571Y-8990476D01*
X12774286Y-8995238D01*
X12764762Y-8995238D01*
X12750476Y-8990476D01*
X12740952Y-8980952D01*
X12736190Y-8971429D01*
X12731429Y-8952381D01*
X12731429Y-8938095D01*
X12736190Y-8919048D01*
X12740952Y-8909524D01*
X12750476Y-8900000D01*
X12764762Y-8895238D01*
X12774286Y-8895238D01*
X12788571Y-8900000D01*
X12793333Y-8904762D01*
X12826667Y-8895238D02*
X12850476Y-8995238D01*
X12869524Y-8923810D01*
X12888571Y-8995238D01*
X12912381Y-8895238D01*
X16078095Y-8965238D02*
X16078095Y-8865238D01*
X16116190Y-8865238D01*
X16125714Y-8870000D01*
X16130476Y-8874762D01*
X16135238Y-8884286D01*
X16135238Y-8898571D01*
X16130476Y-8908095D01*
X16125714Y-8912857D01*
X16116190Y-8917619D01*
X16078095Y-8917619D01*
X16178095Y-8965238D02*
X16178095Y-8865238D01*
X16201905Y-8865238D01*
X16216190Y-8870000D01*
X16225714Y-8879524D01*
X16230476Y-8889048D01*
X16235238Y-8908095D01*
X16235238Y-8922381D01*
X16230476Y-8941429D01*
X16225714Y-8950952D01*
X16216190Y-8960476D01*
X16201905Y-8965238D01*
X16178095Y-8965238D01*
X16320952Y-8898571D02*
X16320952Y-8965238D01*
X16297143Y-8860476D02*
X16273333Y-8931905D01*
X16335238Y-8931905D01*
X16373333Y-8927143D02*
X16449524Y-8927143D01*
X16497143Y-8965238D02*
X16497143Y-8865238D01*
X16535238Y-8865238D01*
X16544762Y-8870000D01*
X16549524Y-8874762D01*
X16554286Y-8884286D01*
X16554286Y-8898571D01*
X16549524Y-8908095D01*
X16544762Y-8912857D01*
X16535238Y-8917619D01*
X16497143Y-8917619D01*
X16582857Y-8865238D02*
X16640000Y-8865238D01*
X16611428Y-8965238D02*
X16611428Y-8865238D01*
X16659048Y-8865238D02*
X16716190Y-8865238D01*
X16687619Y-8965238D02*
X16687619Y-8865238D01*
X18080000Y-8875238D02*
X18080000Y-8775238D01*
X18113333Y-8846667D01*
X18146667Y-8775238D01*
X18146667Y-8875238D01*
X18194286Y-8875238D02*
X18194286Y-8808571D01*
X18194286Y-8775238D02*
X18189524Y-8780000D01*
X18194286Y-8784762D01*
X18199048Y-8780000D01*
X18194286Y-8775238D01*
X18194286Y-8784762D01*
X18284762Y-8870476D02*
X18275238Y-8875238D01*
X18256190Y-8875238D01*
X18246667Y-8870476D01*
X18241905Y-8865714D01*
X18237143Y-8856191D01*
X18237143Y-8827619D01*
X18241905Y-8818095D01*
X18246667Y-8813333D01*
X18256190Y-8808571D01*
X18275238Y-8808571D01*
X18284762Y-8813333D01*
X18787619Y-8598571D02*
X18825714Y-8598571D01*
X18801905Y-8565238D02*
X18801905Y-8650952D01*
X18806667Y-8660476D01*
X18816190Y-8665238D01*
X18825714Y-8665238D01*
X18873333Y-8665238D02*
X18863810Y-8660476D01*
X18859048Y-8655714D01*
X18854286Y-8646191D01*
X18854286Y-8617619D01*
X18859048Y-8608095D01*
X18863810Y-8603333D01*
X18873333Y-8598571D01*
X18887619Y-8598571D01*
X18897143Y-8603333D01*
X18901905Y-8608095D01*
X18906667Y-8617619D01*
X18906667Y-8646191D01*
X18901905Y-8655714D01*
X18897143Y-8660476D01*
X18887619Y-8665238D01*
X18873333Y-8665238D01*
X18590000Y-8825238D02*
X18590000Y-8725238D01*
X18670952Y-8772857D02*
X18637619Y-8772857D01*
X18637619Y-8825238D02*
X18637619Y-8725238D01*
X18685238Y-8725238D01*
X18723333Y-8787143D02*
X18799524Y-8787143D01*
X18847143Y-8825238D02*
X18847143Y-8725238D01*
X18880476Y-8796667D01*
X18913810Y-8725238D01*
X18913810Y-8825238D01*
X18961429Y-8825238D02*
X18961429Y-8758571D01*
X18961429Y-8725238D02*
X18956667Y-8730000D01*
X18961429Y-8734762D01*
X18966190Y-8730000D01*
X18961429Y-8725238D01*
X18961429Y-8734762D01*
X18999524Y-8825238D02*
X19051905Y-8758571D01*
X18999524Y-8758571D02*
X19051905Y-8825238D01*
X19128095Y-8820476D02*
X19118571Y-8825238D01*
X19099524Y-8825238D01*
X19090000Y-8820476D01*
X19085238Y-8810952D01*
X19085238Y-8772857D01*
X19090000Y-8763333D01*
X19099524Y-8758571D01*
X19118571Y-8758571D01*
X19128095Y-8763333D01*
X19132857Y-8772857D01*
X19132857Y-8782381D01*
X19085238Y-8791905D01*
X19175714Y-8825238D02*
X19175714Y-8758571D01*
X19175714Y-8777619D02*
X19180476Y-8768095D01*
X19185238Y-8763333D01*
X19194762Y-8758571D01*
X19204286Y-8758571D01*
X18544762Y-8985238D02*
X18544762Y-8885238D01*
X18578095Y-8956667D01*
X18611429Y-8885238D01*
X18611429Y-8985238D01*
X18673333Y-8985238D02*
X18663810Y-8980476D01*
X18659048Y-8975714D01*
X18654286Y-8966191D01*
X18654286Y-8937619D01*
X18659048Y-8928095D01*
X18663810Y-8923333D01*
X18673333Y-8918571D01*
X18687619Y-8918571D01*
X18697143Y-8923333D01*
X18701905Y-8928095D01*
X18706667Y-8937619D01*
X18706667Y-8966191D01*
X18701905Y-8975714D01*
X18697143Y-8980476D01*
X18687619Y-8985238D01*
X18673333Y-8985238D01*
X18792381Y-8985238D02*
X18792381Y-8885238D01*
X18792381Y-8980476D02*
X18782857Y-8985238D01*
X18763810Y-8985238D01*
X18754286Y-8980476D01*
X18749524Y-8975714D01*
X18744762Y-8966191D01*
X18744762Y-8937619D01*
X18749524Y-8928095D01*
X18754286Y-8923333D01*
X18763810Y-8918571D01*
X18782857Y-8918571D01*
X18792381Y-8923333D01*
X18840000Y-8947143D02*
X18916191Y-8947143D01*
X18963810Y-8985238D02*
X18963810Y-8885238D01*
X18987619Y-8885238D01*
X19001905Y-8890000D01*
X19011429Y-8899524D01*
X19016191Y-8909048D01*
X19020952Y-8928095D01*
X19020952Y-8942381D01*
X19016191Y-8961429D01*
X19011429Y-8970952D01*
X19001905Y-8980476D01*
X18987619Y-8985238D01*
X18963810Y-8985238D01*
X19101905Y-8980476D02*
X19092381Y-8985238D01*
X19073333Y-8985238D01*
X19063810Y-8980476D01*
X19059048Y-8970952D01*
X19059048Y-8932857D01*
X19063810Y-8923333D01*
X19073333Y-8918571D01*
X19092381Y-8918571D01*
X19101905Y-8923333D01*
X19106667Y-8932857D01*
X19106667Y-8942381D01*
X19059048Y-8951905D01*
X19149524Y-8985238D02*
X19149524Y-8918571D01*
X19149524Y-8928095D02*
X19154286Y-8923333D01*
X19163810Y-8918571D01*
X19178095Y-8918571D01*
X19187619Y-8923333D01*
X19192381Y-8932857D01*
X19192381Y-8985238D01*
X19192381Y-8932857D02*
X19197143Y-8923333D01*
X19206667Y-8918571D01*
X19220952Y-8918571D01*
X19230476Y-8923333D01*
X19235238Y-8932857D01*
X19235238Y-8985238D01*
X20115238Y-8695238D02*
X20148571Y-8795238D01*
X20181905Y-8695238D01*
X20229524Y-8795238D02*
X20220000Y-8790476D01*
X20215238Y-8785714D01*
X20210476Y-8776191D01*
X20210476Y-8747619D01*
X20215238Y-8738095D01*
X20220000Y-8733333D01*
X20229524Y-8728571D01*
X20243810Y-8728571D01*
X20253333Y-8733333D01*
X20258095Y-8738095D01*
X20262857Y-8747619D01*
X20262857Y-8776191D01*
X20258095Y-8785714D01*
X20253333Y-8790476D01*
X20243810Y-8795238D01*
X20229524Y-8795238D01*
X20320000Y-8795238D02*
X20310476Y-8790476D01*
X20305714Y-8780952D01*
X20305714Y-8695238D01*
X20096191Y-8955238D02*
X20096191Y-8855238D01*
X20134286Y-8855238D01*
X20143810Y-8860000D01*
X20148572Y-8864762D01*
X20153333Y-8874286D01*
X20153333Y-8888571D01*
X20148572Y-8898095D01*
X20143810Y-8902857D01*
X20134286Y-8907619D01*
X20096191Y-8907619D01*
X20210476Y-8955238D02*
X20200952Y-8950476D01*
X20196191Y-8945714D01*
X20191429Y-8936191D01*
X20191429Y-8907619D01*
X20196191Y-8898095D01*
X20200952Y-8893333D01*
X20210476Y-8888571D01*
X20224762Y-8888571D01*
X20234286Y-8893333D01*
X20239048Y-8898095D01*
X20243810Y-8907619D01*
X20243810Y-8936191D01*
X20239048Y-8945714D01*
X20234286Y-8950476D01*
X20224762Y-8955238D01*
X20210476Y-8955238D01*
X20272381Y-8888571D02*
X20310476Y-8888571D01*
X20286667Y-8855238D02*
X20286667Y-8940952D01*
X20291429Y-8950476D01*
X20300952Y-8955238D01*
X20310476Y-8955238D01*
X20343810Y-8955238D02*
X20343810Y-8888571D01*
X20343810Y-8855238D02*
X20339048Y-8860000D01*
X20343810Y-8864762D01*
X20348572Y-8860000D01*
X20343810Y-8855238D01*
X20343810Y-8864762D01*
X20955714Y-8748571D02*
X20993810Y-8748571D01*
X20970000Y-8715238D02*
X20970000Y-8800952D01*
X20974762Y-8810476D01*
X20984286Y-8815238D01*
X20993810Y-8815238D01*
X21041429Y-8815238D02*
X21031905Y-8810476D01*
X21027143Y-8805714D01*
X21022381Y-8796191D01*
X21022381Y-8767619D01*
X21027143Y-8758095D01*
X21031905Y-8753333D01*
X21041429Y-8748571D01*
X21055714Y-8748571D01*
X21065238Y-8753333D01*
X21070000Y-8758095D01*
X21074762Y-8767619D01*
X21074762Y-8796191D01*
X21070000Y-8805714D01*
X21065238Y-8810476D01*
X21055714Y-8815238D01*
X21041429Y-8815238D01*
X20743810Y-8970476D02*
X20758095Y-8975238D01*
X20781905Y-8975238D01*
X20791429Y-8970476D01*
X20796191Y-8965714D01*
X20800952Y-8956191D01*
X20800952Y-8946667D01*
X20796191Y-8937143D01*
X20791429Y-8932381D01*
X20781905Y-8927619D01*
X20762857Y-8922857D01*
X20753333Y-8918095D01*
X20748571Y-8913333D01*
X20743810Y-8903810D01*
X20743810Y-8894286D01*
X20748571Y-8884762D01*
X20753333Y-8880000D01*
X20762857Y-8875238D01*
X20786667Y-8875238D01*
X20800952Y-8880000D01*
X20843810Y-8908571D02*
X20843810Y-9008571D01*
X20843810Y-8913333D02*
X20853333Y-8908571D01*
X20872381Y-8908571D01*
X20881905Y-8913333D01*
X20886667Y-8918095D01*
X20891429Y-8927619D01*
X20891429Y-8956191D01*
X20886667Y-8965714D01*
X20881905Y-8970476D01*
X20872381Y-8975238D01*
X20853333Y-8975238D01*
X20843810Y-8970476D01*
X20972381Y-8970476D02*
X20962857Y-8975238D01*
X20943810Y-8975238D01*
X20934286Y-8970476D01*
X20929524Y-8960952D01*
X20929524Y-8922857D01*
X20934286Y-8913333D01*
X20943810Y-8908571D01*
X20962857Y-8908571D01*
X20972381Y-8913333D01*
X20977143Y-8922857D01*
X20977143Y-8932381D01*
X20929524Y-8941905D01*
X21062857Y-8975238D02*
X21062857Y-8922857D01*
X21058095Y-8913333D01*
X21048572Y-8908571D01*
X21029524Y-8908571D01*
X21020000Y-8913333D01*
X21062857Y-8970476D02*
X21053333Y-8975238D01*
X21029524Y-8975238D01*
X21020000Y-8970476D01*
X21015238Y-8960952D01*
X21015238Y-8951429D01*
X21020000Y-8941905D01*
X21029524Y-8937143D01*
X21053333Y-8937143D01*
X21062857Y-8932381D01*
X21110476Y-8975238D02*
X21110476Y-8875238D01*
X21120000Y-8937143D02*
X21148572Y-8975238D01*
X21148572Y-8908571D02*
X21110476Y-8946667D01*
X21229524Y-8970476D02*
X21220000Y-8975238D01*
X21200952Y-8975238D01*
X21191429Y-8970476D01*
X21186667Y-8960952D01*
X21186667Y-8922857D01*
X21191429Y-8913333D01*
X21200952Y-8908571D01*
X21220000Y-8908571D01*
X21229524Y-8913333D01*
X21234286Y-8922857D01*
X21234286Y-8932381D01*
X21186667Y-8941905D01*
X21277143Y-8975238D02*
X21277143Y-8908571D01*
X21277143Y-8927619D02*
X21281905Y-8918095D01*
X21286667Y-8913333D01*
X21296191Y-8908571D01*
X21305714Y-8908571D01*
D10*
X21050000Y-9073000D02*
X21050000Y-9327000D01*
X20796000Y-9073000D02*
X20796000Y-9327000D01*
X20796000Y-9327000D02*
X21050000Y-9327000D01*
X21050000Y-9327000D02*
X21304000Y-9327000D01*
X21304000Y-9327000D02*
X21304000Y-9073000D01*
X21304000Y-9073000D02*
X20796000Y-9073000D01*
X18900000Y-9073000D02*
X18900000Y-9327000D01*
X18646000Y-9073000D02*
X18646000Y-9327000D01*
X18646000Y-9327000D02*
X18900000Y-9327000D01*
X18900000Y-9327000D02*
X19154000Y-9327000D01*
X19154000Y-9327000D02*
X19154000Y-9073000D01*
X19154000Y-9073000D02*
X18646000Y-9073000D01*
X18200000Y-9073000D02*
X18200000Y-9327000D01*
X17946000Y-9073000D02*
X17946000Y-9327000D01*
X17946000Y-9327000D02*
X18200000Y-9327000D01*
X18200000Y-9327000D02*
X18454000Y-9327000D01*
X18454000Y-9327000D02*
X18454000Y-9073000D01*
X18454000Y-9073000D02*
X17946000Y-9073000D01*
X16400000Y-9073000D02*
X16400000Y-9327000D01*
X16146000Y-9073000D02*
X16146000Y-9327000D01*
X16146000Y-9327000D02*
X16400000Y-9327000D01*
X16400000Y-9327000D02*
X16654000Y-9327000D01*
X16654000Y-9327000D02*
X16654000Y-9073000D01*
X16654000Y-9073000D02*
X16146000Y-9073000D01*
X13730000Y-9073000D02*
X13730000Y-9327000D01*
X13476000Y-9073000D02*
X13476000Y-9327000D01*
X13476000Y-9327000D02*
X13730000Y-9327000D01*
X13730000Y-9327000D02*
X13984000Y-9327000D01*
X13984000Y-9327000D02*
X13984000Y-9073000D01*
X13984000Y-9073000D02*
X13476000Y-9073000D01*
X13030000Y-9083000D02*
X13030000Y-9337000D01*
X12776000Y-9083000D02*
X12776000Y-9337000D01*
X12776000Y-9337000D02*
X13030000Y-9337000D01*
X13030000Y-9337000D02*
X13284000Y-9337000D01*
X13284000Y-9337000D02*
X13284000Y-9083000D01*
X13284000Y-9083000D02*
X12776000Y-9083000D01*
D13*
X22018600Y-5920000D02*
G75*
G03X22018600Y-5920000I-228600J0D01*
G01*
X12638600Y-9290000D02*
G75*
G03X12638600Y-9290000I-228600J0D01*
G01*
X22028600Y-9300000D02*
G75*
G03X22028600Y-9300000I-228600J0D01*
G01*
X12628600Y-5900000D02*
G75*
G03X12628600Y-5900000I-228600J0D01*
G01*
D10*
X14255600Y-6501600D02*
X13544400Y-6501600D01*
X13544400Y-6501600D02*
X13544400Y-6298400D01*
X13544400Y-6298400D02*
X14255600Y-6298400D01*
X14255600Y-6298400D02*
X14255600Y-6501600D01*
X14255600Y-6450800D02*
X14204800Y-6501600D01*
X13301600Y-5744400D02*
X13301600Y-6455600D01*
X13301600Y-6455600D02*
X13098400Y-6455600D01*
X13098400Y-6455600D02*
X13098400Y-5744400D01*
X13098400Y-5744400D02*
X13301600Y-5744400D01*
X13250800Y-5744400D02*
X13301600Y-5795200D01*
X13719000Y-5900000D02*
X13592000Y-5900000D01*
X14481000Y-5900000D02*
X14608000Y-5900000D01*
X14481000Y-5900000D02*
X14404800Y-5900000D01*
X14404800Y-5900000D02*
X14404800Y-5798400D01*
X14404800Y-5798400D02*
X13795200Y-5798400D01*
X13795200Y-5798400D02*
X13795200Y-5900000D01*
X13795200Y-5900000D02*
X13719000Y-5900000D01*
X13795200Y-5900000D02*
X13795200Y-6001600D01*
X13795200Y-6001600D02*
X14404800Y-6001600D01*
X14404800Y-6001600D02*
X14404800Y-5900000D01*
X14354000Y-5798400D02*
X14354000Y-6001600D01*
X14328600Y-6001600D02*
X14328600Y-5798400D01*
X15473000Y-8489000D02*
X15473000Y-6457000D01*
X15473000Y-6457000D02*
X15727000Y-6457000D01*
X15727000Y-6457000D02*
X15727000Y-8489000D01*
X15473000Y-8743000D02*
X15473000Y-8489000D01*
X15473000Y-8489000D02*
X15727000Y-8489000D01*
X15473000Y-8743000D02*
X15727000Y-8743000D01*
X15727000Y-8743000D02*
X15727000Y-8489000D01*
X17473000Y-8489000D02*
X17473000Y-6457000D01*
X17473000Y-6457000D02*
X17727000Y-6457000D01*
X17727000Y-6457000D02*
X17727000Y-8489000D01*
X17473000Y-8743000D02*
X17473000Y-8489000D01*
X17473000Y-8489000D02*
X17727000Y-8489000D01*
X17473000Y-8743000D02*
X17727000Y-8743000D01*
X17727000Y-8743000D02*
X17727000Y-8489000D01*
X14446000Y-9327000D02*
X15208000Y-9327000D01*
X14446000Y-9073000D02*
X15208000Y-9073000D01*
X14192000Y-9073000D02*
X14446000Y-9073000D01*
X15208000Y-9327000D02*
X15208000Y-9073000D01*
X14446000Y-9073000D02*
X14446000Y-9327000D01*
X14192000Y-9073000D02*
X14192000Y-9327000D01*
X14192000Y-9327000D02*
X14446000Y-9327000D01*
X19473000Y-8489000D02*
X19473000Y-6457000D01*
X19473000Y-6457000D02*
X19727000Y-6457000D01*
X19727000Y-6457000D02*
X19727000Y-8489000D01*
X19473000Y-8743000D02*
X19473000Y-8489000D01*
X19473000Y-8489000D02*
X19727000Y-8489000D01*
X19473000Y-8743000D02*
X19727000Y-8743000D01*
X19727000Y-8743000D02*
X19727000Y-8489000D01*
X21473000Y-8489000D02*
X21473000Y-6457000D01*
X21473000Y-6457000D02*
X21727000Y-6457000D01*
X21727000Y-6457000D02*
X21727000Y-8489000D01*
X21473000Y-8743000D02*
X21473000Y-8489000D01*
X21473000Y-8489000D02*
X21727000Y-8489000D01*
X21473000Y-8743000D02*
X21727000Y-8743000D01*
X21727000Y-8743000D02*
X21727000Y-8489000D01*
X12954000Y-7427000D02*
X12573000Y-7046000D01*
X12573000Y-7046000D02*
X12446000Y-7046000D01*
X12446000Y-7046000D02*
X12319000Y-7173000D01*
X12319000Y-7173000D02*
X12319000Y-7427000D01*
X12319000Y-7427000D02*
X12573000Y-7681000D01*
X12573000Y-7681000D02*
X12827000Y-7681000D01*
X12827000Y-7681000D02*
X12954000Y-7554000D01*
X12954000Y-7554000D02*
X12954000Y-7427000D01*
X12954000Y-6627000D02*
X12573000Y-6246000D01*
X12573000Y-6246000D02*
X12446000Y-6246000D01*
X12446000Y-6246000D02*
X12319000Y-6373000D01*
X12319000Y-6373000D02*
X12319000Y-6627000D01*
X12319000Y-6627000D02*
X12573000Y-6881000D01*
X12573000Y-6881000D02*
X12827000Y-6881000D01*
X12827000Y-6881000D02*
X12954000Y-6754000D01*
X12954000Y-6754000D02*
X12954000Y-6627000D01*
X12400000Y-7919000D02*
X12400000Y-7969800D01*
X12400000Y-8681000D02*
X12400000Y-8630200D01*
X12400000Y-8630200D02*
X12501600Y-8630200D01*
X12501600Y-8630200D02*
X12501600Y-7969800D01*
X12501600Y-7969800D02*
X12298400Y-7969800D01*
X12298400Y-7969800D02*
X12298400Y-8630200D01*
X12298400Y-8630200D02*
X12400000Y-8630200D01*
X12450800Y-7969800D02*
X12501600Y-8020600D01*
X12800000Y-7919000D02*
X12800000Y-7969800D01*
X12800000Y-8681000D02*
X12800000Y-8630200D01*
X12800000Y-8630200D02*
X12901600Y-8630200D01*
X12901600Y-8630200D02*
X12901600Y-7969800D01*
X12901600Y-7969800D02*
X12698400Y-7969800D01*
X12698400Y-7969800D02*
X12698400Y-8630200D01*
X12698400Y-8630200D02*
X12800000Y-8630200D01*
X12850800Y-7969800D02*
X12901600Y-8020600D01*
D13*
X13977800Y-6658600D02*
X13977800Y-6811000D01*
X13977800Y-6811000D02*
X13622200Y-6811000D01*
X13622200Y-6811000D02*
X13622200Y-6658600D01*
D14*
X14301650Y-8696950D02*
X14301650Y-6652250D01*
X13298350Y-8696950D02*
X13298350Y-6652250D01*
X13298350Y-6652250D02*
X14301650Y-6652250D01*
X13298350Y-8696950D02*
X13298350Y-6652250D01*
X14301650Y-8696950D02*
X14301650Y-6652250D01*
X13298350Y-8696950D02*
X14301650Y-8696950D01*
D10*
X20043000Y-9327000D02*
X20551000Y-9327000D01*
X20551000Y-9327000D02*
X20551000Y-9073000D01*
X20551000Y-9073000D02*
X20043000Y-9073000D01*
X19789000Y-9073000D02*
X20043000Y-9073000D01*
X20043000Y-9073000D02*
X20043000Y-9327000D01*
X19789000Y-9073000D02*
X19789000Y-9327000D01*
X19789000Y-9327000D02*
X20043000Y-9327000D01*
X21455238Y-9321429D02*
X21355238Y-9321429D01*
X21355238Y-9283333D01*
X21360000Y-9273810D01*
X21364762Y-9269048D01*
X21374286Y-9264286D01*
X21388571Y-9264286D01*
X21398095Y-9269048D01*
X21402857Y-9273810D01*
X21407619Y-9283333D01*
X21407619Y-9321429D01*
X21455238Y-9169048D02*
X21455238Y-9226191D01*
X21455238Y-9197619D02*
X21355238Y-9197619D01*
X21369524Y-9207143D01*
X21379048Y-9216667D01*
X21383810Y-9226191D01*
X21355238Y-9107143D02*
X21355238Y-9097619D01*
X21360000Y-9088095D01*
X21364762Y-9083333D01*
X21374286Y-9078571D01*
X21393333Y-9073810D01*
X21417143Y-9073810D01*
X21436191Y-9078571D01*
X21445714Y-9083333D01*
X21450476Y-9088095D01*
X21455238Y-9097619D01*
X21455238Y-9107143D01*
X21450476Y-9116667D01*
X21445714Y-9121429D01*
X21436191Y-9126191D01*
X21417143Y-9130952D01*
X21393333Y-9130952D01*
X21374286Y-9126191D01*
X21364762Y-9121429D01*
X21360000Y-9116667D01*
X21355238Y-9107143D01*
X19295238Y-9273810D02*
X19195238Y-9273810D01*
X19195238Y-9235714D01*
X19200000Y-9226190D01*
X19204762Y-9221429D01*
X19214286Y-9216667D01*
X19228571Y-9216667D01*
X19238095Y-9221429D01*
X19242857Y-9226190D01*
X19247619Y-9235714D01*
X19247619Y-9273810D01*
X19238095Y-9159524D02*
X19233333Y-9169048D01*
X19228571Y-9173810D01*
X19219048Y-9178571D01*
X19214286Y-9178571D01*
X19204762Y-9173810D01*
X19200000Y-9169048D01*
X19195238Y-9159524D01*
X19195238Y-9140476D01*
X19200000Y-9130952D01*
X19204762Y-9126190D01*
X19214286Y-9121429D01*
X19219048Y-9121429D01*
X19228571Y-9126190D01*
X19233333Y-9130952D01*
X19238095Y-9140476D01*
X19238095Y-9159524D01*
X19242857Y-9169048D01*
X19247619Y-9173810D01*
X19257143Y-9178571D01*
X19276191Y-9178571D01*
X19285714Y-9173810D01*
X19290476Y-9169048D01*
X19295238Y-9159524D01*
X19295238Y-9140476D01*
X19290476Y-9130952D01*
X19285714Y-9126190D01*
X19276191Y-9121429D01*
X19257143Y-9121429D01*
X19247619Y-9126190D01*
X19242857Y-9130952D01*
X19238095Y-9140476D01*
X17875238Y-9273810D02*
X17775238Y-9273810D01*
X17775238Y-9235714D01*
X17780000Y-9226190D01*
X17784762Y-9221429D01*
X17794286Y-9216667D01*
X17808571Y-9216667D01*
X17818095Y-9221429D01*
X17822857Y-9226190D01*
X17827619Y-9235714D01*
X17827619Y-9273810D01*
X17775238Y-9126190D02*
X17775238Y-9173810D01*
X17822857Y-9178571D01*
X17818095Y-9173810D01*
X17813333Y-9164286D01*
X17813333Y-9140476D01*
X17818095Y-9130952D01*
X17822857Y-9126190D01*
X17832381Y-9121429D01*
X17856191Y-9121429D01*
X17865714Y-9126190D01*
X17870476Y-9130952D01*
X17875238Y-9140476D01*
X17875238Y-9164286D01*
X17870476Y-9173810D01*
X17865714Y-9178571D01*
X16815238Y-9263810D02*
X16715238Y-9263810D01*
X16715238Y-9225714D01*
X16720000Y-9216190D01*
X16724762Y-9211429D01*
X16734286Y-9206667D01*
X16748571Y-9206667D01*
X16758095Y-9211429D01*
X16762857Y-9216190D01*
X16767619Y-9225714D01*
X16767619Y-9263810D01*
X16715238Y-9173333D02*
X16715238Y-9111429D01*
X16753333Y-9144762D01*
X16753333Y-9130476D01*
X16758095Y-9120952D01*
X16762857Y-9116190D01*
X16772381Y-9111429D01*
X16796191Y-9111429D01*
X16805714Y-9116190D01*
X16810476Y-9120952D01*
X16815238Y-9130476D01*
X16815238Y-9159048D01*
X16810476Y-9168571D01*
X16805714Y-9173333D01*
X14145238Y-9273810D02*
X14045238Y-9273810D01*
X14045238Y-9235714D01*
X14050000Y-9226190D01*
X14054762Y-9221429D01*
X14064286Y-9216667D01*
X14078571Y-9216667D01*
X14088095Y-9221429D01*
X14092857Y-9226190D01*
X14097619Y-9235714D01*
X14097619Y-9273810D01*
X14145238Y-9121429D02*
X14145238Y-9178571D01*
X14145238Y-9150000D02*
X14045238Y-9150000D01*
X14059524Y-9159524D01*
X14069048Y-9169048D01*
X14073809Y-9178571D01*
X12976190Y-9515238D02*
X12976190Y-9415238D01*
X13014286Y-9415238D01*
X13023810Y-9420000D01*
X13028571Y-9424762D01*
X13033333Y-9434286D01*
X13033333Y-9448571D01*
X13028571Y-9458095D01*
X13023810Y-9462857D01*
X13014286Y-9467619D01*
X12976190Y-9467619D01*
X13071429Y-9424762D02*
X13076190Y-9420000D01*
X13085714Y-9415238D01*
X13109524Y-9415238D01*
X13119048Y-9420000D01*
X13123810Y-9424762D01*
X13128571Y-9434286D01*
X13128571Y-9443810D01*
X13123810Y-9458095D01*
X13066667Y-9515238D01*
X13128571Y-9515238D01*
X13883333Y-6435714D02*
X13878571Y-6440476D01*
X13864286Y-6445238D01*
X13854762Y-6445238D01*
X13840476Y-6440476D01*
X13830952Y-6430952D01*
X13826190Y-6421429D01*
X13821429Y-6402381D01*
X13821429Y-6388095D01*
X13826190Y-6369048D01*
X13830952Y-6359524D01*
X13840476Y-6350000D01*
X13854762Y-6345238D01*
X13864286Y-6345238D01*
X13878571Y-6350000D01*
X13883333Y-6354762D01*
X13978571Y-6445238D02*
X13921429Y-6445238D01*
X13950000Y-6445238D02*
X13950000Y-6345238D01*
X13940476Y-6359524D01*
X13930952Y-6369048D01*
X13921429Y-6373809D01*
X13235714Y-6116667D02*
X13240476Y-6121428D01*
X13245238Y-6135714D01*
X13245238Y-6145238D01*
X13240476Y-6159524D01*
X13230952Y-6169048D01*
X13221429Y-6173809D01*
X13202381Y-6178571D01*
X13188095Y-6178571D01*
X13169048Y-6173809D01*
X13159524Y-6169048D01*
X13150000Y-6159524D01*
X13145238Y-6145238D01*
X13145238Y-6135714D01*
X13150000Y-6121428D01*
X13154762Y-6116667D01*
X13154762Y-6078571D02*
X13150000Y-6073809D01*
X13145238Y-6064286D01*
X13145238Y-6040476D01*
X13150000Y-6030952D01*
X13154762Y-6026190D01*
X13164286Y-6021428D01*
X13173809Y-6021428D01*
X13188095Y-6026190D01*
X13245238Y-6083333D01*
X13245238Y-6021428D01*
X14026190Y-5945238D02*
X14026190Y-5845238D01*
X14050000Y-5845238D01*
X14064286Y-5850000D01*
X14073810Y-5859524D01*
X14078571Y-5869048D01*
X14083333Y-5888095D01*
X14083333Y-5902381D01*
X14078571Y-5921429D01*
X14073810Y-5930952D01*
X14064286Y-5940476D01*
X14050000Y-5945238D01*
X14026190Y-5945238D01*
X14178571Y-5945238D02*
X14121429Y-5945238D01*
X14150000Y-5945238D02*
X14150000Y-5845238D01*
X14140476Y-5859524D01*
X14130952Y-5869048D01*
X14121429Y-5873809D01*
X15416638Y-7673809D02*
X15316638Y-7673809D01*
X15316638Y-7635714D01*
X15321400Y-7626190D01*
X15326162Y-7621428D01*
X15335686Y-7616667D01*
X15349971Y-7616667D01*
X15359495Y-7621428D01*
X15364257Y-7626190D01*
X15369019Y-7635714D01*
X15369019Y-7673809D01*
X15349971Y-7530952D02*
X15416638Y-7530952D01*
X15311876Y-7554762D02*
X15383305Y-7578571D01*
X15383305Y-7516667D01*
X17416638Y-7673809D02*
X17316638Y-7673809D01*
X17316638Y-7635714D01*
X17321400Y-7626190D01*
X17326162Y-7621428D01*
X17335686Y-7616667D01*
X17349971Y-7616667D01*
X17359495Y-7621428D01*
X17364257Y-7626190D01*
X17369019Y-7635714D01*
X17369019Y-7673809D01*
X17316638Y-7530952D02*
X17316638Y-7550000D01*
X17321400Y-7559524D01*
X17326162Y-7564286D01*
X17340448Y-7573809D01*
X17359495Y-7578571D01*
X17397591Y-7578571D01*
X17407114Y-7573809D01*
X17411876Y-7569048D01*
X17416638Y-7559524D01*
X17416638Y-7540476D01*
X17411876Y-7530952D01*
X17407114Y-7526190D01*
X17397591Y-7521428D01*
X17373781Y-7521428D01*
X17364257Y-7526190D01*
X17359495Y-7530952D01*
X17354733Y-7540476D01*
X17354733Y-7559524D01*
X17359495Y-7569048D01*
X17364257Y-7573809D01*
X17373781Y-7578571D01*
X15375238Y-9273810D02*
X15275238Y-9273810D01*
X15275238Y-9235714D01*
X15280000Y-9226190D01*
X15284762Y-9221429D01*
X15294286Y-9216667D01*
X15308571Y-9216667D01*
X15318095Y-9221429D01*
X15322857Y-9226190D01*
X15327619Y-9235714D01*
X15327619Y-9273810D01*
X15275238Y-9183333D02*
X15275238Y-9116667D01*
X15375238Y-9159524D01*
X19416638Y-7673809D02*
X19316638Y-7673809D01*
X19316638Y-7635714D01*
X19321400Y-7626190D01*
X19326162Y-7621428D01*
X19335686Y-7616667D01*
X19349971Y-7616667D01*
X19359495Y-7621428D01*
X19364257Y-7626190D01*
X19369019Y-7635714D01*
X19369019Y-7673809D01*
X19416638Y-7569048D02*
X19416638Y-7550000D01*
X19411876Y-7540476D01*
X19407114Y-7535714D01*
X19392829Y-7526190D01*
X19373781Y-7521428D01*
X19335686Y-7521428D01*
X19326162Y-7526190D01*
X19321400Y-7530952D01*
X19316638Y-7540476D01*
X19316638Y-7559524D01*
X19321400Y-7569048D01*
X19326162Y-7573809D01*
X19335686Y-7578571D01*
X19359495Y-7578571D01*
X19369019Y-7573809D01*
X19373781Y-7569048D01*
X19378543Y-7559524D01*
X19378543Y-7540476D01*
X19373781Y-7530952D01*
X19369019Y-7526190D01*
X19359495Y-7521428D01*
X21416638Y-7721429D02*
X21316638Y-7721429D01*
X21316638Y-7683333D01*
X21321400Y-7673809D01*
X21326162Y-7669048D01*
X21335686Y-7664286D01*
X21349971Y-7664286D01*
X21359495Y-7669048D01*
X21364257Y-7673809D01*
X21369019Y-7683333D01*
X21369019Y-7721429D01*
X21416638Y-7569048D02*
X21416638Y-7626190D01*
X21416638Y-7597619D02*
X21316638Y-7597619D01*
X21330924Y-7607143D01*
X21340448Y-7616667D01*
X21345210Y-7626190D01*
X21326162Y-7530952D02*
X21321400Y-7526190D01*
X21316638Y-7516667D01*
X21316638Y-7492857D01*
X21321400Y-7483333D01*
X21326162Y-7478571D01*
X21335686Y-7473809D01*
X21345210Y-7473809D01*
X21359495Y-7478571D01*
X21416638Y-7535714D01*
X21416638Y-7473809D01*
X13135762Y-7436524D02*
X13131000Y-7446048D01*
X13121476Y-7455571D01*
X13107190Y-7469857D01*
X13102429Y-7479381D01*
X13102429Y-7488905D01*
X13126238Y-7484143D02*
X13121476Y-7493667D01*
X13111952Y-7503190D01*
X13092905Y-7507952D01*
X13059571Y-7507952D01*
X13040524Y-7503190D01*
X13031000Y-7493667D01*
X13026238Y-7484143D01*
X13026238Y-7465095D01*
X13031000Y-7455571D01*
X13040524Y-7446048D01*
X13059571Y-7441286D01*
X13092905Y-7441286D01*
X13111952Y-7446048D01*
X13121476Y-7455571D01*
X13126238Y-7465095D01*
X13126238Y-7484143D01*
X13126238Y-7346048D02*
X13126238Y-7403190D01*
X13126238Y-7374619D02*
X13026238Y-7374619D01*
X13040524Y-7384143D01*
X13050048Y-7393667D01*
X13054809Y-7403190D01*
X12146762Y-7698429D02*
X12142000Y-7693667D01*
X12137238Y-7684143D01*
X12137238Y-7660333D01*
X12142000Y-7650809D01*
X12146762Y-7646048D01*
X12156286Y-7641286D01*
X12165809Y-7641286D01*
X12180095Y-7646048D01*
X12237238Y-7703190D01*
X12237238Y-7641286D01*
X12237238Y-7598429D02*
X12137238Y-7598429D01*
X12237238Y-7541286D01*
X12137238Y-7541286D01*
X12137238Y-7503190D02*
X12137238Y-7441286D01*
X12175333Y-7474619D01*
X12175333Y-7460333D01*
X12180095Y-7450809D01*
X12184857Y-7446048D01*
X12194381Y-7441286D01*
X12218190Y-7441286D01*
X12227714Y-7446048D01*
X12232476Y-7450809D01*
X12237238Y-7460333D01*
X12237238Y-7488905D01*
X12232476Y-7498429D01*
X12227714Y-7503190D01*
X12237238Y-7393667D02*
X12237238Y-7374619D01*
X12232476Y-7365095D01*
X12227714Y-7360333D01*
X12213429Y-7350809D01*
X12194381Y-7346048D01*
X12156286Y-7346048D01*
X12146762Y-7350809D01*
X12142000Y-7355571D01*
X12137238Y-7365095D01*
X12137238Y-7384143D01*
X12142000Y-7393667D01*
X12146762Y-7398429D01*
X12156286Y-7403190D01*
X12180095Y-7403190D01*
X12189619Y-7398429D01*
X12194381Y-7393667D01*
X12199143Y-7384143D01*
X12199143Y-7365095D01*
X12194381Y-7355571D01*
X12189619Y-7350809D01*
X12180095Y-7346048D01*
X12137238Y-7284143D02*
X12137238Y-7274619D01*
X12142000Y-7265095D01*
X12146762Y-7260333D01*
X12156286Y-7255571D01*
X12175333Y-7250809D01*
X12199143Y-7250809D01*
X12218190Y-7255571D01*
X12227714Y-7260333D01*
X12232476Y-7265095D01*
X12237238Y-7274619D01*
X12237238Y-7284143D01*
X12232476Y-7293667D01*
X12227714Y-7298429D01*
X12218190Y-7303190D01*
X12199143Y-7307952D01*
X12175333Y-7307952D01*
X12156286Y-7303190D01*
X12146762Y-7298429D01*
X12142000Y-7293667D01*
X12137238Y-7284143D01*
X12170571Y-7165095D02*
X12237238Y-7165095D01*
X12132476Y-7188905D02*
X12203905Y-7212714D01*
X12203905Y-7150809D01*
X13135762Y-6636524D02*
X13131000Y-6646048D01*
X13121476Y-6655571D01*
X13107190Y-6669857D01*
X13102429Y-6679381D01*
X13102429Y-6688905D01*
X13126238Y-6684143D02*
X13121476Y-6693667D01*
X13111952Y-6703190D01*
X13092905Y-6707952D01*
X13059571Y-6707952D01*
X13040524Y-6703190D01*
X13031000Y-6693667D01*
X13026238Y-6684143D01*
X13026238Y-6665095D01*
X13031000Y-6655571D01*
X13040524Y-6646048D01*
X13059571Y-6641286D01*
X13092905Y-6641286D01*
X13111952Y-6646048D01*
X13121476Y-6655571D01*
X13126238Y-6665095D01*
X13126238Y-6684143D01*
X13035762Y-6603190D02*
X13031000Y-6598429D01*
X13026238Y-6588905D01*
X13026238Y-6565095D01*
X13031000Y-6555571D01*
X13035762Y-6550809D01*
X13045286Y-6546048D01*
X13054809Y-6546048D01*
X13069095Y-6550809D01*
X13126238Y-6607952D01*
X13126238Y-6546048D01*
X12146762Y-6898429D02*
X12142000Y-6893667D01*
X12137238Y-6884143D01*
X12137238Y-6860333D01*
X12142000Y-6850809D01*
X12146762Y-6846048D01*
X12156286Y-6841286D01*
X12165809Y-6841286D01*
X12180095Y-6846048D01*
X12237238Y-6903190D01*
X12237238Y-6841286D01*
X12237238Y-6798429D02*
X12137238Y-6798429D01*
X12237238Y-6741286D01*
X12137238Y-6741286D01*
X12137238Y-6703190D02*
X12137238Y-6641286D01*
X12175333Y-6674619D01*
X12175333Y-6660333D01*
X12180095Y-6650809D01*
X12184857Y-6646048D01*
X12194381Y-6641286D01*
X12218190Y-6641286D01*
X12227714Y-6646048D01*
X12232476Y-6650809D01*
X12237238Y-6660333D01*
X12237238Y-6688905D01*
X12232476Y-6698429D01*
X12227714Y-6703190D01*
X12237238Y-6593667D02*
X12237238Y-6574619D01*
X12232476Y-6565095D01*
X12227714Y-6560333D01*
X12213429Y-6550809D01*
X12194381Y-6546048D01*
X12156286Y-6546048D01*
X12146762Y-6550809D01*
X12142000Y-6555571D01*
X12137238Y-6565095D01*
X12137238Y-6584143D01*
X12142000Y-6593667D01*
X12146762Y-6598429D01*
X12156286Y-6603190D01*
X12180095Y-6603190D01*
X12189619Y-6598429D01*
X12194381Y-6593667D01*
X12199143Y-6584143D01*
X12199143Y-6565095D01*
X12194381Y-6555571D01*
X12189619Y-6550809D01*
X12180095Y-6546048D01*
X12137238Y-6484143D02*
X12137238Y-6474619D01*
X12142000Y-6465095D01*
X12146762Y-6460333D01*
X12156286Y-6455571D01*
X12175333Y-6450809D01*
X12199143Y-6450809D01*
X12218190Y-6455571D01*
X12227714Y-6460333D01*
X12232476Y-6465095D01*
X12237238Y-6474619D01*
X12237238Y-6484143D01*
X12232476Y-6493667D01*
X12227714Y-6498429D01*
X12218190Y-6503190D01*
X12199143Y-6507952D01*
X12175333Y-6507952D01*
X12156286Y-6503190D01*
X12146762Y-6498429D01*
X12142000Y-6493667D01*
X12137238Y-6484143D01*
X12170571Y-6365095D02*
X12237238Y-6365095D01*
X12132476Y-6388905D02*
X12203905Y-6412714D01*
X12203905Y-6350809D01*
X12365871Y-8378571D02*
X12432538Y-8378571D01*
X12327776Y-8402381D02*
X12399205Y-8426191D01*
X12399205Y-8364286D01*
X12332538Y-8335714D02*
X12332538Y-8269048D01*
X12432538Y-8311905D01*
X12432538Y-8230952D02*
X12332538Y-8230952D01*
X12432538Y-8173809D02*
X12375395Y-8216667D01*
X12332538Y-8173809D02*
X12389681Y-8230952D01*
X12742062Y-8450000D02*
X12737300Y-8445238D01*
X12732538Y-8435714D01*
X12732538Y-8411905D01*
X12737300Y-8402381D01*
X12742062Y-8397619D01*
X12751586Y-8392857D01*
X12761109Y-8392857D01*
X12775395Y-8397619D01*
X12832538Y-8454762D01*
X12832538Y-8392857D01*
X12823014Y-8350000D02*
X12827776Y-8345238D01*
X12832538Y-8350000D01*
X12827776Y-8354762D01*
X12823014Y-8350000D01*
X12832538Y-8350000D01*
X12742062Y-8307143D02*
X12737300Y-8302381D01*
X12732538Y-8292857D01*
X12732538Y-8269048D01*
X12737300Y-8259524D01*
X12742062Y-8254762D01*
X12751586Y-8250000D01*
X12761109Y-8250000D01*
X12775395Y-8254762D01*
X12832538Y-8311905D01*
X12832538Y-8250000D01*
X12832538Y-8207143D02*
X12732538Y-8207143D01*
X12832538Y-8150000D02*
X12775395Y-8192857D01*
X12732538Y-8150000D02*
X12789681Y-8207143D01*
D15*
X13157743Y-7852400D02*
X13085171Y-7903200D01*
X13157743Y-7939486D02*
X13005343Y-7939486D01*
X13005343Y-7881428D01*
X13012600Y-7866914D01*
X13019857Y-7859657D01*
X13034371Y-7852400D01*
X13056143Y-7852400D01*
X13070657Y-7859657D01*
X13077914Y-7866914D01*
X13085171Y-7881428D01*
X13085171Y-7939486D01*
X13157743Y-7714514D02*
X13157743Y-7787086D01*
X13005343Y-7787086D01*
X13085171Y-7634686D02*
X13157743Y-7634686D01*
X13005343Y-7685486D02*
X13085171Y-7634686D01*
X13005343Y-7583886D01*
X13157743Y-7453257D02*
X13157743Y-7540343D01*
X13157743Y-7496800D02*
X13005343Y-7496800D01*
X13027114Y-7511314D01*
X13041629Y-7525828D01*
X13048886Y-7540343D01*
X14384200Y-7870543D02*
X14376943Y-7885057D01*
X14376943Y-7906829D01*
X14384200Y-7928600D01*
X14398714Y-7943114D01*
X14413229Y-7950371D01*
X14442257Y-7957629D01*
X14464029Y-7957629D01*
X14493057Y-7950371D01*
X14507571Y-7943114D01*
X14522086Y-7928600D01*
X14529343Y-7906829D01*
X14529343Y-7892314D01*
X14522086Y-7870543D01*
X14514829Y-7863286D01*
X14464029Y-7863286D01*
X14464029Y-7892314D01*
X14376943Y-7725400D02*
X14376943Y-7797971D01*
X14449514Y-7805229D01*
X14442257Y-7797971D01*
X14435000Y-7783457D01*
X14435000Y-7747171D01*
X14442257Y-7732657D01*
X14449514Y-7725400D01*
X14464029Y-7718143D01*
X14500314Y-7718143D01*
X14514829Y-7725400D01*
X14522086Y-7732657D01*
X14529343Y-7747171D01*
X14529343Y-7783457D01*
X14522086Y-7797971D01*
X14514829Y-7805229D01*
X14376943Y-7674600D02*
X14529343Y-7623800D01*
X14376943Y-7573000D01*
X14391457Y-7529457D02*
X14384200Y-7522200D01*
X14376943Y-7507686D01*
X14376943Y-7471400D01*
X14384200Y-7456886D01*
X14391457Y-7449629D01*
X14405971Y-7442371D01*
X14420486Y-7442371D01*
X14442257Y-7449629D01*
X14529343Y-7536714D01*
X14529343Y-7442371D01*
D10*
X19725238Y-9311429D02*
X19625238Y-9311429D01*
X19625238Y-9273333D01*
X19630000Y-9263810D01*
X19634762Y-9259048D01*
X19644286Y-9254286D01*
X19658571Y-9254286D01*
X19668095Y-9259048D01*
X19672857Y-9263810D01*
X19677619Y-9273333D01*
X19677619Y-9311429D01*
X19725238Y-9159048D02*
X19725238Y-9216191D01*
X19725238Y-9187619D02*
X19625238Y-9187619D01*
X19639524Y-9197143D01*
X19649048Y-9206667D01*
X19653810Y-9216191D01*
X19725238Y-9063810D02*
X19725238Y-9120952D01*
X19725238Y-9092381D02*
X19625238Y-9092381D01*
X19639524Y-9101905D01*
X19649048Y-9111429D01*
X19653810Y-9120952D01*
M02*
