G04 #@! TF.FileFunction,Copper,L2,Bot,Signal*
%FSLAX45Y45*%
G04 Gerber Fmt 4.5, Leading zero omitted, Abs format (unit mm)*
G04 Created by KiCad (PCBNEW (2015-01-25 BZR 5388)-product) date Mo 03 Aug 2015 14:20:38 CEST*
%MOMM*%
G01*
G04 APERTURE LIST*
%ADD10C,0.150000*%
%ADD11R,1.800000X2.032000*%
%ADD12O,2.032000X2.032000*%
%ADD13C,5.001260*%
%ADD14C,1.397000*%
%ADD15R,1.524000X1.524000*%
%ADD16C,1.524000*%
%ADD17R,2.032000X1.727200*%
%ADD18O,2.032000X1.727200*%
%ADD19R,1.727200X2.032000*%
%ADD20O,1.727200X2.032000*%
%ADD21R,1.397000X1.397000*%
%ADD22C,1.798320*%
%ADD23C,0.508000*%
%ADD24C,0.254000*%
G04 APERTURE END LIST*
D10*
D11*
X20923000Y-9200000D03*
D12*
X21177000Y-9200000D03*
D11*
X18773000Y-9200000D03*
D12*
X19027000Y-9200000D03*
D11*
X18073000Y-9200000D03*
D12*
X18327000Y-9200000D03*
D11*
X16273000Y-9200000D03*
D12*
X16527000Y-9200000D03*
D11*
X13603000Y-9200000D03*
D12*
X13857000Y-9200000D03*
D11*
X12903000Y-9210000D03*
D12*
X13157000Y-9210000D03*
D13*
X21790000Y-5920000D03*
X12410000Y-9290000D03*
X21800000Y-9300000D03*
X12400000Y-5900000D03*
D14*
X14154000Y-6400000D03*
X13646000Y-6400000D03*
X13200000Y-5846000D03*
X13200000Y-6354000D03*
D15*
X14608000Y-5900000D03*
D16*
X13592000Y-5900000D03*
D17*
X15600000Y-8616000D03*
D18*
X15600000Y-8362000D03*
X15600000Y-8108000D03*
X15600000Y-7854000D03*
X15600000Y-7600000D03*
X15600000Y-7346000D03*
X15600000Y-7092000D03*
X15600000Y-6838000D03*
X15600000Y-6584000D03*
D17*
X17600000Y-8616000D03*
D18*
X17600000Y-8362000D03*
X17600000Y-8108000D03*
X17600000Y-7854000D03*
X17600000Y-7600000D03*
X17600000Y-7346000D03*
X17600000Y-7092000D03*
X17600000Y-6838000D03*
X17600000Y-6584000D03*
D19*
X14319000Y-9200000D03*
D20*
X14573000Y-9200000D03*
X14827000Y-9200000D03*
X15081000Y-9200000D03*
D17*
X19600000Y-8616000D03*
D18*
X19600000Y-8362000D03*
X19600000Y-8108000D03*
X19600000Y-7854000D03*
X19600000Y-7600000D03*
X19600000Y-7346000D03*
X19600000Y-7092000D03*
X19600000Y-6838000D03*
X19600000Y-6584000D03*
D17*
X21600000Y-8616000D03*
D18*
X21600000Y-8362000D03*
X21600000Y-8108000D03*
X21600000Y-7854000D03*
X21600000Y-7600000D03*
X21600000Y-7346000D03*
X21600000Y-7092000D03*
X21600000Y-6838000D03*
X21600000Y-6584000D03*
D21*
X12827000Y-7427000D03*
D14*
X12573000Y-7427000D03*
X12573000Y-7173000D03*
D21*
X12827000Y-6627000D03*
D14*
X12573000Y-6627000D03*
X12573000Y-6373000D03*
X12400000Y-7919000D03*
X12400000Y-8681000D03*
X12800000Y-7919000D03*
X12800000Y-8681000D03*
D22*
X14181000Y-8563600D03*
X14181000Y-8055600D03*
X14181000Y-7547600D03*
X13419000Y-8563600D03*
X13419000Y-8055600D03*
X13419000Y-7547600D03*
X14181000Y-6785600D03*
X13419000Y-6785600D03*
D19*
X19916000Y-9200000D03*
D20*
X20170000Y-9200000D03*
X20424000Y-9200000D03*
D23*
X13592000Y-5900000D02*
X13592000Y-5968000D01*
X13592000Y-5968000D02*
X13419000Y-6141000D01*
X13419000Y-6141000D02*
X13419000Y-6785600D01*
X13200000Y-5846000D02*
X13538000Y-5846000D01*
X13538000Y-5846000D02*
X13592000Y-5900000D01*
X12573000Y-6373000D02*
X12673000Y-6373000D01*
X12673000Y-6373000D02*
X13200000Y-5846000D01*
X13603000Y-9200000D02*
X13603000Y-9283000D01*
X13603000Y-9283000D02*
X13750000Y-9430000D01*
X15600000Y-9130000D02*
X15600000Y-8616000D01*
X15300000Y-9430000D02*
X15600000Y-9130000D01*
X13750000Y-9430000D02*
X15300000Y-9430000D01*
X19600000Y-8616000D02*
X19600000Y-8660000D01*
X19600000Y-8660000D02*
X19800000Y-8860000D01*
X21356000Y-8860000D02*
X21600000Y-8616000D01*
X19800000Y-8860000D02*
X21356000Y-8860000D01*
X15600000Y-8616000D02*
X15656000Y-8616000D01*
X15656000Y-8616000D02*
X15880000Y-8840000D01*
X19376000Y-8840000D02*
X19600000Y-8616000D01*
X15880000Y-8840000D02*
X19376000Y-8840000D01*
X12800000Y-8681000D02*
X12800000Y-8800000D01*
X13363000Y-8960000D02*
X13603000Y-9200000D01*
X12960000Y-8960000D02*
X13363000Y-8960000D01*
X12800000Y-8800000D02*
X12960000Y-8960000D01*
X13419000Y-7547600D02*
X13419000Y-7611000D01*
X13419000Y-7611000D02*
X13030000Y-8000000D01*
X13030000Y-8451000D02*
X13020500Y-8460500D01*
X13020500Y-8460500D02*
X12800000Y-8681000D01*
X13030000Y-8000000D02*
X13030000Y-8451000D01*
X14181000Y-6785600D02*
X13419000Y-7547600D01*
X14154000Y-6400000D02*
X14154000Y-6758600D01*
X14154000Y-6758600D02*
X14181000Y-6785600D01*
X14608000Y-5900000D02*
X14608000Y-5946000D01*
X14608000Y-5946000D02*
X14154000Y-6400000D01*
X16200000Y-9200000D02*
X16273000Y-9200000D01*
X14181000Y-8563600D02*
X14181000Y-8561000D01*
X13419000Y-8563600D02*
X13419000Y-8619000D01*
X13419000Y-8619000D02*
X13760000Y-8960000D01*
X13760000Y-8960000D02*
X14079000Y-8960000D01*
X14079000Y-8960000D02*
X14319000Y-9200000D01*
X14827000Y-9200000D02*
X14827000Y-9097000D01*
X14290000Y-8930000D02*
X13419000Y-8059000D01*
X14660000Y-8930000D02*
X14290000Y-8930000D01*
X14827000Y-9097000D02*
X14660000Y-8930000D01*
X13419000Y-8059000D02*
X13419000Y-8055600D01*
X12400000Y-7919000D02*
X12400000Y-7600000D01*
X12400000Y-7600000D02*
X12573000Y-7427000D01*
X12573000Y-7173000D02*
X12573000Y-6627000D01*
X12800000Y-7919000D02*
X12800000Y-7910000D01*
X12800000Y-7910000D02*
X13070000Y-7640000D01*
X13070000Y-7640000D02*
X13070000Y-7270000D01*
X13070000Y-7270000D02*
X12973000Y-7173000D01*
X12973000Y-7173000D02*
X12573000Y-7173000D01*
X14181000Y-7547600D02*
X14181000Y-7139000D01*
X21370000Y-7878000D02*
X21600000Y-8108000D01*
X21370000Y-6760000D02*
X21370000Y-7878000D01*
X20700000Y-6090000D02*
X21370000Y-6760000D01*
X15150000Y-6090000D02*
X20700000Y-6090000D01*
X14530000Y-6710000D02*
X15150000Y-6090000D01*
X14530000Y-6790000D02*
X14530000Y-6710000D01*
X14181000Y-7139000D02*
X14530000Y-6790000D01*
X12903000Y-9210000D02*
X12903000Y-9133000D01*
X12903000Y-9133000D02*
X12451000Y-8681000D01*
X12451000Y-8681000D02*
X12400000Y-8681000D01*
X14181000Y-8055600D02*
X14181000Y-7919000D01*
X19330000Y-7330000D02*
X19600000Y-7600000D01*
X19330000Y-6930000D02*
X19330000Y-7330000D01*
X18620000Y-6220000D02*
X19330000Y-6930000D01*
X15310000Y-6220000D02*
X18620000Y-6220000D01*
X14630000Y-6900000D02*
X15310000Y-6220000D01*
X14630000Y-7470000D02*
X14630000Y-6900000D01*
X14181000Y-7919000D02*
X14630000Y-7470000D01*
X14181000Y-8055600D02*
X14181000Y-8061000D01*
D24*
G36*
X14182636Y-9341100D02*
X13937762Y-9341100D01*
X13953838Y-9333719D01*
X13997638Y-9286482D01*
X14017597Y-9238294D01*
X14005684Y-9212700D01*
X13869700Y-9212700D01*
X13869700Y-9214700D01*
X13844300Y-9214700D01*
X13844300Y-9212700D01*
X13842300Y-9212700D01*
X13842300Y-9187300D01*
X13844300Y-9187300D01*
X13844300Y-9185300D01*
X13869700Y-9185300D01*
X13869700Y-9187300D01*
X14005684Y-9187300D01*
X14017597Y-9161706D01*
X13997638Y-9113518D01*
X13953838Y-9066281D01*
X13915982Y-9048900D01*
X14042176Y-9048900D01*
X14167896Y-9174620D01*
X14167896Y-9301600D01*
X14172594Y-9325812D01*
X14182636Y-9341100D01*
X14182636Y-9341100D01*
G37*
X14182636Y-9341100D02*
X13937762Y-9341100D01*
X13953838Y-9333719D01*
X13997638Y-9286482D01*
X14017597Y-9238294D01*
X14005684Y-9212700D01*
X13869700Y-9212700D01*
X13869700Y-9214700D01*
X13844300Y-9214700D01*
X13844300Y-9212700D01*
X13842300Y-9212700D01*
X13842300Y-9187300D01*
X13844300Y-9187300D01*
X13844300Y-9185300D01*
X13869700Y-9185300D01*
X13869700Y-9187300D01*
X14005684Y-9187300D01*
X14017597Y-9161706D01*
X13997638Y-9113518D01*
X13953838Y-9066281D01*
X13915982Y-9048900D01*
X14042176Y-9048900D01*
X14167896Y-9174620D01*
X14167896Y-9301600D01*
X14172594Y-9325812D01*
X14182636Y-9341100D01*
G36*
X14704531Y-9100255D02*
X14700354Y-9106507D01*
X14663204Y-9064927D01*
X14610479Y-9039529D01*
X14608903Y-9039264D01*
X14585700Y-9051378D01*
X14585700Y-9187300D01*
X14587700Y-9187300D01*
X14587700Y-9212700D01*
X14585700Y-9212700D01*
X14585700Y-9214700D01*
X14560300Y-9214700D01*
X14560300Y-9212700D01*
X14558300Y-9212700D01*
X14558300Y-9187300D01*
X14560300Y-9187300D01*
X14560300Y-9051378D01*
X14537097Y-9039264D01*
X14535521Y-9039529D01*
X14482796Y-9064927D01*
X14467033Y-9082570D01*
X14465406Y-9074188D01*
X14451427Y-9052907D01*
X14430324Y-9038662D01*
X14405360Y-9033656D01*
X14278380Y-9033656D01*
X14257074Y-9012351D01*
X14290000Y-9018900D01*
X14623176Y-9018900D01*
X14704531Y-9100255D01*
X14704531Y-9100255D01*
G37*
X14704531Y-9100255D02*
X14700354Y-9106507D01*
X14663204Y-9064927D01*
X14610479Y-9039529D01*
X14608903Y-9039264D01*
X14585700Y-9051378D01*
X14585700Y-9187300D01*
X14587700Y-9187300D01*
X14587700Y-9212700D01*
X14585700Y-9212700D01*
X14585700Y-9214700D01*
X14560300Y-9214700D01*
X14560300Y-9212700D01*
X14558300Y-9212700D01*
X14558300Y-9187300D01*
X14560300Y-9187300D01*
X14560300Y-9051378D01*
X14537097Y-9039264D01*
X14535521Y-9039529D01*
X14482796Y-9064927D01*
X14467033Y-9082570D01*
X14465406Y-9074188D01*
X14451427Y-9052907D01*
X14430324Y-9038662D01*
X14405360Y-9033656D01*
X14278380Y-9033656D01*
X14257074Y-9012351D01*
X14290000Y-9018900D01*
X14623176Y-9018900D01*
X14704531Y-9100255D01*
G36*
X22017450Y-9073997D02*
X21977851Y-9034329D01*
X21862645Y-8986492D01*
X21768335Y-8986409D01*
X21768335Y-8108000D01*
X21756927Y-8050651D01*
X21724442Y-8002033D01*
X21693493Y-7981354D01*
X21735073Y-7944204D01*
X21760471Y-7891479D01*
X21760736Y-7889903D01*
X21748622Y-7866700D01*
X21612700Y-7866700D01*
X21612700Y-7868700D01*
X21587300Y-7868700D01*
X21587300Y-7866700D01*
X21585300Y-7866700D01*
X21585300Y-7841300D01*
X21587300Y-7841300D01*
X21587300Y-7839300D01*
X21612700Y-7839300D01*
X21612700Y-7841300D01*
X21748622Y-7841300D01*
X21760736Y-7818097D01*
X21760471Y-7816521D01*
X21735073Y-7763796D01*
X21693493Y-7726646D01*
X21724442Y-7705967D01*
X21756927Y-7657349D01*
X21768335Y-7600000D01*
X21756927Y-7542651D01*
X21724442Y-7494033D01*
X21693493Y-7473354D01*
X21735073Y-7436204D01*
X21760471Y-7383479D01*
X21760736Y-7381903D01*
X21748622Y-7358700D01*
X21612700Y-7358700D01*
X21612700Y-7360700D01*
X21587300Y-7360700D01*
X21587300Y-7358700D01*
X21585300Y-7358700D01*
X21585300Y-7333300D01*
X21587300Y-7333300D01*
X21587300Y-7331300D01*
X21612700Y-7331300D01*
X21612700Y-7333300D01*
X21748622Y-7333300D01*
X21760736Y-7310097D01*
X21760471Y-7308521D01*
X21735073Y-7255796D01*
X21693493Y-7218646D01*
X21724442Y-7197967D01*
X21756927Y-7149349D01*
X21768335Y-7092000D01*
X21756927Y-7034651D01*
X21724442Y-6986033D01*
X21692963Y-6965000D01*
X21724442Y-6943967D01*
X21756927Y-6895349D01*
X21768335Y-6838000D01*
X21756927Y-6780651D01*
X21724442Y-6732033D01*
X21692963Y-6711000D01*
X21724442Y-6689967D01*
X21756927Y-6641349D01*
X21768335Y-6584000D01*
X21756927Y-6526651D01*
X21724442Y-6478033D01*
X21675823Y-6445547D01*
X21618475Y-6434140D01*
X21581526Y-6434140D01*
X21524177Y-6445547D01*
X21475559Y-6478033D01*
X21443073Y-6526651D01*
X21431666Y-6584000D01*
X21443073Y-6641349D01*
X21475559Y-6689967D01*
X21507037Y-6711000D01*
X21475559Y-6732033D01*
X21458435Y-6757661D01*
X21452133Y-6725979D01*
X21452133Y-6725979D01*
X21432862Y-6697138D01*
X20762862Y-6027138D01*
X20734021Y-6007867D01*
X20700000Y-6001100D01*
X15150000Y-6001100D01*
X15115979Y-6007867D01*
X15087138Y-6027138D01*
X14467138Y-6647138D01*
X14447867Y-6675979D01*
X14441100Y-6710000D01*
X14441100Y-6753176D01*
X14118138Y-7076138D01*
X14098867Y-7104979D01*
X14092100Y-7139000D01*
X14092100Y-7419571D01*
X14051016Y-7460583D01*
X14027611Y-7516950D01*
X14027557Y-7577982D01*
X14050864Y-7634390D01*
X14093983Y-7677584D01*
X14150350Y-7700989D01*
X14211382Y-7701043D01*
X14267790Y-7677736D01*
X14310984Y-7634617D01*
X14334389Y-7578250D01*
X14334443Y-7517218D01*
X14311136Y-7460810D01*
X14269900Y-7419503D01*
X14269900Y-7175824D01*
X14541100Y-6904624D01*
X14541100Y-7433176D01*
X14118138Y-7856138D01*
X14098867Y-7884979D01*
X14092100Y-7919000D01*
X14092100Y-7927571D01*
X14051016Y-7968583D01*
X14027611Y-8024950D01*
X14027557Y-8085982D01*
X14050864Y-8142390D01*
X14093983Y-8185584D01*
X14150350Y-8208989D01*
X14211382Y-8209043D01*
X14267790Y-8185736D01*
X14310984Y-8142617D01*
X14334389Y-8086250D01*
X14334443Y-8025218D01*
X14311136Y-7968810D01*
X14284048Y-7941675D01*
X14692862Y-7532862D01*
X14712133Y-7504021D01*
X14712133Y-7504020D01*
X14718900Y-7470000D01*
X14718900Y-6936824D01*
X15346824Y-6308900D01*
X18583176Y-6308900D01*
X19241100Y-6966824D01*
X19241100Y-7330000D01*
X19247867Y-7364021D01*
X19267138Y-7392862D01*
X19438735Y-7564459D01*
X19431666Y-7600000D01*
X19443073Y-7657349D01*
X19475559Y-7705967D01*
X19506507Y-7726646D01*
X19464927Y-7763796D01*
X19439529Y-7816521D01*
X19439264Y-7818097D01*
X19451378Y-7841300D01*
X19587300Y-7841300D01*
X19587300Y-7839300D01*
X19612700Y-7839300D01*
X19612700Y-7841300D01*
X19748622Y-7841300D01*
X19760736Y-7818097D01*
X19760471Y-7816521D01*
X19735073Y-7763796D01*
X19693493Y-7726646D01*
X19724442Y-7705967D01*
X19756927Y-7657349D01*
X19768335Y-7600000D01*
X19756927Y-7542651D01*
X19724442Y-7494033D01*
X19693493Y-7473354D01*
X19735073Y-7436204D01*
X19760471Y-7383479D01*
X19760736Y-7381903D01*
X19748622Y-7358700D01*
X19612700Y-7358700D01*
X19612700Y-7360700D01*
X19587300Y-7360700D01*
X19587300Y-7358700D01*
X19585300Y-7358700D01*
X19585300Y-7333300D01*
X19587300Y-7333300D01*
X19587300Y-7331300D01*
X19612700Y-7331300D01*
X19612700Y-7333300D01*
X19748622Y-7333300D01*
X19760736Y-7310097D01*
X19760471Y-7308521D01*
X19735073Y-7255796D01*
X19693493Y-7218646D01*
X19724442Y-7197967D01*
X19756927Y-7149349D01*
X19768335Y-7092000D01*
X19756927Y-7034651D01*
X19724442Y-6986033D01*
X19692963Y-6965000D01*
X19724442Y-6943967D01*
X19756927Y-6895349D01*
X19768335Y-6838000D01*
X19756927Y-6780651D01*
X19724442Y-6732033D01*
X19693493Y-6711354D01*
X19735073Y-6674204D01*
X19760471Y-6621479D01*
X19760736Y-6619903D01*
X19760736Y-6548097D01*
X19760471Y-6546521D01*
X19735073Y-6493796D01*
X19691432Y-6454805D01*
X19636191Y-6435482D01*
X19612700Y-6449908D01*
X19612700Y-6571300D01*
X19748622Y-6571300D01*
X19760736Y-6548097D01*
X19760736Y-6619903D01*
X19748622Y-6596700D01*
X19612700Y-6596700D01*
X19612700Y-6598700D01*
X19587300Y-6598700D01*
X19587300Y-6596700D01*
X19587300Y-6571300D01*
X19587300Y-6449908D01*
X19563809Y-6435482D01*
X19508568Y-6454805D01*
X19464927Y-6493796D01*
X19439529Y-6546521D01*
X19439264Y-6548097D01*
X19451378Y-6571300D01*
X19587300Y-6571300D01*
X19587300Y-6596700D01*
X19451378Y-6596700D01*
X19439264Y-6619903D01*
X19439529Y-6621479D01*
X19464927Y-6674204D01*
X19506507Y-6711354D01*
X19475559Y-6732033D01*
X19443073Y-6780651D01*
X19431666Y-6838000D01*
X19443073Y-6895349D01*
X19475559Y-6943967D01*
X19507037Y-6965000D01*
X19475559Y-6986033D01*
X19443073Y-7034651D01*
X19431666Y-7092000D01*
X19443073Y-7149349D01*
X19475559Y-7197967D01*
X19506507Y-7218646D01*
X19464927Y-7255796D01*
X19439529Y-7308521D01*
X19439264Y-7310097D01*
X19443026Y-7317302D01*
X19418900Y-7293176D01*
X19418900Y-6930000D01*
X19412133Y-6895979D01*
X19392862Y-6867138D01*
X18704624Y-6178900D01*
X20663176Y-6178900D01*
X21281100Y-6796824D01*
X21281100Y-7878000D01*
X21287867Y-7912021D01*
X21307138Y-7940862D01*
X21438735Y-8072459D01*
X21431666Y-8108000D01*
X21443073Y-8165349D01*
X21475559Y-8213967D01*
X21506507Y-8234646D01*
X21464927Y-8271796D01*
X21439529Y-8324521D01*
X21439264Y-8326097D01*
X21451378Y-8349300D01*
X21587300Y-8349300D01*
X21587300Y-8347300D01*
X21612700Y-8347300D01*
X21612700Y-8349300D01*
X21748622Y-8349300D01*
X21760736Y-8326097D01*
X21760471Y-8324521D01*
X21735073Y-8271796D01*
X21693493Y-8234646D01*
X21724442Y-8213967D01*
X21756927Y-8165349D01*
X21768335Y-8108000D01*
X21768335Y-8986409D01*
X21737902Y-8986383D01*
X21622613Y-9034019D01*
X21534329Y-9122149D01*
X21486492Y-9237355D01*
X21486383Y-9362098D01*
X21534019Y-9477387D01*
X21574012Y-9517450D01*
X21337598Y-9517450D01*
X21337598Y-9238294D01*
X21337598Y-9161706D01*
X21317639Y-9113518D01*
X21273838Y-9066281D01*
X21215295Y-9039402D01*
X21189700Y-9051263D01*
X21189700Y-9187300D01*
X21325684Y-9187300D01*
X21337598Y-9161706D01*
X21337598Y-9238294D01*
X21325684Y-9212700D01*
X21189700Y-9212700D01*
X21189700Y-9348737D01*
X21215295Y-9360598D01*
X21273838Y-9333719D01*
X21317639Y-9286482D01*
X21337598Y-9238294D01*
X21337598Y-9517450D01*
X21164300Y-9517450D01*
X21164300Y-9348737D01*
X21164300Y-9212700D01*
X21162300Y-9212700D01*
X21162300Y-9187300D01*
X21164300Y-9187300D01*
X21164300Y-9051263D01*
X21138705Y-9039402D01*
X21080162Y-9066281D01*
X21072957Y-9074052D01*
X21059067Y-9052907D01*
X21037964Y-9038662D01*
X21013000Y-9033656D01*
X20833000Y-9033656D01*
X20808788Y-9038354D01*
X20787507Y-9052333D01*
X20773262Y-9073436D01*
X20768256Y-9098400D01*
X20768256Y-9301600D01*
X20772954Y-9325812D01*
X20786933Y-9347093D01*
X20808036Y-9361338D01*
X20833000Y-9366344D01*
X21013000Y-9366344D01*
X21037212Y-9361646D01*
X21058493Y-9347667D01*
X21072738Y-9326564D01*
X21072878Y-9325863D01*
X21080162Y-9333719D01*
X21138705Y-9360598D01*
X21164300Y-9348737D01*
X21164300Y-9517450D01*
X20572518Y-9517450D01*
X20572518Y-9236191D01*
X20572518Y-9163809D01*
X20553195Y-9108568D01*
X20514204Y-9064927D01*
X20461479Y-9039529D01*
X20459903Y-9039264D01*
X20436700Y-9051378D01*
X20436700Y-9187300D01*
X20558092Y-9187300D01*
X20572518Y-9163809D01*
X20572518Y-9236191D01*
X20558092Y-9212700D01*
X20436700Y-9212700D01*
X20436700Y-9348622D01*
X20459903Y-9360736D01*
X20461479Y-9360471D01*
X20514204Y-9335073D01*
X20553195Y-9291432D01*
X20572518Y-9236191D01*
X20572518Y-9517450D01*
X20411300Y-9517450D01*
X20411300Y-9348622D01*
X20411300Y-9212700D01*
X20409300Y-9212700D01*
X20409300Y-9187300D01*
X20411300Y-9187300D01*
X20411300Y-9051378D01*
X20388097Y-9039264D01*
X20386521Y-9039529D01*
X20333796Y-9064927D01*
X20296646Y-9106507D01*
X20275967Y-9075559D01*
X20227349Y-9043073D01*
X20170000Y-9031666D01*
X20112651Y-9043073D01*
X20064033Y-9075559D01*
X20062978Y-9077137D01*
X20062406Y-9074188D01*
X20048427Y-9052907D01*
X20027324Y-9038662D01*
X20002360Y-9033656D01*
X19829640Y-9033656D01*
X19805428Y-9038354D01*
X19784147Y-9052333D01*
X19769902Y-9073436D01*
X19764896Y-9098400D01*
X19764896Y-9301600D01*
X19769594Y-9325812D01*
X19783573Y-9347093D01*
X19804676Y-9361338D01*
X19829640Y-9366344D01*
X20002360Y-9366344D01*
X20026572Y-9361646D01*
X20047853Y-9347667D01*
X20062098Y-9326564D01*
X20062872Y-9322704D01*
X20064033Y-9324442D01*
X20112651Y-9356927D01*
X20170000Y-9368335D01*
X20227349Y-9356927D01*
X20275967Y-9324442D01*
X20296646Y-9293493D01*
X20333796Y-9335073D01*
X20386521Y-9360471D01*
X20388097Y-9360736D01*
X20411300Y-9348622D01*
X20411300Y-9517450D01*
X19187598Y-9517450D01*
X19187598Y-9238294D01*
X19187598Y-9161706D01*
X19167639Y-9113518D01*
X19123838Y-9066281D01*
X19065295Y-9039402D01*
X19039700Y-9051263D01*
X19039700Y-9187300D01*
X19175684Y-9187300D01*
X19187598Y-9161706D01*
X19187598Y-9238294D01*
X19175684Y-9212700D01*
X19039700Y-9212700D01*
X19039700Y-9348737D01*
X19065295Y-9360598D01*
X19123838Y-9333719D01*
X19167639Y-9286482D01*
X19187598Y-9238294D01*
X19187598Y-9517450D01*
X19014300Y-9517450D01*
X19014300Y-9348737D01*
X19014300Y-9212700D01*
X19012300Y-9212700D01*
X19012300Y-9187300D01*
X19014300Y-9187300D01*
X19014300Y-9051263D01*
X18988705Y-9039402D01*
X18930162Y-9066281D01*
X18922957Y-9074052D01*
X18909067Y-9052907D01*
X18887964Y-9038662D01*
X18863000Y-9033656D01*
X18683000Y-9033656D01*
X18658788Y-9038354D01*
X18637507Y-9052333D01*
X18623262Y-9073436D01*
X18618256Y-9098400D01*
X18618256Y-9301600D01*
X18622954Y-9325812D01*
X18636933Y-9347093D01*
X18658036Y-9361338D01*
X18683000Y-9366344D01*
X18863000Y-9366344D01*
X18887212Y-9361646D01*
X18908493Y-9347667D01*
X18922738Y-9326564D01*
X18922878Y-9325863D01*
X18930162Y-9333719D01*
X18988705Y-9360598D01*
X19014300Y-9348737D01*
X19014300Y-9517450D01*
X18487598Y-9517450D01*
X18487598Y-9238294D01*
X18487598Y-9161706D01*
X18467639Y-9113518D01*
X18423838Y-9066281D01*
X18365295Y-9039402D01*
X18339700Y-9051263D01*
X18339700Y-9187300D01*
X18475684Y-9187300D01*
X18487598Y-9161706D01*
X18487598Y-9238294D01*
X18475684Y-9212700D01*
X18339700Y-9212700D01*
X18339700Y-9348737D01*
X18365295Y-9360598D01*
X18423838Y-9333719D01*
X18467639Y-9286482D01*
X18487598Y-9238294D01*
X18487598Y-9517450D01*
X18314300Y-9517450D01*
X18314300Y-9348737D01*
X18314300Y-9212700D01*
X18312300Y-9212700D01*
X18312300Y-9187300D01*
X18314300Y-9187300D01*
X18314300Y-9051263D01*
X18288705Y-9039402D01*
X18230162Y-9066281D01*
X18222957Y-9074052D01*
X18209067Y-9052907D01*
X18187964Y-9038662D01*
X18163000Y-9033656D01*
X17983000Y-9033656D01*
X17958788Y-9038354D01*
X17937507Y-9052333D01*
X17923262Y-9073436D01*
X17918256Y-9098400D01*
X17918256Y-9301600D01*
X17922954Y-9325812D01*
X17936933Y-9347093D01*
X17958036Y-9361338D01*
X17983000Y-9366344D01*
X18163000Y-9366344D01*
X18187212Y-9361646D01*
X18208493Y-9347667D01*
X18222738Y-9326564D01*
X18222878Y-9325863D01*
X18230162Y-9333719D01*
X18288705Y-9360598D01*
X18314300Y-9348737D01*
X18314300Y-9517450D01*
X16687597Y-9517450D01*
X16687597Y-9238294D01*
X16687597Y-9161706D01*
X16667638Y-9113518D01*
X16623838Y-9066281D01*
X16565295Y-9039402D01*
X16539700Y-9051263D01*
X16539700Y-9187300D01*
X16675684Y-9187300D01*
X16687597Y-9161706D01*
X16687597Y-9238294D01*
X16675684Y-9212700D01*
X16539700Y-9212700D01*
X16539700Y-9348737D01*
X16565295Y-9360598D01*
X16623838Y-9333719D01*
X16667638Y-9286482D01*
X16687597Y-9238294D01*
X16687597Y-9517450D01*
X16514300Y-9517450D01*
X16514300Y-9348737D01*
X16514300Y-9212700D01*
X16512300Y-9212700D01*
X16512300Y-9187300D01*
X16514300Y-9187300D01*
X16514300Y-9051263D01*
X16488705Y-9039402D01*
X16430162Y-9066281D01*
X16422957Y-9074052D01*
X16409067Y-9052907D01*
X16387964Y-9038662D01*
X16363000Y-9033656D01*
X16183000Y-9033656D01*
X16158788Y-9038354D01*
X16137507Y-9052333D01*
X16123262Y-9073436D01*
X16118256Y-9098400D01*
X16118256Y-9165397D01*
X16117867Y-9165979D01*
X16111100Y-9200000D01*
X16117867Y-9234021D01*
X16118256Y-9234603D01*
X16118256Y-9301600D01*
X16122954Y-9325812D01*
X16136933Y-9347093D01*
X16158036Y-9361338D01*
X16183000Y-9366344D01*
X16363000Y-9366344D01*
X16387212Y-9361646D01*
X16408493Y-9347667D01*
X16422738Y-9326564D01*
X16422878Y-9325863D01*
X16430162Y-9333719D01*
X16488705Y-9360598D01*
X16514300Y-9348737D01*
X16514300Y-9517450D01*
X15307290Y-9517450D01*
X15334020Y-9512133D01*
X15334021Y-9512133D01*
X15362862Y-9492862D01*
X15662862Y-9192862D01*
X15682133Y-9164021D01*
X15682133Y-9164021D01*
X15688900Y-9130000D01*
X15688900Y-8774624D01*
X15817138Y-8902862D01*
X15845979Y-8922133D01*
X15880000Y-8928900D01*
X19376000Y-8928900D01*
X19410021Y-8922133D01*
X19410021Y-8922133D01*
X19438862Y-8902862D01*
X19574620Y-8767104D01*
X19581380Y-8767104D01*
X19737138Y-8922862D01*
X19765979Y-8942133D01*
X19765980Y-8942133D01*
X19800000Y-8948900D01*
X21356000Y-8948900D01*
X21390021Y-8942133D01*
X21390021Y-8942133D01*
X21418862Y-8922862D01*
X21574620Y-8767104D01*
X21701600Y-8767104D01*
X21725812Y-8762406D01*
X21747093Y-8748427D01*
X21761338Y-8727324D01*
X21766344Y-8702360D01*
X21766344Y-8529640D01*
X21761646Y-8505428D01*
X21747667Y-8484147D01*
X21726564Y-8469902D01*
X21717335Y-8468052D01*
X21735073Y-8452204D01*
X21760471Y-8399479D01*
X21760736Y-8397903D01*
X21748622Y-8374700D01*
X21612700Y-8374700D01*
X21612700Y-8376700D01*
X21587300Y-8376700D01*
X21587300Y-8374700D01*
X21451378Y-8374700D01*
X21439264Y-8397903D01*
X21439529Y-8399479D01*
X21464927Y-8452204D01*
X21482570Y-8467967D01*
X21474188Y-8469594D01*
X21452907Y-8483573D01*
X21438662Y-8504676D01*
X21433656Y-8529640D01*
X21433656Y-8656620D01*
X21319176Y-8771100D01*
X19836824Y-8771100D01*
X19768335Y-8702611D01*
X19768335Y-8108000D01*
X19756927Y-8050651D01*
X19724442Y-8002033D01*
X19693493Y-7981354D01*
X19735073Y-7944204D01*
X19760471Y-7891479D01*
X19760736Y-7889903D01*
X19748622Y-7866700D01*
X19612700Y-7866700D01*
X19612700Y-7868700D01*
X19587300Y-7868700D01*
X19587300Y-7866700D01*
X19451378Y-7866700D01*
X19439264Y-7889903D01*
X19439529Y-7891479D01*
X19464927Y-7944204D01*
X19506507Y-7981354D01*
X19475559Y-8002033D01*
X19443073Y-8050651D01*
X19431666Y-8108000D01*
X19443073Y-8165349D01*
X19475559Y-8213967D01*
X19506507Y-8234646D01*
X19464927Y-8271796D01*
X19439529Y-8324521D01*
X19439264Y-8326097D01*
X19451378Y-8349300D01*
X19587300Y-8349300D01*
X19587300Y-8347300D01*
X19612700Y-8347300D01*
X19612700Y-8349300D01*
X19748622Y-8349300D01*
X19760736Y-8326097D01*
X19760471Y-8324521D01*
X19735073Y-8271796D01*
X19693493Y-8234646D01*
X19724442Y-8213967D01*
X19756927Y-8165349D01*
X19768335Y-8108000D01*
X19768335Y-8702611D01*
X19766344Y-8700620D01*
X19766344Y-8529640D01*
X19761646Y-8505428D01*
X19747667Y-8484147D01*
X19726564Y-8469902D01*
X19717335Y-8468052D01*
X19735073Y-8452204D01*
X19760471Y-8399479D01*
X19760736Y-8397903D01*
X19748622Y-8374700D01*
X19612700Y-8374700D01*
X19612700Y-8376700D01*
X19587300Y-8376700D01*
X19587300Y-8374700D01*
X19451378Y-8374700D01*
X19439264Y-8397903D01*
X19439529Y-8399479D01*
X19464927Y-8452204D01*
X19482570Y-8467967D01*
X19474188Y-8469594D01*
X19452907Y-8483573D01*
X19438662Y-8504676D01*
X19433656Y-8529640D01*
X19433656Y-8656620D01*
X19339176Y-8751100D01*
X17768335Y-8751100D01*
X17768335Y-8108000D01*
X17768335Y-7600000D01*
X17768335Y-7092000D01*
X17756927Y-7034651D01*
X17724442Y-6986033D01*
X17692963Y-6965000D01*
X17724442Y-6943967D01*
X17756927Y-6895349D01*
X17768335Y-6838000D01*
X17756927Y-6780651D01*
X17724442Y-6732033D01*
X17692963Y-6711000D01*
X17724442Y-6689967D01*
X17756927Y-6641349D01*
X17768335Y-6584000D01*
X17756927Y-6526651D01*
X17724442Y-6478033D01*
X17675823Y-6445547D01*
X17618475Y-6434140D01*
X17581526Y-6434140D01*
X17524177Y-6445547D01*
X17475559Y-6478033D01*
X17443073Y-6526651D01*
X17431666Y-6584000D01*
X17443073Y-6641349D01*
X17475559Y-6689967D01*
X17507037Y-6711000D01*
X17475559Y-6732033D01*
X17443073Y-6780651D01*
X17431666Y-6838000D01*
X17443073Y-6895349D01*
X17475559Y-6943967D01*
X17507037Y-6965000D01*
X17475559Y-6986033D01*
X17443073Y-7034651D01*
X17431666Y-7092000D01*
X17443073Y-7149349D01*
X17475559Y-7197967D01*
X17506507Y-7218646D01*
X17464927Y-7255796D01*
X17439529Y-7308521D01*
X17439264Y-7310097D01*
X17451378Y-7333300D01*
X17587300Y-7333300D01*
X17587300Y-7331300D01*
X17612700Y-7331300D01*
X17612700Y-7333300D01*
X17748622Y-7333300D01*
X17760736Y-7310097D01*
X17760471Y-7308521D01*
X17735073Y-7255796D01*
X17693493Y-7218646D01*
X17724442Y-7197967D01*
X17756927Y-7149349D01*
X17768335Y-7092000D01*
X17768335Y-7600000D01*
X17756927Y-7542651D01*
X17724442Y-7494033D01*
X17693493Y-7473354D01*
X17735073Y-7436204D01*
X17760471Y-7383479D01*
X17760736Y-7381903D01*
X17748622Y-7358700D01*
X17612700Y-7358700D01*
X17612700Y-7360700D01*
X17587300Y-7360700D01*
X17587300Y-7358700D01*
X17451378Y-7358700D01*
X17439264Y-7381903D01*
X17439529Y-7383479D01*
X17464927Y-7436204D01*
X17506507Y-7473354D01*
X17475559Y-7494033D01*
X17443073Y-7542651D01*
X17431666Y-7600000D01*
X17443073Y-7657349D01*
X17475559Y-7705967D01*
X17506507Y-7726646D01*
X17464927Y-7763796D01*
X17439529Y-7816521D01*
X17439264Y-7818097D01*
X17451378Y-7841300D01*
X17587300Y-7841300D01*
X17587300Y-7839300D01*
X17612700Y-7839300D01*
X17612700Y-7841300D01*
X17748622Y-7841300D01*
X17760736Y-7818097D01*
X17760471Y-7816521D01*
X17735073Y-7763796D01*
X17693493Y-7726646D01*
X17724442Y-7705967D01*
X17756927Y-7657349D01*
X17768335Y-7600000D01*
X17768335Y-8108000D01*
X17756927Y-8050651D01*
X17724442Y-8002033D01*
X17693493Y-7981354D01*
X17735073Y-7944204D01*
X17760471Y-7891479D01*
X17760736Y-7889903D01*
X17748622Y-7866700D01*
X17612700Y-7866700D01*
X17612700Y-7868700D01*
X17587300Y-7868700D01*
X17587300Y-7866700D01*
X17451378Y-7866700D01*
X17439264Y-7889903D01*
X17439529Y-7891479D01*
X17464927Y-7944204D01*
X17506507Y-7981354D01*
X17475559Y-8002033D01*
X17443073Y-8050651D01*
X17431666Y-8108000D01*
X17443073Y-8165349D01*
X17475559Y-8213967D01*
X17506507Y-8234646D01*
X17464927Y-8271796D01*
X17439529Y-8324521D01*
X17439264Y-8326097D01*
X17451378Y-8349300D01*
X17587300Y-8349300D01*
X17587300Y-8347300D01*
X17612700Y-8347300D01*
X17612700Y-8349300D01*
X17748622Y-8349300D01*
X17760736Y-8326097D01*
X17760471Y-8324521D01*
X17735073Y-8271796D01*
X17693493Y-8234646D01*
X17724442Y-8213967D01*
X17756927Y-8165349D01*
X17768335Y-8108000D01*
X17768335Y-8751100D01*
X17743024Y-8751100D01*
X17747093Y-8748427D01*
X17761338Y-8727324D01*
X17766344Y-8702360D01*
X17766344Y-8529640D01*
X17761646Y-8505428D01*
X17747667Y-8484147D01*
X17726564Y-8469902D01*
X17717335Y-8468052D01*
X17735073Y-8452204D01*
X17760471Y-8399479D01*
X17760736Y-8397903D01*
X17748622Y-8374700D01*
X17612700Y-8374700D01*
X17612700Y-8376700D01*
X17587300Y-8376700D01*
X17587300Y-8374700D01*
X17451378Y-8374700D01*
X17439264Y-8397903D01*
X17439529Y-8399479D01*
X17464927Y-8452204D01*
X17482570Y-8467967D01*
X17474188Y-8469594D01*
X17452907Y-8483573D01*
X17438662Y-8504676D01*
X17433656Y-8529640D01*
X17433656Y-8702360D01*
X17438354Y-8726572D01*
X17452333Y-8747853D01*
X17457143Y-8751100D01*
X15916824Y-8751100D01*
X15768334Y-8602611D01*
X15768334Y-8108000D01*
X15768334Y-7600000D01*
X15768334Y-7092000D01*
X15756927Y-7034651D01*
X15724441Y-6986033D01*
X15692963Y-6965000D01*
X15724441Y-6943967D01*
X15756927Y-6895349D01*
X15768334Y-6838000D01*
X15756927Y-6780651D01*
X15724441Y-6732033D01*
X15693493Y-6711354D01*
X15735073Y-6674204D01*
X15760471Y-6621479D01*
X15760736Y-6619903D01*
X15760736Y-6548097D01*
X15760471Y-6546521D01*
X15735073Y-6493796D01*
X15691432Y-6454805D01*
X15636191Y-6435482D01*
X15612700Y-6449908D01*
X15612700Y-6571300D01*
X15748622Y-6571300D01*
X15760736Y-6548097D01*
X15760736Y-6619903D01*
X15748622Y-6596700D01*
X15612700Y-6596700D01*
X15612700Y-6598700D01*
X15587300Y-6598700D01*
X15587300Y-6596700D01*
X15587300Y-6571300D01*
X15587300Y-6449908D01*
X15563809Y-6435482D01*
X15508568Y-6454805D01*
X15464927Y-6493796D01*
X15439529Y-6546521D01*
X15439264Y-6548097D01*
X15451378Y-6571300D01*
X15587300Y-6571300D01*
X15587300Y-6596700D01*
X15451378Y-6596700D01*
X15439264Y-6619903D01*
X15439529Y-6621479D01*
X15464927Y-6674204D01*
X15506507Y-6711354D01*
X15475558Y-6732033D01*
X15443073Y-6780651D01*
X15431665Y-6838000D01*
X15443073Y-6895349D01*
X15475558Y-6943967D01*
X15507036Y-6965000D01*
X15475558Y-6986033D01*
X15443073Y-7034651D01*
X15431665Y-7092000D01*
X15443073Y-7149349D01*
X15475558Y-7197967D01*
X15506507Y-7218646D01*
X15464927Y-7255796D01*
X15439529Y-7308521D01*
X15439264Y-7310097D01*
X15451378Y-7333300D01*
X15587300Y-7333300D01*
X15587300Y-7331300D01*
X15612700Y-7331300D01*
X15612700Y-7333300D01*
X15748622Y-7333300D01*
X15760736Y-7310097D01*
X15760471Y-7308521D01*
X15735073Y-7255796D01*
X15693493Y-7218646D01*
X15724441Y-7197967D01*
X15756927Y-7149349D01*
X15768334Y-7092000D01*
X15768334Y-7600000D01*
X15756927Y-7542651D01*
X15724441Y-7494033D01*
X15693493Y-7473354D01*
X15735073Y-7436204D01*
X15760471Y-7383479D01*
X15760736Y-7381903D01*
X15748622Y-7358700D01*
X15612700Y-7358700D01*
X15612700Y-7360700D01*
X15587300Y-7360700D01*
X15587300Y-7358700D01*
X15451378Y-7358700D01*
X15439264Y-7381903D01*
X15439529Y-7383479D01*
X15464927Y-7436204D01*
X15506507Y-7473354D01*
X15475558Y-7494033D01*
X15443073Y-7542651D01*
X15431665Y-7600000D01*
X15443073Y-7657349D01*
X15475558Y-7705967D01*
X15506507Y-7726646D01*
X15464927Y-7763796D01*
X15439529Y-7816521D01*
X15439264Y-7818097D01*
X15451378Y-7841300D01*
X15587300Y-7841300D01*
X15587300Y-7839300D01*
X15612700Y-7839300D01*
X15612700Y-7841300D01*
X15748622Y-7841300D01*
X15760736Y-7818097D01*
X15760471Y-7816521D01*
X15735073Y-7763796D01*
X15693493Y-7726646D01*
X15724441Y-7705967D01*
X15756927Y-7657349D01*
X15768334Y-7600000D01*
X15768334Y-8108000D01*
X15756927Y-8050651D01*
X15724441Y-8002033D01*
X15693493Y-7981354D01*
X15735073Y-7944204D01*
X15760471Y-7891479D01*
X15760736Y-7889903D01*
X15748622Y-7866700D01*
X15612700Y-7866700D01*
X15612700Y-7868700D01*
X15587300Y-7868700D01*
X15587300Y-7866700D01*
X15451378Y-7866700D01*
X15439264Y-7889903D01*
X15439529Y-7891479D01*
X15464927Y-7944204D01*
X15506507Y-7981354D01*
X15475558Y-8002033D01*
X15443073Y-8050651D01*
X15431665Y-8108000D01*
X15443073Y-8165349D01*
X15475558Y-8213967D01*
X15506507Y-8234646D01*
X15464927Y-8271796D01*
X15439529Y-8324521D01*
X15439264Y-8326097D01*
X15451378Y-8349300D01*
X15587300Y-8349300D01*
X15587300Y-8347300D01*
X15612700Y-8347300D01*
X15612700Y-8349300D01*
X15748622Y-8349300D01*
X15760736Y-8326097D01*
X15760471Y-8324521D01*
X15735073Y-8271796D01*
X15693493Y-8234646D01*
X15724441Y-8213967D01*
X15756927Y-8165349D01*
X15768334Y-8108000D01*
X15768334Y-8602611D01*
X15766344Y-8600620D01*
X15766344Y-8529640D01*
X15761646Y-8505428D01*
X15747667Y-8484147D01*
X15726564Y-8469902D01*
X15717335Y-8468052D01*
X15735073Y-8452204D01*
X15760471Y-8399479D01*
X15760736Y-8397903D01*
X15748622Y-8374700D01*
X15612700Y-8374700D01*
X15612700Y-8376700D01*
X15587300Y-8376700D01*
X15587300Y-8374700D01*
X15451378Y-8374700D01*
X15439264Y-8397903D01*
X15439529Y-8399479D01*
X15464927Y-8452204D01*
X15482570Y-8467967D01*
X15474188Y-8469594D01*
X15452907Y-8483573D01*
X15438662Y-8504676D01*
X15433656Y-8529640D01*
X15433656Y-8702360D01*
X15438354Y-8726572D01*
X15452333Y-8747853D01*
X15473436Y-8762098D01*
X15498400Y-8767104D01*
X15511100Y-8767104D01*
X15511100Y-9093176D01*
X15263176Y-9341100D01*
X15158692Y-9341100D01*
X15171204Y-9335073D01*
X15210195Y-9291432D01*
X15229518Y-9236191D01*
X15229518Y-9163809D01*
X15210195Y-9108568D01*
X15171204Y-9064927D01*
X15118479Y-9039529D01*
X15116903Y-9039264D01*
X15093700Y-9051378D01*
X15093700Y-9187300D01*
X15215092Y-9187300D01*
X15229518Y-9163809D01*
X15229518Y-9236191D01*
X15215092Y-9212700D01*
X15093700Y-9212700D01*
X15093700Y-9214700D01*
X15068300Y-9214700D01*
X15068300Y-9212700D01*
X15066300Y-9212700D01*
X15066300Y-9187300D01*
X15068300Y-9187300D01*
X15068300Y-9051378D01*
X15045097Y-9039264D01*
X15043521Y-9039529D01*
X14990796Y-9064927D01*
X14953646Y-9106507D01*
X14932967Y-9075559D01*
X14905093Y-9056934D01*
X14889862Y-9034138D01*
X14722862Y-8867138D01*
X14694021Y-8847867D01*
X14660000Y-8841100D01*
X14326824Y-8841100D01*
X14202759Y-8717035D01*
X14211382Y-8717043D01*
X14267790Y-8693736D01*
X14310984Y-8650617D01*
X14334389Y-8594250D01*
X14334443Y-8533218D01*
X14311136Y-8476810D01*
X14268017Y-8433616D01*
X14211650Y-8410211D01*
X14150618Y-8410157D01*
X14094210Y-8433464D01*
X14051016Y-8476583D01*
X14027611Y-8532950D01*
X14027603Y-8541879D01*
X13572267Y-8086544D01*
X13572389Y-8086250D01*
X13572443Y-8025218D01*
X13549136Y-7968810D01*
X13506017Y-7925616D01*
X13449650Y-7902211D01*
X13388618Y-7902157D01*
X13332210Y-7925464D01*
X13289016Y-7968583D01*
X13265611Y-8024950D01*
X13265557Y-8085982D01*
X13288864Y-8142390D01*
X13331983Y-8185584D01*
X13388350Y-8208989D01*
X13443314Y-8209037D01*
X14111926Y-8877649D01*
X14079000Y-8871100D01*
X13796824Y-8871100D01*
X13557010Y-8631287D01*
X13572389Y-8594250D01*
X13572443Y-8533218D01*
X13549136Y-8476810D01*
X13506017Y-8433616D01*
X13449650Y-8410211D01*
X13388618Y-8410157D01*
X13332210Y-8433464D01*
X13289016Y-8476583D01*
X13265611Y-8532950D01*
X13265557Y-8593982D01*
X13288864Y-8650390D01*
X13331983Y-8693584D01*
X13388350Y-8716989D01*
X13391268Y-8716992D01*
X13697138Y-9022862D01*
X13725979Y-9042133D01*
X13760000Y-9048900D01*
X13798018Y-9048900D01*
X13760162Y-9066281D01*
X13752957Y-9074052D01*
X13739067Y-9052907D01*
X13717964Y-9038662D01*
X13693000Y-9033656D01*
X13562380Y-9033656D01*
X13425862Y-8897138D01*
X13397021Y-8877867D01*
X13363000Y-8871100D01*
X12996824Y-8871100D01*
X12897657Y-8771934D01*
X12912983Y-8756635D01*
X12933327Y-8707641D01*
X12933357Y-8673367D01*
X13083362Y-8523362D01*
X13092862Y-8513862D01*
X13112133Y-8485021D01*
X13118900Y-8451000D01*
X13118900Y-8036824D01*
X13458412Y-7697312D01*
X13505790Y-7677736D01*
X13548984Y-7634617D01*
X13572389Y-7578250D01*
X13572440Y-7519883D01*
X14153332Y-6938992D01*
X14211382Y-6939043D01*
X14267790Y-6915736D01*
X14310984Y-6872617D01*
X14334389Y-6816250D01*
X14334443Y-6755218D01*
X14311136Y-6698810D01*
X14268017Y-6655616D01*
X14242900Y-6645187D01*
X14242900Y-6499676D01*
X14266983Y-6475635D01*
X14287327Y-6426641D01*
X14287357Y-6392367D01*
X14638780Y-6040944D01*
X14684200Y-6040944D01*
X14708412Y-6036246D01*
X14729693Y-6022267D01*
X14743938Y-6001164D01*
X14748944Y-5976200D01*
X14748944Y-5823800D01*
X14744246Y-5799588D01*
X14730267Y-5778307D01*
X14709164Y-5764062D01*
X14684200Y-5759056D01*
X14531800Y-5759056D01*
X14507588Y-5763754D01*
X14486307Y-5777733D01*
X14472062Y-5798836D01*
X14467056Y-5823800D01*
X14467056Y-5961220D01*
X14161620Y-6266656D01*
X14127591Y-6266627D01*
X14078562Y-6286885D01*
X14041017Y-6324365D01*
X14020673Y-6373359D01*
X14020627Y-6426409D01*
X14040885Y-6475438D01*
X14065100Y-6499695D01*
X14065100Y-6684524D01*
X14051016Y-6698583D01*
X14027611Y-6754950D01*
X14027560Y-6813317D01*
X13780593Y-7060284D01*
X13780593Y-6419252D01*
X13777715Y-6366280D01*
X13762980Y-6330707D01*
X13739419Y-6324542D01*
X13731724Y-6332236D01*
X13731724Y-5872334D01*
X13710501Y-5820970D01*
X13671237Y-5781637D01*
X13619910Y-5760324D01*
X13564334Y-5760276D01*
X13560965Y-5761668D01*
X13538000Y-5757100D01*
X13299676Y-5757100D01*
X13275635Y-5733017D01*
X13226641Y-5712673D01*
X13173591Y-5712627D01*
X13124562Y-5732885D01*
X13087017Y-5770365D01*
X13066673Y-5819359D01*
X13066643Y-5853633D01*
X12654442Y-6265834D01*
X12648635Y-6260017D01*
X12599641Y-6239673D01*
X12546591Y-6239627D01*
X12497562Y-6259885D01*
X12460017Y-6297365D01*
X12439673Y-6346359D01*
X12439627Y-6399409D01*
X12459885Y-6448438D01*
X12497365Y-6485983D01*
X12531145Y-6500009D01*
X12497562Y-6513885D01*
X12460017Y-6551365D01*
X12439673Y-6600359D01*
X12439627Y-6653409D01*
X12459885Y-6702438D01*
X12484100Y-6726695D01*
X12484100Y-7073324D01*
X12460017Y-7097365D01*
X12439673Y-7146359D01*
X12439627Y-7199409D01*
X12459885Y-7248438D01*
X12497365Y-7285983D01*
X12531145Y-7300009D01*
X12497562Y-7313885D01*
X12460017Y-7351365D01*
X12439673Y-7400359D01*
X12439643Y-7434633D01*
X12337138Y-7537138D01*
X12317867Y-7565979D01*
X12311100Y-7600000D01*
X12311100Y-7819324D01*
X12287017Y-7843365D01*
X12266673Y-7892359D01*
X12266627Y-7945409D01*
X12286885Y-7994438D01*
X12324365Y-8031983D01*
X12373359Y-8052327D01*
X12426409Y-8052373D01*
X12475438Y-8032115D01*
X12512983Y-7994635D01*
X12533327Y-7945641D01*
X12533373Y-7892591D01*
X12513115Y-7843562D01*
X12488900Y-7819305D01*
X12488900Y-7636824D01*
X12565380Y-7560343D01*
X12599409Y-7560373D01*
X12648438Y-7540115D01*
X12685983Y-7502635D01*
X12693650Y-7484170D01*
X12693650Y-7509481D01*
X12703317Y-7532820D01*
X12721180Y-7550683D01*
X12744519Y-7560350D01*
X12769781Y-7560350D01*
X12798425Y-7560350D01*
X12814300Y-7544475D01*
X12814300Y-7439700D01*
X12812300Y-7439700D01*
X12812300Y-7414300D01*
X12814300Y-7414300D01*
X12814300Y-7309525D01*
X12798425Y-7293650D01*
X12769781Y-7293650D01*
X12744519Y-7293650D01*
X12721180Y-7303317D01*
X12703317Y-7321180D01*
X12693650Y-7344519D01*
X12693650Y-7369799D01*
X12686115Y-7351562D01*
X12648635Y-7314017D01*
X12614855Y-7299991D01*
X12648438Y-7286115D01*
X12672695Y-7261900D01*
X12936176Y-7261900D01*
X12981100Y-7306824D01*
X12981100Y-7603176D01*
X12960350Y-7623926D01*
X12960350Y-7509481D01*
X12960350Y-7455575D01*
X12960350Y-7398425D01*
X12960350Y-7344519D01*
X12950683Y-7321180D01*
X12932820Y-7303317D01*
X12909481Y-7293650D01*
X12884219Y-7293650D01*
X12855575Y-7293650D01*
X12839700Y-7309525D01*
X12839700Y-7414300D01*
X12944475Y-7414300D01*
X12960350Y-7398425D01*
X12960350Y-7455575D01*
X12944475Y-7439700D01*
X12839700Y-7439700D01*
X12839700Y-7544475D01*
X12855575Y-7560350D01*
X12884219Y-7560350D01*
X12909481Y-7560350D01*
X12932820Y-7550683D01*
X12950683Y-7532820D01*
X12960350Y-7509481D01*
X12960350Y-7623926D01*
X12798628Y-7785649D01*
X12773591Y-7785627D01*
X12724562Y-7805885D01*
X12687017Y-7843365D01*
X12666673Y-7892359D01*
X12666627Y-7945409D01*
X12686885Y-7994438D01*
X12724365Y-8031983D01*
X12773359Y-8052327D01*
X12826409Y-8052373D01*
X12875438Y-8032115D01*
X12912983Y-7994635D01*
X12933327Y-7945641D01*
X12933364Y-7902359D01*
X13132862Y-7702862D01*
X13152133Y-7674021D01*
X13152133Y-7674020D01*
X13158900Y-7640000D01*
X13158900Y-7270000D01*
X13152133Y-7235979D01*
X13152133Y-7235979D01*
X13132862Y-7207138D01*
X13035862Y-7110138D01*
X13007021Y-7090867D01*
X12973000Y-7084100D01*
X12960350Y-7084100D01*
X12960350Y-6709481D01*
X12960350Y-6655575D01*
X12960350Y-6598425D01*
X12960350Y-6544519D01*
X12950683Y-6521180D01*
X12932820Y-6503317D01*
X12909481Y-6493650D01*
X12884219Y-6493650D01*
X12855575Y-6493650D01*
X12839700Y-6509525D01*
X12839700Y-6614300D01*
X12944475Y-6614300D01*
X12960350Y-6598425D01*
X12960350Y-6655575D01*
X12944475Y-6639700D01*
X12839700Y-6639700D01*
X12839700Y-6744475D01*
X12855575Y-6760350D01*
X12884219Y-6760350D01*
X12909481Y-6760350D01*
X12932820Y-6750683D01*
X12950683Y-6732820D01*
X12960350Y-6709481D01*
X12960350Y-7084100D01*
X12672676Y-7084100D01*
X12661900Y-7073305D01*
X12661900Y-6726676D01*
X12685983Y-6702635D01*
X12693650Y-6684170D01*
X12693650Y-6709481D01*
X12703317Y-6732820D01*
X12721180Y-6750683D01*
X12744519Y-6760350D01*
X12769781Y-6760350D01*
X12798425Y-6760350D01*
X12814300Y-6744475D01*
X12814300Y-6639700D01*
X12812300Y-6639700D01*
X12812300Y-6614300D01*
X12814300Y-6614300D01*
X12814300Y-6509525D01*
X12798425Y-6493650D01*
X12769781Y-6493650D01*
X12744519Y-6493650D01*
X12721180Y-6503317D01*
X12703317Y-6521180D01*
X12693650Y-6544519D01*
X12693650Y-6569799D01*
X12686115Y-6551562D01*
X12648635Y-6514017D01*
X12614855Y-6499991D01*
X12648438Y-6486115D01*
X12672695Y-6461900D01*
X12673000Y-6461900D01*
X12707020Y-6455133D01*
X12707021Y-6455133D01*
X12735862Y-6435862D01*
X13192380Y-5979343D01*
X13226409Y-5979373D01*
X13275438Y-5959115D01*
X13299695Y-5934900D01*
X13455265Y-5934900D01*
X13468162Y-5966114D01*
X13356138Y-6078138D01*
X13336867Y-6106979D01*
X13330100Y-6141000D01*
X13330100Y-6316382D01*
X13316980Y-6284707D01*
X13293419Y-6278542D01*
X13275458Y-6296502D01*
X13275458Y-6260581D01*
X13269293Y-6237020D01*
X13219252Y-6219407D01*
X13166280Y-6222285D01*
X13130707Y-6237020D01*
X13124542Y-6260581D01*
X13200000Y-6336039D01*
X13275458Y-6260581D01*
X13275458Y-6296502D01*
X13217960Y-6354000D01*
X13293419Y-6429458D01*
X13316980Y-6423293D01*
X13330100Y-6386016D01*
X13330100Y-6657571D01*
X13289016Y-6698583D01*
X13275458Y-6731234D01*
X13275458Y-6447419D01*
X13200000Y-6371960D01*
X13182039Y-6389921D01*
X13182039Y-6354000D01*
X13106581Y-6278542D01*
X13083020Y-6284707D01*
X13065407Y-6334748D01*
X13068285Y-6387720D01*
X13083020Y-6423293D01*
X13106581Y-6429458D01*
X13182039Y-6354000D01*
X13182039Y-6389921D01*
X13124542Y-6447419D01*
X13130707Y-6470980D01*
X13180748Y-6488593D01*
X13233720Y-6485715D01*
X13269293Y-6470980D01*
X13275458Y-6447419D01*
X13275458Y-6731234D01*
X13265611Y-6754950D01*
X13265557Y-6815982D01*
X13288864Y-6872390D01*
X13331983Y-6915584D01*
X13388350Y-6938989D01*
X13449382Y-6939043D01*
X13505790Y-6915736D01*
X13548984Y-6872617D01*
X13572389Y-6816250D01*
X13572443Y-6755218D01*
X13549136Y-6698810D01*
X13507900Y-6657503D01*
X13507900Y-6177824D01*
X13654862Y-6030862D01*
X13660105Y-6023015D01*
X13671030Y-6018501D01*
X13710363Y-5979237D01*
X13731676Y-5927910D01*
X13731724Y-5872334D01*
X13731724Y-6332236D01*
X13721458Y-6342502D01*
X13721458Y-6306581D01*
X13715293Y-6283020D01*
X13665252Y-6265407D01*
X13612280Y-6268285D01*
X13576707Y-6283020D01*
X13570542Y-6306581D01*
X13646000Y-6382039D01*
X13721458Y-6306581D01*
X13721458Y-6342502D01*
X13663960Y-6400000D01*
X13739419Y-6475458D01*
X13762980Y-6469293D01*
X13780593Y-6419252D01*
X13780593Y-7060284D01*
X13721458Y-7119418D01*
X13721458Y-6493419D01*
X13646000Y-6417960D01*
X13628039Y-6435921D01*
X13628039Y-6400000D01*
X13552581Y-6324542D01*
X13529020Y-6330707D01*
X13511407Y-6380748D01*
X13514285Y-6433720D01*
X13529020Y-6469293D01*
X13552581Y-6475458D01*
X13628039Y-6400000D01*
X13628039Y-6435921D01*
X13570542Y-6493419D01*
X13576707Y-6516980D01*
X13626748Y-6534593D01*
X13679720Y-6531715D01*
X13715293Y-6516980D01*
X13721458Y-6493419D01*
X13721458Y-7119418D01*
X13446668Y-7394208D01*
X13388618Y-7394157D01*
X13332210Y-7417464D01*
X13289016Y-7460583D01*
X13265611Y-7516950D01*
X13265557Y-7577982D01*
X13283316Y-7620961D01*
X12967138Y-7937138D01*
X12947867Y-7965979D01*
X12941100Y-8000000D01*
X12941100Y-8414176D01*
X12807620Y-8547657D01*
X12773591Y-8547627D01*
X12724562Y-8567885D01*
X12687017Y-8605365D01*
X12666673Y-8654359D01*
X12666627Y-8707409D01*
X12686885Y-8756438D01*
X12711100Y-8780695D01*
X12711100Y-8800000D01*
X12714918Y-8819194D01*
X12521444Y-8625720D01*
X12513115Y-8605562D01*
X12475635Y-8568017D01*
X12426641Y-8547673D01*
X12373591Y-8547627D01*
X12324562Y-8567885D01*
X12287017Y-8605365D01*
X12266673Y-8654359D01*
X12266627Y-8707409D01*
X12286885Y-8756438D01*
X12324365Y-8793983D01*
X12373359Y-8814327D01*
X12426409Y-8814373D01*
X12449223Y-8804946D01*
X12748994Y-9104718D01*
X12748256Y-9108400D01*
X12748256Y-9311600D01*
X12752954Y-9335812D01*
X12766933Y-9357093D01*
X12788036Y-9371338D01*
X12813000Y-9376344D01*
X12993000Y-9376344D01*
X13017212Y-9371646D01*
X13038493Y-9357667D01*
X13052738Y-9336564D01*
X13052878Y-9335863D01*
X13060162Y-9343719D01*
X13118705Y-9370598D01*
X13144300Y-9358737D01*
X13144300Y-9222700D01*
X13142300Y-9222700D01*
X13142300Y-9197300D01*
X13144300Y-9197300D01*
X13144300Y-9195300D01*
X13169700Y-9195300D01*
X13169700Y-9197300D01*
X13305684Y-9197300D01*
X13317597Y-9171706D01*
X13297638Y-9123518D01*
X13253838Y-9076281D01*
X13195295Y-9049402D01*
X13169700Y-9061263D01*
X13169700Y-9048900D01*
X13326176Y-9048900D01*
X13448256Y-9170980D01*
X13448256Y-9301600D01*
X13452954Y-9325812D01*
X13466933Y-9347093D01*
X13488036Y-9361338D01*
X13513000Y-9366344D01*
X13560620Y-9366344D01*
X13687138Y-9492862D01*
X13715979Y-9512133D01*
X13715979Y-9512133D01*
X13742710Y-9517450D01*
X13317597Y-9517450D01*
X13317597Y-9248294D01*
X13305684Y-9222700D01*
X13169700Y-9222700D01*
X13169700Y-9358737D01*
X13195295Y-9370598D01*
X13253838Y-9343719D01*
X13297638Y-9296482D01*
X13317597Y-9248294D01*
X13317597Y-9517450D01*
X12625985Y-9517450D01*
X12675671Y-9467851D01*
X12723508Y-9352645D01*
X12723617Y-9227902D01*
X12675981Y-9112613D01*
X12587851Y-9024329D01*
X12472645Y-8976492D01*
X12347902Y-8976383D01*
X12232613Y-9024019D01*
X12182550Y-9073995D01*
X12182550Y-6126003D01*
X12222149Y-6165671D01*
X12337355Y-6213508D01*
X12462098Y-6213617D01*
X12577387Y-6165981D01*
X12665671Y-6077851D01*
X12713508Y-5962645D01*
X12713617Y-5837902D01*
X12665981Y-5722613D01*
X12625988Y-5682550D01*
X21584032Y-5682550D01*
X21524329Y-5742149D01*
X21476492Y-5857355D01*
X21476383Y-5982098D01*
X21524019Y-6097387D01*
X21612149Y-6185671D01*
X21727355Y-6233508D01*
X21852098Y-6233617D01*
X21967387Y-6185981D01*
X22017450Y-6136005D01*
X22017450Y-9073997D01*
X22017450Y-9073997D01*
G37*
X22017450Y-9073997D02*
X21977851Y-9034329D01*
X21862645Y-8986492D01*
X21768335Y-8986409D01*
X21768335Y-8108000D01*
X21756927Y-8050651D01*
X21724442Y-8002033D01*
X21693493Y-7981354D01*
X21735073Y-7944204D01*
X21760471Y-7891479D01*
X21760736Y-7889903D01*
X21748622Y-7866700D01*
X21612700Y-7866700D01*
X21612700Y-7868700D01*
X21587300Y-7868700D01*
X21587300Y-7866700D01*
X21585300Y-7866700D01*
X21585300Y-7841300D01*
X21587300Y-7841300D01*
X21587300Y-7839300D01*
X21612700Y-7839300D01*
X21612700Y-7841300D01*
X21748622Y-7841300D01*
X21760736Y-7818097D01*
X21760471Y-7816521D01*
X21735073Y-7763796D01*
X21693493Y-7726646D01*
X21724442Y-7705967D01*
X21756927Y-7657349D01*
X21768335Y-7600000D01*
X21756927Y-7542651D01*
X21724442Y-7494033D01*
X21693493Y-7473354D01*
X21735073Y-7436204D01*
X21760471Y-7383479D01*
X21760736Y-7381903D01*
X21748622Y-7358700D01*
X21612700Y-7358700D01*
X21612700Y-7360700D01*
X21587300Y-7360700D01*
X21587300Y-7358700D01*
X21585300Y-7358700D01*
X21585300Y-7333300D01*
X21587300Y-7333300D01*
X21587300Y-7331300D01*
X21612700Y-7331300D01*
X21612700Y-7333300D01*
X21748622Y-7333300D01*
X21760736Y-7310097D01*
X21760471Y-7308521D01*
X21735073Y-7255796D01*
X21693493Y-7218646D01*
X21724442Y-7197967D01*
X21756927Y-7149349D01*
X21768335Y-7092000D01*
X21756927Y-7034651D01*
X21724442Y-6986033D01*
X21692963Y-6965000D01*
X21724442Y-6943967D01*
X21756927Y-6895349D01*
X21768335Y-6838000D01*
X21756927Y-6780651D01*
X21724442Y-6732033D01*
X21692963Y-6711000D01*
X21724442Y-6689967D01*
X21756927Y-6641349D01*
X21768335Y-6584000D01*
X21756927Y-6526651D01*
X21724442Y-6478033D01*
X21675823Y-6445547D01*
X21618475Y-6434140D01*
X21581526Y-6434140D01*
X21524177Y-6445547D01*
X21475559Y-6478033D01*
X21443073Y-6526651D01*
X21431666Y-6584000D01*
X21443073Y-6641349D01*
X21475559Y-6689967D01*
X21507037Y-6711000D01*
X21475559Y-6732033D01*
X21458435Y-6757661D01*
X21452133Y-6725979D01*
X21452133Y-6725979D01*
X21432862Y-6697138D01*
X20762862Y-6027138D01*
X20734021Y-6007867D01*
X20700000Y-6001100D01*
X15150000Y-6001100D01*
X15115979Y-6007867D01*
X15087138Y-6027138D01*
X14467138Y-6647138D01*
X14447867Y-6675979D01*
X14441100Y-6710000D01*
X14441100Y-6753176D01*
X14118138Y-7076138D01*
X14098867Y-7104979D01*
X14092100Y-7139000D01*
X14092100Y-7419571D01*
X14051016Y-7460583D01*
X14027611Y-7516950D01*
X14027557Y-7577982D01*
X14050864Y-7634390D01*
X14093983Y-7677584D01*
X14150350Y-7700989D01*
X14211382Y-7701043D01*
X14267790Y-7677736D01*
X14310984Y-7634617D01*
X14334389Y-7578250D01*
X14334443Y-7517218D01*
X14311136Y-7460810D01*
X14269900Y-7419503D01*
X14269900Y-7175824D01*
X14541100Y-6904624D01*
X14541100Y-7433176D01*
X14118138Y-7856138D01*
X14098867Y-7884979D01*
X14092100Y-7919000D01*
X14092100Y-7927571D01*
X14051016Y-7968583D01*
X14027611Y-8024950D01*
X14027557Y-8085982D01*
X14050864Y-8142390D01*
X14093983Y-8185584D01*
X14150350Y-8208989D01*
X14211382Y-8209043D01*
X14267790Y-8185736D01*
X14310984Y-8142617D01*
X14334389Y-8086250D01*
X14334443Y-8025218D01*
X14311136Y-7968810D01*
X14284048Y-7941675D01*
X14692862Y-7532862D01*
X14712133Y-7504021D01*
X14712133Y-7504020D01*
X14718900Y-7470000D01*
X14718900Y-6936824D01*
X15346824Y-6308900D01*
X18583176Y-6308900D01*
X19241100Y-6966824D01*
X19241100Y-7330000D01*
X19247867Y-7364021D01*
X19267138Y-7392862D01*
X19438735Y-7564459D01*
X19431666Y-7600000D01*
X19443073Y-7657349D01*
X19475559Y-7705967D01*
X19506507Y-7726646D01*
X19464927Y-7763796D01*
X19439529Y-7816521D01*
X19439264Y-7818097D01*
X19451378Y-7841300D01*
X19587300Y-7841300D01*
X19587300Y-7839300D01*
X19612700Y-7839300D01*
X19612700Y-7841300D01*
X19748622Y-7841300D01*
X19760736Y-7818097D01*
X19760471Y-7816521D01*
X19735073Y-7763796D01*
X19693493Y-7726646D01*
X19724442Y-7705967D01*
X19756927Y-7657349D01*
X19768335Y-7600000D01*
X19756927Y-7542651D01*
X19724442Y-7494033D01*
X19693493Y-7473354D01*
X19735073Y-7436204D01*
X19760471Y-7383479D01*
X19760736Y-7381903D01*
X19748622Y-7358700D01*
X19612700Y-7358700D01*
X19612700Y-7360700D01*
X19587300Y-7360700D01*
X19587300Y-7358700D01*
X19585300Y-7358700D01*
X19585300Y-7333300D01*
X19587300Y-7333300D01*
X19587300Y-7331300D01*
X19612700Y-7331300D01*
X19612700Y-7333300D01*
X19748622Y-7333300D01*
X19760736Y-7310097D01*
X19760471Y-7308521D01*
X19735073Y-7255796D01*
X19693493Y-7218646D01*
X19724442Y-7197967D01*
X19756927Y-7149349D01*
X19768335Y-7092000D01*
X19756927Y-7034651D01*
X19724442Y-6986033D01*
X19692963Y-6965000D01*
X19724442Y-6943967D01*
X19756927Y-6895349D01*
X19768335Y-6838000D01*
X19756927Y-6780651D01*
X19724442Y-6732033D01*
X19693493Y-6711354D01*
X19735073Y-6674204D01*
X19760471Y-6621479D01*
X19760736Y-6619903D01*
X19760736Y-6548097D01*
X19760471Y-6546521D01*
X19735073Y-6493796D01*
X19691432Y-6454805D01*
X19636191Y-6435482D01*
X19612700Y-6449908D01*
X19612700Y-6571300D01*
X19748622Y-6571300D01*
X19760736Y-6548097D01*
X19760736Y-6619903D01*
X19748622Y-6596700D01*
X19612700Y-6596700D01*
X19612700Y-6598700D01*
X19587300Y-6598700D01*
X19587300Y-6596700D01*
X19587300Y-6571300D01*
X19587300Y-6449908D01*
X19563809Y-6435482D01*
X19508568Y-6454805D01*
X19464927Y-6493796D01*
X19439529Y-6546521D01*
X19439264Y-6548097D01*
X19451378Y-6571300D01*
X19587300Y-6571300D01*
X19587300Y-6596700D01*
X19451378Y-6596700D01*
X19439264Y-6619903D01*
X19439529Y-6621479D01*
X19464927Y-6674204D01*
X19506507Y-6711354D01*
X19475559Y-6732033D01*
X19443073Y-6780651D01*
X19431666Y-6838000D01*
X19443073Y-6895349D01*
X19475559Y-6943967D01*
X19507037Y-6965000D01*
X19475559Y-6986033D01*
X19443073Y-7034651D01*
X19431666Y-7092000D01*
X19443073Y-7149349D01*
X19475559Y-7197967D01*
X19506507Y-7218646D01*
X19464927Y-7255796D01*
X19439529Y-7308521D01*
X19439264Y-7310097D01*
X19443026Y-7317302D01*
X19418900Y-7293176D01*
X19418900Y-6930000D01*
X19412133Y-6895979D01*
X19392862Y-6867138D01*
X18704624Y-6178900D01*
X20663176Y-6178900D01*
X21281100Y-6796824D01*
X21281100Y-7878000D01*
X21287867Y-7912021D01*
X21307138Y-7940862D01*
X21438735Y-8072459D01*
X21431666Y-8108000D01*
X21443073Y-8165349D01*
X21475559Y-8213967D01*
X21506507Y-8234646D01*
X21464927Y-8271796D01*
X21439529Y-8324521D01*
X21439264Y-8326097D01*
X21451378Y-8349300D01*
X21587300Y-8349300D01*
X21587300Y-8347300D01*
X21612700Y-8347300D01*
X21612700Y-8349300D01*
X21748622Y-8349300D01*
X21760736Y-8326097D01*
X21760471Y-8324521D01*
X21735073Y-8271796D01*
X21693493Y-8234646D01*
X21724442Y-8213967D01*
X21756927Y-8165349D01*
X21768335Y-8108000D01*
X21768335Y-8986409D01*
X21737902Y-8986383D01*
X21622613Y-9034019D01*
X21534329Y-9122149D01*
X21486492Y-9237355D01*
X21486383Y-9362098D01*
X21534019Y-9477387D01*
X21574012Y-9517450D01*
X21337598Y-9517450D01*
X21337598Y-9238294D01*
X21337598Y-9161706D01*
X21317639Y-9113518D01*
X21273838Y-9066281D01*
X21215295Y-9039402D01*
X21189700Y-9051263D01*
X21189700Y-9187300D01*
X21325684Y-9187300D01*
X21337598Y-9161706D01*
X21337598Y-9238294D01*
X21325684Y-9212700D01*
X21189700Y-9212700D01*
X21189700Y-9348737D01*
X21215295Y-9360598D01*
X21273838Y-9333719D01*
X21317639Y-9286482D01*
X21337598Y-9238294D01*
X21337598Y-9517450D01*
X21164300Y-9517450D01*
X21164300Y-9348737D01*
X21164300Y-9212700D01*
X21162300Y-9212700D01*
X21162300Y-9187300D01*
X21164300Y-9187300D01*
X21164300Y-9051263D01*
X21138705Y-9039402D01*
X21080162Y-9066281D01*
X21072957Y-9074052D01*
X21059067Y-9052907D01*
X21037964Y-9038662D01*
X21013000Y-9033656D01*
X20833000Y-9033656D01*
X20808788Y-9038354D01*
X20787507Y-9052333D01*
X20773262Y-9073436D01*
X20768256Y-9098400D01*
X20768256Y-9301600D01*
X20772954Y-9325812D01*
X20786933Y-9347093D01*
X20808036Y-9361338D01*
X20833000Y-9366344D01*
X21013000Y-9366344D01*
X21037212Y-9361646D01*
X21058493Y-9347667D01*
X21072738Y-9326564D01*
X21072878Y-9325863D01*
X21080162Y-9333719D01*
X21138705Y-9360598D01*
X21164300Y-9348737D01*
X21164300Y-9517450D01*
X20572518Y-9517450D01*
X20572518Y-9236191D01*
X20572518Y-9163809D01*
X20553195Y-9108568D01*
X20514204Y-9064927D01*
X20461479Y-9039529D01*
X20459903Y-9039264D01*
X20436700Y-9051378D01*
X20436700Y-9187300D01*
X20558092Y-9187300D01*
X20572518Y-9163809D01*
X20572518Y-9236191D01*
X20558092Y-9212700D01*
X20436700Y-9212700D01*
X20436700Y-9348622D01*
X20459903Y-9360736D01*
X20461479Y-9360471D01*
X20514204Y-9335073D01*
X20553195Y-9291432D01*
X20572518Y-9236191D01*
X20572518Y-9517450D01*
X20411300Y-9517450D01*
X20411300Y-9348622D01*
X20411300Y-9212700D01*
X20409300Y-9212700D01*
X20409300Y-9187300D01*
X20411300Y-9187300D01*
X20411300Y-9051378D01*
X20388097Y-9039264D01*
X20386521Y-9039529D01*
X20333796Y-9064927D01*
X20296646Y-9106507D01*
X20275967Y-9075559D01*
X20227349Y-9043073D01*
X20170000Y-9031666D01*
X20112651Y-9043073D01*
X20064033Y-9075559D01*
X20062978Y-9077137D01*
X20062406Y-9074188D01*
X20048427Y-9052907D01*
X20027324Y-9038662D01*
X20002360Y-9033656D01*
X19829640Y-9033656D01*
X19805428Y-9038354D01*
X19784147Y-9052333D01*
X19769902Y-9073436D01*
X19764896Y-9098400D01*
X19764896Y-9301600D01*
X19769594Y-9325812D01*
X19783573Y-9347093D01*
X19804676Y-9361338D01*
X19829640Y-9366344D01*
X20002360Y-9366344D01*
X20026572Y-9361646D01*
X20047853Y-9347667D01*
X20062098Y-9326564D01*
X20062872Y-9322704D01*
X20064033Y-9324442D01*
X20112651Y-9356927D01*
X20170000Y-9368335D01*
X20227349Y-9356927D01*
X20275967Y-9324442D01*
X20296646Y-9293493D01*
X20333796Y-9335073D01*
X20386521Y-9360471D01*
X20388097Y-9360736D01*
X20411300Y-9348622D01*
X20411300Y-9517450D01*
X19187598Y-9517450D01*
X19187598Y-9238294D01*
X19187598Y-9161706D01*
X19167639Y-9113518D01*
X19123838Y-9066281D01*
X19065295Y-9039402D01*
X19039700Y-9051263D01*
X19039700Y-9187300D01*
X19175684Y-9187300D01*
X19187598Y-9161706D01*
X19187598Y-9238294D01*
X19175684Y-9212700D01*
X19039700Y-9212700D01*
X19039700Y-9348737D01*
X19065295Y-9360598D01*
X19123838Y-9333719D01*
X19167639Y-9286482D01*
X19187598Y-9238294D01*
X19187598Y-9517450D01*
X19014300Y-9517450D01*
X19014300Y-9348737D01*
X19014300Y-9212700D01*
X19012300Y-9212700D01*
X19012300Y-9187300D01*
X19014300Y-9187300D01*
X19014300Y-9051263D01*
X18988705Y-9039402D01*
X18930162Y-9066281D01*
X18922957Y-9074052D01*
X18909067Y-9052907D01*
X18887964Y-9038662D01*
X18863000Y-9033656D01*
X18683000Y-9033656D01*
X18658788Y-9038354D01*
X18637507Y-9052333D01*
X18623262Y-9073436D01*
X18618256Y-9098400D01*
X18618256Y-9301600D01*
X18622954Y-9325812D01*
X18636933Y-9347093D01*
X18658036Y-9361338D01*
X18683000Y-9366344D01*
X18863000Y-9366344D01*
X18887212Y-9361646D01*
X18908493Y-9347667D01*
X18922738Y-9326564D01*
X18922878Y-9325863D01*
X18930162Y-9333719D01*
X18988705Y-9360598D01*
X19014300Y-9348737D01*
X19014300Y-9517450D01*
X18487598Y-9517450D01*
X18487598Y-9238294D01*
X18487598Y-9161706D01*
X18467639Y-9113518D01*
X18423838Y-9066281D01*
X18365295Y-9039402D01*
X18339700Y-9051263D01*
X18339700Y-9187300D01*
X18475684Y-9187300D01*
X18487598Y-9161706D01*
X18487598Y-9238294D01*
X18475684Y-9212700D01*
X18339700Y-9212700D01*
X18339700Y-9348737D01*
X18365295Y-9360598D01*
X18423838Y-9333719D01*
X18467639Y-9286482D01*
X18487598Y-9238294D01*
X18487598Y-9517450D01*
X18314300Y-9517450D01*
X18314300Y-9348737D01*
X18314300Y-9212700D01*
X18312300Y-9212700D01*
X18312300Y-9187300D01*
X18314300Y-9187300D01*
X18314300Y-9051263D01*
X18288705Y-9039402D01*
X18230162Y-9066281D01*
X18222957Y-9074052D01*
X18209067Y-9052907D01*
X18187964Y-9038662D01*
X18163000Y-9033656D01*
X17983000Y-9033656D01*
X17958788Y-9038354D01*
X17937507Y-9052333D01*
X17923262Y-9073436D01*
X17918256Y-9098400D01*
X17918256Y-9301600D01*
X17922954Y-9325812D01*
X17936933Y-9347093D01*
X17958036Y-9361338D01*
X17983000Y-9366344D01*
X18163000Y-9366344D01*
X18187212Y-9361646D01*
X18208493Y-9347667D01*
X18222738Y-9326564D01*
X18222878Y-9325863D01*
X18230162Y-9333719D01*
X18288705Y-9360598D01*
X18314300Y-9348737D01*
X18314300Y-9517450D01*
X16687597Y-9517450D01*
X16687597Y-9238294D01*
X16687597Y-9161706D01*
X16667638Y-9113518D01*
X16623838Y-9066281D01*
X16565295Y-9039402D01*
X16539700Y-9051263D01*
X16539700Y-9187300D01*
X16675684Y-9187300D01*
X16687597Y-9161706D01*
X16687597Y-9238294D01*
X16675684Y-9212700D01*
X16539700Y-9212700D01*
X16539700Y-9348737D01*
X16565295Y-9360598D01*
X16623838Y-9333719D01*
X16667638Y-9286482D01*
X16687597Y-9238294D01*
X16687597Y-9517450D01*
X16514300Y-9517450D01*
X16514300Y-9348737D01*
X16514300Y-9212700D01*
X16512300Y-9212700D01*
X16512300Y-9187300D01*
X16514300Y-9187300D01*
X16514300Y-9051263D01*
X16488705Y-9039402D01*
X16430162Y-9066281D01*
X16422957Y-9074052D01*
X16409067Y-9052907D01*
X16387964Y-9038662D01*
X16363000Y-9033656D01*
X16183000Y-9033656D01*
X16158788Y-9038354D01*
X16137507Y-9052333D01*
X16123262Y-9073436D01*
X16118256Y-9098400D01*
X16118256Y-9165397D01*
X16117867Y-9165979D01*
X16111100Y-9200000D01*
X16117867Y-9234021D01*
X16118256Y-9234603D01*
X16118256Y-9301600D01*
X16122954Y-9325812D01*
X16136933Y-9347093D01*
X16158036Y-9361338D01*
X16183000Y-9366344D01*
X16363000Y-9366344D01*
X16387212Y-9361646D01*
X16408493Y-9347667D01*
X16422738Y-9326564D01*
X16422878Y-9325863D01*
X16430162Y-9333719D01*
X16488705Y-9360598D01*
X16514300Y-9348737D01*
X16514300Y-9517450D01*
X15307290Y-9517450D01*
X15334020Y-9512133D01*
X15334021Y-9512133D01*
X15362862Y-9492862D01*
X15662862Y-9192862D01*
X15682133Y-9164021D01*
X15682133Y-9164021D01*
X15688900Y-9130000D01*
X15688900Y-8774624D01*
X15817138Y-8902862D01*
X15845979Y-8922133D01*
X15880000Y-8928900D01*
X19376000Y-8928900D01*
X19410021Y-8922133D01*
X19410021Y-8922133D01*
X19438862Y-8902862D01*
X19574620Y-8767104D01*
X19581380Y-8767104D01*
X19737138Y-8922862D01*
X19765979Y-8942133D01*
X19765980Y-8942133D01*
X19800000Y-8948900D01*
X21356000Y-8948900D01*
X21390021Y-8942133D01*
X21390021Y-8942133D01*
X21418862Y-8922862D01*
X21574620Y-8767104D01*
X21701600Y-8767104D01*
X21725812Y-8762406D01*
X21747093Y-8748427D01*
X21761338Y-8727324D01*
X21766344Y-8702360D01*
X21766344Y-8529640D01*
X21761646Y-8505428D01*
X21747667Y-8484147D01*
X21726564Y-8469902D01*
X21717335Y-8468052D01*
X21735073Y-8452204D01*
X21760471Y-8399479D01*
X21760736Y-8397903D01*
X21748622Y-8374700D01*
X21612700Y-8374700D01*
X21612700Y-8376700D01*
X21587300Y-8376700D01*
X21587300Y-8374700D01*
X21451378Y-8374700D01*
X21439264Y-8397903D01*
X21439529Y-8399479D01*
X21464927Y-8452204D01*
X21482570Y-8467967D01*
X21474188Y-8469594D01*
X21452907Y-8483573D01*
X21438662Y-8504676D01*
X21433656Y-8529640D01*
X21433656Y-8656620D01*
X21319176Y-8771100D01*
X19836824Y-8771100D01*
X19768335Y-8702611D01*
X19768335Y-8108000D01*
X19756927Y-8050651D01*
X19724442Y-8002033D01*
X19693493Y-7981354D01*
X19735073Y-7944204D01*
X19760471Y-7891479D01*
X19760736Y-7889903D01*
X19748622Y-7866700D01*
X19612700Y-7866700D01*
X19612700Y-7868700D01*
X19587300Y-7868700D01*
X19587300Y-7866700D01*
X19451378Y-7866700D01*
X19439264Y-7889903D01*
X19439529Y-7891479D01*
X19464927Y-7944204D01*
X19506507Y-7981354D01*
X19475559Y-8002033D01*
X19443073Y-8050651D01*
X19431666Y-8108000D01*
X19443073Y-8165349D01*
X19475559Y-8213967D01*
X19506507Y-8234646D01*
X19464927Y-8271796D01*
X19439529Y-8324521D01*
X19439264Y-8326097D01*
X19451378Y-8349300D01*
X19587300Y-8349300D01*
X19587300Y-8347300D01*
X19612700Y-8347300D01*
X19612700Y-8349300D01*
X19748622Y-8349300D01*
X19760736Y-8326097D01*
X19760471Y-8324521D01*
X19735073Y-8271796D01*
X19693493Y-8234646D01*
X19724442Y-8213967D01*
X19756927Y-8165349D01*
X19768335Y-8108000D01*
X19768335Y-8702611D01*
X19766344Y-8700620D01*
X19766344Y-8529640D01*
X19761646Y-8505428D01*
X19747667Y-8484147D01*
X19726564Y-8469902D01*
X19717335Y-8468052D01*
X19735073Y-8452204D01*
X19760471Y-8399479D01*
X19760736Y-8397903D01*
X19748622Y-8374700D01*
X19612700Y-8374700D01*
X19612700Y-8376700D01*
X19587300Y-8376700D01*
X19587300Y-8374700D01*
X19451378Y-8374700D01*
X19439264Y-8397903D01*
X19439529Y-8399479D01*
X19464927Y-8452204D01*
X19482570Y-8467967D01*
X19474188Y-8469594D01*
X19452907Y-8483573D01*
X19438662Y-8504676D01*
X19433656Y-8529640D01*
X19433656Y-8656620D01*
X19339176Y-8751100D01*
X17768335Y-8751100D01*
X17768335Y-8108000D01*
X17768335Y-7600000D01*
X17768335Y-7092000D01*
X17756927Y-7034651D01*
X17724442Y-6986033D01*
X17692963Y-6965000D01*
X17724442Y-6943967D01*
X17756927Y-6895349D01*
X17768335Y-6838000D01*
X17756927Y-6780651D01*
X17724442Y-6732033D01*
X17692963Y-6711000D01*
X17724442Y-6689967D01*
X17756927Y-6641349D01*
X17768335Y-6584000D01*
X17756927Y-6526651D01*
X17724442Y-6478033D01*
X17675823Y-6445547D01*
X17618475Y-6434140D01*
X17581526Y-6434140D01*
X17524177Y-6445547D01*
X17475559Y-6478033D01*
X17443073Y-6526651D01*
X17431666Y-6584000D01*
X17443073Y-6641349D01*
X17475559Y-6689967D01*
X17507037Y-6711000D01*
X17475559Y-6732033D01*
X17443073Y-6780651D01*
X17431666Y-6838000D01*
X17443073Y-6895349D01*
X17475559Y-6943967D01*
X17507037Y-6965000D01*
X17475559Y-6986033D01*
X17443073Y-7034651D01*
X17431666Y-7092000D01*
X17443073Y-7149349D01*
X17475559Y-7197967D01*
X17506507Y-7218646D01*
X17464927Y-7255796D01*
X17439529Y-7308521D01*
X17439264Y-7310097D01*
X17451378Y-7333300D01*
X17587300Y-7333300D01*
X17587300Y-7331300D01*
X17612700Y-7331300D01*
X17612700Y-7333300D01*
X17748622Y-7333300D01*
X17760736Y-7310097D01*
X17760471Y-7308521D01*
X17735073Y-7255796D01*
X17693493Y-7218646D01*
X17724442Y-7197967D01*
X17756927Y-7149349D01*
X17768335Y-7092000D01*
X17768335Y-7600000D01*
X17756927Y-7542651D01*
X17724442Y-7494033D01*
X17693493Y-7473354D01*
X17735073Y-7436204D01*
X17760471Y-7383479D01*
X17760736Y-7381903D01*
X17748622Y-7358700D01*
X17612700Y-7358700D01*
X17612700Y-7360700D01*
X17587300Y-7360700D01*
X17587300Y-7358700D01*
X17451378Y-7358700D01*
X17439264Y-7381903D01*
X17439529Y-7383479D01*
X17464927Y-7436204D01*
X17506507Y-7473354D01*
X17475559Y-7494033D01*
X17443073Y-7542651D01*
X17431666Y-7600000D01*
X17443073Y-7657349D01*
X17475559Y-7705967D01*
X17506507Y-7726646D01*
X17464927Y-7763796D01*
X17439529Y-7816521D01*
X17439264Y-7818097D01*
X17451378Y-7841300D01*
X17587300Y-7841300D01*
X17587300Y-7839300D01*
X17612700Y-7839300D01*
X17612700Y-7841300D01*
X17748622Y-7841300D01*
X17760736Y-7818097D01*
X17760471Y-7816521D01*
X17735073Y-7763796D01*
X17693493Y-7726646D01*
X17724442Y-7705967D01*
X17756927Y-7657349D01*
X17768335Y-7600000D01*
X17768335Y-8108000D01*
X17756927Y-8050651D01*
X17724442Y-8002033D01*
X17693493Y-7981354D01*
X17735073Y-7944204D01*
X17760471Y-7891479D01*
X17760736Y-7889903D01*
X17748622Y-7866700D01*
X17612700Y-7866700D01*
X17612700Y-7868700D01*
X17587300Y-7868700D01*
X17587300Y-7866700D01*
X17451378Y-7866700D01*
X17439264Y-7889903D01*
X17439529Y-7891479D01*
X17464927Y-7944204D01*
X17506507Y-7981354D01*
X17475559Y-8002033D01*
X17443073Y-8050651D01*
X17431666Y-8108000D01*
X17443073Y-8165349D01*
X17475559Y-8213967D01*
X17506507Y-8234646D01*
X17464927Y-8271796D01*
X17439529Y-8324521D01*
X17439264Y-8326097D01*
X17451378Y-8349300D01*
X17587300Y-8349300D01*
X17587300Y-8347300D01*
X17612700Y-8347300D01*
X17612700Y-8349300D01*
X17748622Y-8349300D01*
X17760736Y-8326097D01*
X17760471Y-8324521D01*
X17735073Y-8271796D01*
X17693493Y-8234646D01*
X17724442Y-8213967D01*
X17756927Y-8165349D01*
X17768335Y-8108000D01*
X17768335Y-8751100D01*
X17743024Y-8751100D01*
X17747093Y-8748427D01*
X17761338Y-8727324D01*
X17766344Y-8702360D01*
X17766344Y-8529640D01*
X17761646Y-8505428D01*
X17747667Y-8484147D01*
X17726564Y-8469902D01*
X17717335Y-8468052D01*
X17735073Y-8452204D01*
X17760471Y-8399479D01*
X17760736Y-8397903D01*
X17748622Y-8374700D01*
X17612700Y-8374700D01*
X17612700Y-8376700D01*
X17587300Y-8376700D01*
X17587300Y-8374700D01*
X17451378Y-8374700D01*
X17439264Y-8397903D01*
X17439529Y-8399479D01*
X17464927Y-8452204D01*
X17482570Y-8467967D01*
X17474188Y-8469594D01*
X17452907Y-8483573D01*
X17438662Y-8504676D01*
X17433656Y-8529640D01*
X17433656Y-8702360D01*
X17438354Y-8726572D01*
X17452333Y-8747853D01*
X17457143Y-8751100D01*
X15916824Y-8751100D01*
X15768334Y-8602611D01*
X15768334Y-8108000D01*
X15768334Y-7600000D01*
X15768334Y-7092000D01*
X15756927Y-7034651D01*
X15724441Y-6986033D01*
X15692963Y-6965000D01*
X15724441Y-6943967D01*
X15756927Y-6895349D01*
X15768334Y-6838000D01*
X15756927Y-6780651D01*
X15724441Y-6732033D01*
X15693493Y-6711354D01*
X15735073Y-6674204D01*
X15760471Y-6621479D01*
X15760736Y-6619903D01*
X15760736Y-6548097D01*
X15760471Y-6546521D01*
X15735073Y-6493796D01*
X15691432Y-6454805D01*
X15636191Y-6435482D01*
X15612700Y-6449908D01*
X15612700Y-6571300D01*
X15748622Y-6571300D01*
X15760736Y-6548097D01*
X15760736Y-6619903D01*
X15748622Y-6596700D01*
X15612700Y-6596700D01*
X15612700Y-6598700D01*
X15587300Y-6598700D01*
X15587300Y-6596700D01*
X15587300Y-6571300D01*
X15587300Y-6449908D01*
X15563809Y-6435482D01*
X15508568Y-6454805D01*
X15464927Y-6493796D01*
X15439529Y-6546521D01*
X15439264Y-6548097D01*
X15451378Y-6571300D01*
X15587300Y-6571300D01*
X15587300Y-6596700D01*
X15451378Y-6596700D01*
X15439264Y-6619903D01*
X15439529Y-6621479D01*
X15464927Y-6674204D01*
X15506507Y-6711354D01*
X15475558Y-6732033D01*
X15443073Y-6780651D01*
X15431665Y-6838000D01*
X15443073Y-6895349D01*
X15475558Y-6943967D01*
X15507036Y-6965000D01*
X15475558Y-6986033D01*
X15443073Y-7034651D01*
X15431665Y-7092000D01*
X15443073Y-7149349D01*
X15475558Y-7197967D01*
X15506507Y-7218646D01*
X15464927Y-7255796D01*
X15439529Y-7308521D01*
X15439264Y-7310097D01*
X15451378Y-7333300D01*
X15587300Y-7333300D01*
X15587300Y-7331300D01*
X15612700Y-7331300D01*
X15612700Y-7333300D01*
X15748622Y-7333300D01*
X15760736Y-7310097D01*
X15760471Y-7308521D01*
X15735073Y-7255796D01*
X15693493Y-7218646D01*
X15724441Y-7197967D01*
X15756927Y-7149349D01*
X15768334Y-7092000D01*
X15768334Y-7600000D01*
X15756927Y-7542651D01*
X15724441Y-7494033D01*
X15693493Y-7473354D01*
X15735073Y-7436204D01*
X15760471Y-7383479D01*
X15760736Y-7381903D01*
X15748622Y-7358700D01*
X15612700Y-7358700D01*
X15612700Y-7360700D01*
X15587300Y-7360700D01*
X15587300Y-7358700D01*
X15451378Y-7358700D01*
X15439264Y-7381903D01*
X15439529Y-7383479D01*
X15464927Y-7436204D01*
X15506507Y-7473354D01*
X15475558Y-7494033D01*
X15443073Y-7542651D01*
X15431665Y-7600000D01*
X15443073Y-7657349D01*
X15475558Y-7705967D01*
X15506507Y-7726646D01*
X15464927Y-7763796D01*
X15439529Y-7816521D01*
X15439264Y-7818097D01*
X15451378Y-7841300D01*
X15587300Y-7841300D01*
X15587300Y-7839300D01*
X15612700Y-7839300D01*
X15612700Y-7841300D01*
X15748622Y-7841300D01*
X15760736Y-7818097D01*
X15760471Y-7816521D01*
X15735073Y-7763796D01*
X15693493Y-7726646D01*
X15724441Y-7705967D01*
X15756927Y-7657349D01*
X15768334Y-7600000D01*
X15768334Y-8108000D01*
X15756927Y-8050651D01*
X15724441Y-8002033D01*
X15693493Y-7981354D01*
X15735073Y-7944204D01*
X15760471Y-7891479D01*
X15760736Y-7889903D01*
X15748622Y-7866700D01*
X15612700Y-7866700D01*
X15612700Y-7868700D01*
X15587300Y-7868700D01*
X15587300Y-7866700D01*
X15451378Y-7866700D01*
X15439264Y-7889903D01*
X15439529Y-7891479D01*
X15464927Y-7944204D01*
X15506507Y-7981354D01*
X15475558Y-8002033D01*
X15443073Y-8050651D01*
X15431665Y-8108000D01*
X15443073Y-8165349D01*
X15475558Y-8213967D01*
X15506507Y-8234646D01*
X15464927Y-8271796D01*
X15439529Y-8324521D01*
X15439264Y-8326097D01*
X15451378Y-8349300D01*
X15587300Y-8349300D01*
X15587300Y-8347300D01*
X15612700Y-8347300D01*
X15612700Y-8349300D01*
X15748622Y-8349300D01*
X15760736Y-8326097D01*
X15760471Y-8324521D01*
X15735073Y-8271796D01*
X15693493Y-8234646D01*
X15724441Y-8213967D01*
X15756927Y-8165349D01*
X15768334Y-8108000D01*
X15768334Y-8602611D01*
X15766344Y-8600620D01*
X15766344Y-8529640D01*
X15761646Y-8505428D01*
X15747667Y-8484147D01*
X15726564Y-8469902D01*
X15717335Y-8468052D01*
X15735073Y-8452204D01*
X15760471Y-8399479D01*
X15760736Y-8397903D01*
X15748622Y-8374700D01*
X15612700Y-8374700D01*
X15612700Y-8376700D01*
X15587300Y-8376700D01*
X15587300Y-8374700D01*
X15451378Y-8374700D01*
X15439264Y-8397903D01*
X15439529Y-8399479D01*
X15464927Y-8452204D01*
X15482570Y-8467967D01*
X15474188Y-8469594D01*
X15452907Y-8483573D01*
X15438662Y-8504676D01*
X15433656Y-8529640D01*
X15433656Y-8702360D01*
X15438354Y-8726572D01*
X15452333Y-8747853D01*
X15473436Y-8762098D01*
X15498400Y-8767104D01*
X15511100Y-8767104D01*
X15511100Y-9093176D01*
X15263176Y-9341100D01*
X15158692Y-9341100D01*
X15171204Y-9335073D01*
X15210195Y-9291432D01*
X15229518Y-9236191D01*
X15229518Y-9163809D01*
X15210195Y-9108568D01*
X15171204Y-9064927D01*
X15118479Y-9039529D01*
X15116903Y-9039264D01*
X15093700Y-9051378D01*
X15093700Y-9187300D01*
X15215092Y-9187300D01*
X15229518Y-9163809D01*
X15229518Y-9236191D01*
X15215092Y-9212700D01*
X15093700Y-9212700D01*
X15093700Y-9214700D01*
X15068300Y-9214700D01*
X15068300Y-9212700D01*
X15066300Y-9212700D01*
X15066300Y-9187300D01*
X15068300Y-9187300D01*
X15068300Y-9051378D01*
X15045097Y-9039264D01*
X15043521Y-9039529D01*
X14990796Y-9064927D01*
X14953646Y-9106507D01*
X14932967Y-9075559D01*
X14905093Y-9056934D01*
X14889862Y-9034138D01*
X14722862Y-8867138D01*
X14694021Y-8847867D01*
X14660000Y-8841100D01*
X14326824Y-8841100D01*
X14202759Y-8717035D01*
X14211382Y-8717043D01*
X14267790Y-8693736D01*
X14310984Y-8650617D01*
X14334389Y-8594250D01*
X14334443Y-8533218D01*
X14311136Y-8476810D01*
X14268017Y-8433616D01*
X14211650Y-8410211D01*
X14150618Y-8410157D01*
X14094210Y-8433464D01*
X14051016Y-8476583D01*
X14027611Y-8532950D01*
X14027603Y-8541879D01*
X13572267Y-8086544D01*
X13572389Y-8086250D01*
X13572443Y-8025218D01*
X13549136Y-7968810D01*
X13506017Y-7925616D01*
X13449650Y-7902211D01*
X13388618Y-7902157D01*
X13332210Y-7925464D01*
X13289016Y-7968583D01*
X13265611Y-8024950D01*
X13265557Y-8085982D01*
X13288864Y-8142390D01*
X13331983Y-8185584D01*
X13388350Y-8208989D01*
X13443314Y-8209037D01*
X14111926Y-8877649D01*
X14079000Y-8871100D01*
X13796824Y-8871100D01*
X13557010Y-8631287D01*
X13572389Y-8594250D01*
X13572443Y-8533218D01*
X13549136Y-8476810D01*
X13506017Y-8433616D01*
X13449650Y-8410211D01*
X13388618Y-8410157D01*
X13332210Y-8433464D01*
X13289016Y-8476583D01*
X13265611Y-8532950D01*
X13265557Y-8593982D01*
X13288864Y-8650390D01*
X13331983Y-8693584D01*
X13388350Y-8716989D01*
X13391268Y-8716992D01*
X13697138Y-9022862D01*
X13725979Y-9042133D01*
X13760000Y-9048900D01*
X13798018Y-9048900D01*
X13760162Y-9066281D01*
X13752957Y-9074052D01*
X13739067Y-9052907D01*
X13717964Y-9038662D01*
X13693000Y-9033656D01*
X13562380Y-9033656D01*
X13425862Y-8897138D01*
X13397021Y-8877867D01*
X13363000Y-8871100D01*
X12996824Y-8871100D01*
X12897657Y-8771934D01*
X12912983Y-8756635D01*
X12933327Y-8707641D01*
X12933357Y-8673367D01*
X13083362Y-8523362D01*
X13092862Y-8513862D01*
X13112133Y-8485021D01*
X13118900Y-8451000D01*
X13118900Y-8036824D01*
X13458412Y-7697312D01*
X13505790Y-7677736D01*
X13548984Y-7634617D01*
X13572389Y-7578250D01*
X13572440Y-7519883D01*
X14153332Y-6938992D01*
X14211382Y-6939043D01*
X14267790Y-6915736D01*
X14310984Y-6872617D01*
X14334389Y-6816250D01*
X14334443Y-6755218D01*
X14311136Y-6698810D01*
X14268017Y-6655616D01*
X14242900Y-6645187D01*
X14242900Y-6499676D01*
X14266983Y-6475635D01*
X14287327Y-6426641D01*
X14287357Y-6392367D01*
X14638780Y-6040944D01*
X14684200Y-6040944D01*
X14708412Y-6036246D01*
X14729693Y-6022267D01*
X14743938Y-6001164D01*
X14748944Y-5976200D01*
X14748944Y-5823800D01*
X14744246Y-5799588D01*
X14730267Y-5778307D01*
X14709164Y-5764062D01*
X14684200Y-5759056D01*
X14531800Y-5759056D01*
X14507588Y-5763754D01*
X14486307Y-5777733D01*
X14472062Y-5798836D01*
X14467056Y-5823800D01*
X14467056Y-5961220D01*
X14161620Y-6266656D01*
X14127591Y-6266627D01*
X14078562Y-6286885D01*
X14041017Y-6324365D01*
X14020673Y-6373359D01*
X14020627Y-6426409D01*
X14040885Y-6475438D01*
X14065100Y-6499695D01*
X14065100Y-6684524D01*
X14051016Y-6698583D01*
X14027611Y-6754950D01*
X14027560Y-6813317D01*
X13780593Y-7060284D01*
X13780593Y-6419252D01*
X13777715Y-6366280D01*
X13762980Y-6330707D01*
X13739419Y-6324542D01*
X13731724Y-6332236D01*
X13731724Y-5872334D01*
X13710501Y-5820970D01*
X13671237Y-5781637D01*
X13619910Y-5760324D01*
X13564334Y-5760276D01*
X13560965Y-5761668D01*
X13538000Y-5757100D01*
X13299676Y-5757100D01*
X13275635Y-5733017D01*
X13226641Y-5712673D01*
X13173591Y-5712627D01*
X13124562Y-5732885D01*
X13087017Y-5770365D01*
X13066673Y-5819359D01*
X13066643Y-5853633D01*
X12654442Y-6265834D01*
X12648635Y-6260017D01*
X12599641Y-6239673D01*
X12546591Y-6239627D01*
X12497562Y-6259885D01*
X12460017Y-6297365D01*
X12439673Y-6346359D01*
X12439627Y-6399409D01*
X12459885Y-6448438D01*
X12497365Y-6485983D01*
X12531145Y-6500009D01*
X12497562Y-6513885D01*
X12460017Y-6551365D01*
X12439673Y-6600359D01*
X12439627Y-6653409D01*
X12459885Y-6702438D01*
X12484100Y-6726695D01*
X12484100Y-7073324D01*
X12460017Y-7097365D01*
X12439673Y-7146359D01*
X12439627Y-7199409D01*
X12459885Y-7248438D01*
X12497365Y-7285983D01*
X12531145Y-7300009D01*
X12497562Y-7313885D01*
X12460017Y-7351365D01*
X12439673Y-7400359D01*
X12439643Y-7434633D01*
X12337138Y-7537138D01*
X12317867Y-7565979D01*
X12311100Y-7600000D01*
X12311100Y-7819324D01*
X12287017Y-7843365D01*
X12266673Y-7892359D01*
X12266627Y-7945409D01*
X12286885Y-7994438D01*
X12324365Y-8031983D01*
X12373359Y-8052327D01*
X12426409Y-8052373D01*
X12475438Y-8032115D01*
X12512983Y-7994635D01*
X12533327Y-7945641D01*
X12533373Y-7892591D01*
X12513115Y-7843562D01*
X12488900Y-7819305D01*
X12488900Y-7636824D01*
X12565380Y-7560343D01*
X12599409Y-7560373D01*
X12648438Y-7540115D01*
X12685983Y-7502635D01*
X12693650Y-7484170D01*
X12693650Y-7509481D01*
X12703317Y-7532820D01*
X12721180Y-7550683D01*
X12744519Y-7560350D01*
X12769781Y-7560350D01*
X12798425Y-7560350D01*
X12814300Y-7544475D01*
X12814300Y-7439700D01*
X12812300Y-7439700D01*
X12812300Y-7414300D01*
X12814300Y-7414300D01*
X12814300Y-7309525D01*
X12798425Y-7293650D01*
X12769781Y-7293650D01*
X12744519Y-7293650D01*
X12721180Y-7303317D01*
X12703317Y-7321180D01*
X12693650Y-7344519D01*
X12693650Y-7369799D01*
X12686115Y-7351562D01*
X12648635Y-7314017D01*
X12614855Y-7299991D01*
X12648438Y-7286115D01*
X12672695Y-7261900D01*
X12936176Y-7261900D01*
X12981100Y-7306824D01*
X12981100Y-7603176D01*
X12960350Y-7623926D01*
X12960350Y-7509481D01*
X12960350Y-7455575D01*
X12960350Y-7398425D01*
X12960350Y-7344519D01*
X12950683Y-7321180D01*
X12932820Y-7303317D01*
X12909481Y-7293650D01*
X12884219Y-7293650D01*
X12855575Y-7293650D01*
X12839700Y-7309525D01*
X12839700Y-7414300D01*
X12944475Y-7414300D01*
X12960350Y-7398425D01*
X12960350Y-7455575D01*
X12944475Y-7439700D01*
X12839700Y-7439700D01*
X12839700Y-7544475D01*
X12855575Y-7560350D01*
X12884219Y-7560350D01*
X12909481Y-7560350D01*
X12932820Y-7550683D01*
X12950683Y-7532820D01*
X12960350Y-7509481D01*
X12960350Y-7623926D01*
X12798628Y-7785649D01*
X12773591Y-7785627D01*
X12724562Y-7805885D01*
X12687017Y-7843365D01*
X12666673Y-7892359D01*
X12666627Y-7945409D01*
X12686885Y-7994438D01*
X12724365Y-8031983D01*
X12773359Y-8052327D01*
X12826409Y-8052373D01*
X12875438Y-8032115D01*
X12912983Y-7994635D01*
X12933327Y-7945641D01*
X12933364Y-7902359D01*
X13132862Y-7702862D01*
X13152133Y-7674021D01*
X13152133Y-7674020D01*
X13158900Y-7640000D01*
X13158900Y-7270000D01*
X13152133Y-7235979D01*
X13152133Y-7235979D01*
X13132862Y-7207138D01*
X13035862Y-7110138D01*
X13007021Y-7090867D01*
X12973000Y-7084100D01*
X12960350Y-7084100D01*
X12960350Y-6709481D01*
X12960350Y-6655575D01*
X12960350Y-6598425D01*
X12960350Y-6544519D01*
X12950683Y-6521180D01*
X12932820Y-6503317D01*
X12909481Y-6493650D01*
X12884219Y-6493650D01*
X12855575Y-6493650D01*
X12839700Y-6509525D01*
X12839700Y-6614300D01*
X12944475Y-6614300D01*
X12960350Y-6598425D01*
X12960350Y-6655575D01*
X12944475Y-6639700D01*
X12839700Y-6639700D01*
X12839700Y-6744475D01*
X12855575Y-6760350D01*
X12884219Y-6760350D01*
X12909481Y-6760350D01*
X12932820Y-6750683D01*
X12950683Y-6732820D01*
X12960350Y-6709481D01*
X12960350Y-7084100D01*
X12672676Y-7084100D01*
X12661900Y-7073305D01*
X12661900Y-6726676D01*
X12685983Y-6702635D01*
X12693650Y-6684170D01*
X12693650Y-6709481D01*
X12703317Y-6732820D01*
X12721180Y-6750683D01*
X12744519Y-6760350D01*
X12769781Y-6760350D01*
X12798425Y-6760350D01*
X12814300Y-6744475D01*
X12814300Y-6639700D01*
X12812300Y-6639700D01*
X12812300Y-6614300D01*
X12814300Y-6614300D01*
X12814300Y-6509525D01*
X12798425Y-6493650D01*
X12769781Y-6493650D01*
X12744519Y-6493650D01*
X12721180Y-6503317D01*
X12703317Y-6521180D01*
X12693650Y-6544519D01*
X12693650Y-6569799D01*
X12686115Y-6551562D01*
X12648635Y-6514017D01*
X12614855Y-6499991D01*
X12648438Y-6486115D01*
X12672695Y-6461900D01*
X12673000Y-6461900D01*
X12707020Y-6455133D01*
X12707021Y-6455133D01*
X12735862Y-6435862D01*
X13192380Y-5979343D01*
X13226409Y-5979373D01*
X13275438Y-5959115D01*
X13299695Y-5934900D01*
X13455265Y-5934900D01*
X13468162Y-5966114D01*
X13356138Y-6078138D01*
X13336867Y-6106979D01*
X13330100Y-6141000D01*
X13330100Y-6316382D01*
X13316980Y-6284707D01*
X13293419Y-6278542D01*
X13275458Y-6296502D01*
X13275458Y-6260581D01*
X13269293Y-6237020D01*
X13219252Y-6219407D01*
X13166280Y-6222285D01*
X13130707Y-6237020D01*
X13124542Y-6260581D01*
X13200000Y-6336039D01*
X13275458Y-6260581D01*
X13275458Y-6296502D01*
X13217960Y-6354000D01*
X13293419Y-6429458D01*
X13316980Y-6423293D01*
X13330100Y-6386016D01*
X13330100Y-6657571D01*
X13289016Y-6698583D01*
X13275458Y-6731234D01*
X13275458Y-6447419D01*
X13200000Y-6371960D01*
X13182039Y-6389921D01*
X13182039Y-6354000D01*
X13106581Y-6278542D01*
X13083020Y-6284707D01*
X13065407Y-6334748D01*
X13068285Y-6387720D01*
X13083020Y-6423293D01*
X13106581Y-6429458D01*
X13182039Y-6354000D01*
X13182039Y-6389921D01*
X13124542Y-6447419D01*
X13130707Y-6470980D01*
X13180748Y-6488593D01*
X13233720Y-6485715D01*
X13269293Y-6470980D01*
X13275458Y-6447419D01*
X13275458Y-6731234D01*
X13265611Y-6754950D01*
X13265557Y-6815982D01*
X13288864Y-6872390D01*
X13331983Y-6915584D01*
X13388350Y-6938989D01*
X13449382Y-6939043D01*
X13505790Y-6915736D01*
X13548984Y-6872617D01*
X13572389Y-6816250D01*
X13572443Y-6755218D01*
X13549136Y-6698810D01*
X13507900Y-6657503D01*
X13507900Y-6177824D01*
X13654862Y-6030862D01*
X13660105Y-6023015D01*
X13671030Y-6018501D01*
X13710363Y-5979237D01*
X13731676Y-5927910D01*
X13731724Y-5872334D01*
X13731724Y-6332236D01*
X13721458Y-6342502D01*
X13721458Y-6306581D01*
X13715293Y-6283020D01*
X13665252Y-6265407D01*
X13612280Y-6268285D01*
X13576707Y-6283020D01*
X13570542Y-6306581D01*
X13646000Y-6382039D01*
X13721458Y-6306581D01*
X13721458Y-6342502D01*
X13663960Y-6400000D01*
X13739419Y-6475458D01*
X13762980Y-6469293D01*
X13780593Y-6419252D01*
X13780593Y-7060284D01*
X13721458Y-7119418D01*
X13721458Y-6493419D01*
X13646000Y-6417960D01*
X13628039Y-6435921D01*
X13628039Y-6400000D01*
X13552581Y-6324542D01*
X13529020Y-6330707D01*
X13511407Y-6380748D01*
X13514285Y-6433720D01*
X13529020Y-6469293D01*
X13552581Y-6475458D01*
X13628039Y-6400000D01*
X13628039Y-6435921D01*
X13570542Y-6493419D01*
X13576707Y-6516980D01*
X13626748Y-6534593D01*
X13679720Y-6531715D01*
X13715293Y-6516980D01*
X13721458Y-6493419D01*
X13721458Y-7119418D01*
X13446668Y-7394208D01*
X13388618Y-7394157D01*
X13332210Y-7417464D01*
X13289016Y-7460583D01*
X13265611Y-7516950D01*
X13265557Y-7577982D01*
X13283316Y-7620961D01*
X12967138Y-7937138D01*
X12947867Y-7965979D01*
X12941100Y-8000000D01*
X12941100Y-8414176D01*
X12807620Y-8547657D01*
X12773591Y-8547627D01*
X12724562Y-8567885D01*
X12687017Y-8605365D01*
X12666673Y-8654359D01*
X12666627Y-8707409D01*
X12686885Y-8756438D01*
X12711100Y-8780695D01*
X12711100Y-8800000D01*
X12714918Y-8819194D01*
X12521444Y-8625720D01*
X12513115Y-8605562D01*
X12475635Y-8568017D01*
X12426641Y-8547673D01*
X12373591Y-8547627D01*
X12324562Y-8567885D01*
X12287017Y-8605365D01*
X12266673Y-8654359D01*
X12266627Y-8707409D01*
X12286885Y-8756438D01*
X12324365Y-8793983D01*
X12373359Y-8814327D01*
X12426409Y-8814373D01*
X12449223Y-8804946D01*
X12748994Y-9104718D01*
X12748256Y-9108400D01*
X12748256Y-9311600D01*
X12752954Y-9335812D01*
X12766933Y-9357093D01*
X12788036Y-9371338D01*
X12813000Y-9376344D01*
X12993000Y-9376344D01*
X13017212Y-9371646D01*
X13038493Y-9357667D01*
X13052738Y-9336564D01*
X13052878Y-9335863D01*
X13060162Y-9343719D01*
X13118705Y-9370598D01*
X13144300Y-9358737D01*
X13144300Y-9222700D01*
X13142300Y-9222700D01*
X13142300Y-9197300D01*
X13144300Y-9197300D01*
X13144300Y-9195300D01*
X13169700Y-9195300D01*
X13169700Y-9197300D01*
X13305684Y-9197300D01*
X13317597Y-9171706D01*
X13297638Y-9123518D01*
X13253838Y-9076281D01*
X13195295Y-9049402D01*
X13169700Y-9061263D01*
X13169700Y-9048900D01*
X13326176Y-9048900D01*
X13448256Y-9170980D01*
X13448256Y-9301600D01*
X13452954Y-9325812D01*
X13466933Y-9347093D01*
X13488036Y-9361338D01*
X13513000Y-9366344D01*
X13560620Y-9366344D01*
X13687138Y-9492862D01*
X13715979Y-9512133D01*
X13715979Y-9512133D01*
X13742710Y-9517450D01*
X13317597Y-9517450D01*
X13317597Y-9248294D01*
X13305684Y-9222700D01*
X13169700Y-9222700D01*
X13169700Y-9358737D01*
X13195295Y-9370598D01*
X13253838Y-9343719D01*
X13297638Y-9296482D01*
X13317597Y-9248294D01*
X13317597Y-9517450D01*
X12625985Y-9517450D01*
X12675671Y-9467851D01*
X12723508Y-9352645D01*
X12723617Y-9227902D01*
X12675981Y-9112613D01*
X12587851Y-9024329D01*
X12472645Y-8976492D01*
X12347902Y-8976383D01*
X12232613Y-9024019D01*
X12182550Y-9073995D01*
X12182550Y-6126003D01*
X12222149Y-6165671D01*
X12337355Y-6213508D01*
X12462098Y-6213617D01*
X12577387Y-6165981D01*
X12665671Y-6077851D01*
X12713508Y-5962645D01*
X12713617Y-5837902D01*
X12665981Y-5722613D01*
X12625988Y-5682550D01*
X21584032Y-5682550D01*
X21524329Y-5742149D01*
X21476492Y-5857355D01*
X21476383Y-5982098D01*
X21524019Y-6097387D01*
X21612149Y-6185671D01*
X21727355Y-6233508D01*
X21852098Y-6233617D01*
X21967387Y-6185981D01*
X22017450Y-6136005D01*
X22017450Y-9073997D01*
M02*
