G04 #@! TF.FileFunction,Copper,L1,Top,Signal*
%FSLAX45Y45*%
G04 Gerber Fmt 4.5, Leading zero omitted, Abs format (unit mm)*
G04 Created by KiCad (PCBNEW (2015-01-25 BZR 5388)-product) date Mo 03 Aug 2015 14:20:38 CEST*
%MOMM*%
G01*
G04 APERTURE LIST*
%ADD10C,0.150000*%
%ADD11R,1.800000X2.032000*%
%ADD12O,2.032000X2.032000*%
%ADD13C,5.001260*%
%ADD14C,1.397000*%
%ADD15R,1.524000X1.524000*%
%ADD16C,1.524000*%
%ADD17R,2.032000X1.727200*%
%ADD18O,2.032000X1.727200*%
%ADD19R,1.727200X2.032000*%
%ADD20O,1.727200X2.032000*%
%ADD21R,1.397000X1.397000*%
%ADD22C,1.798320*%
%ADD23C,0.508000*%
%ADD24C,0.254000*%
G04 APERTURE END LIST*
D10*
D11*
X20923000Y-9200000D03*
D12*
X21177000Y-9200000D03*
D11*
X18773000Y-9200000D03*
D12*
X19027000Y-9200000D03*
D11*
X18073000Y-9200000D03*
D12*
X18327000Y-9200000D03*
D11*
X16273000Y-9200000D03*
D12*
X16527000Y-9200000D03*
D11*
X13603000Y-9200000D03*
D12*
X13857000Y-9200000D03*
D11*
X12903000Y-9210000D03*
D12*
X13157000Y-9210000D03*
D13*
X21790000Y-5920000D03*
X12410000Y-9290000D03*
X21800000Y-9300000D03*
X12400000Y-5900000D03*
D14*
X14154000Y-6400000D03*
X13646000Y-6400000D03*
X13200000Y-5846000D03*
X13200000Y-6354000D03*
D15*
X14608000Y-5900000D03*
D16*
X13592000Y-5900000D03*
D17*
X15600000Y-8616000D03*
D18*
X15600000Y-8362000D03*
X15600000Y-8108000D03*
X15600000Y-7854000D03*
X15600000Y-7600000D03*
X15600000Y-7346000D03*
X15600000Y-7092000D03*
X15600000Y-6838000D03*
X15600000Y-6584000D03*
D17*
X17600000Y-8616000D03*
D18*
X17600000Y-8362000D03*
X17600000Y-8108000D03*
X17600000Y-7854000D03*
X17600000Y-7600000D03*
X17600000Y-7346000D03*
X17600000Y-7092000D03*
X17600000Y-6838000D03*
X17600000Y-6584000D03*
D19*
X14319000Y-9200000D03*
D20*
X14573000Y-9200000D03*
X14827000Y-9200000D03*
X15081000Y-9200000D03*
D17*
X19600000Y-8616000D03*
D18*
X19600000Y-8362000D03*
X19600000Y-8108000D03*
X19600000Y-7854000D03*
X19600000Y-7600000D03*
X19600000Y-7346000D03*
X19600000Y-7092000D03*
X19600000Y-6838000D03*
X19600000Y-6584000D03*
D17*
X21600000Y-8616000D03*
D18*
X21600000Y-8362000D03*
X21600000Y-8108000D03*
X21600000Y-7854000D03*
X21600000Y-7600000D03*
X21600000Y-7346000D03*
X21600000Y-7092000D03*
X21600000Y-6838000D03*
X21600000Y-6584000D03*
D21*
X12827000Y-7427000D03*
D14*
X12573000Y-7427000D03*
X12573000Y-7173000D03*
D21*
X12827000Y-6627000D03*
D14*
X12573000Y-6627000D03*
X12573000Y-6373000D03*
X12400000Y-7919000D03*
X12400000Y-8681000D03*
X12800000Y-7919000D03*
X12800000Y-8681000D03*
D22*
X14181000Y-8563600D03*
X14181000Y-8055600D03*
X14181000Y-7547600D03*
X13419000Y-8563600D03*
X13419000Y-8055600D03*
X13419000Y-7547600D03*
X14181000Y-6785600D03*
X13419000Y-6785600D03*
D19*
X19916000Y-9200000D03*
D20*
X20170000Y-9200000D03*
X20424000Y-9200000D03*
D23*
X19600000Y-8616000D02*
X19600000Y-8640000D01*
X15600000Y-8616000D02*
X15600000Y-8650000D01*
X15600000Y-8108000D02*
X15948000Y-8108000D01*
X16273000Y-8433000D02*
X16273000Y-9200000D01*
X15948000Y-8108000D02*
X16273000Y-8433000D01*
X14181000Y-8563600D02*
X15056400Y-8563600D01*
X15462000Y-6838000D02*
X15600000Y-6838000D01*
X15360000Y-6940000D02*
X15462000Y-6838000D01*
X15360000Y-8260000D02*
X15360000Y-6940000D01*
X15056400Y-8563600D02*
X15360000Y-8260000D01*
X18073000Y-9200000D02*
X18073000Y-8433000D01*
X17748000Y-8108000D02*
X17600000Y-8108000D01*
X18073000Y-8433000D02*
X17748000Y-8108000D01*
X14319000Y-9200000D02*
X14320000Y-9200000D01*
X14320000Y-9200000D02*
X14510000Y-9390000D01*
X17600000Y-8990000D02*
X17600000Y-8616000D01*
X17200000Y-9390000D02*
X17600000Y-8990000D01*
X14510000Y-9390000D02*
X17200000Y-9390000D01*
X17600000Y-8630000D02*
X17600000Y-8616000D01*
X14319000Y-9200000D02*
X14319000Y-9171000D01*
X17544000Y-8616000D02*
X17600000Y-8616000D01*
X18773000Y-9200000D02*
X18773000Y-9167000D01*
X18773000Y-9167000D02*
X19240000Y-8700000D01*
X19240000Y-8468000D02*
X19600000Y-8108000D01*
X19240000Y-8700000D02*
X19240000Y-8468000D01*
X17600000Y-7600000D02*
X17760000Y-7600000D01*
X18440000Y-8930000D02*
X18710000Y-9200000D01*
X18440000Y-8280000D02*
X18440000Y-8930000D01*
X17760000Y-7600000D02*
X18440000Y-8280000D01*
X18710000Y-9200000D02*
X18773000Y-9200000D01*
X20923000Y-9200000D02*
X20923000Y-8047000D01*
X21320000Y-7650000D02*
X21550000Y-7650000D01*
X20923000Y-8047000D02*
X21320000Y-7650000D01*
X21550000Y-7650000D02*
X21600000Y-7600000D01*
X21600000Y-7092000D02*
X21600000Y-7100000D01*
X21600000Y-7100000D02*
X20700000Y-8000000D01*
X20136000Y-9420000D02*
X19916000Y-9200000D01*
X20520000Y-9420000D02*
X20136000Y-9420000D01*
X20700000Y-9240000D02*
X20520000Y-9420000D01*
X20700000Y-8000000D02*
X20700000Y-9240000D01*
X21558000Y-7050000D02*
X21600000Y-7092000D01*
X21600000Y-6838000D02*
X21472000Y-6838000D01*
X20170000Y-8140000D02*
X20170000Y-9200000D01*
X21472000Y-6838000D02*
X20170000Y-8140000D01*
X15600000Y-7600000D02*
X15680000Y-7600000D01*
X15680000Y-7600000D02*
X15870000Y-7410000D01*
X15870000Y-7410000D02*
X15870000Y-6700000D01*
X15870000Y-6700000D02*
X16250000Y-6320000D01*
X16250000Y-6320000D02*
X19082000Y-6320000D01*
X19082000Y-6320000D02*
X19600000Y-6838000D01*
D24*
G36*
X21507037Y-6965000D02*
X21475559Y-6986033D01*
X21443073Y-7034651D01*
X21431666Y-7092000D01*
X21440062Y-7134214D01*
X20637138Y-7937138D01*
X20617867Y-7965979D01*
X20611100Y-8000000D01*
X20611100Y-9203176D01*
X20569524Y-9244753D01*
X20572518Y-9236191D01*
X20572518Y-9163809D01*
X20553195Y-9108568D01*
X20514204Y-9064927D01*
X20461479Y-9039529D01*
X20459903Y-9039264D01*
X20436700Y-9051378D01*
X20436700Y-9187300D01*
X20558092Y-9187300D01*
X20572518Y-9163809D01*
X20572518Y-9236191D01*
X20558092Y-9212700D01*
X20436700Y-9212700D01*
X20436700Y-9214700D01*
X20411300Y-9214700D01*
X20411300Y-9212700D01*
X20409300Y-9212700D01*
X20409300Y-9187300D01*
X20411300Y-9187300D01*
X20411300Y-9051378D01*
X20388097Y-9039264D01*
X20386521Y-9039529D01*
X20333796Y-9064927D01*
X20296646Y-9106507D01*
X20275967Y-9075559D01*
X20258900Y-9064155D01*
X20258900Y-8176824D01*
X21485269Y-6950455D01*
X21507037Y-6965000D01*
X21507037Y-6965000D01*
G37*
X21507037Y-6965000D02*
X21475559Y-6986033D01*
X21443073Y-7034651D01*
X21431666Y-7092000D01*
X21440062Y-7134214D01*
X20637138Y-7937138D01*
X20617867Y-7965979D01*
X20611100Y-8000000D01*
X20611100Y-9203176D01*
X20569524Y-9244753D01*
X20572518Y-9236191D01*
X20572518Y-9163809D01*
X20553195Y-9108568D01*
X20514204Y-9064927D01*
X20461479Y-9039529D01*
X20459903Y-9039264D01*
X20436700Y-9051378D01*
X20436700Y-9187300D01*
X20558092Y-9187300D01*
X20572518Y-9163809D01*
X20572518Y-9236191D01*
X20558092Y-9212700D01*
X20436700Y-9212700D01*
X20436700Y-9214700D01*
X20411300Y-9214700D01*
X20411300Y-9212700D01*
X20409300Y-9212700D01*
X20409300Y-9187300D01*
X20411300Y-9187300D01*
X20411300Y-9051378D01*
X20388097Y-9039264D01*
X20386521Y-9039529D01*
X20333796Y-9064927D01*
X20296646Y-9106507D01*
X20275967Y-9075559D01*
X20258900Y-9064155D01*
X20258900Y-8176824D01*
X21485269Y-6950455D01*
X21507037Y-6965000D01*
G36*
X22017450Y-9073997D02*
X21977851Y-9034329D01*
X21862645Y-8986492D01*
X21768335Y-8986409D01*
X21768335Y-8108000D01*
X21768335Y-7600000D01*
X21756927Y-7542651D01*
X21724442Y-7494033D01*
X21693493Y-7473354D01*
X21735073Y-7436204D01*
X21760471Y-7383479D01*
X21760736Y-7381903D01*
X21748622Y-7358700D01*
X21612700Y-7358700D01*
X21612700Y-7360700D01*
X21587300Y-7360700D01*
X21587300Y-7358700D01*
X21585300Y-7358700D01*
X21585300Y-7333300D01*
X21587300Y-7333300D01*
X21587300Y-7331300D01*
X21612700Y-7331300D01*
X21612700Y-7333300D01*
X21748622Y-7333300D01*
X21760736Y-7310097D01*
X21760471Y-7308521D01*
X21735073Y-7255796D01*
X21693493Y-7218646D01*
X21724442Y-7197967D01*
X21756927Y-7149349D01*
X21768335Y-7092000D01*
X21756927Y-7034651D01*
X21724442Y-6986033D01*
X21692963Y-6965000D01*
X21724442Y-6943967D01*
X21756927Y-6895349D01*
X21768335Y-6838000D01*
X21756927Y-6780651D01*
X21724442Y-6732033D01*
X21692963Y-6711000D01*
X21724442Y-6689967D01*
X21756927Y-6641349D01*
X21768335Y-6584000D01*
X21756927Y-6526651D01*
X21724442Y-6478033D01*
X21675823Y-6445547D01*
X21618475Y-6434140D01*
X21581526Y-6434140D01*
X21524177Y-6445547D01*
X21475559Y-6478033D01*
X21443073Y-6526651D01*
X21431666Y-6584000D01*
X21443073Y-6641349D01*
X21475559Y-6689967D01*
X21507037Y-6711000D01*
X21475559Y-6732033D01*
X21462952Y-6750900D01*
X21437980Y-6755867D01*
X21409138Y-6775138D01*
X20107138Y-8077138D01*
X20087867Y-8105979D01*
X20081100Y-8140000D01*
X20081100Y-9064155D01*
X20064033Y-9075559D01*
X20062978Y-9077137D01*
X20062406Y-9074188D01*
X20048427Y-9052907D01*
X20027324Y-9038662D01*
X20002360Y-9033656D01*
X19829640Y-9033656D01*
X19805428Y-9038354D01*
X19784147Y-9052333D01*
X19769902Y-9073436D01*
X19768335Y-9081254D01*
X19768335Y-8108000D01*
X19768335Y-7600000D01*
X19768335Y-7092000D01*
X19756927Y-7034651D01*
X19724442Y-6986033D01*
X19692963Y-6965000D01*
X19724442Y-6943967D01*
X19756927Y-6895349D01*
X19768335Y-6838000D01*
X19756927Y-6780651D01*
X19724442Y-6732033D01*
X19693493Y-6711354D01*
X19735073Y-6674204D01*
X19760471Y-6621479D01*
X19760736Y-6619903D01*
X19760736Y-6548097D01*
X19760471Y-6546521D01*
X19735073Y-6493796D01*
X19691432Y-6454805D01*
X19636191Y-6435482D01*
X19612700Y-6449908D01*
X19612700Y-6571300D01*
X19748622Y-6571300D01*
X19760736Y-6548097D01*
X19760736Y-6619903D01*
X19748622Y-6596700D01*
X19612700Y-6596700D01*
X19612700Y-6598700D01*
X19587300Y-6598700D01*
X19587300Y-6596700D01*
X19585300Y-6596700D01*
X19585300Y-6571300D01*
X19587300Y-6571300D01*
X19587300Y-6449908D01*
X19563809Y-6435482D01*
X19508568Y-6454805D01*
X19464927Y-6493796D01*
X19439529Y-6546521D01*
X19439264Y-6548097D01*
X19443026Y-6555302D01*
X19144862Y-6257138D01*
X19116021Y-6237867D01*
X19082000Y-6231100D01*
X16250000Y-6231100D01*
X16215979Y-6237867D01*
X16187138Y-6257138D01*
X15807138Y-6637138D01*
X15787867Y-6665979D01*
X15781100Y-6700000D01*
X15781100Y-7373176D01*
X15750873Y-7403403D01*
X15760471Y-7383479D01*
X15760736Y-7381903D01*
X15748622Y-7358700D01*
X15612700Y-7358700D01*
X15612700Y-7360700D01*
X15587300Y-7360700D01*
X15587300Y-7358700D01*
X15585300Y-7358700D01*
X15585300Y-7333300D01*
X15587300Y-7333300D01*
X15587300Y-7331300D01*
X15612700Y-7331300D01*
X15612700Y-7333300D01*
X15748622Y-7333300D01*
X15760736Y-7310097D01*
X15760471Y-7308521D01*
X15735073Y-7255796D01*
X15693493Y-7218646D01*
X15724441Y-7197967D01*
X15756927Y-7149349D01*
X15768334Y-7092000D01*
X15756927Y-7034651D01*
X15724441Y-6986033D01*
X15692963Y-6965000D01*
X15724441Y-6943967D01*
X15756927Y-6895349D01*
X15768334Y-6838000D01*
X15756927Y-6780651D01*
X15724441Y-6732033D01*
X15693493Y-6711354D01*
X15735073Y-6674204D01*
X15760471Y-6621479D01*
X15760736Y-6619903D01*
X15760736Y-6548097D01*
X15760471Y-6546521D01*
X15735073Y-6493796D01*
X15691432Y-6454805D01*
X15636191Y-6435482D01*
X15612700Y-6449908D01*
X15612700Y-6571300D01*
X15748622Y-6571300D01*
X15760736Y-6548097D01*
X15760736Y-6619903D01*
X15748622Y-6596700D01*
X15612700Y-6596700D01*
X15612700Y-6598700D01*
X15587300Y-6598700D01*
X15587300Y-6596700D01*
X15587300Y-6571300D01*
X15587300Y-6449908D01*
X15563809Y-6435482D01*
X15508568Y-6454805D01*
X15464927Y-6493796D01*
X15439529Y-6546521D01*
X15439264Y-6548097D01*
X15451378Y-6571300D01*
X15587300Y-6571300D01*
X15587300Y-6596700D01*
X15451378Y-6596700D01*
X15439264Y-6619903D01*
X15439529Y-6621479D01*
X15464927Y-6674204D01*
X15506507Y-6711354D01*
X15475558Y-6732033D01*
X15464155Y-6749100D01*
X15462000Y-6749100D01*
X15427979Y-6755867D01*
X15399138Y-6775138D01*
X15297138Y-6877138D01*
X15277867Y-6905979D01*
X15271100Y-6940000D01*
X15271100Y-8223176D01*
X15019576Y-8474700D01*
X14748944Y-8474700D01*
X14748944Y-5976200D01*
X14748944Y-5823800D01*
X14744246Y-5799588D01*
X14730267Y-5778307D01*
X14709164Y-5764062D01*
X14684200Y-5759056D01*
X14531800Y-5759056D01*
X14507588Y-5763754D01*
X14486307Y-5777733D01*
X14472062Y-5798836D01*
X14467056Y-5823800D01*
X14467056Y-5976200D01*
X14471754Y-6000412D01*
X14485733Y-6021693D01*
X14506836Y-6035938D01*
X14531800Y-6040944D01*
X14684200Y-6040944D01*
X14708412Y-6036246D01*
X14729693Y-6022267D01*
X14743938Y-6001164D01*
X14748944Y-5976200D01*
X14748944Y-8474700D01*
X14334443Y-8474700D01*
X14334443Y-8025218D01*
X14334443Y-7517218D01*
X14334443Y-6755218D01*
X14311136Y-6698810D01*
X14287373Y-6675006D01*
X14287373Y-6373591D01*
X14267115Y-6324562D01*
X14229635Y-6287017D01*
X14180641Y-6266673D01*
X14127591Y-6266627D01*
X14078562Y-6286885D01*
X14041017Y-6324365D01*
X14020673Y-6373359D01*
X14020627Y-6426409D01*
X14040885Y-6475438D01*
X14078365Y-6512983D01*
X14127359Y-6533327D01*
X14180409Y-6533373D01*
X14229438Y-6513115D01*
X14266983Y-6475635D01*
X14287327Y-6426641D01*
X14287373Y-6373591D01*
X14287373Y-6675006D01*
X14268017Y-6655616D01*
X14211650Y-6632211D01*
X14150618Y-6632157D01*
X14094210Y-6655464D01*
X14051016Y-6698583D01*
X14027611Y-6754950D01*
X14027557Y-6815982D01*
X14050864Y-6872390D01*
X14093983Y-6915584D01*
X14150350Y-6938989D01*
X14211382Y-6939043D01*
X14267790Y-6915736D01*
X14310984Y-6872617D01*
X14334389Y-6816250D01*
X14334443Y-6755218D01*
X14334443Y-7517218D01*
X14311136Y-7460810D01*
X14268017Y-7417616D01*
X14211650Y-7394211D01*
X14150618Y-7394157D01*
X14094210Y-7417464D01*
X14051016Y-7460583D01*
X14027611Y-7516950D01*
X14027557Y-7577982D01*
X14050864Y-7634390D01*
X14093983Y-7677584D01*
X14150350Y-7700989D01*
X14211382Y-7701043D01*
X14267790Y-7677736D01*
X14310984Y-7634617D01*
X14334389Y-7578250D01*
X14334443Y-7517218D01*
X14334443Y-8025218D01*
X14311136Y-7968810D01*
X14268017Y-7925616D01*
X14211650Y-7902211D01*
X14150618Y-7902157D01*
X14094210Y-7925464D01*
X14051016Y-7968583D01*
X14027611Y-8024950D01*
X14027557Y-8085982D01*
X14050864Y-8142390D01*
X14093983Y-8185584D01*
X14150350Y-8208989D01*
X14211382Y-8209043D01*
X14267790Y-8185736D01*
X14310984Y-8142617D01*
X14334389Y-8086250D01*
X14334443Y-8025218D01*
X14334443Y-8474700D01*
X14309029Y-8474700D01*
X14268017Y-8433616D01*
X14211650Y-8410211D01*
X14150618Y-8410157D01*
X14094210Y-8433464D01*
X14051016Y-8476583D01*
X14027611Y-8532950D01*
X14027557Y-8593982D01*
X14050864Y-8650390D01*
X14093983Y-8693584D01*
X14150350Y-8716989D01*
X14211382Y-8717043D01*
X14267790Y-8693736D01*
X14309097Y-8652500D01*
X15056400Y-8652500D01*
X15090420Y-8645733D01*
X15090421Y-8645733D01*
X15119262Y-8626462D01*
X15422862Y-8322862D01*
X15442133Y-8294021D01*
X15448900Y-8260000D01*
X15448900Y-8174070D01*
X15475558Y-8213967D01*
X15506507Y-8234646D01*
X15464927Y-8271796D01*
X15439529Y-8324521D01*
X15439264Y-8326097D01*
X15451378Y-8349300D01*
X15587300Y-8349300D01*
X15587300Y-8347300D01*
X15612700Y-8347300D01*
X15612700Y-8349300D01*
X15748622Y-8349300D01*
X15760736Y-8326097D01*
X15760471Y-8324521D01*
X15735073Y-8271796D01*
X15693493Y-8234646D01*
X15724441Y-8213967D01*
X15735845Y-8196900D01*
X15911176Y-8196900D01*
X16184100Y-8469824D01*
X16184100Y-9033656D01*
X16183000Y-9033656D01*
X16158788Y-9038354D01*
X16137507Y-9052333D01*
X16123262Y-9073436D01*
X16118256Y-9098400D01*
X16118256Y-9301100D01*
X15766344Y-9301100D01*
X15766344Y-8702360D01*
X15766344Y-8529640D01*
X15761646Y-8505428D01*
X15747667Y-8484147D01*
X15726564Y-8469902D01*
X15717335Y-8468052D01*
X15735073Y-8452204D01*
X15760471Y-8399479D01*
X15760736Y-8397903D01*
X15748622Y-8374700D01*
X15612700Y-8374700D01*
X15612700Y-8376700D01*
X15587300Y-8376700D01*
X15587300Y-8374700D01*
X15451378Y-8374700D01*
X15439264Y-8397903D01*
X15439529Y-8399479D01*
X15464927Y-8452204D01*
X15482570Y-8467967D01*
X15474188Y-8469594D01*
X15452907Y-8483573D01*
X15438662Y-8504676D01*
X15433656Y-8529640D01*
X15433656Y-8702360D01*
X15438354Y-8726572D01*
X15452333Y-8747853D01*
X15473436Y-8762098D01*
X15498400Y-8767104D01*
X15701600Y-8767104D01*
X15725812Y-8762406D01*
X15747093Y-8748427D01*
X15761338Y-8727324D01*
X15766344Y-8702360D01*
X15766344Y-9301100D01*
X15201557Y-9301100D01*
X15210195Y-9291432D01*
X15229518Y-9236191D01*
X15229518Y-9163809D01*
X15210195Y-9108568D01*
X15171204Y-9064927D01*
X15118479Y-9039529D01*
X15116903Y-9039264D01*
X15093700Y-9051378D01*
X15093700Y-9187300D01*
X15215092Y-9187300D01*
X15229518Y-9163809D01*
X15229518Y-9236191D01*
X15215092Y-9212700D01*
X15093700Y-9212700D01*
X15093700Y-9214700D01*
X15068300Y-9214700D01*
X15068300Y-9212700D01*
X15066300Y-9212700D01*
X15066300Y-9187300D01*
X15068300Y-9187300D01*
X15068300Y-9051378D01*
X15045097Y-9039264D01*
X15043521Y-9039529D01*
X14990796Y-9064927D01*
X14953646Y-9106507D01*
X14932967Y-9075559D01*
X14884349Y-9043073D01*
X14827000Y-9031666D01*
X14769651Y-9043073D01*
X14721033Y-9075559D01*
X14700354Y-9106507D01*
X14663204Y-9064927D01*
X14610479Y-9039529D01*
X14608903Y-9039264D01*
X14585700Y-9051378D01*
X14585700Y-9187300D01*
X14587700Y-9187300D01*
X14587700Y-9212700D01*
X14585700Y-9212700D01*
X14585700Y-9214700D01*
X14560300Y-9214700D01*
X14560300Y-9212700D01*
X14558300Y-9212700D01*
X14558300Y-9187300D01*
X14560300Y-9187300D01*
X14560300Y-9051378D01*
X14537097Y-9039264D01*
X14535521Y-9039529D01*
X14482796Y-9064927D01*
X14467033Y-9082570D01*
X14465406Y-9074188D01*
X14451427Y-9052907D01*
X14430324Y-9038662D01*
X14405360Y-9033656D01*
X14232640Y-9033656D01*
X14208428Y-9038354D01*
X14187147Y-9052333D01*
X14172902Y-9073436D01*
X14167896Y-9098400D01*
X14167896Y-9301600D01*
X14172594Y-9325812D01*
X14186573Y-9347093D01*
X14207676Y-9361338D01*
X14232640Y-9366344D01*
X14360620Y-9366344D01*
X14447138Y-9452862D01*
X14475979Y-9472133D01*
X14475979Y-9472133D01*
X14510000Y-9478900D01*
X17200000Y-9478900D01*
X17234021Y-9472133D01*
X17234021Y-9472133D01*
X17262862Y-9452862D01*
X17662862Y-9052862D01*
X17682133Y-9024021D01*
X17688900Y-8990000D01*
X17688900Y-8767104D01*
X17701600Y-8767104D01*
X17725812Y-8762406D01*
X17747093Y-8748427D01*
X17761338Y-8727324D01*
X17766344Y-8702360D01*
X17766344Y-8529640D01*
X17761646Y-8505428D01*
X17747667Y-8484147D01*
X17726564Y-8469902D01*
X17717335Y-8468052D01*
X17735073Y-8452204D01*
X17760471Y-8399479D01*
X17760736Y-8397903D01*
X17748622Y-8374700D01*
X17612700Y-8374700D01*
X17612700Y-8376700D01*
X17587300Y-8376700D01*
X17587300Y-8374700D01*
X17451378Y-8374700D01*
X17439264Y-8397903D01*
X17439529Y-8399479D01*
X17464927Y-8452204D01*
X17482570Y-8467967D01*
X17474188Y-8469594D01*
X17452907Y-8483573D01*
X17438662Y-8504676D01*
X17433656Y-8529640D01*
X17433656Y-8702360D01*
X17438354Y-8726572D01*
X17452333Y-8747853D01*
X17473436Y-8762098D01*
X17498400Y-8767104D01*
X17511100Y-8767104D01*
X17511100Y-8953176D01*
X17163176Y-9301100D01*
X16654084Y-9301100D01*
X16667638Y-9286482D01*
X16687597Y-9238294D01*
X16687597Y-9161706D01*
X16667638Y-9113518D01*
X16623838Y-9066281D01*
X16565295Y-9039402D01*
X16539700Y-9051263D01*
X16539700Y-9187300D01*
X16675684Y-9187300D01*
X16687597Y-9161706D01*
X16687597Y-9238294D01*
X16675684Y-9212700D01*
X16539700Y-9212700D01*
X16539700Y-9214700D01*
X16514300Y-9214700D01*
X16514300Y-9212700D01*
X16512300Y-9212700D01*
X16512300Y-9187300D01*
X16514300Y-9187300D01*
X16514300Y-9051263D01*
X16488705Y-9039402D01*
X16430162Y-9066281D01*
X16422957Y-9074052D01*
X16409067Y-9052907D01*
X16387964Y-9038662D01*
X16363000Y-9033656D01*
X16361900Y-9033656D01*
X16361900Y-8433000D01*
X16355133Y-8398980D01*
X16355133Y-8398979D01*
X16335862Y-8370138D01*
X16010862Y-8045138D01*
X15982021Y-8025867D01*
X15948000Y-8019100D01*
X15735845Y-8019100D01*
X15724441Y-8002033D01*
X15693493Y-7981354D01*
X15735073Y-7944204D01*
X15760471Y-7891479D01*
X15760736Y-7889903D01*
X15748622Y-7866700D01*
X15612700Y-7866700D01*
X15612700Y-7868700D01*
X15587300Y-7868700D01*
X15587300Y-7866700D01*
X15585300Y-7866700D01*
X15585300Y-7841300D01*
X15587300Y-7841300D01*
X15587300Y-7839300D01*
X15612700Y-7839300D01*
X15612700Y-7841300D01*
X15748622Y-7841300D01*
X15760736Y-7818097D01*
X15760471Y-7816521D01*
X15735073Y-7763796D01*
X15693493Y-7726646D01*
X15724441Y-7705967D01*
X15756927Y-7657349D01*
X15759051Y-7646673D01*
X15932862Y-7472862D01*
X15952133Y-7444021D01*
X15952133Y-7444020D01*
X15958900Y-7410000D01*
X15958900Y-6736824D01*
X16286824Y-6408900D01*
X19045176Y-6408900D01*
X19438735Y-6802459D01*
X19431666Y-6838000D01*
X19443073Y-6895349D01*
X19475559Y-6943967D01*
X19507037Y-6965000D01*
X19475559Y-6986033D01*
X19443073Y-7034651D01*
X19431666Y-7092000D01*
X19443073Y-7149349D01*
X19475559Y-7197967D01*
X19506507Y-7218646D01*
X19464927Y-7255796D01*
X19439529Y-7308521D01*
X19439264Y-7310097D01*
X19451378Y-7333300D01*
X19587300Y-7333300D01*
X19587300Y-7331300D01*
X19612700Y-7331300D01*
X19612700Y-7333300D01*
X19748622Y-7333300D01*
X19760736Y-7310097D01*
X19760471Y-7308521D01*
X19735073Y-7255796D01*
X19693493Y-7218646D01*
X19724442Y-7197967D01*
X19756927Y-7149349D01*
X19768335Y-7092000D01*
X19768335Y-7600000D01*
X19756927Y-7542651D01*
X19724442Y-7494033D01*
X19693493Y-7473354D01*
X19735073Y-7436204D01*
X19760471Y-7383479D01*
X19760736Y-7381903D01*
X19748622Y-7358700D01*
X19612700Y-7358700D01*
X19612700Y-7360700D01*
X19587300Y-7360700D01*
X19587300Y-7358700D01*
X19451378Y-7358700D01*
X19439264Y-7381903D01*
X19439529Y-7383479D01*
X19464927Y-7436204D01*
X19506507Y-7473354D01*
X19475559Y-7494033D01*
X19443073Y-7542651D01*
X19431666Y-7600000D01*
X19443073Y-7657349D01*
X19475559Y-7705967D01*
X19506507Y-7726646D01*
X19464927Y-7763796D01*
X19439529Y-7816521D01*
X19439264Y-7818097D01*
X19451378Y-7841300D01*
X19587300Y-7841300D01*
X19587300Y-7839300D01*
X19612700Y-7839300D01*
X19612700Y-7841300D01*
X19748622Y-7841300D01*
X19760736Y-7818097D01*
X19760471Y-7816521D01*
X19735073Y-7763796D01*
X19693493Y-7726646D01*
X19724442Y-7705967D01*
X19756927Y-7657349D01*
X19768335Y-7600000D01*
X19768335Y-8108000D01*
X19756927Y-8050651D01*
X19724442Y-8002033D01*
X19693493Y-7981354D01*
X19735073Y-7944204D01*
X19760471Y-7891479D01*
X19760736Y-7889903D01*
X19748622Y-7866700D01*
X19612700Y-7866700D01*
X19612700Y-7868700D01*
X19587300Y-7868700D01*
X19587300Y-7866700D01*
X19451378Y-7866700D01*
X19439264Y-7889903D01*
X19439529Y-7891479D01*
X19464927Y-7944204D01*
X19506507Y-7981354D01*
X19475559Y-8002033D01*
X19443073Y-8050651D01*
X19431666Y-8108000D01*
X19438735Y-8143541D01*
X19177138Y-8405138D01*
X19157867Y-8433979D01*
X19151100Y-8468000D01*
X19151100Y-8663176D01*
X18780620Y-9033656D01*
X18683000Y-9033656D01*
X18671593Y-9035869D01*
X18528900Y-8893176D01*
X18528900Y-8280000D01*
X18522133Y-8245979D01*
X18522133Y-8245979D01*
X18502862Y-8217138D01*
X17822862Y-7537138D01*
X17794021Y-7517867D01*
X17768335Y-7512758D01*
X17768335Y-7092000D01*
X17756927Y-7034651D01*
X17724442Y-6986033D01*
X17692963Y-6965000D01*
X17724442Y-6943967D01*
X17756927Y-6895349D01*
X17768335Y-6838000D01*
X17756927Y-6780651D01*
X17724442Y-6732033D01*
X17692963Y-6711000D01*
X17724442Y-6689967D01*
X17756927Y-6641349D01*
X17768335Y-6584000D01*
X17756927Y-6526651D01*
X17724442Y-6478033D01*
X17675823Y-6445547D01*
X17618475Y-6434140D01*
X17581526Y-6434140D01*
X17524177Y-6445547D01*
X17475559Y-6478033D01*
X17443073Y-6526651D01*
X17431666Y-6584000D01*
X17443073Y-6641349D01*
X17475559Y-6689967D01*
X17507037Y-6711000D01*
X17475559Y-6732033D01*
X17443073Y-6780651D01*
X17431666Y-6838000D01*
X17443073Y-6895349D01*
X17475559Y-6943967D01*
X17507037Y-6965000D01*
X17475559Y-6986033D01*
X17443073Y-7034651D01*
X17431666Y-7092000D01*
X17443073Y-7149349D01*
X17475559Y-7197967D01*
X17506507Y-7218646D01*
X17464927Y-7255796D01*
X17439529Y-7308521D01*
X17439264Y-7310097D01*
X17451378Y-7333300D01*
X17587300Y-7333300D01*
X17587300Y-7331300D01*
X17612700Y-7331300D01*
X17612700Y-7333300D01*
X17748622Y-7333300D01*
X17760736Y-7310097D01*
X17760471Y-7308521D01*
X17735073Y-7255796D01*
X17693493Y-7218646D01*
X17724442Y-7197967D01*
X17756927Y-7149349D01*
X17768335Y-7092000D01*
X17768335Y-7512758D01*
X17760000Y-7511100D01*
X17735845Y-7511100D01*
X17724442Y-7494033D01*
X17693493Y-7473354D01*
X17735073Y-7436204D01*
X17760471Y-7383479D01*
X17760736Y-7381903D01*
X17748622Y-7358700D01*
X17612700Y-7358700D01*
X17612700Y-7360700D01*
X17587300Y-7360700D01*
X17587300Y-7358700D01*
X17451378Y-7358700D01*
X17439264Y-7381903D01*
X17439529Y-7383479D01*
X17464927Y-7436204D01*
X17506507Y-7473354D01*
X17475559Y-7494033D01*
X17443073Y-7542651D01*
X17431666Y-7600000D01*
X17443073Y-7657349D01*
X17475559Y-7705967D01*
X17506507Y-7726646D01*
X17464927Y-7763796D01*
X17439529Y-7816521D01*
X17439264Y-7818097D01*
X17451378Y-7841300D01*
X17587300Y-7841300D01*
X17587300Y-7839300D01*
X17612700Y-7839300D01*
X17612700Y-7841300D01*
X17748622Y-7841300D01*
X17760736Y-7818097D01*
X17760471Y-7816521D01*
X17735073Y-7763796D01*
X17693493Y-7726646D01*
X17724442Y-7705967D01*
X17730771Y-7696494D01*
X18351100Y-8316824D01*
X18351100Y-8930000D01*
X18357867Y-8964021D01*
X18377138Y-8992862D01*
X18618256Y-9233980D01*
X18618256Y-9301600D01*
X18622954Y-9325812D01*
X18636933Y-9347093D01*
X18658036Y-9361338D01*
X18683000Y-9366344D01*
X18863000Y-9366344D01*
X18887212Y-9361646D01*
X18908493Y-9347667D01*
X18922738Y-9326564D01*
X18922878Y-9325863D01*
X18930162Y-9333719D01*
X18988705Y-9360598D01*
X19014300Y-9348737D01*
X19014300Y-9212700D01*
X19012300Y-9212700D01*
X19012300Y-9187300D01*
X19014300Y-9187300D01*
X19014300Y-9185300D01*
X19039700Y-9185300D01*
X19039700Y-9187300D01*
X19175684Y-9187300D01*
X19187598Y-9161706D01*
X19167639Y-9113518D01*
X19123838Y-9066281D01*
X19065295Y-9039402D01*
X19039700Y-9051263D01*
X19039700Y-9034900D01*
X19030824Y-9034900D01*
X19302862Y-8762862D01*
X19322133Y-8734021D01*
X19328900Y-8700000D01*
X19328900Y-8504824D01*
X19443026Y-8390698D01*
X19439264Y-8397903D01*
X19439529Y-8399479D01*
X19464927Y-8452204D01*
X19482570Y-8467967D01*
X19474188Y-8469594D01*
X19452907Y-8483573D01*
X19438662Y-8504676D01*
X19433656Y-8529640D01*
X19433656Y-8702360D01*
X19438354Y-8726572D01*
X19452333Y-8747853D01*
X19473436Y-8762098D01*
X19498400Y-8767104D01*
X19701600Y-8767104D01*
X19725812Y-8762406D01*
X19747093Y-8748427D01*
X19761338Y-8727324D01*
X19766344Y-8702360D01*
X19766344Y-8529640D01*
X19761646Y-8505428D01*
X19747667Y-8484147D01*
X19726564Y-8469902D01*
X19717335Y-8468052D01*
X19735073Y-8452204D01*
X19760471Y-8399479D01*
X19760736Y-8397903D01*
X19748622Y-8374700D01*
X19612700Y-8374700D01*
X19612700Y-8376700D01*
X19587300Y-8376700D01*
X19587300Y-8374700D01*
X19585300Y-8374700D01*
X19585300Y-8349300D01*
X19587300Y-8349300D01*
X19587300Y-8347300D01*
X19612700Y-8347300D01*
X19612700Y-8349300D01*
X19748622Y-8349300D01*
X19760736Y-8326097D01*
X19760471Y-8324521D01*
X19735073Y-8271796D01*
X19693493Y-8234646D01*
X19724442Y-8213967D01*
X19756927Y-8165349D01*
X19768335Y-8108000D01*
X19768335Y-9081254D01*
X19764896Y-9098400D01*
X19764896Y-9301600D01*
X19769594Y-9325812D01*
X19783573Y-9347093D01*
X19804676Y-9361338D01*
X19829640Y-9366344D01*
X19956620Y-9366344D01*
X20073138Y-9482862D01*
X20101979Y-9502133D01*
X20101980Y-9502133D01*
X20136000Y-9508900D01*
X20520000Y-9508900D01*
X20554021Y-9502133D01*
X20554021Y-9502133D01*
X20582862Y-9482862D01*
X20762862Y-9302862D01*
X20768256Y-9294789D01*
X20768256Y-9301600D01*
X20772954Y-9325812D01*
X20786933Y-9347093D01*
X20808036Y-9361338D01*
X20833000Y-9366344D01*
X21013000Y-9366344D01*
X21037212Y-9361646D01*
X21058493Y-9347667D01*
X21072738Y-9326564D01*
X21072878Y-9325863D01*
X21080162Y-9333719D01*
X21138705Y-9360598D01*
X21164300Y-9348737D01*
X21164300Y-9212700D01*
X21162300Y-9212700D01*
X21162300Y-9187300D01*
X21164300Y-9187300D01*
X21164300Y-9051263D01*
X21138705Y-9039402D01*
X21080162Y-9066281D01*
X21072957Y-9074052D01*
X21059067Y-9052907D01*
X21037964Y-9038662D01*
X21013000Y-9033656D01*
X21011900Y-9033656D01*
X21011900Y-8083824D01*
X21356824Y-7738900D01*
X21492792Y-7738900D01*
X21464927Y-7763796D01*
X21439529Y-7816521D01*
X21439264Y-7818097D01*
X21451378Y-7841300D01*
X21587300Y-7841300D01*
X21587300Y-7839300D01*
X21612700Y-7839300D01*
X21612700Y-7841300D01*
X21748622Y-7841300D01*
X21760736Y-7818097D01*
X21760471Y-7816521D01*
X21735073Y-7763796D01*
X21693493Y-7726646D01*
X21724442Y-7705967D01*
X21756927Y-7657349D01*
X21768335Y-7600000D01*
X21768335Y-8108000D01*
X21756927Y-8050651D01*
X21724442Y-8002033D01*
X21693493Y-7981354D01*
X21735073Y-7944204D01*
X21760471Y-7891479D01*
X21760736Y-7889903D01*
X21748622Y-7866700D01*
X21612700Y-7866700D01*
X21612700Y-7868700D01*
X21587300Y-7868700D01*
X21587300Y-7866700D01*
X21451378Y-7866700D01*
X21439264Y-7889903D01*
X21439529Y-7891479D01*
X21464927Y-7944204D01*
X21506507Y-7981354D01*
X21475559Y-8002033D01*
X21443073Y-8050651D01*
X21431666Y-8108000D01*
X21443073Y-8165349D01*
X21475559Y-8213967D01*
X21506507Y-8234646D01*
X21464927Y-8271796D01*
X21439529Y-8324521D01*
X21439264Y-8326097D01*
X21451378Y-8349300D01*
X21587300Y-8349300D01*
X21587300Y-8347300D01*
X21612700Y-8347300D01*
X21612700Y-8349300D01*
X21748622Y-8349300D01*
X21760736Y-8326097D01*
X21760471Y-8324521D01*
X21735073Y-8271796D01*
X21693493Y-8234646D01*
X21724442Y-8213967D01*
X21756927Y-8165349D01*
X21768335Y-8108000D01*
X21768335Y-8986409D01*
X21766344Y-8986408D01*
X21766344Y-8702360D01*
X21766344Y-8529640D01*
X21761646Y-8505428D01*
X21747667Y-8484147D01*
X21726564Y-8469902D01*
X21717335Y-8468052D01*
X21735073Y-8452204D01*
X21760471Y-8399479D01*
X21760736Y-8397903D01*
X21748622Y-8374700D01*
X21612700Y-8374700D01*
X21612700Y-8376700D01*
X21587300Y-8376700D01*
X21587300Y-8374700D01*
X21451378Y-8374700D01*
X21439264Y-8397903D01*
X21439529Y-8399479D01*
X21464927Y-8452204D01*
X21482570Y-8467967D01*
X21474188Y-8469594D01*
X21452907Y-8483573D01*
X21438662Y-8504676D01*
X21433656Y-8529640D01*
X21433656Y-8702360D01*
X21438354Y-8726572D01*
X21452333Y-8747853D01*
X21473436Y-8762098D01*
X21498400Y-8767104D01*
X21701600Y-8767104D01*
X21725812Y-8762406D01*
X21747093Y-8748427D01*
X21761338Y-8727324D01*
X21766344Y-8702360D01*
X21766344Y-8986408D01*
X21737902Y-8986383D01*
X21622613Y-9034019D01*
X21534329Y-9122149D01*
X21486492Y-9237355D01*
X21486383Y-9362098D01*
X21534019Y-9477387D01*
X21574012Y-9517450D01*
X21337598Y-9517450D01*
X21337598Y-9238294D01*
X21337598Y-9161706D01*
X21317639Y-9113518D01*
X21273838Y-9066281D01*
X21215295Y-9039402D01*
X21189700Y-9051263D01*
X21189700Y-9187300D01*
X21325684Y-9187300D01*
X21337598Y-9161706D01*
X21337598Y-9238294D01*
X21325684Y-9212700D01*
X21189700Y-9212700D01*
X21189700Y-9348737D01*
X21215295Y-9360598D01*
X21273838Y-9333719D01*
X21317639Y-9286482D01*
X21337598Y-9238294D01*
X21337598Y-9517450D01*
X19187598Y-9517450D01*
X19187598Y-9238294D01*
X19175684Y-9212700D01*
X19039700Y-9212700D01*
X19039700Y-9348737D01*
X19065295Y-9360598D01*
X19123838Y-9333719D01*
X19167639Y-9286482D01*
X19187598Y-9238294D01*
X19187598Y-9517450D01*
X18487598Y-9517450D01*
X18487598Y-9238294D01*
X18487598Y-9161706D01*
X18467639Y-9113518D01*
X18423838Y-9066281D01*
X18365295Y-9039402D01*
X18339700Y-9051263D01*
X18339700Y-9187300D01*
X18475684Y-9187300D01*
X18487598Y-9161706D01*
X18487598Y-9238294D01*
X18475684Y-9212700D01*
X18339700Y-9212700D01*
X18339700Y-9348737D01*
X18365295Y-9360598D01*
X18423838Y-9333719D01*
X18467639Y-9286482D01*
X18487598Y-9238294D01*
X18487598Y-9517450D01*
X18314300Y-9517450D01*
X18314300Y-9348737D01*
X18314300Y-9212700D01*
X18312300Y-9212700D01*
X18312300Y-9187300D01*
X18314300Y-9187300D01*
X18314300Y-9051263D01*
X18288705Y-9039402D01*
X18230162Y-9066281D01*
X18222957Y-9074052D01*
X18209067Y-9052907D01*
X18187964Y-9038662D01*
X18163000Y-9033656D01*
X18161900Y-9033656D01*
X18161900Y-8433000D01*
X18155133Y-8398980D01*
X18155133Y-8398979D01*
X18135862Y-8370138D01*
X17810862Y-8045138D01*
X17782021Y-8025867D01*
X17748000Y-8019100D01*
X17735845Y-8019100D01*
X17724442Y-8002033D01*
X17693493Y-7981354D01*
X17735073Y-7944204D01*
X17760471Y-7891479D01*
X17760736Y-7889903D01*
X17748622Y-7866700D01*
X17612700Y-7866700D01*
X17612700Y-7868700D01*
X17587300Y-7868700D01*
X17587300Y-7866700D01*
X17451378Y-7866700D01*
X17439264Y-7889903D01*
X17439529Y-7891479D01*
X17464927Y-7944204D01*
X17506507Y-7981354D01*
X17475559Y-8002033D01*
X17443073Y-8050651D01*
X17431666Y-8108000D01*
X17443073Y-8165349D01*
X17475559Y-8213967D01*
X17506507Y-8234646D01*
X17464927Y-8271796D01*
X17439529Y-8324521D01*
X17439264Y-8326097D01*
X17451378Y-8349300D01*
X17587300Y-8349300D01*
X17587300Y-8347300D01*
X17612700Y-8347300D01*
X17612700Y-8349300D01*
X17748622Y-8349300D01*
X17760736Y-8326097D01*
X17760471Y-8324521D01*
X17735073Y-8271796D01*
X17693493Y-8234646D01*
X17724442Y-8213967D01*
X17725964Y-8211688D01*
X17984100Y-8469824D01*
X17984100Y-9033656D01*
X17983000Y-9033656D01*
X17958788Y-9038354D01*
X17937507Y-9052333D01*
X17923262Y-9073436D01*
X17918256Y-9098400D01*
X17918256Y-9301600D01*
X17922954Y-9325812D01*
X17936933Y-9347093D01*
X17958036Y-9361338D01*
X17983000Y-9366344D01*
X18163000Y-9366344D01*
X18187212Y-9361646D01*
X18208493Y-9347667D01*
X18222738Y-9326564D01*
X18222878Y-9325863D01*
X18230162Y-9333719D01*
X18288705Y-9360598D01*
X18314300Y-9348737D01*
X18314300Y-9517450D01*
X14017597Y-9517450D01*
X14017597Y-9238294D01*
X14017597Y-9161706D01*
X13997638Y-9113518D01*
X13953838Y-9066281D01*
X13895295Y-9039402D01*
X13869700Y-9051263D01*
X13869700Y-9187300D01*
X14005684Y-9187300D01*
X14017597Y-9161706D01*
X14017597Y-9238294D01*
X14005684Y-9212700D01*
X13869700Y-9212700D01*
X13869700Y-9348737D01*
X13895295Y-9360598D01*
X13953838Y-9333719D01*
X13997638Y-9286482D01*
X14017597Y-9238294D01*
X14017597Y-9517450D01*
X13844300Y-9517450D01*
X13844300Y-9348737D01*
X13844300Y-9212700D01*
X13842300Y-9212700D01*
X13842300Y-9187300D01*
X13844300Y-9187300D01*
X13844300Y-9051263D01*
X13818705Y-9039402D01*
X13780593Y-9056901D01*
X13780593Y-6419252D01*
X13777715Y-6366280D01*
X13762980Y-6330707D01*
X13739419Y-6324542D01*
X13731724Y-6332236D01*
X13731724Y-5872334D01*
X13710501Y-5820970D01*
X13671237Y-5781637D01*
X13619910Y-5760324D01*
X13564334Y-5760276D01*
X13512970Y-5781499D01*
X13473637Y-5820763D01*
X13452324Y-5872090D01*
X13452276Y-5927666D01*
X13473499Y-5979030D01*
X13512763Y-6018363D01*
X13564090Y-6039676D01*
X13619666Y-6039724D01*
X13671030Y-6018501D01*
X13710363Y-5979237D01*
X13731676Y-5927910D01*
X13731724Y-5872334D01*
X13731724Y-6332236D01*
X13721458Y-6342502D01*
X13721458Y-6306581D01*
X13715293Y-6283020D01*
X13665252Y-6265407D01*
X13612280Y-6268285D01*
X13576707Y-6283020D01*
X13570542Y-6306581D01*
X13646000Y-6382039D01*
X13721458Y-6306581D01*
X13721458Y-6342502D01*
X13663960Y-6400000D01*
X13739419Y-6475458D01*
X13762980Y-6469293D01*
X13780593Y-6419252D01*
X13780593Y-9056901D01*
X13760162Y-9066281D01*
X13752957Y-9074052D01*
X13739067Y-9052907D01*
X13721458Y-9041021D01*
X13721458Y-6493419D01*
X13646000Y-6417960D01*
X13628039Y-6435921D01*
X13628039Y-6400000D01*
X13552581Y-6324542D01*
X13529020Y-6330707D01*
X13511407Y-6380748D01*
X13514285Y-6433720D01*
X13529020Y-6469293D01*
X13552581Y-6475458D01*
X13628039Y-6400000D01*
X13628039Y-6435921D01*
X13570542Y-6493419D01*
X13576707Y-6516980D01*
X13626748Y-6534593D01*
X13679720Y-6531715D01*
X13715293Y-6516980D01*
X13721458Y-6493419D01*
X13721458Y-9041021D01*
X13717964Y-9038662D01*
X13693000Y-9033656D01*
X13572443Y-9033656D01*
X13572443Y-8533218D01*
X13572443Y-8025218D01*
X13572443Y-7517218D01*
X13572443Y-6755218D01*
X13549136Y-6698810D01*
X13506017Y-6655616D01*
X13449650Y-6632211D01*
X13388618Y-6632157D01*
X13334593Y-6654480D01*
X13334593Y-6373252D01*
X13333373Y-6350803D01*
X13333373Y-5819591D01*
X13313115Y-5770562D01*
X13275635Y-5733017D01*
X13226641Y-5712673D01*
X13173591Y-5712627D01*
X13124562Y-5732885D01*
X13087017Y-5770365D01*
X13066673Y-5819359D01*
X13066627Y-5872409D01*
X13086885Y-5921438D01*
X13124365Y-5958983D01*
X13173359Y-5979327D01*
X13226409Y-5979373D01*
X13275438Y-5959115D01*
X13312983Y-5921635D01*
X13333327Y-5872641D01*
X13333373Y-5819591D01*
X13333373Y-6350803D01*
X13331715Y-6320280D01*
X13316980Y-6284707D01*
X13293419Y-6278542D01*
X13275458Y-6296502D01*
X13275458Y-6260581D01*
X13269293Y-6237020D01*
X13219252Y-6219407D01*
X13166280Y-6222285D01*
X13130707Y-6237020D01*
X13124542Y-6260581D01*
X13200000Y-6336039D01*
X13275458Y-6260581D01*
X13275458Y-6296502D01*
X13217960Y-6354000D01*
X13293419Y-6429458D01*
X13316980Y-6423293D01*
X13334593Y-6373252D01*
X13334593Y-6654480D01*
X13332210Y-6655464D01*
X13289016Y-6698583D01*
X13275458Y-6731234D01*
X13275458Y-6447419D01*
X13200000Y-6371960D01*
X13182039Y-6389921D01*
X13182039Y-6354000D01*
X13106581Y-6278542D01*
X13083020Y-6284707D01*
X13065407Y-6334748D01*
X13068285Y-6387720D01*
X13083020Y-6423293D01*
X13106581Y-6429458D01*
X13182039Y-6354000D01*
X13182039Y-6389921D01*
X13124542Y-6447419D01*
X13130707Y-6470980D01*
X13180748Y-6488593D01*
X13233720Y-6485715D01*
X13269293Y-6470980D01*
X13275458Y-6447419D01*
X13275458Y-6731234D01*
X13265611Y-6754950D01*
X13265557Y-6815982D01*
X13288864Y-6872390D01*
X13331983Y-6915584D01*
X13388350Y-6938989D01*
X13449382Y-6939043D01*
X13505790Y-6915736D01*
X13548984Y-6872617D01*
X13572389Y-6816250D01*
X13572443Y-6755218D01*
X13572443Y-7517218D01*
X13549136Y-7460810D01*
X13506017Y-7417616D01*
X13449650Y-7394211D01*
X13388618Y-7394157D01*
X13332210Y-7417464D01*
X13289016Y-7460583D01*
X13265611Y-7516950D01*
X13265557Y-7577982D01*
X13288864Y-7634390D01*
X13331983Y-7677584D01*
X13388350Y-7700989D01*
X13449382Y-7701043D01*
X13505790Y-7677736D01*
X13548984Y-7634617D01*
X13572389Y-7578250D01*
X13572443Y-7517218D01*
X13572443Y-8025218D01*
X13549136Y-7968810D01*
X13506017Y-7925616D01*
X13449650Y-7902211D01*
X13388618Y-7902157D01*
X13332210Y-7925464D01*
X13289016Y-7968583D01*
X13265611Y-8024950D01*
X13265557Y-8085982D01*
X13288864Y-8142390D01*
X13331983Y-8185584D01*
X13388350Y-8208989D01*
X13449382Y-8209043D01*
X13505790Y-8185736D01*
X13548984Y-8142617D01*
X13572389Y-8086250D01*
X13572443Y-8025218D01*
X13572443Y-8533218D01*
X13549136Y-8476810D01*
X13506017Y-8433616D01*
X13449650Y-8410211D01*
X13388618Y-8410157D01*
X13332210Y-8433464D01*
X13289016Y-8476583D01*
X13265611Y-8532950D01*
X13265557Y-8593982D01*
X13288864Y-8650390D01*
X13331983Y-8693584D01*
X13388350Y-8716989D01*
X13449382Y-8717043D01*
X13505790Y-8693736D01*
X13548984Y-8650617D01*
X13572389Y-8594250D01*
X13572443Y-8533218D01*
X13572443Y-9033656D01*
X13513000Y-9033656D01*
X13488788Y-9038354D01*
X13467507Y-9052333D01*
X13453262Y-9073436D01*
X13448256Y-9098400D01*
X13448256Y-9301600D01*
X13452954Y-9325812D01*
X13466933Y-9347093D01*
X13488036Y-9361338D01*
X13513000Y-9366344D01*
X13693000Y-9366344D01*
X13717212Y-9361646D01*
X13738493Y-9347667D01*
X13752738Y-9326564D01*
X13752878Y-9325863D01*
X13760162Y-9333719D01*
X13818705Y-9360598D01*
X13844300Y-9348737D01*
X13844300Y-9517450D01*
X13317597Y-9517450D01*
X13317597Y-9248294D01*
X13317597Y-9171706D01*
X13297638Y-9123518D01*
X13253838Y-9076281D01*
X13195295Y-9049402D01*
X13169700Y-9061263D01*
X13169700Y-9197300D01*
X13305684Y-9197300D01*
X13317597Y-9171706D01*
X13317597Y-9248294D01*
X13305684Y-9222700D01*
X13169700Y-9222700D01*
X13169700Y-9358737D01*
X13195295Y-9370598D01*
X13253838Y-9343719D01*
X13297638Y-9296482D01*
X13317597Y-9248294D01*
X13317597Y-9517450D01*
X13144300Y-9517450D01*
X13144300Y-9358737D01*
X13144300Y-9222700D01*
X13142300Y-9222700D01*
X13142300Y-9197300D01*
X13144300Y-9197300D01*
X13144300Y-9061263D01*
X13118705Y-9049402D01*
X13060162Y-9076281D01*
X13052957Y-9084052D01*
X13039067Y-9062907D01*
X13017964Y-9048662D01*
X12993000Y-9043656D01*
X12960350Y-9043656D01*
X12960350Y-7509481D01*
X12960350Y-7455575D01*
X12960350Y-7398425D01*
X12960350Y-7344519D01*
X12960350Y-6709481D01*
X12960350Y-6655575D01*
X12960350Y-6598425D01*
X12960350Y-6544519D01*
X12950683Y-6521180D01*
X12932820Y-6503317D01*
X12909481Y-6493650D01*
X12884219Y-6493650D01*
X12855575Y-6493650D01*
X12839700Y-6509525D01*
X12839700Y-6614300D01*
X12944475Y-6614300D01*
X12960350Y-6598425D01*
X12960350Y-6655575D01*
X12944475Y-6639700D01*
X12839700Y-6639700D01*
X12839700Y-6744475D01*
X12855575Y-6760350D01*
X12884219Y-6760350D01*
X12909481Y-6760350D01*
X12932820Y-6750683D01*
X12950683Y-6732820D01*
X12960350Y-6709481D01*
X12960350Y-7344519D01*
X12950683Y-7321180D01*
X12932820Y-7303317D01*
X12909481Y-7293650D01*
X12884219Y-7293650D01*
X12855575Y-7293650D01*
X12839700Y-7309525D01*
X12839700Y-7414300D01*
X12944475Y-7414300D01*
X12960350Y-7398425D01*
X12960350Y-7455575D01*
X12944475Y-7439700D01*
X12839700Y-7439700D01*
X12839700Y-7544475D01*
X12855575Y-7560350D01*
X12884219Y-7560350D01*
X12909481Y-7560350D01*
X12932820Y-7550683D01*
X12950683Y-7532820D01*
X12960350Y-7509481D01*
X12960350Y-9043656D01*
X12933373Y-9043656D01*
X12933373Y-8654591D01*
X12933373Y-7892591D01*
X12913115Y-7843562D01*
X12875635Y-7806017D01*
X12826641Y-7785673D01*
X12814300Y-7785662D01*
X12814300Y-7544475D01*
X12814300Y-7439700D01*
X12812300Y-7439700D01*
X12812300Y-7414300D01*
X12814300Y-7414300D01*
X12814300Y-7309525D01*
X12814300Y-6744475D01*
X12814300Y-6639700D01*
X12812300Y-6639700D01*
X12812300Y-6614300D01*
X12814300Y-6614300D01*
X12814300Y-6509525D01*
X12798425Y-6493650D01*
X12769781Y-6493650D01*
X12744519Y-6493650D01*
X12721180Y-6503317D01*
X12703317Y-6521180D01*
X12693650Y-6544519D01*
X12693650Y-6569799D01*
X12686115Y-6551562D01*
X12648635Y-6514017D01*
X12614855Y-6499991D01*
X12648438Y-6486115D01*
X12685983Y-6448635D01*
X12706327Y-6399641D01*
X12706373Y-6346591D01*
X12686115Y-6297562D01*
X12648635Y-6260017D01*
X12599641Y-6239673D01*
X12546591Y-6239627D01*
X12497562Y-6259885D01*
X12460017Y-6297365D01*
X12439673Y-6346359D01*
X12439627Y-6399409D01*
X12459885Y-6448438D01*
X12497365Y-6485983D01*
X12531145Y-6500009D01*
X12497562Y-6513885D01*
X12460017Y-6551365D01*
X12439673Y-6600359D01*
X12439627Y-6653409D01*
X12459885Y-6702438D01*
X12497365Y-6739983D01*
X12546359Y-6760327D01*
X12599409Y-6760373D01*
X12648438Y-6740115D01*
X12685983Y-6702635D01*
X12693650Y-6684170D01*
X12693650Y-6709481D01*
X12703317Y-6732820D01*
X12721180Y-6750683D01*
X12744519Y-6760350D01*
X12769781Y-6760350D01*
X12798425Y-6760350D01*
X12814300Y-6744475D01*
X12814300Y-7309525D01*
X12798425Y-7293650D01*
X12769781Y-7293650D01*
X12744519Y-7293650D01*
X12721180Y-7303317D01*
X12703317Y-7321180D01*
X12693650Y-7344519D01*
X12693650Y-7369799D01*
X12686115Y-7351562D01*
X12648635Y-7314017D01*
X12614855Y-7299991D01*
X12648438Y-7286115D01*
X12685983Y-7248635D01*
X12706327Y-7199641D01*
X12706373Y-7146591D01*
X12686115Y-7097562D01*
X12648635Y-7060017D01*
X12599641Y-7039673D01*
X12546591Y-7039627D01*
X12497562Y-7059885D01*
X12460017Y-7097365D01*
X12439673Y-7146359D01*
X12439627Y-7199409D01*
X12459885Y-7248438D01*
X12497365Y-7285983D01*
X12531145Y-7300009D01*
X12497562Y-7313885D01*
X12460017Y-7351365D01*
X12439673Y-7400359D01*
X12439627Y-7453409D01*
X12459885Y-7502438D01*
X12497365Y-7539983D01*
X12546359Y-7560327D01*
X12599409Y-7560373D01*
X12648438Y-7540115D01*
X12685983Y-7502635D01*
X12693650Y-7484170D01*
X12693650Y-7509481D01*
X12703317Y-7532820D01*
X12721180Y-7550683D01*
X12744519Y-7560350D01*
X12769781Y-7560350D01*
X12798425Y-7560350D01*
X12814300Y-7544475D01*
X12814300Y-7785662D01*
X12773591Y-7785627D01*
X12724562Y-7805885D01*
X12687017Y-7843365D01*
X12666673Y-7892359D01*
X12666627Y-7945409D01*
X12686885Y-7994438D01*
X12724365Y-8031983D01*
X12773359Y-8052327D01*
X12826409Y-8052373D01*
X12875438Y-8032115D01*
X12912983Y-7994635D01*
X12933327Y-7945641D01*
X12933373Y-7892591D01*
X12933373Y-8654591D01*
X12913115Y-8605562D01*
X12875635Y-8568017D01*
X12826641Y-8547673D01*
X12773591Y-8547627D01*
X12724562Y-8567885D01*
X12687017Y-8605365D01*
X12666673Y-8654359D01*
X12666627Y-8707409D01*
X12686885Y-8756438D01*
X12724365Y-8793983D01*
X12773359Y-8814327D01*
X12826409Y-8814373D01*
X12875438Y-8794115D01*
X12912983Y-8756635D01*
X12933327Y-8707641D01*
X12933373Y-8654591D01*
X12933373Y-9043656D01*
X12813000Y-9043656D01*
X12788788Y-9048354D01*
X12767507Y-9062333D01*
X12753262Y-9083436D01*
X12748256Y-9108400D01*
X12748256Y-9311600D01*
X12752954Y-9335812D01*
X12766933Y-9357093D01*
X12788036Y-9371338D01*
X12813000Y-9376344D01*
X12993000Y-9376344D01*
X13017212Y-9371646D01*
X13038493Y-9357667D01*
X13052738Y-9336564D01*
X13052878Y-9335863D01*
X13060162Y-9343719D01*
X13118705Y-9370598D01*
X13144300Y-9358737D01*
X13144300Y-9517450D01*
X12625985Y-9517450D01*
X12675671Y-9467851D01*
X12723508Y-9352645D01*
X12723617Y-9227902D01*
X12675981Y-9112613D01*
X12587851Y-9024329D01*
X12533373Y-9001708D01*
X12533373Y-8654591D01*
X12533373Y-7892591D01*
X12513115Y-7843562D01*
X12475635Y-7806017D01*
X12426641Y-7785673D01*
X12373591Y-7785627D01*
X12324562Y-7805885D01*
X12287017Y-7843365D01*
X12266673Y-7892359D01*
X12266627Y-7945409D01*
X12286885Y-7994438D01*
X12324365Y-8031983D01*
X12373359Y-8052327D01*
X12426409Y-8052373D01*
X12475438Y-8032115D01*
X12512983Y-7994635D01*
X12533327Y-7945641D01*
X12533373Y-7892591D01*
X12533373Y-8654591D01*
X12513115Y-8605562D01*
X12475635Y-8568017D01*
X12426641Y-8547673D01*
X12373591Y-8547627D01*
X12324562Y-8567885D01*
X12287017Y-8605365D01*
X12266673Y-8654359D01*
X12266627Y-8707409D01*
X12286885Y-8756438D01*
X12324365Y-8793983D01*
X12373359Y-8814327D01*
X12426409Y-8814373D01*
X12475438Y-8794115D01*
X12512983Y-8756635D01*
X12533327Y-8707641D01*
X12533373Y-8654591D01*
X12533373Y-9001708D01*
X12472645Y-8976492D01*
X12347902Y-8976383D01*
X12232613Y-9024019D01*
X12182550Y-9073995D01*
X12182550Y-6126003D01*
X12222149Y-6165671D01*
X12337355Y-6213508D01*
X12462098Y-6213617D01*
X12577387Y-6165981D01*
X12665671Y-6077851D01*
X12713508Y-5962645D01*
X12713617Y-5837902D01*
X12665981Y-5722613D01*
X12625988Y-5682550D01*
X21584032Y-5682550D01*
X21524329Y-5742149D01*
X21476492Y-5857355D01*
X21476383Y-5982098D01*
X21524019Y-6097387D01*
X21612149Y-6185671D01*
X21727355Y-6233508D01*
X21852098Y-6233617D01*
X21967387Y-6185981D01*
X22017450Y-6136005D01*
X22017450Y-9073997D01*
X22017450Y-9073997D01*
G37*
X22017450Y-9073997D02*
X21977851Y-9034329D01*
X21862645Y-8986492D01*
X21768335Y-8986409D01*
X21768335Y-8108000D01*
X21768335Y-7600000D01*
X21756927Y-7542651D01*
X21724442Y-7494033D01*
X21693493Y-7473354D01*
X21735073Y-7436204D01*
X21760471Y-7383479D01*
X21760736Y-7381903D01*
X21748622Y-7358700D01*
X21612700Y-7358700D01*
X21612700Y-7360700D01*
X21587300Y-7360700D01*
X21587300Y-7358700D01*
X21585300Y-7358700D01*
X21585300Y-7333300D01*
X21587300Y-7333300D01*
X21587300Y-7331300D01*
X21612700Y-7331300D01*
X21612700Y-7333300D01*
X21748622Y-7333300D01*
X21760736Y-7310097D01*
X21760471Y-7308521D01*
X21735073Y-7255796D01*
X21693493Y-7218646D01*
X21724442Y-7197967D01*
X21756927Y-7149349D01*
X21768335Y-7092000D01*
X21756927Y-7034651D01*
X21724442Y-6986033D01*
X21692963Y-6965000D01*
X21724442Y-6943967D01*
X21756927Y-6895349D01*
X21768335Y-6838000D01*
X21756927Y-6780651D01*
X21724442Y-6732033D01*
X21692963Y-6711000D01*
X21724442Y-6689967D01*
X21756927Y-6641349D01*
X21768335Y-6584000D01*
X21756927Y-6526651D01*
X21724442Y-6478033D01*
X21675823Y-6445547D01*
X21618475Y-6434140D01*
X21581526Y-6434140D01*
X21524177Y-6445547D01*
X21475559Y-6478033D01*
X21443073Y-6526651D01*
X21431666Y-6584000D01*
X21443073Y-6641349D01*
X21475559Y-6689967D01*
X21507037Y-6711000D01*
X21475559Y-6732033D01*
X21462952Y-6750900D01*
X21437980Y-6755867D01*
X21409138Y-6775138D01*
X20107138Y-8077138D01*
X20087867Y-8105979D01*
X20081100Y-8140000D01*
X20081100Y-9064155D01*
X20064033Y-9075559D01*
X20062978Y-9077137D01*
X20062406Y-9074188D01*
X20048427Y-9052907D01*
X20027324Y-9038662D01*
X20002360Y-9033656D01*
X19829640Y-9033656D01*
X19805428Y-9038354D01*
X19784147Y-9052333D01*
X19769902Y-9073436D01*
X19768335Y-9081254D01*
X19768335Y-8108000D01*
X19768335Y-7600000D01*
X19768335Y-7092000D01*
X19756927Y-7034651D01*
X19724442Y-6986033D01*
X19692963Y-6965000D01*
X19724442Y-6943967D01*
X19756927Y-6895349D01*
X19768335Y-6838000D01*
X19756927Y-6780651D01*
X19724442Y-6732033D01*
X19693493Y-6711354D01*
X19735073Y-6674204D01*
X19760471Y-6621479D01*
X19760736Y-6619903D01*
X19760736Y-6548097D01*
X19760471Y-6546521D01*
X19735073Y-6493796D01*
X19691432Y-6454805D01*
X19636191Y-6435482D01*
X19612700Y-6449908D01*
X19612700Y-6571300D01*
X19748622Y-6571300D01*
X19760736Y-6548097D01*
X19760736Y-6619903D01*
X19748622Y-6596700D01*
X19612700Y-6596700D01*
X19612700Y-6598700D01*
X19587300Y-6598700D01*
X19587300Y-6596700D01*
X19585300Y-6596700D01*
X19585300Y-6571300D01*
X19587300Y-6571300D01*
X19587300Y-6449908D01*
X19563809Y-6435482D01*
X19508568Y-6454805D01*
X19464927Y-6493796D01*
X19439529Y-6546521D01*
X19439264Y-6548097D01*
X19443026Y-6555302D01*
X19144862Y-6257138D01*
X19116021Y-6237867D01*
X19082000Y-6231100D01*
X16250000Y-6231100D01*
X16215979Y-6237867D01*
X16187138Y-6257138D01*
X15807138Y-6637138D01*
X15787867Y-6665979D01*
X15781100Y-6700000D01*
X15781100Y-7373176D01*
X15750873Y-7403403D01*
X15760471Y-7383479D01*
X15760736Y-7381903D01*
X15748622Y-7358700D01*
X15612700Y-7358700D01*
X15612700Y-7360700D01*
X15587300Y-7360700D01*
X15587300Y-7358700D01*
X15585300Y-7358700D01*
X15585300Y-7333300D01*
X15587300Y-7333300D01*
X15587300Y-7331300D01*
X15612700Y-7331300D01*
X15612700Y-7333300D01*
X15748622Y-7333300D01*
X15760736Y-7310097D01*
X15760471Y-7308521D01*
X15735073Y-7255796D01*
X15693493Y-7218646D01*
X15724441Y-7197967D01*
X15756927Y-7149349D01*
X15768334Y-7092000D01*
X15756927Y-7034651D01*
X15724441Y-6986033D01*
X15692963Y-6965000D01*
X15724441Y-6943967D01*
X15756927Y-6895349D01*
X15768334Y-6838000D01*
X15756927Y-6780651D01*
X15724441Y-6732033D01*
X15693493Y-6711354D01*
X15735073Y-6674204D01*
X15760471Y-6621479D01*
X15760736Y-6619903D01*
X15760736Y-6548097D01*
X15760471Y-6546521D01*
X15735073Y-6493796D01*
X15691432Y-6454805D01*
X15636191Y-6435482D01*
X15612700Y-6449908D01*
X15612700Y-6571300D01*
X15748622Y-6571300D01*
X15760736Y-6548097D01*
X15760736Y-6619903D01*
X15748622Y-6596700D01*
X15612700Y-6596700D01*
X15612700Y-6598700D01*
X15587300Y-6598700D01*
X15587300Y-6596700D01*
X15587300Y-6571300D01*
X15587300Y-6449908D01*
X15563809Y-6435482D01*
X15508568Y-6454805D01*
X15464927Y-6493796D01*
X15439529Y-6546521D01*
X15439264Y-6548097D01*
X15451378Y-6571300D01*
X15587300Y-6571300D01*
X15587300Y-6596700D01*
X15451378Y-6596700D01*
X15439264Y-6619903D01*
X15439529Y-6621479D01*
X15464927Y-6674204D01*
X15506507Y-6711354D01*
X15475558Y-6732033D01*
X15464155Y-6749100D01*
X15462000Y-6749100D01*
X15427979Y-6755867D01*
X15399138Y-6775138D01*
X15297138Y-6877138D01*
X15277867Y-6905979D01*
X15271100Y-6940000D01*
X15271100Y-8223176D01*
X15019576Y-8474700D01*
X14748944Y-8474700D01*
X14748944Y-5976200D01*
X14748944Y-5823800D01*
X14744246Y-5799588D01*
X14730267Y-5778307D01*
X14709164Y-5764062D01*
X14684200Y-5759056D01*
X14531800Y-5759056D01*
X14507588Y-5763754D01*
X14486307Y-5777733D01*
X14472062Y-5798836D01*
X14467056Y-5823800D01*
X14467056Y-5976200D01*
X14471754Y-6000412D01*
X14485733Y-6021693D01*
X14506836Y-6035938D01*
X14531800Y-6040944D01*
X14684200Y-6040944D01*
X14708412Y-6036246D01*
X14729693Y-6022267D01*
X14743938Y-6001164D01*
X14748944Y-5976200D01*
X14748944Y-8474700D01*
X14334443Y-8474700D01*
X14334443Y-8025218D01*
X14334443Y-7517218D01*
X14334443Y-6755218D01*
X14311136Y-6698810D01*
X14287373Y-6675006D01*
X14287373Y-6373591D01*
X14267115Y-6324562D01*
X14229635Y-6287017D01*
X14180641Y-6266673D01*
X14127591Y-6266627D01*
X14078562Y-6286885D01*
X14041017Y-6324365D01*
X14020673Y-6373359D01*
X14020627Y-6426409D01*
X14040885Y-6475438D01*
X14078365Y-6512983D01*
X14127359Y-6533327D01*
X14180409Y-6533373D01*
X14229438Y-6513115D01*
X14266983Y-6475635D01*
X14287327Y-6426641D01*
X14287373Y-6373591D01*
X14287373Y-6675006D01*
X14268017Y-6655616D01*
X14211650Y-6632211D01*
X14150618Y-6632157D01*
X14094210Y-6655464D01*
X14051016Y-6698583D01*
X14027611Y-6754950D01*
X14027557Y-6815982D01*
X14050864Y-6872390D01*
X14093983Y-6915584D01*
X14150350Y-6938989D01*
X14211382Y-6939043D01*
X14267790Y-6915736D01*
X14310984Y-6872617D01*
X14334389Y-6816250D01*
X14334443Y-6755218D01*
X14334443Y-7517218D01*
X14311136Y-7460810D01*
X14268017Y-7417616D01*
X14211650Y-7394211D01*
X14150618Y-7394157D01*
X14094210Y-7417464D01*
X14051016Y-7460583D01*
X14027611Y-7516950D01*
X14027557Y-7577982D01*
X14050864Y-7634390D01*
X14093983Y-7677584D01*
X14150350Y-7700989D01*
X14211382Y-7701043D01*
X14267790Y-7677736D01*
X14310984Y-7634617D01*
X14334389Y-7578250D01*
X14334443Y-7517218D01*
X14334443Y-8025218D01*
X14311136Y-7968810D01*
X14268017Y-7925616D01*
X14211650Y-7902211D01*
X14150618Y-7902157D01*
X14094210Y-7925464D01*
X14051016Y-7968583D01*
X14027611Y-8024950D01*
X14027557Y-8085982D01*
X14050864Y-8142390D01*
X14093983Y-8185584D01*
X14150350Y-8208989D01*
X14211382Y-8209043D01*
X14267790Y-8185736D01*
X14310984Y-8142617D01*
X14334389Y-8086250D01*
X14334443Y-8025218D01*
X14334443Y-8474700D01*
X14309029Y-8474700D01*
X14268017Y-8433616D01*
X14211650Y-8410211D01*
X14150618Y-8410157D01*
X14094210Y-8433464D01*
X14051016Y-8476583D01*
X14027611Y-8532950D01*
X14027557Y-8593982D01*
X14050864Y-8650390D01*
X14093983Y-8693584D01*
X14150350Y-8716989D01*
X14211382Y-8717043D01*
X14267790Y-8693736D01*
X14309097Y-8652500D01*
X15056400Y-8652500D01*
X15090420Y-8645733D01*
X15090421Y-8645733D01*
X15119262Y-8626462D01*
X15422862Y-8322862D01*
X15442133Y-8294021D01*
X15448900Y-8260000D01*
X15448900Y-8174070D01*
X15475558Y-8213967D01*
X15506507Y-8234646D01*
X15464927Y-8271796D01*
X15439529Y-8324521D01*
X15439264Y-8326097D01*
X15451378Y-8349300D01*
X15587300Y-8349300D01*
X15587300Y-8347300D01*
X15612700Y-8347300D01*
X15612700Y-8349300D01*
X15748622Y-8349300D01*
X15760736Y-8326097D01*
X15760471Y-8324521D01*
X15735073Y-8271796D01*
X15693493Y-8234646D01*
X15724441Y-8213967D01*
X15735845Y-8196900D01*
X15911176Y-8196900D01*
X16184100Y-8469824D01*
X16184100Y-9033656D01*
X16183000Y-9033656D01*
X16158788Y-9038354D01*
X16137507Y-9052333D01*
X16123262Y-9073436D01*
X16118256Y-9098400D01*
X16118256Y-9301100D01*
X15766344Y-9301100D01*
X15766344Y-8702360D01*
X15766344Y-8529640D01*
X15761646Y-8505428D01*
X15747667Y-8484147D01*
X15726564Y-8469902D01*
X15717335Y-8468052D01*
X15735073Y-8452204D01*
X15760471Y-8399479D01*
X15760736Y-8397903D01*
X15748622Y-8374700D01*
X15612700Y-8374700D01*
X15612700Y-8376700D01*
X15587300Y-8376700D01*
X15587300Y-8374700D01*
X15451378Y-8374700D01*
X15439264Y-8397903D01*
X15439529Y-8399479D01*
X15464927Y-8452204D01*
X15482570Y-8467967D01*
X15474188Y-8469594D01*
X15452907Y-8483573D01*
X15438662Y-8504676D01*
X15433656Y-8529640D01*
X15433656Y-8702360D01*
X15438354Y-8726572D01*
X15452333Y-8747853D01*
X15473436Y-8762098D01*
X15498400Y-8767104D01*
X15701600Y-8767104D01*
X15725812Y-8762406D01*
X15747093Y-8748427D01*
X15761338Y-8727324D01*
X15766344Y-8702360D01*
X15766344Y-9301100D01*
X15201557Y-9301100D01*
X15210195Y-9291432D01*
X15229518Y-9236191D01*
X15229518Y-9163809D01*
X15210195Y-9108568D01*
X15171204Y-9064927D01*
X15118479Y-9039529D01*
X15116903Y-9039264D01*
X15093700Y-9051378D01*
X15093700Y-9187300D01*
X15215092Y-9187300D01*
X15229518Y-9163809D01*
X15229518Y-9236191D01*
X15215092Y-9212700D01*
X15093700Y-9212700D01*
X15093700Y-9214700D01*
X15068300Y-9214700D01*
X15068300Y-9212700D01*
X15066300Y-9212700D01*
X15066300Y-9187300D01*
X15068300Y-9187300D01*
X15068300Y-9051378D01*
X15045097Y-9039264D01*
X15043521Y-9039529D01*
X14990796Y-9064927D01*
X14953646Y-9106507D01*
X14932967Y-9075559D01*
X14884349Y-9043073D01*
X14827000Y-9031666D01*
X14769651Y-9043073D01*
X14721033Y-9075559D01*
X14700354Y-9106507D01*
X14663204Y-9064927D01*
X14610479Y-9039529D01*
X14608903Y-9039264D01*
X14585700Y-9051378D01*
X14585700Y-9187300D01*
X14587700Y-9187300D01*
X14587700Y-9212700D01*
X14585700Y-9212700D01*
X14585700Y-9214700D01*
X14560300Y-9214700D01*
X14560300Y-9212700D01*
X14558300Y-9212700D01*
X14558300Y-9187300D01*
X14560300Y-9187300D01*
X14560300Y-9051378D01*
X14537097Y-9039264D01*
X14535521Y-9039529D01*
X14482796Y-9064927D01*
X14467033Y-9082570D01*
X14465406Y-9074188D01*
X14451427Y-9052907D01*
X14430324Y-9038662D01*
X14405360Y-9033656D01*
X14232640Y-9033656D01*
X14208428Y-9038354D01*
X14187147Y-9052333D01*
X14172902Y-9073436D01*
X14167896Y-9098400D01*
X14167896Y-9301600D01*
X14172594Y-9325812D01*
X14186573Y-9347093D01*
X14207676Y-9361338D01*
X14232640Y-9366344D01*
X14360620Y-9366344D01*
X14447138Y-9452862D01*
X14475979Y-9472133D01*
X14475979Y-9472133D01*
X14510000Y-9478900D01*
X17200000Y-9478900D01*
X17234021Y-9472133D01*
X17234021Y-9472133D01*
X17262862Y-9452862D01*
X17662862Y-9052862D01*
X17682133Y-9024021D01*
X17688900Y-8990000D01*
X17688900Y-8767104D01*
X17701600Y-8767104D01*
X17725812Y-8762406D01*
X17747093Y-8748427D01*
X17761338Y-8727324D01*
X17766344Y-8702360D01*
X17766344Y-8529640D01*
X17761646Y-8505428D01*
X17747667Y-8484147D01*
X17726564Y-8469902D01*
X17717335Y-8468052D01*
X17735073Y-8452204D01*
X17760471Y-8399479D01*
X17760736Y-8397903D01*
X17748622Y-8374700D01*
X17612700Y-8374700D01*
X17612700Y-8376700D01*
X17587300Y-8376700D01*
X17587300Y-8374700D01*
X17451378Y-8374700D01*
X17439264Y-8397903D01*
X17439529Y-8399479D01*
X17464927Y-8452204D01*
X17482570Y-8467967D01*
X17474188Y-8469594D01*
X17452907Y-8483573D01*
X17438662Y-8504676D01*
X17433656Y-8529640D01*
X17433656Y-8702360D01*
X17438354Y-8726572D01*
X17452333Y-8747853D01*
X17473436Y-8762098D01*
X17498400Y-8767104D01*
X17511100Y-8767104D01*
X17511100Y-8953176D01*
X17163176Y-9301100D01*
X16654084Y-9301100D01*
X16667638Y-9286482D01*
X16687597Y-9238294D01*
X16687597Y-9161706D01*
X16667638Y-9113518D01*
X16623838Y-9066281D01*
X16565295Y-9039402D01*
X16539700Y-9051263D01*
X16539700Y-9187300D01*
X16675684Y-9187300D01*
X16687597Y-9161706D01*
X16687597Y-9238294D01*
X16675684Y-9212700D01*
X16539700Y-9212700D01*
X16539700Y-9214700D01*
X16514300Y-9214700D01*
X16514300Y-9212700D01*
X16512300Y-9212700D01*
X16512300Y-9187300D01*
X16514300Y-9187300D01*
X16514300Y-9051263D01*
X16488705Y-9039402D01*
X16430162Y-9066281D01*
X16422957Y-9074052D01*
X16409067Y-9052907D01*
X16387964Y-9038662D01*
X16363000Y-9033656D01*
X16361900Y-9033656D01*
X16361900Y-8433000D01*
X16355133Y-8398980D01*
X16355133Y-8398979D01*
X16335862Y-8370138D01*
X16010862Y-8045138D01*
X15982021Y-8025867D01*
X15948000Y-8019100D01*
X15735845Y-8019100D01*
X15724441Y-8002033D01*
X15693493Y-7981354D01*
X15735073Y-7944204D01*
X15760471Y-7891479D01*
X15760736Y-7889903D01*
X15748622Y-7866700D01*
X15612700Y-7866700D01*
X15612700Y-7868700D01*
X15587300Y-7868700D01*
X15587300Y-7866700D01*
X15585300Y-7866700D01*
X15585300Y-7841300D01*
X15587300Y-7841300D01*
X15587300Y-7839300D01*
X15612700Y-7839300D01*
X15612700Y-7841300D01*
X15748622Y-7841300D01*
X15760736Y-7818097D01*
X15760471Y-7816521D01*
X15735073Y-7763796D01*
X15693493Y-7726646D01*
X15724441Y-7705967D01*
X15756927Y-7657349D01*
X15759051Y-7646673D01*
X15932862Y-7472862D01*
X15952133Y-7444021D01*
X15952133Y-7444020D01*
X15958900Y-7410000D01*
X15958900Y-6736824D01*
X16286824Y-6408900D01*
X19045176Y-6408900D01*
X19438735Y-6802459D01*
X19431666Y-6838000D01*
X19443073Y-6895349D01*
X19475559Y-6943967D01*
X19507037Y-6965000D01*
X19475559Y-6986033D01*
X19443073Y-7034651D01*
X19431666Y-7092000D01*
X19443073Y-7149349D01*
X19475559Y-7197967D01*
X19506507Y-7218646D01*
X19464927Y-7255796D01*
X19439529Y-7308521D01*
X19439264Y-7310097D01*
X19451378Y-7333300D01*
X19587300Y-7333300D01*
X19587300Y-7331300D01*
X19612700Y-7331300D01*
X19612700Y-7333300D01*
X19748622Y-7333300D01*
X19760736Y-7310097D01*
X19760471Y-7308521D01*
X19735073Y-7255796D01*
X19693493Y-7218646D01*
X19724442Y-7197967D01*
X19756927Y-7149349D01*
X19768335Y-7092000D01*
X19768335Y-7600000D01*
X19756927Y-7542651D01*
X19724442Y-7494033D01*
X19693493Y-7473354D01*
X19735073Y-7436204D01*
X19760471Y-7383479D01*
X19760736Y-7381903D01*
X19748622Y-7358700D01*
X19612700Y-7358700D01*
X19612700Y-7360700D01*
X19587300Y-7360700D01*
X19587300Y-7358700D01*
X19451378Y-7358700D01*
X19439264Y-7381903D01*
X19439529Y-7383479D01*
X19464927Y-7436204D01*
X19506507Y-7473354D01*
X19475559Y-7494033D01*
X19443073Y-7542651D01*
X19431666Y-7600000D01*
X19443073Y-7657349D01*
X19475559Y-7705967D01*
X19506507Y-7726646D01*
X19464927Y-7763796D01*
X19439529Y-7816521D01*
X19439264Y-7818097D01*
X19451378Y-7841300D01*
X19587300Y-7841300D01*
X19587300Y-7839300D01*
X19612700Y-7839300D01*
X19612700Y-7841300D01*
X19748622Y-7841300D01*
X19760736Y-7818097D01*
X19760471Y-7816521D01*
X19735073Y-7763796D01*
X19693493Y-7726646D01*
X19724442Y-7705967D01*
X19756927Y-7657349D01*
X19768335Y-7600000D01*
X19768335Y-8108000D01*
X19756927Y-8050651D01*
X19724442Y-8002033D01*
X19693493Y-7981354D01*
X19735073Y-7944204D01*
X19760471Y-7891479D01*
X19760736Y-7889903D01*
X19748622Y-7866700D01*
X19612700Y-7866700D01*
X19612700Y-7868700D01*
X19587300Y-7868700D01*
X19587300Y-7866700D01*
X19451378Y-7866700D01*
X19439264Y-7889903D01*
X19439529Y-7891479D01*
X19464927Y-7944204D01*
X19506507Y-7981354D01*
X19475559Y-8002033D01*
X19443073Y-8050651D01*
X19431666Y-8108000D01*
X19438735Y-8143541D01*
X19177138Y-8405138D01*
X19157867Y-8433979D01*
X19151100Y-8468000D01*
X19151100Y-8663176D01*
X18780620Y-9033656D01*
X18683000Y-9033656D01*
X18671593Y-9035869D01*
X18528900Y-8893176D01*
X18528900Y-8280000D01*
X18522133Y-8245979D01*
X18522133Y-8245979D01*
X18502862Y-8217138D01*
X17822862Y-7537138D01*
X17794021Y-7517867D01*
X17768335Y-7512758D01*
X17768335Y-7092000D01*
X17756927Y-7034651D01*
X17724442Y-6986033D01*
X17692963Y-6965000D01*
X17724442Y-6943967D01*
X17756927Y-6895349D01*
X17768335Y-6838000D01*
X17756927Y-6780651D01*
X17724442Y-6732033D01*
X17692963Y-6711000D01*
X17724442Y-6689967D01*
X17756927Y-6641349D01*
X17768335Y-6584000D01*
X17756927Y-6526651D01*
X17724442Y-6478033D01*
X17675823Y-6445547D01*
X17618475Y-6434140D01*
X17581526Y-6434140D01*
X17524177Y-6445547D01*
X17475559Y-6478033D01*
X17443073Y-6526651D01*
X17431666Y-6584000D01*
X17443073Y-6641349D01*
X17475559Y-6689967D01*
X17507037Y-6711000D01*
X17475559Y-6732033D01*
X17443073Y-6780651D01*
X17431666Y-6838000D01*
X17443073Y-6895349D01*
X17475559Y-6943967D01*
X17507037Y-6965000D01*
X17475559Y-6986033D01*
X17443073Y-7034651D01*
X17431666Y-7092000D01*
X17443073Y-7149349D01*
X17475559Y-7197967D01*
X17506507Y-7218646D01*
X17464927Y-7255796D01*
X17439529Y-7308521D01*
X17439264Y-7310097D01*
X17451378Y-7333300D01*
X17587300Y-7333300D01*
X17587300Y-7331300D01*
X17612700Y-7331300D01*
X17612700Y-7333300D01*
X17748622Y-7333300D01*
X17760736Y-7310097D01*
X17760471Y-7308521D01*
X17735073Y-7255796D01*
X17693493Y-7218646D01*
X17724442Y-7197967D01*
X17756927Y-7149349D01*
X17768335Y-7092000D01*
X17768335Y-7512758D01*
X17760000Y-7511100D01*
X17735845Y-7511100D01*
X17724442Y-7494033D01*
X17693493Y-7473354D01*
X17735073Y-7436204D01*
X17760471Y-7383479D01*
X17760736Y-7381903D01*
X17748622Y-7358700D01*
X17612700Y-7358700D01*
X17612700Y-7360700D01*
X17587300Y-7360700D01*
X17587300Y-7358700D01*
X17451378Y-7358700D01*
X17439264Y-7381903D01*
X17439529Y-7383479D01*
X17464927Y-7436204D01*
X17506507Y-7473354D01*
X17475559Y-7494033D01*
X17443073Y-7542651D01*
X17431666Y-7600000D01*
X17443073Y-7657349D01*
X17475559Y-7705967D01*
X17506507Y-7726646D01*
X17464927Y-7763796D01*
X17439529Y-7816521D01*
X17439264Y-7818097D01*
X17451378Y-7841300D01*
X17587300Y-7841300D01*
X17587300Y-7839300D01*
X17612700Y-7839300D01*
X17612700Y-7841300D01*
X17748622Y-7841300D01*
X17760736Y-7818097D01*
X17760471Y-7816521D01*
X17735073Y-7763796D01*
X17693493Y-7726646D01*
X17724442Y-7705967D01*
X17730771Y-7696494D01*
X18351100Y-8316824D01*
X18351100Y-8930000D01*
X18357867Y-8964021D01*
X18377138Y-8992862D01*
X18618256Y-9233980D01*
X18618256Y-9301600D01*
X18622954Y-9325812D01*
X18636933Y-9347093D01*
X18658036Y-9361338D01*
X18683000Y-9366344D01*
X18863000Y-9366344D01*
X18887212Y-9361646D01*
X18908493Y-9347667D01*
X18922738Y-9326564D01*
X18922878Y-9325863D01*
X18930162Y-9333719D01*
X18988705Y-9360598D01*
X19014300Y-9348737D01*
X19014300Y-9212700D01*
X19012300Y-9212700D01*
X19012300Y-9187300D01*
X19014300Y-9187300D01*
X19014300Y-9185300D01*
X19039700Y-9185300D01*
X19039700Y-9187300D01*
X19175684Y-9187300D01*
X19187598Y-9161706D01*
X19167639Y-9113518D01*
X19123838Y-9066281D01*
X19065295Y-9039402D01*
X19039700Y-9051263D01*
X19039700Y-9034900D01*
X19030824Y-9034900D01*
X19302862Y-8762862D01*
X19322133Y-8734021D01*
X19328900Y-8700000D01*
X19328900Y-8504824D01*
X19443026Y-8390698D01*
X19439264Y-8397903D01*
X19439529Y-8399479D01*
X19464927Y-8452204D01*
X19482570Y-8467967D01*
X19474188Y-8469594D01*
X19452907Y-8483573D01*
X19438662Y-8504676D01*
X19433656Y-8529640D01*
X19433656Y-8702360D01*
X19438354Y-8726572D01*
X19452333Y-8747853D01*
X19473436Y-8762098D01*
X19498400Y-8767104D01*
X19701600Y-8767104D01*
X19725812Y-8762406D01*
X19747093Y-8748427D01*
X19761338Y-8727324D01*
X19766344Y-8702360D01*
X19766344Y-8529640D01*
X19761646Y-8505428D01*
X19747667Y-8484147D01*
X19726564Y-8469902D01*
X19717335Y-8468052D01*
X19735073Y-8452204D01*
X19760471Y-8399479D01*
X19760736Y-8397903D01*
X19748622Y-8374700D01*
X19612700Y-8374700D01*
X19612700Y-8376700D01*
X19587300Y-8376700D01*
X19587300Y-8374700D01*
X19585300Y-8374700D01*
X19585300Y-8349300D01*
X19587300Y-8349300D01*
X19587300Y-8347300D01*
X19612700Y-8347300D01*
X19612700Y-8349300D01*
X19748622Y-8349300D01*
X19760736Y-8326097D01*
X19760471Y-8324521D01*
X19735073Y-8271796D01*
X19693493Y-8234646D01*
X19724442Y-8213967D01*
X19756927Y-8165349D01*
X19768335Y-8108000D01*
X19768335Y-9081254D01*
X19764896Y-9098400D01*
X19764896Y-9301600D01*
X19769594Y-9325812D01*
X19783573Y-9347093D01*
X19804676Y-9361338D01*
X19829640Y-9366344D01*
X19956620Y-9366344D01*
X20073138Y-9482862D01*
X20101979Y-9502133D01*
X20101980Y-9502133D01*
X20136000Y-9508900D01*
X20520000Y-9508900D01*
X20554021Y-9502133D01*
X20554021Y-9502133D01*
X20582862Y-9482862D01*
X20762862Y-9302862D01*
X20768256Y-9294789D01*
X20768256Y-9301600D01*
X20772954Y-9325812D01*
X20786933Y-9347093D01*
X20808036Y-9361338D01*
X20833000Y-9366344D01*
X21013000Y-9366344D01*
X21037212Y-9361646D01*
X21058493Y-9347667D01*
X21072738Y-9326564D01*
X21072878Y-9325863D01*
X21080162Y-9333719D01*
X21138705Y-9360598D01*
X21164300Y-9348737D01*
X21164300Y-9212700D01*
X21162300Y-9212700D01*
X21162300Y-9187300D01*
X21164300Y-9187300D01*
X21164300Y-9051263D01*
X21138705Y-9039402D01*
X21080162Y-9066281D01*
X21072957Y-9074052D01*
X21059067Y-9052907D01*
X21037964Y-9038662D01*
X21013000Y-9033656D01*
X21011900Y-9033656D01*
X21011900Y-8083824D01*
X21356824Y-7738900D01*
X21492792Y-7738900D01*
X21464927Y-7763796D01*
X21439529Y-7816521D01*
X21439264Y-7818097D01*
X21451378Y-7841300D01*
X21587300Y-7841300D01*
X21587300Y-7839300D01*
X21612700Y-7839300D01*
X21612700Y-7841300D01*
X21748622Y-7841300D01*
X21760736Y-7818097D01*
X21760471Y-7816521D01*
X21735073Y-7763796D01*
X21693493Y-7726646D01*
X21724442Y-7705967D01*
X21756927Y-7657349D01*
X21768335Y-7600000D01*
X21768335Y-8108000D01*
X21756927Y-8050651D01*
X21724442Y-8002033D01*
X21693493Y-7981354D01*
X21735073Y-7944204D01*
X21760471Y-7891479D01*
X21760736Y-7889903D01*
X21748622Y-7866700D01*
X21612700Y-7866700D01*
X21612700Y-7868700D01*
X21587300Y-7868700D01*
X21587300Y-7866700D01*
X21451378Y-7866700D01*
X21439264Y-7889903D01*
X21439529Y-7891479D01*
X21464927Y-7944204D01*
X21506507Y-7981354D01*
X21475559Y-8002033D01*
X21443073Y-8050651D01*
X21431666Y-8108000D01*
X21443073Y-8165349D01*
X21475559Y-8213967D01*
X21506507Y-8234646D01*
X21464927Y-8271796D01*
X21439529Y-8324521D01*
X21439264Y-8326097D01*
X21451378Y-8349300D01*
X21587300Y-8349300D01*
X21587300Y-8347300D01*
X21612700Y-8347300D01*
X21612700Y-8349300D01*
X21748622Y-8349300D01*
X21760736Y-8326097D01*
X21760471Y-8324521D01*
X21735073Y-8271796D01*
X21693493Y-8234646D01*
X21724442Y-8213967D01*
X21756927Y-8165349D01*
X21768335Y-8108000D01*
X21768335Y-8986409D01*
X21766344Y-8986408D01*
X21766344Y-8702360D01*
X21766344Y-8529640D01*
X21761646Y-8505428D01*
X21747667Y-8484147D01*
X21726564Y-8469902D01*
X21717335Y-8468052D01*
X21735073Y-8452204D01*
X21760471Y-8399479D01*
X21760736Y-8397903D01*
X21748622Y-8374700D01*
X21612700Y-8374700D01*
X21612700Y-8376700D01*
X21587300Y-8376700D01*
X21587300Y-8374700D01*
X21451378Y-8374700D01*
X21439264Y-8397903D01*
X21439529Y-8399479D01*
X21464927Y-8452204D01*
X21482570Y-8467967D01*
X21474188Y-8469594D01*
X21452907Y-8483573D01*
X21438662Y-8504676D01*
X21433656Y-8529640D01*
X21433656Y-8702360D01*
X21438354Y-8726572D01*
X21452333Y-8747853D01*
X21473436Y-8762098D01*
X21498400Y-8767104D01*
X21701600Y-8767104D01*
X21725812Y-8762406D01*
X21747093Y-8748427D01*
X21761338Y-8727324D01*
X21766344Y-8702360D01*
X21766344Y-8986408D01*
X21737902Y-8986383D01*
X21622613Y-9034019D01*
X21534329Y-9122149D01*
X21486492Y-9237355D01*
X21486383Y-9362098D01*
X21534019Y-9477387D01*
X21574012Y-9517450D01*
X21337598Y-9517450D01*
X21337598Y-9238294D01*
X21337598Y-9161706D01*
X21317639Y-9113518D01*
X21273838Y-9066281D01*
X21215295Y-9039402D01*
X21189700Y-9051263D01*
X21189700Y-9187300D01*
X21325684Y-9187300D01*
X21337598Y-9161706D01*
X21337598Y-9238294D01*
X21325684Y-9212700D01*
X21189700Y-9212700D01*
X21189700Y-9348737D01*
X21215295Y-9360598D01*
X21273838Y-9333719D01*
X21317639Y-9286482D01*
X21337598Y-9238294D01*
X21337598Y-9517450D01*
X19187598Y-9517450D01*
X19187598Y-9238294D01*
X19175684Y-9212700D01*
X19039700Y-9212700D01*
X19039700Y-9348737D01*
X19065295Y-9360598D01*
X19123838Y-9333719D01*
X19167639Y-9286482D01*
X19187598Y-9238294D01*
X19187598Y-9517450D01*
X18487598Y-9517450D01*
X18487598Y-9238294D01*
X18487598Y-9161706D01*
X18467639Y-9113518D01*
X18423838Y-9066281D01*
X18365295Y-9039402D01*
X18339700Y-9051263D01*
X18339700Y-9187300D01*
X18475684Y-9187300D01*
X18487598Y-9161706D01*
X18487598Y-9238294D01*
X18475684Y-9212700D01*
X18339700Y-9212700D01*
X18339700Y-9348737D01*
X18365295Y-9360598D01*
X18423838Y-9333719D01*
X18467639Y-9286482D01*
X18487598Y-9238294D01*
X18487598Y-9517450D01*
X18314300Y-9517450D01*
X18314300Y-9348737D01*
X18314300Y-9212700D01*
X18312300Y-9212700D01*
X18312300Y-9187300D01*
X18314300Y-9187300D01*
X18314300Y-9051263D01*
X18288705Y-9039402D01*
X18230162Y-9066281D01*
X18222957Y-9074052D01*
X18209067Y-9052907D01*
X18187964Y-9038662D01*
X18163000Y-9033656D01*
X18161900Y-9033656D01*
X18161900Y-8433000D01*
X18155133Y-8398980D01*
X18155133Y-8398979D01*
X18135862Y-8370138D01*
X17810862Y-8045138D01*
X17782021Y-8025867D01*
X17748000Y-8019100D01*
X17735845Y-8019100D01*
X17724442Y-8002033D01*
X17693493Y-7981354D01*
X17735073Y-7944204D01*
X17760471Y-7891479D01*
X17760736Y-7889903D01*
X17748622Y-7866700D01*
X17612700Y-7866700D01*
X17612700Y-7868700D01*
X17587300Y-7868700D01*
X17587300Y-7866700D01*
X17451378Y-7866700D01*
X17439264Y-7889903D01*
X17439529Y-7891479D01*
X17464927Y-7944204D01*
X17506507Y-7981354D01*
X17475559Y-8002033D01*
X17443073Y-8050651D01*
X17431666Y-8108000D01*
X17443073Y-8165349D01*
X17475559Y-8213967D01*
X17506507Y-8234646D01*
X17464927Y-8271796D01*
X17439529Y-8324521D01*
X17439264Y-8326097D01*
X17451378Y-8349300D01*
X17587300Y-8349300D01*
X17587300Y-8347300D01*
X17612700Y-8347300D01*
X17612700Y-8349300D01*
X17748622Y-8349300D01*
X17760736Y-8326097D01*
X17760471Y-8324521D01*
X17735073Y-8271796D01*
X17693493Y-8234646D01*
X17724442Y-8213967D01*
X17725964Y-8211688D01*
X17984100Y-8469824D01*
X17984100Y-9033656D01*
X17983000Y-9033656D01*
X17958788Y-9038354D01*
X17937507Y-9052333D01*
X17923262Y-9073436D01*
X17918256Y-9098400D01*
X17918256Y-9301600D01*
X17922954Y-9325812D01*
X17936933Y-9347093D01*
X17958036Y-9361338D01*
X17983000Y-9366344D01*
X18163000Y-9366344D01*
X18187212Y-9361646D01*
X18208493Y-9347667D01*
X18222738Y-9326564D01*
X18222878Y-9325863D01*
X18230162Y-9333719D01*
X18288705Y-9360598D01*
X18314300Y-9348737D01*
X18314300Y-9517450D01*
X14017597Y-9517450D01*
X14017597Y-9238294D01*
X14017597Y-9161706D01*
X13997638Y-9113518D01*
X13953838Y-9066281D01*
X13895295Y-9039402D01*
X13869700Y-9051263D01*
X13869700Y-9187300D01*
X14005684Y-9187300D01*
X14017597Y-9161706D01*
X14017597Y-9238294D01*
X14005684Y-9212700D01*
X13869700Y-9212700D01*
X13869700Y-9348737D01*
X13895295Y-9360598D01*
X13953838Y-9333719D01*
X13997638Y-9286482D01*
X14017597Y-9238294D01*
X14017597Y-9517450D01*
X13844300Y-9517450D01*
X13844300Y-9348737D01*
X13844300Y-9212700D01*
X13842300Y-9212700D01*
X13842300Y-9187300D01*
X13844300Y-9187300D01*
X13844300Y-9051263D01*
X13818705Y-9039402D01*
X13780593Y-9056901D01*
X13780593Y-6419252D01*
X13777715Y-6366280D01*
X13762980Y-6330707D01*
X13739419Y-6324542D01*
X13731724Y-6332236D01*
X13731724Y-5872334D01*
X13710501Y-5820970D01*
X13671237Y-5781637D01*
X13619910Y-5760324D01*
X13564334Y-5760276D01*
X13512970Y-5781499D01*
X13473637Y-5820763D01*
X13452324Y-5872090D01*
X13452276Y-5927666D01*
X13473499Y-5979030D01*
X13512763Y-6018363D01*
X13564090Y-6039676D01*
X13619666Y-6039724D01*
X13671030Y-6018501D01*
X13710363Y-5979237D01*
X13731676Y-5927910D01*
X13731724Y-5872334D01*
X13731724Y-6332236D01*
X13721458Y-6342502D01*
X13721458Y-6306581D01*
X13715293Y-6283020D01*
X13665252Y-6265407D01*
X13612280Y-6268285D01*
X13576707Y-6283020D01*
X13570542Y-6306581D01*
X13646000Y-6382039D01*
X13721458Y-6306581D01*
X13721458Y-6342502D01*
X13663960Y-6400000D01*
X13739419Y-6475458D01*
X13762980Y-6469293D01*
X13780593Y-6419252D01*
X13780593Y-9056901D01*
X13760162Y-9066281D01*
X13752957Y-9074052D01*
X13739067Y-9052907D01*
X13721458Y-9041021D01*
X13721458Y-6493419D01*
X13646000Y-6417960D01*
X13628039Y-6435921D01*
X13628039Y-6400000D01*
X13552581Y-6324542D01*
X13529020Y-6330707D01*
X13511407Y-6380748D01*
X13514285Y-6433720D01*
X13529020Y-6469293D01*
X13552581Y-6475458D01*
X13628039Y-6400000D01*
X13628039Y-6435921D01*
X13570542Y-6493419D01*
X13576707Y-6516980D01*
X13626748Y-6534593D01*
X13679720Y-6531715D01*
X13715293Y-6516980D01*
X13721458Y-6493419D01*
X13721458Y-9041021D01*
X13717964Y-9038662D01*
X13693000Y-9033656D01*
X13572443Y-9033656D01*
X13572443Y-8533218D01*
X13572443Y-8025218D01*
X13572443Y-7517218D01*
X13572443Y-6755218D01*
X13549136Y-6698810D01*
X13506017Y-6655616D01*
X13449650Y-6632211D01*
X13388618Y-6632157D01*
X13334593Y-6654480D01*
X13334593Y-6373252D01*
X13333373Y-6350803D01*
X13333373Y-5819591D01*
X13313115Y-5770562D01*
X13275635Y-5733017D01*
X13226641Y-5712673D01*
X13173591Y-5712627D01*
X13124562Y-5732885D01*
X13087017Y-5770365D01*
X13066673Y-5819359D01*
X13066627Y-5872409D01*
X13086885Y-5921438D01*
X13124365Y-5958983D01*
X13173359Y-5979327D01*
X13226409Y-5979373D01*
X13275438Y-5959115D01*
X13312983Y-5921635D01*
X13333327Y-5872641D01*
X13333373Y-5819591D01*
X13333373Y-6350803D01*
X13331715Y-6320280D01*
X13316980Y-6284707D01*
X13293419Y-6278542D01*
X13275458Y-6296502D01*
X13275458Y-6260581D01*
X13269293Y-6237020D01*
X13219252Y-6219407D01*
X13166280Y-6222285D01*
X13130707Y-6237020D01*
X13124542Y-6260581D01*
X13200000Y-6336039D01*
X13275458Y-6260581D01*
X13275458Y-6296502D01*
X13217960Y-6354000D01*
X13293419Y-6429458D01*
X13316980Y-6423293D01*
X13334593Y-6373252D01*
X13334593Y-6654480D01*
X13332210Y-6655464D01*
X13289016Y-6698583D01*
X13275458Y-6731234D01*
X13275458Y-6447419D01*
X13200000Y-6371960D01*
X13182039Y-6389921D01*
X13182039Y-6354000D01*
X13106581Y-6278542D01*
X13083020Y-6284707D01*
X13065407Y-6334748D01*
X13068285Y-6387720D01*
X13083020Y-6423293D01*
X13106581Y-6429458D01*
X13182039Y-6354000D01*
X13182039Y-6389921D01*
X13124542Y-6447419D01*
X13130707Y-6470980D01*
X13180748Y-6488593D01*
X13233720Y-6485715D01*
X13269293Y-6470980D01*
X13275458Y-6447419D01*
X13275458Y-6731234D01*
X13265611Y-6754950D01*
X13265557Y-6815982D01*
X13288864Y-6872390D01*
X13331983Y-6915584D01*
X13388350Y-6938989D01*
X13449382Y-6939043D01*
X13505790Y-6915736D01*
X13548984Y-6872617D01*
X13572389Y-6816250D01*
X13572443Y-6755218D01*
X13572443Y-7517218D01*
X13549136Y-7460810D01*
X13506017Y-7417616D01*
X13449650Y-7394211D01*
X13388618Y-7394157D01*
X13332210Y-7417464D01*
X13289016Y-7460583D01*
X13265611Y-7516950D01*
X13265557Y-7577982D01*
X13288864Y-7634390D01*
X13331983Y-7677584D01*
X13388350Y-7700989D01*
X13449382Y-7701043D01*
X13505790Y-7677736D01*
X13548984Y-7634617D01*
X13572389Y-7578250D01*
X13572443Y-7517218D01*
X13572443Y-8025218D01*
X13549136Y-7968810D01*
X13506017Y-7925616D01*
X13449650Y-7902211D01*
X13388618Y-7902157D01*
X13332210Y-7925464D01*
X13289016Y-7968583D01*
X13265611Y-8024950D01*
X13265557Y-8085982D01*
X13288864Y-8142390D01*
X13331983Y-8185584D01*
X13388350Y-8208989D01*
X13449382Y-8209043D01*
X13505790Y-8185736D01*
X13548984Y-8142617D01*
X13572389Y-8086250D01*
X13572443Y-8025218D01*
X13572443Y-8533218D01*
X13549136Y-8476810D01*
X13506017Y-8433616D01*
X13449650Y-8410211D01*
X13388618Y-8410157D01*
X13332210Y-8433464D01*
X13289016Y-8476583D01*
X13265611Y-8532950D01*
X13265557Y-8593982D01*
X13288864Y-8650390D01*
X13331983Y-8693584D01*
X13388350Y-8716989D01*
X13449382Y-8717043D01*
X13505790Y-8693736D01*
X13548984Y-8650617D01*
X13572389Y-8594250D01*
X13572443Y-8533218D01*
X13572443Y-9033656D01*
X13513000Y-9033656D01*
X13488788Y-9038354D01*
X13467507Y-9052333D01*
X13453262Y-9073436D01*
X13448256Y-9098400D01*
X13448256Y-9301600D01*
X13452954Y-9325812D01*
X13466933Y-9347093D01*
X13488036Y-9361338D01*
X13513000Y-9366344D01*
X13693000Y-9366344D01*
X13717212Y-9361646D01*
X13738493Y-9347667D01*
X13752738Y-9326564D01*
X13752878Y-9325863D01*
X13760162Y-9333719D01*
X13818705Y-9360598D01*
X13844300Y-9348737D01*
X13844300Y-9517450D01*
X13317597Y-9517450D01*
X13317597Y-9248294D01*
X13317597Y-9171706D01*
X13297638Y-9123518D01*
X13253838Y-9076281D01*
X13195295Y-9049402D01*
X13169700Y-9061263D01*
X13169700Y-9197300D01*
X13305684Y-9197300D01*
X13317597Y-9171706D01*
X13317597Y-9248294D01*
X13305684Y-9222700D01*
X13169700Y-9222700D01*
X13169700Y-9358737D01*
X13195295Y-9370598D01*
X13253838Y-9343719D01*
X13297638Y-9296482D01*
X13317597Y-9248294D01*
X13317597Y-9517450D01*
X13144300Y-9517450D01*
X13144300Y-9358737D01*
X13144300Y-9222700D01*
X13142300Y-9222700D01*
X13142300Y-9197300D01*
X13144300Y-9197300D01*
X13144300Y-9061263D01*
X13118705Y-9049402D01*
X13060162Y-9076281D01*
X13052957Y-9084052D01*
X13039067Y-9062907D01*
X13017964Y-9048662D01*
X12993000Y-9043656D01*
X12960350Y-9043656D01*
X12960350Y-7509481D01*
X12960350Y-7455575D01*
X12960350Y-7398425D01*
X12960350Y-7344519D01*
X12960350Y-6709481D01*
X12960350Y-6655575D01*
X12960350Y-6598425D01*
X12960350Y-6544519D01*
X12950683Y-6521180D01*
X12932820Y-6503317D01*
X12909481Y-6493650D01*
X12884219Y-6493650D01*
X12855575Y-6493650D01*
X12839700Y-6509525D01*
X12839700Y-6614300D01*
X12944475Y-6614300D01*
X12960350Y-6598425D01*
X12960350Y-6655575D01*
X12944475Y-6639700D01*
X12839700Y-6639700D01*
X12839700Y-6744475D01*
X12855575Y-6760350D01*
X12884219Y-6760350D01*
X12909481Y-6760350D01*
X12932820Y-6750683D01*
X12950683Y-6732820D01*
X12960350Y-6709481D01*
X12960350Y-7344519D01*
X12950683Y-7321180D01*
X12932820Y-7303317D01*
X12909481Y-7293650D01*
X12884219Y-7293650D01*
X12855575Y-7293650D01*
X12839700Y-7309525D01*
X12839700Y-7414300D01*
X12944475Y-7414300D01*
X12960350Y-7398425D01*
X12960350Y-7455575D01*
X12944475Y-7439700D01*
X12839700Y-7439700D01*
X12839700Y-7544475D01*
X12855575Y-7560350D01*
X12884219Y-7560350D01*
X12909481Y-7560350D01*
X12932820Y-7550683D01*
X12950683Y-7532820D01*
X12960350Y-7509481D01*
X12960350Y-9043656D01*
X12933373Y-9043656D01*
X12933373Y-8654591D01*
X12933373Y-7892591D01*
X12913115Y-7843562D01*
X12875635Y-7806017D01*
X12826641Y-7785673D01*
X12814300Y-7785662D01*
X12814300Y-7544475D01*
X12814300Y-7439700D01*
X12812300Y-7439700D01*
X12812300Y-7414300D01*
X12814300Y-7414300D01*
X12814300Y-7309525D01*
X12814300Y-6744475D01*
X12814300Y-6639700D01*
X12812300Y-6639700D01*
X12812300Y-6614300D01*
X12814300Y-6614300D01*
X12814300Y-6509525D01*
X12798425Y-6493650D01*
X12769781Y-6493650D01*
X12744519Y-6493650D01*
X12721180Y-6503317D01*
X12703317Y-6521180D01*
X12693650Y-6544519D01*
X12693650Y-6569799D01*
X12686115Y-6551562D01*
X12648635Y-6514017D01*
X12614855Y-6499991D01*
X12648438Y-6486115D01*
X12685983Y-6448635D01*
X12706327Y-6399641D01*
X12706373Y-6346591D01*
X12686115Y-6297562D01*
X12648635Y-6260017D01*
X12599641Y-6239673D01*
X12546591Y-6239627D01*
X12497562Y-6259885D01*
X12460017Y-6297365D01*
X12439673Y-6346359D01*
X12439627Y-6399409D01*
X12459885Y-6448438D01*
X12497365Y-6485983D01*
X12531145Y-6500009D01*
X12497562Y-6513885D01*
X12460017Y-6551365D01*
X12439673Y-6600359D01*
X12439627Y-6653409D01*
X12459885Y-6702438D01*
X12497365Y-6739983D01*
X12546359Y-6760327D01*
X12599409Y-6760373D01*
X12648438Y-6740115D01*
X12685983Y-6702635D01*
X12693650Y-6684170D01*
X12693650Y-6709481D01*
X12703317Y-6732820D01*
X12721180Y-6750683D01*
X12744519Y-6760350D01*
X12769781Y-6760350D01*
X12798425Y-6760350D01*
X12814300Y-6744475D01*
X12814300Y-7309525D01*
X12798425Y-7293650D01*
X12769781Y-7293650D01*
X12744519Y-7293650D01*
X12721180Y-7303317D01*
X12703317Y-7321180D01*
X12693650Y-7344519D01*
X12693650Y-7369799D01*
X12686115Y-7351562D01*
X12648635Y-7314017D01*
X12614855Y-7299991D01*
X12648438Y-7286115D01*
X12685983Y-7248635D01*
X12706327Y-7199641D01*
X12706373Y-7146591D01*
X12686115Y-7097562D01*
X12648635Y-7060017D01*
X12599641Y-7039673D01*
X12546591Y-7039627D01*
X12497562Y-7059885D01*
X12460017Y-7097365D01*
X12439673Y-7146359D01*
X12439627Y-7199409D01*
X12459885Y-7248438D01*
X12497365Y-7285983D01*
X12531145Y-7300009D01*
X12497562Y-7313885D01*
X12460017Y-7351365D01*
X12439673Y-7400359D01*
X12439627Y-7453409D01*
X12459885Y-7502438D01*
X12497365Y-7539983D01*
X12546359Y-7560327D01*
X12599409Y-7560373D01*
X12648438Y-7540115D01*
X12685983Y-7502635D01*
X12693650Y-7484170D01*
X12693650Y-7509481D01*
X12703317Y-7532820D01*
X12721180Y-7550683D01*
X12744519Y-7560350D01*
X12769781Y-7560350D01*
X12798425Y-7560350D01*
X12814300Y-7544475D01*
X12814300Y-7785662D01*
X12773591Y-7785627D01*
X12724562Y-7805885D01*
X12687017Y-7843365D01*
X12666673Y-7892359D01*
X12666627Y-7945409D01*
X12686885Y-7994438D01*
X12724365Y-8031983D01*
X12773359Y-8052327D01*
X12826409Y-8052373D01*
X12875438Y-8032115D01*
X12912983Y-7994635D01*
X12933327Y-7945641D01*
X12933373Y-7892591D01*
X12933373Y-8654591D01*
X12913115Y-8605562D01*
X12875635Y-8568017D01*
X12826641Y-8547673D01*
X12773591Y-8547627D01*
X12724562Y-8567885D01*
X12687017Y-8605365D01*
X12666673Y-8654359D01*
X12666627Y-8707409D01*
X12686885Y-8756438D01*
X12724365Y-8793983D01*
X12773359Y-8814327D01*
X12826409Y-8814373D01*
X12875438Y-8794115D01*
X12912983Y-8756635D01*
X12933327Y-8707641D01*
X12933373Y-8654591D01*
X12933373Y-9043656D01*
X12813000Y-9043656D01*
X12788788Y-9048354D01*
X12767507Y-9062333D01*
X12753262Y-9083436D01*
X12748256Y-9108400D01*
X12748256Y-9311600D01*
X12752954Y-9335812D01*
X12766933Y-9357093D01*
X12788036Y-9371338D01*
X12813000Y-9376344D01*
X12993000Y-9376344D01*
X13017212Y-9371646D01*
X13038493Y-9357667D01*
X13052738Y-9336564D01*
X13052878Y-9335863D01*
X13060162Y-9343719D01*
X13118705Y-9370598D01*
X13144300Y-9358737D01*
X13144300Y-9517450D01*
X12625985Y-9517450D01*
X12675671Y-9467851D01*
X12723508Y-9352645D01*
X12723617Y-9227902D01*
X12675981Y-9112613D01*
X12587851Y-9024329D01*
X12533373Y-9001708D01*
X12533373Y-8654591D01*
X12533373Y-7892591D01*
X12513115Y-7843562D01*
X12475635Y-7806017D01*
X12426641Y-7785673D01*
X12373591Y-7785627D01*
X12324562Y-7805885D01*
X12287017Y-7843365D01*
X12266673Y-7892359D01*
X12266627Y-7945409D01*
X12286885Y-7994438D01*
X12324365Y-8031983D01*
X12373359Y-8052327D01*
X12426409Y-8052373D01*
X12475438Y-8032115D01*
X12512983Y-7994635D01*
X12533327Y-7945641D01*
X12533373Y-7892591D01*
X12533373Y-8654591D01*
X12513115Y-8605562D01*
X12475635Y-8568017D01*
X12426641Y-8547673D01*
X12373591Y-8547627D01*
X12324562Y-8567885D01*
X12287017Y-8605365D01*
X12266673Y-8654359D01*
X12266627Y-8707409D01*
X12286885Y-8756438D01*
X12324365Y-8793983D01*
X12373359Y-8814327D01*
X12426409Y-8814373D01*
X12475438Y-8794115D01*
X12512983Y-8756635D01*
X12533327Y-8707641D01*
X12533373Y-8654591D01*
X12533373Y-9001708D01*
X12472645Y-8976492D01*
X12347902Y-8976383D01*
X12232613Y-9024019D01*
X12182550Y-9073995D01*
X12182550Y-6126003D01*
X12222149Y-6165671D01*
X12337355Y-6213508D01*
X12462098Y-6213617D01*
X12577387Y-6165981D01*
X12665671Y-6077851D01*
X12713508Y-5962645D01*
X12713617Y-5837902D01*
X12665981Y-5722613D01*
X12625988Y-5682550D01*
X21584032Y-5682550D01*
X21524329Y-5742149D01*
X21476492Y-5857355D01*
X21476383Y-5982098D01*
X21524019Y-6097387D01*
X21612149Y-6185671D01*
X21727355Y-6233508D01*
X21852098Y-6233617D01*
X21967387Y-6185981D01*
X22017450Y-6136005D01*
X22017450Y-9073997D01*
M02*
