M48
METRIC,TZ
T1C0.813
T2C0.889
T3C0.996
T4C1.016
T5C3.200
%
G90
G05
T1
X124000Y-79190
X124000Y-86810
X125730Y-63730
X125730Y-66270
X125730Y-71730
X125730Y-74270
X128000Y-79190
X128000Y-86810
X128270Y-66270
X128270Y-74270
X132000Y-58460
X132000Y-63540
X136460Y-64000
X141540Y-64000
T2
X135920Y-59000
X146080Y-59000
T3
X134190Y-67856
X134190Y-75476
X134190Y-80556
X134190Y-85636
X141810Y-67856
X141810Y-75476
X141810Y-80556
X141810Y-85636
T4
X129030Y-92100
X131570Y-92100
X136030Y-92000
X138570Y-92000
X143190Y-92000
X145730Y-92000
X148270Y-92000
X150810Y-92000
X156000Y-65840
X156000Y-68380
X156000Y-70920
X156000Y-73460
X156000Y-76000
X156000Y-78540
X156000Y-81080
X156000Y-83620
X156000Y-86160
X162730Y-92000
X165270Y-92000
X176000Y-65840
X176000Y-68380
X176000Y-70920
X176000Y-73460
X176000Y-76000
X176000Y-78540
X176000Y-81080
X176000Y-83620
X176000Y-86160
X180730Y-92000
X183270Y-92000
X187730Y-92000
X190270Y-92000
X196000Y-65840
X196000Y-68380
X196000Y-70920
X196000Y-73460
X196000Y-76000
X196000Y-78540
X196000Y-81080
X196000Y-83620
X196000Y-86160
X199160Y-92000
X201700Y-92000
X204240Y-92000
X209230Y-92000
X211770Y-92000
X216000Y-65840
X216000Y-68380
X216000Y-70920
X216000Y-73460
X216000Y-76000
X216000Y-78540
X216000Y-81080
X216000Y-83620
X216000Y-86160
T5
X124000Y-59000
X124100Y-92900
X217900Y-59200
X218000Y-93000
T0
M30
