M48
METRIC,TZ
T1C0.800
T2C0.813
T3C1.001
T4C1.016
T5C3.200
%
G90
G05
T1
X137231Y-89499
X139771Y-89499
T2
X129230Y-89731
X129230Y-92271
X131770Y-89731
X136500Y-78999
X136500Y-84999
X140000Y-78999
X140000Y-84999
X143500Y-78999
X143500Y-84999
X145461Y-75999
X147000Y-81191
X147000Y-88811
X150541Y-75999
X150731Y-67729
X150731Y-70269
X152730Y-86731
X152730Y-89271
X153271Y-70269
X154501Y-75001
X154501Y-81001
X155270Y-86731
X158001Y-75001
X158001Y-81001
X161501Y-75001
X161501Y-81001
T3
X127602Y-79179
X127602Y-84181
X130101Y-81679
X132601Y-79179
X132601Y-84181
X146180Y-93401
X146180Y-98400
X148679Y-95900
X151181Y-93401
X151181Y-98400
X165400Y-79819
X165400Y-84821
X167899Y-82321
X170398Y-79819
X170398Y-84821
T4
X128030Y-98100
X130570Y-98100
X135560Y-98000
X138100Y-98000
X140640Y-98000
T5
X127000Y-64999
X171000Y-99002
T0
M30
