G04 #@! TF.FileFunction,Soldermask,Top*
%FSLAX45Y45*%
G04 Gerber Fmt 4.5, Leading zero omitted, Abs format (unit mm)*
G04 Created by KiCad (PCBNEW (2015-01-25 BZR 5388)-product) date Mo 03 Aug 2015 14:19:02 CEST*
%MOMM*%
G01*
G04 APERTURE LIST*
%ADD10C,0.150000*%
%ADD11R,2.308000X2.540000*%
%ADD12O,2.540000X2.540000*%
%ADD13C,5.509260*%
%ADD14C,2.032000*%
%ADD15C,1.905000*%
%ADD16R,1.905000X1.905000*%
%ADD17R,2.506980X2.506980*%
%ADD18C,2.506980*%
%ADD19R,2.032000X9.507220*%
%ADD20R,2.506980X6.604000*%
%ADD21C,2.108200*%
%ADD22R,9.507220X2.032000*%
%ADD23R,6.604000X2.506980*%
%ADD24R,2.235200X2.540000*%
%ADD25O,2.235200X2.540000*%
G04 APERTURE END LIST*
D10*
D11*
X12803000Y-9810000D03*
D12*
X13057000Y-9810000D03*
D13*
X17100042Y-9900158D03*
X12700000Y-6499860D03*
D14*
X16150082Y-8100060D03*
X16150082Y-7500112D03*
D15*
X15800070Y-8100060D03*
X15800070Y-7500112D03*
X15450058Y-8100060D03*
X15450058Y-7500112D03*
D14*
X13649960Y-7899908D03*
X13649960Y-8499856D03*
D15*
X13999972Y-7899908D03*
X13999972Y-8499856D03*
X14349984Y-7899908D03*
X14349984Y-8499856D03*
X15527020Y-8673084D03*
D16*
X15273020Y-8673084D03*
D15*
X15273020Y-8927084D03*
X14699996Y-8881110D03*
X14699996Y-8119110D03*
D17*
X13723112Y-8949944D03*
D18*
X13977112Y-8949944D03*
D15*
X14546072Y-7599934D03*
X15054072Y-7599934D03*
D16*
X12923012Y-9227058D03*
D15*
X12923012Y-8973058D03*
X13177012Y-8973058D03*
X15073122Y-6772910D03*
D16*
X15073122Y-7026910D03*
D15*
X15327122Y-7026910D03*
D19*
X15189454Y-9700006D03*
D10*
G36*
X14747621Y-10063861D02*
X14998319Y-10063861D01*
X14938375Y-10164699D01*
X14807565Y-10164699D01*
X14747621Y-10063861D01*
X14747621Y-10063861D01*
G37*
D19*
X14556994Y-9700006D03*
D20*
X14872970Y-9784080D03*
D18*
X14867890Y-9590024D03*
D21*
X14617954Y-9839960D03*
X15118080Y-9839960D03*
D18*
X15118080Y-9340088D03*
X14617954Y-9340088D03*
D22*
X16899890Y-7910576D03*
D10*
G36*
X17263745Y-8352409D02*
X17263745Y-8101711D01*
X17364583Y-8161655D01*
X17364583Y-8292465D01*
X17263745Y-8352409D01*
X17263745Y-8352409D01*
G37*
D22*
X16899890Y-8543036D03*
D23*
X16983964Y-8227060D03*
D18*
X16789908Y-8232140D03*
D21*
X17039844Y-8482076D03*
X17039844Y-7981950D03*
D18*
X16539972Y-7981950D03*
X16539972Y-8482076D03*
D22*
X12900152Y-8489442D03*
D10*
G36*
X12536297Y-8047609D02*
X12536297Y-8298307D01*
X12435459Y-8238363D01*
X12435459Y-8107553D01*
X12536297Y-8047609D01*
X12536297Y-8047609D01*
G37*
D22*
X12900152Y-7856982D03*
D23*
X12816078Y-8172958D03*
D18*
X13010134Y-8167878D03*
D21*
X12760198Y-7917942D03*
X12760198Y-8418068D03*
D18*
X13260070Y-8418068D03*
X13260070Y-7917942D03*
D24*
X13556000Y-9800000D03*
D25*
X13810000Y-9800000D03*
X14064000Y-9800000D03*
M02*
