G04 #@! TF.FileFunction,Legend,Top*
%FSLAX45Y45*%
G04 Gerber Fmt 4.5, Leading zero omitted, Abs format (unit mm)*
G04 Created by KiCad (PCBNEW (2015-01-25 BZR 5388)-product) date Mo 03 Aug 2015 14:15:33 CEST*
%MOMM*%
G01*
G04 APERTURE LIST*
%ADD10C,0.150000*%
%ADD11C,0.200660*%
%ADD12C,0.381000*%
%ADD13C,0.152400*%
%ADD14C,0.317500*%
%ADD15C,0.304800*%
%ADD16C,0.203200*%
G04 APERTURE END LIST*
D10*
D11*
X16519930Y-8832487D02*
X16558054Y-8832487D01*
X16534227Y-8799129D02*
X16534227Y-8884908D01*
X16538992Y-8894439D01*
X16548523Y-8899205D01*
X16558054Y-8899205D01*
X16605710Y-8899205D02*
X16596178Y-8894439D01*
X16591413Y-8889673D01*
X16586647Y-8880142D01*
X16586647Y-8851549D01*
X16591413Y-8842018D01*
X16596178Y-8837253D01*
X16605710Y-8832487D01*
X16620006Y-8832487D01*
X16629537Y-8837253D01*
X16634303Y-8842018D01*
X16639068Y-8851549D01*
X16639068Y-8880142D01*
X16634303Y-8889673D01*
X16629537Y-8894439D01*
X16620006Y-8899205D01*
X16605710Y-8899205D01*
X16758206Y-8899205D02*
X16758206Y-8799129D01*
X16839220Y-8846784D02*
X16805862Y-8846784D01*
X16805862Y-8899205D02*
X16805862Y-8799129D01*
X16853517Y-8799129D01*
X16963124Y-8870611D02*
X17010779Y-8870611D01*
X16953593Y-8899205D02*
X16986952Y-8799129D01*
X17020310Y-8899205D01*
X17053669Y-8899205D02*
X17053669Y-8832487D01*
X17053669Y-8842018D02*
X17058434Y-8837253D01*
X17067965Y-8832487D01*
X17082262Y-8832487D01*
X17091793Y-8837253D01*
X17096559Y-8846784D01*
X17096559Y-8899205D01*
X17096559Y-8846784D02*
X17101324Y-8837253D01*
X17110855Y-8832487D01*
X17125152Y-8832487D01*
X17134683Y-8837253D01*
X17139448Y-8846784D01*
X17139448Y-8899205D01*
X17187104Y-8832487D02*
X17187104Y-8932563D01*
X17187104Y-8837253D02*
X17196635Y-8832487D01*
X17215697Y-8832487D01*
X17225228Y-8837253D01*
X17229993Y-8842018D01*
X17234759Y-8851549D01*
X17234759Y-8880142D01*
X17229993Y-8889673D01*
X17225228Y-8894439D01*
X17215697Y-8899205D01*
X17196635Y-8899205D01*
X17187104Y-8894439D01*
X12589099Y-8850521D02*
X12627223Y-8850521D01*
X12603395Y-8817163D02*
X12603395Y-8902942D01*
X12608161Y-8912473D01*
X12617692Y-8917239D01*
X12627223Y-8917239D01*
X12674878Y-8917239D02*
X12665347Y-8912473D01*
X12660582Y-8907707D01*
X12655816Y-8898176D01*
X12655816Y-8869583D01*
X12660582Y-8860052D01*
X12665347Y-8855287D01*
X12674878Y-8850521D01*
X12689175Y-8850521D01*
X12698706Y-8855287D01*
X12703471Y-8860052D01*
X12708237Y-8869583D01*
X12708237Y-8898176D01*
X12703471Y-8907707D01*
X12698706Y-8912473D01*
X12689175Y-8917239D01*
X12674878Y-8917239D01*
X12860734Y-8864818D02*
X12875030Y-8869583D01*
X12879796Y-8874349D01*
X12884561Y-8883880D01*
X12884561Y-8898176D01*
X12879796Y-8907707D01*
X12875030Y-8912473D01*
X12865499Y-8917239D01*
X12827375Y-8917239D01*
X12827375Y-8817163D01*
X12860734Y-8817163D01*
X12870265Y-8821928D01*
X12875030Y-8826694D01*
X12879796Y-8836225D01*
X12879796Y-8845756D01*
X12875030Y-8855287D01*
X12870265Y-8860052D01*
X12860734Y-8864818D01*
X12827375Y-8864818D01*
X12960810Y-8864818D02*
X12927451Y-8864818D01*
X12927451Y-8917239D02*
X12927451Y-8817163D01*
X12975106Y-8817163D01*
X13032292Y-8817163D02*
X13051355Y-8817163D01*
X13060886Y-8821928D01*
X13070417Y-8831459D01*
X13075182Y-8850521D01*
X13075182Y-8883880D01*
X13070417Y-8902942D01*
X13060886Y-8912473D01*
X13051355Y-8917239D01*
X13032292Y-8917239D01*
X13022761Y-8912473D01*
X13013230Y-8902942D01*
X13008465Y-8883880D01*
X13008465Y-8850521D01*
X13013230Y-8831459D01*
X13022761Y-8821928D01*
X13032292Y-8817163D01*
X15655435Y-6684248D02*
X15655435Y-6584172D01*
X15688794Y-6655655D01*
X15722152Y-6584172D01*
X15722152Y-6684248D01*
X15812697Y-6684248D02*
X15812697Y-6631827D01*
X15807932Y-6622296D01*
X15798401Y-6617531D01*
X15779339Y-6617531D01*
X15769808Y-6622296D01*
X15812697Y-6679483D02*
X15803166Y-6684248D01*
X15779339Y-6684248D01*
X15769808Y-6679483D01*
X15765042Y-6669952D01*
X15765042Y-6660421D01*
X15769808Y-6650890D01*
X15779339Y-6646124D01*
X15803166Y-6646124D01*
X15812697Y-6641359D01*
X15846056Y-6617531D02*
X15884180Y-6617531D01*
X15860353Y-6584172D02*
X15860353Y-6669952D01*
X15865118Y-6679483D01*
X15874649Y-6684248D01*
X15884180Y-6684248D01*
X15960429Y-6679483D02*
X15950898Y-6684248D01*
X15931836Y-6684248D01*
X15922304Y-6679483D01*
X15917539Y-6674717D01*
X15912773Y-6665186D01*
X15912773Y-6636593D01*
X15917539Y-6627062D01*
X15922304Y-6622296D01*
X15931836Y-6617531D01*
X15950898Y-6617531D01*
X15960429Y-6622296D01*
X16003318Y-6684248D02*
X16003318Y-6584172D01*
X16046208Y-6684248D02*
X16046208Y-6631827D01*
X16041443Y-6622296D01*
X16031912Y-6617531D01*
X16017615Y-6617531D01*
X16008084Y-6622296D01*
X16003318Y-6627062D01*
X16131988Y-6679483D02*
X16122457Y-6684248D01*
X16103394Y-6684248D01*
X16093863Y-6679483D01*
X16089098Y-6669952D01*
X16089098Y-6631827D01*
X16093863Y-6622296D01*
X16103394Y-6617531D01*
X16122457Y-6617531D01*
X16131988Y-6622296D01*
X16136753Y-6631827D01*
X16136753Y-6641359D01*
X16089098Y-6650890D01*
X16222532Y-6684248D02*
X16222532Y-6584172D01*
X16222532Y-6679483D02*
X16213001Y-6684248D01*
X16193939Y-6684248D01*
X16184408Y-6679483D01*
X16179643Y-6674717D01*
X16174877Y-6665186D01*
X16174877Y-6636593D01*
X16179643Y-6627062D01*
X16184408Y-6622296D01*
X16193939Y-6617531D01*
X16213001Y-6617531D01*
X16222532Y-6622296D01*
X15753128Y-6844421D02*
X15753128Y-6744345D01*
X15776956Y-6744345D01*
X15791253Y-6749110D01*
X15800784Y-6758641D01*
X15805549Y-6768172D01*
X15810315Y-6787234D01*
X15810315Y-6801531D01*
X15805549Y-6820593D01*
X15800784Y-6830124D01*
X15791253Y-6839655D01*
X15776956Y-6844421D01*
X15753128Y-6844421D01*
X15853204Y-6844421D02*
X15853204Y-6777703D01*
X15853204Y-6744345D02*
X15848439Y-6749110D01*
X15853204Y-6753876D01*
X15857970Y-6749110D01*
X15853204Y-6744345D01*
X15853204Y-6753876D01*
X15915156Y-6844421D02*
X15905625Y-6839655D01*
X15900860Y-6834890D01*
X15896094Y-6825359D01*
X15896094Y-6796765D01*
X15900860Y-6787234D01*
X15905625Y-6782469D01*
X15915156Y-6777703D01*
X15929453Y-6777703D01*
X15938984Y-6782469D01*
X15943749Y-6787234D01*
X15948515Y-6796765D01*
X15948515Y-6825359D01*
X15943749Y-6834890D01*
X15938984Y-6839655D01*
X15929453Y-6844421D01*
X15915156Y-6844421D01*
X16034294Y-6844421D02*
X16034294Y-6744345D01*
X16034294Y-6839655D02*
X16024763Y-6844421D01*
X16005701Y-6844421D01*
X15996170Y-6839655D01*
X15991405Y-6834890D01*
X15986639Y-6825359D01*
X15986639Y-6796765D01*
X15991405Y-6787234D01*
X15996170Y-6782469D01*
X16005701Y-6777703D01*
X16024763Y-6777703D01*
X16034294Y-6782469D01*
X16120074Y-6839655D02*
X16110543Y-6844421D01*
X16091481Y-6844421D01*
X16081950Y-6839655D01*
X16077184Y-6830124D01*
X16077184Y-6792000D01*
X16081950Y-6782469D01*
X16091481Y-6777703D01*
X16110543Y-6777703D01*
X16120074Y-6782469D01*
X16124839Y-6792000D01*
X16124839Y-6801531D01*
X16077184Y-6811062D01*
X16162963Y-6839655D02*
X16172494Y-6844421D01*
X16191557Y-6844421D01*
X16201088Y-6839655D01*
X16205853Y-6830124D01*
X16205853Y-6825359D01*
X16201088Y-6815827D01*
X16191557Y-6811062D01*
X16177260Y-6811062D01*
X16167729Y-6806296D01*
X16162963Y-6796765D01*
X16162963Y-6792000D01*
X16167729Y-6782469D01*
X16177260Y-6777703D01*
X16191557Y-6777703D01*
X16201088Y-6782469D01*
X12664755Y-9954139D02*
X12664755Y-9834251D01*
X12704717Y-9919885D01*
X12744680Y-9834251D01*
X12744680Y-9954139D01*
X12801770Y-9954139D02*
X12801770Y-9874214D01*
X12801770Y-9834251D02*
X12796061Y-9839960D01*
X12801770Y-9845669D01*
X12807479Y-9839960D01*
X12801770Y-9834251D01*
X12801770Y-9845669D01*
X12858859Y-9874214D02*
X12858859Y-9954139D01*
X12858859Y-9885632D02*
X12864568Y-9879923D01*
X12875986Y-9874214D01*
X12893113Y-9874214D01*
X12904531Y-9879923D01*
X12910240Y-9891341D01*
X12910240Y-9954139D01*
X12967329Y-9954139D02*
X12967329Y-9874214D01*
X12967329Y-9834251D02*
X12961620Y-9839960D01*
X12967329Y-9845669D01*
X12973038Y-9839960D01*
X12967329Y-9834251D01*
X12967329Y-9845669D01*
X13024419Y-9954139D02*
X13024419Y-9874214D01*
X13024419Y-9885632D02*
X13030128Y-9879923D01*
X13041546Y-9874214D01*
X13058672Y-9874214D01*
X13070090Y-9879923D01*
X13075799Y-9891341D01*
X13075799Y-9954139D01*
X13075799Y-9891341D02*
X13081508Y-9879923D01*
X13092926Y-9874214D01*
X13110053Y-9874214D01*
X13121471Y-9879923D01*
X13127180Y-9891341D01*
X13127180Y-9954139D01*
X13235650Y-9954139D02*
X13235650Y-9891341D01*
X13229941Y-9879923D01*
X13218523Y-9874214D01*
X13195687Y-9874214D01*
X13184269Y-9879923D01*
X13235650Y-9948430D02*
X13224232Y-9954139D01*
X13195687Y-9954139D01*
X13184269Y-9948430D01*
X13178560Y-9937012D01*
X13178560Y-9925594D01*
X13184269Y-9914176D01*
X13195687Y-9908467D01*
X13224232Y-9908467D01*
X13235650Y-9902759D01*
X13384083Y-9874214D02*
X13475426Y-9908467D01*
X13384083Y-9942721D01*
X13623859Y-9954139D02*
X13623859Y-9834251D01*
X13720911Y-9891341D02*
X13680948Y-9891341D01*
X13680948Y-9954139D02*
X13680948Y-9834251D01*
X13738038Y-9834251D01*
X13875053Y-9954139D02*
X13875053Y-9834251D01*
X13915015Y-9919885D01*
X13954978Y-9834251D01*
X13954978Y-9954139D01*
X14012067Y-9954139D02*
X14012067Y-9874214D01*
X14012067Y-9834251D02*
X14006358Y-9839960D01*
X14012067Y-9845669D01*
X14017776Y-9839960D01*
X14012067Y-9834251D01*
X14012067Y-9845669D01*
X14057739Y-9954139D02*
X14120537Y-9874214D01*
X14057739Y-9874214D02*
X14120537Y-9954139D01*
X14211881Y-9948430D02*
X14200463Y-9954139D01*
X14177627Y-9954139D01*
X14166209Y-9948430D01*
X14160500Y-9937012D01*
X14160500Y-9891341D01*
X14166209Y-9879923D01*
X14177627Y-9874214D01*
X14200463Y-9874214D01*
X14211881Y-9879923D01*
X14217590Y-9891341D01*
X14217590Y-9902759D01*
X14160500Y-9914176D01*
X14268970Y-9954139D02*
X14268970Y-9874214D01*
X14268970Y-9897050D02*
X14274679Y-9885632D01*
X14280388Y-9879923D01*
X14291806Y-9874214D01*
X14303224Y-9874214D01*
X14434530Y-9954139D02*
X14434530Y-9834251D01*
X14474492Y-9919885D01*
X14514455Y-9834251D01*
X14514455Y-9954139D01*
X14588672Y-9954139D02*
X14577254Y-9948430D01*
X14571545Y-9942721D01*
X14565836Y-9931303D01*
X14565836Y-9897050D01*
X14571545Y-9885632D01*
X14577254Y-9879923D01*
X14588672Y-9874214D01*
X14605798Y-9874214D01*
X14617216Y-9879923D01*
X14622925Y-9885632D01*
X14628634Y-9897050D01*
X14628634Y-9931303D01*
X14622925Y-9942721D01*
X14617216Y-9948430D01*
X14605798Y-9954139D01*
X14588672Y-9954139D01*
X14731395Y-9954139D02*
X14731395Y-9834251D01*
X14731395Y-9948430D02*
X14719977Y-9954139D01*
X14697142Y-9954139D01*
X14685724Y-9948430D01*
X14680015Y-9942721D01*
X14674306Y-9931303D01*
X14674306Y-9897050D01*
X14680015Y-9885632D01*
X14685724Y-9879923D01*
X14697142Y-9874214D01*
X14719977Y-9874214D01*
X14731395Y-9879923D01*
X14874119Y-9828542D02*
X14771358Y-9982684D01*
X14914082Y-9954139D02*
X14914082Y-9834251D01*
X14942627Y-9834251D01*
X14959754Y-9839960D01*
X14971171Y-9851378D01*
X14976880Y-9862796D01*
X14982589Y-9885632D01*
X14982589Y-9902759D01*
X14976880Y-9925594D01*
X14971171Y-9937012D01*
X14959754Y-9948430D01*
X14942627Y-9954139D01*
X14914082Y-9954139D01*
X15079642Y-9948430D02*
X15068224Y-9954139D01*
X15045388Y-9954139D01*
X15033970Y-9948430D01*
X15028261Y-9937012D01*
X15028261Y-9891341D01*
X15033970Y-9879923D01*
X15045388Y-9874214D01*
X15068224Y-9874214D01*
X15079642Y-9879923D01*
X15085350Y-9891341D01*
X15085350Y-9902759D01*
X15028261Y-9914176D01*
X15136731Y-9954139D02*
X15136731Y-9874214D01*
X15136731Y-9885632D02*
X15142440Y-9879923D01*
X15153858Y-9874214D01*
X15170985Y-9874214D01*
X15182403Y-9879923D01*
X15188112Y-9891341D01*
X15188112Y-9954139D01*
X15188112Y-9891341D02*
X15193821Y-9879923D01*
X15205238Y-9874214D01*
X15222365Y-9874214D01*
X15233783Y-9879923D01*
X15239492Y-9891341D01*
X15239492Y-9954139D01*
X15422179Y-9999811D02*
X15416470Y-9994102D01*
X15405052Y-9976975D01*
X15399343Y-9965557D01*
X15393634Y-9948430D01*
X15387925Y-9919885D01*
X15387925Y-9897050D01*
X15393634Y-9868505D01*
X15399343Y-9851378D01*
X15405052Y-9839960D01*
X15416470Y-9822833D01*
X15422179Y-9817124D01*
X15467850Y-9954139D02*
X15467850Y-9834251D01*
X15496395Y-9834251D01*
X15513522Y-9839960D01*
X15524940Y-9851378D01*
X15530649Y-9862796D01*
X15536358Y-9885632D01*
X15536358Y-9902759D01*
X15530649Y-9925594D01*
X15524940Y-9937012D01*
X15513522Y-9948430D01*
X15496395Y-9954139D01*
X15467850Y-9954139D01*
X15627701Y-9891341D02*
X15587738Y-9891341D01*
X15587738Y-9954139D02*
X15587738Y-9834251D01*
X15644828Y-9834251D01*
X15696208Y-9954139D02*
X15719044Y-9954139D01*
X15730462Y-9948430D01*
X15736171Y-9942721D01*
X15747589Y-9925594D01*
X15753298Y-9902759D01*
X15753298Y-9857087D01*
X15747589Y-9845669D01*
X15741880Y-9839960D01*
X15730462Y-9834251D01*
X15707626Y-9834251D01*
X15696208Y-9839960D01*
X15690499Y-9845669D01*
X15684790Y-9857087D01*
X15684790Y-9885632D01*
X15690499Y-9897050D01*
X15696208Y-9902759D01*
X15707626Y-9908467D01*
X15730462Y-9908467D01*
X15741880Y-9902759D01*
X15747589Y-9897050D01*
X15753298Y-9885632D01*
X15873186Y-9954139D02*
X15833223Y-9897050D01*
X15804678Y-9954139D02*
X15804678Y-9834251D01*
X15850350Y-9834251D01*
X15861768Y-9839960D01*
X15867477Y-9845669D01*
X15873186Y-9857087D01*
X15873186Y-9874214D01*
X15867477Y-9885632D01*
X15861768Y-9891341D01*
X15850350Y-9897050D01*
X15804678Y-9897050D01*
X15924566Y-9834251D02*
X15924566Y-9931303D01*
X15930275Y-9942721D01*
X15935984Y-9948430D01*
X15947402Y-9954139D01*
X15970238Y-9954139D01*
X15981656Y-9948430D01*
X15987365Y-9942721D01*
X15993074Y-9931303D01*
X15993074Y-9834251D01*
X16038745Y-9999811D02*
X16044454Y-9994102D01*
X16055872Y-9976975D01*
X16061581Y-9965557D01*
X16067290Y-9948430D01*
X16072999Y-9919885D01*
X16072999Y-9897050D01*
X16067290Y-9868505D01*
X16061581Y-9851378D01*
X16055872Y-9839960D01*
X16044454Y-9822833D01*
X16038745Y-9817124D01*
X16204305Y-9834251D02*
X16244268Y-9954139D01*
X16284230Y-9834251D01*
X16438372Y-9834251D02*
X16449790Y-9834251D01*
X16461208Y-9839960D01*
X16466917Y-9845669D01*
X16472626Y-9857087D01*
X16478335Y-9879923D01*
X16478335Y-9908467D01*
X16472626Y-9931303D01*
X16466917Y-9942721D01*
X16461208Y-9948430D01*
X16449790Y-9954139D01*
X16438372Y-9954139D01*
X16426954Y-9948430D01*
X16421245Y-9942721D01*
X16415536Y-9931303D01*
X16409827Y-9908467D01*
X16409827Y-9879923D01*
X16415536Y-9857087D01*
X16421245Y-9845669D01*
X16426954Y-9839960D01*
X16438372Y-9834251D01*
X16529715Y-9942721D02*
X16535424Y-9948430D01*
X16529715Y-9954139D01*
X16524006Y-9948430D01*
X16529715Y-9942721D01*
X16529715Y-9954139D01*
X16649603Y-9954139D02*
X16581096Y-9954139D01*
X16615349Y-9954139D02*
X16615349Y-9834251D01*
X16603931Y-9851378D01*
X16592514Y-9862796D01*
X16581096Y-9868505D01*
D12*
X17328642Y-9900158D02*
G75*
G03X17328642Y-9900158I-228600J0D01*
G01*
X12928600Y-6499860D02*
G75*
G03X12928600Y-6499860I-228600J0D01*
G01*
D13*
X14441932Y-6830060D02*
X14441932Y-6576060D01*
X14441932Y-6576060D02*
X14949932Y-6576060D01*
X14949932Y-6576060D02*
X14949932Y-6830060D01*
X14949932Y-6830060D02*
X14441932Y-6830060D01*
D14*
X15533878Y-8520938D02*
X15356078Y-8520938D01*
X15940278Y-8520938D02*
X16118078Y-8520938D01*
X15584678Y-8622538D02*
X15584678Y-8419338D01*
X15940278Y-8622538D02*
X15940278Y-8419338D01*
X15940278Y-8419338D02*
X15533878Y-8419338D01*
X15533878Y-8419338D02*
X15533878Y-8622538D01*
X15533878Y-8622538D02*
X15940278Y-8622538D01*
X15924276Y-7919974D02*
X16102076Y-7919974D01*
X15517876Y-7919974D02*
X15340076Y-7919974D01*
X15873476Y-7818374D02*
X15873476Y-8021574D01*
X15517876Y-7818374D02*
X15517876Y-8021574D01*
X15517876Y-8021574D02*
X15924276Y-8021574D01*
X15924276Y-8021574D02*
X15924276Y-7818374D01*
X15924276Y-7818374D02*
X15517876Y-7818374D01*
D15*
X14308328Y-7210298D02*
X15019528Y-7210298D01*
X15019528Y-7210298D02*
X15019528Y-7413498D01*
X15019528Y-7413498D02*
X14308328Y-7413498D01*
X14308328Y-7413498D02*
X14308328Y-7210298D01*
X14308328Y-7261098D02*
X14359128Y-7210298D01*
D12*
X14907006Y-8017002D02*
X14907006Y-8416798D01*
X14907006Y-8416798D02*
X13906754Y-8416798D01*
X13906754Y-8416798D02*
X13906754Y-8017002D01*
X13906754Y-8017002D02*
X14907006Y-8017002D01*
X13384800Y-8619560D02*
X12434840Y-8624640D01*
X12434840Y-8624640D02*
X12434840Y-7786440D01*
X12434840Y-7786440D02*
X13389880Y-7786440D01*
X13389880Y-7786440D02*
X13389880Y-8619560D01*
X12445000Y-8586540D02*
X12445000Y-7824540D01*
X12445000Y-7824540D02*
X11175000Y-7824540D01*
X11175000Y-7824540D02*
X11175000Y-8586540D01*
X11175000Y-8586540D02*
X12445000Y-8586540D01*
X16405200Y-7780440D02*
X17355160Y-7775360D01*
X17355160Y-7775360D02*
X17355160Y-8613560D01*
X17355160Y-8613560D02*
X16400120Y-8613560D01*
X16400120Y-8613560D02*
X16400120Y-7780440D01*
X17345000Y-7813460D02*
X17345000Y-8575460D01*
X17345000Y-8575460D02*
X18615000Y-8575460D01*
X18615000Y-8575460D02*
X18615000Y-7813460D01*
X18615000Y-7813460D02*
X17345000Y-7813460D01*
D13*
X14639689Y-6547031D02*
X14639689Y-6470831D01*
X14668718Y-6470831D01*
X14675975Y-6474460D01*
X14679603Y-6478089D01*
X14683232Y-6485346D01*
X14683232Y-6496231D01*
X14679603Y-6503489D01*
X14675975Y-6507117D01*
X14668718Y-6510746D01*
X14639689Y-6510746D01*
X14755803Y-6547031D02*
X14712261Y-6547031D01*
X14734032Y-6547031D02*
X14734032Y-6470831D01*
X14726775Y-6481717D01*
X14719518Y-6488974D01*
X14712261Y-6492603D01*
D16*
X15694092Y-8886940D02*
X15694092Y-8785340D01*
X15718282Y-8785340D01*
X15732796Y-8790178D01*
X15742472Y-8799854D01*
X15747311Y-8809530D01*
X15752149Y-8828883D01*
X15752149Y-8843397D01*
X15747311Y-8862749D01*
X15742472Y-8872426D01*
X15732796Y-8882102D01*
X15718282Y-8886940D01*
X15694092Y-8886940D01*
X15790853Y-8795016D02*
X15795692Y-8790178D01*
X15805368Y-8785340D01*
X15829558Y-8785340D01*
X15839234Y-8790178D01*
X15844072Y-8795016D01*
X15848911Y-8804692D01*
X15848911Y-8814369D01*
X15844072Y-8828883D01*
X15786015Y-8886940D01*
X15848911Y-8886940D01*
X15727390Y-9119858D02*
X15669333Y-9119858D01*
X15698361Y-9119858D02*
X15698361Y-9018258D01*
X15688685Y-9032772D01*
X15679009Y-9042448D01*
X15669333Y-9047287D01*
X15770933Y-9119858D02*
X15770933Y-9018258D01*
X15828990Y-9119858D01*
X15828990Y-9018258D01*
X15920913Y-9052125D02*
X15920913Y-9119858D01*
X15896723Y-9013420D02*
X15872533Y-9085991D01*
X15935428Y-9085991D01*
X16027352Y-9119858D02*
X15969294Y-9119858D01*
X15998323Y-9119858D02*
X15998323Y-9018258D01*
X15988647Y-9032772D01*
X15978971Y-9042448D01*
X15969294Y-9047287D01*
X16114437Y-9052125D02*
X16114437Y-9119858D01*
X16090247Y-9013420D02*
X16066056Y-9085991D01*
X16128952Y-9085991D01*
X16182171Y-9061801D02*
X16172494Y-9056963D01*
X16167656Y-9052125D01*
X16162818Y-9042448D01*
X16162818Y-9037610D01*
X16167656Y-9027934D01*
X16172494Y-9023096D01*
X16182171Y-9018258D01*
X16201523Y-9018258D01*
X16211199Y-9023096D01*
X16216037Y-9027934D01*
X16220875Y-9037610D01*
X16220875Y-9042448D01*
X16216037Y-9052125D01*
X16211199Y-9056963D01*
X16201523Y-9061801D01*
X16182171Y-9061801D01*
X16172494Y-9066639D01*
X16167656Y-9071477D01*
X16162818Y-9081153D01*
X16162818Y-9100506D01*
X16167656Y-9110182D01*
X16172494Y-9115020D01*
X16182171Y-9119858D01*
X16201523Y-9119858D01*
X16211199Y-9115020D01*
X16216037Y-9110182D01*
X16220875Y-9100506D01*
X16220875Y-9081153D01*
X16216037Y-9071477D01*
X16211199Y-9066639D01*
X16201523Y-9061801D01*
X15678090Y-7654024D02*
X15678090Y-7552424D01*
X15702280Y-7552424D01*
X15716794Y-7557262D01*
X15726470Y-7566938D01*
X15731309Y-7576614D01*
X15736147Y-7595967D01*
X15736147Y-7610481D01*
X15731309Y-7629833D01*
X15726470Y-7639510D01*
X15716794Y-7649186D01*
X15702280Y-7654024D01*
X15678090Y-7654024D01*
X15832909Y-7654024D02*
X15774851Y-7654024D01*
X15803880Y-7654024D02*
X15803880Y-7552424D01*
X15794204Y-7566938D01*
X15784528Y-7576614D01*
X15774851Y-7581452D01*
X15735264Y-7429996D02*
X15677207Y-7429996D01*
X15706235Y-7429996D02*
X15706235Y-7328396D01*
X15696559Y-7342910D01*
X15686883Y-7352586D01*
X15677207Y-7357424D01*
X15778807Y-7429996D02*
X15778807Y-7328396D01*
X15836864Y-7429996D01*
X15836864Y-7328396D01*
X15928787Y-7362263D02*
X15928787Y-7429996D01*
X15904597Y-7323558D02*
X15880407Y-7396129D01*
X15943302Y-7396129D01*
X16035226Y-7429996D02*
X15977168Y-7429996D01*
X16006197Y-7429996D02*
X16006197Y-7328396D01*
X15996521Y-7342910D01*
X15986845Y-7352586D01*
X15977168Y-7357424D01*
X16122311Y-7362263D02*
X16122311Y-7429996D01*
X16098121Y-7323558D02*
X16073930Y-7396129D01*
X16136826Y-7396129D01*
X16190045Y-7371939D02*
X16180368Y-7367101D01*
X16175530Y-7362263D01*
X16170692Y-7352586D01*
X16170692Y-7347748D01*
X16175530Y-7338072D01*
X16180368Y-7333234D01*
X16190045Y-7328396D01*
X16209397Y-7328396D01*
X16219073Y-7333234D01*
X16223911Y-7338072D01*
X16228749Y-7347748D01*
X16228749Y-7352586D01*
X16223911Y-7362263D01*
X16219073Y-7367101D01*
X16209397Y-7371939D01*
X16190045Y-7371939D01*
X16180368Y-7376777D01*
X16175530Y-7381615D01*
X16170692Y-7391291D01*
X16170692Y-7410643D01*
X16175530Y-7420320D01*
X16180368Y-7425158D01*
X16190045Y-7429996D01*
X16209397Y-7429996D01*
X16219073Y-7425158D01*
X16223911Y-7420320D01*
X16228749Y-7410643D01*
X16228749Y-7391291D01*
X16223911Y-7381615D01*
X16219073Y-7376777D01*
X16209397Y-7371939D01*
X15223067Y-7340310D02*
X15218229Y-7345148D01*
X15203714Y-7349986D01*
X15194038Y-7349986D01*
X15179524Y-7345148D01*
X15169848Y-7335472D01*
X15165010Y-7325795D01*
X15160171Y-7306443D01*
X15160171Y-7291929D01*
X15165010Y-7272576D01*
X15169848Y-7262900D01*
X15179524Y-7253224D01*
X15194038Y-7248386D01*
X15203714Y-7248386D01*
X15218229Y-7253224D01*
X15223067Y-7258062D01*
X15319829Y-7349986D02*
X15261771Y-7349986D01*
X15290800Y-7349986D02*
X15290800Y-7248386D01*
X15281124Y-7262900D01*
X15271448Y-7272576D01*
X15261771Y-7277414D01*
X13786455Y-7357860D02*
X13728398Y-7357860D01*
X13757426Y-7357860D02*
X13757426Y-7256260D01*
X13747750Y-7270774D01*
X13738074Y-7280450D01*
X13728398Y-7285288D01*
X13849350Y-7256260D02*
X13859026Y-7256260D01*
X13868702Y-7261098D01*
X13873540Y-7265936D01*
X13878379Y-7275612D01*
X13883217Y-7294965D01*
X13883217Y-7319155D01*
X13878379Y-7338507D01*
X13873540Y-7348184D01*
X13868702Y-7353022D01*
X13859026Y-7357860D01*
X13849350Y-7357860D01*
X13839674Y-7353022D01*
X13834836Y-7348184D01*
X13829998Y-7338507D01*
X13825160Y-7319155D01*
X13825160Y-7294965D01*
X13829998Y-7275612D01*
X13834836Y-7265936D01*
X13839674Y-7261098D01*
X13849350Y-7256260D01*
X13946112Y-7256260D02*
X13955788Y-7256260D01*
X13965464Y-7261098D01*
X13970302Y-7265936D01*
X13975140Y-7275612D01*
X13979979Y-7294965D01*
X13979979Y-7319155D01*
X13975140Y-7338507D01*
X13970302Y-7348184D01*
X13965464Y-7353022D01*
X13955788Y-7357860D01*
X13946112Y-7357860D01*
X13936436Y-7353022D01*
X13931598Y-7348184D01*
X13926760Y-7338507D01*
X13921921Y-7319155D01*
X13921921Y-7294965D01*
X13926760Y-7275612D01*
X13931598Y-7265936D01*
X13936436Y-7261098D01*
X13946112Y-7256260D01*
X14023521Y-7357860D02*
X14023521Y-7256260D01*
X14081579Y-7357860D01*
X14081579Y-7256260D01*
X14163826Y-7304641D02*
X14129960Y-7304641D01*
X14129960Y-7357860D02*
X14129960Y-7256260D01*
X14178340Y-7256260D01*
D11*
X14330632Y-7661970D02*
X14387818Y-7661970D01*
X14359225Y-7762046D02*
X14359225Y-7661970D01*
X14473597Y-7762046D02*
X14416411Y-7762046D01*
X14445004Y-7762046D02*
X14445004Y-7661970D01*
X14435473Y-7676267D01*
X14425942Y-7685798D01*
X14416411Y-7690564D01*
X13752128Y-8581463D02*
X13752128Y-8524276D01*
X13852204Y-8552869D02*
X13752128Y-8552869D01*
X13852204Y-8433731D02*
X13804549Y-8467090D01*
X13852204Y-8490918D02*
X13752128Y-8490918D01*
X13752128Y-8452793D01*
X13756894Y-8443262D01*
X13761659Y-8438497D01*
X13771191Y-8433731D01*
X13785487Y-8433731D01*
X13795018Y-8438497D01*
X13799784Y-8443262D01*
X13804549Y-8452793D01*
X13804549Y-8490918D01*
X13823611Y-8395607D02*
X13823611Y-8347952D01*
X13852204Y-8405138D02*
X13752128Y-8371779D01*
X13852204Y-8338421D01*
X13852204Y-8305062D02*
X13752128Y-8305062D01*
X13852204Y-8247876D01*
X13752128Y-8247876D01*
X13847439Y-8204986D02*
X13852204Y-8190690D01*
X13852204Y-8166862D01*
X13847439Y-8157331D01*
X13842673Y-8152565D01*
X13833142Y-8147800D01*
X13823611Y-8147800D01*
X13814080Y-8152565D01*
X13809315Y-8157331D01*
X13804549Y-8166862D01*
X13799784Y-8185924D01*
X13795018Y-8195455D01*
X13790253Y-8200221D01*
X13780722Y-8204986D01*
X13771191Y-8204986D01*
X13761659Y-8200221D01*
X13756894Y-8195455D01*
X13752128Y-8185924D01*
X13752128Y-8162096D01*
X13756894Y-8147800D01*
X13799784Y-8071551D02*
X13799784Y-8104910D01*
X13852204Y-8104910D02*
X13752128Y-8104910D01*
X13752128Y-8057255D01*
X13752128Y-8000069D02*
X13752128Y-7981007D01*
X13756894Y-7971475D01*
X13766425Y-7961944D01*
X13785487Y-7957179D01*
X13818846Y-7957179D01*
X13837908Y-7961944D01*
X13847439Y-7971475D01*
X13852204Y-7981007D01*
X13852204Y-8000069D01*
X13847439Y-8009600D01*
X13837908Y-8019131D01*
X13818846Y-8023896D01*
X13785487Y-8023896D01*
X13766425Y-8019131D01*
X13756894Y-8009600D01*
X13752128Y-8000069D01*
X13761659Y-7919055D02*
X13756894Y-7914289D01*
X13752128Y-7904758D01*
X13752128Y-7880931D01*
X13756894Y-7871400D01*
X13761659Y-7866634D01*
X13771191Y-7861868D01*
X13780722Y-7861868D01*
X13795018Y-7866634D01*
X13852204Y-7923820D01*
X13852204Y-7861868D01*
D15*
X11414486Y-8391686D02*
X11436257Y-8398943D01*
X11472543Y-8398943D01*
X11487057Y-8391686D01*
X11494314Y-8384429D01*
X11501571Y-8369914D01*
X11501571Y-8355400D01*
X11494314Y-8340886D01*
X11487057Y-8333629D01*
X11472543Y-8326371D01*
X11443514Y-8319114D01*
X11429000Y-8311857D01*
X11421743Y-8304600D01*
X11414486Y-8290086D01*
X11414486Y-8275571D01*
X11421743Y-8261057D01*
X11429000Y-8253800D01*
X11443514Y-8246543D01*
X11479800Y-8246543D01*
X11501571Y-8253800D01*
X11566886Y-8398943D02*
X11566886Y-8246543D01*
X11617686Y-8355400D01*
X11668486Y-8246543D01*
X11668486Y-8398943D01*
X11733800Y-8355400D02*
X11806371Y-8355400D01*
X11719286Y-8398943D02*
X11770086Y-8246543D01*
X11820886Y-8398943D01*
X11835400Y-8413457D02*
X11951514Y-8413457D01*
X11987800Y-8319114D02*
X12038600Y-8319114D01*
X12060371Y-8398943D02*
X11987800Y-8398943D01*
X11987800Y-8246543D01*
X12060371Y-8246543D01*
X12205514Y-8398943D02*
X12118429Y-8398943D01*
X12161971Y-8398943D02*
X12161971Y-8246543D01*
X12147457Y-8268314D01*
X12132943Y-8282829D01*
X12118429Y-8290086D01*
X17584486Y-8131686D02*
X17606257Y-8138943D01*
X17642543Y-8138943D01*
X17657057Y-8131686D01*
X17664314Y-8124429D01*
X17671571Y-8109914D01*
X17671571Y-8095400D01*
X17664314Y-8080886D01*
X17657057Y-8073629D01*
X17642543Y-8066371D01*
X17613514Y-8059114D01*
X17599000Y-8051857D01*
X17591743Y-8044600D01*
X17584486Y-8030086D01*
X17584486Y-8015571D01*
X17591743Y-8001057D01*
X17599000Y-7993800D01*
X17613514Y-7986543D01*
X17649800Y-7986543D01*
X17671571Y-7993800D01*
X17736886Y-8138943D02*
X17736886Y-7986543D01*
X17787686Y-8095400D01*
X17838486Y-7986543D01*
X17838486Y-8138943D01*
X17903800Y-8095400D02*
X17976371Y-8095400D01*
X17889286Y-8138943D02*
X17940086Y-7986543D01*
X17990886Y-8138943D01*
X18005400Y-8153457D02*
X18121514Y-8153457D01*
X18157800Y-8059114D02*
X18208600Y-8059114D01*
X18230371Y-8138943D02*
X18157800Y-8138943D01*
X18157800Y-7986543D01*
X18230371Y-7986543D01*
X18288429Y-8001057D02*
X18295686Y-7993800D01*
X18310200Y-7986543D01*
X18346486Y-7986543D01*
X18361000Y-7993800D01*
X18368257Y-8001057D01*
X18375514Y-8015571D01*
X18375514Y-8030086D01*
X18368257Y-8051857D01*
X18281171Y-8138943D01*
X18375514Y-8138943D01*
M02*
