M48
METRIC,TZ
T1C0.610
T2C0.813
T3C1.001
T4C1.016
T5C3.200
%
G90
G05
T1
X153401Y-79200
X153561Y-85209
X161021Y-79200
X161181Y-85209
T2
X140569Y-79169
X140569Y-85169
X144069Y-79169
X144069Y-85169
X144099Y-73119
X147569Y-79169
X147569Y-85169
X149179Y-73119
T3
X127701Y-79480
X127701Y-84481
X130201Y-81979
X132700Y-79480
X132700Y-84481
X165200Y-79519
X165200Y-84520
X167699Y-82021
X170199Y-79519
X170199Y-84520
T4
X145689Y-67031
X148229Y-67031
T5
X127000Y-64999
X171000Y-99002
T0
M30
