G04 #@! TF.FileFunction,Copper,L1,Top,Signal*
%FSLAX45Y45*%
G04 Gerber Fmt 4.5, Leading zero omitted, Abs format (unit mm)*
G04 Created by KiCad (PCBNEW (2015-01-25 BZR 5388)-product) date Mo 03 Aug 2015 14:15:33 CEST*
%MOMM*%
G01*
G04 APERTURE LIST*
%ADD10C,0.150000*%
%ADD11C,5.001260*%
%ADD12R,1.524000X1.524000*%
%ADD13C,1.524000*%
%ADD14R,1.422400X1.422400*%
%ADD15C,1.422400*%
%ADD16C,1.397000*%
%ADD17R,8.999220X1.524000*%
%ADD18R,6.096000X1.998980*%
%ADD19C,1.998980*%
%ADD20C,1.600200*%
%ADD21C,0.254000*%
G04 APERTURE END LIST*
D10*
D11*
X17100042Y-9900158D03*
X12700000Y-6499860D03*
D12*
X14568932Y-6703060D03*
D13*
X14822932Y-6703060D03*
D14*
X15356078Y-8520938D03*
D15*
X16118078Y-8520938D03*
D14*
X16102076Y-7919974D03*
D15*
X15340076Y-7919974D03*
D16*
X14409928Y-7311898D03*
X14917928Y-7311898D03*
D13*
X14056868Y-7916926D03*
X14056868Y-8516874D03*
D16*
X14406880Y-7916926D03*
X14406880Y-8516874D03*
X14756892Y-7916926D03*
X14756892Y-8516874D03*
D17*
X12910074Y-8519484D03*
D10*
G36*
X12520819Y-8103051D02*
X12520819Y-8302949D01*
X12470781Y-8243005D01*
X12470781Y-8162995D01*
X12520819Y-8103051D01*
X12520819Y-8103051D01*
G37*
D17*
X12910074Y-7887024D03*
D18*
X12826000Y-8203000D03*
D19*
X13020056Y-8197920D03*
D20*
X12770120Y-7947984D03*
X12770120Y-8448110D03*
D19*
X13269992Y-8448110D03*
X13269992Y-7947984D03*
D17*
X16879926Y-7880516D03*
D10*
G36*
X17269181Y-8296949D02*
X17269181Y-8097051D01*
X17319219Y-8156995D01*
X17319219Y-8237005D01*
X17269181Y-8296949D01*
X17269181Y-8296949D01*
G37*
D17*
X16879926Y-8512976D03*
D18*
X16964000Y-8197000D03*
D19*
X16769944Y-8202080D03*
D20*
X17019880Y-8452016D03*
X17019880Y-7951890D03*
D19*
X16520008Y-7951890D03*
X16520008Y-8452016D03*
D21*
G36*
X17317466Y-9674129D02*
X17277893Y-9634487D01*
X17162687Y-9586650D01*
X17037944Y-9586541D01*
X16922655Y-9634177D01*
X16834371Y-9722307D01*
X16786534Y-9837513D01*
X16786425Y-9962256D01*
X16834061Y-10077545D01*
X16873775Y-10117328D01*
X16252721Y-10117328D01*
X16252721Y-8494278D01*
X16237940Y-8458504D01*
X16237940Y-7991094D01*
X16237940Y-7848854D01*
X16233242Y-7824642D01*
X16219263Y-7803361D01*
X16198160Y-7789116D01*
X16173196Y-7784110D01*
X16030956Y-7784110D01*
X16006744Y-7788808D01*
X15985463Y-7802787D01*
X15971218Y-7823890D01*
X15966212Y-7848854D01*
X15966212Y-7991094D01*
X15970910Y-8015306D01*
X15984889Y-8036587D01*
X16005992Y-8050832D01*
X16030956Y-8055838D01*
X16173196Y-8055838D01*
X16197408Y-8051140D01*
X16218689Y-8037161D01*
X16232934Y-8016058D01*
X16237940Y-7991094D01*
X16237940Y-8458504D01*
X16232270Y-8444782D01*
X16194434Y-8406879D01*
X16144973Y-8386341D01*
X16091418Y-8386295D01*
X16041921Y-8406746D01*
X16004019Y-8444582D01*
X15983481Y-8494043D01*
X15983435Y-8547598D01*
X16003886Y-8597095D01*
X16041722Y-8634997D01*
X16091183Y-8655535D01*
X16144738Y-8655581D01*
X16194234Y-8635130D01*
X16232137Y-8597294D01*
X16252675Y-8547833D01*
X16252721Y-8494278D01*
X16252721Y-10117328D01*
X15491942Y-10117328D01*
X15491942Y-8592058D01*
X15491942Y-8449818D01*
X15487244Y-8425606D01*
X15474719Y-8406539D01*
X15474719Y-7893314D01*
X15454268Y-7843817D01*
X15416432Y-7805915D01*
X15366971Y-7785377D01*
X15313416Y-7785331D01*
X15263919Y-7805782D01*
X15226017Y-7843618D01*
X15205479Y-7893079D01*
X15205433Y-7946634D01*
X15225884Y-7996130D01*
X15263720Y-8034033D01*
X15313181Y-8054571D01*
X15366736Y-8054617D01*
X15416232Y-8034166D01*
X15454135Y-7996330D01*
X15474673Y-7946869D01*
X15474719Y-7893314D01*
X15474719Y-8406539D01*
X15473265Y-8404325D01*
X15452162Y-8390080D01*
X15427198Y-8385074D01*
X15284958Y-8385074D01*
X15260746Y-8389772D01*
X15239465Y-8403751D01*
X15225220Y-8424854D01*
X15220214Y-8449818D01*
X15220214Y-8592058D01*
X15224912Y-8616270D01*
X15238891Y-8637551D01*
X15259994Y-8651796D01*
X15284958Y-8656802D01*
X15427198Y-8656802D01*
X15451410Y-8652104D01*
X15472691Y-8638125D01*
X15486936Y-8617022D01*
X15491942Y-8592058D01*
X15491942Y-10117328D01*
X15052521Y-10117328D01*
X15052521Y-7331150D01*
X15049643Y-7278178D01*
X15034908Y-7242605D01*
X15011347Y-7236440D01*
X14993386Y-7254400D01*
X14993386Y-7218479D01*
X14987221Y-7194918D01*
X14963846Y-7186691D01*
X14963846Y-6723830D01*
X14961068Y-6668323D01*
X14945172Y-6629946D01*
X14920953Y-6622999D01*
X14902993Y-6640960D01*
X14902993Y-6605039D01*
X14896046Y-6580820D01*
X14843702Y-6562146D01*
X14788195Y-6564924D01*
X14749818Y-6580820D01*
X14742871Y-6605039D01*
X14822932Y-6685099D01*
X14902993Y-6605039D01*
X14902993Y-6640960D01*
X14840892Y-6703060D01*
X14920953Y-6783121D01*
X14945172Y-6776174D01*
X14963846Y-6723830D01*
X14963846Y-7186691D01*
X14937180Y-7177305D01*
X14902993Y-7179163D01*
X14902993Y-6801081D01*
X14822932Y-6721020D01*
X14804971Y-6738981D01*
X14804971Y-6703060D01*
X14724911Y-6622999D01*
X14709876Y-6627311D01*
X14709876Y-6626860D01*
X14705178Y-6602648D01*
X14691199Y-6581367D01*
X14670096Y-6567122D01*
X14645132Y-6562116D01*
X14492732Y-6562116D01*
X14468520Y-6566814D01*
X14447239Y-6580793D01*
X14432994Y-6601896D01*
X14427988Y-6626860D01*
X14427988Y-6779260D01*
X14432686Y-6803472D01*
X14446665Y-6824753D01*
X14467768Y-6838998D01*
X14492732Y-6844004D01*
X14645132Y-6844004D01*
X14669344Y-6839306D01*
X14690625Y-6825327D01*
X14704870Y-6804224D01*
X14709876Y-6779260D01*
X14709876Y-6778808D01*
X14724911Y-6783121D01*
X14804971Y-6703060D01*
X14804971Y-6738981D01*
X14742871Y-6801081D01*
X14749818Y-6825300D01*
X14802162Y-6843974D01*
X14857669Y-6841196D01*
X14896046Y-6825300D01*
X14902993Y-6801081D01*
X14902993Y-7179163D01*
X14884208Y-7180183D01*
X14848635Y-7194918D01*
X14842470Y-7218479D01*
X14917928Y-7293937D01*
X14993386Y-7218479D01*
X14993386Y-7254400D01*
X14935888Y-7311898D01*
X15011347Y-7387356D01*
X15034908Y-7381191D01*
X15052521Y-7331150D01*
X15052521Y-10117328D01*
X14993386Y-10117328D01*
X14993386Y-7405317D01*
X14917928Y-7329858D01*
X14899967Y-7347819D01*
X14899967Y-7311898D01*
X14824509Y-7236440D01*
X14800948Y-7242605D01*
X14783335Y-7292646D01*
X14786213Y-7345618D01*
X14800948Y-7381191D01*
X14824509Y-7387356D01*
X14899967Y-7311898D01*
X14899967Y-7347819D01*
X14842470Y-7405317D01*
X14848635Y-7428878D01*
X14898676Y-7446491D01*
X14951648Y-7443613D01*
X14987221Y-7428878D01*
X14993386Y-7405317D01*
X14993386Y-10117328D01*
X14890265Y-10117328D01*
X14890265Y-8490465D01*
X14890265Y-7890517D01*
X14870007Y-7841488D01*
X14832527Y-7803943D01*
X14783533Y-7783599D01*
X14730483Y-7783553D01*
X14681454Y-7803811D01*
X14643909Y-7841291D01*
X14623565Y-7890285D01*
X14623519Y-7943335D01*
X14643777Y-7992364D01*
X14681257Y-8029909D01*
X14730251Y-8050253D01*
X14783301Y-8050299D01*
X14832330Y-8030041D01*
X14869875Y-7992561D01*
X14890219Y-7943567D01*
X14890265Y-7890517D01*
X14890265Y-8490465D01*
X14870007Y-8441436D01*
X14832527Y-8403891D01*
X14783533Y-8383547D01*
X14730483Y-8383501D01*
X14681454Y-8403759D01*
X14643909Y-8441239D01*
X14623565Y-8490233D01*
X14623519Y-8543283D01*
X14643777Y-8592312D01*
X14681257Y-8629857D01*
X14730251Y-8650201D01*
X14783301Y-8650247D01*
X14832330Y-8629989D01*
X14869875Y-8592509D01*
X14890219Y-8543515D01*
X14890265Y-8490465D01*
X14890265Y-10117328D01*
X14543301Y-10117328D01*
X14543301Y-7285489D01*
X14523043Y-7236460D01*
X14485563Y-7198915D01*
X14436569Y-7178571D01*
X14383519Y-7178525D01*
X14334490Y-7198783D01*
X14296945Y-7236263D01*
X14276601Y-7285257D01*
X14276555Y-7338307D01*
X14296813Y-7387336D01*
X14334293Y-7424881D01*
X14383287Y-7445225D01*
X14436337Y-7445271D01*
X14485366Y-7425013D01*
X14522911Y-7387533D01*
X14543255Y-7338539D01*
X14543301Y-7285489D01*
X14543301Y-10117328D01*
X14540253Y-10117328D01*
X14540253Y-8490465D01*
X14540253Y-7890517D01*
X14519995Y-7841488D01*
X14482515Y-7803943D01*
X14433521Y-7783599D01*
X14380471Y-7783553D01*
X14331442Y-7803811D01*
X14293897Y-7841291D01*
X14273553Y-7890285D01*
X14273507Y-7943335D01*
X14293765Y-7992364D01*
X14331245Y-8029909D01*
X14380239Y-8050253D01*
X14433289Y-8050299D01*
X14482318Y-8030041D01*
X14519863Y-7992561D01*
X14540207Y-7943567D01*
X14540253Y-7890517D01*
X14540253Y-8490465D01*
X14519995Y-8441436D01*
X14482515Y-8403891D01*
X14433521Y-8383547D01*
X14380471Y-8383501D01*
X14331442Y-8403759D01*
X14293897Y-8441239D01*
X14273553Y-8490233D01*
X14273507Y-8543283D01*
X14293765Y-8592312D01*
X14331245Y-8629857D01*
X14380239Y-8650201D01*
X14433289Y-8650247D01*
X14482318Y-8629989D01*
X14519863Y-8592509D01*
X14540207Y-8543515D01*
X14540253Y-8490465D01*
X14540253Y-10117328D01*
X14197782Y-10117328D01*
X14197782Y-8537644D01*
X14196592Y-8513864D01*
X14196592Y-7889260D01*
X14175369Y-7837896D01*
X14136105Y-7798563D01*
X14084778Y-7777250D01*
X14029202Y-7777202D01*
X13977838Y-7798425D01*
X13938505Y-7837689D01*
X13917192Y-7889016D01*
X13917144Y-7944592D01*
X13938367Y-7995956D01*
X13977631Y-8035289D01*
X14028958Y-8056602D01*
X14084534Y-8056650D01*
X14135898Y-8035427D01*
X14175231Y-7996163D01*
X14196544Y-7944836D01*
X14196592Y-7889260D01*
X14196592Y-8513864D01*
X14195004Y-8482137D01*
X14179108Y-8443760D01*
X14154889Y-8436813D01*
X14136929Y-8454774D01*
X14136929Y-8418853D01*
X14129982Y-8394634D01*
X14077638Y-8375960D01*
X14022131Y-8378738D01*
X13983754Y-8394634D01*
X13976807Y-8418853D01*
X14056868Y-8498914D01*
X14136929Y-8418853D01*
X14136929Y-8454774D01*
X14074828Y-8516874D01*
X14154889Y-8596935D01*
X14179108Y-8589988D01*
X14197782Y-8537644D01*
X14197782Y-10117328D01*
X14136929Y-10117328D01*
X14136929Y-8614895D01*
X14056868Y-8534835D01*
X14038907Y-8552795D01*
X14038907Y-8516874D01*
X13958847Y-8436813D01*
X13934628Y-8443760D01*
X13915954Y-8496104D01*
X13918732Y-8551611D01*
X13934628Y-8589988D01*
X13958847Y-8596935D01*
X14038907Y-8516874D01*
X14038907Y-8552795D01*
X13976807Y-8614895D01*
X13983754Y-8639114D01*
X14036098Y-8657788D01*
X14091605Y-8655010D01*
X14129982Y-8639114D01*
X14136929Y-8614895D01*
X14136929Y-10117328D01*
X12482576Y-10117328D01*
X12482576Y-8659184D01*
X12881499Y-8659184D01*
X12897374Y-8643309D01*
X12897374Y-8532184D01*
X12895374Y-8532184D01*
X12895374Y-8523559D01*
X12895515Y-8523517D01*
X12902248Y-8504784D01*
X12922774Y-8504784D01*
X12922774Y-8506784D01*
X13116198Y-8506784D01*
X13126719Y-8532184D01*
X12922774Y-8532184D01*
X12922774Y-8643309D01*
X12938649Y-8659184D01*
X13372666Y-8659184D01*
X13396005Y-8649517D01*
X13413868Y-8631654D01*
X13423535Y-8608315D01*
X13423535Y-8583053D01*
X13423535Y-8548059D01*
X13411226Y-8535750D01*
X13411888Y-8535506D01*
X13434532Y-8474552D01*
X13432126Y-8409572D01*
X13411888Y-8360714D01*
X13385208Y-8350854D01*
X13364333Y-8371729D01*
X13365098Y-8335044D01*
X13367248Y-8332894D01*
X13365255Y-8327501D01*
X13371422Y-8031454D01*
X13385208Y-8045240D01*
X13411888Y-8035380D01*
X13434532Y-7974426D01*
X13432126Y-7909446D01*
X13414673Y-7867311D01*
X13423535Y-7858449D01*
X13423535Y-7823455D01*
X13423535Y-7798193D01*
X13413868Y-7774854D01*
X13396005Y-7756991D01*
X13372666Y-7747324D01*
X12938649Y-7747324D01*
X12922774Y-7763199D01*
X12922774Y-7874324D01*
X13122993Y-7874324D01*
X13113557Y-7899724D01*
X12922774Y-7899724D01*
X12922774Y-7901724D01*
X12907587Y-7901724D01*
X12896238Y-7874324D01*
X12897374Y-7874324D01*
X12897374Y-7763199D01*
X12881499Y-7747324D01*
X12482576Y-7747324D01*
X12482576Y-6725889D01*
X12522149Y-6765531D01*
X12637355Y-6813368D01*
X12762098Y-6813477D01*
X12877387Y-6765841D01*
X12965671Y-6677711D01*
X13013508Y-6562505D01*
X13013617Y-6437762D01*
X12965981Y-6322473D01*
X12926014Y-6282436D01*
X17317466Y-6282436D01*
X17317466Y-7740816D01*
X16908501Y-7740816D01*
X16892626Y-7756691D01*
X16892626Y-7867816D01*
X16894626Y-7867816D01*
X16894626Y-7876441D01*
X16894485Y-7876483D01*
X16887752Y-7895216D01*
X16867226Y-7895216D01*
X16867226Y-7893216D01*
X16673801Y-7893216D01*
X16663280Y-7867816D01*
X16867226Y-7867816D01*
X16867226Y-7756691D01*
X16851351Y-7740816D01*
X16417334Y-7740816D01*
X16393995Y-7750483D01*
X16376132Y-7768346D01*
X16366465Y-7791685D01*
X16366465Y-7816947D01*
X16366465Y-7851941D01*
X16378773Y-7864249D01*
X16378111Y-7864494D01*
X16355468Y-7925448D01*
X16357874Y-7990428D01*
X16378111Y-8039286D01*
X16404792Y-8049146D01*
X16433721Y-8020216D01*
X16469642Y-8020216D01*
X16422752Y-8067106D01*
X16432612Y-8093786D01*
X16493566Y-8116430D01*
X16500343Y-8116179D01*
X16503944Y-8289050D01*
X16481470Y-8289882D01*
X16432612Y-8310119D01*
X16422752Y-8336800D01*
X16459228Y-8373276D01*
X16423307Y-8373276D01*
X16404792Y-8354760D01*
X16378111Y-8364620D01*
X16355468Y-8425574D01*
X16357874Y-8490554D01*
X16375327Y-8532689D01*
X16366465Y-8541551D01*
X16366465Y-8576545D01*
X16366465Y-8601807D01*
X16376132Y-8625146D01*
X16393995Y-8643009D01*
X16417334Y-8652676D01*
X16851351Y-8652676D01*
X16867226Y-8636801D01*
X16867226Y-8525676D01*
X16667007Y-8525676D01*
X16676443Y-8500276D01*
X16867226Y-8500276D01*
X16867226Y-8498276D01*
X16882412Y-8498276D01*
X16893762Y-8525676D01*
X16892626Y-8525676D01*
X16892626Y-8636801D01*
X16908501Y-8652676D01*
X17317466Y-8652676D01*
X17317466Y-9674129D01*
X17317466Y-9674129D01*
G37*
X17317466Y-9674129D02*
X17277893Y-9634487D01*
X17162687Y-9586650D01*
X17037944Y-9586541D01*
X16922655Y-9634177D01*
X16834371Y-9722307D01*
X16786534Y-9837513D01*
X16786425Y-9962256D01*
X16834061Y-10077545D01*
X16873775Y-10117328D01*
X16252721Y-10117328D01*
X16252721Y-8494278D01*
X16237940Y-8458504D01*
X16237940Y-7991094D01*
X16237940Y-7848854D01*
X16233242Y-7824642D01*
X16219263Y-7803361D01*
X16198160Y-7789116D01*
X16173196Y-7784110D01*
X16030956Y-7784110D01*
X16006744Y-7788808D01*
X15985463Y-7802787D01*
X15971218Y-7823890D01*
X15966212Y-7848854D01*
X15966212Y-7991094D01*
X15970910Y-8015306D01*
X15984889Y-8036587D01*
X16005992Y-8050832D01*
X16030956Y-8055838D01*
X16173196Y-8055838D01*
X16197408Y-8051140D01*
X16218689Y-8037161D01*
X16232934Y-8016058D01*
X16237940Y-7991094D01*
X16237940Y-8458504D01*
X16232270Y-8444782D01*
X16194434Y-8406879D01*
X16144973Y-8386341D01*
X16091418Y-8386295D01*
X16041921Y-8406746D01*
X16004019Y-8444582D01*
X15983481Y-8494043D01*
X15983435Y-8547598D01*
X16003886Y-8597095D01*
X16041722Y-8634997D01*
X16091183Y-8655535D01*
X16144738Y-8655581D01*
X16194234Y-8635130D01*
X16232137Y-8597294D01*
X16252675Y-8547833D01*
X16252721Y-8494278D01*
X16252721Y-10117328D01*
X15491942Y-10117328D01*
X15491942Y-8592058D01*
X15491942Y-8449818D01*
X15487244Y-8425606D01*
X15474719Y-8406539D01*
X15474719Y-7893314D01*
X15454268Y-7843817D01*
X15416432Y-7805915D01*
X15366971Y-7785377D01*
X15313416Y-7785331D01*
X15263919Y-7805782D01*
X15226017Y-7843618D01*
X15205479Y-7893079D01*
X15205433Y-7946634D01*
X15225884Y-7996130D01*
X15263720Y-8034033D01*
X15313181Y-8054571D01*
X15366736Y-8054617D01*
X15416232Y-8034166D01*
X15454135Y-7996330D01*
X15474673Y-7946869D01*
X15474719Y-7893314D01*
X15474719Y-8406539D01*
X15473265Y-8404325D01*
X15452162Y-8390080D01*
X15427198Y-8385074D01*
X15284958Y-8385074D01*
X15260746Y-8389772D01*
X15239465Y-8403751D01*
X15225220Y-8424854D01*
X15220214Y-8449818D01*
X15220214Y-8592058D01*
X15224912Y-8616270D01*
X15238891Y-8637551D01*
X15259994Y-8651796D01*
X15284958Y-8656802D01*
X15427198Y-8656802D01*
X15451410Y-8652104D01*
X15472691Y-8638125D01*
X15486936Y-8617022D01*
X15491942Y-8592058D01*
X15491942Y-10117328D01*
X15052521Y-10117328D01*
X15052521Y-7331150D01*
X15049643Y-7278178D01*
X15034908Y-7242605D01*
X15011347Y-7236440D01*
X14993386Y-7254400D01*
X14993386Y-7218479D01*
X14987221Y-7194918D01*
X14963846Y-7186691D01*
X14963846Y-6723830D01*
X14961068Y-6668323D01*
X14945172Y-6629946D01*
X14920953Y-6622999D01*
X14902993Y-6640960D01*
X14902993Y-6605039D01*
X14896046Y-6580820D01*
X14843702Y-6562146D01*
X14788195Y-6564924D01*
X14749818Y-6580820D01*
X14742871Y-6605039D01*
X14822932Y-6685099D01*
X14902993Y-6605039D01*
X14902993Y-6640960D01*
X14840892Y-6703060D01*
X14920953Y-6783121D01*
X14945172Y-6776174D01*
X14963846Y-6723830D01*
X14963846Y-7186691D01*
X14937180Y-7177305D01*
X14902993Y-7179163D01*
X14902993Y-6801081D01*
X14822932Y-6721020D01*
X14804971Y-6738981D01*
X14804971Y-6703060D01*
X14724911Y-6622999D01*
X14709876Y-6627311D01*
X14709876Y-6626860D01*
X14705178Y-6602648D01*
X14691199Y-6581367D01*
X14670096Y-6567122D01*
X14645132Y-6562116D01*
X14492732Y-6562116D01*
X14468520Y-6566814D01*
X14447239Y-6580793D01*
X14432994Y-6601896D01*
X14427988Y-6626860D01*
X14427988Y-6779260D01*
X14432686Y-6803472D01*
X14446665Y-6824753D01*
X14467768Y-6838998D01*
X14492732Y-6844004D01*
X14645132Y-6844004D01*
X14669344Y-6839306D01*
X14690625Y-6825327D01*
X14704870Y-6804224D01*
X14709876Y-6779260D01*
X14709876Y-6778808D01*
X14724911Y-6783121D01*
X14804971Y-6703060D01*
X14804971Y-6738981D01*
X14742871Y-6801081D01*
X14749818Y-6825300D01*
X14802162Y-6843974D01*
X14857669Y-6841196D01*
X14896046Y-6825300D01*
X14902993Y-6801081D01*
X14902993Y-7179163D01*
X14884208Y-7180183D01*
X14848635Y-7194918D01*
X14842470Y-7218479D01*
X14917928Y-7293937D01*
X14993386Y-7218479D01*
X14993386Y-7254400D01*
X14935888Y-7311898D01*
X15011347Y-7387356D01*
X15034908Y-7381191D01*
X15052521Y-7331150D01*
X15052521Y-10117328D01*
X14993386Y-10117328D01*
X14993386Y-7405317D01*
X14917928Y-7329858D01*
X14899967Y-7347819D01*
X14899967Y-7311898D01*
X14824509Y-7236440D01*
X14800948Y-7242605D01*
X14783335Y-7292646D01*
X14786213Y-7345618D01*
X14800948Y-7381191D01*
X14824509Y-7387356D01*
X14899967Y-7311898D01*
X14899967Y-7347819D01*
X14842470Y-7405317D01*
X14848635Y-7428878D01*
X14898676Y-7446491D01*
X14951648Y-7443613D01*
X14987221Y-7428878D01*
X14993386Y-7405317D01*
X14993386Y-10117328D01*
X14890265Y-10117328D01*
X14890265Y-8490465D01*
X14890265Y-7890517D01*
X14870007Y-7841488D01*
X14832527Y-7803943D01*
X14783533Y-7783599D01*
X14730483Y-7783553D01*
X14681454Y-7803811D01*
X14643909Y-7841291D01*
X14623565Y-7890285D01*
X14623519Y-7943335D01*
X14643777Y-7992364D01*
X14681257Y-8029909D01*
X14730251Y-8050253D01*
X14783301Y-8050299D01*
X14832330Y-8030041D01*
X14869875Y-7992561D01*
X14890219Y-7943567D01*
X14890265Y-7890517D01*
X14890265Y-8490465D01*
X14870007Y-8441436D01*
X14832527Y-8403891D01*
X14783533Y-8383547D01*
X14730483Y-8383501D01*
X14681454Y-8403759D01*
X14643909Y-8441239D01*
X14623565Y-8490233D01*
X14623519Y-8543283D01*
X14643777Y-8592312D01*
X14681257Y-8629857D01*
X14730251Y-8650201D01*
X14783301Y-8650247D01*
X14832330Y-8629989D01*
X14869875Y-8592509D01*
X14890219Y-8543515D01*
X14890265Y-8490465D01*
X14890265Y-10117328D01*
X14543301Y-10117328D01*
X14543301Y-7285489D01*
X14523043Y-7236460D01*
X14485563Y-7198915D01*
X14436569Y-7178571D01*
X14383519Y-7178525D01*
X14334490Y-7198783D01*
X14296945Y-7236263D01*
X14276601Y-7285257D01*
X14276555Y-7338307D01*
X14296813Y-7387336D01*
X14334293Y-7424881D01*
X14383287Y-7445225D01*
X14436337Y-7445271D01*
X14485366Y-7425013D01*
X14522911Y-7387533D01*
X14543255Y-7338539D01*
X14543301Y-7285489D01*
X14543301Y-10117328D01*
X14540253Y-10117328D01*
X14540253Y-8490465D01*
X14540253Y-7890517D01*
X14519995Y-7841488D01*
X14482515Y-7803943D01*
X14433521Y-7783599D01*
X14380471Y-7783553D01*
X14331442Y-7803811D01*
X14293897Y-7841291D01*
X14273553Y-7890285D01*
X14273507Y-7943335D01*
X14293765Y-7992364D01*
X14331245Y-8029909D01*
X14380239Y-8050253D01*
X14433289Y-8050299D01*
X14482318Y-8030041D01*
X14519863Y-7992561D01*
X14540207Y-7943567D01*
X14540253Y-7890517D01*
X14540253Y-8490465D01*
X14519995Y-8441436D01*
X14482515Y-8403891D01*
X14433521Y-8383547D01*
X14380471Y-8383501D01*
X14331442Y-8403759D01*
X14293897Y-8441239D01*
X14273553Y-8490233D01*
X14273507Y-8543283D01*
X14293765Y-8592312D01*
X14331245Y-8629857D01*
X14380239Y-8650201D01*
X14433289Y-8650247D01*
X14482318Y-8629989D01*
X14519863Y-8592509D01*
X14540207Y-8543515D01*
X14540253Y-8490465D01*
X14540253Y-10117328D01*
X14197782Y-10117328D01*
X14197782Y-8537644D01*
X14196592Y-8513864D01*
X14196592Y-7889260D01*
X14175369Y-7837896D01*
X14136105Y-7798563D01*
X14084778Y-7777250D01*
X14029202Y-7777202D01*
X13977838Y-7798425D01*
X13938505Y-7837689D01*
X13917192Y-7889016D01*
X13917144Y-7944592D01*
X13938367Y-7995956D01*
X13977631Y-8035289D01*
X14028958Y-8056602D01*
X14084534Y-8056650D01*
X14135898Y-8035427D01*
X14175231Y-7996163D01*
X14196544Y-7944836D01*
X14196592Y-7889260D01*
X14196592Y-8513864D01*
X14195004Y-8482137D01*
X14179108Y-8443760D01*
X14154889Y-8436813D01*
X14136929Y-8454774D01*
X14136929Y-8418853D01*
X14129982Y-8394634D01*
X14077638Y-8375960D01*
X14022131Y-8378738D01*
X13983754Y-8394634D01*
X13976807Y-8418853D01*
X14056868Y-8498914D01*
X14136929Y-8418853D01*
X14136929Y-8454774D01*
X14074828Y-8516874D01*
X14154889Y-8596935D01*
X14179108Y-8589988D01*
X14197782Y-8537644D01*
X14197782Y-10117328D01*
X14136929Y-10117328D01*
X14136929Y-8614895D01*
X14056868Y-8534835D01*
X14038907Y-8552795D01*
X14038907Y-8516874D01*
X13958847Y-8436813D01*
X13934628Y-8443760D01*
X13915954Y-8496104D01*
X13918732Y-8551611D01*
X13934628Y-8589988D01*
X13958847Y-8596935D01*
X14038907Y-8516874D01*
X14038907Y-8552795D01*
X13976807Y-8614895D01*
X13983754Y-8639114D01*
X14036098Y-8657788D01*
X14091605Y-8655010D01*
X14129982Y-8639114D01*
X14136929Y-8614895D01*
X14136929Y-10117328D01*
X12482576Y-10117328D01*
X12482576Y-8659184D01*
X12881499Y-8659184D01*
X12897374Y-8643309D01*
X12897374Y-8532184D01*
X12895374Y-8532184D01*
X12895374Y-8523559D01*
X12895515Y-8523517D01*
X12902248Y-8504784D01*
X12922774Y-8504784D01*
X12922774Y-8506784D01*
X13116198Y-8506784D01*
X13126719Y-8532184D01*
X12922774Y-8532184D01*
X12922774Y-8643309D01*
X12938649Y-8659184D01*
X13372666Y-8659184D01*
X13396005Y-8649517D01*
X13413868Y-8631654D01*
X13423535Y-8608315D01*
X13423535Y-8583053D01*
X13423535Y-8548059D01*
X13411226Y-8535750D01*
X13411888Y-8535506D01*
X13434532Y-8474552D01*
X13432126Y-8409572D01*
X13411888Y-8360714D01*
X13385208Y-8350854D01*
X13364333Y-8371729D01*
X13365098Y-8335044D01*
X13367248Y-8332894D01*
X13365255Y-8327501D01*
X13371422Y-8031454D01*
X13385208Y-8045240D01*
X13411888Y-8035380D01*
X13434532Y-7974426D01*
X13432126Y-7909446D01*
X13414673Y-7867311D01*
X13423535Y-7858449D01*
X13423535Y-7823455D01*
X13423535Y-7798193D01*
X13413868Y-7774854D01*
X13396005Y-7756991D01*
X13372666Y-7747324D01*
X12938649Y-7747324D01*
X12922774Y-7763199D01*
X12922774Y-7874324D01*
X13122993Y-7874324D01*
X13113557Y-7899724D01*
X12922774Y-7899724D01*
X12922774Y-7901724D01*
X12907587Y-7901724D01*
X12896238Y-7874324D01*
X12897374Y-7874324D01*
X12897374Y-7763199D01*
X12881499Y-7747324D01*
X12482576Y-7747324D01*
X12482576Y-6725889D01*
X12522149Y-6765531D01*
X12637355Y-6813368D01*
X12762098Y-6813477D01*
X12877387Y-6765841D01*
X12965671Y-6677711D01*
X13013508Y-6562505D01*
X13013617Y-6437762D01*
X12965981Y-6322473D01*
X12926014Y-6282436D01*
X17317466Y-6282436D01*
X17317466Y-7740816D01*
X16908501Y-7740816D01*
X16892626Y-7756691D01*
X16892626Y-7867816D01*
X16894626Y-7867816D01*
X16894626Y-7876441D01*
X16894485Y-7876483D01*
X16887752Y-7895216D01*
X16867226Y-7895216D01*
X16867226Y-7893216D01*
X16673801Y-7893216D01*
X16663280Y-7867816D01*
X16867226Y-7867816D01*
X16867226Y-7756691D01*
X16851351Y-7740816D01*
X16417334Y-7740816D01*
X16393995Y-7750483D01*
X16376132Y-7768346D01*
X16366465Y-7791685D01*
X16366465Y-7816947D01*
X16366465Y-7851941D01*
X16378773Y-7864249D01*
X16378111Y-7864494D01*
X16355468Y-7925448D01*
X16357874Y-7990428D01*
X16378111Y-8039286D01*
X16404792Y-8049146D01*
X16433721Y-8020216D01*
X16469642Y-8020216D01*
X16422752Y-8067106D01*
X16432612Y-8093786D01*
X16493566Y-8116430D01*
X16500343Y-8116179D01*
X16503944Y-8289050D01*
X16481470Y-8289882D01*
X16432612Y-8310119D01*
X16422752Y-8336800D01*
X16459228Y-8373276D01*
X16423307Y-8373276D01*
X16404792Y-8354760D01*
X16378111Y-8364620D01*
X16355468Y-8425574D01*
X16357874Y-8490554D01*
X16375327Y-8532689D01*
X16366465Y-8541551D01*
X16366465Y-8576545D01*
X16366465Y-8601807D01*
X16376132Y-8625146D01*
X16393995Y-8643009D01*
X16417334Y-8652676D01*
X16851351Y-8652676D01*
X16867226Y-8636801D01*
X16867226Y-8525676D01*
X16667007Y-8525676D01*
X16676443Y-8500276D01*
X16867226Y-8500276D01*
X16867226Y-8498276D01*
X16882412Y-8498276D01*
X16893762Y-8525676D01*
X16892626Y-8525676D01*
X16892626Y-8636801D01*
X16908501Y-8652676D01*
X17317466Y-8652676D01*
X17317466Y-9674129D01*
M02*
